<svg id="图层_1" data-name="图层 1" xmlns="http://www.w3.org/2000/svg" viewBox="0 0 96 96"><defs><style>.cls-1{fill:#ffcb55;}.cls-2{fill:#1c1c1c;}.cls-3{fill:#ff9855;}.cls-4,.cls-5{fill:#fff;}.cls-5{opacity:0.18;}</style></defs><title>水滴屏</title><path class="cls-1" d="M57.64,82.44a70.15,70.15,0,0,1-9.65.67,67.24,67.24,0,0,1-34.85-9.44l-.44-.26-.24-.47a60.74,60.74,0,0,1-1.77-50.53l.21-.51.46-.31A66.9,66.9,0,0,1,48,11,66.94,66.94,0,0,1,84.64,21.59l.46.31.21.51a60.74,60.74,0,0,1-1.77,50.53l-.23.46-.44.27A63.43,63.43,0,0,1,72.1,78.85L65,89.78Z"/><path class="cls-2" d="M48,12.84A65.28,65.28,0,0,1,83.65,23.1a58.94,58.94,0,0,1-1.72,49,61.27,61.27,0,0,1-11,5.24l-6.26,9.57-6.38-6.41A68.07,68.07,0,0,1,48,81.31a65.62,65.62,0,0,1-33.92-9.18,58.94,58.94,0,0,1-1.72-49A65.21,65.21,0,0,1,48,12.84m0-3.6A68.61,68.61,0,0,0,10.38,20.09l-.93.6-.42,1a62.51,62.51,0,0,0,1.83,52l.46.93.89.53A69.05,69.05,0,0,0,48,84.91a70.88,70.88,0,0,0,9-.57l5.11,5.14,3.13,3.14,2.43-3.71,5.62-8.58A65.65,65.65,0,0,0,83.8,75.21l.88-.54.46-.92a62.51,62.51,0,0,0,1.83-52l-.42-1-.93-.6A68.65,68.65,0,0,0,48,9.24Z"/><path class="cls-3" d="M88.17,45.73a58.48,58.48,0,0,1-6.24,26.4,61.27,61.27,0,0,1-11,5.24l-6.26,9.57-6.38-6.41A68.07,68.07,0,0,1,48,81.31a65.62,65.62,0,0,1-33.92-9.18c12.17,3.27,38,8.69,56.57-.86a25.53,25.53,0,0,0,5.54-3.72c14.11-12.66,8.95-38,7.47-44.45A58.33,58.33,0,0,1,88.17,45.73Z"/><path class="cls-2" d="M86.09,30.16a23.62,23.62,0,0,0-21.36,6.47,23.65,23.65,0,0,1-33.45,0A23.64,23.64,0,0,0,9.91,30.16a60.46,60.46,0,0,1,2.44-7A61.52,61.52,0,0,1,24.54,17a68.26,68.26,0,0,1,46.93,0,60.9,60.9,0,0,1,12.18,6.12A58.66,58.66,0,0,1,86.09,30.16Z"/><path class="cls-4" d="M48,39A11,11,0,1,1,59,28,11,11,0,0,1,48,39Z"/><path d="M48,18.29A9.75,9.75,0,1,1,38.25,28,9.76,9.76,0,0,1,48,18.29m0-2.4A12.15,12.15,0,1,0,60.15,28,12.15,12.15,0,0,0,48,15.89Z"/><circle cx="48" cy="28.04" r="6.51"/><path d="M48,22.73A5.31,5.31,0,1,1,42.69,28,5.31,5.31,0,0,1,48,22.73m0-2.4A7.71,7.71,0,1,0,55.71,28,7.71,7.71,0,0,0,48,20.33Z"/><path class="cls-4" d="M42.51,28h2.17A3.32,3.32,0,0,1,48,24.71V22.55A5.49,5.49,0,0,0,42.51,28Z"/><path class="cls-5" d="M53.49,28H51.32A3.32,3.32,0,0,1,48,31.36v2.16A5.49,5.49,0,0,0,53.49,28Z"/><path d="M80,56.91a15.07,15.07,0,0,1-2.7,10.17,17.71,17.71,0,0,1-3.83,4,19.76,19.76,0,0,1-4.86,2.57,55.81,55.81,0,0,1-10.23,3,61.86,61.86,0,0,1-10.61,1.07,64.11,64.11,0,0,1-10.63-.83,56.57,56.57,0,0,1-10.3-2.77,17.42,17.42,0,0,1-8.52-6.85A15.92,15.92,0,0,1,16,56.91a17.27,17.27,0,0,0,3.69,9.27,15.25,15.25,0,0,0,3.64,3.21,16.58,16.58,0,0,0,4.36,2,66.41,66.41,0,0,0,9.9,2.06,65.35,65.35,0,0,0,10.08.6,62.94,62.94,0,0,0,10.07-.82A68.79,68.79,0,0,0,67.64,71l1.21-.39L70,70.16l1.09-.51,1.06-.57A16.28,16.28,0,0,0,80,56.91Z"/></svg>