<svg id="图层_1" data-name="图层 1" xmlns="http://www.w3.org/2000/svg" xmlns:xlink="http://www.w3.org/1999/xlink" viewBox="0 0 96 96"><defs><style>.cls-1{fill:#ffcb55;}.cls-2{fill:#1c1c1c;}.cls-3{fill:#ff9855;}.cls-4{fill:#ee2d2c;}.cls-5{fill:#f45d5d;}.cls-6{fill:none;stroke:#1c1c1c;stroke-width:2.4px;}.cls-6,.cls-7{stroke-linecap:round;stroke-linejoin:round;}.cls-7{stroke:#000;stroke-width:1.2px;fill:url(#未命名的渐变_63);}.cls-8{opacity:0.3;}.cls-9{fill:#0f1780;}</style><linearGradient id="未命名的渐变_63" x1="67.28" y1="59.58" x2="67.28" y2="91.71" gradientUnits="userSpaceOnUse"><stop offset="0" stop-color="#5dadf5"/><stop offset="1" stop-color="#4580d2"/></linearGradient></defs><title>睡觉</title><path class="cls-1" d="M48,82.29a67.34,67.34,0,0,1-34.83-9.42l-.44-.26-.23-.46A59.63,59.63,0,0,1,6,44.91a60.57,60.57,0,0,1,4.65-23.34l.22-.52.47-.3A67,67,0,0,1,48,10.23,67,67,0,0,1,84.66,20.75l.47.31.22.51A61,61,0,0,1,90,44.91a59.69,59.69,0,0,1-6.48,27.27l-.23.46-.45.27A67.62,67.62,0,0,1,48,82.29Z"/><path class="cls-2" d="M48,12A65.66,65.66,0,0,1,83.68,22.26a59.23,59.23,0,0,1,4.49,22.65,58.2,58.2,0,0,1-6.28,26.45A65.81,65.81,0,0,1,48,80.49a65.64,65.64,0,0,1-33.9-9.16,58.85,58.85,0,0,1-1.76-49.07A65.65,65.65,0,0,1,48,12m0-3.6A68.91,68.91,0,0,0,10.39,19.24l-.94.61-.43,1a62.19,62.19,0,0,0-4.79,24A61.35,61.35,0,0,0,10.9,73l.47.92.88.54A69.24,69.24,0,0,0,48,84.09a69.31,69.31,0,0,0,35.73-9.64l.89-.53L85.1,73a61.42,61.42,0,0,0,6.67-28.08,62.71,62.71,0,0,0-4.76-24l-.43-1-.94-.61A68.92,68.92,0,0,0,48,8.43Z"/><path class="cls-3" d="M88.13,45a58.48,58.48,0,0,1-6.24,26.4,67.29,67.29,0,0,1-67.86,0c12.17,3.27,38,8.69,56.57-.86a25.53,25.53,0,0,0,5.54-3.72c14.11-12.66,9-38,7.47-44.45A58.33,58.33,0,0,1,88.13,45Z"/><path class="cls-4" d="M48,74.82c-12.18,0-23.37-2.84-29.19-7.41C17.07,66,15,63.85,15,61.15c0-7.41,15.11-13.67,33-13.67s33,6.26,33,13.67c0,2.7-2.07,4.89-3.81,6.26C71.37,72,60.18,74.82,48,74.82Z"/><path d="M48,48.68c18.74,0,31.8,6.57,31.8,12.47,0,2.22-1.82,4.11-3.35,5.31C70.83,70.88,59.93,73.62,48,73.62s-22.83-2.74-28.45-7.16c-1.53-1.2-3.35-3.09-3.35-5.31,0-5.9,13.06-12.47,31.8-12.47m0-2.4c-18.89,0-34.2,6.66-34.2,14.87,0,2.61,1.55,5.07,4.27,7.2C23.89,72.92,35.11,76,48,76s24.11-3.1,29.93-7.67c2.72-2.13,4.27-4.59,4.27-7.2,0-8.21-15.31-14.87-34.2-14.87Z"/><path class="cls-5" d="M48,74.82c-11.32,0-21.78-2.45-27.87-6.47,6.09-4,16.55-6.47,27.87-6.47s21.78,2.46,27.87,6.47C69.78,72.37,59.32,74.82,48,74.82Z"/><path d="M48,63.08c10.12,0,19.5,2,25.54,5.27-6,3.3-15.42,5.27-25.54,5.27s-19.5-2-25.54-5.27c6-3.29,15.42-5.27,25.54-5.27m0-2.4c-12.89,0-24.11,3.1-29.93,7.67C23.89,72.92,35.11,76,48,76s24.11-3.1,29.93-7.67c-5.82-4.57-17-7.67-29.93-7.67Z"/><path class="cls-6" d="M20.65,33.18a33.17,33.17,0,0,1,10.2-5.05"/><path class="cls-6" d="M32.15,35.18a9.17,9.17,0,0,1-11.4,3.7"/><path class="cls-6" d="M75.35,33.18a33.17,33.17,0,0,0-10.2-5.05"/><path class="cls-6" d="M63.85,35.18a9.17,9.17,0,0,0,11.4,3.7"/><path class="cls-7" d="M77.24,60.48c-2.73-1.2-7.19,1-10.2,6.07a7.38,7.38,0,0,0-2.66,1.58A7.52,7.52,0,0,0,62.91,70c-3.66-.4-6.76.71-7.81,2.88a3.1,3.1,0,0,0-.21,2.56c.76,1.56,3.68,2.21,7.27,1.12a5.46,5.46,0,0,0-1.27,3.23c0,.5,0,2,.79,2.39s1.91-.49,2.06-.61c1.06-.87,1.28-3.73,1.35-3.73s-.46,13.69,1.27,14c.53.09,1.13-1,1.5-1.75,1.59-3,.91-5.52,1.17-9.81a34,34,0,0,1,.71-5.14,9,9,0,0,1,1.42-2.48,9.66,9.66,0,0,1,2.18-2c4.1-.75,6.67-3.67,6.52-6.37A4.68,4.68,0,0,0,77.24,60.48Z"/><g class="cls-8"><path class="cls-9" d="M79.86,64.38c.15,2.7-2.42,5.63-6.52,6.37a9.16,9.16,0,0,0-3.6,4.43A34,34,0,0,0,69,80.32c-.27,4.29.42,6.84-1.17,9.81-.37.71-1,1.84-1.5,1.75s-.79-1.24-1-2.85a6.44,6.44,0,0,0,1-1.5c1.59-3,.9-5.52,1.17-9.82a33.91,33.91,0,0,1,.71-5.13,9.44,9.44,0,0,1,1.42-2.48,8.92,8.92,0,0,1,2.18-1.94c4.1-.76,6.68-3.67,6.52-6.38a3.29,3.29,0,0,0-.08-.62A4.83,4.83,0,0,1,79.86,64.38Z"/></g></svg>