<svg id="图层_1" data-name="图层 1" xmlns="http://www.w3.org/2000/svg" viewBox="0 0 96 96"><defs><style>.cls-1{fill:#ffcb55;stroke:#f95;stroke-miterlimit:10;}.cls-1,.cls-2{stroke-width:2.4px;}.cls-2,.cls-4{fill:none;stroke-linecap:round;stroke-linejoin:round;}.cls-2{stroke:#f59f50;}.cls-3{fill-rule:evenodd;}.cls-4{stroke:#ee2d2c;stroke-width:3.6px;}</style></defs><title>太阳</title><path class="cls-1" d="M80.47,47.46a47.36,47.36,0,0,1-5,21.35A50.92,50.92,0,0,1,66.53,73l-5.06,7.73-5.16-5.18a54,54,0,0,1-8.32.63,53,53,0,0,1-27.42-7.41,47.7,47.7,0,0,1-1.39-39.64A52.76,52.76,0,0,1,48,20.88a52.82,52.82,0,0,1,28.83,8.29A47.16,47.16,0,0,1,80.47,47.46Z"/><line class="cls-2" x1="48" y1="80.05" x2="48" y2="87.87"/><line class="cls-2" x1="48" y1="9.27" x2="48" y2="16.37"/><line class="cls-2" x1="67.16" y1="79.67" x2="70.67" y2="85.37"/><line class="cls-2" x1="25.33" y1="11.77" x2="29.79" y2="19.01"/><line class="cls-2" x1="30.16" y1="77.52" x2="25.33" y2="85.37"/><line class="cls-2" x1="70.67" y1="11.77" x2="66.21" y2="19.01"/><line class="cls-2" x1="14.1" y1="66.16" x2="5.03" y2="70.87"/><line class="cls-2" x1="90.97" y1="26.27" x2="82.83" y2="30.49"/><line class="cls-2" x1="13.17" y1="30.49" x2="5.03" y2="26.27"/><line class="cls-2" x1="90.97" y1="70.87" x2="81.9" y2="66.16"/><line class="cls-2" x1="85.36" y1="48.57" x2="93.07" y2="48.57"/><line class="cls-2" x1="2.93" y1="48.57" x2="10.64" y2="48.57"/><path class="cls-3" d="M37.37,43.87c-.68,0-1.7-1.54-1.7-3.85s1-3.85,1.7-3.85,1.7,1.53,1.7,3.85S38,43.87,37.37,43.87Z"/><path d="M37.66,37.29h0m-.29.41a5.61,5.61,0,0,1,0,4.63,5.61,5.61,0,0,1,0-4.63m0-2.73c-1.61,0-2.9,2.26-2.9,5.05s1.29,5,2.9,5,2.9-2.26,2.9-5S39,35,37.37,35Z"/><path class="cls-3" d="M58.63,43.87c-.67,0-1.7-1.54-1.7-3.85s1-3.85,1.7-3.85,1.7,1.53,1.7,3.85S59.31,43.87,58.63,43.87Z"/><path d="M58.93,37.29h0m-.3.41a5.61,5.61,0,0,1,0,4.63,5.61,5.61,0,0,1,0-4.63m0-2.73c-1.6,0-2.9,2.26-2.9,5.05s1.3,5,2.9,5,2.9-2.26,2.9-5S60.24,35,58.63,35Z"/><path class="cls-4" d="M59.21,51.93a11.21,11.21,0,1,1-22.42,0"/></svg>