<svg id="图层_1" data-name="图层 1" xmlns="http://www.w3.org/2000/svg" viewBox="0 0 96 96"><defs><style>.cls-1,.cls-3{fill:#ffcb55;}.cls-1{fill-rule:evenodd;}.cls-2{fill:#1c1c1c;}.cls-4{fill:#ff9855;}.cls-5,.cls-7{fill:none;}.cls-5{stroke:#1c1c1c;stroke-miterlimit:10;stroke-width:2.4px;}.cls-6{fill:#ee2d2c;}.cls-7{stroke:#ee2d2c;stroke-linecap:round;stroke-linejoin:round;stroke-width:1.2px;}</style></defs><title>摊手</title><path class="cls-1" d="M72.67,88.12a5.35,5.35,0,0,1-4.08-1.8,5.78,5.78,0,0,1-1-5.17l0-.11,0-.09C72.93,70.52,79.88,64,85.8,64a7.91,7.91,0,0,1,1.55.16c2.07.41,6.25,2.18,7.25,5.9A7.82,7.82,0,0,1,93,76.86C91.2,79,88.86,79.35,86.6,79.68a14.4,14.4,0,0,0-5.9,1.85,12.8,12.8,0,0,0-4.58,5.29l-.17.33-.32.18A6,6,0,0,1,72.67,88.12Z"/><path class="cls-2" d="M85.81,65.23a7.18,7.18,0,0,1,1.31.13c1.78.36,5.47,1.9,6.32,5a6.59,6.59,0,0,1-1.37,5.69c-2.81,3.36-7.21,1.42-12,4.42a14.16,14.16,0,0,0-5,5.78,4.92,4.92,0,0,1-2.37.63,4.18,4.18,0,0,1-3.18-1.38,4.57,4.57,0,0,1-.75-4.05c5-9.9,11.61-16.25,17.07-16.26m0-2.4h0c-6.39,0-13.75,6.74-19.21,17.58l-.1.19-.06.2a7,7,0,0,0,1.24,6.31,6.56,6.56,0,0,0,5,2.21,7.27,7.27,0,0,0,3.54-.94l.65-.36.33-.66a11.64,11.64,0,0,1,4.15-4.81,13.07,13.07,0,0,1,5.43-1.68c2.38-.35,5.06-.75,7.14-3.25a9,9,0,0,0,1.85-7.84c-1.15-4.28-5.68-6.27-8.17-6.77a8.81,8.81,0,0,0-1.78-.18Z"/><path class="cls-3" d="M57.53,82.56a68.61,68.61,0,0,1-9.65.67A67.24,67.24,0,0,1,13,73.79l-.44-.26-.24-.47a60.74,60.74,0,0,1-1.77-50.53l.21-.51.46-.31A66.9,66.9,0,0,1,47.88,11.16,66.94,66.94,0,0,1,84.53,21.71L85,22l.21.51a60.74,60.74,0,0,1-1.77,50.53l-.24.46-.44.27A63,63,0,0,1,72,79L64.84,89.9Z"/><path class="cls-2" d="M47.88,13A65.36,65.36,0,0,1,83.54,23.22a58.94,58.94,0,0,1-1.72,49,61.59,61.59,0,0,1-11,5.24l-6.26,9.57-6.38-6.41a68.07,68.07,0,0,1-10.29.78A65.62,65.62,0,0,1,14,72.25a58.94,58.94,0,0,1-1.72-49A65.29,65.29,0,0,1,47.88,13m0-3.6A68.61,68.61,0,0,0,10.27,20.21l-.93.6-.42,1a62.51,62.51,0,0,0,1.83,52l.46.93.89.54A69.14,69.14,0,0,0,47.88,85a72.77,72.77,0,0,0,9-.56L62,89.6l3.13,3.14L67.56,89l5.62-8.58a65.65,65.65,0,0,0,10.51-5.12l.88-.54.46-.92a62.51,62.51,0,0,0,1.83-52l-.42-1-.93-.6A68.65,68.65,0,0,0,47.88,9.36Z"/><path class="cls-4" d="M88.06,45.85a58.51,58.51,0,0,1-6.24,26.4,62.29,62.29,0,0,1-11,5.24l-6.26,9.56-6.38-6.4a68.07,68.07,0,0,1-10.29.78A65.62,65.62,0,0,1,14,72.25c12.17,3.27,38,8.69,56.57-.86a25.53,25.53,0,0,0,5.54-3.72c14.11-12.66,9-38,7.47-44.45A58.33,58.33,0,0,1,88.06,45.85Z"/><path class="cls-5" d="M76.11,35.54a8.63,8.63,0,0,1-8.63-8.63"/><path class="cls-5" d="M44.29,25.5a10,10,0,0,1-10,10"/><circle class="cls-2" cx="42.96" cy="40.82" r="3.11"/><circle class="cls-2" cx="68.68" cy="40.82" r="3.11"/><path class="cls-6" d="M58.67,62.57A2.38,2.38,0,0,1,57.18,62a15.47,15.47,0,0,1-5.1-7.44,2.33,2.33,0,0,1,1.41-2.88,15.69,15.69,0,0,1,10.36,0,2.34,2.34,0,0,1,1.42,2.88A15.43,15.43,0,0,1,60.17,62,2.41,2.41,0,0,1,58.67,62.57Z"/><path class="cls-2" d="M58.67,51.74a14.59,14.59,0,0,1,4.88.83,1.42,1.42,0,0,1,.86,1.76,14.54,14.54,0,0,1-4.8,7,1.49,1.49,0,0,1-1.87,0,14.54,14.54,0,0,1-4.8-7,1.42,1.42,0,0,1,.85-1.76,14.63,14.63,0,0,1,4.88-.83m0-1.8a16.3,16.3,0,0,0-5.48.94,3.22,3.22,0,0,0-2,4,16.48,16.48,0,0,0,5.39,7.88,3.33,3.33,0,0,0,2.06.72,3.29,3.29,0,0,0,2.06-.72,16.34,16.34,0,0,0,5.39-7.88,3.21,3.21,0,0,0-2-4,16.32,16.32,0,0,0-5.49-.94Z"/><line class="cls-7" x1="20.68" y1="57.84" x2="29.49" y2="49.03"/><line class="cls-7" x1="24.19" y1="57.84" x2="33.01" y2="49.03"/><line class="cls-7" x1="27.71" y1="57.84" x2="36.52" y2="49.03"/><line class="cls-7" x1="31.22" y1="57.84" x2="40.03" y2="49.03"/><line class="cls-7" x1="34.73" y1="57.84" x2="43.54" y2="49.03"/><line class="cls-7" x1="68.68" y1="57.84" x2="77.49" y2="49.03"/><line class="cls-7" x1="72.19" y1="57.84" x2="81.01" y2="49.03"/><line class="cls-7" x1="75.71" y1="57.84" x2="84.52" y2="49.03"/><line class="cls-7" x1="79.22" y1="57.84" x2="88.03" y2="49.03"/><line class="cls-7" x1="82.73" y1="57.84" x2="91.54" y2="49.03"/><path class="cls-1" d="M27.94,89.05a6.1,6.1,0,0,1-1.41-.16l-.26-.06-.21-.16a14,14,0,0,0-6.21-2.84A11.22,11.22,0,0,0,18,85.67a16.48,16.48,0,0,0-3.88.56,15.67,15.67,0,0,1-3.55.53,8.69,8.69,0,0,1-3-.53c-2.91-1.07-6-3.71-6.33-7.24-.38-3.82,2.53-7.68,7-9.48-.06-2,.9-3.82,2.39-4.24a2.61,2.61,0,0,1,.69-.09,4.64,4.64,0,0,1,4,3.5,26.82,26.82,0,0,1,7.76,2.76A27.23,27.23,0,0,1,33.3,81.25l.07.12,0,.12a6,6,0,0,1-.59,5,5.78,5.78,0,0,1-4.88,2.54Z"/><path class="cls-2" d="M11.33,66.38c1.1,0,2.66,1.2,3,3.34a25.56,25.56,0,0,1,8.18,2.78,26.06,26.06,0,0,1,9.75,9.37,4.76,4.76,0,0,1-.45,4,4.61,4.61,0,0,1-3.88,2,5.07,5.07,0,0,1-1.15-.13A15,15,0,0,0,20,84.65,12,12,0,0,0,18,84.47c-3,0-5.06,1.09-7.43,1.09A7.43,7.43,0,0,1,8,85.1c-2.43-.89-5.25-3.19-5.55-6.23-.33-3.36,2.5-7.07,7.12-8.55-.39-2,.45-3.62,1.43-3.9a1.37,1.37,0,0,1,.36,0m0-2.4a3.86,3.86,0,0,0-1,.13,5,5,0,0,0-3.24,4.61C2.51,70.83-.37,75,0,79.11s3.86,7,7.12,8.24a9.61,9.61,0,0,0,3.38.61,16.9,16.9,0,0,0,3.82-.56A15.56,15.56,0,0,1,18,86.87a10.9,10.9,0,0,1,1.69.14,12.79,12.79,0,0,1,5.67,2.61l.42.33.52.11a7.34,7.34,0,0,0,1.68.19,7,7,0,0,0,5.89-3.08,7.2,7.2,0,0,0,.72-6.06l-.09-.25-.14-.23A28.51,28.51,0,0,0,23.67,70.39a27.78,27.78,0,0,0-7.46-2.76A5.7,5.7,0,0,0,11.33,64Z"/></svg>