<svg id="图层_1" data-name="图层 1" xmlns="http://www.w3.org/2000/svg" viewBox="0 0 96 96"><defs><style>.cls-1{fill:#ffcb55;}.cls-2{fill:#1c1c1c;}.cls-3{fill:#ff9855;}.cls-4{fill:#f66;}.cls-5{fill:#ed2d2c;}.cls-6{fill:#333;}.cls-7{fill:none;stroke:#000;stroke-linecap:round;stroke-linejoin:round;stroke-width:2.4px;}.cls-8{fill:#f45d5d;}.cls-9{fill:#ee2d2c;}</style></defs><title>舔狗</title><path class="cls-1" d="M59.83,19.21l1.27-1.06c8.17-6.81,16.48-11.1,24.68-12.74a13.9,13.9,0,0,1,2.58-.32,4.9,4.9,0,0,1,2.87.82c4.23,2.91,3.1,12.7-3.35,29.09l-.52,1.34Z"/><path class="cls-2" d="M88.36,6.29a3.7,3.7,0,0,1,2.19.61c5.28,3.63-1.38,21.55-3.78,27.66L61.87,19.07C67.57,14.32,76.07,8.58,86,6.59a12.1,12.1,0,0,1,2.34-.3m0-2.4a15,15,0,0,0-2.81.34c-8.41,1.68-16.89,6.06-25.22,13l-2.55,2.13,2.82,1.75L85.5,36.6,88,38.12l1-2.68a108.68,108.68,0,0,0,4.88-15.11c1.87-8.17,1.22-13.21-2-15.41a6.08,6.08,0,0,0-3.55-1Z"/><path class="cls-3" d="M68,25.43A29.38,29.38,0,0,1,86,14.83,20,20,0,0,1,84.69,22a20.87,20.87,0,0,1-8.25,9.91Q72.19,28.67,68,25.43Z"/><path d="M67,24.68a30.13,30.13,0,0,1,19-9.85A28.9,28.9,0,0,0,68.89,26.19a1.2,1.2,0,0,1-2-1.39.76.76,0,0,1,.08-.11Z"/><path class="cls-1" d="M11.89,26.86a27.36,27.36,0,0,1,7-16.9A27.23,27.23,0,0,1,36.32,1.37l1.19-.1.11,1.19a23.93,23.93,0,0,1-2,12.13A23.39,23.39,0,0,1,31,21.2l-.19.19L11.88,28.66Z"/><path class="cls-2" d="M36.42,2.57a22.64,22.64,0,0,1-1.94,11.52,22,22,0,0,1-4.33,6.27L13.09,26.91a25.9,25.9,0,0,1,6.64-16.14,26,26,0,0,1,16.69-8.2M38.59,0l-2.38.2A27.88,27.88,0,0,0,10.69,26.81l-.16,3.65L14,29.15,31,22.6l.49-.18.36-.38a24.44,24.44,0,0,0,4.8-6.94A25.11,25.11,0,0,0,38.81,2.35L38.59,0Z"/><path class="cls-1" d="M57.36,83a64.91,64.91,0,0,1-8.85.6,62.29,62.29,0,0,1-31.64-8.38,5,5,0,0,1-.67,0,6,6,0,0,1-4.15-10.45l-1.92-9.41A10.27,10.27,0,0,1,5.59,51c-2.66-5.28,0-12.7,6.39-17.83L14.15,27l.53-.34a63.63,63.63,0,0,1,33.83-9.74,61.85,61.85,0,0,1,33.87,9.76l.46.3.21.51a56.13,56.13,0,0,1-1.64,46.72l-.23.46-.44.27a58.21,58.21,0,0,1-9.91,4.77L64.17,89.84Z"/><path class="cls-2" d="M48.51,18.67a60.18,60.18,0,0,1,32.88,9.47A54.31,54.31,0,0,1,79.8,73.35a57.09,57.09,0,0,1-10.15,4.83L63.88,87,58,81.09a61.48,61.48,0,0,1-9.48.72,60.49,60.49,0,0,1-31.28-8.46,4.53,4.53,0,0,1-1,.12,4.3,4.3,0,0,1-3.85-2.3A4.37,4.37,0,0,1,14,65.55q-1.17-5.69-2.32-11.36a8.76,8.76,0,0,1-4.52-4c-2.2-4.37.08-11.14,6.3-15.93q1.08-3.06,2.14-6.12a62.17,62.17,0,0,1,32.87-9.47m0-3.6a65.39,65.39,0,0,0-34.79,10l-1.06.67L12.24,27l-.7,2-1.1,3.15C3.72,37.75,1,45.89,4,51.81a12,12,0,0,0,4.55,4.77l.89,4.34.69,3.36A7.79,7.79,0,0,0,16.2,77.07h.24a64.26,64.26,0,0,0,32.07,8.34,67.73,67.73,0,0,0,8.2-.5l4.62,4.63,3.13,3.14L66.89,89,72,81.14a61.26,61.26,0,0,0,9.65-4.71l.88-.54L83,75a57.93,57.93,0,0,0,1.69-48.22l-.42-1-.93-.61a63.63,63.63,0,0,0-34.85-10Z"/><path class="cls-3" d="M85.56,49A53.93,53.93,0,0,1,79.8,73.35a57.09,57.09,0,0,1-10.15,4.83L63.88,87,58,81.09a62.75,62.75,0,0,1-9.48.72,60.49,60.49,0,0,1-31.28-8.46c11.22,3,35.07,8,52.16-.79a23.17,23.17,0,0,0,5.11-3.44c13-11.67,8.25-35.06,6.89-41A53.78,53.78,0,0,1,85.56,49Z"/><path class="cls-4" d="M48.4,43.76l-.29-.19c-5.46-3.65-8.17-9.06-6.6-13.17.73-1.9,2.91-4.73,5.94-4.73a4.54,4.54,0,0,1,.82.07,6,6,0,0,1,4.47,4.15,6.63,6.63,0,0,1,3.88-1.32,5,5,0,0,1,2.16.46c3.13,1.44,3.44,5.47,2.9,7.68-1,4.16-6.18,7.06-12.54,7.06Z"/><path class="cls-2" d="M47.45,26.87a3.2,3.2,0,0,1,.61.05c2.09.37,3.85,2.6,3.91,5.43a5.92,5.92,0,0,1,4.65-2.58,3.86,3.86,0,0,1,1.66.35c2.38,1.09,2.7,4.42,2.23,6.3-.86,3.5-5.4,6.15-11.37,6.15h-.37c-5.11-3.42-7.45-8.31-6.14-11.74.64-1.67,2.51-4,4.82-4m0-2.4h0c-3.64,0-6.21,3.29-7.06,5.5-1.77,4.64,1.13,10.64,7,14.59L48,45l.7,0h.41c7,0,12.53-3.2,13.7-8,.8-3.24-.18-7.51-3.56-9.07a6.41,6.41,0,0,0-2.66-.56,7.53,7.53,0,0,0-3.34.8,6.93,6.93,0,0,0-4.8-3.61,6,6,0,0,0-1-.09Z"/><path class="cls-5" d="M60.51,36.42c-.88,3.57-5.58,6.26-11.74,6.15a15,15,0,0,1-6-7.12,16.67,16.67,0,0,0,4.75,4.62c6.16.12,10.86-2.56,11.74-6.14a7.4,7.4,0,0,0,0-3.12C60.74,32.24,60.9,34.84,60.51,36.42Z"/><path class="cls-4" d="M17.37,37.88c-3.86-.42-6.78-2.58-7.09-5.25-.16-1.42.37-3.93,2.5-4.6a3.37,3.37,0,0,1,1-.15,4,4,0,0,1,2.28.76,3.71,3.71,0,0,1,2.87-1.7h.15c1.91,0,3.38,1.78,3.78,3.45C23.5,33,21.51,36,18,37.76l-.32.16Z"/><path class="cls-2" d="M19.08,28.13c1.4,0,2.37,1.51,2.62,2.53.48,2-1.15,4.51-4.2,6-3.39-.37-5.79-2.18-6-4.2-.13-1.07.28-2.87,1.66-3.31a2.31,2.31,0,0,1,.64-.1,3.21,3.21,0,0,1,2.68,1.77A3,3,0,0,1,19,28.13h.1m0-2.4h-.21a4.73,4.73,0,0,0-3.08,1.37,5,5,0,0,0-2-.43,4.44,4.44,0,0,0-1.36.21c-2.51.79-3.59,3.62-3.33,5.88.38,3.23,3.73,5.82,8.15,6.3l.7.08.63-.31c4-2,6.23-5.58,5.46-8.74-.53-2.17-2.4-4.37-5-4.37Z"/><path class="cls-5" d="M21.7,30.66c.48,2-1.14,4.51-4.2,6a8.28,8.28,0,0,1-4.78-2,9.46,9.46,0,0,0,3.52,1.06c3.06-1.52,4.68-4,4.2-6a4.19,4.19,0,0,0-.79-1.54A3.51,3.51,0,0,1,21.7,30.66Z"/><path class="cls-6" d="M23.74,51.71a13.69,13.69,0,0,1-10.16-4.56,3.56,3.56,0,0,1-.78-3.31,3.44,3.44,0,0,1,2.29-2.43,31.56,31.56,0,0,1,7.75-1.51c.7,0,1.41-.07,2.11-.07a31.89,31.89,0,0,1,7.58.92,3.58,3.58,0,0,1,2.54,2.31,3.5,3.5,0,0,1-.54,3.33A13.61,13.61,0,0,1,24.2,51.7Z"/><path d="M25,41h0a31,31,0,0,1,7.29.88,2.4,2.4,0,0,1,1.7,1.54,2.32,2.32,0,0,1-.36,2.2,12.41,12.41,0,0,1-9.42,4.85h-.42a12.49,12.49,0,0,1-9.27-4.16,2.32,2.32,0,0,1-.51-2.2,2.24,2.24,0,0,1,1.5-1.6,30.7,30.7,0,0,1,7.46-1.45c.67-.05,1.36-.07,2-.07m0-2.4c-.71,0-1.44,0-2.19.07a32.91,32.91,0,0,0-8,1.57,4.75,4.75,0,0,0-2,7.68,14.87,14.87,0,0,0,11,5h.5a14.85,14.85,0,0,0,11.24-5.78,4.77,4.77,0,0,0-2.67-7.54A33.22,33.22,0,0,0,25,38.63Z"/><path class="cls-7" d="M23.66,52a27,27,0,0,0,1.28,7.57"/><path class="cls-8" d="M43.84,74.44c-1.85,0-3.54-.06-5.16-.18a76.93,76.93,0,0,1-9.22-1.17,33.43,33.43,0,0,1-13-6.41A35.84,35.84,0,0,1,5.8,52.53c.45.26.89.51,1.34.75a81.12,81.12,0,0,0,12.51,5.26,79.1,79.1,0,0,0,24.19,3.77,78.45,78.45,0,0,0,29.69-5.77,12.76,12.76,0,0,0,5.6-4.45q-.1.52-.24,1A27.59,27.59,0,0,1,56.24,73.44c-1.24.21-2.51.38-3.77.52A77.6,77.6,0,0,1,43.84,74.44Z"/><path d="M8.48,55.31a85.06,85.06,0,0,0,10.81,4.37,80.18,80.18,0,0,0,24.55,3.83A79.58,79.58,0,0,0,74,57.65a13.73,13.73,0,0,0,2.64-1.43,26.64,26.64,0,0,1-20.57,16c-1.22.2-2.47.37-3.71.51a77.69,77.69,0,0,1-8.5.47c-1.81,0-3.47-.06-5.1-.18a76.83,76.83,0,0,1-9.06-1.15,33,33,0,0,1-12.5-6.17,33.7,33.7,0,0,1-8.7-10.43M81,46.11c-.7,1.5-1.45,3-2.27,4.4a11.48,11.48,0,0,1-5.64,4.92,77.35,77.35,0,0,1-29.23,5.68A77.46,77.46,0,0,1,20,57.39a78.84,78.84,0,0,1-12.3-5.16c-1.76-1-3.2-1.84-4.25-2.52A37.47,37.47,0,0,0,15.7,67.62a34.87,34.87,0,0,0,13.53,6.65,75.75,75.75,0,0,0,9.36,1.18c1.74.14,3.48.19,5.25.19a76.94,76.94,0,0,0,8.77-.49c1.28-.14,2.56-.32,3.82-.52,11.36-1.85,20.86-10.06,23.63-21.22.11-.47.22-.93.31-1.4a30.36,30.36,0,0,0,.61-5.9Z"/><path class="cls-9" d="M34.05,94.8c-8,0-15.23-3.67-17.07-8.73C14.16,78.29,24.29,67.78,32.5,64a25.7,25.7,0,0,1,5.6-1.84,45.81,45.81,0,0,0,5.84.38h.14c1,0,1.91,0,2.87-.1a30.23,30.23,0,0,0-7.67,19.94,28.17,28.17,0,0,0,1.51,8.78,2.49,2.49,0,0,1-2,3.28A28.7,28.7,0,0,1,34.05,94.8Z"/><path d="M38.15,63.33a45.06,45.06,0,0,0,5.8.37h.43a30.7,30.7,0,0,0-6.3,18.65,29.2,29.2,0,0,0,1.58,9.16,1.31,1.31,0,0,1-.11,1.09,1.35,1.35,0,0,1-.93.62,28.37,28.37,0,0,1-4.57.38c-8.57,0-14.51-4-15.94-7.94C15.76,79.17,24.33,69.08,33,65.05a24.54,24.54,0,0,1,5.15-1.72m11.92-2.46a42.21,42.21,0,0,1-6,.43H44a42.51,42.51,0,0,1-5.89-.4,26.56,26.56,0,0,0-6.07,2c-9,4.21-19.17,15.24-16.13,23.61C17.79,91.8,25,96,34.05,96a30.53,30.53,0,0,0,5-.41,3.71,3.71,0,0,0,2.92-4.86,26.87,26.87,0,0,1-1.45-8.4c-.13-12,7.9-19.87,9.59-21.46Z"/><path d="M42.45,63.54a21.17,21.17,0,0,0-5.8,2.81A20.65,20.65,0,0,0,32,70.9a23.5,23.5,0,0,0-4.44,12.46,25.05,25.05,0,0,1,.77-6.77,22.32,22.32,0,0,1,7.26-11.67,23.32,23.32,0,0,1,6.09-3.64h0a1.2,1.2,0,1,1,.91,2.22Z"/></svg>