<svg id="图层_1" data-name="图层 1" xmlns="http://www.w3.org/2000/svg" viewBox="0 0 96 96"><defs><style>.cls-1{fill:#ffcb55;}.cls-2{fill:#1c1c1c;}.cls-3{fill:#ff9855;}.cls-4{fill:none;stroke:#1c1c1c;stroke-linecap:round;stroke-linejoin:round;stroke-width:2.39px;}</style></defs><title>托脸</title><path class="cls-1" d="M48,83.13A67.11,67.11,0,0,1,13.3,73.74l-.44-.26L12.63,73A59.45,59.45,0,0,1,6.17,45.88a60.25,60.25,0,0,1,4.64-23.27L11,22.1l.46-.3A66.87,66.87,0,0,1,48,11.31,66.88,66.88,0,0,1,84.54,21.8l.47.3.21.52a60.73,60.73,0,0,1,4.61,23.26,59.52,59.52,0,0,1-6.46,27.17l-.23.46-.45.27A67.36,67.36,0,0,1,48,83.13Z"/><path class="cls-2" d="M48,13.11A65.45,65.45,0,0,1,83.56,23.3,59.27,59.27,0,0,1,88,45.88a58,58,0,0,1-6.26,26.36A65.63,65.63,0,0,1,48,81.33a65.46,65.46,0,0,1-33.78-9.12A57.94,57.94,0,0,1,8,45.88a58.73,58.73,0,0,1,4.5-22.58A65.44,65.44,0,0,1,48,13.11m0-3.59A68.61,68.61,0,0,0,10.52,20.29l-.94.61-.42,1a62,62,0,0,0-4.78,24A61.21,61.21,0,0,0,11,73.83l.47.92.88.53A68.85,68.85,0,0,0,48,84.92a69.1,69.1,0,0,0,35.61-9.61l.88-.53.47-.92a61.27,61.27,0,0,0,6.65-28,62.48,62.48,0,0,0-4.74-23.94l-.43-1-.94-.61A68.62,68.62,0,0,0,48,9.52Z"/><path class="cls-3" d="M88,45.92a58.26,58.26,0,0,1-6.22,26.32,67.1,67.1,0,0,1-67.62,0C26.27,75.49,52,80.9,70.52,71.38A25,25,0,0,0,76,67.67C90.11,55.06,85,29.78,83.49,23.38A58.05,58.05,0,0,1,88,45.92Z"/><path class="cls-4" d="M38.36,21.81c0,2.79-5.56,5-12.38,5"/><path class="cls-4" d="M57.64,21.81c0,2.79,5.56,5,12.38,5"/><path class="cls-2" d="M32.4,59.15a23.77,23.77,0,0,0-2.39-5,17.8,17.8,0,0,0-8-6.76,23.44,23.44,0,0,0-5.37-1.55,10.82,10.82,0,0,1,5.95-.24,12.95,12.95,0,0,1,9.05,7.7A10.92,10.92,0,0,1,32.4,59.15Z"/><path class="cls-2" d="M63.6,59.15a10.92,10.92,0,0,1,.73-5.9,12.95,12.95,0,0,1,9-7.7,10.82,10.82,0,0,1,6,.24A23.44,23.44,0,0,0,74,47.34a17.8,17.8,0,0,0-8,6.76A23.77,23.77,0,0,0,63.6,59.15Z"/><path class="cls-1" d="M27.43,85.84a8.37,8.37,0,0,1-4.86-1.45,9,9,0,0,1-3.52-9l.37-2.12-2.16,0c-.39,0-9.22-.08-13.33-7.09C1.53,62.13.67,56,3.8,52.55,5.72,50.46,8.63,50,10.72,50a19.3,19.3,0,0,1,8.49,2.08C27.73,56.58,31.5,70,28.75,85.76A10.28,10.28,0,0,1,27.43,85.84Z"/><path class="cls-2" d="M10.72,51.81a17.58,17.58,0,0,1,7.66,1.87c7.45,3.93,10.94,16.2,8.83,30.37a6.58,6.58,0,0,1-3.62-1.13,7.22,7.22,0,0,1-2.77-7.21l.69-4.2H17.25c-.33,0-8.17-.07-11.77-6.2-2.06-3.5-2.78-8.92-.36-11.55,1.48-1.61,3.87-1.95,5.6-1.95m0-3.58c-3.11,0-6.16.84-8.24,3.1-3.83,4.17-2.71,11.34-.1,15.8,4.57,7.77,14.07,8,14.87,8h0a10.81,10.81,0,0,0,4.26,10.76,10.21,10.21,0,0,0,5.89,1.78,11.39,11.39,0,0,0,2.86-.36c3.33-17.14-.85-31.83-10.24-36.77a21.16,21.16,0,0,0-9.33-2.28Z"/><path class="cls-1" d="M68.57,85.84a10.28,10.28,0,0,1-1.32-.08C64.5,70,68.27,56.58,76.79,52.1A19.3,19.3,0,0,1,85.28,50c2.09,0,5,.44,6.92,2.53,3.13,3.4,2.27,9.58-.13,13.67-4.11,7-12.94,7.09-13.32,7.09H76.62L77,75.4a9,9,0,0,1-3.52,9,8.37,8.37,0,0,1-4.86,1.45Z"/><path class="cls-2" d="M85.28,51.81c1.73,0,4.12.34,5.6,1.95,2.42,2.63,1.7,8.05-.36,11.55-3.6,6.13-11.44,6.2-11.76,6.2l-4.31-.05.73,4.25a7.22,7.22,0,0,1-2.77,7.21,6.58,6.58,0,0,1-3.62,1.13c-2.11-14.17,1.38-26.44,8.83-30.37a17.58,17.58,0,0,1,7.66-1.87m0-3.58A21,21,0,0,0,76,50.51c-9.39,4.94-13.57,19.63-10.24,36.77a11.39,11.39,0,0,0,2.86.36,10.21,10.21,0,0,0,5.89-1.78A10.81,10.81,0,0,0,78.72,75.1h0c.8,0,10.3-.2,14.87-8,2.61-4.46,3.73-11.63-.1-15.8-2.08-2.26-5.13-3.1-8.24-3.1Z"/><circle cx="33.22" cy="35.29" r="3.11"/><circle cx="62.78" cy="35.29" r="3.11"/><line class="cls-4" x1="39.63" y1="56.76" x2="56.37" y2="56.76"/></svg>