<svg id="图层_1" data-name="图层 1" xmlns="http://www.w3.org/2000/svg" xmlns:xlink="http://www.w3.org/1999/xlink" viewBox="0 0 96 96"><defs><style>.cls-1{fill:#fc5;}.cls-2{fill:#1c1c1c;}.cls-3{fill:#f95;}.cls-4{fill:url(#未命名的渐变_24);}.cls-5{fill:none;stroke:#ee2d2c;stroke-linecap:round;stroke-linejoin:round;stroke-width:2.4px;}.cls-6{fill:#ee2d2c;}.cls-7{fill:#fff;}</style><radialGradient id="未命名的渐变_24" cx="28.56" cy="87.53" r="20.83" gradientTransform="translate(0 -51.25)" gradientUnits="userSpaceOnUse"><stop offset="0" stop-color="#7734ff"/><stop offset="0.13" stop-color="#7934fc" stop-opacity="0.98"/><stop offset="0.25" stop-color="#7f35f3" stop-opacity="0.94"/><stop offset="0.38" stop-color="#8a36e4" stop-opacity="0.86"/><stop offset="0.5" stop-color="#9938ce" stop-opacity="0.75"/><stop offset="0.63" stop-color="#ac3ab3" stop-opacity="0.61"/><stop offset="0.75" stop-color="#c33c91" stop-opacity="0.44"/><stop offset="0.88" stop-color="#df3f69" stop-opacity="0.24"/><stop offset="1" stop-color="#fe433d" stop-opacity="0.01"/><stop offset="1" stop-color="#ff433b" stop-opacity="0"/></radialGradient></defs><title>不正经滑稽</title><path class="cls-1" d="M57.74,82.44a70.15,70.15,0,0,1-9.65.67,67.24,67.24,0,0,1-34.85-9.44l-.44-.27-.24-.46a60.74,60.74,0,0,1-1.77-50.53l.21-.52.46-.3A66.88,66.88,0,0,1,48.09,11,66.94,66.94,0,0,1,84.74,21.59l.46.3.21.52a60.74,60.74,0,0,1-1.77,50.53l-.24.46-.44.27A63.35,63.35,0,0,1,72.2,78.85L65.05,89.78Z"/><path class="cls-2" d="M48.09,12.83A65.28,65.28,0,0,1,83.75,23.1a58.94,58.94,0,0,1-1.72,49,62.29,62.29,0,0,1-11,5.24l-6.26,9.56-6.38-6.4a68.07,68.07,0,0,1-10.29.78,65.62,65.62,0,0,1-33.92-9.18,58.94,58.94,0,0,1-1.72-49A65.21,65.21,0,0,1,48.09,12.83m0-3.6A68.69,68.69,0,0,0,10.48,20.08l-.93.61-.43,1a62.61,62.61,0,0,0,1.83,52l.47.93.89.53a69.05,69.05,0,0,0,35.78,9.7,70.88,70.88,0,0,0,9-.57l5.11,5.14,3.13,3.14,2.43-3.71,5.62-8.58A65.65,65.65,0,0,0,83.9,75.21l.88-.54.46-.92a62.51,62.51,0,0,0,1.83-52l-.42-1-.93-.61A68.74,68.74,0,0,0,48.09,9.23Z"/><path class="cls-3" d="M88.27,45.72A58.52,58.52,0,0,1,82,72.13a61.56,61.56,0,0,1-11,5.23l-6.26,9.57-6.38-6.4a68.07,68.07,0,0,1-10.29.78,65.62,65.62,0,0,1-33.92-9.18c12.17,3.26,38,8.69,56.57-.86a25.17,25.17,0,0,0,5.54-3.73c14.11-12.65,9-38,7.47-44.44A58.32,58.32,0,0,1,88.27,45.72Z"/><circle class="cls-4" cx="28.56" cy="36.28" r="20.83"/><path class="cls-5" d="M44.84,44.43c-.18,2.73-.32,4.73-.45,6.36a21.13,21.13,0,0,0,0,5c.1.63.2,1.16.29,1.52"/><path class="cls-5" d="M51.7,44.27c-.07,2.19,0,4,0,5.45.11,3.52.35,4.19.17,6.3-.22,2.57-.69,3-.9,5.23a18.69,18.69,0,0,0,.51,6.3"/><path class="cls-6" d="M80.89,48.79,77.05,59.08a7.27,7.27,0,0,1-12.53,2.77l0,0-.11-.13-5.31-6.31a2.21,2.21,0,0,1,.26-3.11,2.21,2.21,0,0,1,3.12.27l1.1,1.3c1,1.13,1.34,1.07,1.47,1,.65-.27.21-2.66.12-3.11l-1.64-9.27A1.86,1.86,0,0,1,65,40.32a1.73,1.73,0,0,1,.32,0,1.87,1.87,0,0,1,1.84,1.54L68.63,50l.18-10.7a2,2,0,0,1,4,0v0l-.19,11h0l1.79-8.07a1.85,1.85,0,0,1,3.62.81l-2.16,9.69,1.91-5.13a1.68,1.68,0,0,1,1.56-1.09,1.71,1.71,0,0,1,.59.11A1.67,1.67,0,0,1,80.89,48.79Z"/><path class="cls-7" d="M17.77,36.36a3.43,3.43,0,0,1-2.44-1,3.51,3.51,0,0,1-1-2.85,3.3,3.3,0,0,1,1.49-2.44,25.16,25.16,0,0,1,27.3,0A3.29,3.29,0,0,1,44.6,32.5a3.45,3.45,0,0,1-1,2.84,3.4,3.4,0,0,1-2.44,1,3.34,3.34,0,0,1-1.82-.54,18.3,18.3,0,0,0-19.74,0A3.4,3.4,0,0,1,17.77,36.36Z"/><path d="M29.46,27.23a23.84,23.84,0,0,1,13,3.83,2.09,2.09,0,0,1,.95,1.57,2.29,2.29,0,0,1-.66,1.86,2.23,2.23,0,0,1-1.59.67A2.09,2.09,0,0,1,40,34.81a19.51,19.51,0,0,0-21,0,2.15,2.15,0,0,1-1.18.35,2.25,2.25,0,0,1-1.6-.66,2.29,2.29,0,0,1-.65-1.87,2.11,2.11,0,0,1,.94-1.57,23.81,23.81,0,0,1,13-3.83m0-2.4a26.24,26.24,0,0,0-14.31,4.22,4.62,4.62,0,0,0-.67,7.14h0a4.65,4.65,0,0,0,3.29,1.37,4.56,4.56,0,0,0,2.48-.73,17.09,17.09,0,0,1,18.44,0,4.53,4.53,0,0,0,2.47.73A4.66,4.66,0,0,0,43.77,29a26.29,26.29,0,0,0-14.31-4.21Z"/><circle class="cls-2" cx="17.73" cy="32.89" r="4.65"/><path class="cls-7" d="M55.06,36.36a3.45,3.45,0,0,1-2.44-1,3.5,3.5,0,0,1-1-2.85,3.29,3.29,0,0,1,1.48-2.44,25.18,25.18,0,0,1,27.31,0A3.32,3.32,0,0,1,81.9,32.5a3.51,3.51,0,0,1-1,2.84,3.44,3.44,0,0,1-2.45,1,3.34,3.34,0,0,1-1.82-.54,18.3,18.3,0,0,0-19.74,0A3.38,3.38,0,0,1,55.06,36.36Z"/><path d="M66.76,27.23a23.86,23.86,0,0,1,13,3.83,2.12,2.12,0,0,1,.95,1.57,2.29,2.29,0,0,1-.66,1.86,2.26,2.26,0,0,1-1.6.67,2.11,2.11,0,0,1-1.17-.35,19.51,19.51,0,0,0-21,0,2.15,2.15,0,0,1-1.18.35,2.22,2.22,0,0,1-1.59-.66,2.33,2.33,0,0,1-.66-1.87,2.12,2.12,0,0,1,.95-1.57,23.79,23.79,0,0,1,13-3.83m0-2.4a26.21,26.21,0,0,0-14.31,4.22,4.63,4.63,0,0,0-.68,7.14h0a4.65,4.65,0,0,0,3.29,1.37,4.56,4.56,0,0,0,2.48-.73,17.09,17.09,0,0,1,18.44,0,4.56,4.56,0,0,0,2.47.73A4.66,4.66,0,0,0,81.06,29a26.28,26.28,0,0,0-14.3-4.21Z"/><circle class="cls-2" cx="55.03" cy="32.89" r="4.65"/><path class="cls-2" d="M31,19.23a24.34,24.34,0,0,0-2.76-4.49,11.92,11.92,0,0,0-3.66-3.12,10.62,10.62,0,0,0-4.61-1.24,19.93,19.93,0,0,0-5.21.53,9.68,9.68,0,0,1,5.11-2.42,9.37,9.37,0,0,1,5.83,1,10,10,0,0,1,4.12,4.22A10.52,10.52,0,0,1,31,19.23Z"/><path class="cls-2" d="M65.25,19.23a10.51,10.51,0,0,1,1.17-5.51A10.09,10.09,0,0,1,70.54,9.5a9.4,9.4,0,0,1,5.84-1,9.68,9.68,0,0,1,5.11,2.42,20,20,0,0,0-5.21-.53,10.62,10.62,0,0,0-4.61,1.24A11.92,11.92,0,0,0,68,14.74,24.34,24.34,0,0,0,65.25,19.23Z"/><path d="M82.78,49.88a25.71,25.71,0,0,1-2,12.43,20.74,20.74,0,0,1-8.47,9.82,51.38,51.38,0,0,1-11.87,4.8,53.48,53.48,0,0,1-12.71,1.74A53.17,53.17,0,0,1,35,77.26a54.23,54.23,0,0,1-6.13-1.88c-1-.37-2-.76-3-1.2A19.54,19.54,0,0,1,23,72.59a21.21,21.21,0,0,1-8-10.2,28.41,28.41,0,0,1-1.53-12.51,32.91,32.91,0,0,0,3.15,11.79,20.33,20.33,0,0,0,7.85,8.53A17.86,17.86,0,0,0,27,71.39c.94.36,1.9.7,2.85,1a49.67,49.67,0,0,0,5.84,1.53,53,53,0,0,0,12,1.15,53.42,53.42,0,0,0,11.94-1.45,56,56,0,0,0,11.38-4,19.78,19.78,0,0,0,8.21-8.13A29.34,29.34,0,0,0,82.78,49.88Z"/></svg>