<svg id="图层_1" data-name="图层 1" xmlns="http://www.w3.org/2000/svg" viewBox="0 0 96 96"><defs><style>.cls-1{fill:#ffcb55;}.cls-2{fill:#1c1c1c;}.cls-3{fill:#ff9855;}.cls-4,.cls-5{fill:#fff;}.cls-5{opacity:0.18;}</style></defs><title>挖槽屏</title><path class="cls-1" d="M57.64,82.44a70.15,70.15,0,0,1-9.65.67,67.27,67.27,0,0,1-34.85-9.44l-.44-.27-.24-.46a60.74,60.74,0,0,1-1.77-50.53l.21-.52.46-.3A66.91,66.91,0,0,1,48,11,67,67,0,0,1,84.64,21.59l.46.3.21.52a60.74,60.74,0,0,1-1.77,50.53l-.23.46-.44.27A64.19,64.19,0,0,1,72.1,78.85L65,89.78Z"/><path class="cls-2" d="M48,12.83A65.28,65.28,0,0,1,83.65,23.1a58.94,58.94,0,0,1-1.72,49,62,62,0,0,1-11,5.24l-6.26,9.56-6.38-6.4A68.07,68.07,0,0,1,48,81.31a65.62,65.62,0,0,1-33.92-9.18,58.94,58.94,0,0,1-1.72-49A65.21,65.21,0,0,1,48,12.83m0-3.6A68.69,68.69,0,0,0,10.38,20.08l-.93.61-.42,1a62.51,62.51,0,0,0,1.83,52l.46.93.89.53A69.05,69.05,0,0,0,48,84.91a70.88,70.88,0,0,0,9-.57l5.11,5.14,3.13,3.14,2.43-3.71,5.62-8.58A65.65,65.65,0,0,0,83.8,75.21l.88-.54.46-.92a62.51,62.51,0,0,0,1.83-52l-.42-1-.93-.61A68.74,68.74,0,0,0,48,9.23Z"/><path class="cls-3" d="M88.17,45.73a58.48,58.48,0,0,1-6.24,26.4,62,62,0,0,1-11,5.24l-6.26,9.56-6.38-6.4A68.07,68.07,0,0,1,48,81.31a65.62,65.62,0,0,1-33.92-9.18c12.17,3.27,38,8.69,56.57-.86a25.53,25.53,0,0,0,5.54-3.72c14.11-12.66,8.95-38,7.47-44.45A58.33,58.33,0,0,1,88.17,45.73Z"/><path d="M80,57a15,15,0,0,1-2.7,10.16,17.71,17.71,0,0,1-3.83,3.95,19.8,19.8,0,0,1-4.86,2.58,57.42,57.42,0,0,1-10.23,3,62.87,62.87,0,0,1-10.61,1.07,63.06,63.06,0,0,1-10.63-.84,55,55,0,0,1-10.3-2.77,17.37,17.37,0,0,1-8.52-6.85A15.9,15.9,0,0,1,16,57a17.24,17.24,0,0,0,3.69,9.26,15.07,15.07,0,0,0,3.64,3.22,17.25,17.25,0,0,0,4.36,2,66.39,66.39,0,0,0,9.9,2,64.13,64.13,0,0,0,10.08.61,65.34,65.34,0,0,0,10.07-.82A68.82,68.82,0,0,0,67.64,71l1.21-.39L70,70.2l1.09-.5,1.06-.58A16.29,16.29,0,0,0,80,57Z"/><rect class="cls-2" x="10.93" y="24.76" width="56.6" height="20.2" rx="10.1" ry="10.1"/><path class="cls-4" d="M25.56,42.65a7.8,7.8,0,1,1,7.79-7.79A7.8,7.8,0,0,1,25.56,42.65Z"/><path d="M25.56,28a6.9,6.9,0,1,1-6.89,6.9A6.9,6.9,0,0,1,25.56,28m0-1.8a8.7,8.7,0,1,0,8.69,8.7,8.69,8.69,0,0,0-8.69-8.7Z"/><path d="M25.56,39.17a4.32,4.32,0,1,1,4.32-4.31A4.32,4.32,0,0,1,25.56,39.17Z"/><path d="M25.56,31.74a3.12,3.12,0,1,1-3.12,3.12,3.12,3.12,0,0,1,3.12-3.12m0-2.4a5.52,5.52,0,1,0,5.52,5.52,5.52,5.52,0,0,0-5.52-5.52Z"/><path class="cls-4" d="M21.63,34.86h1.55a2.38,2.38,0,0,1,2.38-2.38V30.93A3.93,3.93,0,0,0,21.63,34.86Z"/><path class="cls-5" d="M29.49,34.85H27.94a2.38,2.38,0,0,1-2.38,2.38v1.55A3.93,3.93,0,0,0,29.49,34.85Z"/><path class="cls-4" d="M52.91,42.65a7.8,7.8,0,1,1,7.79-7.79A7.8,7.8,0,0,1,52.91,42.65Z"/><path d="M52.91,28A6.9,6.9,0,1,1,46,34.86,6.9,6.9,0,0,1,52.91,28m0-1.8a8.7,8.7,0,1,0,8.69,8.7,8.69,8.69,0,0,0-8.69-8.7Z"/><path d="M52.91,39.17a4.32,4.32,0,1,1,4.32-4.31A4.32,4.32,0,0,1,52.91,39.17Z"/><path d="M52.91,31.74a3.12,3.12,0,1,1-3.12,3.12,3.12,3.12,0,0,1,3.12-3.12m0-2.4a5.52,5.52,0,1,0,5.52,5.52,5.52,5.52,0,0,0-5.52-5.52Z"/><path class="cls-4" d="M49,34.86h1.55a2.38,2.38,0,0,1,2.38-2.38V30.93A3.93,3.93,0,0,0,49,34.86Z"/><path class="cls-5" d="M56.84,34.85H55.29a2.38,2.38,0,0,1-2.38,2.38v1.55A3.93,3.93,0,0,0,56.84,34.85Z"/></svg>