<svg id="图层_1" data-name="图层 1" xmlns="http://www.w3.org/2000/svg" viewBox="0 0 96 96"><defs><style>.cls-1,.cls-5{fill:#ffcb55;}.cls-2{fill:#1c1c1c;}.cls-3{fill:#ff9855;}.cls-4,.cls-6{fill:none;}.cls-4,.cls-5,.cls-6{stroke:#1c1c1c;stroke-width:2.4px;}.cls-4{stroke-linecap:round;stroke-linejoin:round;}.cls-5,.cls-6{stroke-miterlimit:10;}.cls-7{fill:#fff;}.cls-8{fill:#5dacf4;}</style></defs><title>委屈</title><path class="cls-1" d="M48,83.76a67.37,67.37,0,0,1-34.83-9.42l-.44-.26-.23-.47A59.59,59.59,0,0,1,6,46.38,60.39,60.39,0,0,1,10.69,23l.21-.52.47-.3A67,67,0,0,1,48,11.69,67,67,0,0,1,84.66,22.22l.47.3.22.52A61.14,61.14,0,0,1,90,46.38a59.65,59.65,0,0,1-6.48,27.26l-.23.47-.45.26A67.54,67.54,0,0,1,48,83.76Z"/><path class="cls-2" d="M48,13.49A65.58,65.58,0,0,1,83.68,23.73a59.23,59.23,0,0,1,4.49,22.65,58.23,58.23,0,0,1-6.28,26.45A65.81,65.81,0,0,1,48,82a65.64,65.64,0,0,1-33.9-9.16,58.85,58.85,0,0,1-1.76-49.07A65.58,65.58,0,0,1,48,13.49m0-3.6A68.83,68.83,0,0,0,10.39,20.71l-.94.6-.43,1a62.28,62.28,0,0,0-4.79,24A61.38,61.38,0,0,0,10.9,74.43l.47.92.88.53A69.16,69.16,0,0,0,48,85.56a69.41,69.41,0,0,0,35.73-9.64l.89-.54.47-.92a61.45,61.45,0,0,0,6.67-28.08,62.67,62.67,0,0,0-4.76-24l-.43-1-.94-.61A68.84,68.84,0,0,0,48,9.89Z"/><path class="cls-3" d="M88.13,46.43a58.51,58.51,0,0,1-6.24,26.4,67.29,67.29,0,0,1-67.86,0c12.17,3.27,38,8.69,56.57-.86a25.53,25.53,0,0,0,5.54-3.72c14.11-12.66,9-38,7.47-44.45A58.33,58.33,0,0,1,88.13,46.43Z"/><path class="cls-4" d="M19.88,63.62C27.7,55.77,37.44,51.12,48,51.12s20.3,4.65,28.12,12.5"/><path class="cls-5" d="M48,75h0a3.31,3.31,0,0,1-3.3,3.3H38.77a10.54,10.54,0,1,1,0-6.6H44.7A3.29,3.29,0,0,1,48,75Z"/><path class="cls-5" d="M77.8,75a10.56,10.56,0,0,1-20.59,3.29H51.3A3.29,3.29,0,0,1,48,75h0a3.3,3.3,0,0,1,3.3-3.3h5.92A10.56,10.56,0,0,1,77.8,75Z"/><path class="cls-6" d="M36.3,27.42a12.89,12.89,0,0,1-17.14,6.25"/><path class="cls-7" d="M30,46.85a6,6,0,1,1,6-6A6,6,0,0,1,30,46.85Z"/><path class="cls-2" d="M30,35.74a5.11,5.11,0,1,1-5.1,5.11A5.11,5.11,0,0,1,30,35.74m0-1.8a6.91,6.91,0,1,0,6.91,6.91A6.9,6.9,0,0,0,30,33.94Z"/><circle cx="29.99" cy="40.85" r="3.57"/><path class="cls-6" d="M59.7,27.42a12.89,12.89,0,0,0,17.14,6.25"/><path class="cls-7" d="M66,46.85a6,6,0,1,1,6-6A6,6,0,0,1,66,46.85Z"/><path class="cls-2" d="M66,35.74a5.11,5.11,0,1,1-5.11,5.11A5.11,5.11,0,0,1,66,35.74m0-1.8a6.91,6.91,0,1,0,6.9,6.91A6.91,6.91,0,0,0,66,33.94Z"/><circle cx="66.01" cy="40.85" r="3.57"/><path class="cls-8" d="M23.22,50.76a3.13,3.13,0,0,1-.63-6.2l1.09-1.09a2.61,2.61,0,0,1,3.68,0,2.64,2.64,0,0,1,.77,1.86,2.58,2.58,0,0,1-.77,1.84l-1.08,1.09A3.15,3.15,0,0,1,23.22,50.76Z"/><path d="M25.52,43.16a2.14,2.14,0,0,1,1.52.63,2.2,2.2,0,0,1,.64,1.54A2.15,2.15,0,0,1,27,46.85L25.86,48A2.68,2.68,0,1,1,22.81,45L24,43.79a2.14,2.14,0,0,1,1.52-.63m0-.9a3.06,3.06,0,0,0-2.16.89l-1,1a3.58,3.58,0,1,0,4.32,4.33l1-1a3,3,0,0,0,.9-2.16,3.12,3.12,0,0,0-.89-2.17,3,3,0,0,0-2.17-.9Z"/><path class="cls-8" d="M72.79,50.76a3.13,3.13,0,0,1-3.07-2.52l-1.08-1.07a2.57,2.57,0,0,1-.77-1.84,2.65,2.65,0,0,1,.77-1.86,2.62,2.62,0,0,1,3.69,0l1.08,1.09a3.13,3.13,0,0,1-.62,6.2Z"/><path d="M70.48,43.16a2.15,2.15,0,0,1,1.53.63L73.2,45A2.68,2.68,0,1,1,70.14,48L69,46.85a2.11,2.11,0,0,1-.64-1.52,2.17,2.17,0,0,1,2.16-2.17m0-.9a3.06,3.06,0,0,0-3.06,3.07,3,3,0,0,0,.91,2.17l1,1a3.59,3.59,0,1,0,4.34-4.32l-1-1a3.08,3.08,0,0,0-2.17-.89Z"/></svg>