<svg id="图层_1" data-name="图层 1" xmlns="http://www.w3.org/2000/svg" viewBox="0 0 96 96"><defs><style>.cls-1{fill:#ffcb55;}.cls-2{fill:#1c1c1c;}.cls-3{fill:#ff9855;}.cls-4{fill:#5dacf4;}.cls-5{fill:#4580d2;}.cls-6{fill:none;stroke:#1c1c1c;stroke-linecap:round;stroke-linejoin:round;stroke-width:2.4px;}</style></defs><title>委屈哭</title><path class="cls-1" d="M58.5,82.71a68.86,68.86,0,0,1-9.66.67A67.29,67.29,0,0,1,14,73.94l-.44-.26-.23-.47a60.69,60.69,0,0,1-1.78-50.53l.21-.51.47-.31A66.84,66.84,0,0,1,48.84,11.31,66.92,66.92,0,0,1,85.49,21.86l.46.31.22.51a60.79,60.79,0,0,1-1.78,50.53l-.23.46-.44.27A63,63,0,0,1,73,79.12L65.81,90.05Z"/><path class="cls-2" d="M48.84,13.11A65.42,65.42,0,0,1,84.51,23.37a59,59,0,0,1-1.73,49,61.5,61.5,0,0,1-11,5.24l-6.27,9.57L59.13,80.8a68.07,68.07,0,0,1-10.29.78A65.65,65.65,0,0,1,14.92,72.4a58.94,58.94,0,0,1-1.72-49A65.34,65.34,0,0,1,48.84,13.11m0-3.6A68.61,68.61,0,0,0,11.23,20.36l-.92.6-.43,1a62.51,62.51,0,0,0,1.83,52l.47.93.88.53a69.08,69.08,0,0,0,35.78,9.7,72.77,72.77,0,0,0,9-.56L63,89.75l3.13,3.14,2.43-3.71,5.61-8.58a65.65,65.65,0,0,0,10.51-5.12l.88-.54L86,74a62.61,62.61,0,0,0,1.83-52l-.43-1-.93-.6A68.63,68.63,0,0,0,48.84,9.51Z"/><path class="cls-3" d="M89,46a58.38,58.38,0,0,1-6.24,26.4,62.19,62.19,0,0,1-11,5.24L65.51,87.2l-6.38-6.4a68.07,68.07,0,0,1-10.29.78A65.65,65.65,0,0,1,14.92,72.4c12.17,3.27,38,8.69,56.57-.86A24.93,24.93,0,0,0,77,67.81c14.12-12.65,9-38,7.48-44.44A58.51,58.51,0,0,1,89,46Z"/><path class="cls-4" d="M90.61,40.1a5.53,5.53,0,0,1-7.82,7.83,5.44,5.44,0,0,1-1.26-2h0a.56.56,0,0,1,0-.12L77.22,34.53l11.1,4.19A5.55,5.55,0,0,1,90.61,40.1Z"/><path class="cls-5" d="M90.62,47.93a5.55,5.55,0,0,1-7.83,0,5.09,5.09,0,0,1-.9-1.2,5.53,5.53,0,0,0,7.54-7.53,5.92,5.92,0,0,1,1.19.9A5.55,5.55,0,0,1,90.62,47.93Z"/><path d="M81.33,38.65l.57.21L87.47,41l.14,0a3.2,3.2,0,0,1,1.31.79,3.13,3.13,0,1,1-4.43,4.43,3.18,3.18,0,0,1-.72-1.1.3.3,0,0,0,0-.1v0c-.7-1.88-1.42-3.77-2.13-5.66l-.26-.69m-4.11-4.12,4.26,11.32a.56.56,0,0,0,0,.12h0a5.44,5.44,0,0,0,1.26,2,5.53,5.53,0,1,0,5.53-9.21l-11.1-4.19Z"/><path class="cls-4" d="M5.57,40.74a6.16,6.16,0,1,0,10.12,6.53h0l.05-.15c1.57-4.2,3.16-8.4,4.74-12.6L8.13,39.19A6.2,6.2,0,0,0,5.57,40.74Z"/><path class="cls-5" d="M20.49,34.54c-1.58,4.2-3.17,8.39-4.74,12.59l-.06.14a6.07,6.07,0,0,1-1.4,2.18,6.17,6.17,0,0,1-8.72,0,6.44,6.44,0,0,1-1-1.37,6.19,6.19,0,0,0,3.81.71A6.91,6.91,0,0,0,11.87,47c3.66-3,5.71-8.63,6.26-10.19Z"/><path d="M16.37,38.65c-.16.45-.33.89-.5,1.34l-2.37,6.3v0a.49.49,0,0,0,0,.11,3.85,3.85,0,0,1-.86,1.33,3.77,3.77,0,1,1-3.75-6.27L9,41.44l6.17-2.33,1.22-.46m4.12-4.12Zm0,0L8.13,39.19A6.18,6.18,0,0,0,5.57,49.45a6.16,6.16,0,0,0,10.12-2.18h0l.05-.15c1.57-4.2,3.16-8.4,4.74-12.6Z"/><line class="cls-6" x1="19.85" y1="35.06" x2="37.95" y2="25.11"/><line class="cls-6" x1="77.86" y1="35.06" x2="59.76" y2="25.11"/><path class="cls-2" d="M22.44,70.06A62.32,62.32,0,0,1,26.5,59.84a69.77,69.77,0,0,1,5.75-9.46,72.38,72.38,0,0,1,7.16-8.5,78,78,0,0,1,8.38-7.33,1.77,1.77,0,0,1,2.15,0,79,79,0,0,1,8.38,7.33,72.54,72.54,0,0,1,7.16,8.5,70.73,70.73,0,0,1,5.74,9.46,63.18,63.18,0,0,1,4,10.22c-1.76-3.21-3.57-6.35-5.58-9.34a101,101,0,0,0-6.43-8.62,91.58,91.58,0,0,0-7.33-7.79,83.39,83.39,0,0,0-8.14-6.88h2.15a83.29,83.29,0,0,0-8.15,6.88,91.58,91.58,0,0,0-7.33,7.79A97.54,97.54,0,0,0,28,60.72C26,63.71,24.19,66.85,22.44,70.06Z"/></svg>