<svg id="图层_1" data-name="图层 1" xmlns="http://www.w3.org/2000/svg" viewBox="0 0 96 96"><defs><style>.cls-1{fill:#ffcb55;}.cls-2{fill:#1c1c1c;}.cls-3{fill:#ff9855;}.cls-4{fill:#fff;}</style></defs><title>微笑</title><path class="cls-1" d="M57.64,82.71a68.61,68.61,0,0,1-9.65.67,67.27,67.27,0,0,1-34.85-9.44l-.44-.26-.24-.47a60.74,60.74,0,0,1-1.77-50.53l.21-.51.46-.31A66.9,66.9,0,0,1,48,11.31,66.94,66.94,0,0,1,84.64,21.86l.46.31.21.51a60.74,60.74,0,0,1-1.77,50.53l-.24.46-.44.27A63,63,0,0,1,72.1,79.12L65,90.05Z"/><path class="cls-2" d="M48,13.11A65.36,65.36,0,0,1,83.65,23.37a58.94,58.94,0,0,1-1.72,49,61.27,61.27,0,0,1-11,5.24l-6.26,9.57L58.28,80.8A68.07,68.07,0,0,1,48,81.58,65.62,65.62,0,0,1,14.07,72.4a58.94,58.94,0,0,1-1.72-49A65.29,65.29,0,0,1,48,13.11m0-3.6A68.61,68.61,0,0,0,10.38,20.36l-.93.6L9,22a62.51,62.51,0,0,0,1.83,52l.46.93.89.53A69.05,69.05,0,0,0,48,85.18a72.77,72.77,0,0,0,9-.56l5.11,5.13,3.13,3.14,2.43-3.71,5.62-8.58A65.65,65.65,0,0,0,83.8,75.48l.88-.54.46-.92A62.51,62.51,0,0,0,87,22l-.42-1-.93-.6A68.65,68.65,0,0,0,48,9.51Z"/><path class="cls-3" d="M88.17,46a58.51,58.51,0,0,1-6.24,26.4,62,62,0,0,1-11,5.24L64.66,87.2l-6.38-6.4A68.07,68.07,0,0,1,48,81.58,65.62,65.62,0,0,1,14.07,72.4c12.17,3.27,38,8.69,56.57-.86a25.17,25.17,0,0,0,5.54-3.73c14.11-12.65,8.95-38,7.47-44.44A58.33,58.33,0,0,1,88.17,46Z"/><circle cx="33.08" cy="40.18" r="12.36"/><circle cx="64.25" cy="40.18" r="12.36"/><circle class="cls-4" cx="67" cy="37.42" r="6.17"/><circle class="cls-4" cx="35.83" cy="37.42" r="6.17"/><path d="M80,57.43a15.07,15.07,0,0,1-2.7,10.17,17.71,17.71,0,0,1-3.83,4,19.76,19.76,0,0,1-4.86,2.57,55.81,55.81,0,0,1-10.23,3,61.86,61.86,0,0,1-10.61,1.07,64.11,64.11,0,0,1-10.63-.83,55.77,55.77,0,0,1-10.3-2.77,17.42,17.42,0,0,1-8.52-6.85A15.92,15.92,0,0,1,16,57.43a17.27,17.27,0,0,0,3.69,9.27,15,15,0,0,0,3.64,3.21,16.58,16.58,0,0,0,4.36,2A66.41,66.41,0,0,0,37.62,74a65.35,65.35,0,0,0,10.08.6,64.11,64.11,0,0,0,10.07-.81,68.82,68.82,0,0,0,9.87-2.28l1.21-.39L70,70.68l1.09-.51,1.06-.57A16.28,16.28,0,0,0,80,57.43Z"/></svg>