<svg id="图层_1" data-name="图层 1" xmlns="http://www.w3.org/2000/svg" viewBox="0 0 96 96"><defs><style>.cls-1,.cls-4,.cls-5{fill:#fc5;}.cls-2{fill:#1c1c1c;}.cls-3{fill:#f95;}.cls-4,.cls-5{stroke:#1c1c1c;stroke-linejoin:round;}.cls-4{stroke-width:2.8px;}.cls-5{stroke-width:2.41px;}</style></defs><title>握手</title><path class="cls-1" d="M58.52,61.54A16.22,16.22,0,0,1,48.6,32.47L62.47,21.78A16.22,16.22,0,1,1,82.29,47.47L68.42,58.16A16.09,16.09,0,0,1,58.52,61.54Z"/><path class="cls-2" d="M72.37,20.21A14.4,14.4,0,0,1,83.8,25.82h0A14.41,14.41,0,0,1,81.18,46L67.31,56.73A14.41,14.41,0,0,1,47.1,54.12h0A14.41,14.41,0,0,1,49.71,33.9L63.58,23.21a14.36,14.36,0,0,1,8.79-3m0-3.61h0a17.89,17.89,0,0,0-11,3.75L47.5,31a18,18,0,0,0,22,28.55L83.39,48.9a18,18,0,0,0-11-32.3Z"/><path class="cls-3" d="M83.8,25.82A14.41,14.41,0,0,1,81.18,46L67.31,56.74a14.33,14.33,0,0,1-11.15,2.79,14.24,14.24,0,0,0,5.46-2.6l13.87-10.7A14.41,14.41,0,0,0,78.11,26,14.27,14.27,0,0,0,69,20.61,14.42,14.42,0,0,1,83.8,25.82Z"/><path class="cls-1" d="M52.48,79.51A5,5,0,0,1,48.92,78c-5.27-4.67-9.19-8.16-13.79-12.27l-5.91-5.26.6-1a15.4,15.4,0,0,1-2.12-1.38l-14-10.81A16.22,16.22,0,0,1,23.62,18.3a16.06,16.06,0,0,1,9.9,3.39l14,10.79.42.32.67-1,.7-.15a6.63,6.63,0,0,1,1.43-.17,6.4,6.4,0,0,1,4.52,1.87l22,22.43a6.46,6.46,0,0,1,0,9.06,6.31,6.31,0,0,1-4.51,1.88,6.59,6.59,0,0,1-1.09-.09,6.18,6.18,0,0,1-7.44,5.27,5.58,5.58,0,0,1-5.44,4.38,5.7,5.7,0,0,1-1.49-.2,5.16,5.16,0,0,1-4.8,3.42Z"/><path class="cls-2" d="M23.62,20.11a14.29,14.29,0,0,1,8.79,3l14,10.79a13.6,13.6,0,0,1,1.81,1.65l1.47-2.14a4.72,4.72,0,0,1,1-.12A4.59,4.59,0,0,1,54,34.64L76,57.05a4.63,4.63,0,0,1,0,6.52,4.55,4.55,0,0,1-6.49,0l-.81-.82-.06-.06.06.06a4.44,4.44,0,0,1-.06,6.2,4.41,4.41,0,0,1-6.23,0l-.69-.67a3.8,3.8,0,0,1-.26,5.08,3.74,3.74,0,0,1-5.34,0l-1.31-1.28a3.28,3.28,0,0,1,0,4.65,3.25,3.25,0,0,1-4.63,0c-7-6.22-11.61-10.33-18.6-16.56.3-.46.59-.93.87-1.4a14.49,14.49,0,0,1-3.63-2l-14-10.81a14.41,14.41,0,0,1,8.82-25.82m0-3.61a18,18,0,0,0-11,32.29l14,10.81c.24.18.48.36.73.53l-.42.67,2.26,2.07L33.9,67.1c4.61,4.1,8.52,7.59,13.79,12.26a6.86,6.86,0,0,0,9.68-.1,6.73,6.73,0,0,0,1-1.18h.45A7.34,7.34,0,0,0,64,75.9a7.05,7.05,0,0,0,1.44-2.05h.06a8,8,0,0,0,5.67-2.34,8.12,8.12,0,0,0,1.86-3,8.17,8.17,0,0,0,5.51-2.42,8.28,8.28,0,0,0,0-11.6l-22-22.42a8.26,8.26,0,0,0-7.64-2.21l-1.39.31-12.9-9.94a17.82,17.82,0,0,0-11-3.76Z"/><path class="cls-3" d="M76,63.65A4.7,4.7,0,0,1,72.74,65a4.58,4.58,0,0,1-3.24-1.34l-.87-.87A4.41,4.41,0,0,1,62.39,69l-.94-1A3.78,3.78,0,0,1,56.1,73.4l-1.3-1.3a3.28,3.28,0,0,1-4.64,4.64c-7-6.19-11.61-10.25-18.61-16.45-.74-2.27-.38-3.28.06-3.78,2.39-2.75,12.47,3.41,14.77.54.87-1.08-.13-2.49.92-3.42,1.67-1.5,5.46,1.41,6.93,0,1.14-1.09-.44-3.42.67-4.43,1.4-1.28,4.68,1.63,6.86.41,1-.58,1.76-2.07,1.75-5.18,5,5,7.52,7.79,12.47,12.74a4.82,4.82,0,0,1,1.32,3.61A4.68,4.68,0,0,1,76,63.65Z"/><polygon class="cls-2" points="56.95 76.09 41.53 58.59 58.26 74.84 56.95 76.09"/><polygon class="cls-2" points="64.23 72.53 48.44 54.99 65.53 71.28 64.23 72.53"/><polygon class="cls-2" points="71.79 67.05 56.14 50.67 73.05 65.75 71.79 67.05"/><rect class="cls-4" x="42.72" y="21.74" width="13.87" height="32.38" rx="6.94" ry="6.94" transform="matrix(-0.5, -0.87, 0.87, -0.5, 41.63, 99.9)"/><rect class="cls-5" x="21.48" y="52.88" width="9.16" height="9.16" rx="4.58" ry="4.58" transform="translate(52.13 114.93) rotate(-180)"/><rect class="cls-5" x="28.01" y="59.41" width="8.81" height="8.81" rx="4.4" ry="4.4" transform="translate(64.83 127.63) rotate(-180)"/><rect class="cls-5" x="34.41" y="65.81" width="7.57" height="7.57" rx="3.78" ry="3.78" transform="translate(76.39 139.19) rotate(-180)"/><rect class="cls-5" x="39.9" y="71.3" width="6.56" height="6.56" rx="3.28" ry="3.28" transform="translate(86.35 149.15) rotate(-180)"/><path class="cls-1" d="M66.19,35.18l-10,5.15-2.59-5a5.34,5.34,0,0,1,2.3-7.21l5.2-2.7A3.84,3.84,0,0,1,66.3,27l1.53,3A3.84,3.84,0,0,1,66.19,35.18Z"/><path class="cls-1" d="M65,25.49l-11.88,7.1L52.78,32a1.69,1.69,0,0,1,.59-2.31l10.44-6.23a1.21,1.21,0,0,1,1.65.42h0A1.2,1.2,0,0,1,65,25.49Z"/><path class="cls-2" d="M63.38,43.92l-2.77-3h0a3.32,3.32,0,0,1,4.7.22l1.59,1.74L65.62,44A1.59,1.59,0,0,1,63.38,43.92Z"/></svg>