<svg id="图层_1" data-name="图层 1" xmlns="http://www.w3.org/2000/svg" xmlns:xlink="http://www.w3.org/1999/xlink" viewBox="0 0 96 96"><defs><style>.cls-1{fill:#ee2d2c;}.cls-2{fill:#1c1c1c;}.cls-3{fill:#8757ff;}.cls-4{fill:#563ba7;}.cls-5{opacity:0.75;fill:url(#未命名的渐变_59);}.cls-6{fill:none;stroke:#1c1c1c;stroke-linecap:round;stroke-linejoin:round;stroke-width:1.8px;}.cls-7{fill:#fff;}</style><linearGradient id="未命名的渐变_59" x1="47.76" y1="43.49" x2="47.76" y2="16.9" gradientUnits="userSpaceOnUse"><stop offset="0" stop-color="#ee2d2c"/><stop offset="0.93" stop-color="#f0cb4c" stop-opacity="0"/></linearGradient></defs><title>小恶魔</title><path class="cls-1" d="M10.92,25.37a16.32,16.32,0,0,1-3.55-8.49,16.06,16.06,0,0,1,.5-6A2.22,2.22,0,0,1,10,9.23a2.28,2.28,0,0,1,2.11,1.39,8.68,8.68,0,0,0,2,2.87,8.94,8.94,0,0,0,6.08,2.3,5.24,5.24,0,0,0,.74,0l3.89-.37L11.68,26.3Z"/><path class="cls-2" d="M10,10.43a1.08,1.08,0,0,1,1,.66,9.68,9.68,0,0,0,2.3,3.27A10.11,10.11,0,0,0,20.24,17c.42,0,.72,0,.86,0l-9.25,7.66A14.88,14.88,0,0,1,9,11.19a1,1,0,0,1,1-.76M10,8h0a3.41,3.41,0,0,0-3.32,2.52A17.3,17.3,0,0,0,10,26.12L11.51,28l1.87-1.54,4.83-4,4.42-3.66,6-5-7.78.75q-.3,0-.63,0a7.77,7.77,0,0,1-5.27-2,7.42,7.42,0,0,1-1.72-2.47A3.51,3.51,0,0,0,10,8Z"/><path class="cls-1" d="M71.13,15.38l3.89.37a5.24,5.24,0,0,0,.74,0,8.91,8.91,0,0,0,6.08-2.31,8.44,8.44,0,0,0,2-2.86A2.28,2.28,0,0,1,86,9.23a2.22,2.22,0,0,1,2.16,1.64,15.88,15.88,0,0,1,.5,6,16.32,16.32,0,0,1-3.55,8.49l-.76.93Z"/><path class="cls-2" d="M86,10.43a1,1,0,0,1,1,.76,14.88,14.88,0,0,1-2.83,13.42L74.9,17c.14,0,.44,0,.86,0a10.11,10.11,0,0,0,6.9-2.63A9.68,9.68,0,0,0,85,11.09a1.08,1.08,0,0,1,1-.66M86,8a3.51,3.51,0,0,0-3.22,2.11A7.42,7.42,0,0,1,81,12.61a7.77,7.77,0,0,1-5.27,2q-.33,0-.63,0l-7.78-.75,6,5,7.9,6.53,1.35,1.13L84.49,28,86,26.12a17.3,17.3,0,0,0,3.28-15.57A3.41,3.41,0,0,0,86,8Z"/><path class="cls-3" d="M57.64,83.33A70.15,70.15,0,0,1,48,84a67.24,67.24,0,0,1-34.85-9.44l-.44-.27-.24-.46A60.74,60.74,0,0,1,10.69,23.3l.21-.52.46-.3A66.88,66.88,0,0,1,48,11.92,67,67,0,0,1,84.64,22.48l.46.3.21.52a60.74,60.74,0,0,1-1.77,50.53l-.23.46-.44.27A63.43,63.43,0,0,1,72.1,79.74L65,90.67Z"/><path class="cls-2" d="M48,13.72A65.28,65.28,0,0,1,83.65,24a58.94,58.94,0,0,1-1.72,49,62,62,0,0,1-11,5.24l-6.26,9.56-6.38-6.4A68.07,68.07,0,0,1,48,82.2,65.62,65.62,0,0,1,14.07,73a58.94,58.94,0,0,1-1.72-49A65.21,65.21,0,0,1,48,13.72m0-3.6A68.69,68.69,0,0,0,10.38,21l-.93.61L9,22.6a62.51,62.51,0,0,0,1.83,52l.46.93.89.53A69.05,69.05,0,0,0,48,85.8a70.88,70.88,0,0,0,9-.57l5.11,5.14,3.13,3.14,2.43-3.71,5.62-8.58A65.65,65.65,0,0,0,83.8,76.1l.88-.54.46-.92A62.51,62.51,0,0,0,87,22.6l-.42-1L85.62,21A68.74,68.74,0,0,0,48,10.12Z"/><path class="cls-4" d="M88.17,46.61A58.52,58.52,0,0,1,81.93,73a61.23,61.23,0,0,1-11,5.23l-6.26,9.57-6.38-6.4A68.07,68.07,0,0,1,48,82.2,65.62,65.62,0,0,1,14.07,73c12.17,3.26,38,8.69,56.57-.86a25.17,25.17,0,0,0,5.54-3.73c14.11-12.65,8.95-38,7.47-44.44A58.32,58.32,0,0,1,88.17,46.61Z"/><path class="cls-5" d="M48.47,16.9c12.17,0,31.73,3.05,32.7,9.75S64.81,43.33,48,43.48s-34.49-9.62-33.65-16.3S35.18,16.87,48.47,16.9Z"/><path class="cls-6" d="M77.82,33.1A47.8,47.8,0,0,1,48,43.48,47.8,47.8,0,0,1,18.18,33.1"/><path class="cls-7" d="M42.56,60.31a66,66,0,0,1-8.09-1.22,63,63,0,0,1-6.75-1.83,2.73,2.73,0,0,1-1.85-2.91,79.35,79.35,0,0,1,2.76-14A48.5,48.5,0,0,0,42.5,44.05a84.35,84.35,0,0,1,.31,12.44c0,.93-.09,1.85-.16,2.8Z"/><path class="cls-2" d="M29.21,41.53a49.42,49.42,0,0,0,12.47,3.32,86.66,86.66,0,0,1,.23,11.6v0c0,.84-.09,1.79-.16,2.73v.12a65.85,65.85,0,0,1-7.09-1.12A64.22,64.22,0,0,1,28,56.41a1.86,1.86,0,0,1-1.24-2,80,80,0,0,1,2.45-12.92m-1.13-2.45A77.77,77.77,0,0,0,25,54.25a3.65,3.65,0,0,0,2.47,3.87A64.32,64.32,0,0,0,34.28,60a64.89,64.89,0,0,0,9,1.3h.11l.06-.63h0c0-.42.07-.84.1-1.27.08-1,.12-1.89.17-2.82h0a84.86,84.86,0,0,0-.39-13.3,47.81,47.81,0,0,1-15.24-4.15Z"/><path class="cls-7" d="M53.35,59.28c-.07-.94-.12-1.86-.16-2.79a84.38,84.38,0,0,1,.31-12.44,48.5,48.5,0,0,0,13.87-3.74,80.22,80.22,0,0,1,2.77,14,2.75,2.75,0,0,1-1.86,2.91,63,63,0,0,1-6.75,1.83,64.6,64.6,0,0,1-8.09,1.22Z"/><path class="cls-2" d="M66.79,41.53a80,80,0,0,1,2.45,12.92,1.86,1.86,0,0,1-1.24,2,61.35,61.35,0,0,1-6.66,1.8,65.28,65.28,0,0,1-7.08,1.12v-.11c-.07-.95-.12-1.9-.16-2.74v0a86.66,86.66,0,0,1,.23-11.6,49.42,49.42,0,0,0,12.47-3.32m1.13-2.45a47.81,47.81,0,0,1-15.24,4.15,84.86,84.86,0,0,0-.39,13.3h0c.05.93.09,1.86.17,2.82,0,.43.07.85.1,1.27h0l.06.63h.11a64.89,64.89,0,0,0,9-1.3,64.32,64.32,0,0,0,6.84-1.85A3.65,3.65,0,0,0,71,54.25a77.77,77.77,0,0,0-3.11-15.17Z"/><path class="cls-2" d="M42.56,60.31a65.07,65.07,0,0,1-7.48-1.09A12.33,12.33,0,0,1,35,57.75c0-3.81,1.8-7,3.93-7,1.89,0,3.56,2.5,3.89,5.83-.05.91-.09,1.81-.16,2.74Z"/><path class="cls-2" d="M38.92,51.62c1.2,0,2.67,2,3,5,0,.82-.09,1.74-.16,2.64v.12c-2-.2-3.92-.49-5.83-.86,0-.24,0-.48,0-.72,0-3.51,1.6-6.13,3-6.13m0-1.8c-2.66,0-4.83,3.55-4.83,7.93A13.29,13.29,0,0,0,34.28,60a64.89,64.89,0,0,0,9,1.3,6.48,6.48,0,0,0,.17-.63h0c0-.42.07-.84.1-1.27.08-1,.12-1.89.17-2.82h0c-.36-3.81-2.36-6.71-4.79-6.71Z"/><path class="cls-2" d="M53.35,59.28c-.07-.92-.11-1.82-.16-2.73.33-3.33,2-5.83,3.89-5.83,2.13,0,3.93,3.22,3.93,7a12.33,12.33,0,0,1-.09,1.47,65.07,65.07,0,0,1-7.48,1.09Z"/><path class="cls-2" d="M57.08,51.62c1.43,0,3,2.62,3,6.13,0,.24,0,.48,0,.72-1.91.37-3.86.66-5.83.86v-.11c-.07-.91-.12-1.83-.16-2.65.32-3,1.79-5,3-5m0-1.8c-2.43,0-4.43,2.9-4.79,6.71h0c.05.93.09,1.86.17,2.82,0,.43.07.85.1,1.27h0a6.48,6.48,0,0,0,.17.63,64.89,64.89,0,0,0,9-1.3,13.29,13.29,0,0,0,.19-2.22c0-4.38-2.17-7.93-4.83-7.93Z"/><path d="M80,58.9a15,15,0,0,1-2.7,10.16,17.5,17.5,0,0,1-3.83,4,19.47,19.47,0,0,1-4.86,2.58,56.74,56.74,0,0,1-10.22,3,63.09,63.09,0,0,1-10.62,1.07,64.11,64.11,0,0,1-10.63-.83A55.8,55.8,0,0,1,26.81,76a17.35,17.35,0,0,1-8.52-6.84A16,16,0,0,1,16,58.9a17.24,17.24,0,0,0,3.69,9.26,15.07,15.07,0,0,0,3.64,3.22,16.91,16.91,0,0,0,4.36,2,67.7,67.7,0,0,0,9.9,2.06,65.35,65.35,0,0,0,10.08.6,64.12,64.12,0,0,0,10.07-.82A67.5,67.5,0,0,0,67.64,73l1.21-.39L70,72.14l1.09-.5,1.06-.58A15.86,15.86,0,0,0,75.89,68,16,16,0,0,0,80,58.9Z"/></svg>