<svg id="图层_1" data-name="图层 1" xmlns="http://www.w3.org/2000/svg" viewBox="0 0 96 96"><defs><style>.cls-1,.cls-5{fill:none;stroke-linecap:round;}.cls-1,.cls-2,.cls-3,.cls-4{stroke:#1c1c1c;}.cls-1,.cls-3,.cls-4,.cls-5{stroke-linejoin:round;}.cls-1{stroke-width:3.2px;}.cls-2{fill:#fff;stroke-miterlimit:10;stroke-width:3.6px;}.cls-3{fill:#fc5;}.cls-3,.cls-4{stroke-linecap:square;stroke-width:1.2px;}.cls-4{fill:#f59f50;}.cls-5{stroke:#989898;stroke-width:2.4px;}.cls-6{fill:#ee2d2c;}.cls-7{fill:#1c1c1c;}</style></defs><title>小鸡</title><path class="cls-1" d="M29.3,88.61l3-11.55"/><path class="cls-1" d="M22.25,86.21l7.05,2.4"/><path class="cls-1" d="M30.72,94.68c-.47-2-.95-4.05-1.42-6.07"/><path class="cls-1" d="M38.45,90.86,29.3,88.61"/><path class="cls-1" d="M34.1,86.06l-4.8,2.55"/><path class="cls-1" d="M56.81,88.82Q55.75,83,54.67,77.1"/><path class="cls-1" d="M49.43,89.82l7.38-1"/><path class="cls-1" d="M63.35,93.11l-6.54-4.29"/><path class="cls-1" d="M67.4,87,56.81,88.82"/><path class="cls-1" d="M62,84.26l-5.19,4.56"/><path class="cls-2" d="M91.45,41.4l-7.78,8a58.42,58.42,0,0,1-2.41,12.23,57.71,57.71,0,0,1-3.62,8.93,60.47,60.47,0,0,1-11,5.23c-2.11.68-4.37,1.33-6.78,1.92-2,.5-4,.91-5.87,1.25a68.35,68.35,0,0,1-10.28.78,68.23,68.23,0,0,1-18.39-2.5A63,63,0,0,1,9.8,70.54,58,58,0,0,1,4.55,55,61.48,61.48,0,0,0,21,50.51c-.06-1.31-.09-2.61-.09-3.93a108,108,0,0,1,5.13-33,69,69,0,0,1,29.31-1.31,63.55,63.55,0,0,1,24,9.27,62.82,62.82,0,0,1,2.2,6.34c.59,2,1.05,4,1.39,5.78Z"/><path class="cls-3" d="M79.7,42.14l2.37-7.62L91,42.6Z"/><path class="cls-4" d="M82.36,48.21c-.89-2-1.78-4.05-2.66-6.07L91,42.6Z"/><path class="cls-5" d="M25.2,55.5a20.42,20.42,0,0,0,8.4,8.4c10.26,5.33,21.06-1,21.8-1.5"/><path class="cls-6" d="M72.77,17.31a67,67,0,0,0-12.25-4.39,68,68,0,0,0-8.64-1.58,4,4,0,0,1,2.84-3.05,3.56,3.56,0,0,1,.86-.11,4.67,4.67,0,0,1,2.89,1.18l3.14,3-1.68-4c-1.15-2.73-.89-5.52.6-6.63A3,3,0,0,1,62.4,1.2a7,7,0,0,1,2.23.42C68.72,3,70.5,8,71.45,10.72A24.11,24.11,0,0,1,72.77,17.31Z"/><path class="cls-7" d="M62.4,2.1a6.53,6.53,0,0,1,1.95.37C68,3.71,69.7,8.46,70.6,11a23,23,0,0,1,1.13,4.82,68.18,68.18,0,0,0-9.07-3.28L60.76,8c-1.11-2.63-.67-4.83.31-5.56A2.19,2.19,0,0,1,62.4,2.1h0m-6.82,7a3.82,3.82,0,0,1,2.27.93l1.84,1.78a66.34,66.34,0,0,0-6.56-1.2A3,3,0,0,1,55,9.16a2.65,2.65,0,0,1,.63-.08M62.4.3A3.91,3.91,0,0,0,60,1c-1.78,1.32-2.26,4.46-.9,7.7a5.56,5.56,0,0,0-3.52-1.44,4.16,4.16,0,0,0-1.08.14,5,5,0,0,0-3.63,4.72,65.42,65.42,0,0,1,9.43,1.65,66.86,66.86,0,0,1,13.42,5,25.54,25.54,0,0,0-1.42-8.35c-1-2.83-2.87-8.14-7.38-9.65A8,8,0,0,0,62.4.3Z"/><circle class="cls-7" cx="67.66" cy="31.28" r="3.63"/></svg>