<svg id="图层_1" data-name="图层 1" xmlns="http://www.w3.org/2000/svg" viewBox="0 0 96 96"><defs><style>.cls-1{fill:#ffcb55;}.cls-2{fill:#1c1c1c;}.cls-3{fill:#ff9855;}.cls-4{fill:#fff;}.cls-5{fill:#5dacf4;}.cls-6{fill:#4580d2;}.cls-7{fill:#ee2d2c;}.cls-8{fill:#f45d5d;}.cls-9{fill:none;stroke:#000;stroke-miterlimit:10;stroke-width:1.8px;}</style></defs><title>笑哭</title><path class="cls-1" d="M57.82,82.71a68.61,68.61,0,0,1-9.65.67,67.24,67.24,0,0,1-34.85-9.44l-.45-.26-.23-.47a60.79,60.79,0,0,1-1.78-50.53l.22-.51.46-.31A66.88,66.88,0,0,1,48.17,11.31,66.89,66.89,0,0,1,84.81,21.86l.47.31.21.51a60.69,60.69,0,0,1-1.78,50.53l-.23.46-.44.27a63,63,0,0,1-10.76,5.18L65.13,90.05Z"/><path class="cls-2" d="M48.17,13.11A65.41,65.41,0,0,1,83.83,23.37a58.94,58.94,0,0,1-1.72,49,61.59,61.59,0,0,1-11,5.24l-6.26,9.57L58.45,80.8a67.84,67.84,0,0,1-10.28.78A65.62,65.62,0,0,1,14.25,72.4a59,59,0,0,1-1.73-49A65.35,65.35,0,0,1,48.17,13.11m0-3.6A68.59,68.59,0,0,0,10.56,20.36l-.93.6L9.2,22A62.61,62.61,0,0,0,11,74l.47.93.89.53a69,69,0,0,0,35.78,9.7,72.73,72.73,0,0,0,9-.56l5.12,5.13,3.13,3.14,2.43-3.71,5.62-8.58A65.65,65.65,0,0,0,84,75.48l.88-.54.46-.92a62.51,62.51,0,0,0,1.83-52l-.43-1-.92-.6A68.65,68.65,0,0,0,48.17,9.51Z"/><path class="cls-3" d="M88.35,46a58.51,58.51,0,0,1-6.24,26.4,62.29,62.29,0,0,1-11,5.24L64.84,87.2l-6.39-6.4a67.84,67.84,0,0,1-10.28.78A65.62,65.62,0,0,1,14.25,72.4c12.17,3.27,38,8.69,56.56-.86a25,25,0,0,0,5.55-3.73c14.11-12.65,8.94-38,7.47-44.44A58.33,58.33,0,0,1,88.35,46Z"/><path class="cls-4" d="M73,49.42a5,5,0,0,1,4.18,6.91,33,33,0,0,1-1.86,3.88A32.42,32.42,0,0,1,66.93,70a30.22,30.22,0,0,1-37.5,0A33.24,33.24,0,0,1,19.2,56.33a5,5,0,0,1,4.18-6.91q3.95-.33,8-.55c5.46-.3,11.08-.46,16.81-.46s11.32.16,16.77.46C67.66,49,70.34,49.2,73,49.42Z"/><path d="M22.16,34.32a7.29,7.29,0,0,1,3.31-3.42,9.23,9.23,0,0,1,4.31-1,9.33,9.33,0,0,1,4.31,1.05,7.36,7.36,0,0,1,3.31,3.41l.06.13a.15.15,0,0,1-.08.2.14.14,0,0,1-.11,0,27.78,27.78,0,0,0-3.7-.92,21.84,21.84,0,0,0-3.79-.28,21,21,0,0,0-3.79.28,26.67,26.67,0,0,0-3.7.92.15.15,0,0,1-.19-.1.2.2,0,0,1,0-.11Z"/><path d="M39.26,32.9a2.73,2.73,0,0,1-1.57-.42c-.43-.24-.6-.74-.87-1.13s-.55-.78-.81-1.19-.51-.81-.74-1.25a.1.1,0,0,1,0-.13.14.14,0,0,1,.09,0c.44.23.84.5,1.26.75s.8.53,1.19.81.88.44,1.12.87a2.68,2.68,0,0,1,.43,1.57A.12.12,0,0,1,39.26,32.9Z"/><path class="cls-5" d="M93.64,42.61A8.06,8.06,0,1,1,80.4,51.15h0a1.06,1.06,0,0,1-.06-.19q-3.1-8.23-6.2-16.48l16.16,6.1A8.09,8.09,0,0,1,93.64,42.61Z"/><path class="cls-6" d="M93.64,54a8,8,0,0,1-12.72-1.74,8.07,8.07,0,0,0,11-11A8.07,8.07,0,0,1,93.64,54Z"/><path d="M77.2,37.57l4.35,1.64,8.11,3.06.1,0a6.27,6.27,0,1,1-6.25,10.44,6.1,6.1,0,0,1-1.43-2.22l0-.11h0a.25.25,0,0,1,0-.07c-1-2.74-2.07-5.49-3.11-8.24q-.84-2.26-1.7-4.53m-3.07-3.08q3.09,8.25,6.2,16.48a1.06,1.06,0,0,0,.06.19h0a8.06,8.06,0,1,0,13.24-8.54,8.09,8.09,0,0,0-3.35-2l-16.16-6.1Z"/><path class="cls-5" d="M2.4,43A8.19,8.19,0,0,0,14,54.56a8,8,0,0,0,1.87-2.9h0a1.46,1.46,0,0,0,.07-.19q3.13-8.37,6.3-16.75L5.8,40.93A8.06,8.06,0,0,0,2.4,43Z"/><path class="cls-6" d="M22.23,34.73q-3.15,8.37-6.3,16.75a1.34,1.34,0,0,0-.07.18A8.21,8.21,0,0,1,1,52.74a8.23,8.23,0,0,0,5.06.94,9.24,9.24,0,0,0,4.7-2.32c4.85-4,7.59-11.48,8.31-13.55Z"/><path d="M19.1,37.86l-1.74,4.63c-1.05,2.78-2.1,5.57-3.14,8.35a.14.14,0,0,0,0,.06.61.61,0,0,0,0,.12,6.38,6.38,0,0,1-6,4.11A6.37,6.37,0,0,1,6.34,42.67l.1,0,8.21-3.09,4.45-1.68m3.13-3.13Zm0,0L5.8,40.93a8.06,8.06,0,0,0-3.4,2A8.19,8.19,0,1,0,14,54.56a8,8,0,0,0,1.87-2.9h0a1.46,1.46,0,0,0,.07-.19q3.13-8.37,6.3-16.75Z"/><path d="M74.06,34.66a26.32,26.32,0,0,0-3.7-.92,20.9,20.9,0,0,0-3.79-.28,22,22,0,0,0-3.79.28,28.17,28.17,0,0,0-3.7.92.15.15,0,0,1-.19-.1.2.2,0,0,1,0-.11l.06-.13a7.33,7.33,0,0,1,3.31-3.42,9.2,9.2,0,0,1,4.31-1,9.33,9.33,0,0,1,4.31,1.05,7.31,7.31,0,0,1,3.31,3.41l.06.13a.15.15,0,0,1-.08.2A.14.14,0,0,1,74.06,34.66Z"/><path d="M57,32.78a2.68,2.68,0,0,1,.42-1.57c.24-.43.74-.6,1.13-.87s.78-.55,1.19-.81.81-.52,1.25-.75a.11.11,0,0,1,.13,0,.14.14,0,0,1,0,.09c-.23.44-.5.84-.75,1.25s-.53.81-.81,1.19-.44.89-.87,1.13a2.68,2.68,0,0,1-1.57.42A.12.12,0,0,1,57,32.78Z"/><path class="cls-7" d="M48.18,75.63A29.36,29.36,0,0,1,30,69.31,31.45,31.45,0,0,1,22.56,61c3.42-.29,6.77-.52,10-.67,5.07-.27,10.32-.4,15.63-.4s10.53.13,15.58.4c3.29.16,6.58.38,10,.67a31,31,0,0,1-7.42,8.32A29.28,29.28,0,0,1,48.18,75.63Z"/><path d="M48.18,60.81c5.28,0,10.5.13,15.54.39,2.75.14,5.6.32,8.5.56a30.38,30.38,0,0,1-6.4,6.84,28.45,28.45,0,0,1-35.28,0,30.63,30.63,0,0,1-6.41-6.84c2.89-.24,5.73-.42,8.47-.56,5-.26,10.29-.39,15.58-.39m0-1.8c-5.33,0-10.57.13-15.67.4q-5.85.29-11.45.8A32.59,32.59,0,0,0,29.43,70a30.22,30.22,0,0,0,37.5,0,32.56,32.56,0,0,0,8.36-9.8q-5.61-.51-11.48-.8c-5.09-.27-10.31-.4-15.63-.4Z"/><path class="cls-8" d="M66.93,70a30.22,30.22,0,0,1-37.5,0c4.66-3.49,11.34-5.67,18.75-5.67S62.26,66.52,66.93,70Z"/><line class="cls-9" x1="48.2" y1="48.41" x2="48.2" y2="59.01"/><line class="cls-9" x1="64.97" y1="48.87" x2="63.82" y2="59.46"/><line class="cls-9" x1="31.39" y1="48.87" x2="32.54" y2="59.46"/><path d="M48.18,50.21c5.6,0,11.21.16,16.67.46,2.69.15,5.37.33,8,.54a3.14,3.14,0,0,1,2.42,1.49,3.26,3.26,0,0,1,.24,3,32.54,32.54,0,0,1-1.76,3.67,30.5,30.5,0,0,1-7.9,9.27,28.45,28.45,0,0,1-35.28,0,30.75,30.75,0,0,1-7.91-9.27,32.54,32.54,0,0,1-1.76-3.67,3.23,3.23,0,0,1,.25-3,3.14,3.14,0,0,1,2.41-1.49c2.59-.21,5.27-.4,7.94-.54,5.47-.3,11.1-.46,16.71-.46m0-1.8c-5.73,0-11.35.16-16.81.46q-4.05.23-8,.55a5,5,0,0,0-4.18,6.91A33.24,33.24,0,0,0,29.43,70a30.22,30.22,0,0,0,37.5,0,32.42,32.42,0,0,0,8.36-9.8,33,33,0,0,0,1.86-3.88A5,5,0,0,0,73,49.42c-2.63-.22-5.31-.4-8-.55-5.45-.3-11.05-.46-16.77-.46Z"/></svg>