<svg id="图层_1" data-name="图层 1" xmlns="http://www.w3.org/2000/svg" xmlns:xlink="http://www.w3.org/1999/xlink" viewBox="0 0 96 96"><defs><style>.cls-1{fill:#fff;}.cls-2{fill:#1c1c1c;}.cls-3{fill:#ffe1e1;}.cls-4{fill:url(#未命名的渐变_6);}.cls-5{fill:url(#未命名的渐变_6-2);}</style><radialGradient id="未命名的渐变_6" cx="22.75" cy="62.56" r="6.63" gradientUnits="userSpaceOnUse"><stop offset="0" stop-color="#ffc3b3"/><stop offset="1" stop-color="#fff"/></radialGradient><radialGradient id="未命名的渐变_6-2" cx="73.25" cy="62.56" r="6.63" xlink:href="#未命名的渐变_6"/></defs><title>熊猫</title><circle cx="14.15" cy="24.88" r="11.25"/><circle cx="81.85" cy="24.88" r="11.25"/><path class="cls-1" d="M48,86.78a69.34,69.34,0,0,1-34.83-9.42,1.87,1.87,0,0,1-.7-.75,60.74,60.74,0,0,1-1.77-50.53,1.8,1.8,0,0,1,.67-.82A66.9,66.9,0,0,1,48,14.71,66.94,66.94,0,0,1,84.64,25.26a1.8,1.8,0,0,1,.67.82,60.74,60.74,0,0,1-1.77,50.53,1.87,1.87,0,0,1-.7.75A69.24,69.24,0,0,1,48,86.78Z"/><path class="cls-2" d="M48,16.51A65.28,65.28,0,0,1,83.65,26.77a58.94,58.94,0,0,1-1.72,49A67.61,67.61,0,0,1,48,85h0A67.6,67.6,0,0,1,14.07,75.8a58.94,58.94,0,0,1-1.72-49A65.21,65.21,0,0,1,48,16.51m0-3.6A68.68,68.68,0,0,0,10.38,23.75,3.58,3.58,0,0,0,9,25.38a62.51,62.51,0,0,0,1.83,52,3.59,3.59,0,0,0,1.4,1.49,70.88,70.88,0,0,0,71.48,0,3.59,3.59,0,0,0,1.4-1.49,62.51,62.51,0,0,0,1.83-52,3.58,3.58,0,0,0-1.35-1.63A68.73,68.73,0,0,0,48,12.91Z"/><path class="cls-3" d="M88.17,49.39A58.52,58.52,0,0,1,81.93,75.8a67.29,67.29,0,0,1-67.86,0c12.17,3.27,38,8.69,56.57-.86a25.17,25.17,0,0,0,5.54-3.73c14.11-12.65,8.95-38,7.47-44.44A58.32,58.32,0,0,1,88.17,49.39Z"/><circle class="cls-4" cx="22.75" cy="62.56" r="6.63"/><circle class="cls-5" cx="73.25" cy="62.56" r="6.63"/><path class="cls-2" d="M49.2,64.48A6.65,6.65,0,0,1,47,69.07a6.4,6.4,0,0,1-4.6,1.61,6,6,0,0,1-4.17-2,5.73,5.73,0,0,1-1.43-4.17,5.5,5.5,0,0,0,1.85,3.75,5.21,5.21,0,0,0,3.75,1.25,4.85,4.85,0,0,0,3.32-1.68,4.54,4.54,0,0,0,1.08-3.32Z"/><path class="cls-2" d="M49.2,64.48a4.54,4.54,0,0,0,1.08,3.32,4.85,4.85,0,0,0,3.32,1.68,5.21,5.21,0,0,0,3.75-1.25,5.5,5.5,0,0,0,1.85-3.75,5.73,5.73,0,0,1-1.43,4.17,6,6,0,0,1-4.17,2A6.4,6.4,0,0,1,49,69.07a6.65,6.65,0,0,1-2.2-4.59Z"/><ellipse cx="66.67" cy="48.13" rx="8.69" ry="12.14" transform="translate(-14.5 61.24) rotate(-45)"/><circle class="cls-1" cx="63.56" cy="45.02" r="1.91"/><ellipse cx="29.33" cy="48.13" rx="12.14" ry="8.69" transform="translate(-25.44 34.83) rotate(-45)"/><circle class="cls-1" cx="32.44" cy="45.02" r="1.91"/><path d="M44,62.51A1.55,1.55,0,0,1,44,60.2a6.28,6.28,0,0,1,3.34-1.47,6.37,6.37,0,0,1,4.57,1.35A1.54,1.54,0,0,1,52,62.45l-3.09,2.76a1.55,1.55,0,0,1-2.08,0Z"/></svg>