<svg id="图层_1" data-name="图层 1" xmlns="http://www.w3.org/2000/svg" viewBox="0 0 96 96"><defs><style>.cls-1{fill:#ffcb55;}.cls-2{fill:#1c1c1c;}.cls-3{fill:#ff9855;}.cls-4,.cls-5{fill:none;stroke:#1c1c1c;stroke-linecap:round;stroke-linejoin:round;}.cls-4{stroke-width:3.6px;}.cls-5{stroke-width:2.4px;}</style></defs><title>嘘</title><path class="cls-1" d="M57.64,81.39a70.14,70.14,0,0,1-9.65.66,67.38,67.38,0,0,1-34.85-9.43l-.44-.27-.24-.46a60.76,60.76,0,0,1-1.77-50.54l.21-.51.46-.3A66.83,66.83,0,0,1,48,10,66.87,66.87,0,0,1,84.64,20.54l.46.3.21.51a60.76,60.76,0,0,1-1.77,50.54l-.23.46-.44.26A63.46,63.46,0,0,1,72.1,77.8L65,88.72Z"/><path class="cls-2" d="M48,11.78A65.28,65.28,0,0,1,83.65,22.05a58.94,58.94,0,0,1-1.72,49,61.23,61.23,0,0,1-11,5.23l-6.26,9.57-6.38-6.41A66.8,66.8,0,0,1,48,80.25a65.62,65.62,0,0,1-33.92-9.17,58.94,58.94,0,0,1-1.72-49A65.21,65.21,0,0,1,48,11.78m0-3.6A68.61,68.61,0,0,0,10.38,19l-.93.6-.42,1a62.51,62.51,0,0,0,1.83,52l.46.92.89.54A69.14,69.14,0,0,0,48,83.85a72.77,72.77,0,0,0,9-.56l5.11,5.13,3.13,3.14,2.43-3.71,5.62-8.58A64,64,0,0,0,83.8,74.15l.88-.53.46-.92a62.51,62.51,0,0,0,1.83-52l-.42-1-.93-.6A68.65,68.65,0,0,0,48,8.18Z"/><path class="cls-3" d="M88.17,44.67a58.45,58.45,0,0,1-6.24,26.4,61.27,61.27,0,0,1-11,5.24l-6.26,9.57-6.38-6.41A68.07,68.07,0,0,1,48,80.25a65.62,65.62,0,0,1-33.92-9.18c12.17,3.27,38,8.69,56.57-.86a25.18,25.18,0,0,0,5.54-3.72c14.11-12.65,8.95-38,7.47-44.45A58.33,58.33,0,0,1,88.17,44.67Z"/><polyline class="cls-4" points="72.87 32.44 71.66 32.44 67.97 32.44 59.06 32.44 55.39 32.44 54.4 32.44"/><polyline class="cls-4" points="41.6 32.44 40.38 32.44 36.7 32.44 27.79 32.44 24.11 32.44 23.13 32.44"/><polyline class="cls-5" points="72.87 25.5 71.66 25.5 67.97 25.5 59.06 25.5 55.39 25.5 54.4 25.5"/><polyline class="cls-5" points="41.6 25.5 40.38 25.5 36.7 25.5 27.79 25.5 24.11 25.5 23.13 25.5"/><polyline class="cls-5" points="41.6 25.5 41.6 25.29 41.6 24.66 41.6 23.12 41.6 22.48 41.6 22.31"/><polyline class="cls-5" points="54.4 25.5 54.4 25.29 54.4 24.66 54.4 23.12 54.4 22.48 54.4 22.31"/><path class="cls-1" d="M44.13,91.75A10.9,10.9,0,1,1,47.3,70.42l1.55.47v-18A3.1,3.1,0,0,1,52,49.75a3,3,0,0,1,2.17.9A3.08,3.08,0,0,1,55,52.84v28a10.91,10.91,0,0,1-10.9,10.9Z"/><path class="cls-2" d="M52,51a1.86,1.86,0,0,1,1.33.55,1.88,1.88,0,0,1,.55,1.34v28a9.7,9.7,0,0,1-16.56,6.86A9.7,9.7,0,0,1,47,71.57l3.09.94V52.84A1.9,1.9,0,0,1,52,51m0-2.4a4.29,4.29,0,0,0-4.3,4.29V69.27a12.1,12.1,0,1,0,8.58,11.58v-28a4.27,4.27,0,0,0-1.26-3,4.2,4.2,0,0,0-3-1.26Z"/></svg>