<svg id="图层_1" data-name="图层 1" xmlns="http://www.w3.org/2000/svg" viewBox="0 0 96 96"><defs><style>.cls-1{fill:#d12222;}.cls-2{fill:#244ad0;}.cls-3{fill:#002eae;}.cls-4{fill:#ac0000;}.cls-5{fill:#1c1c1c;}.cls-6{fill:none;stroke:#fff;stroke-linecap:round;stroke-linejoin:round;stroke-width:4.8px;}</style></defs><title>药丸</title><path class="cls-1" d="M48,14.34V78.13c-13.1.5-26-2.33-33.71-4.38l-.19-.11a58.85,58.85,0,0,1-1.76-49.07A65.65,65.65,0,0,1,48,14.34Z"/><path class="cls-2" d="M83.63,24.65c1.48,6.42,6.64,31.78-7.47,44.44a24.79,24.79,0,0,1-5.55,3.72c-6.87,3.54-14.76,5-22.58,5.32V14.34a64.26,64.26,0,0,1,35.6,10.31Z"/><path class="cls-3" d="M88.15,47.27a58.52,58.52,0,0,1-6.24,26.41l-1.06.6c-.49.27-1,.56-1.6.86a63.32,63.32,0,0,1-18,6.39l-1.6.3A70.59,70.59,0,0,1,48,82.8V78.13c7.82-.29,15.71-1.78,22.58-5.32a24.79,24.79,0,0,0,5.55-3.72c14.11-12.66,9-38,7.47-44.44A58.28,58.28,0,0,1,88.15,47.27Z"/><path class="cls-4" d="M48,78.13V82.8a68.8,68.8,0,0,1-13.75-1.37c-.73-.16-1.47-.31-2.19-.49s-1.33-.33-2-.51l-1.23-.36c-.73-.21-1.45-.44-2.15-.67s-1.45-.49-2.14-.75c-.54-.21-1.08-.41-1.6-.63l-.77-.3-1.35-.57-1.14-.52q-2.81-1.32-5.41-2.88C22,75.8,34.93,78.63,48,78.13Z"/><path class="cls-5" d="M48.68,14.33A64.34,64.34,0,0,1,83.63,24.65a58.94,58.94,0,0,1-1.72,49l-1.06.6c-.49.27-1,.56-1.6.86a63.32,63.32,0,0,1-18,6.39l-1.6.3A70.59,70.59,0,0,1,48,82.8a68.8,68.8,0,0,1-13.75-1.37c-.73-.16-1.47-.31-2.19-.49s-1.33-.33-2-.51l-1.23-.36c-.73-.21-1.45-.44-2.15-.67s-1.45-.49-2.14-.75c-.54-.21-1.08-.41-1.6-.63l-.77-.3-1.35-.57-1.14-.52q-2.81-1.32-5.41-2.88l-.19-.11a58.85,58.85,0,0,1-1.76-49.07A65.65,65.65,0,0,1,48,14.34h.65m0-3.6H48A68.82,68.82,0,0,0,10.41,21.55,3.65,3.65,0,0,0,9,23.19a62.35,62.35,0,0,0-4.79,24,61.5,61.5,0,0,0,6.67,28,3.58,3.58,0,0,0,1.35,1.46l.23.13h0a62.61,62.61,0,0,0,5.72,3c.37.18.79.37,1.23.56l1.38.59.12,0,.68.26c.56.23,1.13.45,1.7.66s1.44.53,2.29.81,1.56.5,2.25.71l1.26.37,2.13.54c.77.19,1.52.35,2.26.51h.05A73.06,73.06,0,0,0,48,86.4a74.7,74.7,0,0,0,12.24-1c.6-.11,1.16-.21,1.72-.33a66.53,66.53,0,0,0,18.95-6.73c.59-.3,1.13-.6,1.64-.88s.8-.45,1.16-.67a3.62,3.62,0,0,0,1.38-1.47,62.54,62.54,0,0,0,1.83-52,3.51,3.51,0,0,0-1.37-1.63,67.9,67.9,0,0,0-36.9-10.89Z"/><path class="cls-6" d="M18.94,29.46a51.06,51.06,0,0,1,9.68-4.75A50.44,50.44,0,0,1,40.77,22"/></svg>