<svg id="图层_1" data-name="图层 1" xmlns="http://www.w3.org/2000/svg" viewBox="0 0 96 96"><defs><style>.cls-1{fill:#ffcb55;}.cls-2{fill:#1c1c1c;}.cls-3{fill:#ff9855;}.cls-4{fill:#fff;}</style></defs><title>阴险笑</title><path class="cls-1" d="M57.64,82.71a68.61,68.61,0,0,1-9.65.67,67.24,67.24,0,0,1-34.85-9.44l-.44-.26-.24-.47a60.74,60.74,0,0,1-1.77-50.53l.21-.51.46-.31A66.9,66.9,0,0,1,48,11.31,66.94,66.94,0,0,1,84.64,21.86l.46.31.21.51a60.74,60.74,0,0,1-1.77,50.53l-.23.46-.45.27A62.61,62.61,0,0,1,72.1,79.12L65,90.05Z"/><path class="cls-2" d="M48,13.11A65.36,65.36,0,0,1,83.65,23.37a58.94,58.94,0,0,1-1.72,49,61.27,61.27,0,0,1-11,5.24l-6.26,9.57L58.28,80.8A68.07,68.07,0,0,1,48,81.58,65.62,65.62,0,0,1,14.07,72.4a58.94,58.94,0,0,1-1.72-49A65.29,65.29,0,0,1,48,13.11m0-3.6A68.61,68.61,0,0,0,10.38,20.36l-.93.6L9,22a62.51,62.51,0,0,0,1.83,52l.46.93.89.53A69.05,69.05,0,0,0,48,85.18a72.77,72.77,0,0,0,9-.56l5.11,5.13,3.13,3.14,2.43-3.71,5.62-8.58A65.65,65.65,0,0,0,83.8,75.48l.88-.54.46-.92A62.51,62.51,0,0,0,87,22l-.42-1-.93-.6A68.65,68.65,0,0,0,48,9.51Z"/><path class="cls-3" d="M88.17,46a58.51,58.51,0,0,1-6.24,26.4,62,62,0,0,1-11,5.24L64.66,87.2l-6.38-6.4A68.07,68.07,0,0,1,48,81.58,65.62,65.62,0,0,1,14.07,72.4c12.17,3.27,38,8.69,56.57-.86a25.17,25.17,0,0,0,5.54-3.73c14.11-12.65,8.95-38,7.47-44.44A58.33,58.33,0,0,1,88.17,46Z"/><path class="cls-4" d="M47,73.29a52.6,52.6,0,0,1-20-4c-5.17-2.14-9.09-7-10.57-13.18a20.78,20.78,0,0,0,9.88,4.53,105.73,105.73,0,0,0,20.73,2A104.14,104.14,0,0,0,70.82,60a20,20,0,0,0,8.68-4.18c-1.56,5.43-5,10-9.48,12.16A52.4,52.4,0,0,1,47,73.29Z"/><path d="M77,59a16.82,16.82,0,0,1-7.54,7.93A51.15,51.15,0,0,1,47,72.09a51.39,51.39,0,0,1-19.58-3.86,16.7,16.7,0,0,1-8.74-9A25.24,25.24,0,0,0,26,61.87a107.24,107.24,0,0,0,21,2,105.38,105.38,0,0,0,24.12-2.69A24.18,24.18,0,0,0,77,59M14.38,49.24a32.11,32.11,0,0,0,.69,6.62c1.5,7,5.95,12.33,11.41,14.59a54,54,0,0,0,44.06-1.38c6.47-3.15,11-10.87,11.08-19.65-.12,4.23-4.66,7.91-11.08,9.42A103.17,103.17,0,0,1,47,61.47a105.19,105.19,0,0,1-20.49-1.95c-5.46-1.1-9.91-3.68-11.41-7.07a8,8,0,0,1-.69-3.21Z"/><path class="cls-1" d="M21.38,86.13a13.05,13.05,0,0,1-6.62-1.78,12.4,12.4,0,0,1-3.18-2.69,6.1,6.1,0,0,1,1.56-9.17l3.35-2a74.4,74.4,0,0,0,17.11-14l.08-.09A18.46,18.46,0,0,1,35.05,55a20.77,20.77,0,0,1,9.05-4.86l.36-.09.38.06A4.49,4.49,0,0,1,48,51.89a3.93,3.93,0,0,1,.65,2l6-3.65a9.07,9.07,0,0,1,4.69-1.4h.4A8.43,8.43,0,0,1,65.91,52a8.64,8.64,0,0,1,.9,8.84,9,9,0,0,1-3.86,4L29,84A14.6,14.6,0,0,1,21.38,86.13Z"/><path class="cls-2" d="M59.3,50.65h.31a6.59,6.59,0,0,1,4.88,2.43,6.8,6.8,0,0,1,.68,7,7.15,7.15,0,0,1-3.11,3.21l-34,19.12a12.87,12.87,0,0,1-6.7,1.93,11.2,11.2,0,0,1-5.7-1.53A10.71,10.71,0,0,1,13,80.49,4.29,4.29,0,0,1,14.06,74l3.35-2A76.45,76.45,0,0,0,34.94,57.7c.36-.4.73-.83,1.34-1.4a19,19,0,0,1,8.27-4.43,2.63,2.63,0,0,1,1.91,1c.86,1.29.14,3.82-2.28,5.81l11.36-6.91a7.36,7.36,0,0,1,3.76-1.14m0-3.6a10.92,10.92,0,0,0-5.63,1.66l-4,2.46-.18-.29a6.29,6.29,0,0,0-4.32-2.56l-.75-.12-.74.19a22.53,22.53,0,0,0-9.82,5.28,18.73,18.73,0,0,0-1.47,1.53l-.09.1A72.37,72.37,0,0,1,15.57,69l-1.5.89-1.85,1.1a7.89,7.89,0,0,0-2,11.89,14.39,14.39,0,0,0,3.63,3.07,14.82,14.82,0,0,0,7.54,2,16.49,16.49,0,0,0,8.52-2.42L63.83,66.42a10.75,10.75,0,0,0,4.62-4.86,10.43,10.43,0,0,0-1.13-10.69,10.19,10.19,0,0,0-7.53-3.81Z"/><path class="cls-4" d="M32,44.9a7.61,7.61,0,1,1,5.38-2.23A7.6,7.6,0,0,1,32,44.9Z"/><path d="M32,30.88a6.41,6.41,0,1,1-4.53,1.87A6.36,6.36,0,0,1,32,30.88m0-2.4a8.81,8.81,0,1,0,6.23,2.58A8.77,8.77,0,0,0,32,28.48Z"/><path class="cls-4" d="M64,44.9a7.61,7.61,0,1,1,5.38-2.23A7.6,7.6,0,0,1,64,44.9Z"/><path d="M64,30.88a6.4,6.4,0,1,1-4.53,1.87A6.36,6.36,0,0,1,64,30.88m0-2.4a8.81,8.81,0,1,0,6.23,2.58A8.79,8.79,0,0,0,64,28.48Z"/><path class="cls-2" d="M40.27,29.19l-6.38-8.31,1.44.19L20.77,29.35,34.12,19.23a1,1,0,0,1,1.33.09l.11.1L43,26.81a1.81,1.81,0,0,1-2.55,2.56Z"/><path class="cls-2" d="M53,26.81l7.42-7.39.11-.1a1,1,0,0,1,1.33-.09L75.23,29.35,60.67,21.07l1.44-.19-6.38,8.31A1.8,1.8,0,1,1,52.87,27C52.91,26.93,53,26.87,53,26.81Z"/></svg>