<svg id="图层_1" data-name="图层 1" xmlns="http://www.w3.org/2000/svg" viewBox="0 0 96 96"><defs><style>.cls-1{fill:#fff;}.cls-2{fill:#1c1c1c;}.cls-3{fill:#989898;}.cls-4{fill:#444;}</style></defs><title>幽灵</title><path class="cls-1" d="M63.2,92.09a10.15,10.15,0,0,1-5-1.38l-.12-.08-10.75-9.3a65.91,65.91,0,0,1-16.94-2.27,66.17,66.17,0,0,1-16.57-7l-.45-.27-.24-.47a59.61,59.61,0,0,1-1.74-49.58l.21-.51.47-.3A65.59,65.59,0,0,1,48,10.59,65.63,65.63,0,0,1,83.94,21l.46.3.22.51a59.66,59.66,0,0,1-1.75,49.58l-.23.46-.44.27a62,62,0,0,1-10,4.87L72,82.34a9.24,9.24,0,0,1-5.16,9A8.56,8.56,0,0,1,63.2,92.09Z"/><path class="cls-2" d="M48,12.39A64.12,64.12,0,0,1,83,22.46a57.84,57.84,0,0,1-1.7,48.07,59.84,59.84,0,0,1-10.79,5.14l-.3,6.69a7.43,7.43,0,0,1-4.12,7.31,6.66,6.66,0,0,1-2.85.62,8.43,8.43,0,0,1-4.06-1.11L48,79.53h-.42a64.47,64.47,0,0,1-32.84-9A57.78,57.78,0,0,1,13,22.46,64,64,0,0,1,48,12.39m0-3.6A67.43,67.43,0,0,0,11.07,19.44l-.92.61-.43,1A60.59,60.59,0,0,0,5,44.64a60.7,60.7,0,0,0,6.51,27.51l.47.94.91.54a67.89,67.89,0,0,0,17,7.17,68.06,68.06,0,0,0,16.73,2.33l2.71,2.34,7.43,6.43.22.19.25.15a12,12,0,0,0,6,1.65,10.24,10.24,0,0,0,4.37-1,11,11,0,0,0,6.2-10.6l.15-3.16,0-1a62.34,62.34,0,0,0,9.18-4.57l.88-.54.46-.92a61.46,61.46,0,0,0,1.8-51.08l-.43-1-.93-.61A67.41,67.41,0,0,0,48,8.79Z"/><path class="cls-3" d="M87.39,44.64a57.33,57.33,0,0,1-6.13,25.9,61.53,61.53,0,0,1-10.79,5.13c-.09,2.23-.2,4.46-.31,6.69a7.4,7.4,0,0,1-4.11,7.31,7.73,7.73,0,0,1-6.91-.49L48,79.53a64.7,64.7,0,0,1-17.15-2.2,64.33,64.33,0,0,1-16.1-6.79c8,3.24,27.64,9.87,49.15,2.65a62.79,62.79,0,0,0,13.57-6.46,57.84,57.84,0,0,0,2.48-46.09c1,.58,2,1.19,3,1.82A57.24,57.24,0,0,1,87.39,44.64Z"/><path class="cls-2" d="M29,41.44a7.83,7.83,0,1,1,7.83-7.82A7.84,7.84,0,0,1,29,41.44Z"/><path d="M29,27a6.63,6.63,0,1,1-6.63,6.63A6.63,6.63,0,0,1,29,27m0-2.4a9,9,0,1,0,9,9,9,9,0,0,0-9-9Z"/><path class="cls-2" d="M56,45.27A11.66,11.66,0,1,1,67.62,33.62,11.67,11.67,0,0,1,56,45.27Z"/><path d="M56,23.16A10.46,10.46,0,1,1,45.52,33.62,10.47,10.47,0,0,1,56,23.16m0-2.4A12.86,12.86,0,1,0,68.82,33.62,12.85,12.85,0,0,0,56,20.76Z"/><path class="cls-4" d="M62.48,86.77a3.26,3.26,0,0,1-2.18-.9L29.92,57.5a.76.76,0,0,1-.23-.67.73.73,0,0,1,.39-.55,49.58,49.58,0,0,1,12-4.32,50.32,50.32,0,0,1,7.43-1h.21a3.29,3.29,0,0,1,3,1.94L66,82.11a3.13,3.13,0,0,1-1,3.83,4.54,4.54,0,0,1-2.31.82Z"/><path class="cls-2" d="M49.73,52.11a2.09,2.09,0,0,1,1.9,1.24l6.86,15.07,6.45,14.19A1.92,1.92,0,0,1,64.32,85a3.35,3.35,0,0,1-1.71.6h-.13A2,2,0,0,1,61.12,85l-16-14.94-13.91-13A48.26,48.26,0,0,1,49.6,52.11h.13m0-2.4h-.29a50.57,50.57,0,0,0-19.9,5.49,2,2,0,0,0-.44,3.16L59.48,86.75a4.45,4.45,0,0,0,3,1.22h.32a5.79,5.79,0,0,0,2.91-1,4.34,4.34,0,0,0,1.42-5.31Q60.47,67,53.82,52.35a4.51,4.51,0,0,0-4.09-2.64Z"/></svg>