<svg id="图层_1" data-name="图层 1" xmlns="http://www.w3.org/2000/svg" xmlns:xlink="http://www.w3.org/1999/xlink" viewBox="0 0 96 96"><defs><style>.cls-1{fill:#ffcb55;}.cls-2{fill:#1c1c1c;}.cls-3{fill:#ff9855;}.cls-4{opacity:0.75;}.cls-5{fill:url(#未命名的渐变_82);}.cls-6{fill:none;stroke:#1c1c1c;stroke-linecap:round;stroke-linejoin:round;stroke-width:2.4px;}.cls-7{fill:#ee2d2c;}</style><radialGradient id="未命名的渐变_82" cx="-39.46" cy="124.09" r="37.32" gradientTransform="translate(79.07 -39.95) scale(0.79 0.7)" gradientUnits="userSpaceOnUse"><stop offset="0" stop-color="#0f1780" stop-opacity="0.75"/><stop offset="0.2" stop-color="#191f7e" stop-opacity="0.72"/><stop offset="0.41" stop-color="#353677" stop-opacity="0.62"/><stop offset="0.61" stop-color="#655c6c" stop-opacity="0.46"/><stop offset="0.82" stop-color="#a7915d" stop-opacity="0.24"/><stop offset="1" stop-color="#f0cb4c" stop-opacity="0"/></radialGradient></defs><title>晕</title><path class="cls-1" d="M57.64,82.71a68.61,68.61,0,0,1-9.65.67,67.24,67.24,0,0,1-34.85-9.44l-.44-.26-.24-.47a60.74,60.74,0,0,1-1.77-50.53l.21-.51.46-.31A66.9,66.9,0,0,1,48,11.31,66.94,66.94,0,0,1,84.64,21.86l.46.31.21.51a60.74,60.74,0,0,1-1.77,50.53l-.23.46-.45.27A62.61,62.61,0,0,1,72.1,79.12L65,90.05Z"/><path class="cls-2" d="M48,13.11A65.36,65.36,0,0,1,83.65,23.37a58.94,58.94,0,0,1-1.72,49,61.27,61.27,0,0,1-11,5.24l-6.26,9.57L58.28,80.8A68.07,68.07,0,0,1,48,81.58,65.62,65.62,0,0,1,14.07,72.4a58.94,58.94,0,0,1-1.72-49A65.29,65.29,0,0,1,48,13.11m0-3.6A68.61,68.61,0,0,0,10.38,20.36l-.93.6L9,22a62.51,62.51,0,0,0,1.83,52l.46.93.89.53A69.05,69.05,0,0,0,48,85.18a72.77,72.77,0,0,0,9-.56l5.11,5.13,3.13,3.14,2.43-3.71,5.62-8.58A65.65,65.65,0,0,0,83.8,75.48l.88-.54.46-.92A62.51,62.51,0,0,0,87,22l-.42-1-.93-.6A68.65,68.65,0,0,0,48,9.51Z"/><path class="cls-3" d="M88.17,46a58.51,58.51,0,0,1-6.24,26.4,62,62,0,0,1-11,5.24L64.66,87.2l-6.38-6.4A68.07,68.07,0,0,1,48,81.58,65.62,65.62,0,0,1,14.07,72.4c12.17,3.27,38,8.69,56.57-.86a25.17,25.17,0,0,0,5.54-3.73c14.11-12.65,8.95-38,7.47-44.44A58.33,58.33,0,0,1,88.17,46Z"/><g class="cls-4"><path class="cls-5" d="M79.63,46.57a37.57,37.57,0,0,1-4.95,18.64A56.73,56.73,0,0,1,48,71.65a56.54,56.54,0,0,1-26.73-6.46A37.46,37.46,0,0,1,19.84,30.6,56.36,56.36,0,0,1,48,23.39,56.4,56.4,0,0,1,76.09,30.6,37.94,37.94,0,0,1,79.63,46.57Z"/></g><path class="cls-6" d="M17.45,38.52A18,18,0,0,1,32.63,23.34"/><path class="cls-6" d="M32.63,23.34a16.59,16.59,0,0,1,12.21,12.2"/><path class="cls-6" d="M44.84,35.54a17.27,17.27,0,0,1-12,12"/><path class="cls-6" d="M32.86,47.52a12.93,12.93,0,0,1-5.95-3.44,12.78,12.78,0,0,1-3.44-6"/><path class="cls-6" d="M23.47,38.12a11.71,11.71,0,0,1,7.74-7.74"/><path class="cls-6" d="M31.21,30.38a8.42,8.42,0,0,1,6.47,6.47"/><path class="cls-6" d="M37.68,36.85a6.51,6.51,0,0,1-4.86,4.85"/><path class="cls-6" d="M32.82,41.7a5.73,5.73,0,0,1-4-4"/><path class="cls-6" d="M52.25,38.52A17.95,17.95,0,0,1,67.43,23.34"/><path class="cls-6" d="M67.43,23.34a16.6,16.6,0,0,1,12.2,12.2"/><path class="cls-6" d="M79.63,35.54a17.22,17.22,0,0,1-12,12"/><path class="cls-6" d="M67.65,47.52a13.3,13.3,0,0,1-9.39-9.4"/><path class="cls-6" d="M58.26,38.12A11.76,11.76,0,0,1,66,30.38"/><path class="cls-6" d="M66,30.38a8.39,8.39,0,0,1,6.47,6.47"/><path class="cls-6" d="M72.47,36.85a6.47,6.47,0,0,1-4.85,4.85"/><path class="cls-6" d="M67.62,41.7a5.41,5.41,0,0,1-2.52-1.47,5.62,5.62,0,0,1-1.48-2.52"/><path class="cls-7" d="M41.77,73.31c-2.41-.11-4.87-1.78-7.31-5l-.62-.81-.72.71a5.78,5.78,0,0,1-4,1.69A5.05,5.05,0,0,1,27,69.49a5.17,5.17,0,0,1-3-5.06c.5-3.43,6.38-5.38,9.43-5.93a15,15,0,0,1,2.86-.27,19.83,19.83,0,0,1,7.17,1.62,22.12,22.12,0,0,0,8.18,1.8,19.06,19.06,0,0,0,3.3-.29,23.76,23.76,0,0,0,4.17-1.13,11.06,11.06,0,0,1,4-.84,10.58,10.58,0,0,1,1.22.07c4.49.47,8.94,2.95,9,5a3,3,0,0,1-1,2,12.44,12.44,0,0,1-8.15,3.12c-.3,0-.6,0-.89,0A6.38,6.38,0,0,1,60,68.36a7.25,7.25,0,0,0-3.55-1.31l-.78,0c-3.16,0-5.4,1.73-7.57,3.4-1.93,1.49-3.75,2.89-6,2.89Z"/><path class="cls-2" d="M36.25,59.13h0a19,19,0,0,1,6.86,1.57,23,23,0,0,0,8.49,1.85,20.72,20.72,0,0,0,3.45-.3,25.25,25.25,0,0,0,4.31-1.17,10.27,10.27,0,0,1,3.7-.79,11.09,11.09,0,0,1,1.12.06c4.41.47,8.15,2.86,8.17,4.13a2.25,2.25,0,0,1-.77,1.33,11.47,11.47,0,0,1-7.51,2.85,7.2,7.2,0,0,1-.81,0,5.41,5.41,0,0,1-2.81-1,8,8,0,0,0-4-1.44,8.38,8.38,0,0,0-.86,0c-3.46,0-5.94,1.91-8.12,3.59-1.88,1.45-3.5,2.7-5.49,2.7h-.22c-2.13-.1-4.36-1.65-6.63-4.6l-1.24-1.62-1.45,1.43a4.93,4.93,0,0,1-3.4,1.43,4.22,4.22,0,0,1-1.76-.38,4.29,4.29,0,0,1-2.48-4.11c.35-2.4,4.74-4.46,8.7-5.18a15,15,0,0,1,2.7-.25m0-1.8a16.48,16.48,0,0,0-3,.28c-3.62.66-9.6,2.81-10.16,6.69a6.08,6.08,0,0,0,3.5,6,6,6,0,0,0,2.52.55,6.67,6.67,0,0,0,4.66-1.95c3.35,4.36,6.15,5.22,8,5.31H42c5.28,0,8-6.29,13.61-6.29l.7,0c3.12.28,3.23,2.14,6.76,2.46.32,0,.65,0,1,0,4.88,0,10.13-3.14,10.08-6S68.77,59,64.37,58.56a12.27,12.27,0,0,0-1.31-.07c-3.09,0-4.45,1.32-8.31,2a18.1,18.1,0,0,1-3.15.28c-6.2,0-9.45-3.42-15.35-3.42Z"/></svg>