<svg id="图层_1" data-name="图层 1" xmlns="http://www.w3.org/2000/svg" viewBox="0 0 96 96"><defs><style>.cls-1{fill:#ffcb55;}.cls-2{fill:#1c1c1c;}.cls-3{fill:#ff9855;}.cls-4{fill:#fff;}</style></defs><title>赞</title><path class="cls-1" d="M57.64,84.13a70.14,70.14,0,0,1-9.65.66,67.36,67.36,0,0,1-34.85-9.43l-.44-.27-.24-.46a60.76,60.76,0,0,1-1.77-50.54l.21-.51.46-.3A66.83,66.83,0,0,1,48,12.72,66.87,66.87,0,0,1,84.64,23.28l.46.3.21.51a60.76,60.76,0,0,1-1.77,50.54l-.24.46-.44.26A63,63,0,0,1,72.1,80.54L65,91.46Z"/><path class="cls-2" d="M48,14.52A65.28,65.28,0,0,1,83.65,24.79a58.94,58.94,0,0,1-1.72,49,61.23,61.23,0,0,1-11,5.23l-6.26,9.57-6.38-6.41A66.8,66.8,0,0,1,48,83a65.62,65.62,0,0,1-33.92-9.17,58.94,58.94,0,0,1-1.72-49A65.21,65.21,0,0,1,48,14.52m0-3.6A68.61,68.61,0,0,0,10.38,21.77l-.93.6L9,23.4a62.51,62.51,0,0,0,1.83,52l.46.92.89.54A69.14,69.14,0,0,0,48,86.59,72.77,72.77,0,0,0,57,86l5.11,5.13,3.13,3.14,2.43-3.71L73.29,82A64,64,0,0,0,83.8,76.89l.88-.53.46-.92A62.51,62.51,0,0,0,87,23.4l-.42-1-.93-.6A68.65,68.65,0,0,0,48,10.92Z"/><path class="cls-3" d="M88.17,47.41a58.45,58.45,0,0,1-6.24,26.4,61.27,61.27,0,0,1-11,5.24l-6.26,9.57-6.38-6.41A68.07,68.07,0,0,1,48,83a65.62,65.62,0,0,1-33.92-9.18c12.17,3.27,38,8.69,56.57-.85a25.52,25.52,0,0,0,5.54-3.73c14.11-12.65,8.95-38,7.47-44.45A58.33,58.33,0,0,1,88.17,47.41Z"/><path class="cls-4" d="M39.6,90.7a16.89,16.89,0,0,1-5.71-.91C18.22,84.25,18.08,52.92,18,42.63,18,27.79,21.09,6.28,28.3,5A4.17,4.17,0,0,1,29,4.9c2.36,0,5.34,2.15,8.18,5.9,6.71,9,5,24.15-4.36,38.74a1.18,1.18,0,0,0,.24,1.56,1.19,1.19,0,0,0,1.58,0A24.52,24.52,0,0,1,45.91,45a20.39,20.39,0,0,1,4.36-.66,6.43,6.43,0,0,1,3.31.83,8.76,8.76,0,0,1,3.93,7.11,9.17,9.17,0,0,1-2.23,5.8,1.2,1.2,0,0,0,.29,1.75c1.28.83,4.27,3.07,4.46,6A7.26,7.26,0,0,1,57.77,71a1.19,1.19,0,0,0,0,1.66c2,2,2.94,3.93,2.83,5.7C60.28,84.15,49.08,90.7,39.6,90.7Z"/><path class="cls-2" d="M29,6.1c1.95,0,4.66,2,7.24,5.44,6.39,8.53,4.65,23.19-4.43,37.35a2.4,2.4,0,0,0,3.65,3,23,23,0,0,1,10.72-5.78,19.45,19.45,0,0,1,4.08-.62A5.26,5.26,0,0,1,53,46.2c2.37,1.37,3.29,4.4,3.33,6.11a8,8,0,0,1-2,5,2.39,2.39,0,0,0-.48,1.88,2.43,2.43,0,0,0,1.06,1.62c1.13.73,3.76,2.68,3.92,5a6.2,6.2,0,0,1-2,4.34,2.41,2.41,0,0,0,0,3.32c1.74,1.76,2.58,3.37,2.5,4.78C59.15,83,49.1,89.5,39.6,89.5a15.82,15.82,0,0,1-5.31-.84C28.12,86.48,23.77,79.53,21.36,68c-2.06-9.83-2.11-20.33-2.13-25.38-.08-16.78,3.63-35.44,9.29-36.48a2.63,2.63,0,0,1,.49,0m0-2.4a4.7,4.7,0,0,0-.92.08c-8.5,1.56-11.33,24.74-11.26,38.86.05,10.39.22,42.46,16.66,48.28a18.12,18.12,0,0,0,6.11,1c10.22,0,21.83-6.94,22.23-13.43.1-1.66-.49-3.89-3.18-6.61a8.46,8.46,0,0,0,2.58-6.14c-.24-3.67-3.95-6.21-5-6.9a10.33,10.33,0,0,0,2.48-6.57c-.06-2.52-1.39-6.31-4.54-8.13a7.62,7.62,0,0,0-3.9-1,22,22,0,0,0-4.62.68,25.72,25.72,0,0,0-11.82,6.36c9.54-14.86,11.42-30.63,4.34-40.08-.77-1-4.81-6.4-9.16-6.4Z"/><path class="cls-4" d="M54.89,58.58c-2.89,3.64-8.11,6.84-14.83,8.5"/><path class="cls-2" d="M55.83,59.32a22.81,22.81,0,0,1-7.38,5.2,35,35,0,0,1-8.39,2.56,34.37,34.37,0,0,0,7.82-3.62A20.88,20.88,0,0,0,54,57.83h0a1.21,1.21,0,0,1,2,1.36Z"/><path class="cls-4" d="M55.25,59.66c1.06.68,4.76,3.22,5,6.9.32,4.82-5.36,10.62-14.4,11.25"/><path class="cls-2" d="M55.9,58.65a15.71,15.71,0,0,1,2.89,2.58,9.59,9.59,0,0,1,2,3.46,7,7,0,0,1,0,4A9.33,9.33,0,0,1,59,72.09a12.77,12.77,0,0,1-2.77,2.53,15.57,15.57,0,0,1-3.24,1.74,20.44,20.44,0,0,1-7.09,1.45,20.37,20.37,0,0,0,6.84-2A14,14,0,0,0,58,71.37a6.45,6.45,0,0,0,1.08-6.1,10.23,10.23,0,0,0-4.47-4.6,1.2,1.2,0,0,1,1.21-2.08Z"/><path class="cls-2" d="M52.5,31.83a61.89,61.89,0,0,1,5.75-7.5q1.59-1.77,3.3-3.43t3.57-3.17c1.24-1,2.44-2.08,3.71-3.07A20,20,0,0,1,73,12.19a22.94,22.94,0,0,1,9.47-2.13l.18.44a48.9,48.9,0,0,1-7.33,5.89c-2.45,1.76-5.31,2.83-7.89,4.45a90.72,90.72,0,0,0-7.49,5.24,85.23,85.23,0,0,0-7,6.05Z"/><path class="cls-4" d="M68.29,42.9A16.68,16.68,0,0,1,55,36.21a23.28,23.28,0,0,1,13.32-4.13,23.68,23.68,0,0,1,13.3,4.06A16.5,16.5,0,0,1,68.29,42.9Z"/><path class="cls-2" d="M68.29,33a22.73,22.73,0,0,1,12,3.41,15.71,15.71,0,0,1-24.07,0,22.79,22.79,0,0,1,12-3.41m0-1.8a24.59,24.59,0,0,0-13.81,4.21,1,1,0,0,0-.24,1.36,17.52,17.52,0,0,0,28.09,0,1,1,0,0,0-.24-1.36,24.56,24.56,0,0,0-13.8-4.21Z"/><circle class="cls-2" cx="64.42" cy="35.69" r="3.87"/></svg>