<svg id="图层_1" data-name="图层 1" xmlns="http://www.w3.org/2000/svg" xmlns:xlink="http://www.w3.org/1999/xlink" viewBox="0 0 96 96"><defs><style>.cls-1{fill:#ffcb55;}.cls-2{fill:#1c1c1c;}.cls-3{fill:#ff9855;}.cls-4{fill:url(#未命名的渐变_38);}.cls-5{fill:#fff;}.cls-6{fill:#ee2d2c;}.cls-7{fill:#f45d5d;}.cls-8{fill:#333;}.cls-9{fill:#666;}.cls-10{fill:#989898;}.cls-11{fill:url(#未命名的渐变_38-2);}</style><radialGradient id="未命名的渐变_38" cx="75.84" cy="33.19" r="11.25" gradientUnits="userSpaceOnUse"><stop offset="0" stop-color="#fc5"/><stop offset="0.05" stop-color="#ffc253"/><stop offset="0.37" stop-color="#ff8c49"/><stop offset="0.65" stop-color="#ff6441"/><stop offset="0.87" stop-color="#ff4c3d"/><stop offset="1" stop-color="#ff433b"/></radialGradient><radialGradient id="未命名的渐变_38-2" cx="44.6" cy="33.19" r="11.25" xlink:href="#未命名的渐变_38"/></defs><title>炸弹狂</title><path class="cls-1" d="M62,82.61a69.71,69.71,0,0,1-9.62.66,67.12,67.12,0,0,1-34.73-9.4l-.45-.27L17,73.14a60.57,60.57,0,0,1-1.77-50.37l.21-.51.47-.31a66.61,66.61,0,0,1,36.5-10.52A66.68,66.68,0,0,1,88.9,22l.46.31.22.51A60.53,60.53,0,0,1,87.8,73.14l-.23.46-.44.27A63.61,63.61,0,0,1,76.41,79L69.28,89.92Z"/><path class="cls-2" d="M52.37,13.23A65.21,65.21,0,0,1,87.92,23.46,58.78,58.78,0,0,1,86.2,72.33a62.54,62.54,0,0,1-11,5.22L69,87.08,62.62,80.7a67.45,67.45,0,0,1-10.25.77,65.38,65.38,0,0,1-33.8-9.14,58.78,58.78,0,0,1-1.72-48.87A65.08,65.08,0,0,1,52.37,13.23m0-3.6A68.37,68.37,0,0,0,14.88,20.45l-.92.6-.43,1A62.39,62.39,0,0,0,15.35,74l.47.92.89.54a68.9,68.9,0,0,0,35.66,9.66,70.14,70.14,0,0,0,9-.56l5.1,5.11,3.13,3.14L72,89.05l5.59-8.54A64.46,64.46,0,0,0,88.07,75.4l.88-.53.46-.92a62.35,62.35,0,0,0,1.83-51.88l-.43-1-.93-.6A68.39,68.39,0,0,0,52.37,9.63Z"/><path class="cls-3" d="M92.42,46A58.22,58.22,0,0,1,86.2,72.32a61.14,61.14,0,0,1-11,5.22L69,87.08l-6.37-6.39a66.19,66.19,0,0,1-10.25.78,65.39,65.39,0,0,1-33.8-9.15c12.13,3.26,37.9,8.67,56.37-.85a25.55,25.55,0,0,0,5.53-3.71c14.06-12.61,8.91-37.9,7.45-44.3A58.32,58.32,0,0,1,92.42,46Z"/><path d="M24.44,33.19A10.78,10.78,0,0,1,28,25.74a10.34,10.34,0,0,1,7.45-2.63,9.86,9.86,0,0,1,6.81,3.27,9.39,9.39,0,0,1,2.37,6.81,8.94,8.94,0,0,0-3-6.17,8.45,8.45,0,0,0-6.17-2.11,8,8,0,0,0-5.54,2.74A7.6,7.6,0,0,0,28,33.19Z"/><path class="cls-4" d="M75.84,44.44a1.22,1.22,0,0,1-.92-.43,17.36,17.36,0,0,1-3.44-6.45A17.61,17.61,0,0,1,65,34.11a1.2,1.2,0,0,1,0-1.83,17.45,17.45,0,0,1,6.47-3.45,17.27,17.27,0,0,1,3.44-6.46,1.2,1.2,0,0,1,1.84,0,17.27,17.27,0,0,1,3.44,6.46,17.45,17.45,0,0,1,6.47,3.45,1.2,1.2,0,0,1,0,1.83,17.61,17.61,0,0,1-6.46,3.45A17.36,17.36,0,0,1,76.76,44,1.22,1.22,0,0,1,75.84,44.44Z"/><path d="M75.84,23.14a16.2,16.2,0,0,1,3.38,6.68,16.28,16.28,0,0,1,6.67,3.37,16.27,16.27,0,0,1-6.67,3.38,16.34,16.34,0,0,1-3.38,6.67,16.34,16.34,0,0,1-3.38-6.67,16.27,16.27,0,0,1-6.67-3.38,16.28,16.28,0,0,1,6.67-3.37,16.2,16.2,0,0,1,3.38-6.68m0-2.4h0a2.38,2.38,0,0,0-1.83.85,18.62,18.62,0,0,0-3.5,6.28,18.71,18.71,0,0,0-6.27,3.49,2.41,2.41,0,0,0,0,3.68,19.06,19.06,0,0,0,6.26,3.48A18.74,18.74,0,0,0,74,44.79a2.39,2.39,0,0,0,3.66,0,18.57,18.57,0,0,0,3.49-6.27A19,19,0,0,0,87.43,35a2.41,2.41,0,0,0,0-3.68,18.71,18.71,0,0,0-6.27-3.49,18.62,18.62,0,0,0-3.5-6.28,2.38,2.38,0,0,0-1.83-.85Z"/><path class="cls-5" d="M27.67,70.83l-1.15-.65a44.51,44.51,0,0,1-4.24-13.66C39.7,51.8,60.2,49.3,81.62,49.3h1.5c0,.26,0,.52,0,.78,0,1.2,0,2.38-.14,3.53-3.33.42-6.68.94-10,1.57A167.17,167.17,0,0,0,27.67,70.83Z"/><path d="M81.62,50.5h.3c0,.7,0,1.38-.06,2-3,.4-6.07.89-9,1.46A168.26,168.26,0,0,0,27.69,69.47l-.25-.14A43.07,43.07,0,0,1,23.63,57.4c17.1-4.52,37.09-6.9,58-6.9m0-2.4C59,48.1,38,50.91,21,55.64h0A46.2,46.2,0,0,0,25.6,71c.67.41,1.37.8,2.06,1.16A165.79,165.79,0,0,1,73.25,56.37c3.72-.71,7.34-1.26,10.85-1.68.15-1.52.23-3,.23-4.6,0-.66,0-1.32,0-2-.89,0-1.77,0-2.66,0Z"/><path class="cls-6" d="M84.1,54.69a45.49,45.49,0,0,1-4.75,16.36,52.15,52.15,0,0,1-26.86,7.24,52.38,52.38,0,0,1-24.83-6.1A165.79,165.79,0,0,1,73.25,56.37C77,55.66,80.59,55.11,84.1,54.69Z"/><path class="cls-7" d="M52.49,77.09A51.72,51.72,0,0,1,34.2,73.83C42,66.4,51.11,62.16,59.46,62.16A23,23,0,0,1,66,63.1,24.89,24.89,0,0,1,77.5,70.74,51.13,51.13,0,0,1,52.49,77.09Z"/><path d="M59.47,63.36h0a21.65,21.65,0,0,1,6.22.89,23,23,0,0,1,9.87,6.17,50.26,50.26,0,0,1-23.07,5.47,51,51,0,0,1-16-2.52c7.22-6.4,15.45-10,23-10m0-2.4c-9.09,0-19,4.75-27.41,13.31a53,53,0,0,0,20.44,4,52.15,52.15,0,0,0,26.86-7.24c-5-6.1-10.09-8.24-13-9.1a24.1,24.1,0,0,0-6.91-1Z"/><path d="M81.62,50.5h.3a43.52,43.52,0,0,1-4.4,18.85,49.9,49.9,0,0,1-25,6.54,49.65,49.65,0,0,1-25-6.57A42.9,42.9,0,0,1,23.63,57.4c17.1-4.52,37.09-6.9,58-6.9m0-2.4C59,48.1,38,50.91,21,55.64h0A46.2,46.2,0,0,0,25.6,71a52.11,52.11,0,0,0,26.89,7.26,52.15,52.15,0,0,0,26.86-7.24,46,46,0,0,0,5-21c0-.66,0-1.32,0-2-.89,0-1.77,0-2.66,0Z"/><path class="cls-8" d="M26.24,84.47a25,25,0,0,1,0-50.08,24.69,24.69,0,0,1,10.64,2.38,25,25,0,0,1-10.64,47.7Z"/><path d="M26.24,35.59a23.51,23.51,0,0,1,10.14,2.27,23.83,23.83,0,1,1-10.14-2.27m0-2.4a26.26,26.26,0,1,0,11.16,2.5,26.24,26.24,0,0,0-11.16-2.5Z"/><path class="cls-9" d="M45.74,54.2A24.72,24.72,0,0,1,2.49,70.59,26.23,26.23,0,0,1,37.4,35.69,24.59,24.59,0,0,1,45.74,54.2Z"/><path d="M26.24,35.59a23.51,23.51,0,0,1,10.14,2.27,23.83,23.83,0,1,1-10.14-2.27m0-2.4a26.26,26.26,0,1,0,11.16,2.5,26.24,26.24,0,0,0-11.16-2.5Z"/><circle class="cls-10" cx="16.96" cy="50.16" r="9.72"/><path class="cls-11" d="M44.6,44.44a1.22,1.22,0,0,1-.92-.43,17.36,17.36,0,0,1-3.44-6.45,17.61,17.61,0,0,1-6.46-3.45,1.2,1.2,0,0,1,0-1.83,17.45,17.45,0,0,1,6.47-3.45,17.27,17.27,0,0,1,3.44-6.46,1.22,1.22,0,0,1,.92-.43h0a1.22,1.22,0,0,1,.92.43A17.27,17.27,0,0,1,49,28.83a17.45,17.45,0,0,1,6.47,3.45,1.2,1.2,0,0,1,0,1.83A17.61,17.61,0,0,1,49,37.56,17.36,17.36,0,0,1,45.52,44a1.22,1.22,0,0,1-.92.43Z"/><path d="M44.6,23.14A16.2,16.2,0,0,1,48,29.82a16.28,16.28,0,0,1,6.67,3.37A16.27,16.27,0,0,1,48,36.57a16.34,16.34,0,0,1-3.38,6.67,16.34,16.34,0,0,1-3.38-6.67,16.27,16.27,0,0,1-6.67-3.38,16.28,16.28,0,0,1,6.67-3.37,16.2,16.2,0,0,1,3.38-6.68m0-2.4a2.38,2.38,0,0,0-1.83.85,18.62,18.62,0,0,0-3.5,6.28A18.71,18.71,0,0,0,33,31.36,2.41,2.41,0,0,0,33,35a19,19,0,0,0,6.27,3.48,18.57,18.57,0,0,0,3.49,6.27,2.39,2.39,0,0,0,3.66,0,18.74,18.74,0,0,0,3.5-6.27A19.06,19.06,0,0,0,56.19,35a2.41,2.41,0,0,0,0-3.68,18.71,18.71,0,0,0-6.27-3.49,18.62,18.62,0,0,0-3.5-6.28,2.38,2.38,0,0,0-1.83-.85Z"/></svg>