<svg id="图层_1" data-name="图层 1" xmlns="http://www.w3.org/2000/svg" viewBox="0 0 96 96"><defs><style>.cls-1{fill:#ff9191;}.cls-2{fill:#1c1c1c;}.cls-3{fill:#ffcbcb;}.cls-4{fill:#ffb5b5;}.cls-5{fill:#df7794;}.cls-5,.cls-7{stroke:#1c1c1c;stroke-miterlimit:10;stroke-width:2.4px;}.cls-6{fill:#4c2525;}.cls-7{fill:none;}</style></defs><title>猪</title><path class="cls-1" d="M17.91,33.5a16.13,16.13,0,0,1-11.12-5A17.34,17.34,0,0,1,2.1,20.21c-.84-3.77,0-7.24,2.22-9.49A9.13,9.13,0,0,1,11,8.17a13,13,0,0,1,2.86.33,17.31,17.31,0,0,1,8.26,4.69c5.56,5.58,6.67,13.54,2.47,17.76A9.17,9.17,0,0,1,17.91,33.5Z"/><path class="cls-2" d="M11,9.37h0a11.71,11.71,0,0,1,2.59.3A16.12,16.12,0,0,1,21.23,14c5.1,5.11,6.21,12.31,2.47,16.06a8.09,8.09,0,0,1-5.79,2.2A15.14,15.14,0,0,1,7.64,27.62,16,16,0,0,1,3.27,20c-.75-3.37-.06-6.42,1.9-8.38A8,8,0,0,1,11,9.37M11,7a10.35,10.35,0,0,0-7.48,2.9C.82,12.52,0,16.46.93,20.48a18.45,18.45,0,0,0,5,8.84,17.35,17.35,0,0,0,12,5.38,10.38,10.38,0,0,0,7.49-2.91C30.08,27.1,29,18.4,22.93,12.34a18.44,18.44,0,0,0-8.85-5A14.65,14.65,0,0,0,11,7Z"/><path class="cls-3" d="M4.05,19.63A12.59,12.59,0,0,1,2,19.45a9.78,9.78,0,0,1,2.37-8.73A9.13,9.13,0,0,1,11,8.17a12.68,12.68,0,0,1,2.1.18,9.78,9.78,0,0,1-2.38,8.73A9.12,9.12,0,0,1,4.05,19.63Z"/><path class="cls-2" d="M11,9.37h0a9,9,0,0,1,1,.05,8.34,8.34,0,0,1-2.16,6.82,8.07,8.07,0,0,1-5.78,2.19,9,9,0,0,1-1-.05,8.34,8.34,0,0,1,2.15-6.81A8,8,0,0,1,11,9.37M11,7a10.35,10.35,0,0,0-7.48,2.9C.82,12.52,0,16.46.93,20.48a14.63,14.63,0,0,0,3.12.35,10.35,10.35,0,0,0,7.48-2.9c2.65-2.65,3.45-6.59,2.55-10.61A14.65,14.65,0,0,0,11,7Z"/><path class="cls-1" d="M78.08,33.5a9.13,9.13,0,0,1-6.63-2.56c-4.2-4.21-3.09-12.17,2.47-17.75A17.31,17.31,0,0,1,82.18,8.5,13,13,0,0,1,85,8.17a9.13,9.13,0,0,1,6.64,2.55c2.26,2.25,3.07,5.72,2.22,9.49a17.34,17.34,0,0,1-4.69,8.26,16.17,16.17,0,0,1-11.13,5Z"/><path class="cls-2" d="M85.05,9.37a8,8,0,0,1,5.78,2.2c2,2,2.65,5,1.9,8.38a16,16,0,0,1-4.37,7.67A15.14,15.14,0,0,1,78.09,32.3a8.09,8.09,0,0,1-5.79-2.2c-3.74-3.75-2.63-11,2.47-16.06a16.13,16.13,0,0,1,7.67-4.37,11.88,11.88,0,0,1,2.61-.3m0-2.4a14.65,14.65,0,0,0-3.13.35,18.44,18.44,0,0,0-8.85,5C67,18.4,65.92,27.1,70.6,31.79a10.38,10.38,0,0,0,7.49,2.91,17.35,17.35,0,0,0,12-5.38,18.45,18.45,0,0,0,5-8.84c.9-4,.11-8-2.54-10.61A10.35,10.35,0,0,0,85.05,7Z"/><path class="cls-3" d="M92,19.63a9.12,9.12,0,0,1-6.63-2.55,9.78,9.78,0,0,1-2.38-8.73A12.68,12.68,0,0,1,85,8.17a9.13,9.13,0,0,1,6.64,2.55,9.78,9.78,0,0,1,2.37,8.73,12.59,12.59,0,0,1-2.1.18Z"/><path class="cls-2" d="M85.05,9.37a8,8,0,0,1,5.78,2.2A8.34,8.34,0,0,1,93,18.38a9,9,0,0,1-1,.05,8.07,8.07,0,0,1-5.78-2.19A8.38,8.38,0,0,1,84,9.42a9.05,9.05,0,0,1,1-.05m0-2.4a14.65,14.65,0,0,0-3.13.35c-.9,4-.1,8,2.55,10.61A10.35,10.35,0,0,0,92,20.83a14.63,14.63,0,0,0,3.12-.35c.9-4,.11-8-2.54-10.61A10.35,10.35,0,0,0,85.05,7Z"/><path class="cls-4" d="M48,85.88a67.36,67.36,0,0,1-34.83-9.41l-.44-.27-.23-.46A59.6,59.6,0,0,1,6,48.5a60.43,60.43,0,0,1,4.66-23.34l.21-.51.47-.31A67.1,67.1,0,0,1,48,13.82,67.11,67.11,0,0,1,84.66,24.34l.47.31.22.52A61,61,0,0,1,90,48.5a59.66,59.66,0,0,1-6.48,27.27l-.23.46-.45.27A67.53,67.53,0,0,1,48,85.88Z"/><path class="cls-2" d="M48,15.62A65.66,65.66,0,0,1,83.68,25.85,59.23,59.23,0,0,1,88.17,48.5,58.24,58.24,0,0,1,81.89,75,65.9,65.9,0,0,1,48,84.08a65.73,65.73,0,0,1-33.9-9.15,58.87,58.87,0,0,1-1.76-49.08A65.65,65.65,0,0,1,48,15.62M48,12A68.91,68.91,0,0,0,10.39,22.83l-.94.61-.43,1a62.23,62.23,0,0,0-4.79,24A61.42,61.42,0,0,0,10.9,76.56l.47.92.88.53A69.15,69.15,0,0,0,48,87.68,69.31,69.31,0,0,0,83.74,78l.89-.53.47-.92A61.49,61.49,0,0,0,91.77,48.5a62.75,62.75,0,0,0-4.76-24l-.43-1-.94-.61A68.92,68.92,0,0,0,48,12Z"/><path class="cls-1" d="M88.13,48.55A58.52,58.52,0,0,1,81.89,75,67.36,67.36,0,0,1,14,75c12.17,3.26,38,8.69,56.57-.86a25.52,25.52,0,0,0,5.54-3.73c14.11-12.65,9-38,7.47-44.44A58.28,58.28,0,0,1,88.13,48.55Z"/><path class="cls-5" d="M67.05,60.27v.09A10.45,10.45,0,0,1,58.2,70.47a65.36,65.36,0,0,1-20.39,0A10.45,10.45,0,0,1,29,60.36v-.19a10.46,10.46,0,0,1,8.86-10.11,64.5,64.5,0,0,1,20.38,0,10.44,10.44,0,0,1,8.86,10.1Z"/><ellipse class="cls-6" cx="40.21" cy="60.26" rx="3.84" ry="6.31"/><path d="M40.21,54.56c1.72,0,3.23,2.66,3.23,5.7S41.93,66,40.21,66,37,63.3,37,60.26s1.51-5.7,3.24-5.7m0-1.2c-2.45,0-4.44,3.09-4.44,6.9s2,6.91,4.44,6.91,4.43-3.09,4.43-6.91-2-6.9-4.43-6.9Z"/><path class="cls-6" d="M55.79,66.57c-2.08,0-3.84-2.89-3.84-6.31S53.71,54,55.79,54s3.84,2.88,3.84,6.3S57.87,66.57,55.79,66.57Z"/><path d="M55.79,54.56c1.73,0,3.24,2.66,3.24,5.7S57.52,66,55.79,66s-3.24-2.67-3.24-5.71,1.52-5.7,3.24-5.7m0-1.2c-2.45,0-4.43,3.09-4.43,6.9s2,6.91,4.43,6.91,4.44-3.09,4.44-6.91-2-6.9-4.44-6.9Z"/><circle cx="29.33" cy="39.16" r="2.23"/><circle cx="66.67" cy="39.16" r="2.23"/><path class="cls-7" d="M67.05,60.27v.09A10.45,10.45,0,0,1,58.2,70.47a65.36,65.36,0,0,1-20.39,0A10.45,10.45,0,0,1,29,60.36v-.19a10.46,10.46,0,0,1,8.86-10.11,64.5,64.5,0,0,1,20.38,0,10.44,10.44,0,0,1,8.86,10.1Z"/></svg>