<svg xmlns="http://www.w3.org/2000/svg" viewBox="0 0 87.54 83.38"><defs><style>.cls-1{fill:#e53838;}.cls-2{fill:#1c1c1c;}.cls-3{fill:#a31a1a;}.cls-4{fill:#fff;}</style></defs><title>资源 3</title><g id="图层_2" data-name="图层 2"><g id="图层_1-2" data-name="图层 1"><path class="cls-1" d="M53.41,73.21a70.14,70.14,0,0,1-9.65.66A67.38,67.38,0,0,1,8.91,64.44l-.44-.27-.24-.46A60.76,60.76,0,0,1,6.46,13.17l.21-.51.46-.3A66.83,66.83,0,0,1,43.76,1.8,66.87,66.87,0,0,1,80.41,12.36l.46.3.21.51a59.86,59.86,0,0,1,4.66,23.32,59.94,59.94,0,0,1-6.43,27.22l-.23.46-.44.27a64.09,64.09,0,0,1-10.76,5.18L60.72,80.54Z"/><path class="cls-2" d="M43.76,3.6A65.34,65.34,0,0,1,79.43,13.87a59,59,0,0,1-1.73,49,61.23,61.23,0,0,1-11,5.23L60.43,77.7l-6.38-6.41a66.8,66.8,0,0,1-10.29.78A65.62,65.62,0,0,1,9.84,62.9a58.94,58.94,0,0,1-1.72-49A65.21,65.21,0,0,1,43.76,3.6m0-3.6A68.61,68.61,0,0,0,6.15,10.85l-.93.6-.42,1a61.63,61.63,0,0,0-4.8,24,61.71,61.71,0,0,0,6.63,28l.46.92L8,66a69.17,69.17,0,0,0,35.78,9.69,72.77,72.77,0,0,0,9-.56l5.11,5.13L61,83.38l2.43-3.71,5.61-8.58A64,64,0,0,0,79.57,66l.88-.53.47-.92a62.61,62.61,0,0,0,1.83-52l-.43-1-.93-.6A68.65,68.65,0,0,0,43.76,0Z"/><path class="cls-3" d="M83.94,36.49a58.45,58.45,0,0,1-6.24,26.4,61.27,61.27,0,0,1-11,5.24L60.43,77.7l-6.38-6.41a68.07,68.07,0,0,1-10.29.78A65.62,65.62,0,0,1,9.84,62.89c12.17,3.27,38,8.69,56.57-.85A25.28,25.28,0,0,0,72,58.31c14.11-12.65,9-38,7.47-44.45A58.33,58.33,0,0,1,83.94,36.49Z"/><path class="cls-4" d="M22.24,49.68A98.22,98.22,0,0,0,32.42,51.5V19.94a98.41,98.41,0,0,0-10.18,1.87Z"/><path class="cls-4" d="M42,19.19V30.47q3.83,0,7.65,0V52.62a97.9,97.9,0,0,0,10.1-1V30.84c2.53.13,5,.3,7.54.49V21.81A96.38,96.38,0,0,0,42,19.19Z"/></g></g></svg>