<svg xmlns="http://www.w3.org/2000/svg" viewBox="0 0 103.2 85.97"><defs><style>.cls-1{fill:#2797e2;}.cls-2{fill:#1c1c1c;}.cls-3{fill:gray;}.cls-4{fill:#2d3035;}.cls-5{fill:#232428;}.cls-6{fill:#5eb2f7;}.cls-7{fill:#c7f7ff;}</style></defs><title>资源 2</title><g id="图层_2" data-name="图层 2"><g id="图层_1-2" data-name="图层 1"><ellipse class="cls-1" cx="51.6" cy="58.73" rx="49.8" ry="25.44"/><path class="cls-2" d="M51.6,35.08c26.51,0,48,10.59,48,23.65s-21.49,23.64-48,23.64-48-10.59-48-23.64,21.49-23.65,48-23.65m0-3.6C22.67,31.48,0,43.45,0,58.73S22.67,86,51.6,86s51.6-12,51.6-27.24S80.53,31.48,51.6,31.48Z"/><polygon class="cls-3" points="4.29 53.22 9.71 1.8 93.49 1.8 98.91 53.22 4.29 53.22"/><path class="cls-2" d="M91.87,3.6l5,47.82H6.29l5-47.82H91.87M95.11,0h-87L7.75,3.22,2.71,51l-.42,4h98.62l-.42-4-5-47.82L95.11,0Z"/><polygon class="cls-4" points="36.77 25.42 15.22 25.42 16.9 11.47 36.77 11.47 36.77 25.42"/><polygon class="cls-5" points="36.77 14.98 16.48 14.98 16.9 11.47 36.77 11.47 36.77 14.98"/><rect class="cls-1" x="17.13" y="21.13" width="17.73" height="30.29"/><rect class="cls-6" x="17.13" y="31.44" width="17.73" height="3.49"/><rect class="cls-4" x="40.83" y="11.47" width="21.55" height="13.96"/><rect class="cls-5" x="40.83" y="11.47" width="21.55" height="3.51"/><rect class="cls-1" x="42.73" y="21.13" width="17.73" height="30.29"/><rect class="cls-6" x="42.73" y="31.44" width="17.73" height="3.49"/><polygon class="cls-4" points="89.66 25.42 66.43 25.42 66.43 11.47 87.98 11.47 89.66 25.42"/><polygon class="cls-5" points="88.4 14.98 66.43 14.98 66.43 11.47 87.98 11.47 88.4 14.98"/><rect class="cls-1" x="68.34" y="21.13" width="17.73" height="30.29"/><rect class="cls-6" x="68.34" y="31.44" width="17.73" height="3.49"/><path class="cls-7" d="M16.84,41.65a2.07,2.07,0,1,0-2.07-2.06A2.06,2.06,0,0,0,16.84,41.65Z"/><path class="cls-7" d="M60.14,45.41a2.07,2.07,0,1,0-2.07-2.07A2.07,2.07,0,0,0,60.14,45.41Z"/><path class="cls-7" d="M65.19,51.61a3.61,3.61,0,0,0,.28-1.4,3.7,3.7,0,0,0-3.7-3.7A3.66,3.66,0,0,0,58.84,48l-.33,0a3.69,3.69,0,0,0-7.16-1.27l-.05,0a4.58,4.58,0,0,0-2.41,0,4.58,4.58,0,0,0-5.78-4.21h0a4.6,4.6,0,0,0-4.4,1.18,4.6,4.6,0,0,0-7.57.51,4.53,4.53,0,0,0-2.62-.82,4.58,4.58,0,0,0-3.76,2A4.48,4.48,0,0,0,23.06,45a4.59,4.59,0,0,0-3.55,1.66,4.66,4.66,0,0,0-1.06-.13,4.61,4.61,0,1,0,2.13,8.7,3,3,0,0,0,0,.52,3.6,3.6,0,0,0,6.57,2.05,3,3,0,0,0,6-.15,4.46,4.46,0,0,0,.63,0,4.59,4.59,0,0,0,2.19-.55,3.69,3.69,0,0,0,6.57-2.31v0l.09,0a3,3,0,0,0,2.09,2.13s0,.07,0,.11a3.69,3.69,0,0,0,7.19,1.17,4.61,4.61,0,0,0,4,.35,3.68,3.68,0,0,0,6.51-.28,3.7,3.7,0,1,0,2.88-6.62Z"/><circle class="cls-7" cx="77.3" cy="40.79" r="1.58"/><circle class="cls-7" cx="85.11" cy="42.39" r="1.4"/><path class="cls-7" d="M87.3,49.51a3.49,3.49,0,0,0-4.14.17,2.29,2.29,0,0,0-2-1.54,3.44,3.44,0,0,0-1.49-2.43,3.51,3.51,0,0,0-4.87.93,4.63,4.63,0,0,0-.29.54,3.42,3.42,0,0,0-4.22-.12,3.5,3.5,0,1,0-4.54,3.83,3.46,3.46,0,0,0-1.07,2.51,3.5,3.5,0,0,0,3.5,3.51,3.86,3.86,0,0,0,.77-.09,3.49,3.49,0,0,0,6.85-.53,3.48,3.48,0,0,0,3.07-.56,2.33,2.33,0,0,0,4,.32,2.41,2.41,0,0,0,.35-.83.87.87,0,0,0,.11.09,3.51,3.51,0,0,0,3.94-5.8Z"/><circle class="cls-7" cx="83.38" cy="49.87" r="3.41"/><circle class="cls-7" cx="87.98" cy="50.72" r="2.27"/><circle class="cls-7" cx="13.36" cy="48.73" r="2.27"/><circle class="cls-7" cx="18.9" cy="55.92" r="2.27"/><circle class="cls-7" cx="49.77" cy="46.46" r="2.27"/></g></g></svg>