<svg id="图层_1" data-name="图层 1" xmlns="http://www.w3.org/2000/svg" xmlns:xlink="http://www.w3.org/1999/xlink" viewBox="0 0 96 96"><defs><style>.cls-1,.cls-2{fill:none;}.cls-1{clip-rule:evenodd;}.cls-3{clip-path:url(#clip-path);}.cls-4{fill:#fc5;}.cls-5{clip-path:url(#clip-path-2);}.cls-6{clip-path:url(#clip-path-3);}.cls-7{fill:#1c1c1c;}.cls-8{clip-path:url(#clip-path-4);}.cls-9{fill:#f95;}.cls-10{clip-path:url(#clip-path-5);}.cls-11{clip-path:url(#clip-path-6);}.cls-12{clip-path:url(#clip-path-7);}.cls-13{clip-path:url(#clip-path-8);}.cls-14{clip-path:url(#clip-path-9);}.cls-15{clip-path:url(#clip-path-10);}.cls-16{clip-path:url(#clip-path-11);}.cls-17{fill:#ee2d2c;}</style><clipPath id="clip-path"><path class="cls-1" d="M49.17,88.57a25.35,25.35,0,0,1-8.55-1.49c-8-2.84-14.39-8.85-19-17.86C17.36,61,6.84,39.13,6.73,38.91a8.95,8.95,0,1,1,16.14-7.73l5.36,11.29a28.07,28.07,0,0,1,21.4-9.81A28.87,28.87,0,0,1,70.1,41.22c.76-1.85,1.53-3.42,2.27-5a65.69,65.69,0,0,0,3.22-7.47A7.83,7.83,0,0,1,83,23.32a6.91,6.91,0,0,1,2.89.62,7.76,7.76,0,0,1,3.6,10.15C87.26,40.37,85,46,82.74,51.47s-4.49,11-6.72,17.32a27.14,27.14,0,0,1-1.8,4c-5.2,9.56-15,15.74-25,15.74"/></clipPath><clipPath id="clip-path-2"><path class="cls-1" d="M83,27.19a5.1,5.1,0,0,1,2.13.45,5.86,5.86,0,0,1,2.67,7.69c-4.51,12.73-9,22.1-13.51,34.83a24.15,24.15,0,0,1-1.68,3.77c-4.76,8.74-13.73,14.78-23.43,14.78a23.6,23.6,0,0,1-7.92-1.38c-8.53-3-14.19-9.56-18-17C19,62.06,8.4,40.1,8.4,40.1A7.09,7.09,0,1,1,21.2,34l6.66,14A26.24,26.24,0,0,1,49.63,36.53,27,27,0,0,1,70.74,46.75c2.2-6.24,4.4-9.11,6.6-15.34A6,6,0,0,1,83,27.19m0-3.73a9.72,9.72,0,0,0-9.18,6.85,68.71,68.71,0,0,1-3.1,7.14c-.41.85-.83,1.71-1.25,2.63A30.82,30.82,0,0,0,49.63,32.8a29.93,29.93,0,0,0-20.89,8.41l-4.19-8.83A10.81,10.81,0,1,0,5.05,41.7c.11.24,10.64,22.12,14.89,30.38C24.8,81.52,31.55,87.83,40,90.84a27.22,27.22,0,0,0,9.16,1.6c10.69,0,21.16-6.56,26.69-16.72a28.58,28.58,0,0,0,1.92-4.31c2.22-6.28,4.49-11.86,6.69-17.25S89,43.1,91.23,36.7a9.64,9.64,0,0,0-4.59-12.46A8.81,8.81,0,0,0,83,23.46"/></clipPath><clipPath id="clip-path-3"><rect class="cls-2" x="4" y="23.46" width="88" height="68.97"/></clipPath><clipPath id="clip-path-4"><path class="cls-1" d="M88,34.73c-4.57,12.93-9.15,22.5-13.73,35.43a24.15,24.15,0,0,1-1.68,3.77c-6,11.09-18.87,17.84-31.35,13.4-8.17-2.91-16-10.27-18.44-17.84,3.08,4.8,9.69,9.59,15.51,11.66a26.33,26.33,0,0,0,32-12A23.57,23.57,0,0,0,72,65.44c4.76-13.47,9.52-23.56,14.28-37A6,6,0,0,1,88,30.82a6.12,6.12,0,0,1,0,3.91"/></clipPath><clipPath id="clip-path-5"><path class="cls-1" d="M35.91,61.69a8.32,8.32,0,0,1-8.29-7.51L26.46,42.85a8.37,8.37,0,0,1,7.44-9.17,8.94,8.94,0,0,1,1,0,8.3,8.3,0,0,1,8.28,7.5L44.3,52.46a8.37,8.37,0,0,1-7.44,9.17,9.09,9.09,0,0,1-1,.06"/></clipPath><clipPath id="clip-path-6"><path class="cls-1" d="M34.86,36.49a6.48,6.48,0,0,1,6.43,5.84l1.16,11.32a6.49,6.49,0,0,1-5.78,7.13h-.1c-.23,0-.45,0-.67,0A6.48,6.48,0,0,1,29.47,55L28.31,43.66a6.49,6.49,0,0,1,5.78-7.13h.1c.22,0,.45,0,.67,0m0-3.73h0a9.37,9.37,0,0,0-1,.06A10.22,10.22,0,0,0,24.61,44l1.16,11.33A10.18,10.18,0,0,0,35.9,64.55a9.23,9.23,0,0,0,1.05,0,10.26,10.26,0,0,0,9.2-11.23L45,42a10.18,10.18,0,0,0-10.13-9.19"/></clipPath><clipPath id="clip-path-7"><path class="cls-1" d="M49.36,62.61a8.78,8.78,0,0,1-8.75-8.78V41.44a8.88,8.88,0,0,1,17.76,0V53.83a8.78,8.78,0,0,1-8.76,8.78Z"/></clipPath><clipPath id="clip-path-8"><path class="cls-1" d="M49.61,32.51a6.91,6.91,0,0,1,6.9,6.92V51.82a6.91,6.91,0,0,1-6.9,6.93h-.25a6.91,6.91,0,0,1-6.9-6.93V39.43a6.91,6.91,0,0,1,6.9-6.92h.25m0-3.72h-.25A10.64,10.64,0,0,0,38.75,39.43V51.82A10.65,10.65,0,0,0,49.36,62.48h.25A10.65,10.65,0,0,0,60.22,51.82V39.43A10.64,10.64,0,0,0,49.61,28.79"/></clipPath><clipPath id="clip-path-9"><path class="cls-1" d="M60,63.75a7.81,7.81,0,0,1-3-.6,8,8,0,0,1-4.46-10.47l4.62-11.35a8,8,0,0,1,7.38-5,7.82,7.82,0,0,1,3,.6,8,8,0,0,1,4.46,10.47L67.43,58.78a8,8,0,0,1-7.39,5"/></clipPath><clipPath id="clip-path-10"><path class="cls-1" d="M64.58,36.22a6.1,6.1,0,0,1,2.31.46l.1,0a6.15,6.15,0,0,1,3.34,8L65.71,56.07a6.1,6.1,0,0,1-8,3.36l-.09,0a6.15,6.15,0,0,1-3.35-8L58.91,40a6.13,6.13,0,0,1,5.67-3.82m0-3.73a9.8,9.8,0,0,0-9.1,6.14L50.85,50a9.89,9.89,0,0,0,18.29,7.51l4.63-11.34a10,10,0,0,0-9.19-13.65"/></clipPath><clipPath id="clip-path-11"><path class="cls-2" d="M63.43,22.55c-1.7,0-3.08-1.43-3.46-5.16a4,4,0,0,1,3.33-2.16c1.76,0,2.89,1.14,2.89,3.57S65,22.55,63.43,22.55Zm.09,3.07C67,25.62,69.9,23,69.9,18.8c0-4.4-2.42-6.44-5.83-6.44a5.94,5.94,0,0,0-4.19,2.18c.17-5.11,2.1-6.88,4.43-6.88a4.4,4.4,0,0,1,3.14,1.5L69.6,6.73a7.51,7.51,0,0,0-5.53-2.32c-4.1,0-7.87,3.25-7.87,10.88C56.2,22.5,59.64,25.62,63.52,25.62ZM47.23,22.55c-1.71,0-3.09-1.43-3.47-5.16a4,4,0,0,1,3.33-2.16c1.76,0,2.89,1.14,2.89,3.57S48.74,22.55,47.23,22.55Zm.08,3.07c3.47,0,6.38-2.63,6.38-6.82,0-4.4-2.42-6.44-5.83-6.44a5.92,5.92,0,0,0-4.18,2.18c.16-5.11,2.09-6.88,4.43-6.88a4.4,4.4,0,0,1,3.13,1.5l2.15-2.43a7.49,7.49,0,0,0-5.53-2.32C43.76,4.41,40,7.66,40,15.29,40,22.5,43.43,25.62,47.31,25.62ZM31,22.55c-1.71,0-3.08-1.43-3.47-5.16a4,4,0,0,1,3.33-2.16c1.76,0,2.89,1.14,2.89,3.57S32.53,22.55,31,22.55Zm.08,3.07c3.47,0,6.38-2.63,6.38-6.82,0-4.4-2.42-6.44-5.83-6.44a5.92,5.92,0,0,0-4.18,2.18c.16-5.11,2.09-6.88,4.43-6.88A4.4,4.4,0,0,1,35,9.16l2.15-2.43a7.49,7.49,0,0,0-5.53-2.32c-4.1,0-7.87,3.25-7.87,10.88C23.78,22.5,27.22,25.62,31.1,25.62Z"/></clipPath></defs><title>rm_e_yinxianxiao</title><g class="cls-3"><rect class="cls-4" x="4.57" y="22.32" width="87.61" height="67.25"/></g><g class="cls-5"><g class="cls-6"><rect class="cls-7" x="3" y="22.46" width="90" height="70.97"/></g></g><g class="cls-8"><rect class="cls-9" x="21.8" y="27.41" width="67.81" height="65.35"/></g><g class="cls-10"><rect class="cls-4" x="25" y="32.63" width="20.78" height="30.06"/></g><g class="cls-11"><rect class="cls-7" x="23.34" y="31.76" width="24.38" height="33.79"/></g><g class="cls-12"><rect class="cls-4" x="39.61" y="31.65" width="19.76" height="31.96"/></g><g class="cls-13"><rect class="cls-7" x="37.75" y="27.79" width="23.47" height="35.69"/></g><g class="cls-14"><rect class="cls-4" x="49.91" y="35.36" width="24.8" height="29.4"/></g><g class="cls-15"><rect class="cls-7" x="48.86" y="31.49" width="26.9" height="33.12"/></g><g class="cls-16"><rect class="cls-17" x="23" y="3.62" width="47.68" height="22.78"/></g></svg>