<svg id="图层_1" data-name="图层 1" xmlns="http://www.w3.org/2000/svg" xmlns:xlink="http://www.w3.org/1999/xlink" viewBox="0 0 96 96"><defs><style>.cls-1,.cls-2{fill:none;}.cls-1{clip-rule:evenodd;}.cls-3{clip-path:url(#clip-path);}.cls-4{fill:#ffcb55;}.cls-5{clip-path:url(#clip-path-2);}.cls-6{clip-path:url(#clip-path-3);}.cls-7{fill:#1c1c1c;}.cls-8{clip-path:url(#clip-path-4);}.cls-9{fill:#ff9855;}.cls-10{fill:#fff;}.cls-11{clip-path:url(#clip-path-5);}.cls-12{clip-path:url(#clip-path-6);}.cls-13{clip-path:url(#clip-path-7);}.cls-14{clip-path:url(#clip-path-8);}.cls-15{clip-path:url(#clip-path-9);}.cls-16{clip-path:url(#clip-path-10);}</style><clipPath id="clip-path"><path class="cls-1" d="M57.19,75.93a61.4,61.4,0,0,1-8.5.59A59,59,0,0,1,18,68.16l-.39-.24-.2-.41a54.15,54.15,0,0,1-1.57-44.79l.19-.45.41-.27a58.55,58.55,0,0,1,32.24-9.35A58.6,58.6,0,0,1,81,22l.4.27.2.45A54.15,54.15,0,0,1,80,67.51l-.2.41-.39.23a56.14,56.14,0,0,1-9.47,4.6l-6.3,9.68Z"/></clipPath><clipPath id="clip-path-2"><path class="cls-1" d="M48.69,14.24a57.26,57.26,0,0,1,31.4,9.1,52.51,52.51,0,0,1-1.52,43.45,53.31,53.31,0,0,1-9.68,4.64l-5.52,8.48-5.62-5.68a58.43,58.43,0,0,1-9.06.7,57.53,57.53,0,0,1-29.86-8.14,52.61,52.61,0,0,1-1.52-43.45,57.25,57.25,0,0,1,31.38-9.1m0-3.19a60.08,60.08,0,0,0-33.11,9.62l-.81.53-.38.91A55.8,55.8,0,0,0,16,68.23l.41.81.78.48a60.61,60.61,0,0,0,31.5,8.59,61.56,61.56,0,0,0,7.94-.5l4.5,4.55L63.89,85,66,81.66,71,74.05a56.73,56.73,0,0,0,9.25-4.53L81,69l.41-.81A55.8,55.8,0,0,0,83,22.11l-.38-.91-.82-.53a60.05,60.05,0,0,0-33.13-9.62"/></clipPath><clipPath id="clip-path-3"><rect class="cls-2" x="10.17" y="11.05" width="77.07" height="73.89"/></clipPath><clipPath id="clip-path-4"><path class="cls-1" d="M84.07,43.39a52.15,52.15,0,0,1-5.49,23.4,54.41,54.41,0,0,1-9.69,4.64l-5.52,8.48-5.62-5.68a59.66,59.66,0,0,1-9,.69,57.51,57.51,0,0,1-29.87-8.13c10.72,2.89,33.48,7.7,49.8-.76a22.37,22.37,0,0,0,4.88-3.31C85.94,51.51,81.39,29,80.09,23.34a52,52,0,0,1,4,20.05"/></clipPath><clipPath id="clip-path-5"><path class="cls-1" d="M34.24,45.94a10.06,10.06,0,0,1-7.16-3,10.24,10.24,0,0,1,0-14.41,10.07,10.07,0,0,1,14.32,0A10.24,10.24,0,0,1,41.4,43a10.06,10.06,0,0,1-7.16,3"/></clipPath><clipPath id="clip-path-6"><path class="cls-1" d="M34.24,26.61a9,9,0,0,1,6.41,2.68,9.17,9.17,0,0,1,0,12.91,9,9,0,0,1-12.82,0,9.16,9.16,0,0,1,0-12.91,8.94,8.94,0,0,1,6.41-2.68m0-2.12a11.08,11.08,0,0,0-7.91,3.3,11.31,11.31,0,0,0,0,15.91,11.12,11.12,0,0,0,15.81,0,11.29,11.29,0,0,0,0-15.91,11,11,0,0,0-7.9-3.3"/></clipPath><clipPath id="clip-path-7"><path class="cls-1" d="M22.4,40A9.14,9.14,0,0,0,25,45.08a9,9,0,0,0,6.42,2.67h.38v2.13h-.38a11.09,11.09,0,0,1-7.91-3.3A11.24,11.24,0,0,1,20.27,40Z"/></clipPath><clipPath id="clip-path-8"><path class="cls-1" d="M75.43,40a9.08,9.08,0,0,1-9,7.8h-.38v2.13h.39A11.2,11.2,0,0,0,77.56,40Z"/></clipPath><clipPath id="clip-path-9"><path class="cls-1" d="M62.83,45.94a10.06,10.06,0,0,1-7.16-3,10.24,10.24,0,0,1,0-14.41,10.07,10.07,0,0,1,14.32,0A10.24,10.24,0,0,1,70,43a10.06,10.06,0,0,1-7.16,3"/></clipPath><clipPath id="clip-path-10"><path class="cls-1" d="M62.83,26.61a8.94,8.94,0,0,1,6.41,2.68,9.17,9.17,0,0,1,0,12.91,9,9,0,0,1-12.82,0,9.17,9.17,0,0,1,0-12.91,9,9,0,0,1,6.41-2.68m0-2.12a11.08,11.08,0,0,0-7.91,3.3,11.31,11.31,0,0,0,0,15.91,11.13,11.13,0,0,0,15.82,0,11.31,11.31,0,0,0,0-15.91,11.08,11.08,0,0,0-7.91-3.3"/></clipPath></defs><title>rm_e_yinxianxiao</title><g class="cls-3"><rect class="cls-4" x="10.87" y="11.77" width="75.66" height="71.54"/></g><g class="cls-5"><g class="cls-6"><rect class="cls-7" x="9.29" y="10.17" width="78.83" height="75.65"/></g></g><g class="cls-8"><rect class="cls-9" x="17.95" y="22.46" width="68.87" height="58.33"/></g><path class="cls-7" d="M5.16,29.64a1.71,1.71,0,0,1-.83-.21,5.25,5.25,0,0,1-2.83-3.6,5.17,5.17,0,0,1,1.06-4.15,12.54,12.54,0,0,1,.88-.95c1.34-1.35,2.31-2.32.52-5.68a1.72,1.72,0,0,1,.71-2.33,1.76,1.76,0,0,1,.81-.2A1.73,1.73,0,0,1,7,13.43c3,5.61.41,8.19-1.12,9.73a7.83,7.83,0,0,0-.65.69,1.74,1.74,0,0,0-.35,1.32A1.94,1.94,0,0,0,6,26.41a1.72,1.72,0,0,1-.83,3.23Z"/><path class="cls-10" d="M5.48,13a1.2,1.2,0,0,1,1.07.65c2.82,5.28.5,7.6-1,9.14a7.56,7.56,0,0,0-.68.73,2.22,2.22,0,0,0-.45,1.73,2.44,2.44,0,0,0,1.36,1.58,1.22,1.22,0,0,1-.59,2.29A1.26,1.26,0,0,1,4.57,29,4.75,4.75,0,0,1,2,25.73a4.7,4.7,0,0,1,1-3.73c.25-.3.54-.6.85-.92,1.38-1.38,2.58-2.58.61-6.26a1.23,1.23,0,0,1,.5-1.66A1.34,1.34,0,0,1,5.48,13m0-1h0a2.3,2.3,0,0,0-1.05.26,2.22,2.22,0,0,0-.91,3c1.62,3,.89,3.76-.43,5.09a11.91,11.91,0,0,0-.92,1,5.51,5.51,0,0,0,1.92,8.5,2.21,2.21,0,0,0,3-.87,2.22,2.22,0,0,0-.87-3c-.36-.2-.8-.51-.87-.9a1.28,1.28,0,0,1,.24-.91,8.23,8.23,0,0,1,.59-.63C7.76,22,10.6,19.13,7.44,13.2a2.22,2.22,0,0,0-2-1.18Z"/><path class="cls-7" d="M8,40.13a1.73,1.73,0,0,1-.83-.21,5,5,0,0,1-1.77-7.75,12.48,12.48,0,0,1,.88-.94c1.34-1.35,2.32-2.32.52-5.69a1.73,1.73,0,0,1,.71-2.33,1.76,1.76,0,0,1,.81-.2,1.72,1.72,0,0,1,1.52.91c3,5.62.41,8.2-1.13,9.74-.27.27-.47.47-.65.69a1.77,1.77,0,0,0-.34,1.31A2,2,0,0,0,8.79,36.9,1.72,1.72,0,0,1,8,40.13Z"/><path class="cls-10" d="M8.27,23.51a1.23,1.23,0,0,1,1.08.65c2.81,5.28.5,7.61-1,9.14a8.94,8.94,0,0,0-.68.73,2.22,2.22,0,0,0-.45,1.73,2.43,2.43,0,0,0,1.37,1.58A1.22,1.22,0,0,1,8,39.63a1.19,1.19,0,0,1-.58-.15,4.77,4.77,0,0,1-2.59-3.26,4.7,4.7,0,0,1,1-3.73c.25-.3.55-.6.85-.91C8,30.19,9.16,29,7.19,25.31a1.23,1.23,0,0,1,.51-1.66,1.3,1.3,0,0,1,.57-.14m0-1h0a2.22,2.22,0,0,0-2,3.27c1.62,3,.89,3.77-.43,5.09a12.64,12.64,0,0,0-.92,1,5.5,5.5,0,0,0,1.92,8.49A2.22,2.22,0,1,0,9,36.47c-.35-.2-.79-.51-.87-.9a1.33,1.33,0,0,1,.24-.91c.15-.18.35-.38.56-.59L9,34c1.53-1.53,4.38-4.38,1.21-10.32a2.22,2.22,0,0,0-2-1.18Z"/><path class="cls-7" d="M88.11,23.14c-2.93,0-4.69-2.57-5.12-4.18-.08-.31-.13-.62-.19-1-.22-1.26-.42-2.45-3.25-4.11a1.72,1.72,0,0,1,1.73-3c4.22,2.47,4.64,4.9,4.91,6.5,0,.28.08.48.13.67s.67,1.61,1.8,1.61a1.72,1.72,0,0,1,1.72,1.73,1.72,1.72,0,0,1-1.72,1.71Z"/><path class="cls-10" d="M80.42,11.19a1.21,1.21,0,0,1,.61.16c4,2.36,4.39,4.56,4.67,6.16,0,.24.08.48.14.7.1.39.83,2,2.28,2a1.22,1.22,0,1,1,0,2.44h0a5.11,5.11,0,0,1-4.63-3.81c-.08-.29-.13-.59-.19-.91-.22-1.32-.46-2.68-3.49-4.46a1.22,1.22,0,0,1,.62-2.27m0-1h0a2.22,2.22,0,0,0-1.13,4.13c2.64,1.55,2.81,2.58,3,3.77,0,.31.11.65.2,1,.46,1.76,2.39,4.55,5.6,4.56a2.22,2.22,0,0,0,0-4.44c-.79,0-1.28-1.08-1.33-1.25s-.07-.35-.11-.54v-.07c-.29-1.7-.72-4.26-5.14-6.85a2.21,2.21,0,0,0-1.12-.3Z"/><path class="cls-7" d="M89,72.15a1.74,1.74,0,0,1-1-.29,1.73,1.73,0,0,1-.46-2.39c2.7-4,3.89-7.43,3.54-10.23A1.74,1.74,0,0,1,91.43,58a1.67,1.67,0,0,1,1.15-.65l.21,0a1.73,1.73,0,0,1,1.71,1.51c.45,3.65-.93,7.89-4.11,12.59A1.72,1.72,0,0,1,89,72.15Z"/><path class="cls-10" d="M92.79,57.8A1.23,1.23,0,0,1,94,58.87c.44,3.53-.91,7.65-4,12.25a1.23,1.23,0,0,1-1.7.32A1.22,1.22,0,0,1,88,69.75c2.77-4.1,4-7.65,3.63-10.58a1.23,1.23,0,0,1,1.06-1.36h.15m0-1-.28,0a2.18,2.18,0,0,0-1.47.84,2.24,2.24,0,0,0-.45,1.64c.33,2.67-.83,6-3.46,9.89a2.13,2.13,0,0,0-.34,1.66,2.22,2.22,0,0,0,4,.83c3.25-4.81,4.66-9.16,4.19-12.93a2.22,2.22,0,0,0-2.2-2Z"/><path class="cls-7" d="M87.6,66a1.83,1.83,0,0,1-.86-.22,1.73,1.73,0,0,1-.64-2.35,10.42,10.42,0,0,0,1.48-7,1.73,1.73,0,0,1,.31-1.28A1.75,1.75,0,0,1,89,54.37l.28,0A1.74,1.74,0,0,1,91,55.8a13.93,13.93,0,0,1-1.89,9.29A1.73,1.73,0,0,1,87.6,66Z"/><path class="cls-10" d="M89.29,54.85a1.23,1.23,0,0,1,1.2,1,13.52,13.52,0,0,1-1.83,9,1.23,1.23,0,0,1-1.06.61,1.21,1.21,0,0,1-1.06-1.82,11,11,0,0,0,1.54-7.36,1.22,1.22,0,0,1,1-1.4l.2,0m0-1-.37,0a2.17,2.17,0,0,0-1.43.89,2.21,2.21,0,0,0-.4,1.65,10,10,0,0,1-1.42,6.71,2.22,2.22,0,0,0,.82,3,2.27,2.27,0,0,0,1.11.29,2.21,2.21,0,0,0,1.92-1.11,14.46,14.46,0,0,0,2-9.61,2.24,2.24,0,0,0-2.19-1.88Z"/><path class="cls-7" d="M92.53,28.76a1.81,1.81,0,0,1-.69-.14,4.7,4.7,0,0,1-2.54-5.54c.07-.26.17-.54.28-.83.39-1,.7-1.86-.8-4a1.73,1.73,0,0,1,1.41-2.71,1.73,1.73,0,0,1,1.41.74c2.54,3.61,1.7,5.84,1.2,7.17a4.52,4.52,0,0,0-.19.54s-.21,1.11.61,1.46a1.72,1.72,0,0,1-.69,3.3Z"/><path class="cls-10" d="M90.19,16.05a1.25,1.25,0,0,1,1,.52c2.38,3.4,1.64,5.4,1.14,6.71-.07.2-.15.39-.2.58A1.83,1.83,0,0,0,93,25.92a1.22,1.22,0,0,1-1,2.24,4.2,4.2,0,0,1-2.26-4.94,6.72,6.72,0,0,1,.27-.79c.4-1.09.79-2.11-.86-4.45a1.23,1.23,0,0,1,1-1.93m0-1a2.2,2.2,0,0,0-1.27.4A2.28,2.28,0,0,0,88,16.89a2.22,2.22,0,0,0,.37,1.66c1.35,1.91,1.1,2.55.74,3.52-.11.3-.22.59-.3.88a5.2,5.2,0,0,0,2.83,6.12,2.09,2.09,0,0,0,.89.19,2.23,2.23,0,0,0,2.07-3A2.26,2.26,0,0,0,93.42,25c-.44-.18-.33-.88-.32-.88s.09-.27.14-.42l0-.06C93.8,22.21,94.7,19.83,92,16a2.25,2.25,0,0,0-1.82-.95Z"/><path class="cls-7" d="M11.75,68.79a1.7,1.7,0,0,1-1-.36c-.22-.16-5.35-4.16-4.54-12.94a1.71,1.71,0,0,1,1.69-1.57h.19A1.72,1.72,0,0,1,9.59,55.8c-.62,6.82,3.06,9.78,3.22,9.91a1.72,1.72,0,0,1-1.06,3.08Z"/><path class="cls-10" d="M7.86,54.42H8A1.23,1.23,0,0,1,9.1,55.76C8.45,62.84,12.33,66,12.5,66.1a1.22,1.22,0,0,1,.22,1.71,1.24,1.24,0,0,1-1,.48A1.2,1.2,0,0,1,11,68c-.21-.16-5.12-4-4.34-12.5a1.21,1.21,0,0,1,1.19-1.12m0-1h0a2.21,2.21,0,0,0-2.19,2c-.83,9.06,4.51,13.22,4.74,13.39a2.18,2.18,0,0,0,1.34.46,2.23,2.23,0,0,0,1.37-4c-.15-.11-3.63-2.92-3-9.46a2.16,2.16,0,0,0-.5-1.62,2.19,2.19,0,0,0-1.51-.79l-.22,0Z"/><g class="cls-11"><rect class="cls-10" x="22.25" y="24.67" width="23.97" height="22.14"/></g><g class="cls-12"><rect class="cls-7" x="21.09" y="23.61" width="26.3" height="24.27"/></g><g class="cls-13"><rect class="cls-7" x="19.39" y="39.07" width="13.25" height="11.68"/></g><g class="cls-14"><rect class="cls-7" x="65.2" y="39.07" width="13.25" height="11.68"/></g><g class="cls-15"><rect class="cls-10" x="50.84" y="24.67" width="23.97" height="22.14"/></g><g class="cls-16"><rect class="cls-7" x="49.68" y="23.61" width="26.3" height="24.27"/></g></svg>