<svg id="图层_1" data-name="图层 1" xmlns="http://www.w3.org/2000/svg" xmlns:xlink="http://www.w3.org/1999/xlink" viewBox="0 0 96 96"><defs><style>.cls-1,.cls-12,.cls-2,.cls-23{fill:none;}.cls-1{clip-rule:evenodd;}.cls-3{clip-path:url(#clip-path);}.cls-4{fill:#ffcb55;}.cls-5{clip-path:url(#clip-path-2);}.cls-6{clip-path:url(#clip-path-3);}.cls-7{fill:#1c1c1c;}.cls-8{clip-path:url(#clip-path-4);}.cls-9{fill:#ff9855;}.cls-10{clip-path:url(#clip-path-5);}.cls-11{clip-path:url(#clip-path-6);}.cls-12{stroke:#1c1c1c;stroke-width:3.6px;}.cls-12,.cls-23{stroke-linecap:round;stroke-linejoin:round;}.cls-13{clip-path:url(#clip-path-7);}.cls-14{clip-path:url(#clip-path-8);}.cls-15{fill:#fff;}.cls-16{clip-path:url(#clip-path-9);}.cls-17{clip-path:url(#clip-path-10);}.cls-18{clip-path:url(#clip-path-11);}.cls-19{clip-path:url(#clip-path-12);}.cls-20{clip-path:url(#clip-path-13);}.cls-21{clip-path:url(#clip-path-14);}.cls-22{clip-path:url(#clip-path-15);}.cls-23{stroke:#000;stroke-width:2.4px;}</style><clipPath id="clip-path"><path class="cls-1" d="M57.64,82.52a70.14,70.14,0,0,1-9.65.66,67.38,67.38,0,0,1-34.85-9.43l-.44-.27L12.46,73a60.74,60.74,0,0,1-1.77-50.53L10.9,22l.46-.3A66.83,66.83,0,0,1,48,11.11,66.84,66.84,0,0,1,84.64,21.67l.46.3.21.51A60.74,60.74,0,0,1,83.54,73l-.23.46-.44.27a62.58,62.58,0,0,1-10.76,5.18L65,89.85Z"/></clipPath><clipPath id="clip-path-2"><path class="cls-1" d="M48,12.91A65.36,65.36,0,0,1,83.65,23.17a58.94,58.94,0,0,1-1.72,49,61.5,61.5,0,0,1-11,5.24L64.66,87,58.28,80.6A66.8,66.8,0,0,1,48,81.38,65.53,65.53,0,0,1,14.07,72.2a58.94,58.94,0,0,1-1.72-49A65.29,65.29,0,0,1,48,12.91m0-3.6A68.61,68.61,0,0,0,10.38,20.16l-.93.6-.42,1a62.54,62.54,0,0,0,1.83,52.05l.46.92.89.54A69.17,69.17,0,0,0,48,85a72.77,72.77,0,0,0,9-.56l5.11,5.13,3.14,3.14L67.68,89l5.61-8.58A64,64,0,0,0,83.8,75.28l.88-.53.46-.92a62.54,62.54,0,0,0,1.83-52l-.42-1-.93-.6A68.65,68.65,0,0,0,48,9.31"/></clipPath><clipPath id="clip-path-3"><rect class="cls-2" x="4.23" y="9.31" width="87.54" height="83.38"/></clipPath><clipPath id="clip-path-4"><path class="cls-1" d="M88.17,45.8a58.48,58.48,0,0,1-6.24,26.4,61.27,61.27,0,0,1-11,5.24L64.66,87,58.28,80.6A68.07,68.07,0,0,1,48,81.38,65.62,65.62,0,0,1,14.07,72.2c12.17,3.27,38,8.69,56.57-.86a25.28,25.28,0,0,0,5.54-3.72c14.11-12.66,8.95-38,7.47-44.45A58.33,58.33,0,0,1,88.17,45.8"/></clipPath><clipPath id="clip-path-5"><path class="cls-1" d="M26.17,64.24A40.16,40.16,0,0,0,38.8,67.53a37.43,37.43,0,0,0,12.84-1.1,39.13,39.13,0,0,0,11.62-5.26,43.78,43.78,0,0,0,9.47-8.42v0a1.8,1.8,0,1,1,2.76,2.32l-.08.09a46.75,46.75,0,0,1-10.75,8.34A41.15,41.15,0,0,1,52,68.18a38.59,38.59,0,0,1-13.34.24,40.63,40.63,0,0,1-12.52-4.18"/></clipPath><clipPath id="clip-path-6"><path class="cls-1" d="M40.73,67.08c.07,2.35.15,4.7.22,7a46.14,46.14,0,0,1-21.52-1.87c-.66.14-3.67.85-4.88,3.37-1.48,3.11.9,6.65,1.26,7.19,4.35,6.49,16.34,6.81,24.56,4.32A30,30,0,0,0,48,83.54q-.09-8.92-.17-17.87A3.46,3.46,0,0,0,46,62.58a2.72,2.72,0,0,0-1.18-.31c-1.92-.07-4,1.9-4.13,4.81"/></clipPath><clipPath id="clip-path-7"><path class="cls-1" d="M69.86,78.18A9.87,9.87,0,1,1,60,68.31a9.87,9.87,0,0,1,9.87,9.87"/></clipPath><clipPath id="clip-path-8"><path class="cls-1" d="M64.28,49.27A13.46,13.46,0,0,1,50.88,37h26.8a13.47,13.47,0,0,1-13.4,12.25"/></clipPath><clipPath id="clip-path-9"><path class="cls-1" d="M76.3,38.22a12.26,12.26,0,0,1-24,0h24m2.64-2.4H49.62a14.66,14.66,0,0,0,29.32,0"/></clipPath><clipPath id="clip-path-10"><path class="cls-1" d="M57,41.94a6.14,6.14,0,0,1-6-4.92H63a6.14,6.14,0,0,1-6,4.92"/></clipPath><clipPath id="clip-path-11"><path class="cls-1" d="M61.25,38.22a4.92,4.92,0,0,1-8.6,0h8.6m3-2.4H49.62a7.33,7.33,0,0,0,14.66,0"/></clipPath><clipPath id="clip-path-12"><path class="cls-1" d="M31.72,49.27A13.47,13.47,0,0,1,18.32,37H45.13A13.47,13.47,0,0,1,31.72,49.27"/></clipPath><clipPath id="clip-path-13"><path class="cls-1" d="M43.74,38.22a12.26,12.26,0,0,1-24,0h24m2.64-2.4H17.07a14.66,14.66,0,0,0,29.31,0"/></clipPath><clipPath id="clip-path-14"><path class="cls-1" d="M24.39,41.94a6.15,6.15,0,0,1-6-4.92h12a6.13,6.13,0,0,1-6,4.92"/></clipPath><clipPath id="clip-path-15"><path class="cls-1" d="M28.7,38.22a4.93,4.93,0,0,1-8.61,0H28.7m3-2.4H17.07a7.33,7.33,0,0,0,14.65,0"/></clipPath></defs><title>rm_e_yinxianxiao</title><g class="cls-3"><rect class="cls-4" x="5.03" y="10.11" width="85.94" height="80.74"/></g><g class="cls-5"><g class="cls-6"><rect class="cls-7" x="3.23" y="8.31" width="89.54" height="85.38"/></g></g><g class="cls-8"><rect class="cls-9" x="13.07" y="22.17" width="78.22" height="65.83"/></g><g class="cls-10"><rect class="cls-7" x="25.17" y="50.87" width="51.97" height="19.25"/></g><g class="cls-11"><rect class="cls-4" x="12.07" y="61.2" width="36.97" height="29.43"/></g><path class="cls-12" d="M40.73,67.08c.07,2.35.15,4.7.22,7a46.14,46.14,0,0,1-21.52-1.87c-.66.14-3.67.85-4.88,3.37-1.48,3.11.9,6.65,1.26,7.19,4.35,6.49,16.34,6.81,24.56,4.32A30,30,0,0,0,48,83.54q-.09-8.92-.17-17.87A3.46,3.46,0,0,0,46,62.58a2.72,2.72,0,0,0-1.18-.31C42.94,62.2,40.86,64.17,40.73,67.08Z"/><g class="cls-13"><rect class="cls-4" x="49.12" y="67.31" width="21.74" height="21.74"/></g><circle class="cls-12" cx="59.99" cy="78.18" r="9.87"/><g class="cls-14"><rect class="cls-15" x="49.88" y="36.02" width="28.81" height="14.26"/></g><g class="cls-16"><rect x="48.62" y="34.82" width="31.31" height="16.66"/></g><g class="cls-17"><rect x="49.94" y="36.02" width="14.02" height="6.93"/></g><g class="cls-18"><rect x="48.62" y="34.82" width="16.66" height="9.33"/></g><g class="cls-19"><rect class="cls-15" x="17.32" y="36.02" width="28.81" height="14.26"/></g><g class="cls-20"><rect x="16.07" y="34.82" width="31.31" height="16.66"/></g><g class="cls-21"><rect x="17.38" y="36.02" width="14.02" height="6.93"/></g><g class="cls-22"><rect x="16.07" y="34.82" width="16.66" height="9.33"/></g><path class="cls-23" d="M25,28.29a6,6,0,0,1,12,0"/><path class="cls-23" d="M52.39,28.29a6,6,0,0,1,12,0"/></svg>