<svg id="图层_1" data-name="图层 1" xmlns="http://www.w3.org/2000/svg" xmlns:xlink="http://www.w3.org/1999/xlink" viewBox="0 0 96 96"><defs><style>.cls-1{fill:#ee2d2c;}.cls-2,.cls-8{fill:#fff;}.cls-3{fill:#1c1c1c;}.cls-10,.cls-4{fill:none;}.cls-4,.cls-8{stroke:#1c1c1c;stroke-width:2.39px;}.cls-10,.cls-4,.cls-8{stroke-linecap:round;stroke-linejoin:round;}.cls-5{fill:url(#未命名的渐变_6);}.cls-6{clip-path:url(#clip-path);}.cls-7{fill:#900000;}.cls-9{fill:#f45d5d;}.cls-10{stroke:#000;stroke-width:1.79px;}</style><radialGradient id="未命名的渐变_6" cx="23.44" cy="28.01" r="7.18" gradientUnits="userSpaceOnUse"><stop offset="0" stop-color="#ffc3b3"/><stop offset="1" stop-color="#fff"/></radialGradient><clipPath id="clip-path"><path class="cls-1" d="M39.49,26.65a70.22,70.22,0,0,0-6,47,37,37,0,0,0,17.9,11,36.61,36.61,0,0,0,16.71.44A53.35,53.35,0,0,0,82.3,27a55.08,55.08,0,0,0-42.81-.3Z"/></clipPath></defs><title>超大的么么哒</title><path class="cls-2" d="M40.52,12.56c-11.8,0-18.39-1.91-19.58-5.67a4.06,4.06,0,0,1,.15-3c.85-1.73,3.17-2.69,6.52-2.69A20.58,20.58,0,0,1,35,2.63a18.5,18.5,0,0,1,9,8.09,1.23,1.23,0,0,1,0,1.19,1.2,1.2,0,0,1-1,.61c-.51,0-1.38,0-2.48,0Z"/><path class="cls-3" d="M27.61,2.42a19.68,19.68,0,0,1,7,1.32A17.43,17.43,0,0,1,43,11.32c-.5,0-1.36,0-2.45,0-5.53,0-17.06-.5-18.43-4.84a2.88,2.88,0,0,1,.08-2.08c.68-1.41,2.87-2,5.44-2m0-2.4C23.77,0,21.08,1.21,20,3.38a5.19,5.19,0,0,0-.21,3.87c.9,2.84,4,4.7,9.52,5.68a68.35,68.35,0,0,0,11.2.83c1.12,0,2,0,2.51,0a2.4,2.4,0,0,0,2-3.6,19.78,19.78,0,0,0-9.59-8.61A22.2,22.2,0,0,0,27.61,0Z"/><path class="cls-2" d="M20.63,18.64c-2.66,0-4.5-.75-5.47-2.24a5.72,5.72,0,0,1,.42-6.2c.85-1.15,2.54-2.46,8.14-2.46h.11a39.75,39.75,0,0,1,13.33,2.41,1.19,1.19,0,0,1,.37,2,26.21,26.21,0,0,1-12.46,6,28.25,28.25,0,0,1-4.44.46Z"/><path class="cls-3" d="M23.72,8.94h.11a38.49,38.49,0,0,1,12.92,2.34A24.41,24.41,0,0,1,24.87,17a26,26,0,0,1-4.24.45c-1.83,0-3.6-.37-4.46-1.69a4.52,4.52,0,0,1,.38-4.84c.59-.79,1.91-2,7.17-2m0-2.4c-4.79,0-7.6.91-9.1,3a6.86,6.86,0,0,0-.46,7.57c1.2,1.84,3.38,2.78,6.47,2.78a28.84,28.84,0,0,0,4.63-.48,27.29,27.29,0,0,0,13-6.25A2.39,2.39,0,0,0,37.56,9,41,41,0,0,0,23.83,6.54Z"/><path class="cls-2" d="M53,94.16C31.75,94.16,15,80.48,10.41,76.29a1.68,1.68,0,0,1-.4-.52A64,64,0,0,1,3.06,46.55a64.74,64.74,0,0,1,5-25,1.76,1.76,0,0,1,.68-.82A72,72,0,0,1,48.07,9.39,72,72,0,0,1,87.4,20.68a1.8,1.8,0,0,1,.69.83,65.43,65.43,0,0,1,5,25,68.91,68.91,0,0,1-4,22.39A70.41,70.41,0,0,1,80.8,85.31a1.8,1.8,0,0,1-.49.5,50.67,50.67,0,0,1-17.48,7.34A48.69,48.69,0,0,1,53,94.16Z"/><path class="cls-3" d="M48.07,11.19a70.6,70.6,0,0,1,38.35,11,63.87,63.87,0,0,1,4.83,24.36,66.84,66.84,0,0,1-3.86,21.8,68.72,68.72,0,0,1-8.07,16,48.9,48.9,0,0,1-16.86,7.09,46.92,46.92,0,0,1-9.5,1c-21.67,0-38.5-14.82-41.34-17.4A62.5,62.5,0,0,1,4.86,46.55,63.33,63.33,0,0,1,9.72,22.19a70.65,70.65,0,0,1,38.35-11m0-3.6A73.75,73.75,0,0,0,7.76,19.17a3.65,3.65,0,0,0-1.37,1.64A66.73,66.73,0,0,0,1.26,46.55a65.68,65.68,0,0,0,7.15,30,3.3,3.3,0,0,0,.79,1C13.94,81.93,31.1,96,53,96a50.19,50.19,0,0,0,10.24-1,52.21,52.21,0,0,0,18.09-7.6,3.46,3.46,0,0,0,1-1,72.84,72.84,0,0,0,8.5-16.79,71,71,0,0,0,4.06-23,67.09,67.09,0,0,0-5.1-25.73,3.56,3.56,0,0,0-1.37-1.65A73.75,73.75,0,0,0,48.07,7.59Z"/><path class="cls-4" d="M58.48,16.78a12.94,12.94,0,0,1,6.27.42"/><path class="cls-4" d="M61.86,16.62A18.59,18.59,0,0,1,62.19,19a19.17,19.17,0,0,1-.06,3.31"/><circle class="cls-5" cx="23.44" cy="28.01" r="7.18"/><path d="M55.25,16.82a2,2,0,0,1-.32,1.08,8.64,8.64,0,0,0-3.41,0,2,2,0,0,1-.32-1.08,2,2,0,1,1,4,0Z"/><path d="M71.73,18.25a1.6,1.6,0,0,1-.35.82,6.65,6.65,0,0,0-1.33-.28,6.79,6.79,0,0,0-1.35,0,1.65,1.65,0,0,1-.16-.88,1.6,1.6,0,0,1,3.19.35Z"/><path class="cls-1" d="M39.49,26.65a70.22,70.22,0,0,0-6,47,37,37,0,0,0,17.9,11,36.61,36.61,0,0,0,16.71.44A53.35,53.35,0,0,0,82.3,27a55.08,55.08,0,0,0-42.81-.3Z"/><g class="cls-6"><path class="cls-7" d="M40.26,55.94c-4.26,0-8.11-1.85-10.07-4.81a12.34,12.34,0,0,1-1.52-8.93,7.92,7.92,0,0,1,3.26-5.15,7.19,7.19,0,0,1,4-1,11,11,0,0,1,1.78.15c-.54,3.56.22,6.29,2.05,7.1a2.93,2.93,0,0,0,1.17.25A3,3,0,0,0,42,43.29c1.88-.74,2.83-3.39,2.57-6.94a9,9,0,0,1,5.87,2.85c3.13,3.72,1.72,10-1.52,13.4A12,12,0,0,1,40.26,55.94Z"/><path d="M35.88,37.19h0l.45,0c-.27,3.54.77,6.18,2.9,7.13a4,4,0,0,0,1.65.35,4.39,4.39,0,0,0,1.57-.29c2.1-.83,3.29-3.26,3.36-6.61A7.1,7.1,0,0,1,49.53,40c2.65,3.14,1.41,8.82-1.47,11.8a10.78,10.78,0,0,1-7.8,3c-3.86,0-7.34-1.63-9.07-4.27a11,11,0,0,1-1.35-8,6.69,6.69,0,0,1,2.73-4.39,6.09,6.09,0,0,1,3.31-.87m0-2.38a8.44,8.44,0,0,0-4.59,1.24c-4.76,3-5.2,11-2.09,15.73,2.32,3.53,6.7,5.35,11.06,5.35a13.22,13.22,0,0,0,9.52-3.7c3.52-3.65,5.21-10.69,1.57-15-2.73-3.22-7.12-3.35-8.13-3.35.57,3.64-.12,6.5-1.65,7.1a1.91,1.91,0,0,1-.69.12,1.59,1.59,0,0,1-.68-.14c-1.42-.63-1.94-3.4-1.16-6.93a12.57,12.57,0,0,0-3.16-.42Z"/><path class="cls-8" d="M57.84,20.12c-.14,2.74-.28,5.47-.41,8.21l5.37,0-.67-8.06Z"/><path class="cls-8" d="M62.13,20.31l.67,8.06h4.77l-1-8.06Z"/><path class="cls-9" d="M56.88,87.82a34,34,0,0,1-24.14-9.94c-7.92-8.24-8.75-19-8.64-24a65.25,65.25,0,0,1,19-3c10.68,0,19.75,2.94,26.95,8.73A39.43,39.43,0,0,1,80.54,72.79a23.83,23.83,0,0,1-7.33,9.9A26.64,26.64,0,0,1,56.88,87.82Z"/><path d="M43.12,52.17h0c10.41,0,19.22,2.84,26.2,8.46a38.12,38.12,0,0,1,9.91,12.21,22.56,22.56,0,0,1-6.75,8.91,25.43,25.43,0,0,1-15.6,4.88A32.75,32.75,0,0,1,33.6,77.05c-7.2-7.48-8.3-17.13-8.32-22.25a64.43,64.43,0,0,1,17.84-2.63m0-2.39a65.62,65.62,0,0,0-20.18,3.27c-.14,3.18-.35,16,9,25.66A35.25,35.25,0,0,0,56.88,89,27.71,27.71,0,0,0,74,83.63a25.51,25.51,0,0,0,7.9-10.89,41,41,0,0,0-11-14c-8.71-7-18.93-9-27.71-9Z"/></g><path class="cls-10" d="M39.49,26.65a70.22,70.22,0,0,0-6,47,37,37,0,0,0,17.9,11,36.61,36.61,0,0,0,16.71.44A53.35,53.35,0,0,0,82.3,27a55.08,55.08,0,0,0-42.81-.3Z"/></svg>