<svg id="图层_1" data-name="图层 1" xmlns="http://www.w3.org/2000/svg" viewBox="0 0 96 96"><defs><style>.cls-1{fill:#fc5;}.cls-2{fill:#1c1c1c;}.cls-3{fill:#f95;}.cls-4,.cls-5{fill:none;stroke-linecap:round;stroke-linejoin:round;}.cls-4{stroke:#1c1c1c;stroke-width:2.4px;}.cls-5{stroke:#ee2d2c;stroke-width:1.2px;}</style></defs><title>差强人意</title><path class="cls-1" d="M57.64,82.44a70.15,70.15,0,0,1-9.65.67,67.24,67.24,0,0,1-34.85-9.44l-.44-.27-.24-.46a60.74,60.74,0,0,1-1.77-50.53l.21-.52.46-.3A66.9,66.9,0,0,1,48,11,66.94,66.94,0,0,1,84.64,21.59l.46.3.21.52a60.74,60.74,0,0,1-1.77,50.53l-.23.46-.45.27A63.35,63.35,0,0,1,72.1,78.85L65,89.78Z"/><path class="cls-2" d="M48,12.83A65.28,65.28,0,0,1,83.65,23.1a58.94,58.94,0,0,1-1.72,49,62,62,0,0,1-11,5.24l-6.26,9.56-6.38-6.4A68.07,68.07,0,0,1,48,81.31a65.62,65.62,0,0,1-33.92-9.18,58.94,58.94,0,0,1-1.72-49A65.21,65.21,0,0,1,48,12.83m0-3.6A68.69,68.69,0,0,0,10.38,20.08l-.93.61-.42,1a62.51,62.51,0,0,0,1.83,52l.46.93.89.53A69.05,69.05,0,0,0,48,84.91a70.88,70.88,0,0,0,9-.57l5.11,5.14,3.13,3.14,2.43-3.71,5.62-8.58A65.65,65.65,0,0,0,83.8,75.21l.88-.54.46-.92a62.51,62.51,0,0,0,1.83-52l-.42-1-.93-.61A68.74,68.74,0,0,0,48,9.23Z"/><path class="cls-3" d="M88.17,45.72a58.52,58.52,0,0,1-6.24,26.41,61.23,61.23,0,0,1-11,5.23l-6.26,9.57-6.38-6.4A68.07,68.07,0,0,1,48,81.31a65.62,65.62,0,0,1-33.92-9.18c12.17,3.26,38,8.69,56.57-.86a25.17,25.17,0,0,0,5.54-3.73c14.11-12.65,8.95-38,7.47-44.44A58.32,58.32,0,0,1,88.17,45.72Z"/><path class="cls-2" d="M52.64,23.66a3.56,3.56,0,0,0,1.44,1.77,10.47,10.47,0,0,0,2,1.05,39.38,39.38,0,0,0,4.43,1.39c1.52.38,3.07.72,4.64,1.08s3.16.69,4.8,1.21a17.74,17.74,0,0,1-5,.67,21.54,21.54,0,0,1-5-.64,15,15,0,0,1-4.74-2.07,7.69,7.69,0,0,1-1.93-1.89A3.14,3.14,0,0,1,52.64,23.66Z"/><path class="cls-2" d="M29.82,23.66a3.31,3.31,0,0,1-.11,2.23,6.15,6.15,0,0,1-1.31,1.89A10.1,10.1,0,0,1,24.61,30a14.53,14.53,0,0,1-4.21.76,12,12,0,0,1-4.19-.64c1.35-.52,2.65-.86,3.92-1.23s2.49-.74,3.69-1.16a20.14,20.14,0,0,0,3.42-1.47A5.31,5.31,0,0,0,29.82,23.66Z"/><circle cx="27.75" cy="34.81" r="2.51"/><circle cx="53.6" cy="34.81" r="2.51"/><path class="cls-4" d="M58,42a32.21,32.21,0,0,1-34.57,0"/><line class="cls-5" x1="15.23" y1="40.88" x2="9.83" y2="46.28"/><line class="cls-5" x1="17.52" y1="40.88" x2="12.12" y2="46.28"/><line class="cls-5" x1="19.8" y1="40.88" x2="14.4" y2="46.28"/><line class="cls-5" x1="68.14" y1="40.88" x2="62.74" y2="46.28"/><line class="cls-5" x1="70.43" y1="40.88" x2="65.03" y2="46.28"/><line class="cls-5" x1="72.72" y1="40.88" x2="67.32" y2="46.28"/></svg>