<svg id="图层_1" data-name="图层 1" xmlns="http://www.w3.org/2000/svg" viewBox="0 0 96 96"><defs><style>.cls-1{fill:#ffcb55;}.cls-2{fill:#1c1c1c;}.cls-3{fill:#ff9855;}.cls-4{fill:#f45d5d;}.cls-5{fill:#3ecb52;}.cls-6{fill:none;stroke:#1c1c1c;stroke-linecap:round;stroke-linejoin:round;stroke-width:2.4px;}</style></defs><title>吃瓜</title><path class="cls-1" d="M61,81.31a70.14,70.14,0,0,1-9.65.66,67.38,67.38,0,0,1-34.85-9.43l-.44-.27-.23-.46a60.72,60.72,0,0,1-1.78-50.54l.21-.51.47-.3A66.77,66.77,0,0,1,51.39,9.9,66.84,66.84,0,0,1,88,20.46l.46.3.22.51a60.82,60.82,0,0,1-1.78,50.54l-.23.46-.44.26a63.36,63.36,0,0,1-10.76,5.19L68.36,88.64Z"/><path class="cls-2" d="M51.39,11.7A65.34,65.34,0,0,1,87.06,22a59,59,0,0,1-1.73,49,61.46,61.46,0,0,1-11,5.23L68.06,85.8l-6.38-6.41a66.8,66.8,0,0,1-10.29.78A65.62,65.62,0,0,1,17.47,71a58.94,58.94,0,0,1-1.72-49A65.21,65.21,0,0,1,51.39,11.7m0-3.6A68.61,68.61,0,0,0,13.78,19l-.92.6-.43,1a62.51,62.51,0,0,0,1.83,52l.46.92.89.54a69.17,69.17,0,0,0,35.78,9.69,72.77,72.77,0,0,0,9-.56l5.11,5.13,3.14,3.14,2.43-3.71,5.61-8.58A64,64,0,0,0,87.2,74.07l.88-.53.47-.92a62.61,62.61,0,0,0,1.83-52l-.43-1L89,19A68.63,68.63,0,0,0,51.39,8.1Z"/><path class="cls-3" d="M91.57,44.59A58.32,58.32,0,0,1,85.33,71a61.5,61.5,0,0,1-11,5.24L68.06,85.8l-6.38-6.41a68.07,68.07,0,0,1-10.29.78A65.62,65.62,0,0,1,17.47,71c12.17,3.27,38,8.69,56.57-.86a24.94,24.94,0,0,0,5.54-3.72c14.11-12.65,9-38,7.48-44.45A58.51,58.51,0,0,1,91.57,44.59Z"/><path d="M56.87,40.79a4.58,4.58,0,0,1-3.46,2.14,5.13,5.13,0,0,1-4.13-1.4,5.21,5.21,0,0,1-1.53-4.08,4.56,4.56,0,0,1,2-3.55,6.33,6.33,0,0,0-.58,3.52,4.86,4.86,0,0,0,1.37,2.82,4.68,4.68,0,0,0,2.85,1.29A6.35,6.35,0,0,0,56.87,40.79Z"/><path class="cls-4" d="M80.83,50.86A39.9,39.9,0,0,1,1.1,48.44,39.17,39.17,0,0,1,1.81,41l22.7,2.84a2.77,2.77,0,0,1,2.41,2.79,12.38,12.38,0,0,0,.17,2.07,12.67,12.67,0,0,0,24.79,1,2.74,2.74,0,0,1,3-2Z"/><path class="cls-5" d="M80.83,50.86A39.9,39.9,0,0,1,1.1,48.44,39.17,39.17,0,0,1,1.81,41l4.5.56a33.34,33.34,0,0,0-.54,6,35.23,35.23,0,0,0,70.35,2.7Z"/><path d="M3.81,43.64l20.4,2.55a.38.38,0,0,1,.31.41,15.79,15.79,0,0,0,.2,2.46A15.08,15.08,0,0,0,37.48,61.5a14.82,14.82,0,0,0,2.1.14A15.06,15.06,0,0,0,54.21,50.23a.35.35,0,0,1,.36-.24h0l23.66,3A37.51,37.51,0,0,1,3.5,48.44a38.31,38.31,0,0,1,.31-4.8M1.81,41a39.17,39.17,0,0,0-.71,7.47,39.9,39.9,0,0,0,79.73,2.42L54.88,47.61l-.35,0a2.72,2.72,0,0,0-2.65,2.06,12.69,12.69,0,0,1-12.3,9.59,11.92,11.92,0,0,1-1.78-.12A12.68,12.68,0,0,1,27.09,48.67a12.38,12.38,0,0,1-.17-2.07,2.77,2.77,0,0,0-2.41-2.79L1.81,41Z"/><ellipse class="cls-2" cx="36.03" cy="72.65" rx="3.1" ry="1.42" transform="translate(-42.15 94.18) rotate(-79.02)"/><ellipse class="cls-2" cx="24.58" cy="65.05" rx="3.1" ry="1.42" transform="translate(-43.96 76.79) rotate(-79.02)"/><ellipse class="cls-2" cx="16.73" cy="61.4" rx="3.1" ry="1.42" transform="translate(-46.73 66.13) rotate(-79.02)"/><ellipse class="cls-2" cx="53.89" cy="65.44" rx="4.1" ry="1.43" transform="translate(-20.62 105.88) rotate(-79.02)"/><ellipse class="cls-2" cx="67.03" cy="60.03" rx="3.3" ry="1.15" transform="translate(-4.67 114.4) rotate(-79.02)"/><path class="cls-1" d="M11.23,82.58a7.29,7.29,0,1,1,7.29-7.29A7.3,7.3,0,0,1,11.23,82.58Z"/><path class="cls-2" d="M11.23,69.2a6.09,6.09,0,1,1-6.09,6.09,6.09,6.09,0,0,1,6.09-6.09m0-2.4a8.49,8.49,0,1,0,8.49,8.49,8.49,8.49,0,0,0-8.49-8.49Z"/><circle class="cls-1" cx="62.38" cy="83.43" r="8.67"/><path class="cls-2" d="M62.38,76a7.47,7.47,0,1,1-7.47,7.47A7.48,7.48,0,0,1,62.38,76m0-2.4a9.87,9.87,0,1,0,9.86,9.87,9.87,9.87,0,0,0-9.86-9.87Z"/><path class="cls-6" d="M53.08,22.05a61,61,0,0,1,16.27-1.2,57.75,57.75,0,0,1,6,.68"/><circle class="cls-2" cx="59.3" cy="24.48" r="3.83"/><path class="cls-6" d="M22.28,23.45a61,61,0,0,1,16.27-1.2,58.07,58.07,0,0,1,6,.68"/><circle class="cls-2" cx="28.5" cy="25.18" r="3.12"/><path d="M49.37,39.27a6.27,6.27,0,0,1-6.31,2.13,5.75,5.75,0,0,1-4.21-4.52,5.32,5.32,0,0,0,4.38,3.64,4.93,4.93,0,0,0,4.68-2.31Z"/></svg>