<svg id="图层_1" data-name="图层 1" xmlns="http://www.w3.org/2000/svg" viewBox="0 0 96 96"><defs><style>.cls-1{fill:#ffcb55;}.cls-2{fill:#1c1c1c;}.cls-3{fill:#ff9855;}.cls-4{fill:#fff;}.cls-4,.cls-5{stroke:#1c1c1c;stroke-linecap:round;stroke-linejoin:round;stroke-width:2.4px;}.cls-5{fill:none;}</style></defs><title>呲牙笑</title><path class="cls-1" d="M57.64,82.71a68.61,68.61,0,0,1-9.65.67,67.27,67.27,0,0,1-34.85-9.44l-.44-.26-.24-.47a60.74,60.74,0,0,1-1.77-50.53l.21-.51.46-.31A66.9,66.9,0,0,1,48,11.31,66.94,66.94,0,0,1,84.64,21.86l.46.31.21.51a60.74,60.74,0,0,1-1.77,50.53l-.23.46-.44.27A63.43,63.43,0,0,1,72.1,79.12L65,90.05Z"/><path class="cls-2" d="M48,13.11A65.36,65.36,0,0,1,83.65,23.37a58.94,58.94,0,0,1-1.72,49,61.27,61.27,0,0,1-11,5.24l-6.26,9.57L58.28,80.8A68.07,68.07,0,0,1,48,81.58,65.62,65.62,0,0,1,14.07,72.4a58.94,58.94,0,0,1-1.72-49A65.29,65.29,0,0,1,48,13.11m0-3.6A68.61,68.61,0,0,0,10.38,20.36l-.93.6L9,22a62.51,62.51,0,0,0,1.83,52l.46.93.89.53A69.05,69.05,0,0,0,48,85.18a72.77,72.77,0,0,0,9-.56l5.11,5.13,3.13,3.14,2.43-3.71,5.62-8.58A65.65,65.65,0,0,0,83.8,75.48l.88-.54.46-.92A62.51,62.51,0,0,0,87,22l-.42-1-.93-.6A68.65,68.65,0,0,0,48,9.51Z"/><path class="cls-3" d="M88.17,46a58.51,58.51,0,0,1-6.24,26.4,62,62,0,0,1-11,5.24L64.66,87.2l-6.38-6.4A68.07,68.07,0,0,1,48,81.58,65.62,65.62,0,0,1,14.07,72.4c12.17,3.27,38,8.69,56.57-.86a25.17,25.17,0,0,0,5.54-3.73c14.11-12.65,8.95-38,7.47-44.44A58.33,58.33,0,0,1,88.17,46Z"/><path class="cls-2" d="M23.54,33.3A9.2,9.2,0,0,1,26.21,29a10.41,10.41,0,0,1,4.73-2.44,11.25,11.25,0,0,1,5.44.17,12.29,12.29,0,0,1,4.75,2.53l.16.13a1.59,1.59,0,0,1-1.35,2.76,9.36,9.36,0,0,0-3.91,0,11.25,11.25,0,0,0-4,1.77,7.43,7.43,0,0,1,3.22-3.76,9,9,0,0,1,5.13-1.21l-1.2,2.89a13.91,13.91,0,0,0-3.72-1.62,11.31,11.31,0,0,0-4-.41A14,14,0,0,0,23.54,33.3Z"/><path class="cls-2" d="M72.46,33.3a14,14,0,0,0-7.92-3.5,11.31,11.31,0,0,0-4,.41,13.91,13.91,0,0,0-3.72,1.62l-1.2-2.89a9,9,0,0,1,5.13,1.21A7.43,7.43,0,0,1,64,33.91a11.25,11.25,0,0,0-4-1.77,9.36,9.36,0,0,0-3.91,0,1.58,1.58,0,0,1-1.35-2.76l.16-.13a12.29,12.29,0,0,1,4.75-2.53,11.25,11.25,0,0,1,5.44-.17A10.41,10.41,0,0,1,69.79,29,9.2,9.2,0,0,1,72.46,33.3Z"/><path class="cls-4" d="M73.16,47.84a7.6,7.6,0,0,1,4.37,12,37.41,37.41,0,0,1-59.06,0,7.6,7.6,0,0,1,4.37-12A111.7,111.7,0,0,1,48,45.05,111.83,111.83,0,0,1,73.16,47.84Z"/><path class="cls-5" d="M26.26,47.11a66.58,66.58,0,0,0,.49,11.6A65.8,65.8,0,0,0,29,69.11"/><path class="cls-5" d="M36.52,45.61A93.95,93.95,0,0,0,39.6,73.36"/><path class="cls-5" d="M49.17,45.06V74.29"/><path class="cls-5" d="M60.87,45.76A92.68,92.68,0,0,1,60.5,59,92.37,92.37,0,0,1,58,72.94"/><path class="cls-5" d="M69.91,47.15a60.26,60.26,0,0,1,0,12.08,60.45,60.45,0,0,1-1.58,9.05"/><path class="cls-5" d="M17.92,59.06a168.59,168.59,0,0,1,60.16,0"/></svg>