<svg id="图层_1" data-name="图层 1" xmlns="http://www.w3.org/2000/svg" viewBox="0 0 96 96"><defs><style>.cls-1{fill:#ffcb55;}.cls-2{fill:#1c1c1c;}.cls-3{fill:#ff9855;}.cls-4{fill:#fff;}.cls-5{fill:#989898;}.cls-6{fill:#ee2d2c;}</style></defs><title>挨揍</title><path class="cls-1" d="M57.64,82.71a68.61,68.61,0,0,1-9.65.67,67.27,67.27,0,0,1-34.85-9.44l-.44-.26-.24-.47a60.74,60.74,0,0,1-1.77-50.53l.21-.51.46-.31A66.9,66.9,0,0,1,48,11.31,66.94,66.94,0,0,1,84.64,21.86l.46.31.21.51a60.74,60.74,0,0,1-1.77,50.53l-.24.46-.44.27A63,63,0,0,1,72.1,79.12L65,90.05Z"/><path class="cls-2" d="M48,13.11A65.36,65.36,0,0,1,83.65,23.37a58.94,58.94,0,0,1-1.72,49,61.27,61.27,0,0,1-11,5.24l-6.26,9.57L58.28,80.8A68.07,68.07,0,0,1,48,81.58,65.62,65.62,0,0,1,14.07,72.4a58.94,58.94,0,0,1-1.72-49A65.29,65.29,0,0,1,48,13.11m0-3.6A68.61,68.61,0,0,0,10.38,20.36l-.93.6L9,22a62.51,62.51,0,0,0,1.83,52l.46.93.89.53A69.05,69.05,0,0,0,48,85.18a72.77,72.77,0,0,0,9-.56l5.11,5.13,3.13,3.14,2.43-3.71,5.62-8.58A65.65,65.65,0,0,0,83.8,75.48l.88-.54.46-.92A62.51,62.51,0,0,0,87,22l-.42-1-.93-.6A68.65,68.65,0,0,0,48,9.51Z"/><path class="cls-3" d="M88.17,46a58.51,58.51,0,0,1-6.24,26.4,62,62,0,0,1-11,5.24L64.66,87.2l-6.38-6.4A68.07,68.07,0,0,1,48,81.58,65.62,65.62,0,0,1,14.07,72.4c12.17,3.27,38,8.69,56.57-.86a25.17,25.17,0,0,0,5.54-3.73c14.11-12.65,8.95-38,7.47-44.44A58.33,58.33,0,0,1,88.17,46Z"/><path class="cls-4" d="M68.85,40.73A6.7,6.7,0,0,1,62.16,34a6.43,6.43,0,0,1,.37-2.2,29.63,29.63,0,0,0,12.74,4.08A6.68,6.68,0,0,1,68.85,40.73Z"/><path d="M62.9,32.73a30.2,30.2,0,0,0,11.55,3.71A6.09,6.09,0,0,1,62.76,34a5.57,5.57,0,0,1,.14-1.3M62.25,31A7.06,7.06,0,0,0,61.56,34,7.29,7.29,0,0,0,76,35.36,29,29,0,0,1,62.25,31Z"/><path class="cls-5" d="M33.34,49a12.4,12.4,0,1,1,12.4-12.4A12.42,12.42,0,0,1,33.34,49Z"/><path d="M33.34,25.36a11.2,11.2,0,1,1-11.2,11.2,11.21,11.21,0,0,1,11.2-11.2m0-2.4a13.6,13.6,0,1,0,13.6,13.6A13.6,13.6,0,0,0,33.34,23Z"/><path d="M71.59,45.06a6.15,6.15,0,0,1,.22-1.7,6.26,6.26,0,0,1,.73-1.52A7.11,7.11,0,0,1,75,39.55a6.87,6.87,0,0,1,3.24-.91,5.4,5.4,0,0,1,3.25.84l0,0a.11.11,0,0,1,0,.12.09.09,0,0,1-.07,0,11.35,11.35,0,0,0-5.59,1.46,10.41,10.41,0,0,0-2.33,1.74,12.69,12.69,0,0,0-1,1.09l-.84,1.2a.07.07,0,0,1-.11,0,.08.08,0,0,1,0-.07Z"/><path d="M15.61,41.06A7,7,0,0,1,13.9,37.9,9.62,9.62,0,0,1,14.68,31,7,7,0,0,1,17,28.26l0,0a.08.08,0,0,1,.11,0,.08.08,0,0,1,0,.08,19.11,19.11,0,0,0-1.77,6.22A19.5,19.5,0,0,0,15.79,41a.08.08,0,0,1-.07.1.08.08,0,0,1-.08,0Z"/><path d="M51.26,40.24a5,5,0,0,1,.49,2.7,6.3,6.3,0,0,1-.69,2.5,6.44,6.44,0,0,1-1.59,2.05A5.11,5.11,0,0,1,47,48.71H47a.08.08,0,0,1-.09-.07.07.07,0,0,1,0-.06,20.21,20.21,0,0,0,2.57-4,19.7,19.7,0,0,0,1.63-4.42.08.08,0,0,1,.1-.06.07.07,0,0,1,0,0Z"/><circle cx="27.34" cy="30.56" r="2"/><circle cx="64.77" cy="36.29" r="1.36"/><path class="cls-6" d="M49.61,66.08c-3,0-5.07-1.38-5.07-2.62s2.08-2.63,5.07-2.63a8.43,8.43,0,0,1,2.45.35,13.31,13.31,0,0,0,1.19,4.05A7.62,7.62,0,0,1,49.61,66.08Z"/><path class="cls-2" d="M49.61,61.73a8.1,8.1,0,0,1,1.65.17,14.33,14.33,0,0,0,.81,2.88,7.19,7.19,0,0,1-2.46.4c-2.55,0-4.17-1.13-4.17-1.72s1.62-1.73,4.17-1.73m0-1.8c-3.3,0-6,1.58-6,3.53s2.67,3.52,6,3.52a7.78,7.78,0,0,0,4.81-1.45,12.64,12.64,0,0,1-1.53-5,8.8,8.8,0,0,0-3.28-.59Z"/><path d="M65.42,72a11.12,11.12,0,0,1-7-1.33A12.33,12.33,0,0,1,52.21,58a11,11,0,0,1,3.3-6.36,14.89,14.89,0,0,0-1.9,6.5,13.31,13.31,0,0,0,1.32,6.36A14.32,14.32,0,0,0,55.72,66c.33.43.63.89,1,1.29a12.17,12.17,0,0,0,2.41,2.23A15.06,15.06,0,0,0,65.42,72Z"/><path d="M43.84,53.3A6.2,6.2,0,0,1,46.55,57a7.29,7.29,0,0,1,.26,2.38,8.08,8.08,0,0,1-.54,2.37,8.51,8.51,0,0,1-1.28,2,7.53,7.53,0,0,1-1.88,1.5,7.15,7.15,0,0,1-2.22.77,6.17,6.17,0,0,1-2.27-.11,9.71,9.71,0,0,0,3.71-1.83,7.9,7.9,0,0,0,2.85-6.86A9.6,9.6,0,0,0,43.84,53.3Z"/><path d="M56.49,22.89a27.39,27.39,0,0,0,10.84,9.73A24.23,24.23,0,0,0,81.64,35a.12.12,0,0,1,.13.1.11.11,0,0,1-.06.12l0,0A15.41,15.41,0,0,1,74,36.79a19.06,19.06,0,0,1-4-.6,24.12,24.12,0,0,1-3.77-1.42,24.22,24.22,0,0,1-3.39-2.14A20.18,20.18,0,0,1,60,29.9,16.47,16.47,0,0,1,56.29,23v0a.12.12,0,0,1,.09-.14A.11.11,0,0,1,56.49,22.89Z"/></svg>