<svg id="图层_1" data-name="图层 1" xmlns="http://www.w3.org/2000/svg" viewBox="0 0 96 96"><defs><style>.cls-1{fill:#ffcb55;}.cls-2{fill:#1c1c1c;}.cls-3{fill:#ff9855;}.cls-4,.cls-5{fill:#fff;}.cls-5{opacity:0.18;}</style></defs><title>大边框</title><path class="cls-1" d="M57.64,82.45a70.15,70.15,0,0,1-9.65.67,67.29,67.29,0,0,1-34.85-9.44l-.44-.27L12.46,73a60.76,60.76,0,0,1-1.77-50.54l.21-.51.46-.3A66.83,66.83,0,0,1,48,11,66.87,66.87,0,0,1,84.64,21.6l.46.3.21.51A60.76,60.76,0,0,1,83.54,73l-.23.46-.44.27A64.19,64.19,0,0,1,72.1,78.86L65,89.79Z"/><path class="cls-2" d="M48,12.84A65.28,65.28,0,0,1,83.65,23.11a58.94,58.94,0,0,1-1.72,49,62,62,0,0,1-11,5.24l-6.26,9.56-6.38-6.4A68.07,68.07,0,0,1,48,81.32a65.62,65.62,0,0,1-33.92-9.18,58.94,58.94,0,0,1-1.72-49A65.21,65.21,0,0,1,48,12.84m0-3.6A68.69,68.69,0,0,0,10.38,20.09l-.93.61-.42,1a62.51,62.51,0,0,0,1.83,52l.46.93.89.53A69.05,69.05,0,0,0,48,84.92a70.88,70.88,0,0,0,9-.57l5.11,5.14,3.13,3.14,2.43-3.71,5.62-8.58A65.65,65.65,0,0,0,83.8,75.22l.88-.54.46-.92a62.51,62.51,0,0,0,1.83-52l-.42-1-.93-.61A68.74,68.74,0,0,0,48,9.24Z"/><path class="cls-3" d="M88.17,45.74a58.51,58.51,0,0,1-6.24,26.4,62,62,0,0,1-11,5.24l-6.26,9.56-6.38-6.4A68.07,68.07,0,0,1,48,81.32a65.62,65.62,0,0,1-33.92-9.18c12.17,3.27,38,8.69,56.57-.86a25.53,25.53,0,0,0,5.54-3.72c14.11-12.66,8.95-38,7.47-44.45A58.33,58.33,0,0,1,88.17,45.74Z"/><path class="cls-2" d="M87.26,35.34A76.31,76.31,0,0,0,48,24.77,76.21,76.21,0,0,0,8.74,35.34a57.89,57.89,0,0,1,3.61-12.23A65.32,65.32,0,0,1,48,12.84,65.42,65.42,0,0,1,83.65,23.11,57.89,57.89,0,0,1,87.26,35.34Z"/><path d="M80,57a15.06,15.06,0,0,1-2.7,10.17,17.71,17.71,0,0,1-3.83,4,20.15,20.15,0,0,1-4.86,2.58,57.42,57.42,0,0,1-10.23,3,62.87,62.87,0,0,1-10.61,1.07,63.06,63.06,0,0,1-10.63-.84,55,55,0,0,1-10.3-2.77,17.37,17.37,0,0,1-8.52-6.85A15.92,15.92,0,0,1,16,57a17.24,17.24,0,0,0,3.69,9.27,15.07,15.07,0,0,0,3.64,3.22,16.88,16.88,0,0,0,4.36,2,65.18,65.18,0,0,0,9.9,2.06,65.36,65.36,0,0,0,10.08.61,65.34,65.34,0,0,0,10.07-.82A68.82,68.82,0,0,0,67.64,71l1.21-.39L70,70.21l1.09-.5,1.06-.58A16.28,16.28,0,0,0,80,57Z"/><path class="cls-4" d="M30.53,24.19a5.38,5.38,0,1,1,5.37-5.38A5.38,5.38,0,0,1,30.53,24.19Z"/><path d="M30.53,14a4.78,4.78,0,1,1-4.78,4.78A4.78,4.78,0,0,1,30.53,14m0-1.2a6,6,0,1,0,6,6,6,6,0,0,0-6-6Z"/><path d="M30.53,21.4a2.59,2.59,0,1,1,2.59-2.59A2.59,2.59,0,0,1,30.53,21.4Z"/><path d="M30.53,17.42a1.39,1.39,0,1,1-1.4,1.39,1.39,1.39,0,0,1,1.4-1.39m0-2.4a3.79,3.79,0,1,0,3.79,3.79A3.8,3.8,0,0,0,30.53,15Z"/><path class="cls-4" d="M27.83,18.81h1.06a1.63,1.63,0,0,1,1.64-1.63V16.11A2.7,2.7,0,0,0,27.83,18.81Z"/><path class="cls-5" d="M33.22,18.81H32.16a1.64,1.64,0,0,1-1.64,1.64v1.06A2.7,2.7,0,0,0,33.22,18.81Z"/><path class="cls-4" d="M65.47,24.19a5.38,5.38,0,1,1,5.38-5.38A5.38,5.38,0,0,1,65.47,24.19Z"/><path d="M65.47,14a4.78,4.78,0,1,1-4.77,4.78A4.79,4.79,0,0,1,65.47,14m0-1.2a6,6,0,1,0,6,6,6,6,0,0,0-6-6Z"/><path d="M65.47,21.4a2.59,2.59,0,1,1,2.6-2.59A2.59,2.59,0,0,1,65.47,21.4Z"/><path d="M65.47,17.42a1.39,1.39,0,1,1-1.39,1.39,1.4,1.4,0,0,1,1.39-1.39m0-2.4a3.79,3.79,0,1,0,3.8,3.79A3.79,3.79,0,0,0,65.47,15Z"/><path class="cls-4" d="M62.78,18.81h1.06a1.63,1.63,0,0,1,1.64-1.63V16.11A2.7,2.7,0,0,0,62.78,18.81Z"/><path class="cls-5" d="M68.17,18.81H67.11a1.64,1.64,0,0,1-1.64,1.64v1.06A2.7,2.7,0,0,0,68.17,18.81Z"/></svg>