<svg id="图层_1" data-name="图层 1" xmlns="http://www.w3.org/2000/svg" xmlns:xlink="http://www.w3.org/1999/xlink" viewBox="0 0 96 96"><defs><style>.cls-1{fill:#ffcb55;}.cls-2{fill:#1c1c1c;}.cls-3{fill:#ff9855;}.cls-4,.cls-5{stroke:#000;stroke-linecap:round;stroke-linejoin:round;stroke-width:2.23px;}.cls-4{fill:url(#未命名的渐变_63);}.cls-5{fill:url(#未命名的渐变_63-2);}.cls-6{opacity:0.3;}.cls-7{fill:#0f1780;}.cls-8{fill:#ee2d2c;}.cls-9{fill:#f45d5d;}</style><linearGradient id="未命名的渐变_63" x1="1.2" y1="53.79" x2="28.87" y2="53.79" gradientUnits="userSpaceOnUse"><stop offset="0" stop-color="#5dadf5"/><stop offset="1" stop-color="#4580d2"/></linearGradient><linearGradient id="未命名的渐变_63-2" x1="67.13" y1="53.79" x2="94.8" y2="53.79" xlink:href="#未命名的渐变_63"/></defs><title>大哭</title><path class="cls-1" d="M57.18,82.2a66.6,66.6,0,0,1-9.19.64,64.09,64.09,0,0,1-33.19-9l-.43-.26-.22-.44A57.82,57.82,0,0,1,12.46,25l.2-.49.44-.29A63.66,63.66,0,0,1,48,14.19a63.68,63.68,0,0,1,34.91,10l.44.29.2.49a57.82,57.82,0,0,1-1.69,48.13l-.22.44-.42.26A61.08,61.08,0,0,1,71,78.78L64.15,89.19Z"/><path class="cls-2" d="M48,15.9a62.26,62.26,0,0,1,34,9.78,56.18,56.18,0,0,1-1.64,46.7,58.72,58.72,0,0,1-10.48,5l-6,9.11-6.08-6.1a64.3,64.3,0,0,1-9.8.74,62.48,62.48,0,0,1-32.31-8.74A56.18,56.18,0,0,1,14,25.68,62.19,62.19,0,0,1,48,15.9m0-3.43A65.27,65.27,0,0,0,12.17,22.81l-.89.57-.4,1a59.58,59.58,0,0,0,1.74,49.57l.44.89.85.51A65.86,65.86,0,0,0,48,84.55,67.92,67.92,0,0,0,56.57,84l4.87,4.89,3,3,2.31-3.53,5.35-8.17a62.35,62.35,0,0,0,10-4.88l.84-.51.44-.88a59.58,59.58,0,0,0,1.74-49.57l-.4-1-.89-.57A65.32,65.32,0,0,0,48,12.47Z"/><path class="cls-3" d="M86.26,47.23a55.73,55.73,0,0,1-5.94,25.15,59.39,59.39,0,0,1-10.48,5l-6,9.12-6.08-6.1a64.3,64.3,0,0,1-9.8.74,62.57,62.57,0,0,1-32.31-8.74c11.59,3.11,36.22,8.28,53.88-.82A24.11,24.11,0,0,0,74.84,68C88.28,56,83.36,31.8,82,25.68A55.55,55.55,0,0,1,86.26,47.23Z"/><path d="M30,9.88a7.85,7.85,0,0,1,3.56,6.42,9.35,9.35,0,0,1-10.67,9.54,7.82,7.82,0,0,1-6-4.26A10.44,10.44,0,0,0,23,23.15a8.55,8.55,0,0,0,7.84-7A10.48,10.48,0,0,0,30,9.88Z"/><path d="M66,9.88a10.48,10.48,0,0,0-.88,6.27,8.55,8.55,0,0,0,7.84,7,10.44,10.44,0,0,0,6.12-1.57,7.82,7.82,0,0,1-6,4.26A9.35,9.35,0,0,1,62.47,16.3,7.85,7.85,0,0,1,66,9.88Z"/><path class="cls-2" d="M24.39,34.42a11.84,11.84,0,0,1,2.41-2.91,18.21,18.21,0,0,1,2.88-2.09A17.33,17.33,0,0,1,32.93,28a11.6,11.6,0,0,1,3.72-.64,11.45,11.45,0,0,1-2.41,2.91,17,17,0,0,1-2.88,2.09,17.62,17.62,0,0,1-3.25,1.46A12.17,12.17,0,0,1,24.39,34.42Z"/><path class="cls-4" d="M28.87,31.82c-2.79,1.89-6.23,4.87-6.22,8.54,0,3.32,2.89,4.13,3,7.54.11,5.28-6.39,6.51-6.77,12.15-.31,4.63,4,6.22,2.88,10.87-.41,1.72-1.73,4.62-4.09,4.83S13.35,73.09,13.27,73A5.73,5.73,0,0,1,7,74.35c-2.58-1.26-3.81-5.24-1.76-8.54a7.73,7.73,0,0,1-3.72-4.27c-1.27-4.13,2-9.86,8.55-13a7.57,7.57,0,0,1,1.58-7.89,7.82,7.82,0,0,1,6.22-2.14Z"/><path class="cls-2" d="M71.61,34.42a12.17,12.17,0,0,1-3.72-.64,17.62,17.62,0,0,1-3.25-1.46,17,17,0,0,1-2.88-2.09,11.24,11.24,0,0,1-2.41-2.91,11.6,11.6,0,0,1,3.72.64,17.33,17.33,0,0,1,3.25,1.46,18.21,18.21,0,0,1,2.88,2.09A11.84,11.84,0,0,1,71.61,34.42Z"/><path class="cls-5" d="M67.13,31.82c2.79,1.89,6.23,4.87,6.22,8.54,0,3.32-2.89,4.13-3,7.54-.11,5.28,6.39,6.51,6.77,12.15.31,4.63-4,6.22-2.88,10.87.41,1.72,1.73,4.62,4.09,4.83s4.28-2.66,4.36-2.79a5.73,5.73,0,0,0,6.32,1.39c2.58-1.26,3.81-5.24,1.76-8.54a7.73,7.73,0,0,0,3.72-4.27c1.27-4.13-2-9.86-8.55-13a7.57,7.57,0,0,0-1.58-7.89,7.82,7.82,0,0,0-6.22-2.14Z"/><g class="cls-6"><path class="cls-7" d="M21.28,66.81a6,6,0,0,1,.44,4.1c-.41,1.73-1.73,4.63-4.09,4.84S13.35,73.1,13.26,73A5.74,5.74,0,0,1,7,74.36c-2.39-1.17-3.62-4.64-2.19-7.76A4.83,4.83,0,0,0,7,68.87a5.7,5.7,0,0,0,6.3-1.39c.09.13,1.91,3,4.37,2.79C19.43,70.11,20.62,68.38,21.28,66.81Z"/><path class="cls-7" d="M89.05,74.36A5.78,5.78,0,0,1,82.73,73c-.08.14-1.91,3-4.36,2.79s-3.68-3.11-4.09-4.84a6,6,0,0,1,.45-4.1c.65,1.57,1.85,3.3,3.64,3.46,2.45.22,4.28-2.66,4.36-2.79a5.74,5.74,0,0,0,6.32,1.39,4.86,4.86,0,0,0,2.18-2.27C92.66,69.72,91.43,73.19,89.05,74.36Z"/></g><path class="cls-8" d="M27.21,72.56a1.32,1.32,0,0,1-.61-.16,1.18,1.18,0,0,1-.62-1c0-20.53,9.88-37.19,22-37.19S70,50.83,70,71.32a1.16,1.16,0,0,1-.62,1.07,1.39,1.39,0,0,1-.62.16,1.34,1.34,0,0,1-.51-.11,53.17,53.17,0,0,0-40.54,0A1.35,1.35,0,0,1,27.21,72.56Z"/><path d="M48,35.31c5.35,0,10.47,3.59,14.41,10.12,4.17,6.88,6.46,16.07,6.46,25.89l0,.06-.07,0h-.06a54.25,54.25,0,0,0-41.45,0h-.06a.13.13,0,0,1-.09,0v-.06c0-9.82,2.3-19,6.46-25.89,4-6.53,9.07-10.12,14.43-10.12M48,33C35.22,33,24.84,50.17,24.84,71.32v0a2.32,2.32,0,0,0,1.22,2,2.39,2.39,0,0,0,1.15.29,2.33,2.33,0,0,0,1-.2,52,52,0,0,1,39.67,0,2.42,2.42,0,0,0,2.09-.1,2.28,2.28,0,0,0,1.23-2.05v0C71.16,50.17,60.8,33,48,33Z"/><path class="cls-9" d="M27.42,72.54c3.25-14.39,11.44-24,20.59-24s17.33,9.58,20.57,24a1.71,1.71,0,0,1-.3-.09,53.17,53.17,0,0,0-40.54,0A1.92,1.92,0,0,1,27.42,72.54Z"/><path d="M48,49.7c8.16,0,15.54,8.31,18.94,21a54.41,54.41,0,0,0-37.89,0c3.4-12.68,10.79-21,19-21m0-2.28c-10.18,0-18.85,10.88-21.94,26a2.42,2.42,0,0,0,2.11.09,52,52,0,0,1,39.66,0,2.43,2.43,0,0,0,.94.19,2.39,2.39,0,0,0,1.15-.29c-3.08-15.11-11.73-26-21.92-26Z"/></svg>