<svg id="图层_1" data-name="图层 1" xmlns="http://www.w3.org/2000/svg" xmlns:xlink="http://www.w3.org/1999/xlink" viewBox="0 0 96 96"><defs><style>.cls-1{fill:#fc5;}.cls-2{fill:#1c1c1c;}.cls-3{fill:#f95;}.cls-4{fill:none;stroke:#000;stroke-linecap:round;stroke-linejoin:round;stroke-width:2.4px;}.cls-5{opacity:0.5;}.cls-6{fill:url(#未命名的渐变_35);}</style><linearGradient id="未命名的渐变_35" x1="61.23" y1="45.92" x2="86.06" y2="71.05" gradientUnits="userSpaceOnUse"><stop offset="0" stop-color="#ee2d2c" stop-opacity="0"/><stop offset="1" stop-color="#0f1780"/></linearGradient></defs><title>打脸</title><path class="cls-1" d="M60,82.44a70.18,70.18,0,0,1-9.66.67,67.29,67.29,0,0,1-34.85-9.44L15,73.4l-.23-.46A60.69,60.69,0,0,1,13,22.41l.21-.52.47-.3A66.84,66.84,0,0,1,50.31,11,66.89,66.89,0,0,1,87,21.59l.46.3.22.52a60.69,60.69,0,0,1-1.78,50.53l-.23.46-.44.27a63.72,63.72,0,0,1-10.76,5.18L67.28,89.78Z"/><path class="cls-2" d="M50.31,12.83A65.34,65.34,0,0,1,86,23.1a58.89,58.89,0,0,1-1.73,49,61.86,61.86,0,0,1-11,5.24L67,86.93l-6.39-6.4a68,68,0,0,1-10.29.78A65.59,65.59,0,0,1,16.4,72.13a58.89,58.89,0,0,1-1.73-49A65.26,65.26,0,0,1,50.31,12.83m0-3.6a68.66,68.66,0,0,0-37.6,10.85l-.93.61-.43,1a62.51,62.51,0,0,0,1.83,52l.47.93.88.53a69.08,69.08,0,0,0,35.78,9.7,70.88,70.88,0,0,0,9-.57l5.12,5.14,3.13,3.14L70,88.91l5.61-8.58a66.17,66.17,0,0,0,10.52-5.12l.88-.54.46-.92a62.51,62.51,0,0,0,1.83-52l-.43-1-.93-.61A68.69,68.69,0,0,0,50.31,9.23Z"/><path class="cls-3" d="M90.5,45.72a58.4,58.4,0,0,1-6.25,26.41,61.14,61.14,0,0,1-11,5.23L67,86.93l-6.39-6.4a68,68,0,0,1-10.29.78A65.59,65.59,0,0,1,16.4,72.13c12.16,3.26,38,8.69,56.56-.86a25,25,0,0,0,5.55-3.73c14.11-12.65,8.94-38,7.47-44.44A58.5,58.5,0,0,1,90.5,45.72Z"/><path class="cls-1" d="M17.27,76.15c-3.18,0-7.48-2.52-9.4-8.07A68.67,68.67,0,0,1,4.13,38.4a.91.91,0,0,1,.42-.68A.9.9,0,0,1,5,37.58a1,1,0,0,1,.32.06,7.07,7.07,0,0,1,3.86,3.11,7,7,0,0,1,.65,4.17l-.06.73a.75.75,0,0,1,.2-.1.71.71,0,0,1,.32-.07.87.87,0,0,1,.54.19,7,7,0,0,1,2.89,5.11,28.08,28.08,0,0,0,9.59,19,.89.89,0,0,1,.26,1C23.18,72,21.89,75,19.08,75.87A5.67,5.67,0,0,1,17.27,76.15Z"/><path class="cls-2" d="M5,38.48a6.29,6.29,0,0,1,3.4,2.7A6.17,6.17,0,0,1,9,44.92a29.37,29.37,0,0,0,1.41,11.5l0,.12h0s0,0,0-.12A25.91,25.91,0,0,1,10,48.74c.09-.93.22-1.73.33-2.36l0,0a6.19,6.19,0,0,1,2.51,4.45,28.52,28.52,0,0,0,1.55,7.34,29.47,29.47,0,0,0,8.34,12.24c-.25.73-1.37,3.74-3.95,4.59a4.85,4.85,0,0,1-1.53.23c-3.11,0-6.88-2.65-8.55-7.47A67.71,67.71,0,0,1,5,38.48m0-1.8a1.82,1.82,0,0,0-1.79,1.64A69.38,69.38,0,0,0,7,68.39c1.75,5.09,6,8.66,10.24,8.66a6.87,6.87,0,0,0,2.09-.32c3.19-1,4.62-4.34,5.09-5.71a1.79,1.79,0,0,0-.51-1.94,27.75,27.75,0,0,1-7.83-11.49,27.22,27.22,0,0,1-1.46-6.88A8,8,0,0,0,11.42,45a1.72,1.72,0,0,0-.63-.29A7.53,7.53,0,0,0,10,40.32,8,8,0,0,0,5.67,36.8,1.82,1.82,0,0,0,5,36.68Z"/><line class="cls-4" x1="30.37" y1="34.73" x2="30.37" y2="39.38"/><line class="cls-4" x1="30.37" y1="39.38" x2="16.92" y2="39.38"/><line class="cls-4" x1="37.07" y1="34.73" x2="37.07" y2="39.38"/><line class="cls-4" x1="37.07" y1="39.38" x2="56.57" y2="39.38"/><line class="cls-4" x1="30.37" y1="45.78" x2="16.92" y2="45.78"/><line class="cls-4" x1="37.07" y1="45.78" x2="56.57" y2="45.78"/><circle cx="26.35" cy="47.02" r="2.39"/><circle cx="52.48" cy="47.02" r="2.39"/><path class="cls-1" d="M29.52,61.38A24.41,24.41,0,0,1,42.07,58a24,24,0,0,1,7.75,1.45"/><path class="cls-2" d="M28.62,59.83a25.66,25.66,0,0,1,10.76-2.58,23.84,23.84,0,0,1,10.44,2.23,22.79,22.79,0,0,0-19.39,3.46A1.81,1.81,0,1,1,28.34,60a2.07,2.07,0,0,1,.25-.15Z"/><g class="cls-5"><path class="cls-6" d="M90.49,45.72a58.42,58.42,0,0,1-6.24,26.41c-.53.33-1.08.64-1.62,1-1.09.61-2.21,1.2-3.35,1.75-.57.28-1.15.54-1.74.81-1.4.62-2.83,1.2-4.29,1.72L67,86.93l-6.38-6.4-1.26.17-1.26.17c-.85.09-1.69.18-2.56.24l-1.29.08c-1.3.09-2.59.12-3.91.12-.48,0-1,0-1.44,0h0c.15-1.58.37-3.14.61-4.67a95.57,95.57,0,0,1,2.64-11.82c5.36-18.27,18.06-35.14,29.73-44.14,1.42.76,2.79,1.59,4.12,2.45A58.27,58.27,0,0,1,90.49,45.72Z"/></g><path class="cls-1" d="M33.93,85.69a33.53,33.53,0,0,1-14.61-3.3C8.77,77.09,4.78,66.6,3.56,62.33a.9.9,0,0,1,.51-1.07,9,9,0,0,1,3.54-.83,5.39,5.39,0,0,1,2.17.43c1.94.84,2.72,2.56,3.53,4.37a21.38,21.38,0,0,0,1.09,2.2,13,13,0,0,0,4,4.14.29.29,0,0,0,.17.06.34.34,0,0,0,.26-.14.23.23,0,0,0,0-.24l-.15-.46a8.23,8.23,0,0,1-.31-2.92A2.06,2.06,0,0,1,20.49,66a2.09,2.09,0,0,1,1.66.81,42.44,42.44,0,0,0,11.59,10.4,49.26,49.26,0,0,0,6.18,3.11c2.18,1,3.39,1.48,3.19,2.71C42.78,85.12,37.18,85.69,33.93,85.69Z"/><path class="cls-2" d="M7.6,61.33a4.64,4.64,0,0,1,1.82.35c2.33,1,2.72,3.69,4.2,6.2a13.8,13.8,0,0,0,4.28,4.43,1.22,1.22,0,0,0,.68.22,1.19,1.19,0,0,0,1.13-1.59c-.05-.13-.09-.27-.14-.41a7.11,7.11,0,0,1-.27-2.59,1.19,1.19,0,0,1,2.14-.62A43.59,43.59,0,0,0,33.27,77.93c5.33,3.22,9.12,3.88,8.95,4.9s-3.59,2-8.29,2a32.25,32.25,0,0,1-14.21-3.21c-11-5.5-14.53-16.81-15.3-19.5a8.31,8.31,0,0,1,3.18-.75m0-1.8a9.84,9.84,0,0,0-3.89.9,1.81,1.81,0,0,0-1,2.15C4,67,8.05,77.74,18.92,83.19a34.34,34.34,0,0,0,15,3.4c2.23,0,9.57-.25,10.07-3.48.3-1.91-1.47-2.68-3.72-3.66a47.69,47.69,0,0,1-6.07-3.06A41.6,41.6,0,0,1,22.86,66.21,3,3,0,0,0,17.5,67.8a9.62,9.62,0,0,0,.07,2A11.48,11.48,0,0,1,15.17,67c-.39-.68-.72-1.4-1-2.1-.81-1.81-1.73-3.86-4-4.84a6.47,6.47,0,0,0-2.54-.5Z"/></svg>