<svg id="图层_1" data-name="图层 1" xmlns="http://www.w3.org/2000/svg" viewBox="0 0 96 96"><defs><style>.cls-1{fill:#1c1c1c;}.cls-2{fill:#ffcb55;}.cls-3{fill:#ff9855;}.cls-4,.cls-5{fill:#fff;}.cls-5{opacity:0.18;}</style></defs><title>弹出式摄像头</title><path class="cls-1" d="M46,15.48a65.83,65.83,0,0,0-27.4,6.67l-2.7-11.52a4.15,4.15,0,0,1,2.74-4.88A92.27,92.27,0,0,1,39.1,1.52,4.14,4.14,0,0,1,43.51,4.7Z"/><path class="cls-2" d="M57.64,85.06a70.14,70.14,0,0,1-9.65.66,67.36,67.36,0,0,1-34.85-9.43L12.7,76l-.24-.46A60.76,60.76,0,0,1,10.69,25l.21-.51.46-.3A66.83,66.83,0,0,1,48,13.65,66.87,66.87,0,0,1,84.64,24.21l.46.3.21.51a60.76,60.76,0,0,1-1.77,50.54l-.23.46-.44.26A63.46,63.46,0,0,1,72.1,81.47L65,92.39Z"/><path class="cls-1" d="M48,15.45A65.28,65.28,0,0,1,83.65,25.72a58.94,58.94,0,0,1-1.72,49,61.92,61.92,0,0,1-11,5.23l-6.26,9.57-6.38-6.41A66.8,66.8,0,0,1,48,83.92a65.62,65.62,0,0,1-33.92-9.17,58.94,58.94,0,0,1-1.72-49A65.21,65.21,0,0,1,48,15.45m0-3.6A68.61,68.61,0,0,0,10.38,22.7l-.93.6-.42,1a62.54,62.54,0,0,0,1.83,52.05l.46.92.89.54A69.14,69.14,0,0,0,48,87.52,72.77,72.77,0,0,0,57,87l5.11,5.13,3.13,3.14,2.43-3.71,5.62-8.58A64,64,0,0,0,83.8,77.82l.88-.53.46-.92a62.54,62.54,0,0,0,1.83-52l-.42-1-.93-.6A68.65,68.65,0,0,0,48,11.85Z"/><path class="cls-3" d="M88.17,48.34a58.52,58.52,0,0,1-6.24,26.41,61.92,61.92,0,0,1-11,5.23l-6.26,9.57-6.38-6.41A66.8,66.8,0,0,1,48,83.92a65.62,65.62,0,0,1-33.92-9.17c12.17,3.26,38,8.69,56.57-.86a25.52,25.52,0,0,0,5.54-3.73c14.11-12.65,8.95-38,7.47-44.44A58.28,58.28,0,0,1,88.17,48.34Z"/><path d="M80,59.57a15.07,15.07,0,0,1-2.7,10.17,17.71,17.71,0,0,1-3.83,4,19.76,19.76,0,0,1-4.86,2.57,56.61,56.61,0,0,1-10.23,3,61.86,61.86,0,0,1-10.61,1.07,64.11,64.11,0,0,1-10.63-.83,56.57,56.57,0,0,1-10.3-2.77,17.42,17.42,0,0,1-8.52-6.85A15.92,15.92,0,0,1,16,59.57a17.27,17.27,0,0,0,3.69,9.27,15.25,15.25,0,0,0,3.64,3.21,16.58,16.58,0,0,0,4.36,2,66.41,66.41,0,0,0,9.9,2.06,65.35,65.35,0,0,0,10.08.6,62.94,62.94,0,0,0,10.07-.82,68.79,68.79,0,0,0,9.87-2.27l1.21-.4L70,72.82l1.09-.51,1.06-.57A16.28,16.28,0,0,0,80,59.57Z"/><circle class="cls-4" cx="30.26" cy="10.52" r="5.84"/><path d="M30.26,5.28A5.24,5.24,0,1,1,25,10.52a5.25,5.25,0,0,1,5.24-5.24m0-1.2a6.44,6.44,0,1,0,6.44,6.44,6.44,6.44,0,0,0-6.44-6.44Z"/><path d="M30.26,13.41a2.89,2.89,0,1,1,2.89-2.89A2.89,2.89,0,0,1,30.26,13.41Z"/><path d="M30.26,8.83a1.69,1.69,0,1,1-1.68,1.69,1.69,1.69,0,0,1,1.68-1.69m0-2.4a4.09,4.09,0,1,0,4.09,4.09,4.09,4.09,0,0,0-4.09-4.09Z"/><path class="cls-4" d="M27.35,10.52H28.5a1.76,1.76,0,0,1,1.76-1.76V7.61A2.92,2.92,0,0,0,27.35,10.52Z"/><path class="cls-5" d="M33.17,10.52H32a1.76,1.76,0,0,1-1.76,1.76v1.15A2.91,2.91,0,0,0,33.17,10.52Z"/></svg>