<svg id="图层_1" data-name="图层 1" xmlns="http://www.w3.org/2000/svg" viewBox="0 0 96 96"><defs><style>.cls-1{fill:#fd3c41;}.cls-2{fill:#ff9501;}.cls-3{fill:#e8220f;}.cls-4{fill:#f67b02;}.cls-5{fill:#fcf79c;}.cls-6{fill:#fcdc82;}.cls-7{fill:#fc9024;}.cls-8{fill:#ffe101;}</style></defs><title>蛋糕</title><path d="M48.62,19.64a2.39,2.39,0,0,0,1.53,3.81,2.85,2.85,0,0,1-2.4,3h0a.82.82,0,0,1-.22,0,.22.22,0,0,1-.11,0A3,3,0,0,1,45.16,24c-.3-1.64,1.06-3.59,3.46-4.39m0-1.5a1.49,1.49,0,0,0-.47.07c-3,1-4.92,3.62-4.47,6.09A4.49,4.49,0,0,0,47,27.9a1.86,1.86,0,0,0,.28.05,2.19,2.19,0,0,0,.4,0l.23,0a4.32,4.32,0,0,0,3.72-4.52A1.5,1.5,0,0,0,50.4,22a1,1,0,0,1-.7-.53,1.08,1.08,0,0,1,.13-.92,1.49,1.49,0,0,0,0-1.74,1.5,1.5,0,0,0-1.23-.64Zm0,3h0Z"/><path d="M47.33,26.78c1.83,0,3.3.69,3.3,1.56l-.3,5.46c12.52.35,22.41,3.38,23,7.13h0a16.55,16.55,0,0,1,.78,7.3,14.65,14.65,0,0,1-.38,5.69,13.91,13.91,0,0,1-1.69,3.85,4.84,4.84,0,0,1,.08.92v4.54c0,6.81-10.85,12.32-24.22,12.32S23.69,70.05,23.69,63.24V58.7a6.61,6.61,0,0,1,.45-2.38,10.55,10.55,0,0,1-1.34-2.08,11.88,11.88,0,0,1-.9-6.81,15,15,0,0,1,.58-6.52l0-.12c.79-3.58,10-6.46,21.81-6.95L44,28.34c0-.87,1.49-1.56,3.32-1.56m0-1.5c-2.84,0-4.82,1.26-4.82,3.06v.08l.22,4c-9.64.58-20.57,3-21.69,8v0a16.6,16.6,0,0,0-.66,6.94,13.2,13.2,0,0,0,1.07,7.46,13.79,13.79,0,0,0,1,1.71,7.85,7.85,0,0,0-.28,2.09v4.54c0,7.75,11.3,13.82,25.72,13.82S73.63,71,73.63,63.24V58.7a5.17,5.17,0,0,0,0-.57,15.74,15.74,0,0,0,1.59-3.81,16,16,0,0,0,.44-6.08,17.91,17.91,0,0,0-.83-7.65c-1-5.05-11.9-7.72-22.89-8.23l.22-3.94v-.08c0-1.8-2-3.06-4.8-3.06Z"/><path class="cls-1" d="M86.61,65.37A10.55,10.55,0,0,1,86,69a13.7,13.7,0,0,1-2,3.62c-5.69,7.3-19.68,12.46-36,12.46s-30.35-5.16-36-12.46A13.2,13.2,0,0,1,9.77,69a10.55,10.55,0,0,1-.66-3.64c0-10.88,17.35-19.71,38.75-19.71S86.61,54.49,86.61,65.37Z"/><path class="cls-2" d="M87.86,36.91q-1.33,12.68-2.77,26.24h0C84,73.31,68,81.55,47.86,81.55c-20.6,0-36.83-8.6-37.28-19C9.67,53.59,8.79,45,7.94,36.7Q47.89,36.82,87.86,36.91Z"/><path class="cls-3" d="M86.61,65.37v7.26c0,10.88-17.35,19.71-38.75,19.71S9.11,83.51,9.11,72.63V65.37A10.55,10.55,0,0,0,9.77,69a13.2,13.2,0,0,0,2.06,3.62c5.68,7.3,19.67,12.46,36,12.46s30.35-5.16,36-12.46A13.7,13.7,0,0,0,86,69,10.55,10.55,0,0,0,86.61,65.37Z"/><path class="cls-4" d="M7.23,42.87c-.85,2.75-2.47,9.36.46,15.35,1.64,3.35,4.89,6.88,6.65,6.17,1-.4.76-1.85,2.41-3.89.55-.68,2.31-2.85,3.87-2.76,3.49.21,3.58,11.55,7.53,12.43,3.6.81,6.35-8,10.54-7.32,4,.6,4.5,8.88,7.73,9,4,.18,6.57-12.13,9.36-11.62,2.49.45,3,10.68,4.52,10.6.75,0,1-2.52,1.86-2.51,1,0,1.29,3.78,2.13,3.86,1.65.15,3.19-14.35,5.22-14.36s3.16,16,5.49,16.09,4.14-16.16,6.11-16c1.32.11,1.1,7.33,3.1,7.71,1.66.32,4-4.23,5-7.93a25.47,25.47,0,0,0-.65-14.6c-2-.49-4.1-1-6.2-1.37C55.51,36.36,30.07,37.88,7.23,42.87Z"/><path class="cls-5" d="M7.23,36.7c-.85,2.75-2.47,9.36.46,15.36,1.64,3.34,4.89,6.88,6.65,6.16,1-.4.76-1.84,2.41-3.89.55-.67,2.31-2.85,3.87-2.76,3.49.21,3.58,11.55,7.53,12.44,3.6.8,6.35-8,10.54-7.33,4,.61,4.5,8.88,7.73,9,4,.18,6.57-12.13,9.36-11.62,2.49.45,3,10.69,4.52,10.6.75,0,1-2.52,1.86-2.51,1,0,1.29,3.78,2.13,3.86,1.65.15,3.19-14.34,5.22-14.36S72.67,67.73,75,67.76s4.14-16.15,6.11-16c1.32.1,1.1,7.32,3.1,7.71,1.66.31,4-4.24,5-7.94a25.48,25.48,0,0,0-.65-14.6c-2-.49-4.1-.94-6.2-1.36C55.51,30.19,30.07,31.72,7.23,36.7Z"/><ellipse class="cls-6" cx="47.86" cy="37.5" rx="40.73" ry="12.05"/><path class="cls-3" d="M46.93,40.08h0a4.2,4.2,0,0,1-4.2-4l-1.1-19.33h10.6l-1.1,19.33A4.21,4.21,0,0,1,46.93,40.08Z"/><path class="cls-7" d="M49,2.86c-3.85,1.28-6,4.41-5.54,7,.32,1.77,2,4,4.14,3.91,2-.11,3.87-2.15,3.85-4.83a4.06,4.06,0,0,1-2.93-2.31A4.08,4.08,0,0,1,49,2.86Z"/><path class="cls-8" d="M48.31,7.63c-2.17.72-3.39,2.49-3.12,4,.18,1,1.1,2.27,2.33,2.2a2.57,2.57,0,0,0,2.17-2.73A2.28,2.28,0,0,1,48,9.78,2.32,2.32,0,0,1,48.31,7.63Z"/><ellipse class="cls-1" cx="46.93" cy="16.78" rx="5.3" ry="2.51"/></svg>