<svg id="图层_1" data-name="图层 1" xmlns="http://www.w3.org/2000/svg" viewBox="0 0 96 96"><defs><style>.cls-1{fill:#fc5;}.cls-2{fill:#1c1c1c;}.cls-3{fill:#f95;}.cls-4{fill:#fff;}</style></defs><title>打你脸</title><path class="cls-1" d="M54.38,82.44a70.15,70.15,0,0,1-9.65.67A67.24,67.24,0,0,1,9.88,73.67l-.45-.27-.23-.46A60.79,60.79,0,0,1,7.42,22.41l.22-.52.46-.3A66.88,66.88,0,0,1,44.73,11,66.89,66.89,0,0,1,81.37,21.59l.47.3.21.52a60.69,60.69,0,0,1-1.78,50.53L80,73.4l-.44.27a63.72,63.72,0,0,1-10.76,5.18L61.69,89.78Z"/><path class="cls-2" d="M44.73,12.83A65.33,65.33,0,0,1,80.39,23.1a58.94,58.94,0,0,1-1.72,49,62.29,62.29,0,0,1-11,5.24L61.4,86.93,55,80.53a67.84,67.84,0,0,1-10.28.78,65.62,65.62,0,0,1-33.92-9.18,59,59,0,0,1-1.73-49A65.27,65.27,0,0,1,44.73,12.83m0-3.6A68.67,68.67,0,0,0,7.12,20.08l-.93.61-.43,1a62.61,62.61,0,0,0,1.83,52l.47.93.89.53a69,69,0,0,0,35.78,9.7,70.84,70.84,0,0,0,9-.57l5.12,5.14L62,92.62l2.43-3.71L70,80.33a65.65,65.65,0,0,0,10.51-5.12l.88-.54.46-.92a62.51,62.51,0,0,0,1.83-52l-.43-1-.92-.61A68.74,68.74,0,0,0,44.73,9.23Z"/><path class="cls-3" d="M84.91,45.72a58.52,58.52,0,0,1-6.24,26.41,61.56,61.56,0,0,1-11,5.23L61.4,86.93,55,80.53a67.84,67.84,0,0,1-10.28.78,65.62,65.62,0,0,1-33.92-9.18c12.17,3.26,38,8.69,56.56-.86a25,25,0,0,0,5.55-3.73c14.11-12.65,8.94-38,7.47-44.44A58.32,58.32,0,0,1,84.91,45.72Z"/><circle cx="15.91" cy="30.79" r="1.64"/><circle cx="33.41" cy="25.75" r="2.04"/><path d="M42.81,73.86A32.58,32.58,0,0,1,36,59.51a33.58,33.58,0,0,1-.7-8.07A35,35,0,0,1,49.92,23.75a34.08,34.08,0,0,1,7-3.76,49.55,49.55,0,0,0-6.28,4.69,41.3,41.3,0,0,0-5.25,5.66,38.37,38.37,0,0,0-4,6.52A34.32,34.32,0,0,0,38.73,44c-.36,1.22-.57,2.47-.81,3.73s-.34,2.52-.38,3.8a37,37,0,0,0,.28,7.65A42,42,0,0,0,42.81,73.86Z"/><path class="cls-4" d="M64.38,74a12,12,0,0,0-4.77-11.69,11.18,11.18,0,0,0-6.35-1.9h-.41a20.42,20.42,0,0,0,7.23-9.76,27.4,27.4,0,0,0,.71-11.62c2.41,3.69,4.63,4.68,6.26,4.74h.18c4.63,0,9.32-6.82,13-18.64.13,6.54,1.67,10.82,4.43,11.7a3.63,3.63,0,0,0,1.11.17,5.43,5.43,0,0,0,2.12-.48,25.75,25.75,0,0,0,3,29.88,29.13,29.13,0,0,0-6.58-.75,28.05,28.05,0,0,0-20,8.33Z"/><path d="M79.68,29.62c.55,3.89,1.9,7.2,4.75,8.12a4.48,4.48,0,0,0,1.38.21l.4,0a26.54,26.54,0,0,0,2.53,27.19,30.63,30.63,0,0,0-4.38-.32,28.91,28.91,0,0,0-19,7A12.63,12.63,0,0,0,60.12,61.6a11.7,11.7,0,0,0-5-1.92A20.36,20.36,0,0,0,60.94,51a25.66,25.66,0,0,0,1-8.91A7.44,7.44,0,0,0,67,44.71h.22c5.43,0,9.6-7.44,12.45-15.1m2-13.19c-3.71,16-9.25,26.49-14.48,26.49h-.15c-1.21,0-4.67-.74-8.46-10.15l0-.09c-.07,0,3.17,9.9.64,17.74-2,6.24-7.41,10.05-11.36,12.21a12.3,12.3,0,0,1,5.4-1.28,10.33,10.33,0,0,1,5.84,1.74c4.31,3,5.89,9.33,3.13,14.82a27.91,27.91,0,0,1,13.31-9.84,27,27,0,0,1,8.82-1.46A28.37,28.37,0,0,1,94,68.3a25.68,25.68,0,0,1-8.58-17.17,25.78,25.78,0,0,1,6.65-18.86c-3.14,3.27-5.18,3.88-6.3,3.88A2.55,2.55,0,0,1,85,36c-3.39-1.08-4.64-8.84-3.27-19.59Z"/><path d="M15.7,56.12a34.62,34.62,0,0,1,10.43-1.88,33.16,33.16,0,0,1,10.32,1.4,32.27,32.27,0,0,0-19.84,2.71,1.2,1.2,0,1,1-1-2.17l.12,0Z"/></svg>