<svg id="图层_1" data-name="图层 1" xmlns="http://www.w3.org/2000/svg" viewBox="0 0 96 96"><defs><style>.cls-1{fill:#ffcb55;}.cls-2{fill:#1c1c1c;}.cls-3{fill:#ff9855;}.cls-4{fill:none;stroke:#1c1c1c;stroke-linecap:round;stroke-linejoin:round;stroke-width:3.6px;}.cls-5{fill:#fff;}</style></defs><title>烦</title><path class="cls-1" d="M57.64,82.71a68.61,68.61,0,0,1-9.65.67,67.27,67.27,0,0,1-34.85-9.44l-.44-.26-.24-.47a60.74,60.74,0,0,1-1.77-50.53l.21-.51.46-.31A66.9,66.9,0,0,1,48,11.31,66.94,66.94,0,0,1,84.64,21.86l.46.31.21.51a60.74,60.74,0,0,1-1.77,50.53l-.23.46-.44.27A63.43,63.43,0,0,1,72.1,79.12L65,90.05Z"/><path class="cls-2" d="M48,13.11A65.36,65.36,0,0,1,83.65,23.37a58.94,58.94,0,0,1-1.72,49,61.27,61.27,0,0,1-11,5.24l-6.26,9.57L58.28,80.8A68.07,68.07,0,0,1,48,81.58,65.62,65.62,0,0,1,14.07,72.4a58.94,58.94,0,0,1-1.72-49A65.29,65.29,0,0,1,48,13.11m0-3.6A68.61,68.61,0,0,0,10.38,20.36l-.93.6L9,22a62.51,62.51,0,0,0,1.83,52l.46.93.89.53A69.05,69.05,0,0,0,48,85.18a72.77,72.77,0,0,0,9-.56l5.11,5.13,3.13,3.14,2.43-3.71,5.62-8.58A65.65,65.65,0,0,0,83.8,75.48l.88-.54.46-.92A62.51,62.51,0,0,0,87,22l-.42-1-.93-.6A68.65,68.65,0,0,0,48,9.51Z"/><path class="cls-3" d="M88.17,46a58.51,58.51,0,0,1-6.24,26.4,62,62,0,0,1-11,5.24L64.66,87.2l-6.38-6.4A68.07,68.07,0,0,1,48,81.58,65.62,65.62,0,0,1,14.07,72.4c12.17,3.27,38,8.69,56.57-.86a25.17,25.17,0,0,0,5.54-3.73c14.11-12.65,8.95-38,7.47-44.44A58.33,58.33,0,0,1,88.17,46Z"/><polyline class="cls-4" points="81 33.14 79.16 34.2 73.55 37.44 59.99 45.27 54.39 48.5 52.89 49.37"/><path class="cls-5" d="M67,54.34a13.15,13.15,0,0,1-10.87-5.78L78.71,35.5A13.1,13.1,0,0,1,67,54.34Z"/><path class="cls-2" d="M78.29,36.78A12.19,12.19,0,0,1,57.41,48.84L78.29,36.78m.77-2.52-24.22,14a14,14,0,0,0,24.22-14Z"/><path class="cls-2" d="M67,48.55a7.33,7.33,0,0,1-6.13-3.34l12.62-7.29A7.31,7.31,0,0,1,67,48.55Z"/><path class="cls-2" d="M73.29,38.44a7,7,0,0,1-2.87,8.82,6.92,6.92,0,0,1-9.07-1.93l11.94-6.89m.3-1L60.32,45.08A7.67,7.67,0,0,0,67,48.92a7.56,7.56,0,0,0,3.82-1,7.66,7.66,0,0,0,2.81-10.47Z"/><path class="cls-5" d="M69.43,42a1.77,1.77,0,1,1-3.06,1.76Z"/><line class="cls-4" x1="52.89" y1="49.37" x2="51.31" y2="46.63"/><polyline class="cls-4" points="43.11 49.37 41.61 48.5 36.01 45.27 22.45 37.44 16.84 34.2 15 33.14"/><path class="cls-5" d="M29,54.34A13.1,13.1,0,0,1,17.29,35.5L39.91,48.56A13.15,13.15,0,0,1,29,54.34Z"/><path class="cls-2" d="M17.71,36.78,38.59,48.84A12.17,12.17,0,0,1,23,51.8a12.18,12.18,0,0,1-5.25-15m-.77-2.52a14,14,0,1,0,24.22,14l-24.22-14Z"/><path class="cls-2" d="M29,48.55a7.31,7.31,0,0,1-6.49-10.63l12.62,7.29A7.33,7.33,0,0,1,29,48.55Z"/><path class="cls-2" d="M22.71,38.44l11.94,6.89a6.93,6.93,0,0,1-11.94-6.89m-.3-1a7.66,7.66,0,0,0,2.81,10.47,7.56,7.56,0,0,0,3.82,1,7.67,7.67,0,0,0,6.64-3.84L22.41,37.42Z"/><path class="cls-5" d="M26.57,42a1.77,1.77,0,0,0,3.06,1.76Z"/><line class="cls-4" x1="43.11" y1="49.37" x2="44.69" y2="46.63"/><path class="cls-4" d="M19.88,67.67A85.16,85.16,0,0,1,48,63.23a85.16,85.16,0,0,1,28.12,4.44"/></svg>