<svg id="图层_1" data-name="图层 1" xmlns="http://www.w3.org/2000/svg" viewBox="0 0 96 96"><defs><style>.cls-1{fill:#ee2d2c;}.cls-2{fill:#1c1c1c;}.cls-3{fill:#be0000;}.cls-4{fill:#fff;}.cls-5{fill:none;stroke:#1c1c1c;stroke-miterlimit:10;stroke-width:1.8px;}</style></defs><title>愤怒</title><path class="cls-1" d="M57.64,84.3A70.15,70.15,0,0,1,48,85a67.36,67.36,0,0,1-34.85-9.44l-.44-.27-.24-.46a60.76,60.76,0,0,1-1.77-50.54l.21-.51.46-.3A66.83,66.83,0,0,1,48,12.89,66.87,66.87,0,0,1,84.64,23.45l.46.3.21.51A60.76,60.76,0,0,1,83.54,74.8l-.23.46-.45.27A63.35,63.35,0,0,1,72.1,80.71L65,91.63Z"/><path class="cls-2" d="M48,14.69A65.28,65.28,0,0,1,83.65,25a58.94,58.94,0,0,1-1.72,49,62,62,0,0,1-11,5.24l-6.26,9.56-6.38-6.4A68.07,68.07,0,0,1,48,83.17,65.62,65.62,0,0,1,14.07,74a58.94,58.94,0,0,1-1.72-49A65.21,65.21,0,0,1,48,14.69m0-3.6A68.61,68.61,0,0,0,10.38,21.94l-.93.61-.42,1a62.51,62.51,0,0,0,1.83,52l.46.93.89.53A69.15,69.15,0,0,0,48,86.77a70.88,70.88,0,0,0,9-.57l5.11,5.13,3.13,3.15,2.43-3.72,5.62-8.57A64.84,64.84,0,0,0,83.8,77.06l.88-.53.46-.92a62.51,62.51,0,0,0,1.83-52l-.42-1-.93-.61A68.65,68.65,0,0,0,48,11.09Z"/><path class="cls-3" d="M88.17,47.58A58.52,58.52,0,0,1,81.93,74a61.92,61.92,0,0,1-11,5.23l-6.26,9.57-6.38-6.41A66.8,66.8,0,0,1,48,83.16,65.62,65.62,0,0,1,14.07,74c12.17,3.26,38,8.69,56.57-.86a25.52,25.52,0,0,0,5.54-3.73c14.11-12.65,8.95-38,7.47-44.44A58.28,58.28,0,0,1,88.17,47.58Z"/><circle class="cls-2" cx="32.25" cy="33.66" r="3.42"/><circle class="cls-2" cx="60.07" cy="27.88" r="2.85"/><path class="cls-2" d="M9.64,14.9a12.13,12.13,0,0,1,7.9-7.2A20.64,20.64,0,0,1,23,11c5.81,5,7,12,11.73,14.11a4.51,4.51,0,0,0,3.75.35A3.4,3.4,0,0,0,40,24l1.19,1.27A5.21,5.21,0,0,1,38.29,29a5.06,5.06,0,0,1-5.95-2.05c-2.68-3.5-9.61-11.49-19.6-12.06A20.36,20.36,0,0,0,9.64,14.9Z"/><path class="cls-2" d="M75.39,12a11,11,0,0,0-7.73-5.76,18.21,18.21,0,0,0-4.61,3.48c-4.77,5-5.23,11.37-9.28,13.72a4.1,4.1,0,0,1-3.34.65A3.11,3.11,0,0,1,49,22.87l-1,1.24a4.7,4.7,0,0,0,2.92,3.05,4.58,4.58,0,0,0,5.16-2.37c2.09-3.38,7.6-11.17,16.52-12.58A17.54,17.54,0,0,1,75.39,12Z"/><path class="cls-4" d="M19.57,73.15a6.55,6.55,0,0,1-6.18-5.36L12.83,65A6.82,6.82,0,0,1,17,57.21L68.5,38a8.8,8.8,0,0,1,3.1-.57,9,9,0,0,1,6.58,2.95,9.39,9.39,0,0,1,2.44,7.24l-1.75,21a6.64,6.64,0,0,1-6.48,6.15Z"/><path class="cls-2" d="M71.6,38.65h0a7.78,7.78,0,0,1,5.7,2.56,8.25,8.25,0,0,1,2.13,6.33L77.79,67.08l-.11,1.42a5.43,5.43,0,0,1-5.29,5h-.16L46,72.75,19.61,72a5.34,5.34,0,0,1-5-4.4L14,64.74v-.06a5.59,5.59,0,0,1,3.41-6.34l25.76-9.6,25.76-9.6a7.83,7.83,0,0,1,2.68-.49m0-2.4a10.29,10.29,0,0,0-3.52.64L16.56,56.09a8,8,0,0,0-4.92,9.06v.06L12.21,68a7.79,7.79,0,0,0,7.33,6.33L72.16,76h.23a7.8,7.8,0,0,0,7.68-7.25q.87-10.48,1.75-21A10.47,10.47,0,0,0,71.6,36.25Z"/><path class="cls-5" d="M11.83,66.09c12.36-2.82,25.8-5.35,40.24-7.31,9.8-1.33,19.21-2.29,28.17-3"/><path class="cls-5" d="M25.81,53.2a76.65,76.65,0,0,1,2.41,10.71A74.66,74.66,0,0,1,29,74.64"/><path class="cls-5" d="M43.23,47l3.93,27.68"/><path class="cls-5" d="M61.62,40.1a113.18,113.18,0,0,1,4,16.74A112.83,112.83,0,0,1,67,75.35"/></svg>