<svg id="图层_1" data-name="图层 1" xmlns="http://www.w3.org/2000/svg" viewBox="0 0 96 96"><defs><style>.cls-1{fill:#662412;}.cls-2{fill:#fff;}.cls-3{fill:#1c1c1c;}.cls-4{fill:#f45d5d;}.cls-5{fill:#ee2d2c;}</style></defs><title>狗头</title><path class="cls-1" d="M23.19,61.37A51.21,51.21,0,0,1,7.05,58.78a7.87,7.87,0,0,1-5.38-7.51A51.29,51.29,0,0,1,20.14,11.8,8,8,0,0,1,25.21,10a7.79,7.79,0,0,1,2.75.5A51.39,51.39,0,0,1,58.16,40.7a8.08,8.08,0,0,1-2.46,9.08A51.48,51.48,0,0,1,23.19,61.37Z"/><path d="M25.21,11.59a6.09,6.09,0,0,1,2.18.4A49.87,49.87,0,0,1,56.63,41.27a6.46,6.46,0,0,1-2,7.25A49.46,49.46,0,0,1,23.19,59.74,49.59,49.59,0,0,1,7.56,57.23a6.26,6.26,0,0,1-4.26-6A49.64,49.64,0,0,1,21.19,13.05a6.29,6.29,0,0,1,4-1.46m0-3.26h0a9.54,9.54,0,0,0-6.11,2.22A52.93,52.93,0,0,0,0,51.27a9.51,9.51,0,0,0,6.5,9.06A53,53,0,0,0,23.19,63,53.09,53.09,0,0,0,56.73,51a9.72,9.72,0,0,0,3-10.91A53,53,0,0,0,28.53,8.93a9.38,9.38,0,0,0-3.32-.6Z"/><path class="cls-1" d="M72.81,61.37A51.48,51.48,0,0,1,40.3,49.78a8.1,8.1,0,0,1-2.46-9.08A51.39,51.39,0,0,1,68,10.46a7.79,7.79,0,0,1,2.75-.5,8,8,0,0,1,5.07,1.84A51.29,51.29,0,0,1,94.33,51.27,7.87,7.87,0,0,1,89,58.78,51.21,51.21,0,0,1,72.81,61.37Z"/><path d="M70.79,11.59a6.29,6.29,0,0,1,4,1.46A49.64,49.64,0,0,1,92.7,51.27a6.26,6.26,0,0,1-4.26,6,49.59,49.59,0,0,1-15.63,2.51A49.46,49.46,0,0,1,41.34,48.52a6.46,6.46,0,0,1-2-7.25A49.87,49.87,0,0,1,68.61,12a6.09,6.09,0,0,1,2.18-.4m0-3.26a9.38,9.38,0,0,0-3.32.6,53,53,0,0,0-31.16,31.2,9.72,9.72,0,0,0,3,10.91A53.09,53.09,0,0,0,72.81,63a53,53,0,0,0,16.65-2.67A9.51,9.51,0,0,0,96,51.27,52.93,52.93,0,0,0,76.9,10.55a9.54,9.54,0,0,0-6.11-2.22Z"/><path class="cls-2" d="M48,82.07c-21.13,0-38.31-10.85-38.31-24.18,0-6.17,3.57-12,10.1-16.43-.05-.66-.07-1.32-.07-2a28.28,28.28,0,0,1,56.56,0c0,.64,0,1.3-.07,2,6.53,4.46,10.1,10.26,10.1,16.43C86.31,71.22,69.13,82.07,48,82.07Z"/><path class="cls-3" d="M48,12.85A26.65,26.65,0,0,1,74.65,39.5a25.8,25.8,0,0,1-.15,2.79c6.32,4.05,10.18,9.55,10.18,15.6,0,12.45-16.42,22.54-36.68,22.54S11.32,70.34,11.32,57.89c0-6,3.86-11.55,10.18-15.6a25.8,25.8,0,0,1-.15-2.79A26.65,26.65,0,0,1,48,12.85m0-3.26A29.94,29.94,0,0,0,18.09,39.5c0,.38,0,.76,0,1.15-6.5,4.7-10.06,10.76-10.06,17.24,0,7.19,4.37,13.84,12.3,18.72C27.79,81.18,37.61,83.7,48,83.7s20.21-2.52,27.65-7.09c7.93-4.88,12.29-11.53,12.29-18.72,0-6.48-3.55-12.54-10-17.24,0-.39,0-.77,0-1.15A29.94,29.94,0,0,0,48,9.59Z"/><path class="cls-1" d="M60.08,28.28c-4.66-.81-10,5.09-11.49,10.93-.33,1.32-1.39,5.47.8,9.48,3.38,6.18,12.69,8.77,17.5,5.34,2.13-1.52,3.88-4.58,3.27-7.19-.65-2.77-3.33-2.36-5.07-5.52C62.71,37,66,33,63.17,30A5.89,5.89,0,0,0,60.08,28.28Z"/><path d="M49.1,69.42a2.2,2.2,0,0,1-.64,1.42,3.88,3.88,0,0,1-.88.67,9.13,9.13,0,0,1-1.7.68,22.11,22.11,0,0,1-3.32.65,41.32,41.32,0,0,1-6.57.22,41.64,41.64,0,0,1-6.49-.76,20.35,20.35,0,0,1-3.14-.88,9.09,9.09,0,0,1-1.47-.72A1.81,1.81,0,0,1,24,69.42a1.73,1.73,0,0,0,1,1.16,7.93,7.93,0,0,0,1.49.58,20.74,20.74,0,0,0,3.14.61A42.75,42.75,0,0,0,36,72a41.34,41.34,0,0,0,6.31-.75,19.51,19.51,0,0,0,3-.84,6.17,6.17,0,0,0,1.26-.63,1.9,1.9,0,0,0,.38-.33c.09-.1,0-.11,0,0a1.09,1.09,0,1,1,2.17,0Z"/><path d="M49.07,69.42c0-.1-.06-.09,0,0a1.9,1.9,0,0,0,.38.33,6.17,6.17,0,0,0,1.26.63,19.51,19.51,0,0,0,3,.84A41.34,41.34,0,0,0,60,72a42.75,42.75,0,0,0,6.4-.21,20.74,20.74,0,0,0,3.14-.61A7.93,7.93,0,0,0,71,70.58a1.73,1.73,0,0,0,1-1.16,1.81,1.81,0,0,1-.93,1.28,9.09,9.09,0,0,1-1.47.72,20.35,20.35,0,0,1-3.14.88,41.64,41.64,0,0,1-6.49.76,41.32,41.32,0,0,1-6.57-.22,22.11,22.11,0,0,1-3.32-.65,9.13,9.13,0,0,1-1.7-.68,3.88,3.88,0,0,1-.88-.67,2.2,2.2,0,0,1-.64-1.42,1.09,1.09,0,1,1,2.17,0Z"/><path class="cls-4" d="M48,87.32c-3.54,0-6.62-6.19-7.08-14,2.4-.27,5.47-.84,7.08-2,1.61,1.2,4.68,1.77,7.08,2C54.62,81.13,51.54,87.32,48,87.32Z"/><path d="M48,72.59a17,17,0,0,0,5.92,1.7c-.64,7.13-3.48,11.94-5.92,11.94s-5.28-4.81-5.92-11.94A17,17,0,0,0,48,72.59m0-3c-.26,1.29-3.62,2.38-8.21,2.78.26,9,3.84,16,8.21,16s8-7.1,8.21-16c-4.59-.4-8-1.49-8.21-2.78Z"/><path d="M37.75,45.48c0,3.1-1.18,5.61-2.63,5.61s-2.62-2.51-2.62-5.61,1.17-5.61,2.62-5.61S37.75,42.38,37.75,45.48Z"/><path d="M61.49,45.48c0,3.1-1.18,5.61-2.63,5.61s-2.63-2.51-2.63-5.61,1.18-5.61,2.63-5.61S61.49,42.38,61.49,45.48Z"/><path class="cls-2" d="M60.38,43.47c0,1.3-.49,2.35-1.1,2.35s-1.1-1-1.1-2.35.49-2.36,1.1-2.36S60.38,42.17,60.38,43.47Z"/><path class="cls-5" d="M48,68.31a5.55,5.55,0,0,1-2.19-.41c-3-1.29-5.1-3-6.2-4.9a.38.38,0,0,1,0-.41,2.61,2.61,0,0,1,1.88-1,35.36,35.36,0,0,1,13.08,0,2.61,2.61,0,0,1,1.88,1,.38.38,0,0,1,0,.41c-1.1,1.92-3.25,3.61-6.2,4.9A5.55,5.55,0,0,1,48,68.31Z"/><path class="cls-3" d="M48,61.75a33.3,33.3,0,0,1,6.39.6,2.8,2.8,0,0,1,1.17.46,12.63,12.63,0,0,1-5.7,4.34,5.12,5.12,0,0,1-3.72,0,12.63,12.63,0,0,1-5.7-4.34,2.8,2.8,0,0,1,1.17-.46,33.3,33.3,0,0,1,6.39-.6m0-1.63a35,35,0,0,0-6.7.63c-2,.38-3,1.57-2.4,2.66a13.83,13.83,0,0,0,6.59,5.24,6.8,6.8,0,0,0,5,0,13.83,13.83,0,0,0,6.59-5.24c.63-1.09-.43-2.28-2.4-2.66a35,35,0,0,0-6.7-.63Z"/><polygon points="49.09 71.32 48 83.31 46.91 71.32 49.09 71.32"/></svg>