<svg id="图层_1" data-name="图层 1" xmlns="http://www.w3.org/2000/svg" viewBox="0 0 96 96"><defs><style>.cls-1,.cls-3{fill:#ffcf66;}.cls-1{stroke:#1c1c1c;stroke-miterlimit:10;stroke-width:3.55px;}.cls-2{fill:#ffed98;}.cls-4{fill:#1c1c1c;}.cls-5{fill:#e4ca5c;}.cls-6{fill:#e19244;}.cls-7{fill:#ffb566;}.cls-8{fill:#fff;}.cls-9{fill:none;stroke:#000;stroke-linecap:round;stroke-linejoin:round;stroke-width:2.37px;}</style></defs><title>狗头斜眼</title><path class="cls-1" d="M31.7,18.51A26.91,26.91,0,0,0,15.16,8.38a25,25,0,0,0-.89,4,27,27,0,0,0,1.25,12.22A31.41,31.41,0,0,1,31.7,18.51Z"/><path class="cls-2" d="M91.05,52.09a57.31,57.31,0,0,1-6,21.69,59.81,59.81,0,0,1-10.85,5.16L68,88.38l-6.29-6.32a65.88,65.88,0,0,1-10.13.77,64.53,64.53,0,0,1-33.42-9,56.73,56.73,0,0,1-5.46-17.05C22,47.65,30.14,45.1,36.4,44.79c15.37-.73,23.41,12,40.5,11.09A36.44,36.44,0,0,0,91.05,52.09Z"/><path class="cls-3" d="M91.22,47.77c0,1.07,0,2.17,0,2.17,0,.72-.07,1.44-.13,2.15A36.44,36.44,0,0,1,76.9,55.88c-17.09.89-25.13-11.82-40.5-11.09C30.14,45.1,22,47.65,12.74,56.73a56.33,56.33,0,0,1-.7-9,57.45,57.45,0,0,1,4.46-22.3,31.6,31.6,0,0,1,26.94-8.22,29.45,29.45,0,0,1,9-2.86A29.92,29.92,0,0,1,67.24,16,33.74,33.74,0,0,1,84.73,7.2,26.74,26.74,0,0,1,87,26.44a64.17,64.17,0,0,1,3.11,10.82A65.38,65.38,0,0,1,91.22,47.77Z"/><path class="cls-4" d="M84.73,7.2A26.74,26.74,0,0,1,87,26.44a61,61,0,0,1,4.21,21.33c0,2.08-.14,4-.17,4.32a57.31,57.31,0,0,1-6,21.69,60,60,0,0,1-10.84,5.16L68,88.38l-6.29-6.32a65.88,65.88,0,0,1-10.13.77,64.53,64.53,0,0,1-33.42-9,58.14,58.14,0,0,1-6.16-26,57.45,57.45,0,0,1,4.46-22.3,31.58,31.58,0,0,1,21.74-8.65,31.11,31.11,0,0,1,5.19.43,29.46,29.46,0,0,1,9-2.85,28.68,28.68,0,0,1,4.23-.31A30.34,30.34,0,0,1,67.24,16,34,34,0,0,1,76.06,10,33.49,33.49,0,0,1,84.73,7.2m1.92-3.94-2.54.44a37.64,37.64,0,0,0-9.57,3.06A37.06,37.06,0,0,0,66.41,12a33.2,33.2,0,0,0-9.77-1.47,32.79,32.79,0,0,0-13.76,3,34.23,34.23,0,0,0-4.64-.31,35.15,35.15,0,0,0-24.18,9.62l-.55.52-.29.69A61.56,61.56,0,0,0,15,75.38l.46.91.87.53a68.11,68.11,0,0,0,35.26,9.56,70.29,70.29,0,0,0,8.87-.56l5,5.06L68.62,94,71,90.32l5.54-8.46a63.29,63.29,0,0,0,10.35-5l.87-.52.46-.91a60.72,60.72,0,0,0,6.36-23c.07-.89.18-2.66.18-4.57a64.39,64.39,0,0,0-4.06-21.54,30.23,30.23,0,0,0-2.85-20.7L86.65,3.26Z"/><path class="cls-5" d="M91.05,52.09a57.31,57.31,0,0,1-6,21.69,60,60,0,0,1-10.84,5.16L68,88.38l-6.29-6.32a65.88,65.88,0,0,1-10.13.77,64.53,64.53,0,0,1-33.42-9c-.32-.63-.63-1.27-.92-1.92A66.45,66.45,0,0,0,48,79.4a66.63,66.63,0,0,0,33.44-9,56.82,56.82,0,0,0,5.37-16.48A39.71,39.71,0,0,0,91.05,52.09Z"/><path class="cls-6" d="M91.22,47.77c0,1.06,0,2.18,0,2.18,0,.7-.07,1.43-.12,2.14a39.71,39.71,0,0,1-4.28,1.79,74.65,74.65,0,0,0,.8-9.54,74.84,74.84,0,0,0-2-18.51A30.85,30.85,0,0,0,84.73,7.2,26.76,26.76,0,0,1,87,26.45a62.49,62.49,0,0,1,3.11,10.82A65,65,0,0,1,91.22,47.77Z"/><path class="cls-7" d="M72.71,18.14a14.19,14.19,0,0,1,9.46-5.52,24.69,24.69,0,0,1,1,4.19A24.11,24.11,0,0,1,83.35,23a22.84,22.84,0,0,0-4.14-2.71A23.18,23.18,0,0,0,72.71,18.14Z"/><path d="M38,59.69a3.79,3.79,0,0,1-.8,2.07A4.71,4.71,0,0,1,35.69,63a6.4,6.4,0,0,1-3.52.68A6.27,6.27,0,0,1,29,62.53a3.29,3.29,0,0,1-1.47-2.84A3,3,0,0,0,29.28,62a5.37,5.37,0,0,0,2.89.5,5,5,0,0,0,2.57-1,2,2,0,0,0,.91-1.84A1.2,1.2,0,0,1,38,59.23a1.51,1.51,0,0,1,0,.3Z"/><path d="M38,59.69a2.94,2.94,0,0,0,1.34,2.53,6.48,6.48,0,0,0,3.38,1.21,6.87,6.87,0,0,0,3.69-.71,3.87,3.87,0,0,0,2.22-3,4.19,4.19,0,0,1-1.9,3.53,7.81,7.81,0,0,1-4,1.4,8.1,8.1,0,0,1-4.32-.9,5.56,5.56,0,0,1-1.84-1.56,4.5,4.5,0,0,1-.93-2.47V59.6A1.19,1.19,0,0,1,38,59.47,1.62,1.62,0,0,1,38,59.69Z"/><path class="cls-8" d="M9.9,43.76a3.94,3.94,0,0,1-.44-7.86l19.29-2.17.44,0a3.94,3.94,0,0,1,.44,7.86L10.34,43.74Z"/><path class="cls-4" d="M29.19,34.89a2.76,2.76,0,0,1,.31,5.5L10.21,42.56l-.31,0a2.76,2.76,0,0,1-.3-5.5l19.28-2.17.31,0m0-2.36a5.44,5.44,0,0,0-.57,0L9.33,34.73A5.12,5.12,0,0,0,9.9,44.94l.58,0,19.28-2.17a5.12,5.12,0,0,0-.57-10.21Z"/><rect x="24.06" y="32.53" width="10.25" height="10.25" rx="5.12" ry="5.12" transform="translate(-4.02 3.49) rotate(-6.41)"/><path class="cls-8" d="M50.16,43.21a4.65,4.65,0,0,1-4.61-4.13,4.66,4.66,0,0,1,4.1-5.14l21.94-2.47.53,0a4.65,4.65,0,0,1,.51,9.27L50.69,43.18A4.71,4.71,0,0,1,50.16,43.21Z"/><path class="cls-4" d="M72.12,32.63a3.47,3.47,0,0,1,.38,6.91L50.56,42a2.61,2.61,0,0,1-.4,0,3.47,3.47,0,0,1-.37-6.91l21.94-2.46a2.55,2.55,0,0,1,.39,0m0-2.37a4.87,4.87,0,0,0-.66,0L49.52,32.76a5.83,5.83,0,0,0,.64,11.63,4.87,4.87,0,0,0,.66,0l21.94-2.46a5.83,5.83,0,0,0-.64-11.63Z"/><rect x="66.28" y="30.26" width="11.66" height="11.66" rx="5.83" ry="5.83" transform="translate(-3.58 8.28) rotate(-6.41)"/><path d="M32.54,52.54a1.74,1.74,0,0,1,0-2.63,7.48,7.48,0,0,1,8-1.09,1.75,1.75,0,0,1,.57,2.75L38,55.1a1.76,1.76,0,0,1-2.49.14Z"/><path class="cls-9" d="M36.78,52.68l.06,7"/></svg>