<svg id="图层_1" data-name="图层 1" xmlns="http://www.w3.org/2000/svg" xmlns:xlink="http://www.w3.org/1999/xlink" viewBox="0 0 96 96"><defs><style>.cls-1{fill:#ffcb55;}.cls-2{fill:#1c1c1c;}.cls-3{fill:#ff9855;}.cls-4{fill:url(#未命名的渐变_15);}.cls-5{fill:none;stroke:#1c1c1c;stroke-linecap:round;stroke-linejoin:round;stroke-width:2.4px;}.cls-6{fill:url(#未命名的渐变_12);}.cls-7{fill:url(#未命名的渐变_12-2);}</style><radialGradient id="未命名的渐变_15" cx="145.98" cy="14.13" r="37.32" gradientTransform="translate(-88.27 38.39) scale(0.93 0.72)" gradientUnits="userSpaceOnUse"><stop offset="0" stop-color="#ff433b"/><stop offset="0.11" stop-color="#ff4e3d" stop-opacity="0.92"/><stop offset="0.33" stop-color="#ff6a42" stop-opacity="0.72"/><stop offset="0.65" stop-color="#ff964b" stop-opacity="0.39"/><stop offset="1" stop-color="#fc5" stop-opacity="0"/></radialGradient><radialGradient id="未命名的渐变_12" cx="19.92" cy="55.12" r="7.07" gradientUnits="userSpaceOnUse"><stop offset="0" stop-color="#ff433b"/><stop offset="0.29" stop-color="#ff6f43" stop-opacity="0.68"/><stop offset="0.64" stop-color="#ffa14d" stop-opacity="0.32"/><stop offset="0.88" stop-color="#ffc053" stop-opacity="0.09"/><stop offset="1" stop-color="#fc5" stop-opacity="0"/></radialGradient><radialGradient id="未命名的渐变_12-2" cx="76.08" cy="55.12" r="7.07" xlink:href="#未命名的渐变_12"/></defs><title>害羞</title><path class="cls-1" d="M57.64,82.71a68.61,68.61,0,0,1-9.65.67,67.27,67.27,0,0,1-34.85-9.44l-.44-.26-.24-.47a60.74,60.74,0,0,1-1.77-50.53l.21-.51.46-.31A66.9,66.9,0,0,1,48,11.31,66.94,66.94,0,0,1,84.64,21.86l.46.31.21.51a60.74,60.74,0,0,1-1.77,50.53l-.23.46-.44.27A63.43,63.43,0,0,1,72.1,79.12L65,90.05Z"/><path class="cls-2" d="M48,13.11A65.36,65.36,0,0,1,83.65,23.37a58.94,58.94,0,0,1-1.72,49,61.27,61.27,0,0,1-11,5.24l-6.26,9.57L58.28,80.8A68.07,68.07,0,0,1,48,81.58,65.62,65.62,0,0,1,14.07,72.4a58.94,58.94,0,0,1-1.72-49A65.29,65.29,0,0,1,48,13.11m0-3.6A68.61,68.61,0,0,0,10.38,20.36l-.93.6L9,22a62.51,62.51,0,0,0,1.83,52l.46.93.89.53A69.05,69.05,0,0,0,48,85.18a72.77,72.77,0,0,0,9-.56l5.11,5.13,3.13,3.14,2.43-3.71,5.62-8.58A65.65,65.65,0,0,0,83.8,75.48l.88-.54.46-.92A62.51,62.51,0,0,0,87,22l-.42-1-.93-.6A68.65,68.65,0,0,0,48,9.51Z"/><path class="cls-3" d="M88.17,46a58.51,58.51,0,0,1-6.24,26.4,62,62,0,0,1-11,5.24L64.66,87.2l-6.38-6.4A68.07,68.07,0,0,1,48,81.58,65.62,65.62,0,0,1,14.07,72.4c12.17,3.27,38,8.69,56.57-.86a25.17,25.17,0,0,0,5.54-3.73c14.11-12.65,8.95-38,7.47-44.44A58.33,58.33,0,0,1,88.17,46Z"/><path class="cls-4" d="M85.5,47.59a34.39,34.39,0,0,1-5.87,19A75.91,75.91,0,0,1,48,73.2a75.73,75.73,0,0,1-31.64-6.59,33.68,33.68,0,0,1-1.65-35.32A75.15,75.15,0,0,1,48,23.92a75.17,75.17,0,0,1,33.3,7.37A34.46,34.46,0,0,1,85.5,47.59Z"/><path d="M82.68,58.45a10.44,10.44,0,0,1-.89,5.25,14.34,14.34,0,0,1-3.25,4.41A18.72,18.72,0,0,1,74,71.2a21.78,21.78,0,0,1-2.56,1c-.84.28-1.69.55-2.54.81a74.31,74.31,0,0,1-10.43,2.28,86.31,86.31,0,0,1-10.65.81,86.42,86.42,0,0,1-10.67-.61,74.59,74.59,0,0,1-10.47-2.08,25.77,25.77,0,0,1-5.14-1.91A18.82,18.82,0,0,1,17,68.33a13.15,13.15,0,0,1-3-4.59,11.87,11.87,0,0,1-.64-5.29,13,13,0,0,0,1.55,4.87A12.21,12.21,0,0,0,18.16,67a17.55,17.55,0,0,0,4.32,2.39,25.81,25.81,0,0,0,4.81,1.32,95,95,0,0,0,10.19,1.43,92.54,92.54,0,0,0,10.26.41A92.59,92.59,0,0,0,58,72a97.62,97.62,0,0,0,10.16-1.63c.84-.18,1.68-.37,2.51-.58S72.26,69.31,73,69a17.29,17.29,0,0,0,4.39-2.28,14.15,14.15,0,0,0,3.49-3.54A11.09,11.09,0,0,0,82.68,58.45Z"/><path class="cls-5" d="M37,36.87a18.72,18.72,0,0,1-17.54,1.46"/><line class="cls-5" x1="33.74" y1="39.64" x2="35.22" y2="44.06"/><line class="cls-5" x1="28.01" y1="40.75" x2="28.24" y2="45.38"/><line class="cls-5" x1="22.19" y1="40.24" x2="21.16" y2="44.77"/><path class="cls-5" d="M59,36.87a18.72,18.72,0,0,0,17.54,1.46"/><line class="cls-5" x1="62.26" y1="39.64" x2="60.78" y2="44.06"/><line class="cls-5" x1="67.99" y1="40.75" x2="67.76" y2="45.38"/><line class="cls-5" x1="73.81" y1="40.24" x2="74.84" y2="44.77"/><ellipse class="cls-6" cx="19.92" cy="55.12" rx="8.52" ry="5.21"/><ellipse class="cls-7" cx="76.08" cy="55.12" rx="8.53" ry="5.21"/></svg>