<svg id="图层_1" data-name="图层 1" xmlns="http://www.w3.org/2000/svg" viewBox="0 0 96 96"><defs><style>.cls-1,.cls-5{fill:#ffcb55;}.cls-2{fill:#1c1c1c;}.cls-3{fill:#ff9855;}.cls-4{fill:#fff;}.cls-5{stroke:#1c1c1c;stroke-linecap:round;stroke-linejoin:round;stroke-width:2.4px;}</style></defs><title>好的</title><path class="cls-1" d="M46.11,82.19a67.34,67.34,0,0,1-34.83-9.42l-.44-.26-.23-.46A59.63,59.63,0,0,1,4.13,44.81,60.38,60.38,0,0,1,8.78,21.47L9,21l.47-.3A67,67,0,0,1,46.11,10.12,67,67,0,0,1,82.76,20.65l.47.3.22.52a61.14,61.14,0,0,1,4.62,23.34,59.72,59.72,0,0,1-6.48,27.27l-.23.46-.45.26A67.54,67.54,0,0,1,46.11,82.19Z"/><path class="cls-2" d="M46.11,11.92A65.58,65.58,0,0,1,81.78,22.16a59.41,59.41,0,0,1,4.49,22.65A58.23,58.23,0,0,1,80,71.26a65.81,65.81,0,0,1-33.88,9.13,65.64,65.64,0,0,1-33.9-9.16,58.85,58.85,0,0,1-1.76-49.07A65.58,65.58,0,0,1,46.11,11.92m0-3.6A68.83,68.83,0,0,0,8.49,19.14l-.94.6-.43,1a62.28,62.28,0,0,0-4.79,24A61.35,61.35,0,0,0,9,72.86l.47.92.88.53A69.13,69.13,0,0,0,46.11,84a69.41,69.41,0,0,0,35.73-9.64l.89-.54.47-.92a61.54,61.54,0,0,0,6.67-28.08,62.67,62.67,0,0,0-4.76-24l-.43-1-.94-.61A68.84,68.84,0,0,0,46.11,8.32Z"/><path class="cls-3" d="M86.23,44.86A58.51,58.51,0,0,1,80,71.26a67.29,67.29,0,0,1-67.86,0c12.17,3.27,38,8.69,56.56-.86a25.38,25.38,0,0,0,5.55-3.72c14.11-12.66,8.94-38,7.47-44.45A58.33,58.33,0,0,1,86.23,44.86Z"/><path class="cls-4" d="M19.19,50.83A13.47,13.47,0,0,1,5.79,38.58H32.6A13.47,13.47,0,0,1,19.19,50.83Z"/><path d="M31.21,39.78a12.26,12.26,0,0,1-24,0h24m2.64-2.4Zm0,0H4.54a14.66,14.66,0,1,0,29.31,0Z"/><path d="M26.52,43.51a6.14,6.14,0,0,1-6-4.93h12A6.14,6.14,0,0,1,26.52,43.51Z"/><path d="M30.83,39.78a4.93,4.93,0,0,1-8.61,0h8.61m3-2.4Zm0,0H19.19a7.33,7.33,0,0,0,14.66,0Z"/><path class="cls-4" d="M51.75,50.83a13.46,13.46,0,0,1-13.4-12.25h26.8A13.47,13.47,0,0,1,51.75,50.83Z"/><path d="M63.77,39.78a12.26,12.26,0,0,1-24,0h24m2.64-2.4Zm0,0H37.09a14.66,14.66,0,0,0,29.32,0Z"/><path d="M59.08,43.51a6.14,6.14,0,0,1-6-4.93h12A6.14,6.14,0,0,1,59.08,43.51Z"/><path d="M63.38,39.78a4.93,4.93,0,0,1-8.61,0h8.61m3-2.4Zm0,0H51.75a7.33,7.33,0,1,0,14.66,0Z"/><path d="M30.57,30.45a2.36,2.36,0,0,0-.32-1.87,2.84,2.84,0,0,0-1.87-1.23,3.3,3.3,0,0,0-2.5.59,3.75,3.75,0,0,0-1.49,2.51,4.2,4.2,0,0,1,.85-3.14,4.64,4.64,0,0,1,3.14-1.76,5.12,5.12,0,0,1,3.78,1.12,5.55,5.55,0,0,1,2,3.78l0,.29a1.85,1.85,0,0,1-3.68.35A1.94,1.94,0,0,1,30.57,30.45Z"/><path d="M43.35,22.51a19,19,0,0,1,13.15-4.3A17.21,17.21,0,0,0,45.94,25a1.82,1.82,0,0,1-3-2.09,1.59,1.59,0,0,1,.32-.36Z"/><path class="cls-2" d="M13.55,66.31a40.14,40.14,0,0,0,12.63,3.28A37.13,37.13,0,0,0,39,68.49a38.8,38.8,0,0,0,11.63-5.25,43.54,43.54,0,0,0,9.46-8.43h0a1.8,1.8,0,1,1,2.76,2.31l-.08.09a46.48,46.48,0,0,1-10.74,8.34,41.25,41.25,0,0,1-12.64,4.7,38.35,38.35,0,0,1-13.34.25A40.81,40.81,0,0,1,13.55,66.31Z"/><path class="cls-5" d="M75,88.31l15.9-23.48A3.36,3.36,0,0,0,89.77,60h0a3.37,3.37,0,0,0-4.83,1.74Z"/><path class="cls-5" d="M75,88.31l10.73-32.1a3.88,3.88,0,0,0-2.84-5h-.08a3.87,3.87,0,0,0-4.68,3.41Z"/><path class="cls-5" d="M75,88.31l2.28-38.75a5.15,5.15,0,0,0-5.6-5.43h-.12A5.14,5.14,0,0,0,67,50.33Q71,69.32,75,88.31Z"/><path class="cls-5" d="M74.61,88.67A13.92,13.92,0,0,1,51.39,76.32a4.05,4.05,0,0,1,6.87-2.19h0a4.19,4.19,0,0,1,1.13,3.55,5.81,5.81,0,1,0,4.92-5,4.12,4.12,0,0,1-3.51-1.13h0a4,4,0,0,1,2.12-6.85,13.92,13.92,0,0,1,11.7,23.94Z"/></svg>