<svg id="图层_1" data-name="图层 1" xmlns="http://www.w3.org/2000/svg" viewBox="0 0 96 96"><defs><style>.cls-1{fill:#444;stroke:#1c1c1c;stroke-linecap:round;stroke-linejoin:round;stroke-width:3.6px;}.cls-2{fill:#f1f1f1;}.cls-3{fill:#333;}.cls-4{fill:#1c1c1c;}.cls-5{fill:#fff;}.cls-6{fill:#777;}.cls-7{fill:#ee2d2c;}</style></defs><title>哈士奇</title><path class="cls-1" d="M10.71,25.62a43.85,43.85,0,0,1,3.57-15.39,43,43,0,0,1,4.31-7.65A69.88,69.88,0,0,1,26,10.38a69.61,69.61,0,0,1,4.46,6.1"/><path class="cls-2" d="M17.83,21.13a25.88,25.88,0,0,1,2-7.71c.78.7,1.59,1.47,2.41,2.33s1.47,1.59,2.11,2.35Z"/><path class="cls-1" d="M85.29,25.62a43.85,43.85,0,0,0-3.57-15.39,43,43,0,0,0-4.31-7.65,70.67,70.67,0,0,0-11.89,13.9"/><path class="cls-2" d="M78.17,21.13a25.88,25.88,0,0,0-2-7.71c-.78.7-1.59,1.47-2.41,2.33s-1.47,1.59-2.11,2.35Z"/><path class="cls-3" d="M48,87a67.34,67.34,0,0,1-34.83-9.42l-.44-.26-.23-.46A59.63,59.63,0,0,1,6,49.61a60.57,60.57,0,0,1,4.65-23.34l.22-.52.47-.3A67,67,0,0,1,48,14.92,67,67,0,0,1,84.66,25.45l.47.3.22.52A61,61,0,0,1,90,49.61a59.72,59.72,0,0,1-6.48,27.27l-.23.46-.45.27A67.62,67.62,0,0,1,48,87Z"/><path class="cls-4" d="M48,16.72A65.58,65.58,0,0,1,83.68,27a59.23,59.23,0,0,1,4.49,22.65,58.2,58.2,0,0,1-6.28,26.45A65.81,65.81,0,0,1,48,85.19,65.64,65.64,0,0,1,14.11,76,58.85,58.85,0,0,1,12.35,27,65.58,65.58,0,0,1,48,16.72m0-3.6A68.83,68.83,0,0,0,10.39,23.94l-.94.6-.43,1a62.28,62.28,0,0,0-4.79,24A61.35,61.35,0,0,0,10.9,77.66l.47.92.88.53A69.16,69.16,0,0,0,48,88.79a69.41,69.41,0,0,0,35.73-9.64l.89-.54.47-.92a61.42,61.42,0,0,0,6.67-28.08,62.71,62.71,0,0,0-4.76-24l-.43-1-.94-.61A68.84,68.84,0,0,0,48,13.12Z"/><path class="cls-2" d="M85.29,53.45A53,53,0,0,1,80.05,73.8a3.88,3.88,0,0,1-1.58,1.68A61.88,61.88,0,0,1,48,83.28a61.81,61.81,0,0,1-30.5-7.82,3.88,3.88,0,0,1-1.58-1.68,53.2,53.2,0,0,1-5.22-20.29,3.84,3.84,0,0,1,1.15-3A61.1,61.1,0,0,1,27.78,39.08,3.9,3.9,0,0,1,33.3,42a55.9,55.9,0,0,0,1.34,6.06,3.74,3.74,0,0,0,1.07,1.76A21.92,21.92,0,0,0,38,51.66a4,4,0,0,0,4.57-.11,2.2,2.2,0,0,1,.25-.17A3.93,3.93,0,0,0,44.62,48c0-1.26,0-2.56,0-3.88,0-3.1.1-6.08.29-8.85,0-.29,0-.58.08-.86a10.37,10.37,0,0,1,.64-2.4c.72-1.79,1.54-2.8,2.41-2.8s1.71,1,2.43,2.79a11,11,0,0,1,.64,2.4c0,.28.06.58.08.87.19,2.77.29,5.75.29,8.85,0,1.32,0,2.62,0,3.88a3.93,3.93,0,0,0,1.79,3.38,2.2,2.2,0,0,1,.25.17,4,4,0,0,0,4.58.12,21.75,21.75,0,0,0,2.28-1.83,3.94,3.94,0,0,0,1.09-1.77A56.62,56.62,0,0,0,62.7,42a3.92,3.92,0,0,1,5.58-2.9A60.85,60.85,0,0,1,84.13,50.51,3.87,3.87,0,0,1,85.29,53.45Z"/><path class="cls-5" d="M65.47,50a16.38,16.38,0,0,1-7.85-1.8c-1.86-1-2.89-2.35-2.89-3.68s1-2.63,2.89-3.67A16.38,16.38,0,0,1,65.47,39a16.43,16.43,0,0,1,7.85,1.8c1.85,1,2.88,2.34,2.88,3.67s-1,2.64-2.88,3.68A16.43,16.43,0,0,1,65.47,50Z"/><path class="cls-4" d="M65.47,40.2a15.36,15.36,0,0,1,7.26,1.65c1.42.79,2.27,1.77,2.27,2.62s-.85,1.84-2.27,2.63a15.36,15.36,0,0,1-7.26,1.65A15.37,15.37,0,0,1,58.2,47.1c-1.42-.79-2.27-1.78-2.27-2.63s.85-1.83,2.27-2.62a15.37,15.37,0,0,1,7.27-1.65m0-2.4a17.73,17.73,0,0,0-8.44,2c-4.66,2.61-4.66,6.84,0,9.44a17.61,17.61,0,0,0,8.44,2,17.6,17.6,0,0,0,8.43-2c4.66-2.6,4.66-6.83,0-9.44a17.71,17.71,0,0,0-8.43-2Z"/><path d="M65.47,44.17a8.91,8.91,0,0,1-4.21-1c-.87-.49-1.36-1.08-1.36-1.63s.49-1.15,1.36-1.63a9.69,9.69,0,0,1,8.41,0C70.54,40.44,71,41,71,41.59s-.5,1.14-1.37,1.63A8.89,8.89,0,0,1,65.47,44.17Z"/><path class="cls-4" d="M65.47,40.2a7.68,7.68,0,0,1,3.61.8,2.18,2.18,0,0,1,.73.59,2.34,2.34,0,0,1-.73.58,8.57,8.57,0,0,1-7.23,0,2.34,2.34,0,0,1-.73-.58,2.18,2.18,0,0,1,.73-.59,7.69,7.69,0,0,1,3.62-.8m0-2.4a10,10,0,0,0-4.79,1.11c-2.65,1.48-2.65,3.88,0,5.35a10.87,10.87,0,0,0,9.57,0c2.65-1.47,2.65-3.87,0-5.35a10,10,0,0,0-4.78-1.11Z"/><path class="cls-5" d="M30.53,50a16.43,16.43,0,0,1-7.85-1.8c-1.85-1-2.88-2.35-2.88-3.68s1-2.63,2.88-3.67A16.43,16.43,0,0,1,30.53,39a16.38,16.38,0,0,1,7.85,1.8c1.86,1,2.89,2.34,2.89,3.67s-1,2.64-2.89,3.68A16.38,16.38,0,0,1,30.53,50Z"/><path class="cls-4" d="M30.53,40.2a15.37,15.37,0,0,1,7.27,1.65c1.42.79,2.27,1.77,2.27,2.62s-.85,1.84-2.27,2.63a15.37,15.37,0,0,1-7.27,1.65,15.36,15.36,0,0,1-7.26-1.65C21.85,46.31,21,45.32,21,44.47s.85-1.83,2.27-2.62a15.36,15.36,0,0,1,7.26-1.65m0-2.4a17.71,17.71,0,0,0-8.43,2c-4.66,2.61-4.66,6.84,0,9.44a17.6,17.6,0,0,0,8.43,2,17.61,17.61,0,0,0,8.44-2c4.66-2.6,4.66-6.83,0-9.44a17.73,17.73,0,0,0-8.44-2Z"/><path d="M30.53,44.17a8.89,8.89,0,0,1-4.2-1c-.87-.49-1.37-1.08-1.37-1.63s.5-1.15,1.37-1.63a8.89,8.89,0,0,1,4.2-1,8.91,8.91,0,0,1,4.21,1c.87.48,1.36,1.08,1.36,1.63s-.49,1.14-1.36,1.63A8.91,8.91,0,0,1,30.53,44.17Z"/><path class="cls-4" d="M30.53,40.2a7.69,7.69,0,0,1,3.62.8,2.18,2.18,0,0,1,.73.59,2.34,2.34,0,0,1-.73.58,7.69,7.69,0,0,1-3.62.8,7.68,7.68,0,0,1-3.61-.8,2.34,2.34,0,0,1-.73-.58,2.18,2.18,0,0,1,.73-.59,7.68,7.68,0,0,1,3.61-.8m0-2.4a10,10,0,0,0-4.78,1.11c-2.65,1.48-2.65,3.88,0,5.35a10,10,0,0,0,4.78,1.11,10,10,0,0,0,4.79-1.11c2.65-1.47,2.65-3.87,0-5.35a10,10,0,0,0-4.79-1.11Z"/><ellipse class="cls-6" cx="35.5" cy="34.16" rx="3.09" ry="5.1" transform="translate(-10.57 51.59) rotate(-64.62)"/><ellipse class="cls-6" cx="60.5" cy="34.16" rx="5.1" ry="3.09" transform="translate(-8.8 29.22) rotate(-25.38)"/><path class="cls-3" d="M48,78.58a45.22,45.22,0,0,1-25.32-7.7A10.43,10.43,0,0,1,18,62.25a3.33,3.33,0,0,1,3.33-3.37,3.44,3.44,0,0,1,.84.1A107.47,107.47,0,0,0,48,62a107.41,107.41,0,0,0,25.83-3,3.46,3.46,0,0,1,.84-.11A3.33,3.33,0,0,1,78,62.19a10.46,10.46,0,0,1-4.68,8.7A45.31,45.31,0,0,1,48,78.58Z"/><path d="M74.67,60.67a1.53,1.53,0,0,1,1.53,1.52h3.6l-3.6.07a8.63,8.63,0,0,1-3.89,7.13,43.67,43.67,0,0,1-48.63,0,8.62,8.62,0,0,1-3.88-7.13v-.06a1.53,1.53,0,0,1,1.53-1.52,1.44,1.44,0,0,1,.4.06,109.55,109.55,0,0,0,26.27,3,109.55,109.55,0,0,0,26.27-3,1.39,1.39,0,0,1,.4-.06m0-3.6a5.68,5.68,0,0,0-1.28.16A104.88,104.88,0,0,1,48,60.16a105.47,105.47,0,0,1-25.39-2.92,5.18,5.18,0,0,0-1.28-.17,5.13,5.13,0,0,0-5.13,5.12v.06a12.25,12.25,0,0,0,5.48,10.12,47.27,47.27,0,0,0,52.64,0A12.25,12.25,0,0,0,79.8,62.26v-.07a5.13,5.13,0,0,0-5.13-5.12Z"/><path class="cls-7" d="M48,94.18A10.84,10.84,0,0,1,37.31,81.53l3.15-18.7H55.54l3.15,18.7A10.84,10.84,0,0,1,48,94.18Z"/><path d="M54.52,64l3,17.7a9.65,9.65,0,1,1-19,0l3-17.7h13m2-2.4H39.45l-3.33,19.7a12,12,0,1,0,23.76,0l-3.33-19.7Z"/></svg>