<svg id="图层_1" data-name="图层 1" xmlns="http://www.w3.org/2000/svg" viewBox="0 0 96 96"><defs><style>.cls-1{fill:#ffcb55;}.cls-2{fill:#1c1c1c;}.cls-3{fill:#ff9855;}.cls-4{fill:#fff;}</style></defs><title>嘿哈</title><path class="cls-1" d="M89.64,35.76c-8.55-5.41-20.45-15.19-19-22.89V12.8a6.34,6.34,0,0,1,3.54-4.12,4.57,4.57,0,0,1,1.91-.39,12.26,12.26,0,0,1,5,1.57h0a22.46,22.46,0,0,1,5.7,4.79C90.75,19.3,91.76,27.4,89.64,35.76Z"/><path class="cls-2" d="M76.15,10.09a10.53,10.53,0,0,1,4.17,1.35,20.27,20.27,0,0,1,5.19,4.36c3.07,3.7,4.1,10.17,2.92,17-8.13-5.52-17.1-13.78-16-19.63h0A4.68,4.68,0,0,1,75,10.33a2.94,2.94,0,0,1,1.19-.24m0-3.6A6.46,6.46,0,0,0,73.52,7a8.15,8.15,0,0,0-4.58,5.42l0,.08c-2.25,11.56,19.64,24.72,21.8,26,3.19-10,2-19.66-2.44-25A24,24,0,0,0,82,8.24a13.74,13.74,0,0,0-5.83-1.75Z"/><path class="cls-1" d="M48.24,84.63A67.37,67.37,0,0,1,13.4,75.22L13,75l-.23-.46A59.63,59.63,0,0,1,6.25,47.25a60.43,60.43,0,0,1,4.66-23.34l.21-.51.47-.31A67.14,67.14,0,0,1,48.24,12.57,67.08,67.08,0,0,1,84.88,23.09l.47.31.22.52a60.9,60.9,0,0,1,4.62,23.33,59.66,59.66,0,0,1-6.48,27.27l-.23.46-.45.27A67.52,67.52,0,0,1,48.24,84.63Z"/><path class="cls-2" d="M48.24,14.37A65.65,65.65,0,0,1,83.9,24.6a59.23,59.23,0,0,1,4.49,22.65A58.17,58.17,0,0,1,82.11,73.7a65.8,65.8,0,0,1-33.87,9.13,65.74,65.74,0,0,1-33.91-9.15A58.21,58.21,0,0,1,8.05,47.25,58.87,58.87,0,0,1,12.57,24.6,65.66,65.66,0,0,1,48.24,14.37m0-3.6A68.92,68.92,0,0,0,10.61,21.58l-.94.61-.42,1A62.42,62.42,0,0,0,11.12,75.3l.47.92.89.54a69.1,69.1,0,0,0,35.76,9.67A69.3,69.3,0,0,0,84,76.79l.89-.53.47-.93A61.42,61.42,0,0,0,92,47.25a62.75,62.75,0,0,0-4.76-24l-.42-1-1-.61A68.89,68.89,0,0,0,48.24,10.77Z"/><path class="cls-3" d="M88.35,47.3a58.52,58.52,0,0,1-6.24,26.41,67.36,67.36,0,0,1-67.86,0c12.17,3.26,38,8.69,56.57-.86a25.52,25.52,0,0,0,5.54-3.73c14.11-12.65,9-38,7.47-44.45A58.37,58.37,0,0,1,88.35,47.3Z"/><path d="M49.42,57.13a3.33,3.33,0,0,0,.73,2.48,3.59,3.59,0,0,0,2.47,1.32,3.88,3.88,0,0,0,2.9-.9,4.17,4.17,0,0,0,1.5-2.9A4.54,4.54,0,0,1,56,60.46a4.86,4.86,0,0,1-3.33,1.67,5.13,5.13,0,0,1-3.75-1.25A5.48,5.48,0,0,1,47,57.13v-.07a1.21,1.21,0,1,1,2.41-.15A1.62,1.62,0,0,1,49.42,57.13Z"/><path d="M49.42,57.13a5.44,5.44,0,0,1-1.85,3.75,5.11,5.11,0,0,1-3.75,1.25,4.82,4.82,0,0,1-3.32-1.67,4.51,4.51,0,0,1-1.08-3.33,4.25,4.25,0,0,0,1.5,2.9,3.88,3.88,0,0,0,2.9.9,3.63,3.63,0,0,0,2.48-1.32A3.37,3.37,0,0,0,47,57.13a1.21,1.21,0,0,1,2.4-.29,1.62,1.62,0,0,1,0,.22Z"/><path class="cls-4" d="M29.82,47.43a10.91,10.91,0,1,1,7.71-3.2A10.84,10.84,0,0,1,29.82,47.43Z"/><path class="cls-2" d="M29.82,26.83a9.6,9.6,0,0,1,6.86,2.84,9.7,9.7,0,1,1-13.72,0,9.6,9.6,0,0,1,6.86-2.84m0-2.4A12.1,12.1,0,1,0,38.38,28a12.06,12.06,0,0,0-8.56-3.54Z"/><circle cx="33.92" cy="40.63" r="6.3"/><path class="cls-4" d="M66.62,47.43a10.91,10.91,0,1,1,7.71-3.2A10.84,10.84,0,0,1,66.62,47.43Z"/><path class="cls-2" d="M66.62,26.83a9.6,9.6,0,0,1,6.86,2.84,9.7,9.7,0,1,1-13.72,0,9.6,9.6,0,0,1,6.86-2.84m0-2.4A12.1,12.1,0,1,0,75.18,28a12,12,0,0,0-8.56-3.54Z"/><circle cx="62.52" cy="32.42" r="6.3"/><path class="cls-1" d="M51.28,87.81a45.52,45.52,0,0,1-16.86-3.28A68.7,68.7,0,0,0,61.94,73.61a67.13,67.13,0,0,0,9-7.4l.8-.77-.34-1.07c-2.27-7,1-13.33,5.33-15.13a8.38,8.38,0,0,1,3.31-.64,10.23,10.23,0,0,1,7.41,3.18c4.41,4.9,1.23,13.74.15,16.33C82.33,80.88,66,87.25,53.05,87.78,52.45,87.8,51.87,87.81,51.28,87.81Z"/><path class="cls-2" d="M80.08,50.4h0A8.46,8.46,0,0,1,86.15,53c3.7,4.11.81,12.08-.17,14.43C81,79.46,65.36,85.48,53,86c-.56,0-1.13,0-1.69,0a42.62,42.62,0,0,1-9.85-1.15A68.84,68.84,0,0,0,72.24,67.5L73.83,66l-.68-2.13c-2-6.06.72-11.42,4.31-12.92a6.76,6.76,0,0,1,2.62-.5m0-3.6a10.27,10.27,0,0,0-4,.78c-5.53,2.3-8.8,9.73-6.35,17.35a65.34,65.34,0,0,1-8.8,7.2A69,69,0,0,1,28,83.53a49.25,49.25,0,0,0,23.27,6.08l1.83,0c13.2-.54,30.45-7,36.18-20.78.65-1.56,5-12.11-.48-18.22a12,12,0,0,0-8.74-3.78Z"/><path class="cls-3" d="M89.3,68.8C83.58,82.57,66.32,89,53.12,89.58A48.8,48.8,0,0,1,28,83.52c1.8-.15,3.83-.39,6-.77a46,46,0,0,0,14.42,1.72c13.21-.53,30.45-7,36.19-20.77.55-1.33,3.84-9.25,1.32-15.35a11.17,11.17,0,0,1,2.84,2.23C94.33,56.69,90,67.24,89.3,68.8Z"/><path class="cls-2" d="M80.08,50.4h0A8.46,8.46,0,0,1,86.15,53c3.7,4.11.81,12.08-.17,14.43C81,79.46,65.36,85.48,53,86c-.56,0-1.13,0-1.69,0a42.62,42.62,0,0,1-9.85-1.15A68.84,68.84,0,0,0,72.24,67.5L73.83,66l-.68-2.13c-2-6.06.72-11.42,4.31-12.92a6.76,6.76,0,0,1,2.62-.5m0-3.6a10.27,10.27,0,0,0-4,.78c-5.53,2.3-8.8,9.73-6.35,17.35a65.34,65.34,0,0,1-8.8,7.2A69,69,0,0,1,28,83.53a49.25,49.25,0,0,0,23.27,6.08l1.83,0c13.2-.54,30.45-7,36.18-20.78.65-1.56,5-12.11-.48-18.22a12,12,0,0,0-8.74-3.78Z"/></svg>