<svg id="图层_1" data-name="图层 1" xmlns="http://www.w3.org/2000/svg" viewBox="0 0 96 96"><defs><style>.cls-1{fill:#846820;}.cls-2{fill:#ffcb55;}.cls-3,.cls-6{fill:none;stroke-linecap:round;stroke-linejoin:round;}.cls-3{stroke:#1c1c1c;stroke-width:3.6px;}.cls-4{fill:#5dacf4;}.cls-5{fill:#4580d2;}.cls-6{stroke:#fff;stroke-width:2.4px;}</style></defs><title>黑脸流汗</title><path class="cls-1" d="M60.75,82.71a68.72,68.72,0,0,1-9.65.67,67.24,67.24,0,0,1-34.85-9.44l-.45-.26-.23-.47a60.69,60.69,0,0,1-1.78-50.53l.22-.51.46-.31A66.88,66.88,0,0,1,51.1,11.31,66.89,66.89,0,0,1,87.74,21.86l.47.31.21.51a60.69,60.69,0,0,1-1.78,50.53l-.23.46-.44.27a63,63,0,0,1-10.76,5.18L68.06,90.05Z"/><path d="M51.1,13.11A65.41,65.41,0,0,1,86.76,23.37,58.89,58.89,0,0,1,85,72.4a61.17,61.17,0,0,1-11,5.24l-6.26,9.57L61.38,80.8a67.84,67.84,0,0,1-10.28.78A65.6,65.6,0,0,1,17.18,72.4a58.89,58.89,0,0,1-1.73-49A65.35,65.35,0,0,1,51.1,13.11m0-3.6A68.59,68.59,0,0,0,13.49,20.36l-.93.6-.43,1A62.51,62.51,0,0,0,14,74l.47.93.89.53a69,69,0,0,0,35.78,9.7,72.73,72.73,0,0,0,9-.56l5.12,5.13,3.13,3.14,2.43-3.71,5.61-8.58a65.76,65.76,0,0,0,10.52-5.12l.88-.54.46-.92a62.51,62.51,0,0,0,1.83-52l-.43-1-.93-.6A68.59,68.59,0,0,0,51.1,9.51Z"/><path class="cls-2" d="M11,49.43a59.32,59.32,0,0,1,4.42-26.06,67.08,67.08,0,0,1,71.31,0,114.42,114.42,0,0,0-29-4.53C39.3,18.37,30.53,22.7,27.92,24.1a30.08,30.08,0,0,0-5.55,3.73C8.89,39.69,16.08,68.25,17.18,72.4A59.06,59.06,0,0,1,11,49.43Z"/><polyline class="cls-3" points="33.19 40.96 34.58 40.96 38.8 40.96 49.02 40.96 53.24 40.96 54.37 40.96"/><polyline class="cls-3" points="85.69 40.96 84.3 40.96 80.07 40.96 69.85 40.96 65.64 40.96 64.51 40.96"/><path class="cls-4" d="M10.93,73.4A8.49,8.49,0,0,1,3.14,61.53a.14.14,0,0,0,0-.06c0-.08.07-.16.12-.24L9.84,46.74a1.2,1.2,0,0,1,1.09-.7h0a1.2,1.2,0,0,1,1.09.7L18.47,61A8.51,8.51,0,0,1,10.93,73.4Z"/><path d="M10.93,47.24q3.23,7.11,6.44,14.23A7.29,7.29,0,1,1,3.64,64.91a7.39,7.39,0,0,1,.65-3h0l.08-.16,6.57-14.5m0-2.4a2.39,2.39,0,0,0-2.18,1.41Q7.1,49.88,5.46,53.51L2.2,60.7a2.22,2.22,0,0,0-.16.36l0,0a9.51,9.51,0,0,0-.78,3.81,9.69,9.69,0,1,0,18.29-4.49l-3.19-7.07-3.22-7.1a2.39,2.39,0,0,0-2.18-1.41Z"/><path class="cls-5" d="M18.22,64.91A7.29,7.29,0,0,1,3.9,66.82a7.29,7.29,0,0,0,13-6.33c.15.33.3.65.44,1A7.27,7.27,0,0,1,18.22,64.91Z"/><line class="cls-6" x1="10" y1="55.14" x2="7.19" y2="63.4"/></svg>