<svg id="图层_1" data-name="图层 1" xmlns="http://www.w3.org/2000/svg" viewBox="0 0 96 96"><defs><style>.cls-1{fill:#ff6e74;stroke:#720000;stroke-miterlimit:10;stroke-width:3.2px;}.cls-2{fill:#ff5764;}.cls-3{fill:#720000;}.cls-4{fill:#cb293d;}.cls-5{fill:none;stroke:#fff;stroke-linecap:round;stroke-linejoin:round;stroke-width:2.4px;}</style></defs><title>红花</title><path class="cls-1" d="M47.38,88.13a2.88,2.88,0,0,1-2.87-2.87V68.1a2.87,2.87,0,0,1,5.74,0V85.25a2.88,2.88,0,0,1-2.87,2.88Z"/><path class="cls-1" d="M37.74,85.63a2.87,2.87,0,0,1-2.16-1C28.09,76.28,16,76.2,15.74,76.2h0a2.88,2.88,0,0,1,0-5.76c.59,0,14.89,0,24.19,10.39a2.87,2.87,0,0,1-.24,4.06,2.81,2.81,0,0,1-1.9.74Z"/><path class="cls-1" d="M57,85.62a2.84,2.84,0,0,1-2-.77,2.88,2.88,0,0,1-.16-4.06C64.54,70.4,78.54,70.42,79.1,70.44a2.88,2.88,0,0,1,0,5.76h0c-.24,0-12.1.07-19.91,8.5a2.86,2.86,0,0,1-2.1.92Z"/><path class="cls-2" d="M42.84,72.59a4.6,4.6,0,0,1-1.18-.16c-10.18-1.35-18.84-7.28-24.38-16.71-6.44-10.94-7.89-25.15-3.62-35.35a4.5,4.5,0,0,1,4-2.76h.87a39.89,39.89,0,0,1,14.59,2.66A42.26,42.26,0,0,1,44.31,7.12a4.53,4.53,0,0,1,2.92-1.07,4.54,4.54,0,0,1,2.45.71,5.12,5.12,0,0,1,.54.41c4.13,3.05,7.76,7.38,11.07,13.21A39.74,39.74,0,0,1,76.2,17.59h.9a4.51,4.51,0,0,1,4.05,2.75C85.42,30.56,84,44.76,77.53,55.7,72,65.14,63.31,71.07,53.15,72.42a4.39,4.39,0,0,1-1.19.17Z"/><path class="cls-3" d="M47.23,7.65a2.91,2.91,0,0,1,1.59.46,3.79,3.79,0,0,1,.39.31c4.25,3.12,8,7.72,11.38,14A37.69,37.69,0,0,1,76.2,19.19h.88A2.91,2.91,0,0,1,79.68,21c4.08,9.77,2.66,23.4-3.53,33.92-5.33,9-13.6,14.71-23.34,16A2.66,2.66,0,0,1,52,71H42.84a2.74,2.74,0,0,1-.85-.13c-9.73-1.25-18-6.89-23.33-16C12.47,44.38,11.05,30.75,15.13,21a2.91,2.91,0,0,1,2.6-1.77h.87a37.79,37.79,0,0,1,15.26,3.08c3.37-6.15,7.21-10.82,11.45-13.91a2.93,2.93,0,0,1,.77-.48,2.89,2.89,0,0,1,1.15-.24m0-3.2a6.13,6.13,0,0,0-2.42.5,6.07,6.07,0,0,0-1.49.91A42.66,42.66,0,0,0,32.46,18.3,41.43,41.43,0,0,0,18.6,16h-.91a6.14,6.14,0,0,0-5.51,3.73c-4.45,10.65-3,25.43,3.72,36.79,5.78,9.84,14.81,16,25.45,17.47a6.15,6.15,0,0,0,1.49.19H52a6,6,0,0,0,1.51-.2c10.61-1.44,19.64-7.64,25.44-17.47,6.68-11.36,8.17-26.14,3.72-36.78A6.1,6.1,0,0,0,77.15,16h-.91A41.72,41.72,0,0,0,62,18.4,41.86,41.86,0,0,0,51.22,5.92a6.14,6.14,0,0,0-4-1.47Z"/><path class="cls-4" d="M76.15,54.9c-5.33,9-13.6,14.7-23.33,15.95A3,3,0,0,1,52,71H42.83a2.91,2.91,0,0,1-.83-.11A30.89,30.89,0,0,1,21.17,58.64,30.38,30.38,0,0,0,35.7,64.56a3,3,0,0,0,.83.13h9.14a2.69,2.69,0,0,0,.84-.14c9.73-1.25,18-6.92,23.33-16s7.09-20.2,5-29.37c.46,0,.91,0,1.37,0h.88A2.9,2.9,0,0,1,79.68,21C83.76,30.74,82.34,44.37,76.15,54.9Z"/><path class="cls-5" d="M46.3,11.57A42.41,42.41,0,0,0,41.65,17a44.16,44.16,0,0,0-6.82,14.73"/></svg>