<svg id="图层_1" data-name="图层 1" xmlns="http://www.w3.org/2000/svg" viewBox="0 0 96 96"><defs><style>.cls-1{fill:#ffcb55;}.cls-2{fill:#1c1c1c;}.cls-3{fill:#ff9855;}.cls-4,.cls-5{fill:none;stroke:#000;}.cls-4,.cls-5,.cls-6{stroke-linecap:round;stroke-linejoin:round;}.cls-4{stroke-width:3.6px;}.cls-5,.cls-6{stroke-width:2.4px;}.cls-6{fill:#fff;stroke:#1c1c1c;}</style></defs><title>坏笑</title><path class="cls-1" d="M57.64,82.71a68.61,68.61,0,0,1-9.65.67,67.27,67.27,0,0,1-34.85-9.44l-.44-.26-.24-.47a60.74,60.74,0,0,1-1.77-50.53l.21-.51.46-.31A66.9,66.9,0,0,1,48,11.31,66.94,66.94,0,0,1,84.64,21.86l.46.31.21.51a60.74,60.74,0,0,1-1.77,50.53l-.23.46-.45.27A63,63,0,0,1,72.1,79.12L65,90.05Z"/><path class="cls-2" d="M48,13.11A65.36,65.36,0,0,1,83.65,23.37a58.94,58.94,0,0,1-1.72,49,61.27,61.27,0,0,1-11,5.24l-6.26,9.57L58.28,80.8A68.07,68.07,0,0,1,48,81.58,65.62,65.62,0,0,1,14.07,72.4a58.94,58.94,0,0,1-1.72-49A65.29,65.29,0,0,1,48,13.11m0-3.6A68.61,68.61,0,0,0,10.38,20.36l-.93.6L9,22a62.51,62.51,0,0,0,1.83,52l.46.93.89.53A69.05,69.05,0,0,0,48,85.18a72.77,72.77,0,0,0,9-.56l5.11,5.13,3.13,3.14,2.43-3.71,5.62-8.58A65.65,65.65,0,0,0,83.8,75.48l.88-.54.46-.92A62.51,62.51,0,0,0,87,22l-.42-1-.93-.6A68.65,68.65,0,0,0,48,9.51Z"/><path class="cls-3" d="M88.17,46a58.51,58.51,0,0,1-6.24,26.4,62,62,0,0,1-11,5.24L64.66,87.2l-6.38-6.4A68.07,68.07,0,0,1,48,81.58,65.62,65.62,0,0,1,14.07,72.4c12.17,3.27,38,8.69,56.57-.86a25.17,25.17,0,0,0,5.54-3.73c14.11-12.65,8.95-38,7.47-44.44A58.33,58.33,0,0,1,88.17,46Z"/><line class="cls-4" x1="18.65" y1="36.31" x2="45.05" y2="36.31"/><circle cx="40.28" cy="39.45" r="3.46"/><line class="cls-4" x1="50.95" y1="36.31" x2="77.35" y2="36.31"/><circle cx="72.58" cy="39.45" r="3.46"/><path class="cls-5" d="M33.26,27a6,6,0,0,1,12,0"/><path class="cls-5" d="M60.63,27a6,6,0,0,1,11.95,0"/><path class="cls-6" d="M80.66,54C79.92,61.49,75.72,67.86,70,70.6a53.27,53.27,0,0,1-43,1.32c-5.32-2.16-9.66-7.26-11.12-14a26.55,26.55,0,0,1-.56-3.9c8.43,3.51,20,5.68,32.67,5.68S72.24,57.53,80.66,54Z"/><line class="cls-6" x1="29.1" y1="58" x2="30.98" y2="73.34"/><line class="cls-6" x1="44.06" y1="59.63" x2="45.28" y2="75.78"/><line class="cls-6" x1="58.34" y1="59.21" x2="59.67" y2="74.28"/><line class="cls-6" x1="71.7" y1="56.95" x2="72.89" y2="68.81"/></svg>