<svg id="图层_1" data-name="图层 1" xmlns="http://www.w3.org/2000/svg" viewBox="0 0 96 96"><defs><style>.cls-1{fill:#ffcb55;}.cls-2{fill:#1c1c1c;}.cls-3{fill:#ff9855;}.cls-4{fill:#fff;}.cls-5{fill:#ee2d2c;}.cls-6{fill:#f45d5d;}</style></defs><title>惊讶</title><path class="cls-1" d="M48,82.72A67.34,67.34,0,0,1,13.18,73.3L12.74,73l-.23-.46A59.66,59.66,0,0,1,6,45.34,60.38,60.38,0,0,1,10.68,22l.22-.52.47-.3A67,67,0,0,1,48,10.66,67,67,0,0,1,84.66,21.18l.47.3.22.52A61,61,0,0,1,90,45.34a59.69,59.69,0,0,1-6.48,27.27l-.23.46-.45.27A67.62,67.62,0,0,1,48,82.72Z"/><path class="cls-2" d="M48,12.46A65.66,65.66,0,0,1,83.68,22.69a59.23,59.23,0,0,1,4.49,22.65,58.2,58.2,0,0,1-6.28,26.45A65.81,65.81,0,0,1,48,80.92a65.64,65.64,0,0,1-33.9-9.16,58.85,58.85,0,0,1-1.76-49.07A65.65,65.65,0,0,1,48,12.46m0-3.6A68.83,68.83,0,0,0,10.39,19.67l-.94.61-.43,1a62.19,62.19,0,0,0-4.79,24A61.35,61.35,0,0,0,10.9,73.39l.47.92.88.53A69.16,69.16,0,0,0,48,84.52a69.31,69.31,0,0,0,35.73-9.64l.89-.53.47-.93a61.42,61.42,0,0,0,6.67-28.08,62.71,62.71,0,0,0-4.76-24l-.43-1-.94-.61A68.84,68.84,0,0,0,48,8.86Z"/><path class="cls-3" d="M88.13,45.39a58.48,58.48,0,0,1-6.24,26.4,67.29,67.29,0,0,1-67.86,0c12.17,3.27,38,8.69,56.57-.86a25.53,25.53,0,0,0,5.54-3.72c14.11-12.66,9-38,7.47-44.45A58.33,58.33,0,0,1,88.13,45.39Z"/><path class="cls-4" d="M31.38,52.32A14.45,14.45,0,1,1,45.82,37.87,14.46,14.46,0,0,1,31.38,52.32Z"/><path class="cls-2" d="M31.38,24.33A13.55,13.55,0,1,1,17.83,37.87,13.56,13.56,0,0,1,31.38,24.33m0-1.8A15.35,15.35,0,1,0,46.72,37.87,15.34,15.34,0,0,0,31.38,22.53Z"/><path class="cls-4" d="M64.63,52.32A14.45,14.45,0,1,1,79.07,37.87,14.46,14.46,0,0,1,64.63,52.32Z"/><path class="cls-2" d="M64.63,24.33A13.55,13.55,0,1,1,51.08,37.87,13.56,13.56,0,0,1,64.63,24.33m0-1.8A15.35,15.35,0,1,0,80,37.87,15.34,15.34,0,0,0,64.63,22.53Z"/><circle class="cls-2" cx="21.2" cy="37.87" r="1.8"/><circle class="cls-2" cx="54.45" cy="37.87" r="1.8"/><path class="cls-5" d="M66.37,88.83c-4.3,0-9.56-2.26-14.44-6.21-1.08-.88-2.1-1.8-3-2.72a32,32,0,0,1-8.28-13.22c-1.19-4.2-.74-7.63,1.29-9.65a7.29,7.29,0,0,1,5.38-1.93c5.27,0,12,3.43,17.48,8.93a36.49,36.49,0,0,1,2.71,3c6.15,7.61,8,16.14,4.29,19.84A7.3,7.3,0,0,1,66.37,88.83Z"/><path d="M47.29,56.3h0c5,0,11.34,3.29,16.63,8.58a36.35,36.35,0,0,1,2.63,2.93c5.76,7.12,7.64,15,4.37,18.23a6.19,6.19,0,0,1-4.55,1.59c-4,0-9.09-2.22-13.67-5.93-1.06-.86-2.05-1.76-3-2.65a30.62,30.62,0,0,1-8-12.69c-1.06-3.71-.7-6.81,1-8.48a6.13,6.13,0,0,1,4.53-1.58m0-2.4a8.55,8.55,0,0,0-6.23,2.28C36.21,61,39.34,72,48.06,80.75a40.57,40.57,0,0,0,3.12,2.81C56.33,87.73,61.9,90,66.37,90a8.56,8.56,0,0,0,6.25-2.29C76.9,83.46,75,74.38,68.42,66.3a36.73,36.73,0,0,0-2.8-3.11c-5.94-5.94-12.94-9.29-18.33-9.29Z"/><path class="cls-6" d="M66.37,88.83c-4.13,0-9.15-2.09-13.86-5.75A21.25,21.25,0,0,1,67.94,67.63c5.78,7.45,7.44,15.65,3.83,19.26A7.3,7.3,0,0,1,66.37,88.83Z"/><path d="M67.47,69c5,6.79,6.54,14,3.45,17.05a6.19,6.19,0,0,1-4.55,1.59c-3.63,0-8.23-1.86-12.5-5A20.11,20.11,0,0,1,67.47,69m1-2.69A22.39,22.39,0,0,0,51.18,83.56C56.33,87.73,61.9,90,66.37,90a8.56,8.56,0,0,0,6.25-2.29C76.9,83.46,75,74.38,68.42,66.3Z"/></svg>