<svg id="图层_1" data-name="图层 1" xmlns="http://www.w3.org/2000/svg" viewBox="0 0 96 96"><defs><style>.cls-1{fill:#ffcb55;}.cls-2{fill:#1c1c1c;}.cls-3{fill:#ff9855;}.cls-4{fill:#fff;}.cls-5{fill:none;stroke:#000;stroke-miterlimit:10;stroke-width:3.6px;}</style></defs><title>囧</title><path class="cls-1" d="M58.33,82.71a68.61,68.61,0,0,1-9.65.67,67.29,67.29,0,0,1-34.85-9.44l-.44-.26-.23-.47a60.69,60.69,0,0,1-1.78-50.53l.21-.51.47-.31A66.84,66.84,0,0,1,48.68,11.31,66.92,66.92,0,0,1,85.33,21.86l.46.31.22.51a60.79,60.79,0,0,1-1.78,50.53l-.23.46-.44.27A63.33,63.33,0,0,1,72.8,79.12L65.65,90.05Z"/><path class="cls-2" d="M48.68,13.11A65.42,65.42,0,0,1,84.35,23.37a59,59,0,0,1-1.73,49,61.5,61.5,0,0,1-11,5.24l-6.27,9.57L59,80.8a68.07,68.07,0,0,1-10.29.78A65.65,65.65,0,0,1,14.76,72.4a58.94,58.94,0,0,1-1.72-49A65.32,65.32,0,0,1,48.68,13.11m0-3.6A68.61,68.61,0,0,0,11.07,20.36l-.92.6-.43,1a62.51,62.51,0,0,0,1.83,52L12,75l.89.53a69.08,69.08,0,0,0,35.78,9.7,72.77,72.77,0,0,0,9-.56l5.11,5.13,3.14,3.14,2.43-3.71L74,80.6a65.65,65.65,0,0,0,10.51-5.12l.88-.54.47-.92a62.61,62.61,0,0,0,1.83-52l-.43-1-.93-.6A68.63,68.63,0,0,0,48.68,9.51Z"/><path class="cls-3" d="M88.86,46a58.38,58.38,0,0,1-6.24,26.4,62.19,62.19,0,0,1-11,5.24L65.35,87.2,59,80.8a68.07,68.07,0,0,1-10.29.78A65.65,65.65,0,0,1,14.76,72.4c12.17,3.27,38,8.69,56.57-.86a24.93,24.93,0,0,0,5.54-3.73c14.11-12.65,8.95-38,7.48-44.44A58.51,58.51,0,0,1,88.86,46Z"/><path class="cls-4" d="M48.7,68.87a56.4,56.4,0,0,1-19.25-3.18A14,14,0,0,1,26.21,57a13.59,13.59,0,0,1,2.26-7.37A55.7,55.7,0,0,1,48.7,46.05,55.61,55.61,0,0,1,68.92,49.6,13.6,13.6,0,0,1,71.17,57a14,14,0,0,1-3.23,8.73A56.75,56.75,0,0,1,48.7,68.87Z"/><path d="M48.7,47.25a55.59,55.59,0,0,1,19.41,3.32A12.34,12.34,0,0,1,70,57a12.69,12.69,0,0,1-2.77,7.72,55.64,55.64,0,0,1-18.5,3,55.32,55.32,0,0,1-18.51-3A12.68,12.68,0,0,1,27.41,57a12.3,12.3,0,0,1,1.87-6.4A55.69,55.69,0,0,1,48.7,47.25m0-2.4a57,57,0,0,0-21,3.77A15,15,0,0,0,25,57a15.36,15.36,0,0,0,3.71,9.73,57.56,57.56,0,0,0,20,3.37,57.78,57.78,0,0,0,20-3.36A15.36,15.36,0,0,0,72.37,57a15.11,15.11,0,0,0-2.64-8.35,57.09,57.09,0,0,0-21-3.77Z"/><line class="cls-5" x1="18.81" y1="33.99" x2="33.72" y2="25.38"/><line class="cls-5" x1="78.58" y1="33.99" x2="63.66" y2="25.38"/></svg>