<svg id="图层_1" data-name="图层 1" xmlns="http://www.w3.org/2000/svg" viewBox="0 0 96 96"><defs><style>.cls-1,.cls-4{fill:#fc5;}.cls-2{fill:#1c1c1c;}.cls-3{fill:#f95;}.cls-4{stroke:#1c1c1c;stroke-miterlimit:10;stroke-width:3.6px;}</style></defs><title>拒绝</title><path class="cls-1" d="M54.48,82.44a70.15,70.15,0,0,1-9.65.67A67.24,67.24,0,0,1,10,73.67l-.44-.27-.24-.46A60.74,60.74,0,0,1,7.53,22.41l.21-.52.46-.3A66.88,66.88,0,0,1,44.83,11,66.94,66.94,0,0,1,81.48,21.59l.46.3.21.52a60.74,60.74,0,0,1-1.77,50.53l-.24.46-.44.27a63.35,63.35,0,0,1-10.76,5.18L61.79,89.78Z"/><path class="cls-2" d="M44.83,12.83A65.28,65.28,0,0,1,80.49,23.1a58.94,58.94,0,0,1-1.72,49,62.29,62.29,0,0,1-11,5.24L61.5,86.93l-6.38-6.4a68.07,68.07,0,0,1-10.29.78,65.62,65.62,0,0,1-33.92-9.18,58.94,58.94,0,0,1-1.72-49A65.21,65.21,0,0,1,44.83,12.83m0-3.6A68.69,68.69,0,0,0,7.22,20.08l-.93.61-.43,1a62.61,62.61,0,0,0,1.83,52l.47.93.89.53a69.05,69.05,0,0,0,35.78,9.7,70.88,70.88,0,0,0,9-.57L59,89.48l3.13,3.14,2.43-3.71,5.62-8.58a65.65,65.65,0,0,0,10.51-5.12l.88-.54.46-.92a62.51,62.51,0,0,0,1.83-52l-.42-1-.93-.61A68.74,68.74,0,0,0,44.83,9.23Z"/><path class="cls-3" d="M85,45.73a58.48,58.48,0,0,1-6.24,26.4,62.29,62.29,0,0,1-11,5.24L61.5,86.93l-6.38-6.4a68.07,68.07,0,0,1-10.29.78,65.62,65.62,0,0,1-33.92-9.18c12.17,3.27,38,8.69,56.57-.86A25.53,25.53,0,0,0,73,67.55c14.11-12.66,9-38,7.47-44.45A58.33,58.33,0,0,1,85,45.73Z"/><path class="cls-2" d="M61.06,28.05l15.51-6.88-13.71,10a1.81,1.81,0,1,1-2.13-2.93A2.17,2.17,0,0,1,61.06,28.05Z"/><path class="cls-2" d="M47.75,31.17,34,21.17l15.52,6.88a1.81,1.81,0,0,1-1.47,3.31A1.77,1.77,0,0,1,47.75,31.17Z"/><path class="cls-2" d="M48.18,33.3A1.68,1.68,0,1,0,49.86,35a1.67,1.67,0,0,0-1.68-1.67Z"/><path class="cls-2" d="M62.91,33.3A1.68,1.68,0,1,0,64.58,35a1.68,1.68,0,0,0-1.67-1.67Z"/><path d="M45,54.66a3.9,3.9,0,0,1-3.19-4.21,1.55,1.55,0,0,1,0-.31,2.82,2.82,0,0,1,.07-.31A3.88,3.88,0,0,1,46.37,47a3.69,3.69,0,0,1,1.34.51c.14.08.27.18.41.27l5.19,3.42a1.06,1.06,0,0,1-.34,1.9l-6,1.44-.48.11A3.62,3.62,0,0,1,45,54.66Z"/><path d="M66.81,54.33a3.29,3.29,0,0,0,2.7-3.56,2.48,2.48,0,0,0,0-.27c0-.08,0-.17-.06-.26a3.29,3.29,0,0,0-3.76-2.4,3.09,3.09,0,0,0-1.13.43l-.35.23L60.1,51.19a1.06,1.06,0,0,0,.34,1.9c1.58.37,3.17.74,4.76,1.13l.4.09A3.07,3.07,0,0,0,66.81,54.33Z"/><path class="cls-2" d="M49.86,55a6.42,6.42,0,0,1-5,3,7.47,7.47,0,0,1-8-8,6.41,6.41,0,0,1,3-5,8.28,8.28,0,0,0-1.13,5,6.88,6.88,0,0,0,6.14,6.14A8.21,8.21,0,0,0,49.86,55Z"/><path class="cls-2" d="M62,54.71a6.48,6.48,0,0,0,9-9,5.68,5.68,0,0,1,2.81,4.48,6.75,6.75,0,0,1-7.29,7.29A5.66,5.66,0,0,1,62,54.71Z"/><path class="cls-2" d="M51.71,75.86a36.31,36.31,0,0,1,11-3.2h0a1.21,1.21,0,1,1,.3,2.4h-.26A35.19,35.19,0,0,0,51.71,75.86Z"/><path class="cls-4" d="M75,73.13c-2.33-.69-4.63-.26-5.9,1.18a5.26,5.26,0,0,0-.69,5.13C70.22,84.1,80,86.9,85.73,83.81c9.48-5.07,9.41-26.67,1.34-31.45a8.8,8.8,0,0,0-8.49,0C73.66,55.08,71.69,63.52,75,73.13Z"/></svg>