<?xml version="1.0" encoding="utf-8"?>
<!-- Generator: Adobe Illustrator 23.0.1, SVG Export Plug-In . SVG Version: 6.00 Build 0)  -->
<svg version="1.1" id="图层_1" xmlns="http://www.w3.org/2000/svg" xmlns:xlink="http://www.w3.org/1999/xlink" x="0px" y="0px"
	 viewBox="0 0 60 60" style="enable-background:new 0 0 60 60;" xml:space="preserve">
<style type="text/css">
	.st0{fill:#FFCB55;}
	.st1{fill:#1C1C1C;}
	.st2{fill:#FF9855;}
	.st3{fill:#333333;}
	.st4{fill:#EE2D2C;}
	.st5{fill:none;stroke:#000000;stroke-width:2;stroke-linecap:round;stroke-linejoin:round;stroke-miterlimit:10;}
	.st6{fill:#369D69;}
	.st7{fill:#359E6A;}
	.st8{fill:#146D3C;}
	.st9{fill:none;stroke:#000000;stroke-width:1.3678;stroke-linecap:round;stroke-linejoin:round;stroke-miterlimit:10;}
</style>
<g>
	<g>
		<g>
			<path class="st0" d="M35.37,50.5c-1.97,0.28-4,0.42-6.03,0.42c-7.86,0-15.39-2.04-21.78-5.9l-0.28-0.17l-0.15-0.29
				c-2.67-5.3-4.02-11.02-4.02-17.01c0-5.06,0.98-9.96,2.91-14.58l0.13-0.32l0.29-0.19c6.63-4.32,14.54-6.6,22.89-6.6
				c8.36,0,16.28,2.28,22.9,6.6l0.29,0.19l0.13,0.32c1.93,4.61,2.91,9.51,2.91,14.58c0,5.99-1.35,11.71-4.02,17.01l-0.15,0.29
				l-0.27,0.17c-2.06,1.25-4.32,2.34-6.73,3.24l-4.47,6.83L35.37,50.5z"/>
			<path class="st1" d="M29.34,7c8.38,0,16.1,2.39,22.29,6.42c1.82,4.35,2.82,9.12,2.82,14.14c0,5.94-1.4,11.54-3.9,16.5
				c-2.13,1.3-4.44,2.39-6.88,3.27l-3.91,5.98l-3.99-4c-2.08,0.32-4.23,0.49-6.43,0.49c-7.89,0-15.21-2.12-21.2-5.74
				c-2.5-4.97-3.9-10.56-3.9-16.5c0-5.02,1-9.79,2.82-14.14C13.24,9.39,20.96,7,29.34,7 M29.34,4.75c-8.57,0-16.7,2.34-23.51,6.78
				l-0.58,0.38l-0.27,0.64c-1.99,4.75-3,9.8-3,15.01c0,6.17,1.39,12.06,4.14,17.52l0.29,0.58l0.55,0.33
				c6.57,3.96,14.3,6.06,22.36,6.06c1.89,0,3.78-0.12,5.63-0.35l3.2,3.21l1.96,1.96l1.52-2.32l3.51-5.36
				c2.34-0.9,4.55-1.97,6.57-3.2l0.55-0.33l0.29-0.58c2.75-5.45,4.14-11.35,4.14-17.52c0-5.21-1.01-10.26-3-15.01l-0.27-0.64
				l-0.58-0.38C46.04,7.09,37.91,4.75,29.34,4.75L29.34,4.75z"/>
		</g>
		<path class="st2" d="M54.45,27.56c0,5.94-1.4,11.54-3.9,16.5c-2.13,1.3-4.44,2.39-6.88,3.27l-3.91,5.98l-3.99-4
			c-2.08,0.32-4.23,0.49-6.43,0.49c-7.89,0-15.21-2.12-21.2-5.74c7.61,2.04,23.77,5.43,35.35-0.54c1.56-0.81,2.6-1.55,3.46-2.33
			c8.82-7.91,5.59-23.76,4.67-27.78C53.45,17.76,54.45,22.54,54.45,27.56z"/>
	</g>
	<g>
		<path class="st3" d="M30,24.35c0,0-8.03,5.23-9.88,6.43L2.75,20.75c7.73-2.14,17.29-3.3,27.25-3.3c9.96,0,19.53,1.16,27.25,3.3
			L39.86,30.78L30,24.35z"/>
		<path d="M30,18.54c8.79,0,17.25,0.91,24.38,2.6l-5.45,3.15l-9.03,5.21l-3.8-2.48l-4.9-3.2L30,23.05l-1.2,0.78l-3.76,2.45
			c-1.65,1.08-3.31,2.15-4.96,3.23L5.62,21.14C12.75,19.45,21.21,18.54,30,18.54 M30,16.35c-11.57,0-22.1,1.54-30,4.07l20.15,11.64
			c3.28-2.14,6.56-4.27,9.85-6.41c3.28,2.14,6.55,4.27,9.83,6.41c6.72-3.88,13.45-7.76,20.18-11.64C52.1,17.9,41.56,16.35,30,16.35
			L30,16.35z"/>
	</g>
	<g>
		<path class="st4" d="M23.94,45.17c3.41-0.36,6.72-1.2,9.88-2.49c4.84-1.98,9.14-4.95,12.79-8.82c0.31,0.31,0.66,0.77,0.83,1.39
			c0.38,1.4-0.46,2.58-0.69,2.88c-4.66,3.17-9.63,5.3-14.79,6.32c-2.47,0.49-5,0.74-7.52,0.74C24.27,45.18,24.1,45.17,23.94,45.17z"
			/>
		<path d="M46.54,35.01c0.07,0.13,0.13,0.27,0.17,0.43c0.26,0.97-0.26,1.82-0.49,2.13c-3.42,2.32-7.02,4.06-10.73,5.21
			C39.56,40.9,43.34,38.25,46.54,35.01 M46.53,32.83c-2.3,2.53-6.54,6.51-13,9.15c-4.95,2.03-9.66,2.65-13.6,2.65
			c-4.34,0-7.76-0.75-9.52-1.21c2.63,0.96,7.64,2.5,14.02,2.5c2.38,0,4.95-0.21,7.66-0.75c6.7-1.33,11.82-4.21,15.16-6.5
			c0.12-0.13,1.43-1.68,0.9-3.63C47.8,33.72,46.81,33.02,46.53,32.83L46.53,32.83z"/>
	</g>
</g>
</svg>
