<svg id="图层_1" data-name="图层 1" xmlns="http://www.w3.org/2000/svg" viewBox="0 0 96 96"><defs><style>.cls-1,.cls-4{fill:#ffcb55;}.cls-2{fill:#1c1c1c;}.cls-3{fill:#ff9855;}.cls-4{stroke:#1c1c1c;stroke-width:3.6px;}.cls-4,.cls-5{stroke-linecap:round;stroke-linejoin:round;}.cls-5{fill:none;stroke:#000;stroke-width:2.4px;}</style></defs><title>老哥稳</title><path class="cls-1" d="M48,82.72A67.34,67.34,0,0,1,13.17,73.3L12.73,73l-.24-.46A59.63,59.63,0,0,1,6,45.34,60.39,60.39,0,0,1,10.67,22l.22-.52.46-.3A67.14,67.14,0,0,1,48,10.66,67.14,67.14,0,0,1,84.65,21.18l.47.31.21.51A61,61,0,0,1,90,45.34a59.69,59.69,0,0,1-6.48,27.27l-.24.46-.44.27A67.53,67.53,0,0,1,48,82.72Z"/><path class="cls-2" d="M48,12.46A65.69,65.69,0,0,1,83.67,22.69a59.41,59.41,0,0,1,4.49,22.65,58.21,58.21,0,0,1-6.29,26.45A65.74,65.74,0,0,1,48,80.92a65.58,65.58,0,0,1-33.9-9.16A58.17,58.17,0,0,1,7.81,45.34a58.87,58.87,0,0,1,4.52-22.65A65.71,65.71,0,0,1,48,12.46m0-3.6A68.92,68.92,0,0,0,10.37,19.67l-.93.61-.43,1a62.24,62.24,0,0,0-4.8,24,61.36,61.36,0,0,0,6.68,28.05l.47.92.88.54A69.22,69.22,0,0,0,48,84.52a69.34,69.34,0,0,0,35.73-9.64l.88-.53.47-.93a61.42,61.42,0,0,0,6.68-28.08,62.71,62.71,0,0,0-4.76-24l-.43-1-.94-.61A68.92,68.92,0,0,0,48,8.86Z"/><path class="cls-3" d="M88.19,45.32a58.39,58.39,0,0,1-6.25,26.4,67.28,67.28,0,0,1-67.85,0c12.16,3.27,38,8.69,56.56-.86a25.63,25.63,0,0,0,5.55-3.72c14.11-12.66,8.94-38,7.47-44.45A58.51,58.51,0,0,1,88.19,45.32Z"/><path class="cls-2" d="M35.16,31l3.76-4.91L39,26a1.21,1.21,0,0,1,1.56-.32L56,34.35,39.47,28.06l1.68-.48-3,5.42A1.8,1.8,0,1,1,35,31.26,1.14,1.14,0,0,1,35.16,31Z"/><path class="cls-2" d="M25.58,34.51l-3-3.6,1.6.13L14.46,36.3,22.73,29a1.1,1.1,0,0,1,1.37-.05l.23.18,3.73,2.82a1.81,1.81,0,1,1-2.19,2.89A1.33,1.33,0,0,1,25.58,34.51Z"/><path class="cls-4" d="M78.44,68.91a10.77,10.77,0,0,1-5.39-9q0-.51,0-1a15.54,15.54,0,0,1,1.6-5.9h-.06A8.45,8.45,0,0,0,64.4,61.16,9.52,9.52,0,0,0,65,64.25a10.16,10.16,0,0,0,2.75,4,10.38,10.38,0,0,0-6,1.44,11.42,11.42,0,0,0-4,14.35c2.92,5.81,10.62,7.5,15.45,4.7a10.85,10.85,0,0,0,4.65-6.25,8.75,8.75,0,0,0,1.8,3.85c.16.2.33.38.49.55a3.66,3.66,0,0,0,5,.16l0,0a5,5,0,0,0,.73-.82,5.85,5.85,0,0,0,1-3.87,17.14,17.14,0,0,0-1.55-5.84A17.69,17.69,0,0,0,78.44,68.91Z"/><line class="cls-5" x1="58.86" y1="42.93" x2="38.81" y2="42.93"/><circle cx="42.43" cy="45.32" r="2.63"/><line class="cls-5" x1="34.32" y1="42.93" x2="14.27" y2="42.93"/><circle cx="17.89" cy="45.32" r="2.63"/><path d="M11.48,60c.73,1,1.43,2.09,2.12,3.15l1,1.58c.34.52.74,1,1.1,1.53l1.09,1.51a3.86,3.86,0,0,0,2.67,1.48c.51,0,1.22,0,1.81,0A61.91,61.91,0,0,0,36,67.73a44.45,44.45,0,0,0,13.59-5.5,45.15,45.15,0,0,0,5.86-4.5,45.35,45.35,0,0,0,5-5.58,30.7,30.7,0,0,1-4.18,6.39,36.12,36.12,0,0,1-5.66,5.24,33,33,0,0,1-3.27,2.1c-.57.31-1.12.64-1.71.93l-1.75.83a44.05,44.05,0,0,1-7.36,2.43A52.28,52.28,0,0,1,28.9,71.2a54.82,54.82,0,0,1-7.69,0l-1-.09c-.32,0-.61,0-1-.11a5,5,0,0,1-2-.83,5.29,5.29,0,0,1-1.51-1.58l-.95-1.67A36.18,36.18,0,0,1,13,63.47C12.49,62.32,12,61.16,11.48,60Z"/></svg>