<svg id="图层_1" data-name="图层 1" xmlns="http://www.w3.org/2000/svg" xmlns:xlink="http://www.w3.org/1999/xlink" viewBox="0 0 96 96"><defs><style>.cls-1,.cls-8{fill:#fc5;}.cls-2{fill:#1c1c1c;}.cls-3{fill:#f95;}.cls-4,.cls-7{fill:none;}.cls-4,.cls-8{stroke:#1c1c1c;}.cls-4,.cls-7,.cls-8{stroke-linecap:round;stroke-linejoin:round;stroke-width:2.4px;}.cls-5{fill:url(#未命名的渐变_5);}.cls-6{fill:url(#未命名的渐变_5-2);}.cls-7{stroke:#ee2d2c;}</style><radialGradient id="未命名的渐变_5" cx="21.4" cy="49.57" r="8.09" gradientTransform="translate(0 24.78) scale(1 0.5)" gradientUnits="userSpaceOnUse"><stop offset="0" stop-color="#ff433b"/><stop offset="0.28" stop-color="#ff7244"/><stop offset="0.61" stop-color="#ffa24d"/><stop offset="0.86" stop-color="#ffc153"/><stop offset="1" stop-color="#fc5"/></radialGradient><radialGradient id="未命名的渐变_5-2" cx="74.6" cy="49.57" r="8.09" xlink:href="#未命名的渐变_5"/></defs><title>流鼻血</title><path class="cls-1" d="M48,82.58a67.37,67.37,0,0,1-34.83-9.42l-.44-.27-.23-.46A59.59,59.59,0,0,1,6,45.2a60.57,60.57,0,0,1,4.65-23.34l.22-.52.47-.3A67,67,0,0,1,48,10.51,67,67,0,0,1,84.66,21l.47.3.22.52A61,61,0,0,1,90,45.2a59.65,59.65,0,0,1-6.48,27.26l-.23.47-.45.26A67.54,67.54,0,0,1,48,82.58Z"/><path class="cls-2" d="M48,12.31A65.58,65.58,0,0,1,83.68,22.55,59.23,59.23,0,0,1,88.17,45.2a58.23,58.23,0,0,1-6.28,26.45A65.9,65.9,0,0,1,48,80.78a65.73,65.73,0,0,1-33.9-9.16,58.85,58.85,0,0,1-1.76-49.07A65.58,65.58,0,0,1,48,12.31m0-3.6A68.83,68.83,0,0,0,10.39,19.53l-.94.6-.43,1a62.28,62.28,0,0,0-4.79,24A61.38,61.38,0,0,0,10.9,73.25l.47.92.88.53A69.16,69.16,0,0,0,48,84.38a69.41,69.41,0,0,0,35.73-9.64l.89-.54.47-.92A61.45,61.45,0,0,0,91.77,45.2a62.67,62.67,0,0,0-4.76-24l-.43-1-.94-.61A68.84,68.84,0,0,0,48,8.71Z"/><path class="cls-3" d="M88.13,45.25a58.51,58.51,0,0,1-6.24,26.4,67.29,67.29,0,0,1-67.86,0c12.17,3.27,38,8.69,56.57-.86a25.17,25.17,0,0,0,5.54-3.73c14.11-12.65,9-38,7.47-44.44A58.33,58.33,0,0,1,88.13,45.25Z"/><polyline class="cls-4" points="72.87 29.09 71.66 29.09 67.97 29.09 59.06 29.09 55.39 29.09 54.4 29.09"/><polyline class="cls-4" points="41.6 29.09 40.38 29.09 36.7 29.09 27.79 29.09 24.11 29.09 23.13 29.09"/><polyline class="cls-4" points="41.6 29.09 41.6 28.88 41.6 28.25 41.6 26.71 41.6 26.07 41.6 25.9"/><polyline class="cls-4" points="54.4 29.09 54.4 28.88 54.4 28.25 54.4 26.71 54.4 26.07 54.4 25.9"/><ellipse cx="41.92" cy="52.91" rx="1.64" ry="1.09"/><ellipse cx="54.08" cy="52.91" rx="1.64" ry="1.09"/><circle cx="37.61" cy="32.95" r="1.64"/><circle cx="58.39" cy="32.95" r="1.64"/><ellipse class="cls-5" cx="21.4" cy="49.57" rx="10.3" ry="4.98"/><ellipse class="cls-6" cx="74.6" cy="49.57" rx="10.3" ry="4.98"/><path class="cls-7" d="M54.14,53.43c.13,1.26.32,3,.54,5.21.62,6,.71,7.11.78,8.3.19,3.46,0,4.43,0,7.55a76.55,76.55,0,0,0,1.05,11.45"/><path class="cls-7" d="M41.92,53.43c-.13,1.26-.32,3-.54,5.21-.61,6-.7,7.11-.77,8.3-.2,3.46,0,4.43-.06,7.55a77.65,77.65,0,0,1-1,11.45"/><path class="cls-8" d="M61.45,77.53a11.67,11.67,0,1,0,22.41-4.59,15.64,15.64,0,0,1-1.2-8.89c.88-4.88,4.06-6.88,3.11-8.78-1.07-2.13-6.6-2.72-9.91-.1s-3.24,7.61-2,10.7h-.69A11.67,11.67,0,0,0,61.45,77.53Z"/></svg>