<svg id="图层_1" data-name="图层 1" xmlns="http://www.w3.org/2000/svg" viewBox="0 0 96 96"><defs><style>.cls-1{fill:#ffcb55;}.cls-2{fill:#1c1c1c;}.cls-3{fill:#ff9855;}.cls-4,.cls-5{fill:#fff;}.cls-5{opacity:0.18;}</style></defs><title>刘海屏</title><path class="cls-1" d="M57.64,82.45a70.14,70.14,0,0,1-9.65.66,67.36,67.36,0,0,1-34.85-9.43l-.44-.27-.24-.47a60.74,60.74,0,0,1-1.77-50.53l.21-.51.46-.3A66.83,66.83,0,0,1,48,11,66.87,66.87,0,0,1,84.64,21.6l.46.3.21.51a60.74,60.74,0,0,1-1.77,50.53l-.23.46-.44.27A62.68,62.68,0,0,1,72.1,78.85L65,89.78Z"/><path class="cls-2" d="M48,12.84A65.36,65.36,0,0,1,83.65,23.1a58.94,58.94,0,0,1-1.72,49,61.27,61.27,0,0,1-11,5.24l-6.26,9.57-6.38-6.41A66.8,66.8,0,0,1,48,81.31a65.62,65.62,0,0,1-33.92-9.18,58.94,58.94,0,0,1-1.72-49A65.29,65.29,0,0,1,48,12.84m0-3.6A68.61,68.61,0,0,0,10.38,20.09l-.93.6-.42,1a62.51,62.51,0,0,0,1.83,52l.46.93.89.54A69.14,69.14,0,0,0,48,84.91a72.77,72.77,0,0,0,9-.56l5.11,5.13,3.13,3.14,2.43-3.71,5.62-8.58A64.81,64.81,0,0,0,83.8,75.21l.88-.54.46-.92a62.51,62.51,0,0,0,1.83-52l-.42-1-.93-.6A68.65,68.65,0,0,0,48,9.24Z"/><path class="cls-3" d="M88.17,45.73a58.45,58.45,0,0,1-6.24,26.4,61.27,61.27,0,0,1-11,5.24l-6.26,9.57-6.38-6.41A66.8,66.8,0,0,1,48,81.31a65.62,65.62,0,0,1-33.92-9.18c12.17,3.27,38,8.7,56.57-.85a25.52,25.52,0,0,0,5.54-3.73c14.11-12.65,8.95-38,7.47-44.45A58.33,58.33,0,0,1,88.17,45.73Z"/><path class="cls-2" d="M86.69,32.5a8.43,8.43,0,0,0-7.54,8.38h0a5.47,5.47,0,0,1-5.47,5.47H22.42a5.47,5.47,0,0,1-5.48-5.47h0A8.41,8.41,0,0,0,9.31,32.5a58.5,58.5,0,0,1,3-9.39A65.25,65.25,0,0,1,48,12.83,65.31,65.31,0,0,1,83.65,23.11,58.5,58.5,0,0,1,86.69,32.5Z"/><path class="cls-4" d="M34.8,41.78a11,11,0,1,1,11-11A11,11,0,0,1,34.8,41.78Z"/><path d="M34.8,21.08a9.75,9.75,0,1,1-9.75,9.75,9.76,9.76,0,0,1,9.75-9.75m0-2.4A12.15,12.15,0,1,0,47,30.83,12.15,12.15,0,0,0,34.8,18.68Z"/><path d="M34.8,37.34a6.51,6.51,0,1,1,6.51-6.51A6.52,6.52,0,0,1,34.8,37.34Z"/><path d="M34.8,25.52a5.31,5.31,0,1,1-5.31,5.31,5.31,5.31,0,0,1,5.31-5.31m0-2.4a7.71,7.71,0,1,0,7.71,7.71,7.71,7.71,0,0,0-7.71-7.71Z"/><path class="cls-4" d="M29.31,30.83h2.17A3.32,3.32,0,0,1,34.8,27.5V25.34A5.49,5.49,0,0,0,29.31,30.83Z"/><path class="cls-5" d="M40.29,30.83H38.12a3.32,3.32,0,0,1-3.32,3.32v2.16A5.49,5.49,0,0,0,40.29,30.83Z"/><path class="cls-4" d="M61.2,41.78a11,11,0,1,1,11-11A11,11,0,0,1,61.2,41.78Z"/><path d="M61.2,21.08a9.75,9.75,0,1,1-9.75,9.75,9.76,9.76,0,0,1,9.75-9.75m0-2.4A12.15,12.15,0,1,0,73.35,30.83,12.15,12.15,0,0,0,61.2,18.68Z"/><path d="M61.2,37.34a6.51,6.51,0,1,1,6.51-6.51A6.52,6.52,0,0,1,61.2,37.34Z"/><path d="M61.2,25.52a5.31,5.31,0,1,1-5.31,5.31,5.31,5.31,0,0,1,5.31-5.31m0-2.4a7.71,7.71,0,1,0,7.71,7.71,7.71,7.71,0,0,0-7.71-7.71Z"/><path class="cls-4" d="M55.71,30.83h2.17A3.32,3.32,0,0,1,61.2,27.5V25.34A5.49,5.49,0,0,0,55.71,30.83Z"/><path class="cls-5" d="M66.69,30.83H64.52a3.32,3.32,0,0,1-3.32,3.32v2.16A5.49,5.49,0,0,0,66.69,30.83Z"/><path d="M80,57a15,15,0,0,1-2.7,10.16,17.5,17.5,0,0,1-3.83,3.95,19.47,19.47,0,0,1-4.86,2.58,56.61,56.61,0,0,1-10.23,3,62.87,62.87,0,0,1-10.61,1.07,64.11,64.11,0,0,1-10.63-.83,56.57,56.57,0,0,1-10.3-2.77,17.42,17.42,0,0,1-8.52-6.85A15.92,15.92,0,0,1,16,57a17.3,17.3,0,0,0,3.69,9.27,15.25,15.25,0,0,0,3.64,3.21,16.58,16.58,0,0,0,4.36,2,67.7,67.7,0,0,0,9.9,2.06,65.35,65.35,0,0,0,10.08.6,64.12,64.12,0,0,0,10.07-.82A67.5,67.5,0,0,0,67.64,71l1.21-.39L70,70.2l1.09-.5,1.06-.58A15.81,15.81,0,0,0,75.89,66,16.09,16.09,0,0,0,80,57Z"/></svg>