<svg id="图层_1" data-name="图层 1" xmlns="http://www.w3.org/2000/svg" viewBox="0 0 96 96"><defs><style>.cls-1{fill:#fc5;}.cls-2{fill:#1c1c1c;}.cls-3{fill:#f95;}.cls-4{fill:#5dadf5;}.cls-5{fill:#4580d2;}.cls-6,.cls-7,.cls-8{fill:none;stroke-linecap:round;stroke-linejoin:round;}.cls-6{stroke:#fff;}.cls-6,.cls-8{stroke-width:2.4px;}.cls-7,.cls-8{stroke:#1c1c1c;}.cls-7{stroke-width:3.2px;}</style></defs><title>流汗</title><path class="cls-1" d="M57.64,82.71a68.61,68.61,0,0,1-9.65.67,67.24,67.24,0,0,1-34.85-9.44l-.44-.26-.24-.47a60.74,60.74,0,0,1-1.77-50.53l.21-.51.46-.31A66.9,66.9,0,0,1,48,11.31,66.94,66.94,0,0,1,84.64,21.86l.46.31.21.51a60.74,60.74,0,0,1-1.77,50.53l-.23.46-.45.27A62.61,62.61,0,0,1,72.1,79.12L65,90.05Z"/><path class="cls-2" d="M48,13.11A65.36,65.36,0,0,1,83.65,23.37a58.94,58.94,0,0,1-1.72,49,61.27,61.27,0,0,1-11,5.24l-6.26,9.57L58.28,80.8A68.07,68.07,0,0,1,48,81.58,65.62,65.62,0,0,1,14.07,72.4a58.94,58.94,0,0,1-1.72-49A65.29,65.29,0,0,1,48,13.11m0-3.6A68.61,68.61,0,0,0,10.38,20.36l-.93.6L9,22a62.51,62.51,0,0,0,1.83,52l.46.93.89.53A69.05,69.05,0,0,0,48,85.18a72.77,72.77,0,0,0,9-.56l5.11,5.13,3.13,3.14,2.43-3.71,5.62-8.58A65.65,65.65,0,0,0,83.8,75.48l.88-.54.46-.92A62.51,62.51,0,0,0,87,22l-.42-1-.93-.6A68.65,68.65,0,0,0,48,9.51Z"/><path class="cls-3" d="M88.17,46a58.51,58.51,0,0,1-6.24,26.4,62,62,0,0,1-11,5.24L64.66,87.2l-6.38-6.4A68.07,68.07,0,0,1,48,81.58,65.62,65.62,0,0,1,14.07,72.4c12.17,3.27,38,8.69,56.57-.86a25.17,25.17,0,0,0,5.54-3.73c14.11-12.65,8.95-38,7.47-44.44A58.33,58.33,0,0,1,88.17,46Z"/><path class="cls-4" d="M71.25,70.44a12,12,0,0,1-12-12,11.87,11.87,0,0,1,1-4.78l0-.08c0-.1.09-.2.14-.3q2.45-5.37,4.87-10.73l4.86-10.72a1.2,1.2,0,0,1,1.09-.71h0a1.2,1.2,0,0,1,1.09.71l9.52,21A12,12,0,0,1,71.25,70.44Z"/><path d="M71.25,32.34q4.75,10.53,9.52,21a10.78,10.78,0,1,1-20.3,5.07,10.58,10.58,0,0,1,1-4.43h0a1.75,1.75,0,0,1,.11-.24l9.72-21.45m0-2.4a2.41,2.41,0,0,0-2.19,1.41L64.2,42.08,59.37,52.74c-.08.17-.15.3-.2.44l0,.07a13.18,13.18,0,1,0,25.29,5.21,13.34,13.34,0,0,0-1.5-6.12q-2.36-5.22-4.72-10.43L73.44,31.35a2.42,2.42,0,0,0-2.19-1.41Z"/><path class="cls-5" d="M82,58.46a10.77,10.77,0,0,1-21.17,2.83,10.77,10.77,0,0,0,19.87-5.77,10.85,10.85,0,0,0-.61-3.58c.21.48.43,1,.65,1.45A10.85,10.85,0,0,1,82,58.46Z"/><line class="cls-6" x1="69.87" y1="44.03" x2="65.71" y2="56.24"/><path class="cls-2" d="M22.66,56.11a14.44,14.44,0,0,1,5.66-3,22.26,22.26,0,0,1,12.6,0,14.68,14.68,0,0,1,5.67,3l0,0a.12.12,0,0,1,0,.17.13.13,0,0,1-.12,0A35,35,0,0,0,40.63,55a40.29,40.29,0,0,0-6-.41,40.29,40.29,0,0,0-6,.41,34.69,34.69,0,0,0-5.87,1.35.11.11,0,0,1-.15-.07.12.12,0,0,1,0-.13Z"/><polyline class="cls-7" points="50.48 36.29 49.93 36.29 48.26 36.29 44.23 36.29 42.56 36.29 42.11 36.29"/><polyline class="cls-7" points="27.63 36.29 27.08 36.29 25.41 36.29 21.38 36.29 19.71 36.29 19.27 36.29"/><polyline class="cls-8" points="52.24 31.45 51.4 31.45 48.82 31.45 42.6 31.45 40.03 31.45 39.34 31.45"/><polyline class="cls-8" points="30.4 31.45 29.55 31.45 26.98 31.45 20.76 31.45 18.19 31.45 17.5 31.45"/><polyline class="cls-8" points="30.4 31.45 30.4 31.3 30.4 30.86 30.4 29.78 30.4 29.34 30.4 29.22"/><polyline class="cls-8" points="39.34 31.45 39.34 31.3 39.34 30.86 39.34 29.78 39.34 29.34 39.34 29.22"/></svg>