<svg id="图层_1" data-name="图层 1" xmlns="http://www.w3.org/2000/svg" xmlns:xlink="http://www.w3.org/1999/xlink" viewBox="0 0 96 96"><defs><style>.cls-1{fill:#fc5;}.cls-2{fill:#1c1c1c;}.cls-3{fill:#f95;}.cls-4{fill:#fff;}.cls-5{fill:url(#未命名的渐变_16);}.cls-6{fill:url(#未命名的渐变_16-2);}.cls-7{fill:#5dacf4;}.cls-8{fill:#4580d2;}.cls-10,.cls-9{fill:none;stroke:#fff;stroke-linecap:round;stroke-linejoin:round;}.cls-9{stroke-width:1.8px;}.cls-10{stroke-width:1.2px;}</style><radialGradient id="未命名的渐变_16" cx="18.83" cy="-452.89" r="6.51" gradientTransform="translate(0 322.81) scale(1 0.62)" gradientUnits="userSpaceOnUse"><stop offset="0" stop-color="#ff433b"/><stop offset="1" stop-color="#ff433b" stop-opacity="0"/></radialGradient><radialGradient id="未命名的渐变_16-2" cx="81.94" cy="-452.89" r="6.51" xlink:href="#未命名的渐变_16"/></defs><title>流汗滑稽</title><path class="cls-1" d="M60,82.44a70.15,70.15,0,0,1-9.65.67,67.24,67.24,0,0,1-34.85-9.44l-.45-.27-.23-.46a60.79,60.79,0,0,1-1.78-50.53l.22-.52.46-.3A66.88,66.88,0,0,1,50.38,11,66.89,66.89,0,0,1,87,21.59l.47.3.21.52a60.69,60.69,0,0,1-1.78,50.53l-.23.46-.44.27a63.72,63.72,0,0,1-10.76,5.18L67.34,89.78Z"/><path class="cls-2" d="M50.38,12.83A65.28,65.28,0,0,1,86,23.1a58.94,58.94,0,0,1-1.72,49,62.29,62.29,0,0,1-11,5.24l-6.26,9.56-6.39-6.4a67.84,67.84,0,0,1-10.28.78,65.62,65.62,0,0,1-33.92-9.18,59,59,0,0,1-1.73-49A65.27,65.27,0,0,1,50.38,12.83m0-3.6A68.67,68.67,0,0,0,12.77,20.08l-.93.61-.43,1a62.61,62.61,0,0,0,1.83,52l.47.93.89.53a69.05,69.05,0,0,0,35.78,9.7,70.73,70.73,0,0,0,9-.57l5.12,5.14,3.13,3.14,2.43-3.71,5.62-8.58a65.65,65.65,0,0,0,10.51-5.12l.88-.54.46-.92a62.51,62.51,0,0,0,1.83-52l-.43-1L88,20.08A68.74,68.74,0,0,0,50.38,9.23Z"/><path class="cls-3" d="M90.56,45.72a58.52,58.52,0,0,1-6.24,26.41,61.56,61.56,0,0,1-11,5.23l-6.26,9.57-6.39-6.4a67.84,67.84,0,0,1-10.28.78,65.62,65.62,0,0,1-33.92-9.18c12.17,3.26,38,8.69,56.56-.86a25,25,0,0,0,5.55-3.73c14.11-12.65,9-38,7.47-44.44A58.32,58.32,0,0,1,90.56,45.72Z"/><path class="cls-4" d="M20.06,36.36a3.43,3.43,0,0,1-2.44-1,3.51,3.51,0,0,1-1-2.85,3.3,3.3,0,0,1,1.49-2.44,25.16,25.16,0,0,1,27.3,0,3.29,3.29,0,0,1,1.49,2.45,3.48,3.48,0,0,1-1,2.84,3.4,3.4,0,0,1-2.44,1,3.34,3.34,0,0,1-1.82-.54,18.3,18.3,0,0,0-19.74,0A3.4,3.4,0,0,1,20.06,36.36Z"/><path d="M31.75,27.23a23.84,23.84,0,0,1,13,3.83,2.09,2.09,0,0,1,1,1.57A2.29,2.29,0,0,1,45,34.49a2.23,2.23,0,0,1-1.59.67,2.15,2.15,0,0,1-1.18-.35,19.51,19.51,0,0,0-21,0,2.11,2.11,0,0,1-1.17.35,2.25,2.25,0,0,1-1.6-.66,2.33,2.33,0,0,1-.66-1.87,2.12,2.12,0,0,1,.95-1.57,23.81,23.81,0,0,1,13-3.83m0-2.4a26.24,26.24,0,0,0-14.31,4.22,4.62,4.62,0,0,0-.67,7.14h0a4.61,4.61,0,0,0,5.77.64,17.09,17.09,0,0,1,18.44,0,4.51,4.51,0,0,0,2.47.73,4.65,4.65,0,0,0,3.29-1.37h0A4.63,4.63,0,0,0,46.05,29a26.23,26.23,0,0,0-14.3-4.21Z"/><circle class="cls-2" cx="20.02" cy="32.89" r="4.65"/><path class="cls-4" d="M57.35,36.36a3.47,3.47,0,0,1-3.44-3.86,3.26,3.26,0,0,1,1.48-2.44,25.18,25.18,0,0,1,27.31,0,3.32,3.32,0,0,1,1.49,2.45,3.48,3.48,0,0,1-1,2.84,3.4,3.4,0,0,1-2.44,1,3.34,3.34,0,0,1-1.82-.54,18.3,18.3,0,0,0-19.74,0A3.38,3.38,0,0,1,57.35,36.36Z"/><path d="M69,27.23a23.87,23.87,0,0,1,13,3.83A2.07,2.07,0,0,1,83,32.63a2.28,2.28,0,0,1-2.25,2.53,2.11,2.11,0,0,1-1.17-.35,19.51,19.51,0,0,0-21,0,2.15,2.15,0,0,1-1.18.35,2.22,2.22,0,0,1-1.59-.66,2.33,2.33,0,0,1-.66-1.87,2.12,2.12,0,0,1,.95-1.57,23.78,23.78,0,0,1,13-3.83m0-2.4a26.21,26.21,0,0,0-14.3,4.22,4.63,4.63,0,0,0-.68,7.14h0a4.65,4.65,0,0,0,3.29,1.37,4.56,4.56,0,0,0,2.48-.73,17.09,17.09,0,0,1,18.44,0,4.56,4.56,0,0,0,2.47.73A4.66,4.66,0,0,0,83.35,29,26.29,26.29,0,0,0,69,24.83Z"/><circle class="cls-2" cx="57.32" cy="32.89" r="4.65"/><path class="cls-2" d="M33.24,19.23a24.89,24.89,0,0,0-2.76-4.49,11.92,11.92,0,0,0-3.66-3.12,10.62,10.62,0,0,0-4.61-1.24,19.93,19.93,0,0,0-5.21.53,9.68,9.68,0,0,1,5.11-2.42,9.37,9.37,0,0,1,5.83,1,10,10,0,0,1,4.12,4.22A10.52,10.52,0,0,1,33.24,19.23Z"/><path class="cls-2" d="M67.54,19.23a10.51,10.51,0,0,1,1.17-5.51A10.09,10.09,0,0,1,72.83,9.5a9.38,9.38,0,0,1,5.84-1,9.72,9.72,0,0,1,5.11,2.42,20,20,0,0,0-5.22-.53A10.58,10.58,0,0,0,74,11.62a12.07,12.07,0,0,0-3.67,3.12A24.87,24.87,0,0,0,67.54,19.23Z"/><ellipse class="cls-5" cx="18.83" cy="43.72" rx="6.51" ry="4.01"/><ellipse class="cls-6" cx="81.94" cy="43.72" rx="6.51" ry="4.01"/><path d="M85.07,49.88a25.71,25.71,0,0,1-2,12.43,20.74,20.74,0,0,1-8.47,9.82,51.56,51.56,0,0,1-11.87,4.8A53.49,53.49,0,0,1,50,78.67a53.15,53.15,0,0,1-12.75-1.41,55,55,0,0,1-6.14-1.88c-1-.37-2-.76-3-1.2a19.54,19.54,0,0,1-2.94-1.59,21.21,21.21,0,0,1-8-10.2,28.41,28.41,0,0,1-1.53-12.51,33.1,33.1,0,0,0,3.14,11.79,20.36,20.36,0,0,0,7.86,8.53,17.86,17.86,0,0,0,2.62,1.19c.94.36,1.89.7,2.85,1A49.67,49.67,0,0,0,38,73.93a52.88,52.88,0,0,0,12,1.15,53.34,53.34,0,0,0,11.93-1.45,55.92,55.92,0,0,0,11.39-4,19.84,19.84,0,0,0,8.21-8.13A29.34,29.34,0,0,0,85.07,49.88Z"/><path class="cls-7" d="M81.74,58.78A10.63,10.63,0,0,1,72,43.89a.19.19,0,0,0,0-.07l.12-.25,4.45-9.82q2.16-4.77,4.33-9.56a.91.91,0,0,1,.82-.53h0a.91.91,0,0,1,.82.53l8.6,19a10.63,10.63,0,0,1-9.42,15.58Z"/><path d="M81.74,24.56l8.6,19a9.73,9.73,0,1,1-17.47.57h0a2.12,2.12,0,0,1,.11-.21q4.4-9.68,8.77-19.37m0-1.8a1.83,1.83,0,0,0-1.64,1.06l-4.38,9.67-4.37,9.66a1.91,1.91,0,0,0-.17.36.19.19,0,0,0,0,.07,11.34,11.34,0,0,0-1,4.57,11.54,11.54,0,0,0,23.07,0A11.71,11.71,0,0,0,92,42.78q-2.14-4.72-4.28-9.46t-4.3-9.5a1.82,1.82,0,0,0-1.63-1.06Z"/><path class="cls-8" d="M91.48,48.15A9.73,9.73,0,0,1,72.36,50.7a9.73,9.73,0,0,0,17.39-8.44l.59,1.31A9.83,9.83,0,0,1,91.48,48.15Z"/><line class="cls-9" x1="80.5" y1="35.11" x2="76.74" y2="46.14"/><path class="cls-7" d="M9.55,56.43A5.64,5.64,0,0,1,3.92,50.8a5.52,5.52,0,0,1,.47-2.24s.07-.16.08-.19L9,38.38A.6.6,0,0,1,9.55,38h0a.6.6,0,0,1,.55.36l4.44,9.81a5.65,5.65,0,0,1-5,8.24Z"/><path d="M9.55,38.62,14,48.44A5,5,0,1,1,4.52,50.8,4.93,4.93,0,0,1,5,48.73H5L5,48.62l4.53-10m0-1.2a1.2,1.2,0,0,0-1.09.71q-1.14,2.49-2.26,5l-2.27,5a1.72,1.72,0,0,0-.09.19v0a6.13,6.13,0,0,0-.51,2.46,6.23,6.23,0,1,0,12.45,0,6.32,6.32,0,0,0-.7-2.89l-2.2-4.85-2.23-4.93a1.2,1.2,0,0,0-1.09-.71Z"/><path class="cls-8" d="M14.57,50.8A5,5,0,0,1,4.7,52.12,5,5,0,0,0,14,49.43a4.84,4.84,0,0,0-.29-1.67c.1.23.21.45.31.68A5.06,5.06,0,0,1,14.57,50.8Z"/><line class="cls-10" x1="8.91" y1="44.07" x2="6.97" y2="49.76"/><path class="cls-7" d="M16.78,68.87a3.46,3.46,0,0,1-3.46-3.45,3.37,3.37,0,0,1,.29-1.37l2.62-5.8a.61.61,0,0,1,.55-.35h0a.59.59,0,0,1,.54.35l2.53,5.58a3.46,3.46,0,0,1-3.07,5Z"/><path d="M16.78,58.5l2.52,5.57a2.9,2.9,0,0,1,.33,1.35,2.86,2.86,0,0,1-5.71,0,2.75,2.75,0,0,1,.26-1.18h0l0-.06,2.58-5.68m0-1.2a1.23,1.23,0,0,0-1.1.7L14.4,60.84l-1.29,2.84a1.13,1.13,0,0,0-.06.14h0a3.94,3.94,0,0,0-.33,1.59,4.06,4.06,0,0,0,8.11,0,4.16,4.16,0,0,0-.45-1.87l-1.25-2.76L17.87,58a1.2,1.2,0,0,0-1.09-.71Z"/><path class="cls-8" d="M19.63,65.42a2.85,2.85,0,0,1-5.6.74,2.83,2.83,0,0,0,2.4,1.33,2.86,2.86,0,0,0,2.86-2.85,2.67,2.67,0,0,0-.17-1l.18.38A2.9,2.9,0,0,1,19.63,65.42Z"/><line class="cls-10" x1="16.41" y1="61.59" x2="15.31" y2="64.83"/></svg>