<svg id="图层_1" data-name="图层 1" xmlns="http://www.w3.org/2000/svg" viewBox="0 0 96 96"><defs><style>.cls-1{fill:#369d69;}.cls-2{fill:#238a55;}.cls-3{fill:#146d3c;}.cls-4{fill:#359e6a;}</style></defs><title>绿帽子</title><ellipse class="cls-1" cx="48" cy="69.75" rx="43.02" ry="16.3"/><path d="M48,55.25c22.76,0,41.22,6.5,41.22,14.5S70.76,84.25,48,84.25,6.78,77.76,6.78,69.75,25.24,55.25,48,55.25m0-3.6c-22.27,0-44.82,6.22-44.82,18.1S25.73,87.85,48,87.85s44.82-6.21,44.82-18.1S70.27,51.65,48,51.65Z"/><path class="cls-2" d="M48,76.18c-14.23,0-28.63-3.45-29.35-10A78.42,78.42,0,0,1,9,24.59a1.8,1.8,0,0,1,1.8-1.72H85.2A1.81,1.81,0,0,1,87,24.59a78.82,78.82,0,0,1-2.46,23.54,78.67,78.67,0,0,1-7.18,18C76.65,72.73,62.24,76.18,48,76.18Z"/><path d="M85.2,24.67a76.65,76.65,0,0,1-9.61,41c0,4.84-12.35,8.75-27.59,8.75s-27.58-3.91-27.58-8.75a76.52,76.52,0,0,1-9.62-41H85.2m0-3.6H10.8a3.61,3.61,0,0,0-3.6,3.44,80.24,80.24,0,0,0,9.71,42.21C18.18,74.48,33.16,78,48,78s29.83-3.5,31.1-11.27a80.6,80.6,0,0,0,7.18-18.12,80.14,80.14,0,0,0,2.51-24.08,3.6,3.6,0,0,0-3.59-3.44Z"/><path class="cls-3" d="M82.8,47.68a77.22,77.22,0,0,1-7.21,17.95c0,4.84-12.35,8.75-27.59,8.75-2.09,0-4.13-.07-6.09-.22a25.15,25.15,0,0,0,15.37-3C65.6,66.18,68.1,57,70.63,47.68a72.61,72.61,0,0,0,2.4-23H85.2A77.11,77.11,0,0,1,82.8,47.68Z"/><path class="cls-4" d="M48,38.28c-18.91,0-39-4.77-39-13.6s20.09-13.6,39-13.6,39,4.77,39,13.6S66.91,38.28,48,38.28Z"/><path d="M48,12.88c20.54,0,37.2,5.28,37.2,11.8S68.54,36.48,48,36.48,10.8,31.2,10.8,24.68,27.46,12.88,48,12.88m0-3.6c-19.65,0-40.8,4.82-40.8,15.4S28.35,40.08,48,40.08s40.8-4.82,40.8-15.4S67.65,9.28,48,9.28Z"/></svg>