<svg id="图层_1" data-name="图层 1" xmlns="http://www.w3.org/2000/svg" xmlns:xlink="http://www.w3.org/1999/xlink" viewBox="0 0 96 96"><defs><style>.cls-1{fill:#9e875d;}.cls-2{fill:#fff9ef;}.cls-3{fill:#331816;}.cls-4{fill:url(#未命名的渐变_34);}.cls-5{fill:#fff;}.cls-6{fill:#1c1c1c;}</style><linearGradient id="未命名的渐变_34" x1="68.48" y1="22.48" x2="73.82" y2="25.93" gradientUnits="userSpaceOnUse"><stop offset="0" stop-color="#9e875d"/><stop offset="1" stop-color="#42210b"/></linearGradient></defs><title>马</title><path class="cls-1" d="M58.67,20.19a23.47,23.47,0,0,1,1.82-6.26c.93-2.09,1.79-4,3.08-4.06s2.48,1.94,3.37,3.51a14.38,14.38,0,0,1,1.5,3.76Z"/><path class="cls-2" d="M31.59,63.39a15.6,15.6,0,0,1-1.95,7.94A49.07,49.07,0,0,1,13.78,71a53.24,53.24,0,0,1-6-24.63c0-1.1,0-2.19.1-3.27A207.73,207.73,0,0,1,37.33,26.93c1.1-.5,2.2-1,3.29-1.44-12.8,8.64-19.2,13-19.48,18.26C20.75,51.13,31.2,53.78,31.59,63.39Z"/><path class="cls-1" d="M78.52,73.43c-.41.45-.84.9-1.29,1.36A52.86,52.86,0,0,1,60.7,86.13C51.3,73.93,43.32,71,37.59,70.72a49.84,49.84,0,0,0-8,.61,15.6,15.6,0,0,0,1.95-7.94c-.39-9.61-10.84-12.26-10.45-19.64.28-5.28,6.68-9.62,19.48-18.26h0a207.78,207.78,0,0,1,21.78-7.91,62.27,62.27,0,0,1,15.24,5.86,16.79,16.79,0,0,0-1.55,1.07c-1.85,4-3.7,8-5.54,12l3.55-1.73q-1.73,7.7-3.46,15.4l4.06-3.11-3.12,8,4-.17c-.37,3.81-.76,7.62-1.13,11.42,1.29-.63,2.58-1.28,3.86-1.92a35.9,35.9,0,0,1,.37,4A37,37,0,0,1,78.52,73.43Z"/><path class="cls-3" d="M62.42,17.57a46.32,46.32,0,0,0-10,2.59,74.68,74.68,0,0,0-11.73,5.3l16.4-3-6.15,4.93,11.17-5.1-3.21,9L70.74,17.34A41.24,41.24,0,0,0,62.42,17.57Z"/><path class="cls-3" d="M78.52,73.43a37,37,0,0,0,.17-5.05,35.9,35.9,0,0,0-.37-4C77,65,75.75,65.67,74.46,66.3c.37-3.8.76-7.61,1.13-11.42l-4,.17,3.12-8L70.66,50.2q1.73-7.7,3.46-15.4l-3.55,1.73c.91-1.79,1.83-3.7,2.71-5.72A101.4,101.4,0,0,0,77,20.89a70.94,70.94,0,0,1,9.58,23,69.54,69.54,0,0,1,1.64,14.54A52.63,52.63,0,0,1,78.52,73.43Z"/><path class="cls-1" d="M59.84,31.68A76.79,76.79,0,0,1,70,16.71c2.48-2.85,6.37-7.33,8-6.49s-.05,7.39-.93,10.67a66.78,66.78,0,0,1-6.43,15.64Z"/><path class="cls-4" d="M68,35.37a69.28,69.28,0,0,0,5.23-10.59c.49-1.24,3.93-10,2.6-10.74-1-.56-4.64,4.18-6,5.91a51.21,51.21,0,0,0-5.1,8.28Q66.38,31.8,68,35.37Z"/><path class="cls-3" d="M10.73,44.34a10,10,0,0,0-.2,2.34,10.72,10.72,0,0,0,.68,3.44A4.75,4.75,0,0,0,13,48.73c1.16-1.5.7-3,1.34-4.57a6.55,6.55,0,0,1,3.6-3.39,12.82,12.82,0,0,0-4.07,1.3A12.66,12.66,0,0,0,10.73,44.34Z"/><circle cx="47.66" cy="40.5" r="7.07"/><circle class="cls-5" cx="49.63" cy="38.53" r="3.03"/><path class="cls-6" d="M63.62,9.87c1.31,0,2.44,2,3.32,3.51a14.25,14.25,0,0,1,1.5,3.76l-.28.09c.46,0,.9,0,1.32,0,.16-.19.33-.38.48-.57,2.27-2.6,5.74-6.59,7.53-6.59a.92.92,0,0,1,.44.1c1.54.81.21,6.16-.61,9.47-.13.49-.26,1-.41,1.54a3.18,3.18,0,0,1,.1-.33,71.18,71.18,0,0,1,9.57,23,69.54,69.54,0,0,1,1.64,14.54,52.63,52.63,0,0,1-9.7,15c-.41.45-.84.9-1.29,1.36A52.86,52.86,0,0,1,60.7,86.13C51.3,73.93,43.32,71,37.59,70.72c-.31,0-.61,0-.92,0a62.42,62.42,0,0,0-7,.63,60.83,60.83,0,0,1-7.19.49A46.53,46.53,0,0,1,13.78,71a53.24,53.24,0,0,1-6-24.63c0-1.1,0-2.19.1-3.27A207.73,207.73,0,0,1,37.33,26.93c1.1-.5,2.2-1,3.29-1.44h0l.06,0a73.45,73.45,0,0,1,11.7-5.29,56.06,56.06,0,0,1,6.66-2,22.82,22.82,0,0,1,1.42-4.23c1-2.09,1.81-4,3.08-4.06h.06m0-3.41h-.19c-3.37.13-4.85,3.4-6,6h0l0,0a24.65,24.65,0,0,0-1.06,2.79c-1.79.49-3.42,1-5.05,1.62a76.52,76.52,0,0,0-12.1,5.46c-1.11.47-2.2.94-3.24,1.41A212.67,212.67,0,0,0,6,40.24l-1.41.93-.12,1.69c-.07,1.11-.11,2.26-.11,3.5a56.26,56.26,0,0,0,6.39,26.2L11.52,74l1.63.31a49.13,49.13,0,0,0,9.3.89A62,62,0,0,0,30,74.71l1.3-.15a44,44,0,0,1,5.33-.46l.76,0c6.69.31,13.61,5,20.57,14.09l1.62,2.11,2.44-1.07a56.23,56.23,0,0,0,17.6-12.07c.53-.55,1-1,1.38-1.46A56.08,56.08,0,0,0,91.36,59.77l.27-.66V58.4a74,74,0,0,0-1.72-15.25,74.54,74.54,0,0,0-9.24-22.83C82,14.84,83.37,9.23,79.52,7.2a4.37,4.37,0,0,0-2-.49c-2.44,0-4.75,1.89-7.6,5-1.18-2.07-3-5.21-6.27-5.21Z"/></svg>