<svg id="图层_1" data-name="图层 1" xmlns="http://www.w3.org/2000/svg" viewBox="0 0 96 96"><defs><style>.cls-1,.cls-4{fill:#fff;}.cls-1,.cls-2,.cls-3,.cls-4,.cls-5{stroke:#1c1c1c;}.cls-1,.cls-2,.cls-3,.cls-4{stroke-linecap:round;stroke-linejoin:round;}.cls-1{stroke-width:3.2px;}.cls-2{fill:#a1d39b;}.cls-2,.cls-3,.cls-4{stroke-width:2.31px;}.cls-3{fill:#c2ffbd;}.cls-5{fill:#333;stroke-miterlimit:10;stroke-width:1.09px;}</style></defs><title>南</title><path class="cls-1" d="M49.39,89.68A60.61,60.61,0,0,1,22,83.17,68.38,68.38,0,0,1,12.49,48a68.89,68.89,0,0,1,6.65-29.86C20,16.32,21,14.56,22,12.85A60.3,60.3,0,0,1,49.39,6.32,61.16,61.16,0,0,1,72.91,11a68.24,68.24,0,0,1,10.6,37,68.23,68.23,0,0,1-10.6,37A55.88,55.88,0,0,1,67.47,87,61.38,61.38,0,0,1,49.39,89.68Z"/><path class="cls-2" d="M67.47,87a65.38,65.38,0,0,0,9.68-34.66A65.24,65.24,0,0,0,67,16.85L72.9,11A68.15,68.15,0,0,1,83.51,48,68.2,68.2,0,0,1,72.9,85C71.13,85.76,69.31,86.4,67.47,87Z"/><path class="cls-3" d="M19.14,18.15C20,16.33,21,14.55,22,12.85a60.22,60.22,0,0,1,27.4-6.52A61.06,61.06,0,0,1,72.9,11L67,16.85a58.45,58.45,0,0,0-47.83,1.3Z"/><path class="cls-4" d="M49.39,89.68A60.45,60.45,0,0,1,22,83.16,68.3,68.3,0,0,1,12.49,48a68.82,68.82,0,0,1,6.65-29.86A58.45,58.45,0,0,1,67,16.85,65.24,65.24,0,0,1,77.15,52.31,65.38,65.38,0,0,1,67.47,87,61.66,61.66,0,0,1,49.39,89.68Z"/><path class="cls-5" d="M50.8,31.52a2.27,2.27,0,0,1-1.84.64,1.59,1.59,0,0,0-1.21,0c-1,.46-1.52,2.41-.9,4.83,0,0,0,0,0,0a6.17,6.17,0,0,0,2.29-1c.87-.63,1-1.08,1.49-1.15,1.1-.17,3,1.47,2.72,3.26a3.07,3.07,0,0,1-2.24,2.31,11.9,11.9,0,0,0-4.28.75,12.11,12.11,0,0,0-4.14,2.57s0,0,0,0V48.4a0,0,0,0,0,0,0,26.37,26.37,0,0,0,7-4.54c1.56-1.42,2.57-2.72,4-2.58s2.88,1.77,2.65,2.79c-.19.83-1.36.81-2,2a3.4,3.4,0,0,0-.14,2.49,0,0,0,0,0,0,0l3.71.07h0a25.54,25.54,0,0,1,3.05,3.59,24.63,24.63,0,0,1,3.12,6.18h0a58.47,58.47,0,0,1-4,8.9,59.28,59.28,0,0,1-9.55,12.81l-1.74.15-12.29-9,2.83.4a0,0,0,0,0,0,0l.07-4.75a0,0,0,0,0,0,0c-2,1.12-3.68,1.31-4.18.66-.08-.11-.37-.55.14-1.7l4.25-1.73L39,61.9l-4.2,1s0,0,0,0l-.53-2.18a0,0,0,0,1,0,0A3.76,3.76,0,0,0,38,58.22a3.8,3.8,0,0,0-3.33-5l-4,6.77a25.23,25.23,0,0,1,3.57,9.24C34.9,73,34,73.79,33.67,74a2.93,2.93,0,0,1-2.57-.06,0,0,0,0,1,0,0l-9.3-20.23a0,0,0,0,1,0,0c.38-1.4,1-1.77,1.29-1.89,1.46-.64,4.06,1,6.1,4.39,0,0,0,0,0,0l5.46-3.58a0,0,0,0,0,0,0,11.5,11.5,0,0,0-4.34-4.19,11.11,11.11,0,0,0-4-1.29,8.12,8.12,0,0,1,10.73,5.19,0,0,0,0,0,0,0l4.29-4.51-1.86-5.05-5.79-.6A9.45,9.45,0,0,0,40,41.23c4.51-2.53,6.27-9.32,3.88-12.64a4.91,4.91,0,0,0-2.63-1.73s0,0,0-.05a6.7,6.7,0,0,0,3-1.41,6.83,6.83,0,0,0,2.23-3.62s0,0,0,0C47.21,22.69,52.52,29.4,50.8,31.52ZM42.44,58.83c2.48-.08,4.29-5.38,3.15-6.52-.43-.43-1.25-.26-2.74.07-1.8.38-3.38.72-3.83,1.81C38.34,55.86,40.53,58.89,42.44,58.83Zm9.49-1.32c.28.51-.17,1.45-.81,2-1.88,1.56-5-.76-6.37.67a2,2,0,0,0-.26,2.44c1,1,4.09-1.55,5.35-.51.62.51.56,1.65.32,2.78l0,0a6.42,6.42,0,0,0-4.62.52c-2.82,1.6-4.3,5.88-2.53,8.17a5.17,5.17,0,0,0,4,1.61h0a75.62,75.62,0,0,0,6.82-10.13c1.23-2.19,2.27-4.31,3.16-6.31v0c-.84-4.39-3.49-7-5.57-6.75s-4.12,3.78-3.4,4.82S51.42,56.53,51.93,57.51Z"/></svg>