<svg id="图层_1" data-name="图层 1" xmlns="http://www.w3.org/2000/svg" viewBox="0 0 96 96"><defs><style>.cls-1,.cls-10{fill:#ffcb55;}.cls-2{fill:#1c1c1c;}.cls-3{fill:#ff9855;}.cls-4,.cls-9{fill-rule:evenodd;}.cls-5,.cls-6,.cls-7{fill:#333;stroke-miterlimit:10;}.cls-10,.cls-5,.cls-6,.cls-7{stroke:#000;}.cls-5{stroke-width:2.22px;}.cls-6,.cls-9{stroke-width:2.36px;}.cls-7{stroke-width:2.23px;}.cls-8{fill:#ffe0a3;}.cls-9{fill:none;stroke:#1c1c1c;}.cls-10,.cls-9{stroke-linecap:round;stroke-linejoin:round;}.cls-10{stroke-width:2.4px;}</style></defs><title>念经</title><path class="cls-1" d="M48,81.64a66.21,66.21,0,0,1-34.26-9.26l-.44-.26-.23-.45A58.76,58.76,0,0,1,6.7,44.88a59.4,59.4,0,0,1,4.58-23l.21-.51.46-.3A66,66,0,0,1,48,10.76,66,66,0,0,1,84.05,21.11l.46.3.21.51a60,60,0,0,1,4.55,23A58.69,58.69,0,0,1,82.9,71.7l-.23.45-.44.27A66.51,66.51,0,0,1,48,81.64Z"/><path class="cls-2" d="M48,12.53A64.54,64.54,0,0,1,83.08,22.6,58.33,58.33,0,0,1,87.5,44.88a57.32,57.32,0,0,1-6.18,26,64.76,64.76,0,0,1-33.32,9,64.6,64.6,0,0,1-33.35-9A57.86,57.86,0,0,1,12.92,22.6,64.54,64.54,0,0,1,48,12.53M48,9A67.75,67.75,0,0,0,11,19.63l-.92.6-.42,1A61.2,61.2,0,0,0,4.93,44.88,60.32,60.32,0,0,0,11.5,72.47l.46.91.86.52A68.11,68.11,0,0,0,48,83.42a68.17,68.17,0,0,0,35.14-9.49l.87-.52.46-.91A60.42,60.42,0,0,0,91,44.88a61.85,61.85,0,0,0-4.68-23.63l-.42-1-.93-.6A67.75,67.75,0,0,0,48,9Z"/><path class="cls-3" d="M87.46,44.93a57.47,57.47,0,0,1-6.14,26,66.26,66.26,0,0,1-66.75,0c12,3.21,37.41,8.55,55.64-.85a25,25,0,0,0,5.45-3.66C89.54,53.94,84.46,29,83,22.67A57.43,57.43,0,0,1,87.46,44.93Z"/><path class="cls-4" d="M33,48.22c0,.12,0,.24,0,.35a1.54,1.54,0,0,1-2.46,1.11,5.8,5.8,0,0,0-6.57,0,1.52,1.52,0,0,1-2.45-1c0-.07,0-.14,0-.21a5.84,5.84,0,0,1,5.75-6A5.75,5.75,0,0,1,33,48.22Z"/><path class="cls-4" d="M74.51,48.22c0,.12,0,.24,0,.35A1.54,1.54,0,0,1,72,49.68a5.8,5.8,0,0,0-6.57,0,1.52,1.52,0,0,1-2.45-1,1.48,1.48,0,0,1,0-.21,5.82,5.82,0,0,1,5.74-6A5.75,5.75,0,0,1,74.51,48.22Z"/><circle class="cls-5" cx="7.16" cy="53.43" r="6.04"/><circle class="cls-6" cx="9.12" cy="65.51" r="6.27"/><circle class="cls-6" cx="17.57" cy="77.44" r="8.32"/><circle class="cls-6" cx="33.3" cy="82.19" r="9.16"/><circle class="cls-7" cx="88.85" cy="53.43" r="6.08"/><circle class="cls-6" cx="86.85" cy="65.51" r="6.27"/><circle class="cls-6" cx="78.4" cy="77.44" r="8.32"/><circle class="cls-6" cx="62.67" cy="82.19" r="9.16"/><path class="cls-4" d="M13.21,53.43a6,6,0,0,1-12.09,0,5.51,5.51,0,0,1,.38-2.07,6,6,0,0,0,11.33,0A5.51,5.51,0,0,1,13.21,53.43Z"/><path class="cls-4" d="M15.4,65.51a6.28,6.28,0,1,1-12.55,0,6.08,6.08,0,0,1,.4-2.19,6.27,6.27,0,0,0,11.74,0A6.09,6.09,0,0,1,15.4,65.51Z"/><path class="cls-4" d="M25.89,77.45a8.32,8.32,0,0,1-16.63,0,7.6,7.6,0,0,1,.31-2.2,8.3,8.3,0,0,0,16,0A8,8,0,0,1,25.89,77.45Z"/><path class="cls-4" d="M42.46,82.19a9.17,9.17,0,0,1-18.33,0A9.8,9.8,0,0,1,24.39,80,9.18,9.18,0,0,0,42.2,80,9.25,9.25,0,0,1,42.46,82.19Z"/><path class="cls-4" d="M94.93,53.43a6.08,6.08,0,1,1-12.16,0,5.77,5.77,0,0,1,.38-2.08,6.06,6.06,0,0,0,11.4,0A5.77,5.77,0,0,1,94.93,53.43Z"/><path class="cls-4" d="M93.13,65.51a6.28,6.28,0,1,1-12.56,0A6.09,6.09,0,0,1,81,63.32a6.28,6.28,0,0,0,11.75,0A6.08,6.08,0,0,1,93.13,65.51Z"/><path class="cls-4" d="M86.72,77.45a8.32,8.32,0,0,1-16.63,0,8,8,0,0,1,.31-2.2,8.31,8.31,0,0,0,16,0A8,8,0,0,1,86.72,77.45Z"/><path class="cls-4" d="M71.84,82.19A9.17,9.17,0,1,1,53.77,80a9.18,9.18,0,0,0,17.81,0A9.25,9.25,0,0,1,71.84,82.19Z"/><circle class="cls-8" cx="34.94" cy="25.83" r="1.97"/><circle class="cls-8" cx="47.99" cy="25.83" r="1.97"/><circle class="cls-8" cx="61.03" cy="25.83" r="1.97"/><circle class="cls-8" cx="37.59" cy="19.11" r="1.57"/><circle class="cls-8" cx="47.99" cy="19.11" r="1.57"/><circle class="cls-8" cx="58.38" cy="19.11" r="1.57"/><path class="cls-9" d="M78.81,54.93a38.64,38.64,0,0,1-61.65,0"/><path class="cls-10" d="M56.66,70c2,2.16,2.06,6-.17,9.06,1.95-.68,3.49-1.29,4.52-1.71,3.18-1.3,5-2.2,7.16-1.49l.17.07C70.78,77,72,81,71.25,84.11c-1.39,5.46-9.35,8.31-15.49,7.7h0A8.64,8.64,0,0,1,48,83.09q0-5.88.11-11.77a3.39,3.39,0,0,1,1.77-3A3.28,3.28,0,0,1,51.06,68,7.26,7.26,0,0,1,56.66,70Z"/><path class="cls-10" d="M39.31,70c-2,2.16-2.06,6,.18,9.06-2-.68-3.5-1.29-4.53-1.71-3.18-1.3-5-2.2-7.16-1.49l-.17.07c-2.44,1.1-3.69,5.13-2.91,8.2,1.39,5.46,9.35,8.31,15.49,7.7h0A8.64,8.64,0,0,0,48,83.09q0-5.88-.11-11.77a3.39,3.39,0,0,0-1.77-3A3.28,3.28,0,0,0,44.91,68,7.26,7.26,0,0,0,39.31,70Z"/></svg>