<svg id="图层_1" data-name="图层 1" xmlns="http://www.w3.org/2000/svg" viewBox="0 0 96 96"><defs><style>.cls-1{fill:#4ad03f;}.cls-1,.cls-10,.cls-7,.cls-8,.cls-9{stroke:#1c1c1c;}.cls-1,.cls-8,.cls-9{stroke-miterlimit:10;stroke-width:3.6px;}.cls-2{fill:#fff65a;}.cls-3{fill:#1c1c1c;}.cls-4{fill:#c4d54c;}.cls-5{fill:#fff;}.cls-6{fill:#ccd73d;}.cls-7{fill:#7c5119;}.cls-10,.cls-7{stroke-linecap:round;stroke-linejoin:round;stroke-width:2.4px;}.cls-8{fill:#8dff5a;}.cls-9{fill:none;}.cls-10{fill:#9f861f;}</style></defs><title>柠檬精</title><path class="cls-1" d="M17.68,23.83c-.19-1.37-.62-5.65,2-8.75,3.58-4.24,11.65-4.93,18.6-.1a39.91,39.91,0,0,1-13.67,7.4A40,40,0,0,1,17.68,23.83Z"/><path class="cls-2" d="M51.55,86.18a63.75,63.75,0,0,1-14.7-1.63A33.73,33.73,0,0,1,10.33,55.19a61.18,61.18,0,0,1-.34-6.4,60.36,60.36,0,0,1,4.65-23.32l.22-.51.46-.3A66.91,66.91,0,0,1,52,14.1a70.54,70.54,0,0,1,15.85,1.79A34,34,0,0,1,93.93,48.54v.25a60.65,60.65,0,0,1-2,15.42A8.52,8.52,0,0,0,92.72,71,8,8,0,0,1,87.41,83.1a8.6,8.6,0,0,1-1.52.14,8,8,0,0,1-3.41-.76,9.5,9.5,0,0,0-4-.94,7.68,7.68,0,0,0-2.7.48l-.29.11A73.2,73.2,0,0,1,52,86.18Z"/><path class="cls-3" d="M52,15.9A68.41,68.41,0,0,1,67.4,17.65a32,32,0,0,1,24.73,30.9v.24a58.48,58.48,0,0,1-1.91,15,10.38,10.38,0,0,0,1,8.15,6.23,6.23,0,0,1-4.11,9.43,6.93,6.93,0,0,1-1.19.11,6.15,6.15,0,0,1-2.64-.59,11.28,11.28,0,0,0-4.76-1.11,9.53,9.53,0,0,0-3.32.59l-.28.1A71.49,71.49,0,0,1,52,84.38h-.4A62,62,0,0,1,37.23,82.8,32.1,32.1,0,0,1,12.12,55a57.88,57.88,0,0,1-.33-6.21,58.46,58.46,0,0,1,4.52-22.62A65.25,65.25,0,0,1,52,15.9m0-3.6A68.69,68.69,0,0,0,14.34,23.15l-.93.61-.43,1a62.5,62.5,0,0,0-4.44,30.6A35.53,35.53,0,0,0,36.46,86.31,65.61,65.61,0,0,0,51.56,88H52a74.9,74.9,0,0,0,24.1-4.15h.05l.29-.1a6,6,0,0,1,2.08-.37,7.71,7.71,0,0,1,3.23.77,9.69,9.69,0,0,0,4.17.93,10.44,10.44,0,0,0,1.85-.17A9.84,9.84,0,0,0,94.24,70a6.88,6.88,0,0,1-.54-5.32,62.46,62.46,0,0,0,2-15.88v-.24A35.57,35.57,0,0,0,68.21,14.14,72.3,72.3,0,0,0,52,12.3Z"/><path class="cls-4" d="M90.23,63.75a10.42,10.42,0,0,0,1,8.15,6.24,6.24,0,0,1-7.94,8.95,10.47,10.47,0,0,0-8.08-.53l-.28.11A71.49,71.49,0,0,1,52,84.38,62.37,62.37,0,0,1,37.23,82.8,32.42,32.42,0,0,1,17.37,69.34a31.62,31.62,0,0,0,14.68,7.88,69,69,0,0,0,30.88,0,32,32,0,0,0,24.72-30.9v-.24a55.58,55.58,0,0,0-.33-6.22,31.19,31.19,0,0,0-5.22-14.3,31.74,31.74,0,0,1,10,23v.24A59.37,59.37,0,0,1,90.23,63.75Z"/><path class="cls-5" d="M73.88,48.72a3.45,3.45,0,0,1-1.76-.48,12,12,0,0,0-1.65-.8,11.12,11.12,0,0,0-4.09-.76,11.55,11.55,0,0,0-5.74,1.56,3.4,3.4,0,0,1-1.76.48,3,3,0,0,1-2.5-1.29l0-.07A3.06,3.06,0,0,1,56,44.94c1.61-6.5,5.78-10.86,10.38-10.86s8.77,4.36,10.38,10.86a3.06,3.06,0,0,1-.33,2.42l-.05.07A2.92,2.92,0,0,1,73.88,48.72Z"/><path class="cls-3" d="M66.38,35c4.18,0,8,4.09,9.52,10.19a2.24,2.24,0,0,1-.21,1.68l-.06.08a2,2,0,0,1-1.75.89,2.55,2.55,0,0,1-1.29-.35,11.27,11.27,0,0,0-1.78-.86,12.25,12.25,0,0,0-8.84,0,11.76,11.76,0,0,0-1.78.86,2.53,2.53,0,0,1-1.31.36,2,2,0,0,1-1.75-.89.56.56,0,0,1-.05-.08,2.23,2.23,0,0,1-.21-1.7C58.38,39.07,62.2,35,66.38,35m0-1.8c-5.17,0-9.59,4.81-11.25,11.54a4,4,0,0,0,.46,3.16l0,0a3.84,3.84,0,0,0,3.25,1.7A4.43,4.43,0,0,0,61.1,49a10.18,10.18,0,0,1,5.28-1.44,10.44,10.44,0,0,1,3.77.7,10.06,10.06,0,0,1,1.51.74,4.49,4.49,0,0,0,2.22.6,3.82,3.82,0,0,0,3.25-1.7s0,0,0,0a4,4,0,0,0,.47-3.16C76,38,71.55,33.18,66.38,33.18Z"/><path d="M62.12,69.74a6.66,6.66,0,0,1-.25,1.85,7.12,7.12,0,0,0-13.76,0,6.66,6.66,0,0,1-.25-1.85,7.13,7.13,0,1,1,14.26,0Z"/><ellipse class="cls-6" cx="54.99" cy="71.83" rx="3.57" ry="2.31"/><path d="M72.38,43.63a6,6,0,0,1-2.23,4.65,10.5,10.5,0,0,0-7.54,0,6,6,0,1,1,9.77-4.65Z"/><ellipse class="cls-6" cx="66.38" cy="52.62" rx="6" ry="3"/><ellipse class="cls-6" cx="37.88" cy="52.62" rx="6" ry="3"/><circle class="cls-5" cx="68.28" cy="41.73" r="2.35"/><path class="cls-3" d="M56.89,28a10,10,0,0,0,4,4,9.37,9.37,0,0,0,2.65,1,11.81,11.81,0,0,0,2.85.24.11.11,0,0,1,.11.1.11.11,0,0,1,0,.08l-.06.06a4.9,4.9,0,0,1-3.25,1.41,6.31,6.31,0,0,1-3.42-.8,6.41,6.41,0,0,1-2.51-2.47,4.9,4.9,0,0,1-.54-3.5l0-.08a.11.11,0,0,1,.13-.08S56.88,27.93,56.89,28Z"/><path class="cls-5" d="M45.38,48.72a3.45,3.45,0,0,1-1.76-.48,12,12,0,0,0-1.65-.8,11.12,11.12,0,0,0-4.09-.76,11.55,11.55,0,0,0-5.74,1.56,3.4,3.4,0,0,1-1.76.48,3,3,0,0,1-2.5-1.29l0-.07a3.06,3.06,0,0,1-.34-2.42c1.61-6.5,5.78-10.86,10.38-10.86s8.77,4.36,10.38,10.86a3.06,3.06,0,0,1-.33,2.42l0,.07A2.92,2.92,0,0,1,45.38,48.72Z"/><path class="cls-3" d="M37.88,35c4.18,0,8,4.09,9.52,10.19a2.24,2.24,0,0,1-.21,1.68l-.06.08a2,2,0,0,1-1.75.89,2.55,2.55,0,0,1-1.29-.35,11.27,11.27,0,0,0-1.78-.86,12.25,12.25,0,0,0-8.84,0,11.76,11.76,0,0,0-1.78.86,2.53,2.53,0,0,1-1.31.36,2,2,0,0,1-1.75-.89.56.56,0,0,1-.05-.08,2.23,2.23,0,0,1-.21-1.7C29.88,39.07,33.7,35,37.88,35m0-1.8c-5.17,0-9.59,4.81-11.25,11.54a4,4,0,0,0,.46,3.16s0,0,0,0a3.84,3.84,0,0,0,3.25,1.7A4.43,4.43,0,0,0,32.6,49a10.18,10.18,0,0,1,5.28-1.44,10.44,10.44,0,0,1,3.77.7,10.06,10.06,0,0,1,1.51.74,4.49,4.49,0,0,0,2.22.6,3.82,3.82,0,0,0,3.25-1.7l0,0a4,4,0,0,0,.47-3.16C47.47,38,43.05,33.18,37.88,33.18Z"/><path d="M43.88,43.63a5.92,5.92,0,0,1-2.23,4.65,10.5,10.5,0,0,0-7.54,0,6,6,0,1,1,9.77-4.65Z"/><circle class="cls-5" cx="39.78" cy="41.73" r="2.35"/><path class="cls-3" d="M47.59,28.07a4.79,4.79,0,0,1-.54,3.5A6.19,6.19,0,0,1,44.55,34a6.36,6.36,0,0,1-3.43.79,4.89,4.89,0,0,1-3.25-1.4l-.06-.06a.11.11,0,0,1,0-.15l.08,0A11.81,11.81,0,0,0,40.74,33a9.25,9.25,0,0,0,2.65-1,10,10,0,0,0,4-4,.11.11,0,0,1,.15,0,.15.15,0,0,1,0,.06Z"/><path class="cls-7" d="M4.06,20.13A26.75,26.75,0,0,1,10,22.75a27,27,0,0,1,5.55,4.35c.72-1.09,1.44-2.18,2.15-3.27a17.68,17.68,0,0,1-4.62-4.15,17.45,17.45,0,0,1-3-5.93Z"/><path class="cls-8" d="M15.53,27.1a15.71,15.71,0,0,0-9.46,4.77c-4.95,5.57-5,15.35.62,23.69a5.61,5.61,0,0,1,1,1.27,6.35,6.35,0,0,1,.83,4C17,54.42,21.59,45,20,36.33A20.53,20.53,0,0,0,15.53,27.1Z"/><path class="cls-9" d="M15.53,27.1a32.37,32.37,0,0,0-4.48,11c-.88,4.53-.29,7.1-1,13.79a79.21,79.21,0,0,1-1.48,8.93"/><path class="cls-10" d="M10.06,13.75a5.93,5.93,0,0,0-5,1.58c-1.34,1.47-1.91,4-1,4.8s3.29-.24,4.57-1.65A6.25,6.25,0,0,0,10.06,13.75Z"/></svg>