<svg id="图层_1" data-name="图层 1" xmlns="http://www.w3.org/2000/svg" xmlns:xlink="http://www.w3.org/1999/xlink" viewBox="0 0 96 96"><defs><style>.cls-1{fill:#ffcb55;}.cls-2{fill:#1c1c1c;}.cls-3{fill:#ff9855;}.cls-4{fill:#fff;}.cls-5{fill:#cb9029;}.cls-6{fill:#b1781b;}.cls-7{fill:#ffbe4d;}.cls-8{fill:#ffb433;}.cls-9{fill:url(#未命名的渐变_3);}.cls-10{fill:url(#未命名的渐变_3-2);}.cls-11{fill:#ee2d2c;}</style><radialGradient id="未命名的渐变_3" cx="20.6" cy="61.74" r="7.31" gradientUnits="userSpaceOnUse"><stop offset="0" stop-color="#ff433b"/><stop offset="0.38" stop-color="#ff7c46"/><stop offset="0.8" stop-color="#ffb651"/><stop offset="1" stop-color="#fc5"/></radialGradient><radialGradient id="未命名的渐变_3-2" cx="75.4" cy="61.74" r="7.31" xlink:href="#未命名的渐变_3"/></defs><title>不好惹的鸡</title><path class="cls-1" d="M57.64,86.86a70.15,70.15,0,0,1-9.65.67,67.27,67.27,0,0,1-34.85-9.44l-.44-.27-.24-.46a60.74,60.74,0,0,1-1.77-50.53l.21-.51.46-.31A66.9,66.9,0,0,1,48,15.46,66.94,66.94,0,0,1,84.64,26l.46.31.21.51a60.74,60.74,0,0,1-1.77,50.53l-.23.46-.45.27A63.72,63.72,0,0,1,72.1,83.27L65,94.2Z"/><path class="cls-2" d="M48,17.26A65.28,65.28,0,0,1,83.65,27.52a58.94,58.94,0,0,1-1.72,49,61.27,61.27,0,0,1-11,5.24l-6.26,9.57L58.28,85A68.07,68.07,0,0,1,48,85.73a65.62,65.62,0,0,1-33.92-9.18,58.94,58.94,0,0,1-1.72-49A65.21,65.21,0,0,1,48,17.26m0-3.6A68.68,68.68,0,0,0,10.38,24.5l-.93.61-.42,1a62.51,62.51,0,0,0,1.83,52l.46.93.89.53A69.05,69.05,0,0,0,48,89.33a70.88,70.88,0,0,0,9-.57l5.11,5.14L65.24,97l2.43-3.71,5.62-8.58A65.65,65.65,0,0,0,83.8,79.63l.88-.54.46-.92a62.51,62.51,0,0,0,1.83-52l-.42-1-.93-.61A68.73,68.73,0,0,0,48,13.66Z"/><path class="cls-3" d="M88.17,50.14a58.52,58.52,0,0,1-6.24,26.41,61.23,61.23,0,0,1-11,5.23l-6.26,9.57L58.28,85A68.07,68.07,0,0,1,48,85.73a65.62,65.62,0,0,1-33.92-9.18c12.17,3.26,38,8.69,56.57-.86A25.17,25.17,0,0,0,76.18,72c14.11-12.65,8.95-38,7.47-44.44A58.32,58.32,0,0,1,88.17,50.14Z"/><path class="cls-4" d="M63.07,49A12.8,12.8,0,0,1,50.35,37.39H75.81A12.82,12.82,0,0,1,63.07,49Z"/><path class="cls-2" d="M74.41,38.59a11.59,11.59,0,0,1-22.67,0H74.41m2.65-2.4h-28a14,14,0,1,0,28,0Z"/><path class="cls-4" d="M32.93,49A12.82,12.82,0,0,1,20.19,37.39H45.65A12.8,12.8,0,0,1,32.93,49Z"/><path class="cls-2" d="M44.26,38.59a11.59,11.59,0,0,1-22.67,0H44.26m2.65-2.4h0Zm0,0h-28a14,14,0,1,0,28,0Z"/><path class="cls-5" d="M48,74.17a.91.91,0,0,1-.64-.27L33.67,60.21a.89.89,0,0,1-.26-.63.94.94,0,0,1,.26-.64L47.36,45.25a.92.92,0,0,1,1.28,0L62.33,58.94a.9.9,0,0,1,0,1.27L48.64,73.9A.91.91,0,0,1,48,74.17Z"/><path class="cls-2" d="M48,45.89,61.69,59.58,48,73.27,34.31,59.58,48,45.89m0-1.8a1.8,1.8,0,0,0-1.27.52L33,58.3a1.79,1.79,0,0,0,0,2.55L46.73,74.54a1.79,1.79,0,0,0,2.54,0L63,60.85a1.8,1.8,0,0,0,0-2.55L49.27,44.61A1.8,1.8,0,0,0,48,44.09Z"/><path class="cls-6" d="M48,73.27V64.14l13.69-4.56Z"/><path class="cls-7" d="M48,64.14,34.31,59.58,48,45.89,61.69,59.58Z"/><path class="cls-8" d="M48,64.14V45.89L61.69,59.58Z"/><circle class="cls-9" cx="20.6" cy="61.74" r="7.31"/><circle class="cls-10" cx="75.4" cy="61.74" r="7.31"/><path class="cls-11" d="M44,15.07c-3.36-2.92-4.35-6.28-3.34-7.89a3.2,3.2,0,0,1,2.58-1.36,3.42,3.42,0,0,1,.46,0c2.18.42,2.79,3.89,2.79,3.92A6.73,6.73,0,0,1,44.86,15Z"/><path class="cls-2" d="M43.19,6.72h0a1.36,1.36,0,0,1,.29,0c1.32.25,2,2.57,2.08,3.18a5.71,5.71,0,0,1-1.17,4.2h-.13c-2.89-2.64-3.56-5.41-2.89-6.48a2.33,2.33,0,0,1,1.82-.94m0-1.8a4.13,4.13,0,0,0-3.35,1.79c-1.33,2.12,0,6.1,3.82,9.3l1.65-.15a7.92,7.92,0,0,0,2-6.23c0-.28-.77-4.13-3.51-4.65a3.36,3.36,0,0,0-.63-.06Z"/><path class="cls-11" d="M44.53,15.06c-.08-6.69,2-11.93,5.1-12.89A4.78,4.78,0,0,1,51,2,3.64,3.64,0,0,1,53.85,3c1.38,1.7-.42,5.38-1,6.59a14.07,14.07,0,0,1-4.5,5.22Z"/><path class="cls-2" d="M51,2.87h0a2.89,2.89,0,0,1,2.12.73c.47.58.65,2-1.12,5.64A13.1,13.1,0,0,1,48,14l-2.09.12-.51,0C45.55,7.69,47.67,3.71,49.9,3A3.67,3.67,0,0,1,51,2.87m0-1.8a5.5,5.5,0,0,0-1.66.24c-3.73,1.14-6,7-5.71,14.7l5-.28a14.84,14.84,0,0,0,5-5.7c.72-1.46,2.66-5.4.9-7.56A4.51,4.51,0,0,0,51,1.07Z"/><path class="cls-11" d="M45.7,15a20.63,20.63,0,0,1,7.74-5.52,8.51,8.51,0,0,1,2.84-.65,1.86,1.86,0,0,1,1.07.26A2.13,2.13,0,0,1,58.14,11c-.45,2.23-6.36,3.66-9.55,3.83Z"/><path class="cls-2" d="M56.28,9.72a1.13,1.13,0,0,1,.53.08,1.22,1.22,0,0,1,.44,1c-.27,1.37-5.13,2.91-8.71,3.1L48,14a18.53,18.53,0,0,1,5.76-3.65,7.4,7.4,0,0,1,2.52-.59m0-1.8a9.12,9.12,0,0,0-3.16.71A22.12,22.12,0,0,0,43.66,16l5-.28c2.25-.12,9.74-1.34,10.38-4.55a3,3,0,0,0-1.14-2.82,2.5,2.5,0,0,0-1.6-.44Z"/></svg>