<svg id="图层_1" data-name="图层 1" xmlns="http://www.w3.org/2000/svg" viewBox="0 0 96 96"><defs><style>.cls-1{fill:#ffcb55;}.cls-2{fill:#1c1c1c;}.cls-3{fill:#ff9855;}.cls-4{fill:#ee2d2c;}.cls-5{fill:#fff;}</style></defs><title>你说啥</title><path class="cls-1" d="M54.71,84.88a70.29,70.29,0,0,1-9.66.67A67.39,67.39,0,0,1,10.2,76.11l-.44-.27-.23-.46A60.72,60.72,0,0,1,7.75,24.84L8,24.33l.47-.3A66.79,66.79,0,0,1,45.05,13.47,66.82,66.82,0,0,1,81.7,24l.46.3.22.51A60.72,60.72,0,0,1,80.6,75.38l-.23.46-.44.27a63.72,63.72,0,0,1-10.76,5.18L62,92.22Z"/><path class="cls-2" d="M45.05,15.27A65.34,65.34,0,0,1,80.72,25.54a58.89,58.89,0,0,1-1.73,49,61.86,61.86,0,0,1-11,5.24l-6.26,9.56L55.34,83a67.88,67.88,0,0,1-10.29.78,65.59,65.59,0,0,1-33.91-9.18,58.89,58.89,0,0,1-1.73-49A65.26,65.26,0,0,1,45.05,15.27m0-3.6A68.66,68.66,0,0,0,7.45,22.52l-.93.61-.43,1a62.51,62.51,0,0,0,1.83,52l.47.93.88.53a69.08,69.08,0,0,0,35.78,9.7,70.88,70.88,0,0,0,9-.57l5.12,5.14,3.13,3.14,2.43-3.71,5.61-8.58a66.17,66.17,0,0,0,10.52-5.12l.88-.54.46-.92a62.51,62.51,0,0,0,1.83-52l-.43-1-.93-.61A68.69,68.69,0,0,0,45.05,11.67Z"/><path class="cls-3" d="M85.24,48.16A58.4,58.4,0,0,1,79,74.57,61.14,61.14,0,0,1,68,79.8l-6.26,9.57L55.34,83a66.6,66.6,0,0,1-10.29.79,65.59,65.59,0,0,1-33.91-9.18c12.17,3.26,38,8.69,56.56-.86A25.37,25.37,0,0,0,73.25,70c14.11-12.65,8.94-38,7.47-44.44A58.46,58.46,0,0,1,85.24,48.16Z"/><path class="cls-2" d="M17.76,11.3a7.78,7.78,0,0,1,8-1.87,7.76,7.76,0,0,1,5.57,6,21.62,21.62,0,0,0-3.07-2.31,14.5,14.5,0,0,0-3.2-1.44,14.67,14.67,0,0,0-3.46-.61A21.36,21.36,0,0,0,17.76,11.3Z"/><path class="cls-2" d="M71.48,11.3a21.4,21.4,0,0,0-3.84-.19,14.67,14.67,0,0,0-3.46.61A14.3,14.3,0,0,0,61,13.16a21.62,21.62,0,0,0-3.07,2.31A8.16,8.16,0,0,1,71.48,11.3Z"/><path class="cls-4" d="M44.61,64.21a102.33,102.33,0,0,1,28.73,4,1.55,1.55,0,0,1,1.14,1.39,1.51,1.51,0,0,1-.89,1.53,67.12,67.12,0,0,1-29,6.5,67,67,0,0,1-29-6.5,1.57,1.57,0,0,1,.24-2.92,102.46,102.46,0,0,1,28.72-4m0-1.8a105,105,0,0,0-29.22,4,3.36,3.36,0,0,0-.52,6.27,69,69,0,0,0,29.74,6.68,69.19,69.19,0,0,0,29.75-6.67,3.36,3.36,0,0,0-.51-6.27,104.67,104.67,0,0,0-29.24-4Z"/><path class="cls-5" d="M44.61,78.19a67.59,67.59,0,0,1-29.22-6.56,2.08,2.08,0,0,1-1.23-2.12,2.15,2.15,0,0,1,1.57-1.92,103.13,103.13,0,0,1,28.88-4,102.81,102.81,0,0,1,28.9,4,2.14,2.14,0,0,1,1.57,1.91,2.1,2.1,0,0,1-1.23,2.12A67.67,67.67,0,0,1,44.61,78.19Z"/><path class="cls-2" d="M44.61,64.81a101.92,101.92,0,0,1,28.57,3.94.92.92,0,0,1,.7.86.9.9,0,0,1-.55.94A66.48,66.48,0,0,1,44.61,77,66.33,66.33,0,0,1,15.9,70.54a.91.91,0,0,1-.55-.94.94.94,0,0,1,.71-.86,101.93,101.93,0,0,1,28.55-3.93m0-2.4a105,105,0,0,0-29.22,4,3.36,3.36,0,0,0-.52,6.27,69,69,0,0,0,29.74,6.68,69.19,69.19,0,0,0,29.75-6.67,3.36,3.36,0,0,0-.51-6.27,104.67,104.67,0,0,0-29.24-4Z"/><path d="M76.34,34.92a2.62,2.62,0,0,1,0,2.07,2.69,2.69,0,0,1-1.5,1.5,2.87,2.87,0,0,1-2.12-.06,2.74,2.74,0,0,1-1.47-3.64,2.43,2.43,0,0,1,1.52-1.44,2.58,2.58,0,0,1,2.12.07A2.69,2.69,0,0,1,76.34,34.92Z"/><path d="M93.88,18.24A10.11,10.11,0,0,1,89.8,23c-.71.34-2.51,1-5.43,1.92a9.72,9.72,0,0,0-3.24,1.61,7.38,7.38,0,0,0-2.41,3.09l-.44,1,0,.08A2.07,2.07,0,0,1,74.46,29l0-.08.44-1a9.55,9.55,0,0,1,2.66-3.68c1.14-1.13,3.48-2.25,7.09-3.42.9-.35,1.64-.68,2.33-1a6.59,6.59,0,0,0,3-3.12,6.39,6.39,0,0,0,.31-5,6.89,6.89,0,0,0-3.94-3.65,6.56,6.56,0,0,0-6.19.06,9.43,9.43,0,0,0-3.86,4.73,2,2,0,0,1-2.68,1.06,2.07,2.07,0,0,1-1.07-2.69,12.18,12.18,0,0,1,6.19-6.69A11.28,11.28,0,0,1,88,4.88a11.15,11.15,0,0,1,6.16,5.59A9.3,9.3,0,0,1,93.88,18.24Z"/><circle cx="25.08" cy="28.71" r="3.94"/><circle cx="63.33" cy="28.71" r="3.94"/></svg>