<svg id="图层_1" data-name="图层 1" xmlns="http://www.w3.org/2000/svg" viewBox="0 0 96 96"><defs><style>.cls-1{fill:#fc5;}.cls-2{fill:#1c1c1c;}.cls-3{fill:#f95;}.cls-4{fill:#fff;}.cls-5{fill:#ee2d2c;}</style></defs><title>胖次滑稽</title><path class="cls-1" d="M57.64,82.44a70.15,70.15,0,0,1-9.65.67,67.24,67.24,0,0,1-34.85-9.44l-.44-.27-.24-.46a60.74,60.74,0,0,1-1.77-50.53l.21-.52.46-.3A66.9,66.9,0,0,1,48,11,66.94,66.94,0,0,1,84.64,21.59l.46.3.21.52a60.74,60.74,0,0,1-1.77,50.53l-.24.46-.44.27A63.35,63.35,0,0,1,72.1,78.85L65,89.78Z"/><path class="cls-2" d="M48,12.83A65.28,65.28,0,0,1,83.65,23.1a58.94,58.94,0,0,1-1.72,49,62,62,0,0,1-11,5.24l-6.26,9.56-6.38-6.4A68.07,68.07,0,0,1,48,81.31a65.62,65.62,0,0,1-33.92-9.18,58.94,58.94,0,0,1-1.72-49A65.21,65.21,0,0,1,48,12.83m0-3.6A68.69,68.69,0,0,0,10.38,20.08l-.93.61-.42,1a62.51,62.51,0,0,0,1.83,52l.46.93.89.53A69.05,69.05,0,0,0,48,84.91a70.88,70.88,0,0,0,9-.57l5.11,5.14,3.13,3.14,2.43-3.71,5.62-8.58A65.65,65.65,0,0,0,83.8,75.21l.88-.54.46-.92a62.51,62.51,0,0,0,1.83-52l-.42-1-.93-.61A68.74,68.74,0,0,0,48,9.23Z"/><path class="cls-3" d="M88.17,45.72a58.52,58.52,0,0,1-6.24,26.41,61.23,61.23,0,0,1-11,5.23l-6.26,9.57-6.38-6.4A68.07,68.07,0,0,1,48,81.31a65.62,65.62,0,0,1-33.92-9.18c12.17,3.26,38,8.69,56.57-.86a25.17,25.17,0,0,0,5.54-3.73c14.11-12.65,8.95-38,7.47-44.44A58.32,58.32,0,0,1,88.17,45.72Z"/><path class="cls-4" d="M17.67,36.36a3.43,3.43,0,0,1-2.44-1,3.51,3.51,0,0,1-1-2.85,3.3,3.3,0,0,1,1.49-2.44,25.16,25.16,0,0,1,27.3,0A3.29,3.29,0,0,1,44.5,32.5a3.45,3.45,0,0,1-1,2.84,3.4,3.4,0,0,1-2.44,1,3.34,3.34,0,0,1-1.82-.54,18.3,18.3,0,0,0-19.74,0A3.4,3.4,0,0,1,17.67,36.36Z"/><path d="M29.36,27.23a23.84,23.84,0,0,1,13,3.83,2.09,2.09,0,0,1,1,1.57,2.29,2.29,0,0,1-.66,1.86,2.22,2.22,0,0,1-1.59.67,2.11,2.11,0,0,1-1.17-.35,19.51,19.51,0,0,0-21,0,2.15,2.15,0,0,1-1.18.35,2.25,2.25,0,0,1-1.6-.66,2.29,2.29,0,0,1-.65-1.87,2.11,2.11,0,0,1,.94-1.57,23.81,23.81,0,0,1,13-3.83m0-2.4a26.18,26.18,0,0,0-14.3,4.22,4.63,4.63,0,0,0-.68,7.14h0a4.65,4.65,0,0,0,3.29,1.37,4.56,4.56,0,0,0,2.48-.73,17.09,17.09,0,0,1,18.44,0,4.53,4.53,0,0,0,2.47.73A4.66,4.66,0,0,0,43.67,29a26.29,26.29,0,0,0-14.31-4.21Z"/><circle class="cls-2" cx="17.64" cy="32.89" r="4.65"/><path class="cls-4" d="M78.33,36.36a3.4,3.4,0,0,1-1.83-.54,18.3,18.3,0,0,0-19.74,0,3.34,3.34,0,0,1-1.82.54h0a3.4,3.4,0,0,1-2.44-1,3.45,3.45,0,0,1-1-2.84A3.29,3.29,0,0,1,53,30.05a25.16,25.16,0,0,1,27.3,0,3.3,3.3,0,0,1,1.49,2.44,3.47,3.47,0,0,1-1,2.84A3.4,3.4,0,0,1,78.33,36.36Z"/><path d="M66.64,27.23a23.81,23.81,0,0,1,13,3.83,2.11,2.11,0,0,1,.94,1.57,2.26,2.26,0,0,1-.65,1.86h0a2.21,2.21,0,0,1-1.59.66,2.15,2.15,0,0,1-1.18-.35,19.51,19.51,0,0,0-21,0,2.11,2.11,0,0,1-1.17.35,2.22,2.22,0,0,1-1.59-.67,2.29,2.29,0,0,1-.66-1.86,2.09,2.09,0,0,1,1-1.57,23.84,23.84,0,0,1,13-3.83m0-2.4A26.29,26.29,0,0,0,52.33,29a4.66,4.66,0,0,0,2.61,8.52,4.53,4.53,0,0,0,2.47-.73,17.09,17.09,0,0,1,18.44,0,4.56,4.56,0,0,0,2.48.73,4.65,4.65,0,0,0,3.29-1.37h0a4.63,4.63,0,0,0-.68-7.14,26.18,26.18,0,0,0-14.3-4.22Z"/><circle class="cls-2" cx="78.36" cy="32.89" r="4.65"/><path class="cls-2" d="M30.85,19.23a24.34,24.34,0,0,0-2.76-4.49,11.92,11.92,0,0,0-3.66-3.12,10.62,10.62,0,0,0-4.61-1.24,19.93,19.93,0,0,0-5.21.53,9.68,9.68,0,0,1,5.11-2.42,9.4,9.4,0,0,1,5.84,1,10,10,0,0,1,4.11,4.22A10.42,10.42,0,0,1,30.85,19.23Z"/><path class="cls-2" d="M65.15,19.23a10.42,10.42,0,0,1,1.18-5.51A10,10,0,0,1,70.44,9.5a9.4,9.4,0,0,1,5.84-1,9.68,9.68,0,0,1,5.11,2.42,19.93,19.93,0,0,0-5.21-.53,10.62,10.62,0,0,0-4.61,1.24,11.92,11.92,0,0,0-3.66,3.12A24.34,24.34,0,0,0,65.15,19.23Z"/><path d="M82.68,49.88a25.71,25.71,0,0,1-2,12.43,20.74,20.74,0,0,1-8.47,9.82,51.38,51.38,0,0,1-11.87,4.8,53.48,53.48,0,0,1-12.71,1.74,53.17,53.17,0,0,1-12.76-1.41,54.23,54.23,0,0,1-6.13-1.88c-1-.37-2-.76-3-1.2a19.54,19.54,0,0,1-2.94-1.59,21.27,21.27,0,0,1-8-10.2,28.41,28.41,0,0,1-1.53-12.51,32.91,32.91,0,0,0,3.15,11.79,20.33,20.33,0,0,0,7.85,8.53,17.86,17.86,0,0,0,2.62,1.19c.95.36,1.9.7,2.85,1a49.67,49.67,0,0,0,5.84,1.53,53,53,0,0,0,12,1.15,53.42,53.42,0,0,0,11.94-1.45,56,56,0,0,0,11.38-4,19.78,19.78,0,0,0,8.21-8.13A29.34,29.34,0,0,0,82.68,49.88Z"/><path class="cls-1" d="M87.35,54.68a185.31,185.31,0,0,0-39.35-4,185.05,185.05,0,0,0-39.33,4l-1.93.43-.25-2A59.49,59.49,0,0,1,6,45.73c0-1,0-2,.08-3l.09-2,2,.27a28.21,28.21,0,0,0,3.74.24,28.66,28.66,0,0,0,20.71-8.74,28.52,28.52,0,0,0,3.87-5,28.43,28.43,0,0,0,2.46-5,29.36,29.36,0,0,0,1.25-4.23,29.85,29.85,0,0,0,.56-4.08c0-.44.05-.85.06-1.28l0-1.61,1.61-.13C44.26,11.11,46.13,11,48,11s3.72.07,5.57.22l1.65.13v1.66c0,.41,0,.8,0,1.2a30.48,30.48,0,0,0,.57,4.1,26.4,26.4,0,0,0,1.25,4.23,29.37,29.37,0,0,0,6.33,9.94,28.67,28.67,0,0,0,20.72,8.74A28.43,28.43,0,0,0,87.86,41l2-.27.07,2c0,1,.08,2,.08,3a60.54,60.54,0,0,1-.45,7.41l-.24,2Z"/><path class="cls-5" d="M48,12.83c1.82,0,3.62.08,5.42.22,0,.46,0,.9.05,1.34a32.38,32.38,0,0,0,.6,4.34,29.08,29.08,0,0,0,1.33,4.5A29.5,29.5,0,0,0,58,28.51a29.39,29.39,0,0,0,4.1,5.26,30.59,30.59,0,0,0,22,9.29,29.13,29.13,0,0,0,4-.26c0,1,.08,1.94.08,2.93a59.23,59.23,0,0,1-.44,7.2A185.6,185.6,0,0,0,48,48.85,185.27,185.27,0,0,0,8.28,52.93a57.28,57.28,0,0,1-.46-7.2c0-1,0-2,.08-2.93a28.92,28.92,0,0,0,4,.26,30.58,30.58,0,0,0,22-9.29A30.39,30.39,0,0,0,38,28.51a30.9,30.9,0,0,0,2.62-5.28,32.76,32.76,0,0,0,1.32-4.5,30.84,30.84,0,0,0,.6-4.34c0-.44,0-.88.06-1.34,1.77-.14,3.57-.22,5.4-.22m0-3.6c-1.91,0-3.83.08-5.69.23l-3.23.26L39,13c0,.4,0,.79-.05,1.14v.06A28.62,28.62,0,0,1,38.41,18a26.72,26.72,0,0,1-1.18,4,26.55,26.55,0,0,1-2.29,4.63,26.48,26.48,0,0,1-3.65,4.67,26.87,26.87,0,0,1-19.41,8.19,24.55,24.55,0,0,1-3.49-.23l-3.9-.53L4.3,42.62c0,1-.08,2.07-.08,3.11a61.27,61.27,0,0,0,.49,7.65l.5,3.92,3.85-.86a183.34,183.34,0,0,1,38.94-4,183.76,183.76,0,0,1,39,4l3.87.86.48-3.94a64.06,64.06,0,0,0,.46-7.63c0-1.06,0-2.08-.08-3.06l-.15-4-3.93.53a25,25,0,0,1-3.5.23,26.88,26.88,0,0,1-19.43-8.2,26.09,26.09,0,0,1-3.6-4.61l0,0,0,0A27.34,27.34,0,0,1,57.58,18a29.24,29.24,0,0,1-.53-3.86c0-.33,0-.67,0-1.08V9.73L53.7,9.46c-1.89-.15-3.81-.23-5.71-.23Z"/><path class="cls-5" d="M53.47,14.39c-1.82,0-3.64-.07-5.48-.07s-3.66,0-5.47.07c0-.44,0-.88.06-1.34,1.78-.14,3.58-.22,5.4-.22s3.64.08,5.43.22C53.42,13.51,53.43,14,53.47,14.39Z"/><path class="cls-5" d="M88,50.89c-.06.68-.13,1.37-.22,2A186.18,186.18,0,0,0,48,48.85,186,186,0,0,0,8.27,52.93c-.08-.67-.16-1.36-.22-2a193.61,193.61,0,0,1,39.94-4A193.81,193.81,0,0,1,88,50.89Z"/><path class="cls-4" d="M88.17,45.73c0,1.74-.08,3.46-.22,5.16a193.81,193.81,0,0,0-40-4,193.61,193.61,0,0,0-39.94,4c-.15-1.7-.22-3.42-.22-5.16,0-1,0-2,.07-2.93a28.88,28.88,0,0,0,4,.27,30.59,30.59,0,0,0,22-9.29c4.56-.43,9.28-.66,14.12-.66s9.56.23,14.12.66a30.59,30.59,0,0,0,22,9.29,28.92,28.92,0,0,0,4-.27C88.14,43.77,88.17,44.75,88.17,45.73Z"/><path class="cls-5" d="M62.12,33.77c-4.56-.43-9.29-.66-14.13-.66s-9.56.23-14.12.66A30,30,0,0,0,38,28.51c3.27-.18,6.62-.28,10-.28s6.74.1,10,.28A30,30,0,0,0,62.12,33.77Z"/><path class="cls-4" d="M54.07,18.73q-3-.09-6.08-.09t-6.07.09a29.44,29.44,0,0,0,.6-4.34c1.81,0,3.64-.07,5.47-.07s3.66,0,5.48.07A29.44,29.44,0,0,0,54.07,18.73Z"/><path class="cls-5" d="M55.39,23.23q-3.66-.14-7.4-.14c-2.48,0-5,.05-7.39.14a30.19,30.19,0,0,0,1.32-4.5q3-.09,6.07-.09t6.08.09A29,29,0,0,0,55.39,23.23Z"/><path class="cls-4" d="M58,28.51c-3.27-.18-6.62-.28-10-.28s-6.73.1-10,.28a29.46,29.46,0,0,0,2.61-5.28c2.44-.09,4.91-.14,7.39-.14s5,.05,7.4.14A29.46,29.46,0,0,0,58,28.51Z"/><path class="cls-5" d="M44.8,36v8.12H43V36Z"/><path class="cls-5" d="M53,37.71H50.5v6.45H48.72V37.71h-2.5V36H53Z"/></svg>