<svg id="图层_1" data-name="图层 1" xmlns="http://www.w3.org/2000/svg" xmlns:xlink="http://www.w3.org/1999/xlink" viewBox="0 0 96 96"><defs><style>.cls-1{fill:#ffcb55;}.cls-2{fill:#1c1c1c;}.cls-3{fill:#ff9855;}.cls-4{fill:#fff;}.cls-5{fill:url(#未命名的渐变_45);}.cls-6{fill:url(#未命名的渐变_63);}.cls-7{opacity:0.3;}.cls-8{fill:#0f1780;}</style><radialGradient id="未命名的渐变_45" cx="139.53" cy="46.27" r="7.8" gradientTransform="translate(-132.06 23.13) scale(1.12 0.5)" gradientUnits="userSpaceOnUse"><stop offset="0" stop-color="#ee2d2c" stop-opacity="0.8"/><stop offset="0.16" stop-color="#f04231" stop-opacity="0.69"/><stop offset="0.51" stop-color="#f6783f" stop-opacity="0.42"/><stop offset="1" stop-color="#fc5" stop-opacity="0"/></radialGradient><linearGradient id="未命名的渐变_63" x1="65.58" y1="37.81" x2="80.9" y2="65.97" gradientUnits="userSpaceOnUse"><stop offset="0" stop-color="#5dadf5"/><stop offset="1" stop-color="#4580d2"/></linearGradient></defs><title>喷</title><path class="cls-1" d="M53.67,82.71a68.61,68.61,0,0,1-9.65.67A67.29,67.29,0,0,1,9.17,73.94l-.44-.26-.23-.47A60.69,60.69,0,0,1,6.72,22.68l.21-.51.47-.31A66.84,66.84,0,0,1,44,11.31,66.92,66.92,0,0,1,80.67,21.86l.46.31.22.51a60.79,60.79,0,0,1-1.78,50.53l-.23.46-.44.27a63,63,0,0,1-10.76,5.18L61,90.05Z"/><path class="cls-2" d="M44,13.11A65.42,65.42,0,0,1,79.69,23.37,59,59,0,0,1,78,72.4a61.5,61.5,0,0,1-11,5.24l-6.27,9.57L54.31,80.8A68.07,68.07,0,0,1,44,81.58,65.62,65.62,0,0,1,10.1,72.4a58.94,58.94,0,0,1-1.72-49A65.29,65.29,0,0,1,44,13.11m0-3.6A68.61,68.61,0,0,0,6.41,20.36l-.92.6-.43,1A62.51,62.51,0,0,0,6.89,74l.46.93.89.53A69.08,69.08,0,0,0,44,85.18a72.77,72.77,0,0,0,9-.56l5.11,5.13,3.14,3.14,2.43-3.71,5.61-8.58a65.65,65.65,0,0,0,10.51-5.12l.88-.54.47-.92A62.61,62.61,0,0,0,83,22l-.43-1-.93-.6A68.63,68.63,0,0,0,44,9.51Z"/><path class="cls-3" d="M84.2,46A58.51,58.51,0,0,1,78,72.4a62.19,62.19,0,0,1-11,5.24L60.69,87.2l-6.38-6.4A68.07,68.07,0,0,1,44,81.58,65.62,65.62,0,0,1,10.1,72.4c12.17,3.27,38,8.69,56.57-.86a24.93,24.93,0,0,0,5.54-3.73c14.11-12.65,9-38,7.48-44.44A58.51,58.51,0,0,1,84.2,46Z"/><path class="cls-4" d="M28.75,35.84a6.3,6.3,0,1,1,6.3-6.3A6.31,6.31,0,0,1,28.75,35.84Z"/><path class="cls-2" d="M28.75,24.14a5.4,5.4,0,1,1-5.4,5.4,5.41,5.41,0,0,1,5.4-5.4m0-1.8a7.2,7.2,0,1,0,7.2,7.2,7.2,7.2,0,0,0-7.2-7.2Z"/><ellipse class="cls-5" cx="24.57" cy="46.27" rx="11.38" ry="4.36"/><path d="M39.12,46.39a10.12,10.12,0,0,1,9.15-.92,11.79,11.79,0,0,1,6.15,16.74,10.12,10.12,0,0,1-7.59,5.21,12.92,12.92,0,0,0,5-6.4,10.88,10.88,0,0,0-4.76-13A12.89,12.89,0,0,0,39.12,46.39Z"/><path class="cls-4" d="M61.85,35.84a6.3,6.3,0,1,1,6.3-6.3A6.31,6.31,0,0,1,61.85,35.84Z"/><path class="cls-2" d="M61.85,24.14a5.4,5.4,0,1,1-5.4,5.4,5.41,5.41,0,0,1,5.4-5.4m0-1.8a7.2,7.2,0,1,0,7.2,7.2,7.2,7.2,0,0,0-7.2-7.2Z"/><path class="cls-6" d="M64.46,68.52a6.12,6.12,0,0,1-4.31-1.72,5.31,5.31,0,0,1-1.32-3.08,9.64,9.64,0,0,0-.55-2.12,9.2,9.2,0,0,0-3.84-4.27,1.21,1.21,0,0,1-.53-1.26,5.29,5.29,0,0,0,0-2.17,5,5,0,0,0-.71-1.7,1.2,1.2,0,0,1,0-1.39A34.59,34.59,0,0,1,66.57,40.13c1.57-.69,7-2.94,11.6-2.94a7.17,7.17,0,0,1,5.41,1.89,3.22,3.22,0,0,1,1.07,3.16,2.33,2.33,0,0,1-.87,1.16c4.58,1.23,9.13,3.33,10.42,6.84a6.58,6.58,0,0,1,.16,4.6c-1.07,2.78-4.33,4.25-6.9,4.44l-.59,0h0c-2.92,0-5-1.64-7-3.23a22.79,22.79,0,0,0-3.37-2.38,8.84,8.84,0,0,1,1.38,1.78c1.63,2.78,2.42,7.82-.34,10.06a5.05,5.05,0,0,1-3.18,1.06,5.32,5.32,0,0,1-1.2-.13c-2-.44-3-1.92-4-3.34-.12-.19-.25-.37-.38-.56a4.88,4.88,0,0,1-1.12,4.82A4.69,4.69,0,0,1,64.46,68.52Z"/><path d="M78.17,38.39a6.12,6.12,0,0,1,4.54,1.51c.15.17,1.08,1.14.8,2-.34,1-2.38,1.35-4.88,1.35-1.2,0-2.51-.07-3.78-.18L74,43l.84.08c3.54.35,16.15,2,18.22,7.62a5.36,5.36,0,0,1,.17,3.76c-.84,2.18-3.56,3.5-5.87,3.67l-.49,0c-5.09,0-7.09-5.82-13.89-6.9A14,14,0,0,0,70.9,51a15.28,15.28,0,0,0-4,.56l.92,0c3.92,0,7.38,1.64,9.07,4.51,1.49,2.53,2,6.81,0,8.52a3.91,3.91,0,0,1-2.43.79,4.17,4.17,0,0,1-.94-.1c-2.93-.64-3.14-4.05-6.7-6.52A11.22,11.22,0,0,0,62.56,57a7.56,7.56,0,0,1,3.7,2.72c1.26,1.8,2.33,5.19.6,6.78a3.53,3.53,0,0,1-2.4.82A5,5,0,0,1,61,66c-1.21-1.27-.73-2.62-1.62-4.82a10.55,10.55,0,0,0-4.31-4.84,6.47,6.47,0,0,0,0-2.68,6.32,6.32,0,0,0-.88-2.09A32.85,32.85,0,0,1,67.05,41.23c.86-.38,6.58-2.84,11.12-2.84m0-2.4h0c-4.8,0-10.46,2.33-12.09,3a35.77,35.77,0,0,0-13.81,11,2.41,2.41,0,0,0-.11,2.77,3.89,3.89,0,0,1,.55,1.31,4.08,4.08,0,0,1,0,1.67,2.4,2.4,0,0,0,1.07,2.51,8.15,8.15,0,0,1,3.37,3.71,9,9,0,0,1,.48,1.88,6.45,6.45,0,0,0,1.63,3.7,7.25,7.25,0,0,0,5.18,2.09,5.94,5.94,0,0,0,4-1.45A5,5,0,0,0,69.91,66a6.07,6.07,0,0,0,3,1.66,6.47,6.47,0,0,0,1.46.16,6.25,6.25,0,0,0,3.94-1.33c2.34-1.89,2.71-5.46,1.84-8.65a10.69,10.69,0,0,0,6.69,2.69c.21,0,.44,0,.66,0,2.94-.21,6.68-1.93,7.94-5.2a7.58,7.58,0,0,0-.16-5.44c-1.29-3.51-5.2-5.72-9.56-7.12l0-.09a4.34,4.34,0,0,0-1.34-4.37C83,36.75,80.92,36,78.17,36Z"/><g class="cls-7"><path class="cls-8" d="M66.86,66.5c-1.47,1.35-4.45.93-5.84-.53-1.22-1.27-.73-2.63-1.63-4.82a10.55,10.55,0,0,0-4.31-4.84,13.67,13.67,0,0,1,3.4,2.32c2.66,2.48,3,4.86,5.24,5.38a2.65,2.65,0,0,0,2.47-.46c.82-.95.26-3.2-1.68-5.56h0a7.25,7.25,0,0,1,1.43,1.32,3.38,3.38,0,0,1,.31.41C67.52,61.52,68.59,64.91,66.86,66.5Z"/><path class="cls-8" d="M76.89,56.08c1.49,2.53,2.06,6.81,0,8.52a4.14,4.14,0,0,1-3.37.69c-1.76-.38-2.55-1.77-3.66-3.36,2.24,1.13,4.2,1.41,5.31.65,1.45-1,1.86-4.08.66-8A7.67,7.67,0,0,1,76.89,56.08Z"/><path class="cls-8" d="M93.25,54.41c-.85,2.18-3.57,3.5-5.88,3.67-3.2.23-5.18-1.8-7.69-3.73A9.8,9.8,0,0,0,86.9,55c.35-.12,4-1.4,4.69-4.32a4.48,4.48,0,0,0-.13-2.35,5.88,5.88,0,0,1,1.61,2.3A5.4,5.4,0,0,1,93.25,54.41Z"/><path class="cls-8" d="M66.86,66.5c-1.47,1.35-4.45.93-5.84-.53-1.22-1.27-.73-2.63-1.63-4.82a10.55,10.55,0,0,0-4.31-4.84,13.67,13.67,0,0,1,3.4,2.32c2.66,2.48,3,4.86,5.24,5.38a2.65,2.65,0,0,0,2.47-.46c.82-.95.26-3.2-1.68-5.56h0c.47.48.95.91,1.43,1.32a3.38,3.38,0,0,1,.31.41C67.52,61.52,68.59,64.91,66.86,66.5Z"/><path class="cls-8" d="M76.31,52.21a18.13,18.13,0,0,1,3.37,2.14A15,15,0,0,1,76.31,52.21Z"/><path class="cls-8" d="M75.78,54.61a7.67,7.67,0,0,1,1.11,1.47c1.49,2.53,2.06,6.81,0,8.52a4.14,4.14,0,0,1-3.37.69c-1.76-.38-2.55-1.77-3.66-3.36,2.24,1.13,4.2,1.41,5.31.65C76.57,61.58,77,58.5,75.78,54.61Z"/><path class="cls-8" d="M93.25,54.41c-.85,2.18-3.57,3.5-5.88,3.67-3.2.23-5.18-1.8-7.69-3.73A9.8,9.8,0,0,0,86.9,55c.35-.12,4-1.4,4.69-4.32a4.48,4.48,0,0,0-.13-2.35,5.88,5.88,0,0,1,1.61,2.3A5.4,5.4,0,0,1,93.25,54.41Z"/></g></svg>