<svg id="图层_1" data-name="图层 1" xmlns="http://www.w3.org/2000/svg" viewBox="0 0 96 96"><defs><style>.cls-1,.cls-4{fill:#fc5;}.cls-2{fill:#1c1c1c;}.cls-3{fill:#f95;}.cls-4,.cls-7{stroke:#1c1c1c;}.cls-4,.cls-5,.cls-6,.cls-7{stroke-linecap:round;stroke-linejoin:round;stroke-width:2.4px;}.cls-5,.cls-7{fill:none;}.cls-5{stroke:#ee2d2c;}.cls-6{fill:#f45d5d;stroke:#000;}</style></defs><title>喷鼻血</title><path class="cls-1" d="M52.16,83.27a67.34,67.34,0,0,1-34.83-9.42l-.44-.27-.23-.45a59.63,59.63,0,0,1-6.48-27.24,60.38,60.38,0,0,1,4.65-23.34l.22-.52.47-.3A67,67,0,0,1,52.16,11.2,67.06,67.06,0,0,1,88.81,21.73l.47.3.22.52a61.14,61.14,0,0,1,4.62,23.34,59.65,59.65,0,0,1-6.48,27.26l-.23.47-.45.26A67.54,67.54,0,0,1,52.16,83.27Z"/><path class="cls-2" d="M52.16,13A65.58,65.58,0,0,1,87.83,23.24a59.41,59.41,0,0,1,4.49,22.65A58.23,58.23,0,0,1,86,72.34a65.81,65.81,0,0,1-33.88,9.13,65.64,65.64,0,0,1-33.9-9.16A58.85,58.85,0,0,1,16.5,23.24,65.58,65.58,0,0,1,52.16,13m0-3.6A68.83,68.83,0,0,0,14.54,20.22l-.94.6-.43,1a62.28,62.28,0,0,0-4.79,24,61.38,61.38,0,0,0,6.67,28.05l.47.92.88.53a69.13,69.13,0,0,0,35.76,9.68,69.44,69.44,0,0,0,35.73-9.64l.89-.54.47-.92a61.57,61.57,0,0,0,6.67-28.08,62.67,62.67,0,0,0-4.76-24l-.43-1-.94-.61A68.84,68.84,0,0,0,52.16,9.4Z"/><path class="cls-3" d="M92.28,45.94A58.51,58.51,0,0,1,86,72.34a67.29,67.29,0,0,1-67.86,0c12.17,3.27,38,8.69,56.56-.86a25.38,25.38,0,0,0,5.55-3.72c14.11-12.66,8.94-38,7.47-44.45A58.33,58.33,0,0,1,92.28,45.94Z"/><path class="cls-4" d="M80,65.09a10.75,10.75,0,0,1-5.39-9q0-.51,0-1a15.18,15.18,0,0,1,1.6-5.9h-.07A8.45,8.45,0,0,0,66,57.34a9.26,9.26,0,0,0,.58,3.09,10,10,0,0,0,2.75,4,10.37,10.37,0,0,0-5.95,1.44,11.41,11.41,0,0,0-4,14.35C62.26,86,70,87.68,74.8,84.88a10.85,10.85,0,0,0,4.65-6.25,8.64,8.64,0,0,0,1.8,3.85,6.6,6.6,0,0,0,.49.55,3.66,3.66,0,0,0,5,.16l0,0a5,5,0,0,0,.73-.82,5.79,5.79,0,0,0,1-3.87A16.87,16.87,0,0,0,87,72.63,17.69,17.69,0,0,0,80,65.09Z"/><path class="cls-5" d="M49.79,28.34A90.35,90.35,0,0,0,1.14,47.09"/><path class="cls-5" d="M57.79,28.34a113.85,113.85,0,0,0-54,33.45"/><path class="cls-6" d="M49.21,34.16a13.89,13.89,0,0,1,6.85.3,13.57,13.57,0,0,1,3.8,1.85,13.72,13.72,0,0,1-8.6,5.25,8,8,0,0,1-2-7.4Z"/><line class="cls-7" x1="32.74" y1="24.89" x2="46.91" y2="24.89"/><line class="cls-7" x1="64.44" y1="24.89" x2="78.61" y2="24.89"/></svg>