<svg id="图层_1" data-name="图层 1" xmlns="http://www.w3.org/2000/svg" viewBox="0 0 96 96"><defs><style>.cls-1{fill:#fff;}.cls-2{fill:#1c1c1c;}.cls-3{fill:#ededed;}.cls-4{fill:#ff9855;}.cls-5{fill:#d9d7d5;}.cls-6{fill:#c0bfbe;}.cls-7{fill:#f6bb38;}.cls-8{fill:#e49920;}.cls-9{fill:#ffb257;}.cls-10{opacity:0.25;}.cls-11{fill:#ffefd1;}</style></defs><title>啤酒</title><path class="cls-1" d="M60.18,73.16a62.5,62.5,0,0,1-6.4-.33A6.81,6.81,0,0,1,48,68.25l0-.1a6.85,6.85,0,0,1,6.45-9.08c.21,0,.41,0,.62,0,1.68.15,3.4.22,5.11.22a58.14,58.14,0,0,0,11.93-1.24,58.1,58.1,0,0,0,1.42-12.76c0-1.5-.06-3-.18-4.52a3.2,3.2,0,0,0-2.59-2.88,58.32,58.32,0,0,0-10.58-1c-1.13,0-2.26,0-3.38.1h-.41a6.85,6.85,0,0,1-6.19-9.74l1.7.61-1.63-.76A6.86,6.86,0,0,1,56,23.24c1.36-.09,2.77-.14,4.19-.14a61.28,61.28,0,0,1,19.36,3.13,6.84,6.84,0,0,1,4.53,5,60.71,60.71,0,0,1,1.39,8.62c.16,1.85.25,3.7.25,5.5A60.61,60.61,0,0,1,84.58,57,59.51,59.51,0,0,1,82,66.44a7,7,0,0,1-4.55,4.26A61.32,61.32,0,0,1,70,72.38,63.34,63.34,0,0,1,60.18,73.16Z"/><path class="cls-2" d="M60.18,24.9a59.15,59.15,0,0,1,12,1.22A57.32,57.32,0,0,1,79,27.94a5.09,5.09,0,0,1,3.35,3.68A60.46,60.46,0,0,1,83.67,40c.15,1.76.24,3.54.24,5.34a59,59,0,0,1-1.1,11.34,58.47,58.47,0,0,1-2.54,9.16A5.12,5.12,0,0,1,76.9,69a57.94,57.94,0,0,1-7.21,1.63,60.82,60.82,0,0,1-9.51.76A61,61,0,0,1,54,71a5,5,0,0,1-4.22-3.36l0-.11a5.06,5.06,0,0,1,4.75-6.7l.46,0c1.74.15,3.5.23,5.27.23A59.85,59.85,0,0,0,73.59,59.6h0a59.53,59.53,0,0,0,1.73-14.28c0-1.57-.07-3.12-.19-4.66a5,5,0,0,0-4-4.51,60.23,60.23,0,0,0-10.91-1c-1.17,0-2.33,0-3.48.1h-.31a5,5,0,0,1-4.56-7.18l.07-.15A5,5,0,0,1,56.11,25c1.35-.09,2.7-.14,4.07-.14m0-3.6c-1.45,0-2.91.05-4.32.15a8.64,8.64,0,0,0-7.22,4.95l-.07.16a8.65,8.65,0,0,0,7.82,12.3h.52c1.08-.07,2.18-.1,3.27-.1a56.48,56.48,0,0,1,10.25.94,1.39,1.39,0,0,1,1.12,1.25c.12,1.45.18,2.93.18,4.38A56.29,56.29,0,0,1,70.6,56.55a56.75,56.75,0,0,1-10.42,1c-1.66,0-3.32-.07-5-.21a6.51,6.51,0,0,0-.77,0,8.66,8.66,0,0,0-8.16,11.45l0,.12a8.62,8.62,0,0,0,7.27,5.78c2.18.22,4.4.34,6.58.34a64.48,64.48,0,0,0,10.07-.8,62.83,62.83,0,0,0,7.67-1.74,8.75,8.75,0,0,0,5.73-5.36,61.81,61.81,0,0,0,2.7-9.73,62.22,62.22,0,0,0,1.16-12c0-1.85-.09-3.76-.26-5.66a61.17,61.17,0,0,0-1.43-8.87,8.62,8.62,0,0,0-5.71-6.27,62.94,62.94,0,0,0-7.24-1.93A63.61,63.61,0,0,0,60.18,21.3Z"/><path class="cls-3" d="M83.91,45.32a59,59,0,0,1-1.1,11.34,58.47,58.47,0,0,1-2.54,9.16A5.12,5.12,0,0,1,76.9,69a58.94,58.94,0,0,1-7.21,1.63,60.82,60.82,0,0,1-9.51.76A57.88,57.88,0,0,1,54,71a5,5,0,0,1-4.17-3.2,5,5,0,0,0,.87.17c2,.2,4.11.32,6.21.32a62.05,62.05,0,0,0,9.51-.76,57.14,57.14,0,0,0,7.21-1.63A5.12,5.12,0,0,0,77,62.78a60.2,60.2,0,0,0,3.64-20.51c0-1.8-.09-3.57-.24-5.34A60.31,60.31,0,0,0,79,28.58a6,6,0,0,0-.21-.69l.16.05a5.11,5.11,0,0,1,3.35,3.67A60.84,60.84,0,0,1,83.67,40C83.82,41.74,83.91,43.52,83.91,45.32Z"/><path class="cls-2" d="M40.69,8.79A56.14,56.14,0,0,1,64.3,13.88a6.66,6.66,0,0,1,3,9A64.2,64.2,0,0,0,65.4,75.68a6.67,6.67,0,0,1-3.6,8.76,57.66,57.66,0,0,1-42.23,0A6.68,6.68,0,0,1,16,75.67a63.58,63.58,0,0,0,4.75-24.23A63.74,63.74,0,0,0,14,22.93a6.65,6.65,0,0,1,3-9,56,56,0,0,1,23.62-5.1m0-3.6a60.07,60.07,0,0,0-25.13,5.43,10,10,0,0,0-5.26,5.81,10.54,10.54,0,0,0,.52,8.11,59.76,59.76,0,0,1,6.3,26.9,60.05,60.05,0,0,1-4.48,22.87,10.34,10.34,0,0,0,0,8,10.09,10.09,0,0,0,5.55,5.47A59.72,59.72,0,0,0,40.69,92a59.66,59.66,0,0,0,22.45-4.27,10,10,0,0,0,5.56-5.46,10.33,10.33,0,0,0,0-8,60.62,60.62,0,0,1,1.82-49.78,10.42,10.42,0,0,0,.52-8.1,10,10,0,0,0-5.25-5.81A60,60,0,0,0,40.69,5.19Z"/><path class="cls-1" d="M19.7,41.9a1.81,1.81,0,0,1-1.77-1.49c-.13-.75-.31-1.73-.54-2.7a61.51,61.51,0,0,0-5-14c-.08-.16-.15-.32-.22-.49a8.4,8.4,0,0,1,4.11-11,59,59,0,0,1,48.74,0,8.37,8.37,0,0,1,4.08,11,4.78,4.78,0,0,1-.23.49A60.79,60.79,0,0,0,64,37.69c-.23,1-.42,2-.55,2.72a1.8,1.8,0,0,1-1.35,1.44,2,2,0,0,1-.42,0,1.8,1.8,0,0,1-1.43-.71A10.78,10.78,0,0,0,56.37,38a29.6,29.6,0,0,0-6.67-1.61l-1.12-.16-.87-.1-.35,0c-.71-.07-1.45-.13-2.19-.17h-.11a2.23,2.23,0,0,0-.37,0h-.13c-.69,0-1.45-.08-2.45-.09-.49,0-.91,0-1.35,0h-.17c-.43,0-.85,0-1.27,0-1,0-1.8,0-2.48.09h-.13a3.62,3.62,0,0,0-.47,0c-.44,0-.78,0-1.11.09s-.68,0-1,.08l-.51,0-.8.1c-.31,0-.57.07-.82.11-.47.07-.87.12-1.27.2-.88.13-1.65.28-2.37.45a26.37,26.37,0,0,0-3,.83c-.23.08-.4.13-.56.2,0,0-.38.15-.49.18l-.87.4a6.76,6.76,0,0,0-.85.47,4.67,4.67,0,0,0-.66.5l-.1.09s0,0,0,0l-.15.16-.09.11a.52.52,0,0,0-.09.12l0,.16a1.79,1.79,0,0,1-1.64,1.78Z"/><path class="cls-2" d="M40.68,8.79a56,56,0,0,1,23.62,5.1,6.61,6.61,0,0,1,3.19,8.7,3.36,3.36,0,0,1-.16.33A63.37,63.37,0,0,0,62.22,37.3c-.21.92-.39,1.86-.56,2.8a12.41,12.41,0,0,0-4.52-3.78A29.65,29.65,0,0,0,50,34.56c-.57-.09-1.17-.16-1.17-.16-.48-.07-.81-.1-.92-.11l-.36,0q-1.1-.11-2.25-.18a5.68,5.68,0,0,0-.59,0c-.84-.06-1.69-.09-2.56-.1-.48,0-1,0-1.45,0s-1,0-1.45,0c-.85,0-1.69,0-2.52.1-.23,0-.46,0-.67,0-.37,0-.73,0-1.09.09s-.69,0-1,.08l-.44,0-.91.11c-.29,0-.58.07-.85.12-.45.06-.88.12-1.31.2-.85.13-1.67.29-2.44.47a27.18,27.18,0,0,0-3.18.89l-.65.22-.44.17c-.37.16-.72.31-1,.47a7.13,7.13,0,0,0-1,.58,5.79,5.79,0,0,0-.93.7,1.26,1.26,0,0,0-.2.2,1.42,1.42,0,0,0-.21.22,2.82,2.82,0,0,0-.36.54c0,.09-.07.16-.09.23a1.87,1.87,0,0,0-.13.69c-.17-.94-.35-1.88-.57-2.8A63,63,0,0,0,14,22.94a2.63,2.63,0,0,1-.15-.35,6.63,6.63,0,0,1,3.19-8.7,56.09,56.09,0,0,1,23.6-5.1m0-3.6a60.16,60.16,0,0,0-25.12,5.43,10.19,10.19,0,0,0-5,13.35c.08.2.16.38.26.58a59.84,59.84,0,0,1,4.81,13.54c.22,1,.4,1.92.53,2.64a3.61,3.61,0,0,0,3.54,3l.33,0a3.59,3.59,0,0,0,3.21-2.9,2.3,2.3,0,0,1,.31-.22l.05,0a4.24,4.24,0,0,1,.59-.33l.08,0c.19-.1.44-.21.72-.33l.33-.12.1-.05.09,0,.36-.12.11,0a23.33,23.33,0,0,1,2.78-.77q1-.24,2.19-.42l.13,0,1.11-.17.13,0c.22,0,.45-.06.68-.09l.83-.1c.19,0,.36,0,.53-.06l.83-.06h.11l1-.08H37c.65-.05,1.36-.08,2.31-.09h.13c.39,0,.82,0,1.27,0s.88,0,1.27,0h.13c1,0,1.7,0,2.35.09h.4l.22,0,2.13.17.3,0h.06l.8.1h0l1.08.15a30,30,0,0,1,6.2,1.47,9,9,0,0,1,3.17,2.69,3.6,3.6,0,0,0,6.4-1.55c.19-1.07.36-1.88.53-2.61a59.1,59.1,0,0,1,4.8-13.54,5.4,5.4,0,0,0,.23-.49l0,0a10.18,10.18,0,0,0-5-13.43A59.93,59.93,0,0,0,40.68,5.19Z"/><path class="cls-4" d="M21.63,37.52a7.13,7.13,0,0,1,1-.58A9.94,9.94,0,0,0,21.63,37.52Z"/><path class="cls-4" d="M28,35.19c.77-.18,1.59-.34,2.44-.47C29.55,34.86,28.73,35,28,35.19Z"/><path class="cls-3" d="M42.13,33.94h-2.9c.48,0,1,0,1.45,0S41.65,33.92,42.13,33.94Z"/><path class="cls-5" d="M61.8,84.44a56.72,56.72,0,0,1-21.12,4,56.32,56.32,0,0,1-21.11-4A6.65,6.65,0,0,1,16,75.68c.17-.41.33-.82.48-1.24a67.16,67.16,0,0,0,24.23,4.34,66.94,66.94,0,0,0,24.23-4.34c.16.42.32.83.49,1.24A6.66,6.66,0,0,1,61.8,84.44Z"/><path class="cls-6" d="M61.8,84.44a53.15,53.15,0,0,1-7.14,2.3l.42-.17a6.74,6.74,0,0,0,3.6-8.84c-.15-.39-.31-.76-.44-1.14a59.1,59.1,0,0,0,6.67-2.15c.16.42.32.83.49,1.24A6.66,6.66,0,0,1,61.8,84.44Z"/><path class="cls-7" d="M64.91,74.44a66.94,66.94,0,0,1-24.23,4.34,67.16,67.16,0,0,1-24.23-4.34,63.63,63.63,0,0,0,4.26-23,64.74,64.74,0,0,0-.88-10.67v0l-.12-.63h0a1.87,1.87,0,0,1,.13-.69c0-.07.06-.14.09-.23a2.82,2.82,0,0,1,.36-.54l.21-.22a1,1,0,0,1,.2-.2,5.79,5.79,0,0,1,.93-.7,7.13,7.13,0,0,1,1-.58c.31-.16.66-.31,1-.47l.44-.17.65-.22A27.18,27.18,0,0,1,28,35.19c.77-.18,1.59-.34,2.44-.47l1.31-.2c.28,0,.56-.09.85-.12l.91-.11.44,0c.35,0,.69-.06,1-.08s.72-.06,1.09-.09c.21,0,.44,0,.67,0,.83,0,1.67-.08,2.52-.1h2.9c.86,0,1.72.05,2.56.1a5.68,5.68,0,0,1,.59,0c.75,0,1.51.11,2.25.18l.36,0,.92.11.85.12.32,0c6.91,1,11.68,3.11,11.68,5.54h0q-.07.31-.12.63v0a64.28,64.28,0,0,0,3.37,33.67Z"/><path class="cls-8" d="M64.91,74.44a60.21,60.21,0,0,1-6.77,2.18,71.81,71.81,0,0,1-3.3-35.44v0c0-.23.07-.44.12-.67v0c0-2.57-4.76-4.79-11.67-5.86L43,34.55c-.27,0-.56-.09-.85-.13l-.91-.11-.36,0c-.75-.09-1.5-.15-2.26-.2a5.54,5.54,0,0,0-.59,0c-.22,0-.46,0-.7,0l1.94-.07h2.9c.86,0,1.72.05,2.56.1a5.68,5.68,0,0,1,.59,0c.75,0,1.51.11,2.25.18l.36,0,.92.11.85.12.32,0c6.91,1,11.68,3.11,11.68,5.54h0q-.07.31-.12.63v0a64.28,64.28,0,0,0,3.37,33.67Z"/><path class="cls-9" d="M61.66,40.1h0a1.76,1.76,0,0,1-.12.63v0c-1.14,3.08-10,5.49-20.86,5.49S21,43.85,19.83,40.77v0a1.57,1.57,0,0,1-.12-.63h0a1.87,1.87,0,0,1,.13-.69c0-.07.06-.14.09-.23a2.82,2.82,0,0,1,.36-.54l.21-.22a1,1,0,0,1,.2-.2,5.79,5.79,0,0,1,.93-.7,7.13,7.13,0,0,1,1-.58c.31-.16.66-.31,1-.47l.44-.17.65-.22A27.18,27.18,0,0,1,28,35.19c.77-.18,1.59-.34,2.44-.47l1.31-.2c.28,0,.56-.09.85-.12l.91-.11.44,0c.35,0,.69-.06,1-.08s.72-.06,1.09-.09c.21,0,.44,0,.67,0,.83,0,1.67-.08,2.52-.1.48,0,1,0,1.45,0s1,0,1.45,0c.86,0,1.72.05,2.56.1a5.68,5.68,0,0,1,.59,0c.75,0,1.51.11,2.25.18l.36,0,.92.11.85.12.32,0C56.89,35.57,61.66,37.67,61.66,40.1Z"/><g class="cls-10"><path class="cls-1" d="M61.66,40.1h0a1.76,1.76,0,0,1-.12.63v0c-1.14,3.08-10,5.49-20.86,5.49S21,43.85,19.83,40.77v0a1.57,1.57,0,0,1-.12-.63h0a1.87,1.87,0,0,1,.13-.69c0-.07.06-.14.09-.23a2.82,2.82,0,0,1,.36-.54l.21-.22a1,1,0,0,1,.2-.2,5.79,5.79,0,0,1,.93-.7,7.13,7.13,0,0,1,1-.58c.31-.16.66-.31,1-.47l.44-.17.65-.22A27.18,27.18,0,0,1,28,35.19c.77-.18,1.59-.34,2.44-.47l1.31-.2c.28,0,.56-.09.85-.12l.91-.11.44,0c.35,0,.69-.06,1-.08s.72-.06,1.09-.09c.21,0,.44,0,.67,0,.83,0,1.67-.08,2.52-.1.48,0,1,0,1.45,0s1,0,1.45,0c.86,0,1.72.05,2.56.1a5.68,5.68,0,0,1,.59,0c.75,0,1.51.11,2.25.18l.36,0,.92.11.85.12.32,0C56.89,35.57,61.66,37.67,61.66,40.1Z"/></g><path class="cls-1" d="M46.09,43.09c-2.18,0-2.76-2.48-4.47-9.83a81.13,81.13,0,0,0-2.95-10.6c-.73,1.42-1.83,3.54-4.15,3.82l-.45,0a4.8,4.8,0,0,1-3.4-1.72c-.24-.22-.72-.69-.86-.69-.9,0-2.72,4.33-3.5,6.17-1.88,4.46-3.65,8.66-7.08,8.84H19c-4.61,0-7.61-7.73-8.34-11.47a17,17,0,0,1,.54-9.31C15.33,8,32.7,6.89,40,6.89c2.31,0,4.56.1,6.7.31C52,7.71,68.19,9.26,70.26,17.87c1.1,4.6-2.1,9.12-3.11,10.4-.86,1.1-3.13,3.65-5.45,3.65h0a3.06,3.06,0,0,1-.74-.09,3.69,3.69,0,0,1-2.33-2.3c-.23.34-.47.74-.64,1-1,1.57-2.12,3.53-4.17,3.53s-3.12-1.81-4-3.55c-.25,1.48-.45,3.29-.6,4.61-.64,5.5-.9,7.78-3,7.93Z"/><path class="cls-2" d="M40,8.69c2.34,0,4.56.11,6.53.3,4.79.46,20.23,1.94,22,9.3,1.21,5.06-4.3,11.83-6.81,11.83a1.36,1.36,0,0,1-.29,0c-1.24-.32-1.25-2.76-2.5-2.9H58.8c-1.82,0-3,5.11-5,5.11h0c-2.11,0-3-5.6-4.27-5.6h0c-2,.16-2,14.5-3.4,14.6h0c-1.75,0-4.4-21.3-7.46-21.3h0c-1.39,0-1.85,4.41-4.3,4.7h-.24c-1.74,0-2.49-2.32-4.16-2.41h-.1c-4.24,0-6.12,14.78-10.67,15H19c-2.86,0-5.74-5.73-6.57-10a15.7,15.7,0,0,1,.45-8.3C16.07,11,29.29,8.69,40,8.69m0-3.6c-7.64,0-25.92,1.22-30.42,12.57A18.76,18.76,0,0,0,8.92,28C9.62,31.57,12.81,40.9,19,40.9h.29C23.88,40.66,26,35.73,28,31c.54-1.27,1.34-3.17,2-4.36a6.09,6.09,0,0,0,4.09,1.7,4.87,4.87,0,0,0,.66,0,5.75,5.75,0,0,0,3.38-1.63c.66,2.33,1.31,5.15,1.76,7,.53,2.29,1,4.46,1.52,6.1s1.5,5.12,4.7,5.12h.27c3.22-.23,3.84-3.62,4.08-4.9s.42-2.91.61-4.63l0-.3a4.78,4.78,0,0,0,2.67.84h.06c2.41,0,3.91-1.63,5-3.18a4.51,4.51,0,0,0,1.74.86,4.68,4.68,0,0,0,1.19.15c3,0,5.59-2.71,6.86-4.33C69.7,28,73.3,22.84,72,17.45,69.89,8.61,56.64,6.34,46.85,5.4c-2.19-.21-4.5-.31-6.87-.31Z"/><path class="cls-11" d="M61.41,30.09c-1.24-.33-1.25-2.76-2.5-2.91-1.88-.2-3,5.13-5.1,5.1s-3-5.7-4.31-5.59c-2,.16-2,14.5-3.39,14.59-1.76.14-4.42-21.39-7.5-21.3-1.38.05-1.85,4.42-4.3,4.71-1.92.23-2.65-2.31-4.4-2.4-4.31-.24-6.18,14.78-10.77,15-2.9.14-5.84-5.68-6.68-10a17.33,17.33,0,0,1-.09-6.53,13.93,13.93,0,0,0,.74,4.78c.41,1.2,2,5.76,4.4,6.05,3.91.46,6.39-10.65,11.85-10.55,1.89,0,2.88,1.4,5,.8,2.55-.73,2.87-3.22,4.15-3.25,3.33-.09,6.28,16.79,7.6,16.6.92-.14-.21-8.43,2.45-9.4,1.63-.6,3.09,2.17,5.7,1.6,2-.45,2.44-2.45,4.55-2.5,1.35,0,1.54.77,2.95.75,2,0,3.53-1.78,4.15-2.5A9.47,9.47,0,0,0,68,17a6,6,0,0,1,.47,1.29C69.77,23.56,63.73,30.69,61.41,30.09Z"/></svg>