<svg id="图层_1" data-name="图层 1" xmlns="http://www.w3.org/2000/svg" viewBox="0 0 96 96"><defs><style>.cls-1{fill:#ffcb55;}.cls-2{fill:#1c1c1c;}.cls-3{fill:#ff9855;}.cls-4{fill:none;stroke-linecap:round;stroke-linejoin:round;stroke-width:2.4px;}.cls-4,.cls-5,.cls-8{stroke:#1c1c1c;}.cls-5{fill:#4ad03f;}.cls-5,.cls-8{stroke-miterlimit:10;stroke-width:1.2px;}.cls-6{fill:#fff65a;}.cls-7{fill:#c4d54c;}.cls-8{fill:#8dff5a;}.cls-9{fill:#5dacf4;}</style></defs><title>恰柠檬</title><path class="cls-1" d="M57.64,81.4a70.15,70.15,0,0,1-9.65.67,67.36,67.36,0,0,1-34.85-9.44l-.44-.27-.24-.46a60.76,60.76,0,0,1-1.77-50.54l.21-.51.46-.3A66.83,66.83,0,0,1,48,10,66.87,66.87,0,0,1,84.64,20.55l.46.3.21.51A60.76,60.76,0,0,1,83.54,71.9l-.23.46-.44.27A64.19,64.19,0,0,1,72.1,77.81L65,88.73Z"/><path class="cls-2" d="M48,11.79A65.28,65.28,0,0,1,83.65,22.06a58.94,58.94,0,0,1-1.72,49,61.23,61.23,0,0,1-11,5.23l-6.26,9.57-6.38-6.4A68.07,68.07,0,0,1,48,80.27a65.62,65.62,0,0,1-33.92-9.18,58.94,58.94,0,0,1-1.72-49A65.21,65.21,0,0,1,48,11.79m0-3.6A68.61,68.61,0,0,0,10.38,19l-.93.61-.42,1a62.51,62.51,0,0,0,1.83,52l.46.92.89.54A69.15,69.15,0,0,0,48,83.87a70.88,70.88,0,0,0,9-.57l5.11,5.13,3.13,3.15,2.43-3.72,5.62-8.58A64,64,0,0,0,83.8,74.16l.88-.53.46-.92a62.51,62.51,0,0,0,1.83-52l-.42-1L85.62,19A68.65,68.65,0,0,0,48,8.19Z"/><path class="cls-3" d="M88.17,44.68a58.52,58.52,0,0,1-6.24,26.41,61.92,61.92,0,0,1-11,5.23l-6.26,9.57-6.38-6.41A66.8,66.8,0,0,1,48,80.26a65.62,65.62,0,0,1-33.92-9.17c12.17,3.26,38,8.69,56.57-.86a25.52,25.52,0,0,0,5.54-3.73c14.11-12.65,8.95-38,7.47-44.45A58.37,58.37,0,0,1,88.17,44.68Z"/><path class="cls-4" d="M47.4,40.55A10,10,0,0,1,34.85,47.2"/><path class="cls-4" d="M73.07,44a6.45,6.45,0,0,0,8.06,4.28"/><path class="cls-5" d="M60.44,91.59a3,3,0,0,1-2.22.93c-1.49-.12-2.9-1.77-2.93-4A10.73,10.73,0,0,1,59,90.3,11.25,11.25,0,0,1,60.44,91.59Z"/><path class="cls-6" d="M61,91.84a18,18,0,0,1-8.08-6.39,18.79,18.79,0,0,1-2.1-3.76,9.23,9.23,0,0,1,3.08-10.94,16.14,16.14,0,0,1,3.75-2,2.26,2.26,0,0,0,1.29-1.16,2.31,2.31,0,0,1,1.23-1.23,2.18,2.18,0,0,1,.87-.17,2.29,2.29,0,0,1,1.57.62A2.33,2.33,0,0,1,63.23,68a2.23,2.23,0,0,0,.89,1.46,19.66,19.66,0,0,1,4.66,4.57,16.71,16.71,0,0,1,2,3.58,9.17,9.17,0,0,1-2.29,10.51c-.42.37-.88.74-1.35,1.08a16.25,16.25,0,0,1-5.86,2.64l-.18,0Z"/><path class="cls-2" d="M61,66.76a1.66,1.66,0,0,1,1.15.46,1.69,1.69,0,0,1,.5.91A2.76,2.76,0,0,0,63.79,70l.06,0A19.28,19.28,0,0,1,68.3,74.4a16.62,16.62,0,0,1,2,3.46,8.61,8.61,0,0,1-2.14,9.83c-.41.36-.85.71-1.3,1a16,16,0,0,1-5.65,2.55,17.53,17.53,0,0,1-7.81-6.18,18.46,18.46,0,0,1-2-3.64A8.58,8.58,0,0,1,54.2,71.24l0,0a15.64,15.64,0,0,1,3.57-1.92,2.8,2.8,0,0,0,1.62-1.49,1.67,1.67,0,0,1,1.55-1m0-1.2h0a2.83,2.83,0,0,0-2.66,1.78,1.62,1.62,0,0,1-.94.82,17.15,17.15,0,0,0-3.84,2.06l0,0a9.84,9.84,0,0,0-3.29,11.66,19.72,19.72,0,0,0,2.17,3.88,18.61,18.61,0,0,0,8.35,6.6l.34.13.36-.08A16.87,16.87,0,0,0,67.5,89.7a14.15,14.15,0,0,0,1.41-1.12,9.76,9.76,0,0,0,2.44-11.19,17.74,17.74,0,0,0-2.08-3.69A20.32,20.32,0,0,0,64.54,69L64.46,69a1.57,1.57,0,0,1-.64-1.07A2.88,2.88,0,0,0,61,65.56Z"/><path class="cls-7" d="M57.82,69.52A2.78,2.78,0,0,0,59.44,68a1.68,1.68,0,0,1,2.7-.58,1.69,1.69,0,0,1,.5.91,2.84,2.84,0,0,0,1.14,1.85l.07,0a19.36,19.36,0,0,1,4.45,4.39,16.62,16.62,0,0,1,2,3.46,8.68,8.68,0,0,1,.17,6.43,8.51,8.51,0,0,0-.58-4.43,17.5,17.5,0,0,0-2-3.64A18.5,18.5,0,0,0,65,73.37a8.59,8.59,0,0,0-10.61-.56l0,0a13.16,13.16,0,0,0-1.3,1,8.39,8.39,0,0,0-2.31,3.37,8.55,8.55,0,0,1,3.45-5.78l0,0A16,16,0,0,1,57.82,69.52Z"/><path class="cls-8" d="M60.85,91.56a4.18,4.18,0,0,0,2.52,1.32c2,.21,4.13-1.31,5.07-3.83a1.66,1.66,0,0,1,.12-.43,1.7,1.7,0,0,1,.75-.81c-2.73-.84-5.49-.37-7.13,1.35A5.55,5.55,0,0,0,60.85,91.56Z"/><circle cx="73.86" cy="53.82" r="2.5"/><circle cx="43.75" cy="53.37" r="2.5"/><path class="cls-9" d="M77.24,81.07,71.55,81a.44.44,0,0,1-.36-.19.46.46,0,0,1,0-.41A41.62,41.62,0,0,0,73.8,66.05a40.64,40.64,0,0,0-.49-6.64c-2.22-.2-3.74-1.07-3.74-2.19,0-1.45,2.43-2.23,4.7-2.23s4.7.78,4.7,2.23c0,.77-.7,1.42-1.94,1.83a71.24,71.24,0,0,1,1.2,12.84,70.52,70.52,0,0,1-.54,8.78.44.44,0,0,1-.44.4Z"/><path d="M74.27,55.44c2.35,0,4.25.79,4.25,1.78,0,.63-.8,1.2-2,1.51a71.23,71.23,0,0,1,1.26,13.16,72.2,72.2,0,0,1-.53,8.73l-5.69-.09a42.29,42.29,0,0,0,2.69-14.48A41.61,41.61,0,0,0,73.7,59c-2.08-.11-3.68-.86-3.68-1.76s1.91-1.78,4.25-1.78m0-.9c-2.48,0-5.15.84-5.15,2.68,0,1.32,1.5,2.32,3.8,2.6A40,40,0,0,1,73.35,66a41.46,41.46,0,0,1-2.63,14.18.86.86,0,0,0,.1.82.87.87,0,0,0,.72.39l5.7.09h0a.9.9,0,0,0,.89-.79,71.49,71.49,0,0,0,.54-8.84,71.78,71.78,0,0,0-1.13-12.55c1.2-.48,1.87-1.23,1.87-2.12,0-1.84-2.67-2.68-5.15-2.68Z"/><path class="cls-9" d="M40,85.39a.45.45,0,0,1-.45-.4,87.62,87.62,0,0,1,.76-26.31c-1.85-.41-2.93-1.24-2.93-2.24,0-1.43,2.29-2.5,5.32-2.5S48,55,48,56.44c0,1.06-1.24,1.93-3.26,2.31A51,51,0,0,0,44.15,67a51.86,51.86,0,0,0,3.27,17.71.46.46,0,0,1-.05.41.44.44,0,0,1-.37.19c-2.33,0-4.67.08-7,.1Z"/><path d="M42.7,54.39c2.69,0,4.87.92,4.87,2,0,.89-1.33,1.63-3.2,1.92A50.68,50.68,0,0,0,43.7,67,52.63,52.63,0,0,0,47,84.84l-7,.1a85.65,85.65,0,0,1-.65-10.75,87.93,87.93,0,0,1,1.48-15.87c-1.77-.31-3-1-3-1.88,0-1.13,2.18-2,4.87-2m0-.9c-2.87,0-5.77,1-5.77,2.95,0,1.14,1,2.07,2.86,2.57a89,89,0,0,0-1.34,15.18,86.71,86.71,0,0,0,.66,10.86.9.9,0,0,0,.89.79h0l7-.1a.9.9,0,0,0,.73-.39.92.92,0,0,0,.1-.82,50.87,50.87,0,0,1-2.68-25.4c2.09-.46,3.31-1.44,3.31-2.69,0-1.94-2.9-2.95-5.77-2.95Z"/><path d="M61.71,62a4.38,4.38,0,0,1-1.77,3.71,4,4,0,0,1-6.34-2.18,3.64,3.64,0,0,1,.82-3.38,3.42,3.42,0,0,0-.4,3.24,3.49,3.49,0,0,0,2.32,2,3,3,0,0,0,2.74-.75,2.85,2.85,0,0,0,.84-2.51.9.9,0,1,1,1.77-.32s0,.08,0,.11Z"/><path d="M61.71,62a2.8,2.8,0,0,0,1.19,2.26,3,3,0,0,0,2.72.39,3.47,3.47,0,0,0,2-2.18,3.28,3.28,0,0,0-.55-3.1,3.5,3.5,0,0,1,1,3.21,4,4,0,0,1-5.89,2.84,4.41,4.41,0,0,1-2.28-3.26v0a.9.9,0,0,1,1.79-.26A.57.57,0,0,1,61.71,62Z"/><path class="cls-1" d="M46.61,90c-4.29,0-9.23-2.06-9.93-5.89-.32-1.76.34-3.69,1.92-5.59l.65-.78.88.52A8.83,8.83,0,0,0,43.9,79.5l.61,0a14,14,0,0,0,6.19-1.93,10,10,0,0,1,4.18-1.43,3.36,3.36,0,0,1,1.82.52,4,4,0,0,1,1.7,2.51,6.19,6.19,0,0,1-1,4.75,13.32,13.32,0,0,1-8.08,5.77A12,12,0,0,1,46.61,90Z"/><path d="M54.88,77.36a2.15,2.15,0,0,1,1.18.33,3,3,0,0,1,1.18,1.8c.84,3.23-3.41,8-8.18,9.05a11,11,0,0,1-2.45.26c-4,0-8.2-1.94-8.75-4.91-.34-1.86.84-3.62,1.66-4.6a9.85,9.85,0,0,0,4.29,1.4l.7,0c4.52,0,7.92-3.36,10.37-3.36m0-2.4h0a11,11,0,0,0-4.71,1.55,12.87,12.87,0,0,1-5.66,1.81l-.51,0a7.49,7.49,0,0,1-3.26-1.08l-1.76-1-1.3,1.57c-1.82,2.17-2.57,4.45-2.18,6.57.82,4.46,6.34,6.87,11.11,6.87a13.09,13.09,0,0,0,3-.32,14.56,14.56,0,0,0,8.84-6.31,7.33,7.33,0,0,0,1.13-5.69,5.22,5.22,0,0,0-2.22-3.22,4.55,4.55,0,0,0-2.46-.7Z"/><path class="cls-1" d="M70.62,86.07c-3.42,0-6.86-2.35-7.07-4.83a3.53,3.53,0,0,1,1.64-3.16,3.68,3.68,0,0,1,2-.56,5.22,5.22,0,0,1,1.34.19,4.27,4.27,0,0,1,1.29-3.24,4.13,4.13,0,0,1,2.86-1.08,4.43,4.43,0,0,1,1.74.35c2.6,1.13,3.34,4.77,2.53,7.49a7,7,0,0,1-3.75,4.33A6.58,6.58,0,0,1,70.62,86.07Z"/><path d="M72.69,74.59a3.29,3.29,0,0,1,1.26.25c2,.87,2.49,3.93,1.86,6a5.8,5.8,0,0,1-3.07,3.57,5.55,5.55,0,0,1-2.12.41c-2.85,0-5.72-2-5.87-3.73a2.35,2.35,0,0,1,1.09-2,2.45,2.45,0,0,1,1.36-.37,5.18,5.18,0,0,1,3.51,1.69c-1.35-1.77-1.23-4-.06-5.07a3,3,0,0,1,2-.75m0-2.4h0A5.37,5.37,0,0,0,69,73.59a5.23,5.23,0,0,0-1.52,2.74H67.2a4.91,4.91,0,0,0-2.66.75,4.76,4.76,0,0,0-2.18,4.27c.28,3.39,4.6,5.93,8.26,5.93a7.9,7.9,0,0,0,3-.6,8.26,8.26,0,0,0,4.44-5.1c1-3.28,0-7.52-3.2-8.93a5.72,5.72,0,0,0-2.22-.45Z"/></svg>