<svg id="图层_1" data-name="图层 1" xmlns="http://www.w3.org/2000/svg" viewBox="0 0 96 96"><defs><style>.cls-1{fill:#ffcb55;}.cls-2{fill:#1c1c1c;}.cls-3{fill:#ff9855;}.cls-4,.cls-5{fill:none;stroke-linecap:round;stroke-linejoin:round;stroke-width:3.6px;}.cls-4{stroke:#000;}.cls-5{stroke:#1c1c1c;}.cls-6{fill:#ee2d2c;}</style></defs><title>不是吧</title><path class="cls-1" d="M57.64,83.62a68.61,68.61,0,0,1-9.65.67,67.29,67.29,0,0,1-34.85-9.44l-.44-.27-.24-.46a60.74,60.74,0,0,1-1.77-50.53l.21-.51.46-.31A66.9,66.9,0,0,1,48,12.22,66.94,66.94,0,0,1,84.64,22.77l.46.31.21.51a60.74,60.74,0,0,1-1.77,50.53l-.24.46-.44.27A63,63,0,0,1,72.1,80L65,91Z"/><path class="cls-2" d="M48,14A65.28,65.28,0,0,1,83.65,24.28a58.94,58.94,0,0,1-1.72,49,61.27,61.27,0,0,1-11,5.24l-6.26,9.57-6.38-6.41A68.07,68.07,0,0,1,48,82.49a65.62,65.62,0,0,1-33.92-9.18,58.94,58.94,0,0,1-1.72-49A65.21,65.21,0,0,1,48,14m0-3.6A68.68,68.68,0,0,0,10.38,21.26l-.93.61-.42,1a62.51,62.51,0,0,0,1.83,52l.46.93.89.53A69.05,69.05,0,0,0,48,86.09a70.88,70.88,0,0,0,9-.57l5.11,5.14,3.13,3.14,2.43-3.71,5.62-8.58A65.65,65.65,0,0,0,83.8,76.39l.88-.54.46-.92a62.51,62.51,0,0,0,1.83-52l-.42-1-.93-.61A68.73,68.73,0,0,0,48,10.42Z"/><path class="cls-3" d="M88.17,46.9a58.52,58.52,0,0,1-6.24,26.41,61.23,61.23,0,0,1-11,5.23l-6.26,9.57-6.38-6.4A68.07,68.07,0,0,1,48,82.49a65.62,65.62,0,0,1-33.92-9.18c12.17,3.27,38,8.69,56.57-.86a25.17,25.17,0,0,0,5.54-3.73c14.11-12.65,8.95-38,7.47-44.44A58.32,58.32,0,0,1,88.17,46.9Z"/><polyline class="cls-4" points="23.19 31.51 23.19 30.04 23.19 25.58 23.19 14.8 23.19 10.36 23.19 9.17"/><polyline class="cls-4" points="10.79 20.46 10.79 19.72 10.79 17.47 10.79 12.02 10.79 9.77 10.79 9.17"/><polyline class="cls-5" points="30.2 24.61 31.2 24.61 34.24 24.61 41.6 24.61 44.63 24.61 45.45 24.61"/><polyline class="cls-5" points="57.79 24.61 58.79 24.61 61.84 24.61 69.19 24.61 72.23 24.61 73.04 24.61"/><polyline class="cls-4" points="16.99 26.11 16.99 25 16.99 21.62 16.99 13.44 16.99 10.07 16.99 9.17"/><circle cx="37.82" cy="28.37" r="4.04"/><circle cx="65.42" cy="28.37" r="4.04"/><path class="cls-6" d="M56.63,76.05a11.92,11.92,0,0,1-7.57-2.19,8.34,8.34,0,0,1-2.29-3A4.57,4.57,0,0,1,47.64,68c1.5-2.28,6.18-2.78,11.13-3.3,6.5-.69,13.88-1.47,17.82-6.38a15.61,15.61,0,0,0,2.92-7.49c.07-.39.15-.83.23-1.17,1,1.36,2.6,6.32,1.31,11-2.42,8.8-14.89,15.37-24.42,15.37Z"/><path class="cls-2" d="M80.06,52.75a15.37,15.37,0,0,1,.12,7.69C77.9,68.73,65.65,75.15,56.63,75.15a11,11,0,0,1-7-2,7.34,7.34,0,0,1-2-2.57,3.78,3.78,0,0,1,.74-2.1c1.26-1.92,5.94-2.42,10.46-2.89,6.68-.71,14.25-1.51,18.43-6.72a14.34,14.34,0,0,0,2.77-6.13m-.52-4.29c-1.28,0-.37,5.22-3.65,9.3-6.81,8.47-25.19,4-29,9.75a5.36,5.36,0,0,0-1,3.55,9.48,9.48,0,0,0,2.6,3.5A12.8,12.8,0,0,0,56.63,77c9.76,0,22.75-6.8,25.29-16,1.59-5.78-.93-12.45-2.38-12.46Z"/></svg>