<svg id="图层_1" data-name="图层 1" xmlns="http://www.w3.org/2000/svg" viewBox="0 0 96 96"><defs><style>.cls-1{fill:#d22222;}.cls-2{fill:#fff;}.cls-3{fill:none;stroke:#000;stroke-linecap:round;stroke-linejoin:round;stroke-width:2.29px;}.cls-4{fill:#fc5;}.cls-5{fill:#1c1c1c;}.cls-6{fill:#f95;}</style></defs><title>庆祝</title><path class="cls-1" d="M93.57,3.24c-.28,1.27-.58,2.55-.86,3.81a2.86,2.86,0,0,0-1.19-1.3,2.74,2.74,0,0,0-2.07-.23Z"/><path class="cls-2" d="M92.71,7.05c-.19.83-.38,1.66-.56,2.47a5.13,5.13,0,0,0-1.67-1.89A4.93,4.93,0,0,0,87,6.91l2.49-1.39a2.73,2.73,0,0,1,2,.19A2.85,2.85,0,0,1,92.71,7.05Z"/><path class="cls-1" d="M92.15,9.52c-.21.88-.41,1.76-.6,2.62a8.12,8.12,0,0,0-2.82-2.78,7.88,7.88,0,0,0-4.28-1.07L87,6.91a4.93,4.93,0,0,1,3.52.72A5.13,5.13,0,0,1,92.15,9.52Z"/><path class="cls-2" d="M91.55,12.14c-.22.92-.42,1.85-.63,2.77a11,11,0,0,0-3.65-3.68,10.71,10.71,0,0,0-5.34-1.55l2.52-1.39A7.89,7.89,0,0,1,88.8,9.4,8.21,8.21,0,0,1,91.55,12.14Z"/><path class="cls-1" d="M90.92,14.91c-.23,1-.45,2-.67,3a14.13,14.13,0,0,0-6-5.55,13.13,13.13,0,0,0-4.85-1.24l2.51-1.4a10.71,10.71,0,0,1,5.34,1.55A11,11,0,0,1,90.92,14.91Z"/><path class="cls-2" d="M90.25,17.87C90,18.93,89.77,20,89.53,21a22.81,22.81,0,0,0-12.65-8.55l2.54-1.4a13.23,13.23,0,0,1,5.18,1.4A14,14,0,0,1,90.25,17.87Z"/><path class="cls-1" d="M89.53,21q-1.11,4.83-2.21,9.67-9-7-17.93-14.08l7.49-4.14A22.81,22.81,0,0,1,89.53,21Z"/><path class="cls-3" d="M93.57,3.24c-.28,1.27-.58,2.54-.86,3.81l-.57,2.48-.6,2.62c-.21.91-.41,1.84-.62,2.76s-.46,2-.67,3S89.77,20,89.53,21c-.74,3.22-1.47,6.45-2.21,9.67L69.4,16.62l7.47-4.13,2.54-1.41c.85-.48,1.69-.94,2.52-1.39s1.68-.94,2.52-1.39S86.12,7.37,87,6.9l2.49-1.39C90.82,4.77,92.2,4,93.57,3.24Z"/><path class="cls-4" d="M58.79,79.3a66.89,66.89,0,0,1-9.21.63,64.26,64.26,0,0,1-33.28-9l-.42-.25-.22-.44A58,58,0,0,1,14,22l.21-.48.44-.29a63.76,63.76,0,0,1,35-10.08,63.78,63.78,0,0,1,35,10.08l.44.29.21.48a58.07,58.07,0,0,1-1.7,48.26l-.22.44-.42.25a60.68,60.68,0,0,1-10.28,5L65.78,86.3Z"/><path class="cls-5" d="M49.58,12.83a62.35,62.35,0,0,1,34.05,9.81A56.23,56.23,0,0,1,82,69.45a59,59,0,0,1-10.51,5l-6,9.14-6.1-6.12a64.46,64.46,0,0,1-9.82.75,62.66,62.66,0,0,1-32.39-8.77,56.23,56.23,0,0,1-1.64-46.81,62.29,62.29,0,0,1,34-9.81m0-3.43A65.48,65.48,0,0,0,13.67,19.76l-.89.57-.4,1A59.76,59.76,0,0,0,14.12,71l.45.88.85.51a66,66,0,0,0,34.16,9.26,68.24,68.24,0,0,0,8.6-.54L63.06,86l3,3,2.32-3.54,5.37-8.19a61.37,61.37,0,0,0,10-4.89l.84-.51.45-.88A59.76,59.76,0,0,0,86.8,21.31l-.41-1-.88-.57A65.53,65.53,0,0,0,49.58,9.4Z"/><path class="cls-6" d="M88,44.24a55.87,55.87,0,0,1-6,25.21,59,59,0,0,1-10.51,5l-6,9.13-6.1-6.11a64.46,64.46,0,0,1-9.82.74,62.66,62.66,0,0,1-32.39-8.76c11.62,3.12,36.31,8.3,54-.82a24.19,24.19,0,0,0,5.3-3.56C90,53,85,28.77,83.63,22.63A55.68,55.68,0,0,1,88,44.24Z"/><path class="cls-5" d="M27,29.35a22.46,22.46,0,0,0-3-1.91,11.86,11.86,0,0,0-3-1.07,10.6,10.6,0,0,0-3.14-.16A17.09,17.09,0,0,0,14.5,27a6,6,0,0,1,3-2.51,7.16,7.16,0,0,1,4.05-.33A7,7,0,0,1,27,29.35Z"/><path class="cls-5" d="M45.57,29.35a7.22,7.22,0,0,1,9.56-4.89,5.91,5.91,0,0,1,3,2.51,17.09,17.09,0,0,0-3.43-.76,10.51,10.51,0,0,0-3.13.16,11.78,11.78,0,0,0-3,1.07A23.82,23.82,0,0,0,45.57,29.35Z"/><circle cx="49.59" cy="35.62" r="3.72"/><circle class="cls-2" cx="50.6" cy="34.61" r="1.42"/><circle cx="23.9" cy="35.62" r="3.72"/><circle class="cls-2" cx="24.91" cy="34.61" r="1.42"/><path d="M10.7,37.74a8.18,8.18,0,0,1,3,.56,8.28,8.28,0,0,1,5,5.33,8.62,8.62,0,0,1,.22,1A2.83,2.83,0,0,1,18.73,46l-.2.42a2.92,2.92,0,0,1-1.84,1.41h0a1.57,1.57,0,0,1-.37.05,1.54,1.54,0,0,1-1.49-1.64,5.84,5.84,0,0,0-.44-2.49,4.67,4.67,0,0,0-2.16-2.37l-.45-.2a6,6,0,0,0-2.16-.42,4.83,4.83,0,0,0-2.08.45,5.22,5.22,0,0,0-2.46,2.2l0,0a3.55,3.55,0,0,0-.28.63l0,0a5.14,5.14,0,0,0,3.13,6.75,5.41,5.41,0,0,0,2,.36H37v3l0,0H10.7a8.27,8.27,0,0,1-7.92-5.87h0a8.28,8.28,0,0,1,4.57-10,5.77,5.77,0,0,1,.58-.22,2,2,0,0,1,.37-.13,8.37,8.37,0,0,1,2.4-.36m0-2.08a10.13,10.13,0,0,0-3,.45h0l0,0-.08,0-.39.13c-.24.09-.47.18-.68.28A10.34,10.34,0,0,0,.7,48.7v0L.79,49a10.37,10.37,0,0,0,9.91,7.34H39.09l0-2.1v-5.1H18.8a5,5,0,0,0,1.54-1.69l0-.07,0-.08.19-.42.05-.1,0-.1a4.89,4.89,0,0,0,.2-2.45A8.5,8.5,0,0,0,20.61,43a10.29,10.29,0,0,0-6.21-6.67,10.13,10.13,0,0,0-3.7-.7ZM6.84,44.53l0,0a3.18,3.18,0,0,1,1.48-1.33h0l0,0a3,3,0,0,1,1.21-.25,3.8,3.8,0,0,1,1.38.27l0,0,.19.08a2.61,2.61,0,0,1,1.22,1.32,3.69,3.69,0,0,1,.29,1.59,3.69,3.69,0,0,0,1,2.73,2.37,2.37,0,0,0,.28.27H9.84a3.21,3.21,0,0,1-1.21-.22,3.13,3.13,0,0,1-2.09-2.28A3,3,0,0,1,6.66,45v0l.06-.15.11-.26Z"/><path class="cls-1" d="M18.73,46l-.2.42a2.92,2.92,0,0,1-1.84,1.41h0a1.18,1.18,0,0,1-.37.05,1.54,1.54,0,0,1-1.49-1.64,5.77,5.77,0,0,0-.44-2.48,4.65,4.65,0,0,0-2.16-2.38l1.44-3.12a8.07,8.07,0,0,1,5.18,6.32A2.8,2.8,0,0,1,18.73,46Z"/><path class="cls-1" d="M7.35,38.46l-2.28,5,0,0a3.55,3.55,0,0,0-.28.63l0,0-2,4.28A8.27,8.27,0,0,1,7.35,38.46Z"/><path class="cls-1" d="M16.33,51.24l-1.4,3H10.7a8.19,8.19,0,0,1-3.93-1l1.11-2.42a5.41,5.41,0,0,0,2,.36Z"/><polygon class="cls-1" points="31.19 51.24 29.78 54.29 21.16 54.29 22.57 51.24 31.19 51.24"/><path class="cls-2" d="M13.66,38.3l-1.44,3.12-.45-.2a5.45,5.45,0,0,0-4.24,0,5.22,5.22,0,0,0-2.46,2.2l2.28-5a4.12,4.12,0,0,1,.58-.23,2.32,2.32,0,0,1,.37-.13A8.24,8.24,0,0,1,13.66,38.3Z"/><path class="cls-2" d="M7.88,50.88,6.77,53.3a8.26,8.26,0,0,1-4-4.88h0l2-4.28a5.14,5.14,0,0,0,3.13,6.75Z"/><polygon class="cls-2" points="22.57 51.24 21.16 54.29 14.93 54.29 16.33 51.24 22.57 51.24"/><path class="cls-2" d="M37,51.25v3l0,0H29.78l1.41-3H37Z"/><path class="cls-4" d="M38.77,61.55A9.65,9.65,0,0,1,47.54,46"/><path class="cls-5" d="M38.77,61.55a8.09,8.09,0,0,1-2.91-5.16A9.53,9.53,0,0,1,37,50.29a10.48,10.48,0,0,1,2-2.45,9.69,9.69,0,0,1,2.66-1.65,9.49,9.49,0,0,1,3-.65,8.16,8.16,0,0,1,2.93.48,16,16,0,0,0-2.73.63,12.16,12.16,0,0,0-2.38,1.14,13,13,0,0,0-2,1.62,11.62,11.62,0,0,0-1.49,2,10.47,10.47,0,0,0-1.33,4.84A12.31,12.31,0,0,0,38.77,61.55Z"/></svg>