<svg id="图层_1" data-name="图层 1" xmlns="http://www.w3.org/2000/svg" viewBox="0 0 96 96"><defs><style>.cls-1{fill:#ffcb55;}.cls-2{fill:#1c1c1c;}.cls-3{fill:#ff9855;}.cls-4{fill:#fff;}.cls-5{fill:none;stroke:#000;stroke-linecap:round;stroke-linejoin:round;stroke-width:2.4px;}</style></defs><title>让我康康</title><path class="cls-1" d="M58.37,82.62a68.61,68.61,0,0,1-9.65.67,67.24,67.24,0,0,1-34.85-9.44l-.44-.26-.24-.47a60.79,60.79,0,0,1-1.78-50.53l.22-.51.46-.3A66.8,66.8,0,0,1,48.72,11.22,66.81,66.81,0,0,1,85.36,21.78l.47.3.21.51a60.74,60.74,0,0,1-1.77,50.53l-.24.46-.44.27A63,63,0,0,1,72.83,79L65.68,90Z"/><path class="cls-2" d="M48.72,13A65.36,65.36,0,0,1,84.38,23.28a58.94,58.94,0,0,1-1.72,49,61.59,61.59,0,0,1-11,5.24l-6.26,9.57L59,80.71a67.84,67.84,0,0,1-10.28.78A65.62,65.62,0,0,1,14.8,72.31a59,59,0,0,1-1.73-49A65.35,65.35,0,0,1,48.72,13m0-3.6A68.61,68.61,0,0,0,11.11,20.27l-.93.6-.43,1a62.61,62.61,0,0,0,1.83,52l.47.93.89.54a69.14,69.14,0,0,0,35.78,9.69,72.49,72.49,0,0,0,9-.56l5.12,5.13L66,92.8l2.43-3.71L74,80.51a64.81,64.81,0,0,0,10.51-5.12l.88-.54.46-.92a62.51,62.51,0,0,0,1.83-52l-.42-1-.93-.6A68.65,68.65,0,0,0,48.72,9.42Z"/><path class="cls-3" d="M88.9,45.91a58.51,58.51,0,0,1-6.24,26.4,62.29,62.29,0,0,1-11,5.24l-6.26,9.56L59,80.71a67.84,67.84,0,0,1-10.28.78A65.62,65.62,0,0,1,14.8,72.31c12.17,3.27,38,8.69,56.57-.86a25.53,25.53,0,0,0,5.54-3.72c14.11-12.66,9-38,7.47-44.45A58.33,58.33,0,0,1,88.9,45.91Z"/><path d="M83.41,51.49a17.41,17.41,0,0,1-2.82,11.2,19.18,19.18,0,0,1-4,4.44A17.31,17.31,0,0,1,74,68.83c-.44.25-.92.45-1.37.68l-1.35.59a60.5,60.5,0,0,1-11.19,3.41,66.18,66.18,0,0,1-11.65,1.22,67.19,67.19,0,0,1-11.68-1A58,58,0,0,1,25.47,70.6a19,19,0,0,1-9.09-7.77,17.67,17.67,0,0,1-2.08-5.56,20.42,20.42,0,0,1-.25-5.78,20.31,20.31,0,0,0,3.8,10.35A17.87,17.87,0,0,0,26.46,68,68.34,68.34,0,0,0,37.3,70.41a67.58,67.58,0,0,0,11.1.72,67.36,67.36,0,0,0,11.07-1,71,71,0,0,0,10.82-2.69,26.87,26.87,0,0,0,2.54-1,21.19,21.19,0,0,0,2.33-1.29,17.75,17.75,0,0,0,4-3.58A18.69,18.69,0,0,0,83.41,51.49Z"/><path d="M41.83,48a6.61,6.61,0,1,1-6.6-6.61,7.32,7.32,0,0,1,1,.07A6.61,6.61,0,0,1,41.76,47,5.86,5.86,0,0,1,41.83,48Z"/><path class="cls-4" d="M38.28,48.38a3.47,3.47,0,0,1-2-6.32,6,6,0,0,1,4.82,4.83A3.44,3.44,0,0,1,38.28,48.38Z"/><path class="cls-2" d="M36.46,42.71a5.42,5.42,0,0,1,4,4,2.88,2.88,0,0,1-5.08-1.84,2.89,2.89,0,0,1,1.05-2.2m-.28-1.28A4.07,4.07,0,1,0,41.76,47a6.61,6.61,0,0,0-5.58-5.6Z"/><path d="M68.83,48a6.61,6.61,0,1,1-6.6-6.61,7.32,7.32,0,0,1,1,.07A6.61,6.61,0,0,1,68.76,47,5.86,5.86,0,0,1,68.83,48Z"/><path class="cls-4" d="M65.28,48.38a3.47,3.47,0,0,1-2-6.32,6,6,0,0,1,4.82,4.83A3.44,3.44,0,0,1,65.28,48.38Z"/><path class="cls-2" d="M63.46,42.71a5.42,5.42,0,0,1,4,4,2.88,2.88,0,0,1-5.08-1.84,2.89,2.89,0,0,1,1.05-2.2m-.28-1.28A4.07,4.07,0,1,0,68.76,47a6.61,6.61,0,0,0-5.58-5.6Z"/><line class="cls-5" x1="53.65" y1="40.24" x2="67.16" y2="32.44"/><line class="cls-5" x1="43.81" y1="40.24" x2="30.3" y2="32.44"/><path class="cls-1" d="M20.18,85.79l-.61,0a10.94,10.94,0,0,1-9.51-7.48A81.23,81.23,0,0,1,7.71,36.5a77.57,77.57,0,0,1,3.38-11.27,5.12,5.12,0,0,1,2.84-2.88,30.48,30.48,0,0,1,12-2.45l1,0a30.56,30.56,0,0,1,9.84,2,5.16,5.16,0,0,1,3.18,3.88,14.32,14.32,0,0,1,.24,2.69,14.55,14.55,0,0,1-1.43,6.27A5.1,5.1,0,0,1,36,37.33a17,17,0,0,1-5.9,1.19H29.7a17.33,17.33,0,0,1-5.37-.86l-1.69-.55-.57,1.68A48.11,48.11,0,0,0,28.28,82,11.35,11.35,0,0,1,20.18,85.79Z"/><path class="cls-2" d="M25.9,18.1v3.6h0l.94,0a28.69,28.69,0,0,1,9.25,1.86,3.33,3.33,0,0,1,2,2.51,12.58,12.58,0,0,1,.21,2.37A12.85,12.85,0,0,1,37.09,34a3.29,3.29,0,0,1-1.78,1.7A15.57,15.57,0,0,1,30,36.72H29.7A15.56,15.56,0,0,1,24.89,36L21.5,34.84l-1.14,3.38A49.84,49.84,0,0,0,25.94,81.7,9,9,0,0,1,20.18,84h-.5a9.15,9.15,0,0,1-7.91-6.24,79.52,79.52,0,0,1-2.3-40.86,75.11,75.11,0,0,1,3.3-11A3.37,3.37,0,0,1,14.63,24,29,29,0,0,1,25.9,21.7V18.1m0,0a32.56,32.56,0,0,0-12.67,2.59,7,7,0,0,0-3.82,3.9A77.57,77.57,0,0,0,6,36.12a83.11,83.11,0,0,0,2.4,42.75,12.69,12.69,0,0,0,11.1,8.7l.73,0c6.43,0,10.19-5.3,10.37-5.57a46.3,46.3,0,0,1-6.78-42.65,19.11,19.11,0,0,0,5.93,1h.4A19,19,0,0,0,36.62,39a6.93,6.93,0,0,0,3.73-3.51,16.55,16.55,0,0,0,1.6-7,15.73,15.73,0,0,0-.27-3,6.91,6.91,0,0,0-4.32-5.23A32.53,32.53,0,0,0,27,18.12l-1.05,0Z"/></svg>