<svg id="图层_1" data-name="图层 1" xmlns="http://www.w3.org/2000/svg" xmlns:xlink="http://www.w3.org/1999/xlink" viewBox="0 0 96 96"><defs><style>.cls-1{fill:#ffcb55;}.cls-2{fill:#1c1c1c;}.cls-3{fill:#ff9855;}.cls-4{fill:#f66;}.cls-5{fill:#ed2d2c;}.cls-6{fill:url(#未命名的渐变_41);}.cls-7{fill:url(#未命名的渐变_41-2);}.cls-8{fill:#ac0000;}</style><linearGradient id="未命名的渐变_41" x1="48" y1="61.5" x2="48" y2="32.22" gradientUnits="userSpaceOnUse"><stop offset="0" stop-color="#ee2d2c"/><stop offset="1" stop-color="#f45d5d"/></linearGradient><linearGradient id="未命名的渐变_41-2" x1="48.26" y1="92.97" x2="48.26" y2="60.05" xlink:href="#未命名的渐变_41"/></defs><title>如花</title><path class="cls-1" d="M57.64,82.83A68.61,68.61,0,0,1,48,83.5a67.24,67.24,0,0,1-34.85-9.44l-.44-.26-.24-.47A60.74,60.74,0,0,1,10.69,22.8l.21-.51.46-.31A66.9,66.9,0,0,1,48,11.43,66.94,66.94,0,0,1,84.64,22l.46.31.21.51a60.74,60.74,0,0,1-1.77,50.53l-.23.46-.44.27A62.68,62.68,0,0,1,72.1,79.24L65,90.17Z"/><path class="cls-2" d="M48,13.23A65.36,65.36,0,0,1,83.65,23.49a58.94,58.94,0,0,1-1.72,49,61.27,61.27,0,0,1-11,5.24l-6.26,9.57-6.38-6.41A68.07,68.07,0,0,1,48,81.7a65.62,65.62,0,0,1-33.92-9.18,58.94,58.94,0,0,1-1.72-49A65.29,65.29,0,0,1,48,13.23m0-3.6A68.61,68.61,0,0,0,10.38,20.48l-.93.6L9,22.1a62.51,62.51,0,0,0,1.83,52l.46.93.89.54A69.14,69.14,0,0,0,48,85.3a72.77,72.77,0,0,0,9-.56l5.11,5.13L65.24,93l2.43-3.71,5.62-8.58A65.65,65.65,0,0,0,83.8,75.6l.88-.54.46-.92A62.51,62.51,0,0,0,87,22.1l-.42-1-.93-.6A68.65,68.65,0,0,0,48,9.63Z"/><path class="cls-3" d="M88.17,46.12a58.51,58.51,0,0,1-6.24,26.4,62,62,0,0,1-11,5.24l-6.26,9.56-6.38-6.4A68.07,68.07,0,0,1,48,81.7a65.62,65.62,0,0,1-33.92-9.18c12.17,3.27,38,8.69,56.57-.86a25.53,25.53,0,0,0,5.54-3.72c14.11-12.66,8.95-38,7.47-44.45A58.33,58.33,0,0,1,88.17,46.12Z"/><circle cx="19.18" cy="69.91" r="2.26"/><path class="cls-4" d="M65.58,28C57.22,24.81,52,18.46,52.82,12.59c.46-3.22,3-7.85,7.34-8h.29a8.26,8.26,0,0,1,7,4.68,8.58,8.58,0,0,1,6.62-3.57,6.55,6.55,0,0,1,1.34.14c4.21.9,6,5.88,6,9.13C81.25,20.86,75,26.27,66.26,28.09l-.35.07Z"/><path class="cls-2" d="M60.45,5.74c2.9,0,5.86,2.47,6.79,6.22,1.37-3.2,4.2-5.11,6.84-5.11A5.68,5.68,0,0,1,75.17,7c3.6.77,5,5.22,5,7.94C80.06,20,74.46,25.17,66,26.91c-8-3.09-12.75-9.06-12-14.15.39-2.69,2.54-6.85,6.22-7h.23m0-2.4h-.34c-5.26.24-8,5.69-8.48,9.07-.93,6.43,4.63,13.31,13.52,16.73l.66.25.69-.14C75.83,27.33,82.44,21.45,82.57,15c.06-3.42-1.75-9.24-6.9-10.33a7.66,7.66,0,0,0-1.59-.17,9.42,9.42,0,0,0-6.46,2.79,9.12,9.12,0,0,0-7.17-3.9Z"/><path class="cls-5" d="M80.17,14.9c-.11,5.14-5.7,10.27-14.16,12-4.83-1.85-8.46-4.75-10.4-7.87a23.42,23.42,0,0,0,7.9,4.85C72,22.15,77.57,17,77.67,11.88a10.3,10.3,0,0,0-.93-4.28C79.19,9.11,80.21,12.61,80.17,14.9Z"/><path class="cls-4" d="M29.74,28.09c-8.78-1.82-15-7.23-15.11-13.17-.06-3.25,1.74-8.23,5.95-9.13a6.53,6.53,0,0,1,1.33-.14,8.59,8.59,0,0,1,6.63,3.57,8.24,8.24,0,0,1,7-4.68h.29c4.3.2,6.89,4.83,7.35,8.05C44,18.46,38.78,24.81,30.41,28l-.33.13Z"/><path class="cls-2" d="M35.54,5.74h.24c3.67.17,5.83,4.33,6.21,7,.74,5.09-4,11.06-12,14.15-8.44-1.74-14-6.87-14.15-12-.05-2.72,1.4-7.17,5-7.94a5.57,5.57,0,0,1,1.08-.11c2.64,0,5.48,1.91,6.85,5.11.93-3.75,3.89-6.22,6.78-6.22m0-2.4a9.11,9.11,0,0,0-7.16,3.9,9.43,9.43,0,0,0-6.47-2.79,7.57,7.57,0,0,0-1.58.17c-5.15,1.09-7,6.91-6.9,10.33.13,6.5,6.74,12.38,16.07,14.31l.69.14.65-.25c8.9-3.42,14.46-10.3,13.53-16.73C43.88,9,41.15,3.59,35.89,3.35Z"/><path class="cls-5" d="M42,12.78c.72,5.09-4,11-12,14.13-5.07-1.05-9.12-3.32-11.54-6.09A23.66,23.66,0,0,0,27,24.34c8.06-3.08,12.77-9,12-14.14a10.05,10.05,0,0,0-1.6-4.07C40.12,7.22,41.69,10.51,42,12.78Z"/><path class="cls-6" d="M17.72,61.27a16.56,16.56,0,0,0,6.53-4.35,20.28,20.28,0,0,0,4.62-8.63,3.3,3.3,0,0,0,.11-.45l0-.11c0-.12.06-.27.09-.4l0-.19c2.18-9.07,6.23-14.92,10.3-14.92a5.36,5.36,0,0,1,3.28,1.23A15.43,15.43,0,0,1,47,39.08L48,41.26l1.07-2.18a15.85,15.85,0,0,1,4.24-5.64,5.41,5.41,0,0,1,3.27-1.22c4.43,0,8.64,6.57,10.73,16.76v.11l0,.18a20,20,0,0,0,4.75,8,15.92,15.92,0,0,0,3.75,2.86c.38.21.76.41,1.16.59-2.23-.91-4.56-1.73-6.93-2.44-.84-.25-1.67-.48-2.51-.7-1.39-.36-2.83-.69-4.38-1A76.28,76.28,0,0,0,52.5,55.31c-1.41-.07-2.69-.1-3.94-.1-1.61,0-3.3,0-5,.17a72.88,72.88,0,0,0-10.77,1.49c-1.09.23-2.2.48-3.28.76s-2.42.67-3.59,1a73.76,73.76,0,0,0-7.56,2.84Zm60.4-.06.17.06h0Z"/><path d="M56.62,33.42c3.71,0,7.62,6.45,9.54,15.71v.14l.11.36a21.59,21.59,0,0,0,4.09,7.52c-.84-.25-1.63-.47-2.42-.68-1.43-.37-2.88-.7-4.46-1a77,77,0,0,0-10.93-1.35c-1.42-.07-2.72-.1-4-.1-1.64,0-3.35.06-5.08.17a73.16,73.16,0,0,0-10.93,1.51c-1.13.23-2.26.5-3.36.78s-2.44.67-3.64,1l-.31.1a21.63,21.63,0,0,0,4.78-9c.06-.19.1-.38.14-.55V48c0-.18.08-.35.11-.49v-.06l0-.07c2-8.38,5.68-14,9.13-14a4.21,4.21,0,0,1,2.57,1,14.52,14.52,0,0,1,3.87,5.2L48,44l2.15-4.37a14.66,14.66,0,0,1,3.87-5.21,4.31,4.31,0,0,1,2.56-1m0-2.4a6.6,6.6,0,0,0-4,1.46A17,17,0,0,0,48,38.55a16.89,16.89,0,0,0-4.59-6.06,6.55,6.55,0,0,0-4-1.47c-4.9,0-9.19,6.37-11.47,15.84,0,0,0,.1,0,.16s-.05.27-.1.44-.07.34-.13.54a19.13,19.13,0,0,1-4.35,8.11,15.12,15.12,0,0,1-3.84,3,16,16,0,0,1-7.45,2,29.67,29.67,0,0,1,6.31,1.67,76.25,76.25,0,0,1,7.89-3c1.16-.36,2.34-.69,3.53-1S31.94,58.27,33,58a70.86,70.86,0,0,1,10.59-1.46c1.63-.11,3.28-.17,4.93-.17,1.3,0,2.6,0,3.88.09A76.32,76.32,0,0,1,63,57.81c1.45.29,2.89.61,4.32,1,.83.21,1.65.44,2.46.68a72.63,72.63,0,0,1,8.44,3.08,30.63,30.63,0,0,1,5.7-1.44,16.07,16.07,0,0,1-7.44-2A14.85,14.85,0,0,1,73,56.48a18.75,18.75,0,0,1-4.45-7.57s0-.06,0-.09C66.4,38.28,61.86,31,56.62,31Z"/><path class="cls-7" d="M48,93a7.11,7.11,0,0,1-3.93-1.28c-3.08-2-5.79-6.35-7.63-12.17a31.17,31.17,0,0,0-9.36-13c-.61-.51-1.26-1-1.91-1.45a30.6,30.6,0,0,0-3.79-2.23c1.71-.68,3.45-1.31,5.21-1.86,1-.32,2.07-.62,3.12-.9,1,.34,1.93.63,2.85.9a58.36,58.36,0,0,0,10.69,2c1.64.16,3.42.24,5.27.24,1.41,0,2.83,0,4.2-.15a57.48,57.48,0,0,0,10.69-1.76c1.31-.34,2.63-.74,3.93-1.19.7.18,1.38.38,2.07.58,1.93.58,3.82,1.22,5.65,1.94A31.08,31.08,0,0,0,70.8,65c-.66.46-1.27.92-1.86,1.41A31.35,31.35,0,0,0,59.8,78.82l-.11.2v.13c-1.82,6-4.57,10.47-7.73,12.56A7.23,7.23,0,0,1,48,93Z"/><path d="M67.42,61.3l1.68.48c1,.31,2.05.64,3.06,1-.7.41-1.38.84-2,1.3s-1.33,1-1.92,1.45a32,32,0,0,0-9.5,12.84l-.21.42V79c-1.72,5.58-4.33,9.84-7.18,11.72A6,6,0,0,1,48,91.77a5.9,5.9,0,0,1-3.27-1.08c-2.85-1.88-5.39-6-7.14-11.53l0-.07,0-.06A32.37,32.37,0,0,0,27.9,65.58c-.66-.55-1.34-1.06-2-1.52s-1.07-.72-1.63-1.05c.9-.32,1.8-.63,2.71-.91s1.81-.55,2.73-.8c.89.3,1.73.56,2.57.8a58.91,58.91,0,0,0,10.88,2c1.69.17,3.51.25,5.4.25,1.44,0,2.88,0,4.29-.15a58.91,58.91,0,0,0,10.9-1.8c1.23-.32,2.46-.69,3.67-1.1m-.09-2.5c-1.37.48-2.77.91-4.19,1.28a56.27,56.27,0,0,1-10.46,1.73c-1.36.09-2.74.14-4.12.14-1.74,0-3.46-.07-5.17-.24a56.46,56.46,0,0,1-10.46-1.92c-1.06-.3-2.1-.63-3.13-1-1.19.31-2.37.64-3.53,1a76.25,76.25,0,0,0-7.89,3A28.92,28.92,0,0,1,24.53,66c.65.45,1.26.91,1.83,1.39a29.92,29.92,0,0,1,9,12.46c1.9,6,4.75,10.61,8.11,12.82a7.91,7.91,0,0,0,9.17,0c3.46-2.28,6.38-7.08,8.27-13.37,0,0,0,0,0,0a30,30,0,0,1,8.81-11.92q.84-.7,1.77-1.35a29.94,29.94,0,0,1,6.75-3.47,72.63,72.63,0,0,0-8.44-3.08c-.81-.24-1.63-.47-2.46-.68Z"/><path class="cls-8" d="M67.33,58.8c-1.37.48-2.77.91-4.19,1.28a56.27,56.27,0,0,1-10.46,1.73c-1.36.09-2.74.14-4.12.14-1.74,0-3.46-.07-5.17-.24a56.46,56.46,0,0,1-10.46-1.92c-1.06-.3-2.1-.63-3.13-1,1.06-.28,2.14-.53,3.24-.76a70.86,70.86,0,0,1,10.59-1.46c1.63-.11,3.28-.17,4.93-.17,1.3,0,2.6,0,3.88.09A76.32,76.32,0,0,1,63,57.81C64.46,58.1,65.9,58.42,67.33,58.8Z"/></svg>