<svg id="图层_1" data-name="图层 1" xmlns="http://www.w3.org/2000/svg" viewBox="0 0 96 96"><defs><style>.cls-1{fill:#ffcb55;}.cls-2{fill:#1c1c1c;}.cls-3{fill:#ff9855;}.cls-4{fill:#f66;}.cls-5{fill:#ed2d2c;}.cls-6,.cls-9{fill:#7be8f4;}.cls-7{fill:#fff;}.cls-8{fill:#f45d5d;}.cls-9{stroke:#1c1c1c;stroke-miterlimit:10;stroke-width:1.2px;}</style></defs><title>色</title><path class="cls-1" d="M57.64,82.46a68.61,68.61,0,0,1-9.65.67,67.27,67.27,0,0,1-34.85-9.44l-.44-.26L12.46,73a60.74,60.74,0,0,1-1.77-50.53l.21-.51.46-.31A66.9,66.9,0,0,1,48,11.06,66.94,66.94,0,0,1,84.64,21.61l.46.31.21.51A60.74,60.74,0,0,1,83.54,73l-.23.46-.45.27A63,63,0,0,1,72.1,78.87L65,89.8Z"/><path class="cls-2" d="M48,12.86A65.28,65.28,0,0,1,83.65,23.12a58.94,58.94,0,0,1-1.72,49,61.27,61.27,0,0,1-11,5.24L64.66,87l-6.38-6.41A68.07,68.07,0,0,1,48,81.33a65.62,65.62,0,0,1-33.92-9.18,58.94,58.94,0,0,1-1.72-49A65.21,65.21,0,0,1,48,12.86m0-3.6A68.61,68.61,0,0,0,10.38,20.11l-.93.6-.42,1a62.51,62.51,0,0,0,1.83,52l.46.93.89.53A69.05,69.05,0,0,0,48,84.93a70.88,70.88,0,0,0,9-.57l5.11,5.14,3.13,3.14,2.43-3.71,5.62-8.58A65.65,65.65,0,0,0,83.8,75.23l.88-.54.46-.92a62.51,62.51,0,0,0,1.83-52l-.42-1-.93-.6A68.65,68.65,0,0,0,48,9.26Z"/><path class="cls-3" d="M88.17,45.75a58.51,58.51,0,0,1-6.24,26.4,62,62,0,0,1-11,5.24L64.66,87l-6.38-6.4A68.07,68.07,0,0,1,48,81.33a65.62,65.62,0,0,1-33.92-9.18c12.17,3.27,38,8.69,56.57-.86a25.17,25.17,0,0,0,5.54-3.73c14.11-12.65,8.95-38,7.47-44.44A58.33,58.33,0,0,1,88.17,45.75Z"/><path class="cls-4" d="M35.68,52a16,16,0,0,1-4.43-.62,19.93,19.93,0,0,1-5-2.29,25.66,25.66,0,0,1-2.88-2.24,18.89,18.89,0,0,1-5.93-10.39,11.4,11.4,0,0,1,2.55-10,11.17,11.17,0,0,1,8.32-3.39,15.54,15.54,0,0,1,2.85.28,17.62,17.62,0,0,1,4.89,1.72A18,18,0,0,1,41,23.34a15.54,15.54,0,0,1,2.85-.28,11.13,11.13,0,0,1,8.31,3.39,11.4,11.4,0,0,1,2.56,10,18.85,18.85,0,0,1-5.94,10.39,19.68,19.68,0,0,1-2.89,2.25A20.64,20.64,0,0,1,35.68,52Z"/><path class="cls-2" d="M43.82,24.27a9.84,9.84,0,0,1,7.43,3c4.3,4.64,2.82,13-3.31,18.67a19.15,19.15,0,0,1-2.71,2.11,19.43,19.43,0,0,1-9.55,2.72,14.62,14.62,0,0,1-4.1-.57,18.74,18.74,0,0,1-4.65-2.15,23.38,23.38,0,0,1-2.71-2.11c-6.14-5.66-7.61-14-3.32-18.67a9.93,9.93,0,0,1,7.44-3,13.91,13.91,0,0,1,2.62.25,16.39,16.39,0,0,1,5.12,1.91,16.58,16.58,0,0,1,5.12-1.91,13.83,13.83,0,0,1,2.62-.25m0-2.4h0a17,17,0,0,0-3.07.29,18.73,18.73,0,0,0-4.67,1.56,18.34,18.34,0,0,0-4.67-1.56,17,17,0,0,0-3.07-.29,12.3,12.3,0,0,0-9.2,3.77,12.55,12.55,0,0,0-2.85,11,20,20,0,0,0,6.3,11.06A16.71,16.71,0,0,0,25.65,50l0,0a21,21,0,0,0,5.29,2.44,17.15,17.15,0,0,0,4.76.66A21.7,21.7,0,0,0,46.5,50.09a21.52,21.52,0,0,0,3.07-2.39,20.1,20.1,0,0,0,6.3-11.06,12.55,12.55,0,0,0-2.86-11,12.28,12.28,0,0,0-9.19-3.77Z"/><path class="cls-5" d="M47.94,45.94a19.15,19.15,0,0,1-2.71,2.11c-.54.34-6.79,4.13-13.65,2.15a18.56,18.56,0,0,1-4.65-2.15,23.73,23.73,0,0,1-2.71-2.11,20.14,20.14,0,0,1-2.81-3.23c1,.79,1.85,1.37,1.85,1.37a18.56,18.56,0,0,0,4.65,2.15c6.85,2,13.11-1.81,13.65-2.15A20.83,20.83,0,0,0,44.27,42c5.22-4.83,7.07-11.61,4.85-16.38a8.63,8.63,0,0,1,2.13,1.68C55.55,31.91,54.07,40.28,47.94,45.94Z"/><path class="cls-4" d="M67.29,46.35A19.27,19.27,0,0,1,65,46.21l-.35,0-.27-.23c-4.57-3.79-6.51-8.93-4.7-12.5.77-1.52,2.84-3.77,5.41-3.77a4.46,4.46,0,0,1,1.2.17A5.5,5.5,0,0,1,70,33.89a6.13,6.13,0,0,1,3-.79,4.9,4.9,0,0,1,2.49.66c2.72,1.61,2.62,5.31,1.92,7.27-1.16,3.23-5.11,5.32-10.06,5.32Z"/><path class="cls-2" d="M65.13,30.87A3.26,3.26,0,0,1,66,31c1.83.53,3.19,2.68,3,5.21a5.42,5.42,0,0,1,4-1.89,3.67,3.67,0,0,1,1.87.48c2,1.2,2,4.2,1.41,5.83-1,2.7-4.44,4.53-8.93,4.53A19.41,19.41,0,0,1,65.18,45c-4.24-3.52-5.88-8.1-4.39-11,.69-1.35,2.41-3.11,4.34-3.11m0-2.4c-2.91,0-5.4,2.3-6.48,4.43-2.06,4.07,0,9.81,5,14l.55.45.69.09a19.7,19.7,0,0,0,2.4.15c5.47,0,9.86-2.4,11.19-6.12,1-2.9.54-6.94-2.44-8.7a6.06,6.06,0,0,0-3.1-.82,7.06,7.06,0,0,0-2.27.37,6.44,6.44,0,0,0-4-3.59,5.66,5.66,0,0,0-1.53-.22Z"/><path class="cls-5" d="M76.22,40.62c-1.11,3.1-5.55,5.07-11,4.4a13.45,13.45,0,0,1-4.7-6.9,15.19,15.19,0,0,0,3.8,4.56c5.49.67,9.93-1.29,11-4.4a6.58,6.58,0,0,0,.32-2.78A5.65,5.65,0,0,1,76.22,40.62Z"/><path class="cls-6" d="M48,73.85a42,42,0,0,1-17.93-4,36.27,36.27,0,0,1-9.34-6.34h0l-.1-.1a3.32,3.32,0,0,1-.81-3.7A3.42,3.42,0,0,1,23,57.56H73a3.42,3.42,0,0,1,3.19,2.17,3.32,3.32,0,0,1-.81,3.7l-.08.07a36.2,36.2,0,0,1-9.38,6.38A42,42,0,0,1,48,73.85Z"/><path class="cls-2" d="M73,58.46a2.52,2.52,0,0,1,1.76,4.32l0,0a34.79,34.79,0,0,1-9.18,6.25,41.49,41.49,0,0,1-35.08,0,34.79,34.79,0,0,1-9.18-6.25l-.05,0A2.52,2.52,0,0,1,23,58.46H73m0-1.8H23a4.32,4.32,0,0,0-3,7.43l.2.18h0a36.9,36.9,0,0,0,9.47,6.41,43.36,43.36,0,0,0,36.64,0,37.13,37.13,0,0,0,9.57-6.5l0,0,.08-.06a4.32,4.32,0,0,0-3-7.43Z"/><path class="cls-7" d="M74.77,62.77l0,0H21.28l-.05,0A2.51,2.51,0,0,1,23,58.46H73A2.51,2.51,0,0,1,74.77,62.77Z"/><path class="cls-5" d="M74.72,62.81a34.79,34.79,0,0,1-9.18,6.25,41.39,41.39,0,0,0-35.08,0,34.79,34.79,0,0,1-9.18-6.25Z"/><path class="cls-8" d="M65.54,69.06a41.49,41.49,0,0,1-35.08,0,41.39,41.39,0,0,1,35.08,0Z"/><path class="cls-9" d="M48,73c.29-2.63,1.09-3.48,1.76-3.77,1.46-.62,3,1.11,4.83.32,1.1-.47.92-1.21,2-1.52,1.62-.48,2.35,1.23,4.35,1,1.66-.15,2.27-1.43,3.49-1a2.23,2.23,0,0,1,1.15,1c1,1.75-.61,3.51-1,6-.64,4.6,3.87,6.51,2.68,10.48,0,.13-.76,2.48-2.32,2.74-1.37.22-3-1.23-3.56-2.81-.84-2.3.94-3.72.52-6.83a8.31,8.31,0,0,0-1.39-3.55,2.44,2.44,0,0,1-1,2.58,2.2,2.2,0,0,1-2.85-.25,2.12,2.12,0,0,1,0-2.45,2.79,2.79,0,0,1-1.54-1.2,2.73,2.73,0,0,1-.35-1.36c-1,.17-2.11.31-3.27.41S49.09,73,48,73Z"/></svg>