<svg id="图层_1" data-name="图层 1" xmlns="http://www.w3.org/2000/svg" viewBox="0 0 96 96"><defs><style>.cls-1{fill:#fc5;}.cls-2{fill:#1c1c1c;}.cls-3{fill:#ff9855;}</style></defs><title>手掌</title><path class="cls-1" d="M48.73,86a21.73,21.73,0,0,1-4.25-.43,21,21,0,0,1-11.65-6.73h0l-.31-.37-.28-.34L18,61.24a7.8,7.8,0,0,1-1.81-5,7.71,7.71,0,0,1,13.61-5l2.93,3.48a12.94,12.94,0,0,0,1.65,1.7,23.27,23.27,0,0,0-.54-5.8l-4.4-24.78A6.77,6.77,0,0,1,35,18.07a7,7,0,0,1,1.2-.11,6.77,6.77,0,0,1,6.66,5.59l.63,3.53.17-10a7.13,7.13,0,0,1,7.09-7h.12a7.13,7.13,0,0,1,7,7.09L57.59,29l1-4.39a6.7,6.7,0,0,1,6.57-5.27,7.12,7.12,0,0,1,1.44.15,6.72,6.72,0,0,1,5.14,8.05L69.9,35.78a6.21,6.21,0,0,1,3.6-1.14,6.26,6.26,0,0,1,5.87,8.45L69.14,70.5A21.28,21.28,0,0,1,48.73,86Z"/><path class="cls-2" d="M50.71,11.92h.09A5.28,5.28,0,0,1,56,17.21v.09l-.51,29.24h0L60.33,25a5,5,0,0,1,4.82-3.86,5,5,0,0,1,1.08.11A4.94,4.94,0,0,1,70,27.16L64.21,53l5.12-13.7a4.43,4.43,0,0,1,4.17-2.89,4.25,4.25,0,0,1,1.56.28,4.44,4.44,0,0,1,2.62,5.74L67.42,69.94A19.44,19.44,0,0,1,48.73,84.15,19.51,19.51,0,0,1,34,77.34a.2.2,0,0,1-.06-.07l-.28-.34L19.42,60.08a5.91,5.91,0,1,1,9-7.6L31.39,56c2,2.36,3,2.77,3.59,2.77a.88.88,0,0,0,.33-.06c1.74-.71.57-7.11.34-8.3l-4.4-24.76a5,5,0,0,1,4-5.77,5.24,5.24,0,0,1,.88-.08,5,5,0,0,1,4.89,4.11l3.88,21.82.49-28.57a5.3,5.3,0,0,1,5.29-5.2m0-3.6a8.94,8.94,0,0,0-8.89,8.73l0,1.23a8.58,8.58,0,0,0-14.09,8L32.11,51a2.74,2.74,0,0,0,0,.28l-.95-1.12a9.5,9.5,0,0,0-16.78,6.12,9.55,9.55,0,0,0,2.23,6.11L30.84,79.23l.26.32.12.14.06.06.06.06a22.71,22.71,0,0,0,12.78,7.47A23,23,0,0,0,70.85,71.06l10.2-27.34a8.05,8.05,0,0,0-4.73-10.38,8.09,8.09,0,0,0-2.82-.5,8.32,8.32,0,0,0-1.12.07l1.11-5A8.53,8.53,0,0,0,67,17.75H67a8.63,8.63,0,0,0-1.81-.19,8.45,8.45,0,0,0-5.59,2.07l0-2.26v-.15a8.93,8.93,0,0,0-8.74-8.89Z"/><path class="cls-3" d="M77.68,42.45,67.43,69.94A19.43,19.43,0,0,1,44.84,83.75,19.23,19.23,0,0,1,34,77.33l-.07-.06,0,0a19.39,19.39,0,0,0,31.23-9.61L75.35,40.13a4.42,4.42,0,0,0-.1-3.32A4.42,4.42,0,0,1,77.68,42.45Z"/></svg>