<svg id="图层_1" data-name="图层 1" xmlns="http://www.w3.org/2000/svg" viewBox="0 0 96 96"><defs><style>.cls-1{fill:#ffcb55;}.cls-2{fill:#1c1c1c;}.cls-3{fill:#ff9855;}.cls-4,.cls-5,.cls-7{fill:none;}.cls-4{stroke:#1c1c1c;}.cls-4,.cls-5,.cls-6,.cls-7{stroke-linecap:round;stroke-linejoin:round;}.cls-4,.cls-5{stroke-width:3.6px;}.cls-5,.cls-6,.cls-7{stroke:#000;}.cls-6{fill:#fff;}.cls-6,.cls-7{stroke-width:2.4px;}</style></defs><title>一本正经</title><path class="cls-1" d="M57.64,82.71a68.61,68.61,0,0,1-9.65.67,67.27,67.27,0,0,1-34.85-9.44l-.44-.26-.24-.47a60.74,60.74,0,0,1-1.77-50.53l.21-.51.46-.31A66.9,66.9,0,0,1,48,11.31,66.94,66.94,0,0,1,84.64,21.86l.46.31.21.51a60.74,60.74,0,0,1-1.77,50.53l-.23.46-.45.27A63,63,0,0,1,72.1,79.12L65,90.05Z"/><path class="cls-2" d="M48,13.11A65.36,65.36,0,0,1,83.65,23.37a58.94,58.94,0,0,1-1.72,49,61.27,61.27,0,0,1-11,5.24l-6.26,9.57L58.28,80.8A68.07,68.07,0,0,1,48,81.58,65.62,65.62,0,0,1,14.07,72.4a58.94,58.94,0,0,1-1.72-49A65.29,65.29,0,0,1,48,13.11m0-3.6A68.61,68.61,0,0,0,10.38,20.36l-.93.6L9,22a62.51,62.51,0,0,0,1.83,52l.46.93.89.53A69.05,69.05,0,0,0,48,85.18a72.77,72.77,0,0,0,9-.56l5.11,5.13,3.13,3.14,2.43-3.71,5.62-8.58A65.65,65.65,0,0,0,83.8,75.48l.88-.54.46-.92A62.51,62.51,0,0,0,87,22l-.42-1-.93-.6A68.65,68.65,0,0,0,48,9.51Z"/><path class="cls-3" d="M88.17,46a58.51,58.51,0,0,1-6.24,26.4,62,62,0,0,1-11,5.24L64.66,87.2l-6.38-6.4A68.07,68.07,0,0,1,48,81.58,65.62,65.62,0,0,1,14.07,72.4c12.17,3.27,38,8.69,56.57-.86a25.17,25.17,0,0,0,5.54-3.73c14.11-12.65,8.95-38,7.47-44.44A58.33,58.33,0,0,1,88.17,46Z"/><path class="cls-4" d="M79.08,64.11a125.91,125.91,0,0,1-34.89,4.75A126.32,126.32,0,0,1,9.24,64.5"/><polyline class="cls-5" points="72.71 24.61 65.47 28.79 59.87 32.03 42.4 42.11 42.39 42.12 41.14 42.84"/><path class="cls-6" d="M71.88,41a14.77,14.77,0,0,1-29.49,1.14h0l.41-.24L59.87,32l5.6-3.24A14.78,14.78,0,0,1,71.88,41Z"/><polyline class="cls-7" points="42.39 42.12 42.4 42.11 42.81 41.87"/><path d="M64.44,41a11,11,0,0,1-22,1.13L59.87,32A11,11,0,0,1,64.44,41Z"/><polyline class="cls-5" points="32.74 44.76 31.84 44.24 31.83 44.23 19.19 36.94 15.14 34.6 9.9 31.57"/><path class="cls-6" d="M31.84,44.23l-1.15-.66-11.5-6.63L15.13,34.6a10.69,10.69,0,1,0,16.71,9.64h0"/><path d="M11.83,41.07a8,8,0,0,0,16,.82L15.14,34.6A8,8,0,0,0,11.83,41.07Z"/></svg>