<svg id="图层_1" data-name="图层 1" xmlns="http://www.w3.org/2000/svg" viewBox="0 0 96 96"><defs><style>.cls-1{fill:#333;}.cls-2{fill:#1c1c1c;}.cls-3{fill:#ffcb55;}.cls-4{fill:#ff9855;}.cls-5,.cls-7{fill:#fff;stroke:#1c1c1c;stroke-miterlimit:10;}.cls-5{stroke-width:2.25px;}.cls-6{fill:#f59f50;}.cls-7{stroke-width:1.13px;}</style></defs><title>专业团队</title><path class="cls-1" d="M12.07,38.79a23.87,23.87,0,0,0-.14-2.8A23.19,23.19,0,0,0,10,29l-.45-1h0a21.78,21.78,0,0,0-1.18-2.09c1-4,15.9-9.24,39.67-9.24s38.67,5.24,39.67,9.23A24.21,24.21,0,0,0,84.07,36a23.71,23.71,0,0,0-.14,2.81A203.27,203.27,0,0,0,49.19,36H46.82A203.22,203.22,0,0,0,12.07,38.79Z"/><path class="cls-2" d="M48,18.37c10.3,0,20.07,1.06,27.51,3,6.68,1.71,9.36,3.6,10.21,4.51a23.81,23.81,0,0,0-1.26,2.46,24.69,24.69,0,0,0-2.07,7.46c0,.33-.07.67-.09,1a214,214,0,0,0-33.12-2.49H46.8a213.69,213.69,0,0,0-33.1,2.49l-.09-1a25.12,25.12,0,0,0-2.07-7.48l-.91-2h-.1l-.25-.44c.85-.93,3.53-2.82,10.21-4.53,7.44-1.92,17.21-3,27.51-3M48,15C25.13,15,6.58,20.08,6.58,26.33A22.9,22.9,0,0,1,8.44,29.7h0a22.19,22.19,0,0,1,1.79,6.47,21.6,21.6,0,0,1,0,4.69C19.5,39,32.44,37.74,46.82,37.67h2.36c14.38.07,27.32,1.28,36.56,3.19a21,21,0,0,1,0-4.69,22.3,22.3,0,0,1,3.67-9.84C89.42,20.08,70.87,15,48,15Z"/><path d="M48,54.29c-30.42,0-46.34-5.6-46.34-8.6,0-1,2.5-3.34,12-5.46,8.74-2,20.56-3.08,33.31-3.15h2.17c12.74.07,24.56,1.19,33.3,3.15,9.45,2.12,12,4.5,12,5.46C94.34,48.69,78.42,54.29,48,54.29Z"/><path d="M49.08,38.75c12.63.06,24.33,1.16,33,3.11,6.5,1.45,9.39,3,10.36,3.83-1.12.94-4.69,2.8-13.12,4.41A175.45,175.45,0,0,1,48,52.63,175.45,175.45,0,0,1,16.73,50.1c-8.43-1.61-12-3.47-13.12-4.41,1-.82,3.86-2.38,10.37-3.84,8.61-1.94,20.32-3,32.93-3.1h2.17m0-3.33H46.91c-13.24.07-25.15,1.27-33.66,3.19C5,40.45,0,43,0,45.69,0,51.36,21.49,56,48,56s48-4.6,48-10.27c0-2.74-5-5.24-13.25-7.08-8.51-1.92-20.42-3.12-33.66-3.19Z"/><path class="cls-3" d="M57.22,82.78a59.75,59.75,0,0,1-8.4.59,58.23,58.23,0,0,1-30.21-8.19L18.24,75l-.2-.39A52.37,52.37,0,0,1,12.47,51c0-1,0-1.9.07-2.78L12.61,47l1.14-.22c8.86-1.75,20.63-2.74,33.14-2.8h2.19a187.72,187.72,0,0,1,32.81,2.72l3.19.64,0,1.18a52.42,52.42,0,0,1-1.8,16.33,51.87,51.87,0,0,1-3.72,9.68l-.19.39-.37.22a52.68,52.68,0,0,1-6,3.13c-1.07.49-2.2,1-3.36,1.38l-6.17,9.43Z"/><path class="cls-2" d="M49.08,45.52a186.23,186.23,0,0,1,32.52,2.7l1.25.25.78.16A50.93,50.93,0,0,1,78.27,73.9a52.48,52.48,0,0,1-5.82,3c-1.22.55-2.46,1-3.73,1.51l-5.43,8.3-5.54-5.56a59.38,59.38,0,0,1-8.93.67,56.89,56.89,0,0,1-29.43-8,50.17,50.17,0,0,1-4.24-12A51.24,51.24,0,0,1,14,51c0-.91,0-1.8.07-2.7A184.67,184.67,0,0,1,46.9,45.52h2.18m0-3H46.9c-12.62.06-24.49,1.06-33.44,2.82l-2.28.45L11,48.12C11,49,11,50,11,51A53.88,53.88,0,0,0,16.7,75.25l.39.77.74.45a59.87,59.87,0,0,0,31,8.4,61.89,61.89,0,0,0,7.86-.5l4.48,4.5,2.61,2.62,2-3.1,4.89-7.47c1-.39,2-.81,3-1.24a54,54,0,0,0,6.15-3.22l.73-.44.38-.77a53.72,53.72,0,0,0,5.68-26.76l-.1-2.35-2.31-.46-.52-.11-.26,0-1.26-.25A188.9,188.9,0,0,0,49.1,42.52Z"/><path class="cls-4" d="M81.88,64.49a50.57,50.57,0,0,1-3.61,9.41,52.48,52.48,0,0,1-5.82,3c-1.22.54-2.46,1-3.73,1.5h0l-5.43,8.3-5.54-5.56a59.38,59.38,0,0,1-8.93.67,56.89,56.89,0,0,1-29.43-8c10.56,2.83,33,7.54,49.08-.74a22,22,0,0,0,4.81-3.24c6.23-5.59,8.12-14,8.32-21.7l1.25.25.78.16A50.75,50.75,0,0,1,81.88,64.49Z"/><ellipse class="cls-5" cx="73.79" cy="52.25" rx="13.23" ry="8.91"/><path d="M50.19,66.83c.45-.32.91-.6,1.37-.87s.94-.51,1.41-.75l-.25.14a8.24,8.24,0,0,1,2.66-2,8,8,0,0,1,3.32-.77,7.82,7.82,0,0,1,6,2.65l-.17-.1c.39.22.75.49,1.12.73s.74.52,1.09.82c-.46,0-.91-.09-1.35-.15s-.89-.15-1.32-.25l-.16-.1a10.08,10.08,0,0,0-5.18-1.36,10.51,10.51,0,0,0-5.09,1.59l-.23.14h0c-.53.08-1,.15-1.59.2S50.74,66.83,50.19,66.83Z"/><path class="cls-6" d="M53.19,69.68a6.46,6.46,0,0,1,2.41-2,7.25,7.25,0,0,1,3.11-.77,6.88,6.88,0,0,1,5.6,2.56,14.13,14.13,0,0,0-2.76-1.09,10,10,0,0,0-2.82-.35A12.07,12.07,0,0,0,53.19,69.68Z"/><rect class="cls-7" x="8.69" y="49.67" width="25.23" height="3.06" rx="1.53" ry="1.53"/><ellipse class="cls-5" cx="45.42" cy="52.25" rx="15.14" ry="10.2"/></svg>