<svg id="图层_1" data-name="图层 1" xmlns="http://www.w3.org/2000/svg" viewBox="0 0 96 96"><defs><style>.cls-1{fill:#444;}.cls-1,.cls-4{stroke:#1c1c1c;stroke-width:3.6px;}.cls-1,.cls-7{stroke-linecap:round;stroke-linejoin:round;}.cls-2{fill:#f1f1f1;}.cls-3{fill:#333;}.cls-4{fill:none;stroke-miterlimit:10;}.cls-5{fill:#fff;}.cls-5,.cls-6{fill-rule:evenodd;}.cls-7,.cls-8{fill:#ee2d2c;}.cls-7{stroke:#000;stroke-width:2.4px;}</style></defs><title>二哈</title><path class="cls-1" d="M9.88,26.34A40.14,40.14,0,0,1,20.06,13a39.06,39.06,0,0,1,7.2-4.87,14,14,0,0,1,8.14,8.36A69.44,69.44,0,0,0,9.88,26.34Z"/><path class="cls-1" d="M49,15.41A29.58,29.58,0,0,1,59.9,2.05,39.12,39.12,0,0,1,78.53,13.46a38.59,38.59,0,0,1,7.63,12.88A70.29,70.29,0,0,0,49,15.41Z"/><path class="cls-2" d="M23,18.65a13.58,13.58,0,0,1,4.29-5.88,8.84,8.84,0,0,1,2.09,1.44,9.26,9.26,0,0,1,1.62,2c-1.27.31-2.59.66-4,1.08S24.23,18.19,23,18.65Z"/><path class="cls-2" d="M55.13,14.55a14,14,0,0,1,8.09-7.43,16.54,16.54,0,0,1,7.31,5.8A16.07,16.07,0,0,1,73,18.66a84.81,84.81,0,0,0-17.91-4.11Z"/><path class="cls-3" d="M91,50.57a62.28,62.28,0,0,1-6.71,28.29c-1.14.68-2.3,1.32-3.48,1.94a37,37,0,0,0,2.61-39.24A32.61,32.61,0,0,0,58.89,24.38a31.24,31.24,0,0,0-3.76-.24,26.15,26.15,0,0,0-2.68.13,20.07,20.07,0,0,0-2.33,2.94A20.47,20.47,0,0,0,46.93,37a1.27,1.27,0,0,1-1.12,1.21h0A1.28,1.28,0,0,1,44.38,37c-.26-3.67-1.11-6.37-2.13-6.37s-1.86,2.7-2.12,6.37a1.27,1.27,0,0,1-1.41,1.17h0A1.27,1.27,0,0,1,37.57,37a20.88,20.88,0,0,0-1.42-6.32,20.13,20.13,0,0,0-3.85-6.14,26.29,26.29,0,0,0-8.37,3.39h0C15.61,33.06,9.62,42.73,8.31,54.17a40.15,40.15,0,0,0,5.82,26c-.8-.43-1.6-.89-2.37-1.36a62.13,62.13,0,0,1-6.71-28v-.28A63,63,0,0,1,9.88,26.34a64.69,64.69,0,0,1,14.25-6.93A72.22,72.22,0,0,1,48,15.4,70.25,70.25,0,0,1,86.16,26.34,63.57,63.57,0,0,1,91,50.57Z"/><path class="cls-2" d="M87.8,59.13a36.35,36.35,0,0,1-7,21.67,70.1,70.1,0,0,1-27.23,7.61h0c-1.81.14-3.65.21-5.5.21a72.28,72.28,0,0,1-11.77-1h0a68.33,68.33,0,0,1-22.1-7.49h0a40.15,40.15,0,0,1-5.82-26c1.31-11.44,7.3-21.11,15.61-26.26h0a26.29,26.29,0,0,1,8.37-3.39,20.13,20.13,0,0,1,3.85,6.14A20.88,20.88,0,0,1,37.57,37a1.27,1.27,0,0,0,1.11,1.21h0A1.27,1.27,0,0,0,40.13,37c.26-3.67,1.11-6.37,2.12-6.37s1.87,2.7,2.13,6.37a1.28,1.28,0,0,0,1.41,1.18h0A1.27,1.27,0,0,0,46.93,37a20.47,20.47,0,0,1,3.19-9.77,20.07,20.07,0,0,1,2.33-2.94,26.15,26.15,0,0,1,2.68-.13,31.24,31.24,0,0,1,3.76.24A32.61,32.61,0,0,1,83.37,41.56,36.55,36.55,0,0,1,87.8,59.13Z"/><path class="cls-4" d="M91,50.57a62.28,62.28,0,0,1-6.71,28.29c-1.14.68-2.3,1.32-3.48,1.94a70.1,70.1,0,0,1-27.23,7.61h0c-1.81.14-3.65.21-5.5.21a72.28,72.28,0,0,1-11.77-1h0a68.33,68.33,0,0,1-22.1-7.49h0c-.8-.43-1.6-.89-2.37-1.36a62.13,62.13,0,0,1-6.71-28v-.28A63,63,0,0,1,9.88,26.34a64.69,64.69,0,0,1,14.25-6.93A72.22,72.22,0,0,1,48,15.4,70.25,70.25,0,0,1,86.16,26.34,63.57,63.57,0,0,1,91,50.57Z"/><path class="cls-5" d="M25.24,54.09c-4.31,0-7.82-4.84-7.82-10.79s3.51-10.79,7.82-10.79,7.82,4.84,7.82,10.79S29.55,54.09,25.24,54.09Z"/><path d="M25.24,33.71c3.59,0,6.62,4.39,6.62,9.59s-3,9.59-6.62,9.59-6.62-4.39-6.62-9.59,3-9.59,6.62-9.59m0-2.4c-5,0-9,5.36-9,12s4,12,9,12,9-5.37,9-12-4-12-9-12Z"/><path class="cls-5" d="M60.41,54.06c-4.93,0-9.27-3.84-10.33-9.13-1.21-6,2.29-11.84,7.79-12.94a9.41,9.41,0,0,1,1.84-.18c4.92,0,9.27,3.84,10.33,9.12,1.21,6-2.29,11.84-7.79,12.94A8.84,8.84,0,0,1,60.41,54.06Z"/><path d="M59.71,33c4.35,0,8.2,3.43,9.15,8.16,1.08,5.38-2,10.56-6.84,11.53a8.7,8.7,0,0,1-1.61.16c-4.36,0-8.2-3.43-9.15-8.16-1.08-5.39,2-10.56,6.84-11.53A7.92,7.92,0,0,1,59.71,33m0-2.4a11.35,11.35,0,0,0-2.08.2c-6.16,1.24-10.07,7.67-8.73,14.36C50.09,51.11,55,55.26,60.41,55.26a10.56,10.56,0,0,0,2.08-.21c6.16-1.23,10.06-7.66,8.72-14.35C70,34.76,65.1,30.61,59.71,30.61Z"/><path class="cls-6" d="M23.77,40.44a4.81,4.81,0,0,1-5.41-4.08,4,4,0,0,1-.09-.68c1.64-2.64,4.1-4.33,6.87-4.37a5.35,5.35,0,0,1,2,3.28A4.81,4.81,0,0,1,23.77,40.44Z"/><path class="cls-6" d="M57.31,41.16c-2.73.55-5.47-1.56-6.09-4.71A5.92,5.92,0,0,1,51.1,35a10.82,10.82,0,0,1,6.53-4.2c.39-.08.77-.12,1.15-.16a6.2,6.2,0,0,1,2.36,3.81C61.77,37.61,60.06,40.61,57.31,41.16Z"/><path class="cls-6" d="M57.31,41.16c-2.73.55-5.47-1.56-6.09-4.71A5.92,5.92,0,0,1,51.1,35a10.82,10.82,0,0,1,6.53-4.2c.39-.08.77-.12,1.15-.16a6.2,6.2,0,0,1,2.36,3.81C61.77,37.61,60.06,40.61,57.31,41.16Z"/><path class="cls-6" d="M23.77,40.44a4.81,4.81,0,0,1-5.41-4.08,4,4,0,0,1-.09-.68c1.64-2.64,4.1-4.33,6.87-4.37a5.35,5.35,0,0,1,2,3.28A4.81,4.81,0,0,1,23.77,40.44Z"/><path class="cls-3" d="M34.14,60a2.7,2.7,0,0,1-.06-4,10.87,10.87,0,0,1,5.72-2.77,11,11,0,0,1,8,2.05,2.68,2.68,0,0,1,.29,4.12l-5.21,5a2.69,2.69,0,0,1-3.62.09Z"/><path class="cls-7" d="M41,64c0,1,.13,2.17.29,3.36a35.41,35.41,0,0,0,1.17,5.34"/><path class="cls-3" d="M47.87,81.41a57.84,57.84,0,0,1-12.33-1.33,12.21,12.21,0,0,1-7.74-5.59c-.56-.92-1.12-1.86-1.67-2.83s-1-1.83-1.51-2.75a61,61,0,0,0,49.15-1.17c-.29,1-.6,2-.91,3l0,.11a12.25,12.25,0,0,1-8.09,8A57.38,57.38,0,0,1,47.87,81.41Z"/><path d="M70.9,70.94a10.49,10.49,0,0,1-6.7,6.23,55.5,55.5,0,0,1-16.33,2.44,56,56,0,0,1-11.94-1.28,10.5,10.5,0,0,1-6.6-4.78c-.26-.42-.52-.85-.77-1.28A62.86,62.86,0,0,0,70.9,70.94m5.65-6.65a58.77,58.77,0,0,1-28.68,7.42,58.93,58.93,0,0,1-27.15-6.59c1.12,2.39,2.39,4.88,3.84,7.43.56,1,1.13,2,1.7,2.88a14,14,0,0,0,8.9,6.41,59.53,59.53,0,0,0,30.1-1.23,14.08,14.08,0,0,0,9.29-9.23l0-.07q1.14-3.61,2-7Z"/><path class="cls-8" d="M66.75,94.8l-.42,0a6.07,6.07,0,0,1-4.9-3.53,44.59,44.59,0,0,0-8-11.44,44.26,44.26,0,0,0-8.66-7c1,0,2,.08,3.05.08l2,0a60.62,60.62,0,0,0,12.07-1.61c8.32,4.82,13.22,12,11.69,17.33-.65,2.27-2.84,5.78-6.2,6.16A4.4,4.4,0,0,1,66.75,94.8Z"/><path d="M61.69,72.55c8.56,5.09,11.89,11.69,10.73,15.72-.54,1.88-2.43,5-5.19,5.3a3.91,3.91,0,0,1-.49,0h-.33a4.89,4.89,0,0,1-3.9-2.86A45.5,45.5,0,0,0,54.32,79,46.33,46.33,0,0,0,48.8,74.1l1.05,0a62.93,62.93,0,0,0,11.84-1.53M62.07,70a59.91,59.91,0,0,1-12.3,1.69l-1.91,0A58.51,58.51,0,0,1,38.73,71,43.18,43.18,0,0,1,60.35,91.78,7.27,7.27,0,0,0,66.23,96l.51,0a6.78,6.78,0,0,0,.77,0c4.13-.47,6.54-4.67,7.22-7C76.39,83.15,71.46,75.27,62.07,70Z"/><path class="cls-8" d="M53.19,72.77a26.15,26.15,0,0,1,5.45,2.71,27,27,0,0,1,8.58,9.16"/><path d="M53.59,71.64A26.75,26.75,0,0,1,61.65,77a27.36,27.36,0,0,1,5.57,7.65,27,27,0,0,0-6.35-6.74,25.21,25.21,0,0,0-8.09-4A1.2,1.2,0,0,1,52,72.41a1.21,1.21,0,0,1,1.49-.83l.14,0Z"/></svg>