<svg id="图层_1" data-name="图层 1" xmlns="http://www.w3.org/2000/svg" viewBox="0 0 96 96"><defs><style>.cls-1{fill:#e93038;stroke:#720000;stroke-miterlimit:10;stroke-width:3.2px;}.cls-2{fill:#ff6e74;}.cls-3{fill:#fff;}</style></defs><title>五瓣花</title><path class="cls-1" d="M80.43,60A21.08,21.08,0,0,1,48,83.54,21.07,21.07,0,0,1,15.59,60,21.07,21.07,0,0,1,28,21.85a21.08,21.08,0,0,1,40.08,0A21.07,21.07,0,0,1,80.43,60Z"/><path class="cls-2" d="M75,57.88A17.56,17.56,0,0,1,48,77.51,17.56,17.56,0,0,1,21,57.89,17.56,17.56,0,0,1,31.3,26.12a17.57,17.57,0,0,1,33.4,0A17.56,17.56,0,0,1,75,57.88Z"/><path class="cls-3" d="M43.15,52.24A5.31,5.31,0,1,0,45.29,45a5.31,5.31,0,0,0-2.14,7.21"/><path class="cls-3" d="M55.46,33.14a17.06,17.06,0,0,0-2.6-7l-.92.6a16,16,0,0,1-4.7,22.09l.6.92a17.1,17.1,0,0,0,7.62-16.56"/><path class="cls-3" d="M50.94,27.45a1.78,1.78,0,0,0,1.64.69,1.78,1.78,0,0,0-.45-3.54,1.79,1.79,0,0,0-1.42,1.09,1.75,1.75,0,0,0,.23,1.76Zm0,0"/><path class="cls-3" d="M49.73,31.57A17.07,17.07,0,0,0,45,25.73l-.68.86A16,16,0,0,1,47,49l.86.68a17.1,17.1,0,0,0,1.89-18.13"/><path class="cls-3" d="M43.62,27.64a1.78,1.78,0,1,0,2-3A1.78,1.78,0,0,0,42.83,26a1.8,1.8,0,0,0,.79,1.6Zm0,0"/><path class="cls-3" d="M65.86,52.41a16.88,16.88,0,0,0,6-4.46l-.83-.71a16,16,0,0,1-22.53,1.64l-.71.82a17.07,17.07,0,0,0,18,2.71"/><path class="cls-3" d="M70.07,46.48a1.78,1.78,0,1,0,2.87,2.12,1.78,1.78,0,0,0-1.24-2.83,1.79,1.79,0,0,0-1.63.71Zm0,0"/><path class="cls-3" d="M65.78,46.47a17,17,0,0,0,4.29-6.17l-1-.41a16,16,0,0,1-20.81,8.8l-.41,1a17.09,17.09,0,0,0,17.94-3.23"/><path class="cls-3" d="M67.85,39.5a1.79,1.79,0,1,0,3.4,1.09,1.79,1.79,0,0,0-2.08-2.29,1.8,1.8,0,0,0-1.32,1.2Zm0,0"/><path class="cls-3" d="M50.26,67.77a17,17,0,0,0,6,4.57l.46-1a16,16,0,0,1-7.85-21.18l-1-.46a17.07,17.07,0,0,0,2.42,18.07"/><path class="cls-3" d="M57.12,70.16a1.78,1.78,0,1,0,1.14,1.37,1.78,1.78,0,0,0-1.14-1.37Zm0,0"/><path class="cls-3" d="M55.94,66a16.89,16.89,0,0,0,7.12,2.41l.11-1.09A16,16,0,0,1,48.92,49.82l-1.08-.12A17.07,17.07,0,0,0,55.94,66"/><path class="cls-3" d="M63.21,66.08a1.79,1.79,0,1,0,1.52.94,1.81,1.81,0,0,0-1.52-.94Zm0,0"/><path class="cls-3" d="M31.16,57.06a17.08,17.08,0,0,0-2.73,7l1.08.16A16,16,0,0,1,47.67,50.78l.17-1.08a17.09,17.09,0,0,0-16.68,7.36"/><path class="cls-3" d="M30.78,64.32A1.82,1.82,0,0,0,30,62.71a1.8,1.8,0,0,0-1.78-.12,1.78,1.78,0,1,0,2.56,1.73Zm0,0"/><path class="cls-3" d="M34.41,62a17,17,0,0,0-.33,7.51l1.08-.19A16,16,0,0,1,48,50.78l-.19-1.08A17.1,17.1,0,0,0,34.41,62"/><path class="cls-3" d="M36.38,69a1.78,1.78,0,1,0-.47,1.72A1.75,1.75,0,0,0,36.38,69Zm0,0"/><path class="cls-3" d="M36.12,35.73a17.07,17.07,0,0,0-7.48-.66l.14,1.08a16,16,0,0,1,18,13.7l1.09-.15a17.1,17.1,0,0,0-11.72-14"/><path class="cls-3" d="M29.05,37.39A1.78,1.78,0,1,0,27,35.1a1.76,1.76,0,0,0,.37,1.74,1.78,1.78,0,0,0,1.7.55Zm0,0"/><path class="cls-3" d="M32.25,40.24A17,17,0,0,0,25,42l.49,1a16,16,0,0,1,21.42,7.19l1-.49a17.11,17.11,0,0,0-15.59-9.46"/><path class="cls-3" d="M26.08,44.09A1.78,1.78,0,0,0,27,42.53,1.8,1.8,0,0,0,26,41a1.79,1.79,0,1,0,0,3.09Zm0,0"/></svg>