<svg id="图层_1" data-name="图层 1" xmlns="http://www.w3.org/2000/svg" viewBox="0 0 96 96"><defs><style>.cls-1{fill:#ffcb55;}.cls-2{fill:#1c1c1c;}.cls-3{fill:#ff9855;}.cls-4{fill:#fff;}.cls-5,.cls-6{fill:none;stroke:#1c1c1c;stroke-linecap:round;stroke-linejoin:round;}.cls-5{stroke-width:2.4px;}.cls-6{stroke-width:1.2px;}</style></defs><title>什么鬼</title><path class="cls-1" d="M57.64,82.71a68.61,68.61,0,0,1-9.65.67,67.27,67.27,0,0,1-34.85-9.44l-.44-.26-.24-.47a60.74,60.74,0,0,1-1.77-50.53l.21-.51.46-.31A66.9,66.9,0,0,1,48,11.31,66.94,66.94,0,0,1,84.64,21.86l.46.31.21.51a60.74,60.74,0,0,1-1.77,50.53l-.23.46-.44.27A63.43,63.43,0,0,1,72.1,79.12L65,90.05Z"/><path class="cls-2" d="M48,13.11A65.36,65.36,0,0,1,83.65,23.37a58.94,58.94,0,0,1-1.72,49,61.27,61.27,0,0,1-11,5.24l-6.26,9.57L58.28,80.8A68.07,68.07,0,0,1,48,81.58,65.62,65.62,0,0,1,14.07,72.4a58.94,58.94,0,0,1-1.72-49A65.29,65.29,0,0,1,48,13.11m0-3.6A68.61,68.61,0,0,0,10.38,20.36l-.93.6L9,22a62.51,62.51,0,0,0,1.83,52l.46.93.89.53A69.05,69.05,0,0,0,48,85.18a72.77,72.77,0,0,0,9-.56l5.11,5.13,3.13,3.14,2.43-3.71,5.62-8.58A65.65,65.65,0,0,0,83.8,75.48l.88-.54.46-.92A62.51,62.51,0,0,0,87,22l-.42-1-.93-.6A68.65,68.65,0,0,0,48,9.51Z"/><path class="cls-3" d="M88.17,46a58.51,58.51,0,0,1-6.24,26.4,62,62,0,0,1-11,5.24L64.66,87.2l-6.38-6.4A68.07,68.07,0,0,1,48,81.58,65.62,65.62,0,0,1,14.07,72.4c12.17,3.27,38,8.69,56.57-.86a25.17,25.17,0,0,0,5.54-3.73c14.11-12.65,8.95-38,7.47-44.44A58.33,58.33,0,0,1,88.17,46Z"/><path class="cls-4" d="M55.65,48.63A12.8,12.8,0,0,1,42.92,37H68.38A12.81,12.81,0,0,1,55.65,48.63Z"/><path class="cls-2" d="M67,38.24a11.59,11.59,0,0,1-22.67,0H67m2.65-2.4h-28a14,14,0,1,0,28,0Z"/><line class="cls-5" x1="42.87" y1="35.84" x2="42.87" y2="30.63"/><line class="cls-5" x1="42.87" y1="35.84" x2="60.96" y2="25.89"/><path class="cls-2" d="M51.71,42.47a1,1,0,1,1,1-1A1,1,0,0,1,51.71,42.47Z"/><path class="cls-2" d="M51.71,40.92a.59.59,0,0,1,.6.59.6.6,0,0,1-.6.6.59.59,0,0,1-.59-.6.58.58,0,0,1,.59-.59m0-.73a1.33,1.33,0,0,0,0,2.65,1.33,1.33,0,1,0,0-2.65Z"/><path class="cls-4" d="M25.5,48.63A12.8,12.8,0,0,1,12.77,37H38.23A12.81,12.81,0,0,1,25.5,48.63Z"/><path class="cls-2" d="M36.83,38.24a11.59,11.59,0,0,1-22.67,0H36.83m2.65-2.4h0Zm0,0h-28a14,14,0,1,0,28,0Z"/><line class="cls-5" x1="38.28" y1="35.84" x2="38.28" y2="30.63"/><line class="cls-5" x1="38.28" y1="35.84" x2="22.03" y2="28.22"/><path class="cls-2" d="M22,42.47a1,1,0,1,1,1-1A1,1,0,0,1,22,42.47Z"/><path class="cls-2" d="M22,40.92a.59.59,0,0,1,.59.59.6.6,0,1,1-1.19,0,.59.59,0,0,1,.6-.59m0-.73a1.33,1.33,0,1,0,1.32,1.32A1.32,1.32,0,0,0,22,40.19Z"/><path class="cls-2" d="M35.55,59.77a8.91,8.91,0,0,1,1.09-1.41,12.61,12.61,0,0,1,1.22-1.11,13.41,13.41,0,0,1,2.69-1.65l.7-.32.77.33a13.69,13.69,0,0,1,3,1.73,10.51,10.51,0,0,1,1.33,1.19,9.05,9.05,0,0,1,1.18,1.54,8,8,0,0,1-1.93.12A11.26,11.26,0,0,1,43.79,60a13.91,13.91,0,0,1-3.26-1.1H42a13.39,13.39,0,0,1-3,.88,9.92,9.92,0,0,1-1.65.15A8.43,8.43,0,0,1,35.55,59.77Z"/><path class="cls-6" d="M11.22,47.34a14.07,14.07,0,0,0,3.24,3.34A14.29,14.29,0,0,0,19.19,53"/><path class="cls-6" d="M71.5,46a17.44,17.44,0,0,1-4,4.12A17.82,17.82,0,0,1,61.66,53"/></svg>