<svg id="图层_1" data-name="图层 1" xmlns="http://www.w3.org/2000/svg" viewBox="0 0 96 96"><defs><style>.cls-1,.cls-3{fill:#846820;}.cls-2{fill:#ffcb55;}.cls-3{stroke:#000;stroke-miterlimit:10;stroke-width:3.6px;}</style></defs><title>佛系</title><path class="cls-1" d="M48,82.77a67.27,67.27,0,0,1-34.85-9.44l-.44-.27-.24-.46a60.74,60.74,0,0,1-1.77-50.53l.21-.52.46-.3A66.91,66.91,0,0,1,48,10.69,66.93,66.93,0,0,1,84.64,21.25l.46.3.21.52A60.74,60.74,0,0,1,83.54,72.6l-.23.46-.45.27a63.88,63.88,0,0,1-11.32,5.39l-.09,0L58.63,82l-.08,0A69.55,69.55,0,0,1,48,82.77Z"/><path d="M48,12.49A65.28,65.28,0,0,1,83.65,22.76a58.94,58.94,0,0,1-1.72,49,62,62,0,0,1-11,5.24L58.28,80.19A68.07,68.07,0,0,1,48,81a65.62,65.62,0,0,1-33.92-9.18,58.94,58.94,0,0,1-1.72-49A65.21,65.21,0,0,1,48,12.49m0-3.6A68.69,68.69,0,0,0,10.38,19.74l-.93.61-.42,1a62.51,62.51,0,0,0,1.83,52l.46.93.89.53A69.05,69.05,0,0,0,48,84.57a72.15,72.15,0,0,0,10.84-.82l.16,0,.16,0,6.32-1.58,6.33-1.58.18,0,.17-.06A65.51,65.51,0,0,0,83.8,74.87l.88-.54.46-.92a62.51,62.51,0,0,0,1.83-52l-.42-1-.93-.61A68.74,68.74,0,0,0,48,8.89Z"/><path class="cls-2" d="M7.93,48.82a59.14,59.14,0,0,1,4.42-26.06,67,67,0,0,1,71.3,0,114.42,114.42,0,0,0-29-4.53c-18.46-.47-27.22,3.86-29.84,5.26a29.55,29.55,0,0,0-5.54,3.73C5.79,39.08,13,67.63,14.07,71.79A59.09,59.09,0,0,1,7.93,48.82Z"/><path class="cls-3" d="M50.38,68.36c.07,2.35.15,4.7.22,7a46.55,46.55,0,0,1-13.2.07,45.66,45.66,0,0,1-8.32-2c-.66.14-3.67.85-4.88,3.38-1.48,3.11.9,6.65,1.26,7.19C29.81,90.59,41.8,90.91,50,88.41a30,30,0,0,0,7.67-3.59Q57.6,75.88,57.52,67a3.46,3.46,0,0,0-1.83-3.09,2.72,2.72,0,0,0-1.18-.31C52.59,63.48,50.51,65.45,50.38,68.36Z"/><path class="cls-3" d="M64.84,68.36l-.22,7.12c1.46-.64,3.59-1.52,6.21-2.42,5.88-2,7-1.67,7.46-1.45C80.76,72.73,82,76.83,81.24,80c-1.42,5.55-9.5,8.44-15.75,7.83a17,17,0,0,1-8-3L57.71,67a3.43,3.43,0,0,1,1.82-3.09,2.76,2.76,0,0,1,1.18-.31C62.64,63.48,64.71,65.45,64.84,68.36Z"/><path d="M20.53,69.41a142.66,142.66,0,0,1,15-9,93.08,93.08,0,0,1,16.29-6.6A54.3,54.3,0,0,1,60.54,52a32,32,0,0,1,9.06.1,17.39,17.39,0,0,1,8.6,3.81,16.67,16.67,0,0,1,5,8.14h0a1.8,1.8,0,0,1-3.46,1s0-.06,0-.09a13.24,13.24,0,0,0-3.65-6.73,14.52,14.52,0,0,0-7-3.5,30.07,30.07,0,0,0-8.34-.51,51.88,51.88,0,0,0-8.45,1.31,91.11,91.11,0,0,0-16.36,5.68A139.87,139.87,0,0,0,20.53,69.41Z"/><path d="M29.17,36l16.08-2.63a1.21,1.21,0,0,1,.39,2.38h-.18Z"/><path d="M57.83,34.71l17.52-2.3a1.21,1.21,0,0,1,.32,2.39H75.5Z"/><path d="M71.65,36.48A1.71,1.71,0,0,1,70,35.13l3.37-.22A1.7,1.7,0,0,1,71.65,36.48Z"/><path d="M74.33,33.65,68.85,34a3,3,0,0,0-.11.79,2.91,2.91,0,0,0,5.82,0,2.78,2.78,0,0,0-.23-1.13Z"/></svg>