<svg id="图层_1" data-name="图层 1" xmlns="http://www.w3.org/2000/svg" viewBox="0 0 96 96"><defs><style>.cls-1,.cls-6{fill:#fc5;}.cls-2{fill:#1c1c1c;}.cls-3{fill:#f95;}.cls-4{fill:none;stroke:#000;stroke-linecap:round;stroke-linejoin:round;stroke-width:3.6px;}.cls-5{fill:#f45d5d;}.cls-6{stroke:#1c1c1c;stroke-miterlimit:10;stroke-width:2.4px;}</style></defs><title>你看我有在笑啊</title><path class="cls-1" d="M55.6,82.44a70,70,0,0,1-9.65.67A67.29,67.29,0,0,1,11.1,73.67l-.44-.27-.23-.46A60.69,60.69,0,0,1,8.65,22.41l.21-.52.46-.3A66.9,66.9,0,0,1,46,11,66.92,66.92,0,0,1,82.6,21.59l.46.3.22.52A60.79,60.79,0,0,1,81.5,72.94l-.23.46-.44.27a64.09,64.09,0,0,1-10.76,5.18L62.91,89.78Z"/><path class="cls-2" d="M46,12.83A65.28,65.28,0,0,1,81.61,23.1a58.94,58.94,0,0,1-1.72,49,62,62,0,0,1-11,5.24l-6.26,9.56-6.38-6.4A68.07,68.07,0,0,1,46,81.31,65.62,65.62,0,0,1,12,72.13a58.94,58.94,0,0,1-1.72-49A65.21,65.21,0,0,1,46,12.83m0-3.6A68.69,68.69,0,0,0,8.34,20.08l-.93.61-.42,1a62.51,62.51,0,0,0,1.83,52l.46.93.89.53A69.08,69.08,0,0,0,46,84.91a70.88,70.88,0,0,0,9-.57l5.11,5.14,3.14,3.14,2.43-3.71,5.61-8.58a65.65,65.65,0,0,0,10.51-5.12l.88-.54.47-.92a62.61,62.61,0,0,0,1.83-52l-.43-1-.93-.61A68.74,68.74,0,0,0,46,9.23Z"/><path class="cls-3" d="M86.13,45.72a58.52,58.52,0,0,1-6.24,26.41,61.46,61.46,0,0,1-11,5.23l-6.27,9.57-6.38-6.4A68.07,68.07,0,0,1,46,81.31,65.62,65.62,0,0,1,12,72.13c12.17,3.26,38,8.69,56.57-.86a24.93,24.93,0,0,0,5.54-3.73c14.11-12.65,9-38,7.48-44.44A58.49,58.49,0,0,1,86.13,45.72Z"/><polyline class="cls-4" points="76.75 35.63 75.68 35.63 72.44 35.63 64.58 35.63 61.35 35.63 60.48 35.63"/><circle cx="62.09" cy="37.56" r="2.38"/><polyline class="cls-4" points="45.96 35.63 44.89 35.63 41.65 35.63 33.8 35.63 30.56 35.63 29.69 35.63"/><circle cx="31.3" cy="37.56" r="2.38"/><path d="M45.72,19.88a8.26,8.26,0,0,1-3.13,5.78,17.42,17.42,0,0,1-5.38,2.95,31.33,31.33,0,0,1-11.73,1.54A30.65,30.65,0,0,0,36.76,27.5a15.75,15.75,0,0,0,4.6-3.16,6.12,6.12,0,0,0,2-4.46v0a1.2,1.2,0,0,1,2.4-.1Z"/><path d="M61.45,19.88a6.09,6.09,0,0,0,2,4.46A15.75,15.75,0,0,0,68,27.5a30.55,30.55,0,0,0,11.27,2.65,31.38,31.38,0,0,1-11.73-1.54,17.37,17.37,0,0,1-5.37-2.95,8.19,8.19,0,0,1-3.13-5.78,1.2,1.2,0,1,1,2.4-.14v.14Z"/><path class="cls-5" d="M50,73.25c-14.9,0-28.09-7-33.61-17.7a1.85,1.85,0,0,1,.8-2.41l.09,0a11.16,11.16,0,0,1,5.39-1.4,10.72,10.72,0,0,1,5.89,1.74A39,39,0,0,0,50,59.63a39.17,39.17,0,0,0,21.19-6,11.61,11.61,0,0,1,6.28-1.87,10.75,10.75,0,0,1,5.25,1.36l.09,0a1.84,1.84,0,0,1,.8,2.4C78.06,66.31,64.87,73.25,50,73.25Z"/><path d="M22.64,52.89a9.59,9.59,0,0,1,5.23,1.54A40.17,40.17,0,0,0,50,60.83,40.34,40.34,0,0,0,71.8,54.62a10.42,10.42,0,0,1,5.64-1.68,9.69,9.69,0,0,1,4.67,1.2l.09,0a.66.66,0,0,1,.32.81c-5.32,10.36-18.1,17-32.55,17S22.75,65.36,17.43,55a.64.64,0,0,1,.32-.81l.09,0a9.82,9.82,0,0,1,4.8-1.25m0-2.4a12.28,12.28,0,0,0-6,1.55l-.1.06a3,3,0,0,0-1.28,4c5.53,10.76,19,18.35,34.68,18.35S79.13,66.86,84.65,56.1a3,3,0,0,0-1.28-4l-.09-.05a11.91,11.91,0,0,0-5.84-1.51,12.86,12.86,0,0,0-6.93,2.06A38.16,38.16,0,0,1,50,58.43a38,38,0,0,1-20.79-6,11.85,11.85,0,0,0-6.54-1.94Z"/><path class="cls-6" d="M91.51,77a9.62,9.62,0,0,1-13.6-13.61,9.19,9.19,0,0,1,2.62-1.85l-4.17-4.16a3.13,3.13,0,0,1,0-4.44l.12-.14a3.15,3.15,0,0,1,4.44,0L91.51,63.38A9.64,9.64,0,0,1,91.51,77Z"/><path class="cls-6" d="M20.78,65.37a11,11,0,1,1-15.49,0l12-12a3.68,3.68,0,1,1,5.21,5.21L17.8,63.26A10.66,10.66,0,0,1,20.78,65.37Z"/></svg>