<svg id="图层_1" data-name="图层 1" xmlns="http://www.w3.org/2000/svg" viewBox="0 0 96 96"><defs><style>.cls-1{fill:#ffcb55;}.cls-2{fill:#1c1c1c;}.cls-3{fill:#ff9855;}.cls-4,.cls-6{fill:none;stroke:#1c1c1c;}.cls-4{stroke-miterlimit:10;stroke-width:2.4px;}.cls-5{fill:#fff;}.cls-6{stroke-linecap:round;stroke-linejoin:round;stroke-width:6px;}</style></defs><title>偷看</title><path class="cls-1" d="M60.89,84.25a70.93,70.93,0,0,1-14.11-1.4c-.77-.17-1.52-.33-2.26-.51s-1.36-.33-2-.52l-1.18-.34c-.83-.25-1.57-.48-2.28-.72s-1.5-.51-2.21-.78q-.82-.3-1.65-.63c-.75-.3-1.48-.6-2.16-.91-.26-.1-.53-.23-.79-.35l-.37-.17c-1.92-.9-3.79-1.9-5.59-3l-.2-.12-.44-.26-.23-.46A59.44,59.44,0,0,1,18.9,46.88a60.52,60.52,0,0,1,4.66-23.35l.22-.51.47-.3A67,67,0,0,1,60.89,12.19a69.51,69.51,0,0,1,20.31,3l1.28.39V80.88l-1.28.39A68.4,68.4,0,0,1,74.46,83,70.63,70.63,0,0,1,60.89,84.25Z"/><path class="cls-2" d="M60.89,14a68,68,0,0,1,19.79,2.9V79.55a65.67,65.67,0,0,1-6.57,1.63,68.06,68.06,0,0,1-13.22,1.27,68.73,68.73,0,0,1-13.75-1.37c-.73-.15-1.47-.31-2.19-.49s-1.33-.32-2-.5l-1.23-.36c-.73-.22-1.45-.45-2.15-.68s-1.45-.5-2.14-.75l-1.61-.62c-.73-.29-1.44-.59-2.11-.88l-1.14-.52a57,57,0,0,1-5.41-2.88L27,73.29a58.73,58.73,0,0,1-1.76-49.06A65.58,65.58,0,0,1,60.89,14m0-3.6A68.79,68.79,0,0,0,23.27,21.21l-.94.6-.43,1a62.33,62.33,0,0,0-4.8,24,61.29,61.29,0,0,0,6.68,28l.47.93.89.53.22.13,0,0a61.75,61.75,0,0,0,5.74,3.05l.39.18c.28.13.55.26.84.38.65.29,1.37.59,2.2.92.56.22,1.13.44,1.71.65.83.32,1.55.57,2.24.8.85.28,1.58.51,2.27.71l.09,0,1.18.35c.71.19,1.41.37,2.12.54s1.54.36,2.28.51a72.11,72.11,0,0,0,14.5,1.45,71.89,71.89,0,0,0,13.92-1.34A67.21,67.21,0,0,0,81.73,83l2.55-.78v-68l-2.55-.78a71.4,71.4,0,0,0-20.84-3.06Z"/><path class="cls-3" d="M80.68,73.76V79.5a66.12,66.12,0,0,1-6.57,1.68,67,67,0,0,1-13.29,1.33,66.74,66.74,0,0,1-13.68-1.43c-.73-.15-1.47-.31-2.19-.49s-1.33-.32-2-.5l-1.23-.36c-.73-.22-1.45-.45-2.15-.68-2.16-.72-4.12-1.48-5.86-2.25l-1.14-.52c-2.36-1.09-4.28-2.13-5.68-3l.27.07C38.85,76.51,62.56,81.43,80.68,73.76Z"/><path class="cls-4" d="M56.53,25c.53,4.92-6,9.65-14.49,10.55"/><path class="cls-4" d="M62.67,24.37c.52,4.92,7.86,8.18,16.38,7.27"/><path class="cls-5" d="M77.59,52.76A13.77,13.77,0,0,1,64.1,41.7L79.46,40l.61,12.57-.92.13A13.47,13.47,0,0,1,77.59,52.76Z"/><path class="cls-2" d="M78.32,41.31l.5,10.19q-.61.06-1.23.06a12.57,12.57,0,0,1-12-8.82l12.72-1.43m2.28-2.67-17.88,2A15,15,0,0,0,77.59,54a13.85,13.85,0,0,0,1.7-.1,14.57,14.57,0,0,0,2-.37L80.6,38.64Z"/><path class="cls-5" d="M45.49,56.37A13.77,13.77,0,0,1,32,45.31l27.3-3.07a13.81,13.81,0,0,1-12.24,14,13.6,13.6,0,0,1-1.56.09Z"/><path class="cls-2" d="M58.06,43.58A12.59,12.59,0,0,1,46.91,55.09a13.52,13.52,0,0,1-1.42.08,12.57,12.57,0,0,1-12-8.82l24.57-2.77M60.4,40.9,30.61,44.26A15,15,0,0,0,45.49,57.57a13.8,13.8,0,0,0,1.69-.1A15,15,0,0,0,60.4,40.9Z"/><path class="cls-2" d="M39,44.09A6.22,6.22,0,1,0,51.32,42.7Z"/><path class="cls-2" d="M80.63,39.37l.25,5.13A6.13,6.13,0,0,1,77.49,46a6.22,6.22,0,0,1-6.88-5.48Z"/><polyline class="cls-6" points="81.87 89.21 81.87 74.82 81.87 74.78 81.87 69.42 81.87 51.61 81.87 43.21 81.87 38.41 81.87 37.73 81.87 31.29 81.87 16.32 81.87 8.16"/><circle class="cls-1" cx="73.87" cy="79.34" r="8.67"/><path class="cls-2" d="M73.87,71.87a7.47,7.47,0,1,1-7.47,7.47,7.48,7.48,0,0,1,7.47-7.47m0-2.4a9.87,9.87,0,1,0,9.87,9.87,9.87,9.87,0,0,0-9.87-9.87Z"/></svg>