<svg id="图层_1" data-name="图层 1" xmlns="http://www.w3.org/2000/svg" xmlns:xlink="http://www.w3.org/1999/xlink" viewBox="0 0 96 96"><defs><style>.cls-1,.cls-8{fill:#fff;}.cls-2{fill:#1c1c1c;}.cls-3{fill:#ffe1e1;}.cls-4{fill:#f45d5d;}.cls-5{fill:none;stroke-miterlimit:10;stroke-width:2.24px;}.cls-5,.cls-8{stroke:#1c1c1c;}.cls-6{fill:url(#未命名的渐变_6);}.cls-7{fill:url(#未命名的渐变_6-2);}.cls-8{stroke-linecap:round;stroke-linejoin:round;stroke-width:2.8px;}</style><radialGradient id="未命名的渐变_6" cx="18.62" cy="55.34" r="4.27" gradientTransform="translate(0 16.6) scale(1 0.7)" gradientUnits="userSpaceOnUse"><stop offset="0" stop-color="#ffc3b3"/><stop offset="1" stop-color="#fff"/></radialGradient><radialGradient id="未命名的渐变_6-2" cx="74.51" cy="55.34" r="4.27" xlink:href="#未命名的渐变_6"/></defs><title>兔子</title><path class="cls-1" d="M48,84.48a64.73,64.73,0,0,1-32.56-8.81,1.75,1.75,0,0,1-.65-.7,56.75,56.75,0,0,1-1.66-47.25,1.73,1.73,0,0,1,.63-.76A62.52,62.52,0,0,1,48,17.09,62.59,62.59,0,0,1,82.26,27a1.73,1.73,0,0,1,.63.76A56.85,56.85,0,0,1,81.23,75a1.78,1.78,0,0,1-.66.7A64.68,64.68,0,0,1,48,84.48Z"/><path class="cls-2" d="M48,18.78a61.15,61.15,0,0,1,33.35,9.59,55.16,55.16,0,0,1-1.61,45.84A63.18,63.18,0,0,1,48,82.8h0a63.23,63.23,0,0,1-31.71-8.59,55.16,55.16,0,0,1-1.61-45.84A61.07,61.07,0,0,1,48,18.78m0-3.37A64.22,64.22,0,0,0,12.83,25.55a3.4,3.4,0,0,0-1.26,1.52,58.44,58.44,0,0,0,1.71,48.66,3.31,3.31,0,0,0,1.31,1.39,66.28,66.28,0,0,0,66.83,0,3.37,3.37,0,0,0,1.31-1.39,58.44,58.44,0,0,0,1.71-48.66,3.4,3.4,0,0,0-1.26-1.52A64.27,64.27,0,0,0,48,15.41Z"/><path class="cls-3" d="M85.56,49.53a54.68,54.68,0,0,1-5.83,24.68,62.94,62.94,0,0,1-63.45,0c11.38,3.06,35.56,8.13,52.89-.8a23.69,23.69,0,0,0,5.18-3.48c13.19-11.83,8.37-35.55,7-41.56A54.73,54.73,0,0,1,85.56,49.53Z"/><path class="cls-1" d="M75.37,25a.84.84,0,0,1-.49-.15l-1.07-.79a.83.83,0,0,1-.33-.77.85.85,0,0,1,.5-.68,17.41,17.41,0,0,0,2.41-1.26,18.86,18.86,0,0,0,2-1.42.84.84,0,0,1,.54-.2.73.73,0,0,1,.25,0,.8.8,0,0,1,.56.58c.09.31.19.62.29.95a.82.82,0,0,1-.16.81,9.76,9.76,0,0,1-1.89,1.68A9.87,9.87,0,0,1,75.65,25,.69.69,0,0,1,75.37,25Z"/><path class="cls-2" d="M78.89,20.58c.09.33.19.65.3,1a8.76,8.76,0,0,1-1.72,1.53,9,9,0,0,1-2.1,1.07l-1.06-.77a19.52,19.52,0,0,0,2.53-1.33,18.09,18.09,0,0,0,2-1.49m0-1.68a1.67,1.67,0,0,0-1.08.39,17.21,17.21,0,0,1-1.87,1.36,16.79,16.79,0,0,1-2.29,1.2,1.68,1.68,0,0,0-.34,2.9l1.08.79a1.65,1.65,0,0,0,1,.31,1.77,1.77,0,0,0,.56-.09,11,11,0,0,0,2.49-1.27,11.35,11.35,0,0,0,2-1.81A1.69,1.69,0,0,0,80.79,21c-.1-.31-.19-.61-.28-.91A1.66,1.66,0,0,0,79.39,19a1.42,1.42,0,0,0-.5-.08Z"/><path class="cls-1" d="M20.63,25a.69.69,0,0,1-.28-.05,9.87,9.87,0,0,1-2.29-1.16,9.76,9.76,0,0,1-1.89-1.68.82.82,0,0,1-.16-.81c.1-.33.2-.64.29-.95a.8.8,0,0,1,.56-.58.73.73,0,0,1,.25,0,.84.84,0,0,1,.54.2,18.86,18.86,0,0,0,2,1.42A17.41,17.41,0,0,0,22,22.62a.85.85,0,0,1,.5.68.83.83,0,0,1-.33.77l-1.07.79A.84.84,0,0,1,20.63,25Z"/><path class="cls-2" d="M17.11,20.58a18.09,18.09,0,0,0,2.05,1.49,19.52,19.52,0,0,0,2.53,1.33l-1.06.77a9,9,0,0,1-2.1-1.07,8.76,8.76,0,0,1-1.72-1.53c.11-.34.21-.66.3-1m0-1.68a1.42,1.42,0,0,0-.5.08,1.66,1.66,0,0,0-1.12,1.15c-.09.3-.18.6-.28.91a1.69,1.69,0,0,0,.33,1.64,11.35,11.35,0,0,0,2,1.81,11,11,0,0,0,2.49,1.27,1.77,1.77,0,0,0,.56.09,1.65,1.65,0,0,0,1-.31l1-.76a1.71,1.71,0,0,0-.3-2.93,16.46,16.46,0,0,1-2.3-1.21,16.65,16.65,0,0,1-1.86-1.35,1.67,1.67,0,0,0-1.08-.39Z"/><path class="cls-1" d="M2.33,43.16A1.13,1.13,0,0,1,1.21,42,65.52,65.52,0,0,1,2.83,27.76a64.85,64.85,0,0,1,7.8-19.22,1.12,1.12,0,0,1,1-.55.85.85,0,0,1,.23,0,42.4,42.4,0,0,1,4.24,1.15,39.92,39.92,0,0,1,15.39,9.65A1.12,1.12,0,0,1,31,20.69l-2.87.84a.89.89,0,0,1-.32,0,1.11,1.11,0,0,1-.91-.47,14.33,14.33,0,0,0-2.19-2.41,4.17,4.17,0,0,0-.47-.4,15.71,15.71,0,0,0-1.42-1L22.3,17l-.6-.31-.12-.06-.53-.26-.68-.28L20,15.9l-.11,0-.16-.06-.35-.11a41.4,41.4,0,0,1-1,4.67c-.06.23-.1.4-.16.56s-.18.64-.3,1A42.68,42.68,0,0,1,12,33.61a42.86,42.86,0,0,1-9,9.32A1.14,1.14,0,0,1,2.33,43.16Z"/><path class="cls-2" d="M11.59,9.12a40,40,0,0,1,4.12,1.12,39,39,0,0,1,15,9.38l-2.87.84a14.74,14.74,0,0,0-2.36-2.6,4.54,4.54,0,0,0-.52-.45,15.65,15.65,0,0,0-1.52-1.09L22.88,16l-.68-.35a7,7,0,0,0-.73-.35c-.23-.11-.46-.2-.68-.29a4.27,4.27,0,0,0-.49-.18L20,14.71c-.37-.12-.71-.22-1-.3l-.5-.12a45.84,45.84,0,0,1-1.2,5.78c-.05.16-.09.34-.15.51-.09.33-.19.65-.3,1A41.53,41.53,0,0,1,11.12,33,41.77,41.77,0,0,1,2.33,42,63.72,63.72,0,0,1,11.59,9.12m0-2.25A2.25,2.25,0,0,0,9.67,8,65.88,65.88,0,0,0,.09,42a2.24,2.24,0,0,0,3.6,1.79A44.19,44.19,0,0,0,13,34.26a43.79,43.79,0,0,0,6-12c.11-.34.22-.69.32-1,0-.17.1-.34.14-.51l0-.08c.32-1.11.59-2.25.82-3.43l.27.11.11.05.45.22.13.06.56.3.44.27a11.81,11.81,0,0,1,1.3.94l0,0a3.16,3.16,0,0,1,.36.31l.06,0a13.17,13.17,0,0,1,2,2.22,2.26,2.26,0,0,0,1.83.94,2.28,2.28,0,0,0,.63-.09l1.4-.41,1.48-.43a2.24,2.24,0,0,0,1.54-1.6,2.28,2.28,0,0,0-.6-2.15A41.09,41.09,0,0,0,16.42,8.11a42.92,42.92,0,0,0-4.36-1.19,2.59,2.59,0,0,0-.47,0Z"/><path class="cls-4" d="M27.79,20.46c-2,1-4.07,2-6.1,2.94a19.52,19.52,0,0,1-2.53-1.33,18.09,18.09,0,0,1-2.05-1.49c.06-.17.1-.35.15-.51a45.84,45.84,0,0,0,1.2-5.78l.5.12c.3.08.64.18,1,.3l.33.12a4.27,4.27,0,0,1,.49.18c.22.09.45.18.68.29a7,7,0,0,1,.73.35l.68.35.51.32a15.65,15.65,0,0,1,1.52,1.09,4.54,4.54,0,0,1,.52.45A14.74,14.74,0,0,1,27.79,20.46Z"/><path class="cls-1" d="M93.67,43.16a1.14,1.14,0,0,1-.68-.23,42.86,42.86,0,0,1-9-9.32,42.6,42.6,0,0,1-5.84-11.7c-.12-.34-.23-.69-.32-1,0-.11-.08-.28-.13-.45a42.72,42.72,0,0,1-1.05-4.73l-.36.11-.15.06-.11,0-.38.15c-.21.08-.41.16-.62.26s-.41.19-.59.28l-.12.06c-.21.1-.42.22-.64.34l-.45.28a14.87,14.87,0,0,0-1.41,1c-.18.14-.33.26-.47.39a15,15,0,0,0-2.21,2.44,1.11,1.11,0,0,1-.91.47.89.89,0,0,1-.32,0L65,20.69a1.12,1.12,0,0,1-.47-1.87A40,40,0,0,1,79.93,9.17,43.33,43.33,0,0,1,84.18,8a.85.85,0,0,1,.23,0,1.12,1.12,0,0,1,1,.55,64.85,64.85,0,0,1,7.8,19.22A65.52,65.52,0,0,1,94.79,42a1.13,1.13,0,0,1-1.12,1.13Z"/><path class="cls-2" d="M84.41,9.12A63.79,63.79,0,0,1,92.07,28a63.23,63.23,0,0,1,1.6,14A41.77,41.77,0,0,1,84.88,33a41.53,41.53,0,0,1-5.69-11.39c-.11-.34-.21-.66-.3-1-.06-.17-.1-.35-.15-.51a45.84,45.84,0,0,1-1.2-5.78l-.5.12c-.3.08-.64.18-1,.3l-.33.12a4.27,4.27,0,0,0-.49.18c-.22.09-.45.18-.68.29a7,7,0,0,0-.73.35l-.68.35-.51.32a15.65,15.65,0,0,0-1.52,1.09,4.54,4.54,0,0,0-.52.45,14.74,14.74,0,0,0-2.36,2.6l-2.87-.84a39,39,0,0,1,15-9.38,40,40,0,0,1,4.12-1.12m0-2.25a2.59,2.59,0,0,0-.47,0,42,42,0,0,0-4.35,1.19A41.05,41.05,0,0,0,63.76,18a2.28,2.28,0,0,0-.6,2.15,2.24,2.24,0,0,0,1.54,1.6l1.48.43,1.4.41a2.28,2.28,0,0,0,.63.09A2.26,2.26,0,0,0,70,21.76a13.17,13.17,0,0,1,2-2.22l.06,0a3.16,3.16,0,0,1,.36-.31l0,0a11.21,11.21,0,0,1,1.29-.93c.16-.11.31-.19.45-.28l.56-.3.13-.06.45-.22.11-.05.27-.11c.23,1.19.5,2.34.83,3.47v0c0,.17.09.34.14.51q.15.51.33,1.05a43.64,43.64,0,0,0,6,12,44.19,44.19,0,0,0,9.26,9.56,2.25,2.25,0,0,0,1.36.46A2.25,2.25,0,0,0,95.91,42,65.88,65.88,0,0,0,86.33,8a2.25,2.25,0,0,0-1.92-1.08Z"/><path class="cls-4" d="M68.21,20.46c2,1,4.07,2,6.1,2.94a19.52,19.52,0,0,0,2.53-1.33,18.09,18.09,0,0,0,2-1.49c-.06-.17-.1-.35-.15-.51a45.84,45.84,0,0,1-1.2-5.78l-.5.12c-.3.08-.64.18-1,.3l-.33.12a4.27,4.27,0,0,0-.49.18c-.22.09-.45.18-.68.29a7,7,0,0,0-.73.35l-.68.35-.51.32a15.65,15.65,0,0,0-1.52,1.09,4.54,4.54,0,0,0-.52.45A14.74,14.74,0,0,0,68.21,20.46Z"/><path class="cls-1" d="M74.31,23.4l1.06.77a9,9,0,0,0,2.1-1.07,8.76,8.76,0,0,0,1.72-1.53c-.11-.34-.21-.66-.3-1a18.09,18.09,0,0,1-2,1.49A19.52,19.52,0,0,1,74.31,23.4Z"/><path class="cls-1" d="M21.69,23.4l-1.06.77a9,9,0,0,1-2.1-1.07,8.76,8.76,0,0,1-1.72-1.53c.11-.34.21-.66.3-1a18.09,18.09,0,0,0,2.05,1.49A19.52,19.52,0,0,0,21.69,23.4Z"/><ellipse cx="32.72" cy="41.77" rx="5.92" ry="7.97"/><ellipse class="cls-1" cx="33.84" cy="39.15" rx="3.25" ry="4.38"/><circle class="cls-1" cx="31.01" cy="46.38" r="1.92"/><ellipse cx="63.28" cy="41.77" rx="5.92" ry="7.97"/><ellipse class="cls-1" cx="64.4" cy="39.15" rx="3.25" ry="4.38"/><circle class="cls-1" cx="61.57" cy="46.38" r="1.92"/><path class="cls-2" d="M52.35,50a3.8,3.8,0,0,1-.65,3.7,4.74,4.74,0,0,1-7.39,0,3.78,3.78,0,0,1-.65-3.7,4.54,4.54,0,0,0,8.69,0Z"/><path class="cls-2" d="M49.13,57.39a7,7,0,0,1-2.29,4.85A6.75,6.75,0,0,1,42,64a6.46,6.46,0,0,1-4.46-2.13A6.17,6.17,0,0,1,36,57.39a5.92,5.92,0,0,0,2,4.06A5.66,5.66,0,0,0,42,62.85a5.33,5.33,0,0,0,3.66-1.8,5,5,0,0,0,1.23-3.66Z"/><path class="cls-2" d="M49.13,57.39a5,5,0,0,0,1.23,3.66A5.33,5.33,0,0,0,54,62.85a5.66,5.66,0,0,0,4.06-1.4,5.92,5.92,0,0,0,2-4.06,6.17,6.17,0,0,1-1.56,4.45A6.46,6.46,0,0,1,54,64a6.73,6.73,0,0,1-4.85-1.73,7,7,0,0,1-2.29-4.85Z"/><line class="cls-5" x1="48" y1="57.39" x2="48" y2="54.38"/><path class="cls-1" d="M42.67,63.92a6.79,6.79,0,0,0,4.22-2.15,5.77,5.77,0,0,0,.66-.88l.28,7.69L43.71,69Z"/><path class="cls-2" d="M47.05,62.42l0,1.13.16,4.52-1,.09-2.13.2-.46-2.24-.37-1.74a7.38,7.38,0,0,0,3.72-2m.94-4.7a6,6,0,0,1-1.52,3.67,6.27,6.27,0,0,1-4.48,2q.63,3.07,1.28,6.16l5.14-.48L48,57.72Z"/><path class="cls-1" d="M48.15,68.58l.29-7.69a6.42,6.42,0,0,0,.65.88,6.81,6.81,0,0,0,4.23,2.15l-1,5Z"/><path class="cls-2" d="M48.94,62.42a7.32,7.32,0,0,0,3.71,2l-.35,1.71-.47,2.27-2.12-.2-1-.09.17-4.52,0-1.13M48,57.72l-.42,11.37,5.15.48c.43-2.06.85-4.11,1.28-6.16a6.31,6.31,0,0,1-4.49-2A6.17,6.17,0,0,1,48,57.72Z"/><ellipse class="cls-6" cx="18.62" cy="55.34" rx="5.31" ry="2.87"/><ellipse class="cls-7" cx="74.51" cy="55.34" rx="5.31" ry="2.87"/><path class="cls-8" d="M17.12,25.35A59.81,59.81,0,0,1,48,17.09a59.87,59.87,0,0,1,30.89,8.26"/><ellipse class="cls-1" cx="22.23" cy="28.58" rx="4.45" ry="3.79"/><ellipse class="cls-1" cx="73.78" cy="28.58" rx="4.45" ry="3.79"/></svg>