<svg id="图层_1" data-name="图层 1" xmlns="http://www.w3.org/2000/svg" viewBox="0 0 96 96"><defs><style>.cls-1,.cls-5{fill:#ffcb55;}.cls-2{fill:#1c1c1c;}.cls-3{fill:#ff9855;}.cls-4{fill:#fff;}.cls-5,.cls-6{stroke:#1c1c1c;stroke-linecap:round;stroke-linejoin:round;stroke-width:2.4px;}.cls-6{fill:none;}</style></defs><title>再见</title><path class="cls-1" d="M46.76,82.32A67.32,67.32,0,0,1,11.93,72.9l-.44-.26-.24-.46A59.66,59.66,0,0,1,4.77,44.94,60.39,60.39,0,0,1,9.43,21.6l.21-.52.47-.3A67.06,67.06,0,0,1,46.76,10.25,67.06,67.06,0,0,1,83.41,20.78l.47.3.21.52a61,61,0,0,1,4.63,23.34,59.69,59.69,0,0,1-6.48,27.27l-.24.46-.44.26A67.56,67.56,0,0,1,46.76,82.32Z"/><path class="cls-2" d="M46.76,12.05A65.61,65.61,0,0,1,82.43,22.29a59.41,59.41,0,0,1,4.49,22.65,58.24,58.24,0,0,1-6.29,26.45,65.74,65.74,0,0,1-33.87,9.13,65.58,65.58,0,0,1-33.9-9.16A58.2,58.2,0,0,1,6.57,44.94a58.87,58.87,0,0,1,4.52-22.65A65.61,65.61,0,0,1,46.76,12.05m0-3.6A68.84,68.84,0,0,0,9.13,19.27l-.93.6-.43,1a62.29,62.29,0,0,0-4.8,24A61.36,61.36,0,0,0,9.65,73l.46.92.89.53a69.13,69.13,0,0,0,35.76,9.68,69.4,69.4,0,0,0,35.72-9.64l.89-.54.47-.92a61.42,61.42,0,0,0,6.68-28.08,62.86,62.86,0,0,0-4.76-24l-.43-1-.94-.61A68.84,68.84,0,0,0,46.76,8.45Z"/><path class="cls-3" d="M86.87,45a58.38,58.38,0,0,1-6.24,26.4,67.29,67.29,0,0,1-67.86,0c12.17,3.27,38,8.69,56.57-.86a25.28,25.28,0,0,0,5.54-3.72c14.12-12.66,9-38,7.48-44.45A58.51,58.51,0,0,1,86.87,45Z"/><path d="M80.36,56.22a10.44,10.44,0,0,1-.79,5.15,13.94,13.94,0,0,1-3.06,4.4,18.61,18.61,0,0,1-4.41,3.14c-.41.19-.81.39-1.23.57L69.6,70c-.82.28-1.65.55-2.48.81A69.46,69.46,0,0,1,56.94,73.1a80.7,80.7,0,0,1-10.42.82,80.88,80.88,0,0,1-10.43-.62,71,71,0,0,1-10.22-2.11,23.75,23.75,0,0,1-5-2A17.85,17.85,0,0,1,16.53,66a13,13,0,0,1-2.85-4.56,12.14,12.14,0,0,1-.55-5.19A13.32,13.32,0,0,0,14.6,61a12.16,12.16,0,0,0,3.13,3.67,19.56,19.56,0,0,0,8.81,3.78,92.43,92.43,0,0,0,9.93,1.45,86,86,0,0,0,10,.41,88.29,88.29,0,0,0,10-.59,92.49,92.49,0,0,0,9.9-1.65c.82-.18,1.63-.38,2.44-.59L70,67.15l1.14-.39a16.87,16.87,0,0,0,4.22-2.32,13.62,13.62,0,0,0,3.33-3.52A11.37,11.37,0,0,0,80.36,56.22Z"/><path class="cls-4" d="M32.45,44.19a9.45,9.45,0,1,1,6.69-2.77A9.38,9.38,0,0,1,32.45,44.19Z"/><path class="cls-2" d="M32.45,26.49a8.26,8.26,0,1,1-5.83,2.42,8.2,8.2,0,0,1,5.83-2.42m0-2.4A10.65,10.65,0,1,0,40,27.21a10.62,10.62,0,0,0-7.54-3.12Z"/><path d="M34.68,36.42a3.91,3.91,0,1,1,2.76-1.15A3.88,3.88,0,0,1,34.68,36.42Z"/><path d="M34.68,29.81a2.7,2.7,0,0,1,1.91.8,2.7,2.7,0,1,1-3.82,0,2.7,2.7,0,0,1,1.91-.8m0-2.4a5.11,5.11,0,1,0,3.61,1.5,5.06,5.06,0,0,0-3.61-1.5Z"/><path class="cls-4" d="M61,44.19a9.45,9.45,0,1,1,6.68-2.77A9.39,9.39,0,0,1,61,44.19Z"/><path class="cls-2" d="M61,26.49a8.26,8.26,0,1,1-5.84,2.42A8.19,8.19,0,0,1,61,26.49m0-2.4a10.65,10.65,0,1,0,7.53,3.12A10.63,10.63,0,0,0,61,24.09Z"/><path d="M63.26,36.42A3.91,3.91,0,1,1,66,35.27,3.88,3.88,0,0,1,63.26,36.42Z"/><path d="M63.26,29.81a2.7,2.7,0,1,1-2.7,2.7,2.66,2.66,0,0,1,.79-1.9,2.7,2.7,0,0,1,1.91-.8m0-2.4a5.11,5.11,0,1,0,3.61,1.5,5.06,5.06,0,0,0-3.61-1.5Z"/><path class="cls-5" d="M66.71,73l-1-1.79a5.21,5.21,0,0,0-3.06-2.58,3.5,3.5,0,0,0-2,0c-2.06.62-3.67,3.63-3,7.35a10.3,10.3,0,0,0,.87,2.65l2.4,5.14a13.59,13.59,0,0,0,17.41,7c.31-.14.63-.28.94-.44a15.48,15.48,0,0,0,3.48-2.4,16.07,16.07,0,0,0,5-10.62q.83-10,1.66-20a10.55,10.55,0,0,0-9.58-11.51c-.29,0-.58,0-.88,0a8.65,8.65,0,0,0-.88,0,10.82,10.82,0,0,0-9.4,9.69Q67.68,64.26,66.71,73Z"/><path class="cls-3" d="M89.39,57.3q-.83,10-1.66,20a16.1,16.1,0,0,1-5,10.63,15.41,15.41,0,0,1-3.47,2.4l-.95.44a13.57,13.57,0,0,1-17-6.22,13.24,13.24,0,0,0,13.53,2.09c.33-.14.64-.28,1-.44a15.16,15.16,0,0,0,3.48-2.4,16.09,16.09,0,0,0,5-10.61q.82-10,1.65-20a10.76,10.76,0,0,0-1-5.58A10.85,10.85,0,0,1,89.39,57.3Z"/><path class="cls-6" d="M66.71,73l-1-1.79a5.21,5.21,0,0,0-3.06-2.58,3.5,3.5,0,0,0-2,0c-2.06.62-3.67,3.63-3,7.35a10.3,10.3,0,0,0,.87,2.65l2.4,5.14a13.59,13.59,0,0,0,17.41,7c.31-.14.63-.28.94-.44a15.48,15.48,0,0,0,3.48-2.4,16.07,16.07,0,0,0,5-10.62q.83-10,1.66-20a10.55,10.55,0,0,0-9.58-11.51c-.29,0-.58,0-.88,0a8.65,8.65,0,0,0-.88,0,10.82,10.82,0,0,0-9.4,9.69Q67.68,64.26,66.71,73Z"/></svg>