<svg id="图层_1" data-name="图层 1" xmlns="http://www.w3.org/2000/svg" viewBox="0 0 96 96"><defs><style>.cls-1,.cls-4{fill:#fff;}.cls-1,.cls-2,.cls-3,.cls-4,.cls-5{stroke:#1c1c1c;}.cls-1,.cls-2,.cls-3,.cls-4{stroke-linecap:round;stroke-linejoin:round;}.cls-1{stroke-width:3.2px;}.cls-2{fill:#c2ffbd;}.cls-2,.cls-3,.cls-4{stroke-width:2.31px;}.cls-3{fill:#a1d39b;}.cls-5{fill:#333;stroke-miterlimit:10;stroke-width:1.09px;}</style></defs><title>南倒了</title><path class="cls-1" d="M89.68,46.61a60.61,60.61,0,0,1-6.51,27.44A68.38,68.38,0,0,1,48,83.51a68.89,68.89,0,0,1-29.86-6.65C16.32,76,14.56,75,12.85,74A60.3,60.3,0,0,1,6.32,46.61,61.16,61.16,0,0,1,11,23.09a68.24,68.24,0,0,1,37-10.6,68.23,68.23,0,0,1,37,10.6A55.88,55.88,0,0,1,87,28.53,61.38,61.38,0,0,1,89.68,46.61Z"/><path class="cls-2" d="M87,28.53a65.38,65.38,0,0,0-34.66-9.68A65.24,65.24,0,0,0,16.85,29L11,23.1A68.15,68.15,0,0,1,48,12.49,68.2,68.2,0,0,1,85,23.1C85.76,24.87,86.4,26.69,87,28.53Z"/><path class="cls-3" d="M18.15,76.86C16.33,76,14.55,75,12.85,74a60.22,60.22,0,0,1-6.52-27.4A61.06,61.06,0,0,1,11,23.1L16.85,29a58.45,58.45,0,0,0,1.3,47.83Z"/><path class="cls-4" d="M89.68,46.61a60.45,60.45,0,0,1-6.52,27.44A68.3,68.3,0,0,1,48,83.51a68.82,68.82,0,0,1-29.86-6.65A58.45,58.45,0,0,1,16.85,29,65.24,65.24,0,0,1,52.31,18.85,65.38,65.38,0,0,1,87,28.53,61.66,61.66,0,0,1,89.68,46.61Z"/><path class="cls-5" d="M31.52,45.2A2.27,2.27,0,0,1,32.16,47a1.59,1.59,0,0,0,0,1.21c.46,1,2.41,1.52,4.83.9,0,0,0,0,0,0a6.17,6.17,0,0,0-1-2.29c-.63-.87-1.08-1-1.15-1.49-.17-1.1,1.47-3,3.26-2.72a3.07,3.07,0,0,1,2.31,2.24,11.9,11.9,0,0,0,.75,4.28,12.11,12.11,0,0,0,2.57,4.14H48.4a0,0,0,0,0,0,0,26.37,26.37,0,0,0-4.54-7c-1.42-1.56-2.72-2.57-2.58-4s1.77-2.88,2.79-2.65c.83.19.81,1.36,2,2a3.4,3.4,0,0,0,2.49.14,0,0,0,0,0,0,0L48.64,38v0a25.54,25.54,0,0,1,3.59-3.05,24.63,24.63,0,0,1,6.18-3.12h0a58.47,58.47,0,0,1,8.9,4,59.28,59.28,0,0,1,12.81,9.55l.15,1.74q-4.52,6.15-9,12.29c.13-.95.27-1.89.4-2.83a0,0,0,0,0,0,0l-4.75-.07a0,0,0,0,0,0,0c1.12,2,1.31,3.68.66,4.18-.11.08-.55.37-1.7-.14L64.1,56.31l-2.2.7c.33,1.4.67,2.8,1,4.2,0,0,0,0,0,0l-2.18.53a0,0,0,0,1,0,0A3.76,3.76,0,0,0,58.22,58a3.8,3.8,0,0,0-5,3.33l6.77,4a25.23,25.23,0,0,1,9.24-3.57c3.79-.62,4.56.32,4.75.61a2.93,2.93,0,0,1-.06,2.57h0l-20.23,9.3h0c-1.4-.38-1.77-1-1.89-1.29-.64-1.46,1-4.06,4.39-6.1,0,0,0,0,0,0l-3.58-5.46a0,0,0,0,0,0,0,11.5,11.5,0,0,0-4.19,4.34,11.11,11.11,0,0,0-1.29,4,8.12,8.12,0,0,1,5.19-10.73,0,0,0,0,0,0,0l-4.51-4.29-5.05,1.86-.6,5.79A9.45,9.45,0,0,0,41.23,56c-2.53-4.51-9.32-6.27-12.64-3.88a4.91,4.91,0,0,0-1.73,2.63s0,0-.05,0a6.7,6.7,0,0,0-1.41-3,6.83,6.83,0,0,0-3.62-2.23s0,0,0,0C22.69,48.79,29.4,43.48,31.52,45.2Zm27.31,8.36c-.08-2.48-5.38-4.29-6.52-3.15-.43.43-.26,1.25.07,2.74.38,1.8.72,3.38,1.81,3.83C55.86,57.66,58.89,55.47,58.83,53.56Zm-1.32-9.49c.51-.28,1.45.17,2,.81,1.56,1.88-.76,5,.67,6.37a2,2,0,0,0,2.44.26c1-1-1.55-4.09-.51-5.35.51-.62,1.65-.56,2.78-.32l0,0a6.42,6.42,0,0,0,.52,4.62c1.6,2.82,5.88,4.3,8.17,2.53a5.17,5.17,0,0,0,1.61-4s0,0,0,0a75.62,75.62,0,0,0-10.13-6.82C62.86,41,60.74,39.91,58.74,39h0c-4.39.84-7,3.49-6.75,5.57s3.78,4.12,4.82,3.4S56.53,44.58,57.51,44.07Z"/></svg>