<?xml version="1.0" encoding="utf-8"?>
<!-- Generator: Adobe Illustrator 23.0.1, SVG Export Plug-In . SVG Version: 6.00 Build 0)  -->
<svg version="1.1" id="图层_1" xmlns="http://www.w3.org/2000/svg" xmlns:xlink="http://www.w3.org/1999/xlink" x="0px" y="0px"
	 viewBox="0 0 60 60" style="enable-background:new 0 0 60 60;" xml:space="preserve">
<style type="text/css">
	.st0{fill:#FFCB55;}
	.st1{fill:#1C1C1C;}
	.st2{fill:#FF9855;}
	.st3{fill:#333333;}
	.st4{fill:#EE2D2C;}
	.st5{fill:none;stroke:#000000;stroke-width:2;stroke-linecap:round;stroke-linejoin:round;stroke-miterlimit:10;}
	.st6{fill:#369D69;}
	.st7{fill:#359E6A;}
	.st8{fill:#146D3C;}
	.st9{fill:none;stroke:#000000;stroke-width:1.3678;stroke-linecap:round;stroke-linejoin:round;stroke-miterlimit:10;}
</style>
<g>
	<g>
		<g>
			<g>
				<path class="st0" d="M30.01,51.21c-7.17,0-14.03-1.86-19.85-5.37L9.91,45.7l-0.13-0.26c-2.45-4.83-3.69-10.05-3.69-15.52
					c0-4.6,0.89-9.07,2.65-13.3l0.12-0.29l0.27-0.17c6.05-3.92,13.27-6,20.89-6s14.84,2.07,20.89,6l0.27,0.17l0.12,0.3
					c1.75,4.24,2.64,8.72,2.64,13.3c0,5.48-1.24,10.71-3.69,15.54l-0.13,0.26l-0.25,0.15C44.01,49.37,37.15,51.21,30.01,51.21z"/>
				<path class="st1" d="M30.01,11.17c7.64,0,14.7,2.18,20.33,5.83c1.64,3.97,2.56,8.34,2.56,12.91c0,5.42-1.28,10.54-3.58,15.08
					c-5.46,3.27-12.11,5.2-19.3,5.2c-7.2,0-13.86-1.93-19.32-5.22c-2.3-4.54-3.58-9.65-3.58-15.06c0-4.57,0.92-8.94,2.58-12.91
					C15.31,13.35,22.37,11.17,30.01,11.17 M30.01,9.12c-7.81,0-15.23,2.13-21.44,6.16l-0.53,0.35l-0.24,0.59
					c-1.81,4.36-2.73,8.96-2.73,13.7c0,5.64,1.28,11.01,3.8,15.99l0.27,0.52l0.5,0.3c5.98,3.61,13.03,5.51,20.38,5.51
					c7.33,0,14.37-1.9,20.36-5.49l0.51-0.3l0.27-0.53c2.52-4.97,3.8-10.36,3.8-16c0-4.72-0.91-9.32-2.71-13.69l-0.24-0.59
					l-0.54-0.35C45.24,11.25,37.82,9.12,30.01,9.12L30.01,9.12z"/>
			</g>
		</g>
		<g>
			<path class="st2" d="M52.87,29.94c0,5.42-1.28,10.52-3.56,15.05c-2.96,1.73-9.87,5.23-19.34,5.23c-9.46,0-16.37-3.5-19.33-5.23
				c6.94,1.86,21.67,4.95,32.24-0.49c1.43-0.73,2.37-1.42,3.16-2.12c8.04-7.21,5.1-21.67,4.26-25.33
				C51.96,21.01,52.87,25.36,52.87,29.94z"/>
		</g>
	</g>
	<g>
		<path class="st3" d="M45.2,40.9c-4.16-2.29-9.53-3.55-15.2-3.55c-5.68,0-11.05,1.26-15.2,3.55c-1.79-1.91-2.74-4.1-2.74-6.37
			c0-6.63,8.05-12.03,17.94-12.03s17.94,5.4,17.94,12.03C47.94,36.8,46.99,38.99,45.2,40.9z"/>
		<path d="M30,23.19c9.51,0,17.25,5.09,17.25,11.35c0,1.94-0.76,3.83-2.21,5.51c-4.18-2.18-9.48-3.38-15.05-3.38
			c-5.58,0-10.87,1.19-15.05,3.38c-1.45-1.69-2.21-3.57-2.21-5.51C12.75,28.28,20.49,23.19,30,23.19 M30,21.82
			c-10.29,0-18.62,5.69-18.62,12.71c0,2.69,1.22,5.18,3.3,7.22c3.93-2.3,9.35-3.72,15.32-3.72c5.97,0,11.38,1.42,15.32,3.72
			c2.08-2.04,3.3-4.53,3.3-7.22C48.62,27.51,40.29,21.82,30,21.82L30,21.82z"/>
	</g>
	<path class="st9" d="M47.63,43.7c-4.9,2.29-11.01,3.65-17.63,3.65c-6.62,0-12.73-1.36-17.63-3.65"/>
	<g>
		<ellipse class="st6" cx="30" cy="29.96" rx="29.21" ry="6.48"/>
		<path d="M30,24.39c15.63,0,28.3,2.49,28.3,5.57S45.63,35.54,30,35.54S1.7,33.04,1.7,29.96S14.37,24.39,30,24.39 M30,22.57
			c-7.67,0-14.9,0.59-20.36,1.67c-6.66,1.31-9.76,3.13-9.76,5.73s3.1,4.42,9.76,5.73c5.46,1.07,12.69,1.67,20.36,1.67
			s14.9-0.59,20.36-1.67c6.66-1.31,9.76-3.13,9.76-5.73s-3.1-4.42-9.76-5.73C44.9,23.16,37.67,22.57,30,22.57L30,22.57z"/>
	</g>
	<g>
		<g>
			<path class="st7" d="M30,32.87c-14.41,0-23.64-1.77-24.68-3.02c0.03-4.7,0.93-9.28,2.69-13.61c6.38-4.07,13.98-6.21,22-6.21
				c8.02,0,15.61,2.15,21.99,6.21c1.75,4.35,2.65,8.93,2.67,13.61C53.64,31.1,44.41,32.87,30,32.87z"/>
			<path d="M30.01,11.05c7.71,0,15.01,2.03,21.16,5.88c1.56,3.97,2.39,8.14,2.47,12.38c-1.92,0.98-9.95,2.54-23.65,2.54
				c-13.7,0-21.73-1.55-23.65-2.54c0.09-4.27,0.92-8.42,2.49-12.38C15,13.08,22.3,11.05,30.01,11.05 M30.01,9
				c-8.58,0-16.51,2.45-22.83,6.55c-1.85,4.43-2.88,9.29-2.89,14.39v0.02c0,0.01,0,0.01,0,0.01c0.05,2.17,11.54,3.92,25.71,3.92
				c14.17,0,25.66-1.75,25.71-3.92c0-0.01,0-0.01,0-0.01v-0.02c-0.01-5.1-1.05-9.96-2.87-14.39C46.52,11.45,38.59,9,30.01,9L30.01,9
				z"/>
		</g>
	</g>
	<g>
		<g>
			<path class="st8" d="M55.71,29.94v0.02c0,0.01,0,0.01,0,0.01c-0.02,0.98-2.35,1.87-6.21,2.55c0.09-0.18,0.14-0.37,0.14-0.55
				c0-0.01,0-0.01,0-0.01v-0.03c-0.01-6.92-1.03-13.52-2.81-19.56c2.13,0.9,4.14,1.97,6,3.18C54.66,19.98,55.69,24.85,55.71,29.94z"
				/>
		</g>
	</g>
	<g>
		<g>
			<path d="M30.01,11.05c7.71,0,15.01,2.03,21.16,5.88c1.56,3.97,2.39,8.14,2.47,12.38c-1.92,0.98-9.95,2.54-23.65,2.54
				c-13.7,0-21.73-1.55-23.65-2.54c0.09-4.27,0.92-8.42,2.49-12.38C15,13.08,22.3,11.05,30.01,11.05 M30.01,9
				c-8.58,0-16.51,2.45-22.83,6.55c-1.85,4.43-2.88,9.29-2.89,14.39v0.02c0,0.01,0,0.01,0,0.01c0.05,2.17,11.54,3.92,25.71,3.92
				c14.17,0,25.66-1.75,25.71-3.92c0-0.01,0-0.01,0-0.01v-0.02c-0.01-5.1-1.05-9.96-2.87-14.39C46.52,11.45,38.59,9,30.01,9L30.01,9
				z"/>
		</g>
	</g>
</g>
</svg>
