<svg id="图层_1" data-name="图层 1" xmlns="http://www.w3.org/2000/svg" xmlns:xlink="http://www.w3.org/1999/xlink" viewBox="0 0 96 96"><defs><style>.cls-1{fill:#fc5;}.cls-2{fill:#1c1c1c;}.cls-3{fill:#f95;}.cls-4{fill:#fff;}.cls-5{fill:url(#未命名的渐变_16);}.cls-6{fill:url(#未命名的渐变_16-2);}</style><radialGradient id="未命名的渐变_16" cx="16.44" cy="-452.89" r="6.51" gradientTransform="translate(0 322.81) scale(1 0.62)" gradientUnits="userSpaceOnUse"><stop offset="0" stop-color="#ff433b"/><stop offset="1" stop-color="#ff433b" stop-opacity="0"/></radialGradient><radialGradient id="未命名的渐变_16-2" cx="79.56" cy="-452.89" r="6.51" xlink:href="#未命名的渐变_16"/></defs><title>可爱滑稽</title><path class="cls-1" d="M57.64,82.44a70.15,70.15,0,0,1-9.65.67,67.24,67.24,0,0,1-34.85-9.44l-.44-.27-.24-.46a60.74,60.74,0,0,1-1.77-50.53l.21-.52.46-.3A66.9,66.9,0,0,1,48,11,66.94,66.94,0,0,1,84.64,21.59l.46.3.21.52a60.74,60.74,0,0,1-1.77,50.53l-.24.46-.44.27A63.35,63.35,0,0,1,72.1,78.85L65,89.78Z"/><path class="cls-2" d="M48,12.83A65.28,65.28,0,0,1,83.65,23.1a58.94,58.94,0,0,1-1.72,49,62,62,0,0,1-11,5.24l-6.26,9.56-6.38-6.4A68.07,68.07,0,0,1,48,81.31a65.62,65.62,0,0,1-33.92-9.18,58.94,58.94,0,0,1-1.72-49A65.21,65.21,0,0,1,48,12.83m0-3.6A68.69,68.69,0,0,0,10.38,20.08l-.93.61-.42,1a62.51,62.51,0,0,0,1.83,52l.46.93.89.53A69.05,69.05,0,0,0,48,84.91a70.88,70.88,0,0,0,9-.57l5.11,5.14,3.13,3.14,2.43-3.71,5.62-8.58A65.65,65.65,0,0,0,83.8,75.21l.88-.54.46-.92a62.51,62.51,0,0,0,1.83-52l-.42-1-.93-.61A68.74,68.74,0,0,0,48,9.23Z"/><path class="cls-3" d="M88.17,45.72a58.52,58.52,0,0,1-6.24,26.41,61.23,61.23,0,0,1-11,5.23l-6.26,9.57-6.38-6.4A68.07,68.07,0,0,1,48,81.31a65.62,65.62,0,0,1-33.92-9.18c12.17,3.26,38,8.69,56.57-.86a25.17,25.17,0,0,0,5.54-3.73c14.11-12.65,8.95-38,7.47-44.44A58.32,58.32,0,0,1,88.17,45.72Z"/><path class="cls-4" d="M17.67,36.36a3.43,3.43,0,0,1-2.44-1,3.51,3.51,0,0,1-1-2.85,3.3,3.3,0,0,1,1.49-2.44,25.16,25.16,0,0,1,27.3,0A3.29,3.29,0,0,1,44.5,32.5a3.45,3.45,0,0,1-1,2.84,3.4,3.4,0,0,1-2.44,1,3.34,3.34,0,0,1-1.82-.54,18.3,18.3,0,0,0-19.74,0A3.4,3.4,0,0,1,17.67,36.36Z"/><path d="M29.36,27.23a23.84,23.84,0,0,1,13,3.83,2.09,2.09,0,0,1,1,1.57,2.29,2.29,0,0,1-.66,1.86,2.22,2.22,0,0,1-1.59.67,2.11,2.11,0,0,1-1.17-.35,19.51,19.51,0,0,0-21,0,2.15,2.15,0,0,1-1.18.35,2.25,2.25,0,0,1-1.6-.66,2.29,2.29,0,0,1-.65-1.87,2.11,2.11,0,0,1,.94-1.57,23.81,23.81,0,0,1,13-3.83m0-2.4a26.18,26.18,0,0,0-14.3,4.22,4.63,4.63,0,0,0-.68,7.14h0a4.65,4.65,0,0,0,3.29,1.37,4.56,4.56,0,0,0,2.48-.73,17.09,17.09,0,0,1,18.44,0,4.53,4.53,0,0,0,2.47.73A4.66,4.66,0,0,0,43.67,29a26.29,26.29,0,0,0-14.31-4.21Z"/><circle class="cls-2" cx="17.64" cy="32.89" r="4.65"/><path class="cls-4" d="M55,36.36a3.45,3.45,0,0,1-2.44-1,3.5,3.5,0,0,1-1-2.85A3.29,3.29,0,0,1,53,30.06a25.18,25.18,0,0,1,27.31,0A3.32,3.32,0,0,1,81.8,32.5a3.48,3.48,0,0,1-3.45,3.86,3.39,3.39,0,0,1-1.82-.54,18.3,18.3,0,0,0-19.74,0A3.35,3.35,0,0,1,55,36.36Z"/><path d="M66.66,27.23a23.84,23.84,0,0,1,13,3.83,2.09,2.09,0,0,1,1,1.57A2.29,2.29,0,0,1,80,34.49a2.26,2.26,0,0,1-1.6.67,2.14,2.14,0,0,1-1.17-.35,19.51,19.51,0,0,0-21,0,2.15,2.15,0,0,1-1.18.35,2.22,2.22,0,0,1-1.59-.66,2.33,2.33,0,0,1-.66-1.87,2.12,2.12,0,0,1,.95-1.57,23.79,23.79,0,0,1,13-3.83m0-2.4a26.24,26.24,0,0,0-14.31,4.22,4.63,4.63,0,0,0-.68,7.14h0A4.65,4.65,0,0,0,55,37.56a4.56,4.56,0,0,0,2.48-.73,17.09,17.09,0,0,1,18.44,0,4.56,4.56,0,0,0,2.47.73,4.63,4.63,0,0,0,3.29-1.37h0A4.63,4.63,0,0,0,81,29a26.26,26.26,0,0,0-14.3-4.21Z"/><circle class="cls-2" cx="54.93" cy="32.89" r="4.65"/><path class="cls-2" d="M42.85,16.83a24.34,24.34,0,0,0-2.76-4.49,11.92,11.92,0,0,0-3.66-3.12A10.62,10.62,0,0,0,31.82,8a19.93,19.93,0,0,0-5.21.53,9.68,9.68,0,0,1,5.11-2.42,9.4,9.4,0,0,1,5.84,1,10,10,0,0,1,4.11,4.22A10.42,10.42,0,0,1,42.85,16.83Z"/><path class="cls-2" d="M53.15,16.83a10.42,10.42,0,0,1,1.18-5.51A10,10,0,0,1,58.44,7.1a9.4,9.4,0,0,1,5.84-1,9.68,9.68,0,0,1,5.11,2.42A19.93,19.93,0,0,0,64.18,8a10.62,10.62,0,0,0-4.61,1.24,11.92,11.92,0,0,0-3.66,3.12A24.34,24.34,0,0,0,53.15,16.83Z"/><ellipse class="cls-5" cx="16.44" cy="43.72" rx="6.51" ry="4.01"/><ellipse class="cls-6" cx="79.56" cy="43.72" rx="6.51" ry="4.01"/><path d="M56.19,60.2A5.4,5.4,0,0,1,54,66a11.74,11.74,0,0,1-6.08,1.78,12.23,12.23,0,0,1-3.19-.39,10.36,10.36,0,0,1-1.51-.52c-.24-.1-.49-.21-.72-.33a5.67,5.67,0,0,1-.77-.45,5.27,5.27,0,0,1-1.91-2.78,5.93,5.93,0,0,1,0-3.1,9,9,0,0,0,1.09,2.63,4.45,4.45,0,0,0,1.83,1.64,8.85,8.85,0,0,0,1.2.4c.43.11.87.21,1.31.29a14,14,0,0,0,2.66.21,14.71,14.71,0,0,0,5.22-1A5.86,5.86,0,0,0,56.19,60.2Z"/></svg>