<svg id="图层_1" data-name="图层 1" xmlns="http://www.w3.org/2000/svg" viewBox="0 0 96 96"><defs><style>.cls-1,.cls-5{fill:#ffcb55;}.cls-2{fill:#1c1c1c;}.cls-3{fill:#ff9855;}.cls-4{fill:none;stroke-linecap:round;stroke-linejoin:round;stroke-width:3.6px;}.cls-4,.cls-5{stroke:#1c1c1c;}.cls-5{stroke-miterlimit:10;stroke-width:2.4px;}.cls-6{fill:#fff;}.cls-7{fill:#ee2d2c;}</style></defs><title>可爱</title><path class="cls-1" d="M57.64,82.71a68.61,68.61,0,0,1-9.65.67,67.24,67.24,0,0,1-34.85-9.44l-.44-.26-.24-.47a60.74,60.74,0,0,1-1.77-50.53l.21-.51.46-.31A66.9,66.9,0,0,1,48,11.31,66.94,66.94,0,0,1,84.64,21.86l.46.31.21.51a60.74,60.74,0,0,1-1.77,50.53l-.23.46-.45.27A62.61,62.61,0,0,1,72.1,79.12L65,90.05Z"/><path class="cls-2" d="M48,13.11A65.36,65.36,0,0,1,83.65,23.37a58.94,58.94,0,0,1-1.72,49,61.27,61.27,0,0,1-11,5.24l-6.26,9.57L58.28,80.8A68.07,68.07,0,0,1,48,81.58,65.62,65.62,0,0,1,14.07,72.4a58.94,58.94,0,0,1-1.72-49A65.29,65.29,0,0,1,48,13.11m0-3.6A68.61,68.61,0,0,0,10.38,20.36l-.93.6L9,22a62.51,62.51,0,0,0,1.83,52l.46.93.89.53A69.05,69.05,0,0,0,48,85.18a72.77,72.77,0,0,0,9-.56l5.11,5.13,3.13,3.14,2.43-3.71,5.62-8.58A65.65,65.65,0,0,0,83.8,75.48l.88-.54.46-.92A62.51,62.51,0,0,0,87,22l-.42-1-.93-.6A68.65,68.65,0,0,0,48,9.51Z"/><path class="cls-3" d="M88.17,46a58.51,58.51,0,0,1-6.24,26.4,62,62,0,0,1-11,5.24L64.66,87.2l-6.38-6.4A68.07,68.07,0,0,1,48,81.58,65.62,65.62,0,0,1,14.07,72.4c12.17,3.27,38,8.69,56.57-.86a25.17,25.17,0,0,0,5.54-3.73c14.11-12.65,8.95-38,7.47-44.44A58.33,58.33,0,0,1,88.17,46Z"/><path class="cls-4" d="M76.55,59.73A42.89,42.89,0,0,1,48,70.93a42.89,42.89,0,0,1-28.55-11.2"/><path class="cls-5" d="M86.92,83.69a11.13,11.13,0,0,1-17.8-12.9L64.7,66.38a3.46,3.46,0,0,1,0-4.91h0a3.5,3.5,0,0,1,4.93,0l4.42,4.42A11.13,11.13,0,0,1,86.92,83.69Z"/><rect class="cls-5" x="67.42" y="70.36" width="8.33" height="11.73" rx="3.95" ry="3.95"/><path class="cls-5" d="M9.08,83.69a11.13,11.13,0,0,0,17.8-12.9l4.42-4.41a3.46,3.46,0,0,0,0-4.91h0a3.5,3.5,0,0,0-4.93,0L22,65.88A11.13,11.13,0,0,0,9.08,83.69Z"/><rect class="cls-5" x="20.25" y="70.36" width="8.33" height="11.73" rx="3.95" ry="3.95" transform="translate(48.84 152.45) rotate(-180)"/><circle cx="32.41" cy="37.8" r="12.36"/><circle cx="63.59" cy="37.8" r="12.36"/><circle class="cls-6" cx="66.34" cy="35.05" r="6.17"/><circle class="cls-6" cx="35.16" cy="35.05" r="6.17"/><circle class="cls-7" cx="17.25" cy="57.08" r="5.41"/><circle class="cls-7" cx="78.75" cy="57.08" r="5.41"/></svg>