<svg id="图层_1" data-name="图层 1" xmlns="http://www.w3.org/2000/svg" viewBox="0 0 96 96"><defs><style>.cls-1{fill:#ffcb55;}.cls-2{fill:#1c1c1c;}.cls-3{fill:#ff9855;}.cls-4{fill:#fff;}.cls-5{fill:#ee2d2c;}.cls-6{fill:#f45d5d;}</style></defs><title>吃惊</title><path class="cls-1" d="M58.27,81.82a70.15,70.15,0,0,1-9.65.67,67.29,67.29,0,0,1-34.85-9.44l-.44-.27-.24-.46a60.74,60.74,0,0,1-1.77-50.53l.21-.52L12,21A66.91,66.91,0,0,1,48.62,10.41,67,67,0,0,1,85.27,21l.46.3.21.52a60.74,60.74,0,0,1-1.77,50.53l-.23.46-.44.27a63.82,63.82,0,0,1-10.77,5.18L65.58,89.16Z"/><path class="cls-2" d="M48.62,12.21A65.28,65.28,0,0,1,84.28,22.48a58.94,58.94,0,0,1-1.72,49,62,62,0,0,1-11,5.24l-6.26,9.56-6.38-6.4a68.07,68.07,0,0,1-10.29.78A65.62,65.62,0,0,1,14.7,71.51a58.94,58.94,0,0,1-1.72-49A65.21,65.21,0,0,1,48.62,12.21m0-3.6A68.69,68.69,0,0,0,11,19.46l-.93.61-.42,1a62.51,62.51,0,0,0,1.83,52l.46.93.89.53a69.05,69.05,0,0,0,35.78,9.7,70.88,70.88,0,0,0,9-.57l5.11,5.14L65.87,92l2.43-3.71,5.62-8.58a65.65,65.65,0,0,0,10.51-5.12l.88-.54.46-.92a62.51,62.51,0,0,0,1.83-52l-.42-1-.93-.61A68.74,68.74,0,0,0,48.62,8.61Z"/><path class="cls-3" d="M88.8,45.1a58.52,58.52,0,0,1-6.24,26.41,61.23,61.23,0,0,1-11,5.23l-6.26,9.57-6.38-6.4a68.07,68.07,0,0,1-10.29.78A65.62,65.62,0,0,1,14.7,71.51c12.17,3.26,38,8.69,56.57-.86a24.93,24.93,0,0,0,5.54-3.73c14.11-12.65,9-38,7.47-44.44A58.32,58.32,0,0,1,88.8,45.1Z"/><circle class="cls-4" cx="32.01" cy="40.17" r="10.2"/><path class="cls-2" d="M32,30.87a9.3,9.3,0,1,1-9.3,9.3,9.32,9.32,0,0,1,9.3-9.3m0-1.8a11.1,11.1,0,1,0,11.1,11.1A11.1,11.1,0,0,0,32,29.07Z"/><path class="cls-4" d="M65.21,50.37a10.2,10.2,0,1,1,10.2-10.2A10.2,10.2,0,0,1,65.21,50.37Z"/><path class="cls-2" d="M65.21,30.87a9.3,9.3,0,1,1-9.3,9.3,9.32,9.32,0,0,1,9.3-9.3m0-1.8a11.1,11.1,0,1,0,11.1,11.1,11.1,11.1,0,0,0-11.1-11.1Z"/><path class="cls-5" d="M49.41,89.87c-4.53,0-8.63-6.38-9.52-14.84a33.76,33.76,0,0,1-.19-3.56c0-10,4.45-18.39,9.71-18.39s9.7,8.42,9.7,18.39A32.76,32.76,0,0,1,58.92,75C58,83.49,53.94,89.87,49.41,89.87Z"/><path d="M49.41,54.28c4,0,8.5,7.06,8.5,17.19a30.74,30.74,0,0,1-.18,3.42c-.82,7.73-4.47,13.78-8.32,13.78s-7.51-6-8.33-13.75a34.25,34.25,0,0,1-.18-3.45c0-10.13,4.49-17.19,8.51-17.19m0-2.4c-6,0-10.91,8.77-10.91,19.59a36.88,36.88,0,0,0,.19,3.69c1,9.06,5.39,15.91,10.72,15.91s9.74-6.85,10.7-15.92a31.55,31.55,0,0,0,.2-3.68c0-10.82-4.89-19.59-10.9-19.59Z"/><path class="cls-6" d="M49.41,89.87c-4.4,0-8.39-6-9.44-14.11a18.55,18.55,0,0,1,18.86,0C57.79,83.85,53.8,89.87,49.41,89.87Z"/><path d="M49.41,74.38a17,17,0,0,1,8.12,2c-1.1,7-4.52,12.29-8.12,12.29s-7-5.28-8.13-12.28a16.86,16.86,0,0,1,8.13-2m0-2.4a19.08,19.08,0,0,0-10.72,3.18c1,9.06,5.39,15.91,10.72,15.91s9.74-6.85,10.7-15.92A19.11,19.11,0,0,0,49.41,72Z"/></svg>