<svg id="图层_1" data-name="图层 1" xmlns="http://www.w3.org/2000/svg" xmlns:xlink="http://www.w3.org/1999/xlink" viewBox="0 0 96 96"><defs><style>.cls-1{fill:#ffcb55;}.cls-2{fill:#1c1c1c;}.cls-3{fill:#ff9855;}.cls-4{opacity:0.75;fill:url(#未命名的渐变_66);}.cls-5{fill:url(#未命名的渐变_63);}.cls-6{opacity:0.3;}.cls-7{fill:#0f1780;}</style><linearGradient id="未命名的渐变_66" x1="48.15" y1="55.01" x2="48.15" y2="32.24" gradientUnits="userSpaceOnUse"><stop offset="0.07" stop-color="#f0cb4c" stop-opacity="0"/><stop offset="1" stop-color="#0f1780"/></linearGradient><linearGradient id="未命名的渐变_63" x1="48.35" y1="92.24" x2="48.35" y2="55.87" gradientUnits="userSpaceOnUse"><stop offset="0" stop-color="#5dadf5"/><stop offset="1" stop-color="#4580d2"/></linearGradient></defs><title>吐</title><path class="cls-1" d="M57.64,81.83A70.15,70.15,0,0,1,48,82.5a67.36,67.36,0,0,1-34.85-9.44l-.44-.27-.24-.46a60.76,60.76,0,0,1-1.77-50.54l.21-.51.46-.3A66.83,66.83,0,0,1,48,10.42,66.87,66.87,0,0,1,84.64,21l.46.3.21.51a60.76,60.76,0,0,1-1.77,50.54l-.23.46-.45.27A63.72,63.72,0,0,1,72.1,78.24L65,89.16Z"/><path class="cls-2" d="M48,12.22A65.28,65.28,0,0,1,83.65,22.49a58.94,58.94,0,0,1-1.72,49,61.23,61.23,0,0,1-11,5.23l-6.26,9.57-6.38-6.4A68.07,68.07,0,0,1,48,80.7a65.62,65.62,0,0,1-33.92-9.18,58.94,58.94,0,0,1-1.72-49A65.21,65.21,0,0,1,48,12.22m0-3.6A68.61,68.61,0,0,0,10.38,19.47l-.93.61L9,21.1a62.51,62.51,0,0,0,1.83,52l.46.92.89.54A69.15,69.15,0,0,0,48,84.3a70.88,70.88,0,0,0,9-.57l5.11,5.13L65.24,92l2.43-3.72,5.62-8.58A64,64,0,0,0,83.8,74.59l.88-.53.46-.92A62.51,62.51,0,0,0,87,21.1l-.42-1-.93-.61A68.65,68.65,0,0,0,48,8.62Z"/><path class="cls-3" d="M88.17,45.11a58.52,58.52,0,0,1-6.24,26.41,61.92,61.92,0,0,1-11,5.23l-6.26,9.57-6.38-6.41A66.8,66.8,0,0,1,48,80.69a65.62,65.62,0,0,1-33.92-9.17c12.17,3.26,38,8.69,56.57-.86a25.52,25.52,0,0,0,5.54-3.73c14.11-12.65,8.95-38,7.47-44.45A58.37,58.37,0,0,1,88.17,45.11Z"/><path class="cls-4" d="M18.09,51.52c-3.81-4.35-3.6-10.92-2.65-16.07a169.2,169.2,0,0,1,65.54,0c.77,4.71,1.08,11.74-3.09,16.27-4,4.36-9.14,3.15-28.7,3.1C27.79,54.77,22.18,56.19,18.09,51.52Z"/><path class="cls-5" d="M63.87,92.24a17.43,17.43,0,0,1-6.65-1.35,24.36,24.36,0,0,0-5.74-1.5,22.69,22.69,0,0,0-2.9-.2A22.73,22.73,0,0,0,41,90.65a23,23,0,0,1-7.59,1.48,21.62,21.62,0,0,1-3.74-.35c-1.15-.21-11.33-2.2-12.5-8-.42-2.1.56-3.64,1.43-5A7.2,7.2,0,0,0,20.16,74a6.79,6.79,0,0,0-.75-2.53A40.36,40.36,0,0,1,17.2,65a12.57,12.57,0,0,1-.09-5.71,4,4,0,0,1,3.95-3.38H74.78a2.33,2.33,0,0,1,2,1.09,2.38,2.38,0,0,1,.12,2.31,10.88,10.88,0,0,0-1.17,5,11.28,11.28,0,0,0,1.76,5.44,20.5,20.5,0,0,1,1.76,4c1.25,4.08.7,8.8-1.63,14a1.2,1.2,0,0,1-.47.53,25.41,25.41,0,0,1-12.39,4Z"/><path d="M74.78,57.07a1.15,1.15,0,0,1,1,1.67,12.21,12.21,0,0,0-1.29,5.54c.08,4.08,2.44,6,3.58,9.73.84,2.75,1.18,7-1.59,13.19A24.5,24.5,0,0,1,64.69,91l-.82,0C58.81,91,57.43,89,51.64,88.2A24.47,24.47,0,0,0,48.58,88c-6.4,0-9.37,2.94-15.19,2.94a20,20,0,0,1-3.52-.33c-.63-.12-10.52-2-11.54-7-.69-3.42,3.39-4.82,3-9.7-.18-2.47-1.28-2.71-3-9.21a11.34,11.34,0,0,1-.06-5.24,2.79,2.79,0,0,1,2.76-2.34H74.78m0-2.4H21.06a5.15,5.15,0,0,0-5.13,4.38A13.69,13.69,0,0,0,16,65.27a42.09,42.09,0,0,0,2.27,6.63A5.65,5.65,0,0,1,19,74a6.12,6.12,0,0,1-1.4,4.12c-.94,1.47-2.12,3.3-1.6,5.88,1.3,6.42,11.45,8.56,13.47,8.92a22,22,0,0,0,3.95.37,24.27,24.27,0,0,0,8-1.53,21.46,21.46,0,0,1,7.23-1.41,22.32,22.32,0,0,1,2.75.19A24.24,24.24,0,0,1,56.81,92a18.35,18.35,0,0,0,7.06,1.43l.92,0a26.6,26.6,0,0,0,13-4.18,2.33,2.33,0,0,0,.93-1.06c2.46-5.51,3-10.51,1.69-14.87a22.87,22.87,0,0,0-1.85-4.18,10.23,10.23,0,0,1-1.62-4.9,9.63,9.63,0,0,1,1-4.44,3.55,3.55,0,0,0-.18-3.46,3.51,3.51,0,0,0-3-1.66Z"/><g class="cls-6"><path class="cls-7" d="M76.5,87.2a33.85,33.85,0,0,1-6.18,3.06c4.5-8.11,4.19-13.11,2.92-16.25-1.39-3.44-3.5-6.07-3.58-9.73A12.11,12.11,0,0,1,71,58.74a1.16,1.16,0,0,0-1-1.68h4.84a1.16,1.16,0,0,1,1,1.68,12.11,12.11,0,0,0-1.29,5.54c.08,4.08,2.44,6,3.58,9.73C78.93,76.75,79.27,81,76.5,87.2Z"/></g><path class="cls-2" d="M15.44,35.45a79.51,79.51,0,0,1,16.17-3.86,120.38,120.38,0,0,1,33.2,0A78.85,78.85,0,0,1,81,35.45c-5.53-.44-11-.82-16.43-1.06S53.66,34.06,48.21,34s-10.89.1-16.34.34S21,35,15.44,35.45Z"/></svg>