<svg id="图层_1" data-name="图层 1" xmlns="http://www.w3.org/2000/svg" viewBox="0 0 96 96"><defs><style>.cls-1,.cls-6{fill:#ffcb55;}.cls-2{fill:#1c1c1c;}.cls-3{fill:#ff9855;}.cls-4{fill:#f45d5d;}.cls-5{fill:none;stroke:#000;stroke-linecap:round;stroke-linejoin:round;stroke-width:3.6px;}.cls-6{fill-rule:evenodd;}</style></defs><title>哈欠</title><path class="cls-1" d="M57.64,82.54A70.14,70.14,0,0,1,48,83.2a67.36,67.36,0,0,1-34.85-9.43l-.44-.27L12.46,73A60.76,60.76,0,0,1,10.69,22.5L10.9,22l.46-.3A66.83,66.83,0,0,1,48,11.13,66.87,66.87,0,0,1,84.64,21.69l.46.3.21.51A60.76,60.76,0,0,1,83.54,73l-.23.46-.44.26A63.46,63.46,0,0,1,72.1,79L65,89.87Z"/><path class="cls-2" d="M48,12.93A65.28,65.28,0,0,1,83.65,23.2a58.94,58.94,0,0,1-1.72,49,61.23,61.23,0,0,1-11,5.23L64.66,87l-6.38-6.41A66.8,66.8,0,0,1,48,81.4a65.62,65.62,0,0,1-33.92-9.17,58.94,58.94,0,0,1-1.72-49A65.21,65.21,0,0,1,48,12.93m0-3.6A68.61,68.61,0,0,0,10.38,20.18l-.93.6-.42,1a62.51,62.51,0,0,0,1.83,52l.46.92.89.54A69.14,69.14,0,0,0,48,85a72.77,72.77,0,0,0,9-.56l5.11,5.13,3.13,3.14L67.67,89l5.62-8.58A64,64,0,0,0,83.8,75.3l.88-.53.46-.92a62.51,62.51,0,0,0,1.83-52l-.42-1-.93-.6A68.65,68.65,0,0,0,48,9.33Z"/><path class="cls-3" d="M88.17,45.82a58.45,58.45,0,0,1-6.24,26.4,61.27,61.27,0,0,1-11,5.24L64.66,87l-6.38-6.41A68.07,68.07,0,0,1,48,81.4a65.62,65.62,0,0,1-33.92-9.18c12.17,3.27,38,8.69,56.57-.86a25.18,25.18,0,0,0,5.54-3.72c14.11-12.65,8.95-38,7.47-44.45A58.33,58.33,0,0,1,88.17,45.82Z"/><path class="cls-4" d="M48,75.34c-17.81,0-32.3-12-32.3-26.75a22.43,22.43,0,0,1,.9-6.31C24,35.53,35.71,31.51,48,31.51s24,4,31.4,10.77a22.43,22.43,0,0,1,.9,6.31C80.3,63.34,65.81,75.34,48,75.34Z"/><path d="M48,32.71c11.86,0,23.14,3.81,30.34,10.23a21.14,21.14,0,0,1,.76,5.65c0,14.09-13.95,25.55-31.1,25.55S16.9,62.68,16.9,48.59a21.14,21.14,0,0,1,.76-5.65C24.86,36.52,36.14,32.71,48,32.71m0-2.4c-13.3,0-25.09,4.45-32.46,11.31a23.81,23.81,0,0,0-1,7c0,15.43,15,28,33.5,28S81.5,64,81.5,48.59a23.81,23.81,0,0,0-1-7C73.09,34.76,61.3,30.31,48,30.31Z"/><line class="cls-5" x1="33.35" y1="21.63" x2="19.45" y2="27.93"/><line class="cls-5" x1="62.65" y1="21.63" x2="76.55" y2="27.93"/><path class="cls-1" d="M19.53,89.17a10.74,10.74,0,0,1-7.91-3.49l-.15-.16A10.73,10.73,0,0,1,13,69.71L34.26,53.88A8.68,8.68,0,0,1,39,52.48,8.17,8.17,0,0,1,44,54.22,8.48,8.48,0,0,1,45.9,65.11l-.06.1L27.49,85.62A10.69,10.69,0,0,1,19.53,89.17Z"/><path class="cls-2" d="M39,53.68a6.92,6.92,0,0,1,4.33,1.48,7.29,7.29,0,0,1,1.57,9.34L26.6,84.82a9.5,9.5,0,0,1-14.09.05l-.14-.15a9.5,9.5,0,0,1,1.34-14L35,54.84a7.51,7.51,0,0,1,4-1.16m0-2.4h0a9.89,9.89,0,0,0-5.27,1.53l-.08,0-.08,0L22.91,60.83,12.27,68.75a11.92,11.92,0,0,0-1.68,17.59l.15.15a11.9,11.9,0,0,0,17.65-.07L46.65,66.11l.17-.19.12-.21a9.7,9.7,0,0,0-2.15-12.43,9.37,9.37,0,0,0-5.82-2Z"/><path class="cls-6" d="M78.2,87.26a9.13,9.13,0,1,1,9.12-9.13A9.15,9.15,0,0,1,78.2,87.26Z"/><path class="cls-2" d="M78.2,70.21a7.93,7.93,0,1,1-7.93,7.92,7.93,7.93,0,0,1,7.93-7.92m0-2.4A10.33,10.33,0,1,0,88.52,78.13,10.33,10.33,0,0,0,78.2,67.81Z"/></svg>