<svg id="图层_1" data-name="图层 1" xmlns="http://www.w3.org/2000/svg" viewBox="0 0 96 96"><defs><style>.cls-1{fill:#ffcb55;}.cls-2{fill:#1c1c1c;}.cls-3{fill:#ff9855;}.cls-4{fill:#fff;}.cls-5{fill:none;stroke:#ee2d2c;stroke-linecap:round;stroke-linejoin:round;stroke-width:1.2px;}</style></defs><title>哦吼</title><path class="cls-1" d="M57.64,82.71a68.61,68.61,0,0,1-9.65.67,67.27,67.27,0,0,1-34.85-9.44l-.44-.26-.24-.47a60.74,60.74,0,0,1-1.77-50.53l.21-.51.46-.31A66.9,66.9,0,0,1,48,11.31,66.94,66.94,0,0,1,84.64,21.86l.46.31.21.51a60.74,60.74,0,0,1-1.77,50.53l-.23.46-.44.27A63.43,63.43,0,0,1,72.1,79.12L65,90.05Z"/><path class="cls-2" d="M48,13.11A65.36,65.36,0,0,1,83.65,23.37a58.94,58.94,0,0,1-1.72,49,61.27,61.27,0,0,1-11,5.24l-6.26,9.57L58.28,80.8A68.07,68.07,0,0,1,48,81.58,65.62,65.62,0,0,1,14.07,72.4a58.94,58.94,0,0,1-1.72-49A65.29,65.29,0,0,1,48,13.11m0-3.6A68.61,68.61,0,0,0,10.38,20.36l-.93.6L9,22a62.51,62.51,0,0,0,1.83,52l.46.93.89.53A69.05,69.05,0,0,0,48,85.18a72.77,72.77,0,0,0,9-.56l5.11,5.13,3.13,3.14,2.43-3.71,5.62-8.58A65.65,65.65,0,0,0,83.8,75.48l.88-.54.46-.92A62.51,62.51,0,0,0,87,22l-.42-1-.93-.6A68.65,68.65,0,0,0,48,9.51Z"/><path class="cls-3" d="M88.17,46a58.51,58.51,0,0,1-6.24,26.4,62,62,0,0,1-11,5.24L64.66,87.2l-6.38-6.4A68.07,68.07,0,0,1,48,81.58,65.62,65.62,0,0,1,14.07,72.4c12.17,3.27,38,8.69,56.57-.86a25.17,25.17,0,0,0,5.54-3.73c14.11-12.65,8.95-38,7.47-44.44A58.33,58.33,0,0,1,88.17,46Z"/><path class="cls-4" d="M26.17,49A23.4,23.4,0,0,1,20,48.14,3.67,3.67,0,0,1,17.62,46a3.87,3.87,0,0,1,3.57-5.37,4,4,0,0,1,1,.13,15.62,15.62,0,0,0,18-8.21,3.94,3.94,0,0,1,3.52-2.28,3.26,3.26,0,0,1,.7.07,3.86,3.86,0,0,1,2.77,5.46A23.14,23.14,0,0,1,26.17,49Z"/><path d="M43.7,31.45h0a2.61,2.61,0,0,1,.48.05,2.64,2.64,0,0,1,1.89,1.42,2.62,2.62,0,0,1,0,2.33A22.1,22.1,0,0,1,20.36,47a2.43,2.43,0,0,1-1.63-1.46,2.71,2.71,0,0,1,.16-2.4,2.61,2.61,0,0,1,2.3-1.31,2.82,2.82,0,0,1,.71.09,16.82,16.82,0,0,0,19.36-8.85,2.75,2.75,0,0,1,2.44-1.6m0-2.4A5.18,5.18,0,0,0,39.1,32a14.42,14.42,0,0,1-16.59,7.58,5.43,5.43,0,0,0-1.32-.17,5,5,0,0,0-4.38,2.52h0a5,5,0,0,0,2.93,7.36,24.52,24.52,0,0,0,28.52-13,5.06,5.06,0,0,0-3.62-7.16,4.88,4.88,0,0,0-.93-.09Z"/><path d="M48.25,36.3A24.57,24.57,0,0,1,37.32,47.49a7,7,0,0,1-10.11-6.13v-.1c0-.42,0-.84.06-1.24A14.45,14.45,0,0,0,39.1,32a5.12,5.12,0,0,1,5.53-2.86A5.06,5.06,0,0,1,48.25,36.3Z"/><path d="M84.2,38.46a13.88,13.88,0,0,1-3.68,9.42c-3.26.22-6.68.36-10.19.36-.6,0-1.2,0-1.79,0a55.26,55.26,0,0,1-1.8-14.34,57.65,57.65,0,0,1,.69-9,14.55,14.55,0,0,1,2.9-.3A13.87,13.87,0,0,1,84.2,38.46Z"/><path class="cls-4" d="M67,47c-2.11,0-4.22-.15-6.3-.29A12.68,12.68,0,0,1,66,26.55a59,59,0,0,0-.45,7.33A57.58,57.58,0,0,0,67,47Z"/><path d="M64.57,28.54c-.15,1.75-.23,3.54-.23,5.34A60,60,0,0,0,65.5,45.75c-1.41,0-2.81-.11-4.2-.2a11.47,11.47,0,0,1,3.27-17m2.86-3.66a13.89,13.89,0,0,0-7.3,23c2.71.19,5.53.31,8.41.34a55.26,55.26,0,0,1-1.8-14.34,57.65,57.65,0,0,1,.69-9Z"/><path d="M55.65,64.34a2.44,2.44,0,0,0,.45,1.83,2.73,2.73,0,0,0,1.83,1,3,3,0,0,0,2.25-.63,3.31,3.31,0,0,0,1.23-2.25A3.67,3.67,0,0,1,60.6,67a3.89,3.89,0,0,1-2.67,1.4,4.22,4.22,0,0,1-3.1-1,4.51,4.51,0,0,1-1.58-3.1v-.11a1.21,1.21,0,1,1,2.42-.18A1.38,1.38,0,0,1,55.65,64.34Z"/><path d="M55.65,64.34a5.48,5.48,0,0,1-1.85,3.75,5.11,5.11,0,0,1-3.75,1.25,4.86,4.86,0,0,1-3.33-1.67,4.56,4.56,0,0,1-1.07-3.33,4.17,4.17,0,0,0,1.5,2.9,3.88,3.88,0,0,0,2.9.9,3.59,3.59,0,0,0,2.47-1.32,3.33,3.33,0,0,0,.73-2.48,1.21,1.21,0,0,1,2.4-.29.81.81,0,0,1,0,.22Z"/><line class="cls-5" x1="16.48" y1="62.33" x2="23.16" y2="55.64"/><line class="cls-5" x1="19.14" y1="62.33" x2="25.83" y2="55.64"/><line class="cls-5" x1="21.81" y1="62.33" x2="28.49" y2="55.64"/><line class="cls-5" x1="24.47" y1="62.33" x2="31.15" y2="55.64"/><line class="cls-5" x1="27.13" y1="62.33" x2="33.82" y2="55.64"/><line class="cls-5" x1="66.7" y1="62.33" x2="73.38" y2="55.64"/><line class="cls-5" x1="69.36" y1="62.33" x2="76.05" y2="55.64"/><line class="cls-5" x1="72.03" y1="62.33" x2="78.71" y2="55.64"/><line class="cls-5" x1="74.69" y1="62.33" x2="81.37" y2="55.64"/><line class="cls-5" x1="77.36" y1="62.33" x2="84.04" y2="55.64"/></svg>