<svg id="图层_1" data-name="图层 1" xmlns="http://www.w3.org/2000/svg" viewBox="0 0 96 96"><defs><style>.cls-1{fill:#ffcb55;}.cls-2{fill:#f95;}.cls-3{fill:#1c1c1c;}.cls-4{fill:none;stroke:#1c1c1c;stroke-miterlimit:10;stroke-width:3.36px;}</style></defs><title>大拇指</title><path class="cls-1" d="M86.17,48a.13.13,0,0,0,0,.18,6.28,6.28,0,0,1,1.95,4.13,6.51,6.51,0,0,1-2.19,5,.12.12,0,0,0,0,.16,6.31,6.31,0,0,1,.85,4,6.5,6.5,0,0,1-2.53,4.32.12.12,0,0,0,0,.11A8.45,8.45,0,0,1,84,69a8.8,8.8,0,0,1-2.61,4.38,3.89,3.89,0,0,1-.77.56A64.49,64.49,0,0,1,65.23,80.4a68,68,0,0,1-18.08,2.41A65.88,65.88,0,0,1,13.87,74a2.61,2.61,0,0,1-1-1.05A57.49,57.49,0,0,1,8.3,59.81c-.23-1.05-.44-2.13-.6-3.2h.09a61.5,61.5,0,0,0,31-8.14,2.49,2.49,0,0,0,1-1,54.84,54.84,0,0,0,2.71-6.63,54.79,54.79,0,0,0,2.81-17.37,54,54,0,0,0-.73-9,.13.13,0,0,1,.13-.15h2.51a14,14,0,0,1,14,13.77c0,.14,0,.28,0,.41a55.2,55.2,0,0,1-.76,9.15A2.45,2.45,0,0,0,63,40.53a188.83,188.83,0,0,0,20.13-2.32,4.41,4.41,0,0,1,5.19,4.15v.07A8.23,8.23,0,0,1,86.17,48Z"/><path class="cls-2" d="M86.17,48a.14.14,0,0,0,0,.18,6.28,6.28,0,0,1,1.95,4.13,6.44,6.44,0,0,1-2.19,5,.14.14,0,0,0,0,.16,6.25,6.25,0,0,1,.86,4,6.46,6.46,0,0,1-2.54,4.32.11.11,0,0,0,0,.11,8.48,8.48,0,0,1-.16,3,8.79,8.79,0,0,1-2.59,4.39,4.82,4.82,0,0,1-.78.56A64.58,64.58,0,0,1,65.24,80.4a68.53,68.53,0,0,1-18.09,2.41A65.92,65.92,0,0,1,13.86,74a2.55,2.55,0,0,1-1-1.06c-.35-.7-.68-1.42-1-2.15a66.43,66.43,0,0,0,29.47,6.73c4.94,0,9.32-.8,18.09-2.42,4.88-.89,14.16-2.81,17.21-7.26a9.77,9.77,0,0,0,1.6-4.19,8.54,8.54,0,0,0-.84-4.39A6,6,0,0,0,81,56.24a6.2,6.2,0,0,0-1.55-6.87,5,5,0,0,0,2.91-2.29c1.18-2.29,0-5.89-3.3-8.22l3.41-.54a4.21,4.21,0,0,1,.65-.11,4.43,4.43,0,0,1,5.2,4.15v.08A8.22,8.22,0,0,1,86.17,48Z"/><polygon class="cls-3" points="65.99 51.91 85.88 47.01 86.3 49.21 65.99 51.91"/><polygon class="cls-2" points="66.16 51.88 85.95 48.3 86.22 50.53 66.16 51.88"/><polygon class="cls-2" points="67.09 61.58 86.89 58 87.17 60.22 67.09 61.58"/><polygon class="cls-2" points="66.84 70.51 83.39 67.11 83.7 69.33 66.84 70.51"/><polygon class="cls-3" points="66.84 61.63 85.61 56.35 86.09 58.53 66.84 61.63"/><polygon class="cls-3" points="66.55 70.59 83.89 64.78 84.47 66.94 66.55 70.59"/><path class="cls-4" d="M86.17,48a.13.13,0,0,0,0,.18,6.28,6.28,0,0,1,1.95,4.13,6.51,6.51,0,0,1-2.19,5,.12.12,0,0,0,0,.16,6.31,6.31,0,0,1,.85,4,6.5,6.5,0,0,1-2.53,4.32.12.12,0,0,0,0,.11A8.45,8.45,0,0,1,84,69a8.8,8.8,0,0,1-2.61,4.38,3.89,3.89,0,0,1-.77.56A64.49,64.49,0,0,1,65.23,80.4a68,68,0,0,1-18.08,2.41A65.88,65.88,0,0,1,13.87,74a2.61,2.61,0,0,1-1-1.05A57.49,57.49,0,0,1,8.3,59.81c-.23-1.05-.44-2.13-.6-3.2h.09a61.5,61.5,0,0,0,31-8.14,2.49,2.49,0,0,0,1-1,54.84,54.84,0,0,0,2.71-6.63,54.79,54.79,0,0,0,2.81-17.37,54,54,0,0,0-.73-9,.13.13,0,0,1,.13-.15h2.51a14,14,0,0,1,14,13.77c0,.14,0,.28,0,.41a55.2,55.2,0,0,1-.76,9.15A2.45,2.45,0,0,0,63,40.53a188.83,188.83,0,0,0,20.13-2.32,4.41,4.41,0,0,1,5.19,4.15v.07A8.23,8.23,0,0,1,86.17,48Z"/></svg>