<svg id="图层_1" data-name="图层 1" xmlns="http://www.w3.org/2000/svg" viewBox="0 0 96 96"><defs><style>.cls-1{fill:#fc5;}.cls-2{fill:#1c1c1c;}.cls-3{fill:#f95;}</style></defs><title>小拇指</title><path class="cls-1" d="M49.29,85.6c-15.19,0-27.54-12.12-27.54-27s12.35-27,27.54-27a28,28,0,0,1,12,2.72V18.15a7.51,7.51,0,0,1,2.12-5.5,7.2,7.2,0,0,1,5.15-2.26,5.06,5.06,0,0,1,.55,0,7.46,7.46,0,0,1,6.57,8V57.48a25.81,25.81,0,0,1-.35,4.27C73.16,75.57,62.18,85.6,49.29,85.6Z"/><path class="cls-2" d="M68.6,12.19H69a5.65,5.65,0,0,1,4.92,6.14V57.48a23.72,23.72,0,0,1-.32,4C71.66,73.5,62.12,83.8,49.29,83.8c-14.22,0-25.74-11.29-25.74-25.22A25.48,25.48,0,0,1,49.29,33.35a25.94,25.94,0,0,1,13.84,4V18.15a5.68,5.68,0,0,1,5.47-6m0-3.6h0a9,9,0,0,0-6.45,2.81,9.33,9.33,0,0,0-2.62,6.82V31.56a29.8,29.8,0,0,0-10.24-1.81C33.11,29.75,20,42.68,20,58.58S33.11,87.4,49.29,87.4c13.78,0,25.5-10.67,27.86-25.38a27.82,27.82,0,0,0,.37-4.54v-39A9.28,9.28,0,0,0,69.3,8.62c-.23,0-.47,0-.7,0Z"/><path class="cls-3" d="M73.94,17.72l0,39.76a23.72,23.72,0,0,1-.32,4C71.66,73.5,62.12,83.8,49.29,83.8a25.87,25.87,0,0,1-20.56-10,26,26,0,0,0,15.88,5.37A25.57,25.57,0,0,0,70,57.88a23.81,23.81,0,0,0,.32-4q0-20.7,0-41.39a5.65,5.65,0,0,1,2.26,1.65A5.92,5.92,0,0,1,73.94,17.72Z"/><path class="cls-1" d="M37.47,62.26a8.12,8.12,0,0,1-7.77-5.88l-3-10.59a8.09,8.09,0,0,1,5.58-10,8.28,8.28,0,0,1,2.29-.33,8.12,8.12,0,0,1,7.78,5.89l3,10.58a8.08,8.08,0,0,1-5.59,10A8.23,8.23,0,0,1,37.47,62.26Z"/><path class="cls-2" d="M34.59,37.3a6.29,6.29,0,0,1,6,4.57l3,10.58a6.27,6.27,0,0,1-4.33,7.75l-.1,0a6.29,6.29,0,0,1-7.74-4.34l-3-10.58a6.29,6.29,0,0,1,4.34-7.75l.1,0a6.29,6.29,0,0,1,1.7-.24m0-3.6h0a9.79,9.79,0,0,0-2.68.37l-.09,0A9.87,9.87,0,0,0,25,46.28l3,10.58a9.91,9.91,0,0,0,9.5,7.2,9.81,9.81,0,0,0,2.69-.37l.09,0a9.87,9.87,0,0,0,6.83-12.18l-3-10.58a9.92,9.92,0,0,0-9.51-7.2Z"/><path class="cls-1" d="M46.32,58.85a8.51,8.51,0,0,1-8.4-7.36L36.33,39.63a8.49,8.49,0,0,1,7.28-9.54l.24,0A8.74,8.74,0,0,1,45,30a8.51,8.51,0,0,1,8.4,7.36L55,49.2a8.5,8.5,0,0,1-7.28,9.54l-.24,0A8.74,8.74,0,0,1,46.32,58.85Z"/><path class="cls-2" d="M45,31.78a6.69,6.69,0,0,1,6.62,5.8L53.2,49.44A6.7,6.7,0,0,1,47.46,57l-.24,0a6.8,6.8,0,0,1-.9.06,6.69,6.69,0,0,1-6.62-5.8L38.11,39.39a6.68,6.68,0,0,1,5.74-7.51l.24,0a6.8,6.8,0,0,1,.9-.06m0-3.6h0a9.15,9.15,0,0,0-1.38.1l-.24,0a10.28,10.28,0,0,0-8.83,11.56l1.59,11.86a10.33,10.33,0,0,0,10.19,8.92,10.66,10.66,0,0,0,1.38-.09l.24,0A10.28,10.28,0,0,0,56.77,49L55.18,37.1A10.33,10.33,0,0,0,45,28.18Z"/><path class="cls-1" d="M53.83,58.05a7.69,7.69,0,0,1-7.72-7.53L45.8,38.69a7.74,7.74,0,0,1,7.52-7.93h.3a7.69,7.69,0,0,1,7.73,7.53l.31,11.83A7.74,7.74,0,0,1,54.13,58Z"/><path class="cls-2" d="M53.63,32.55a5.94,5.94,0,0,1,5.92,5.78l.31,11.83a5.93,5.93,0,0,1-5.77,6.08h-.26a5.93,5.93,0,0,1-5.92-5.78L47.6,38.64a5.93,5.93,0,0,1,5.77-6.08h.26m0-3.6h-.35A9.53,9.53,0,0,0,44,38.73l.31,11.84a9.47,9.47,0,0,0,9.52,9.28h.35a9.55,9.55,0,0,0,9.28-9.77l-.31-11.84A9.48,9.48,0,0,0,53.63,29Z"/><path class="cls-1" d="M30.35,75.57A10.75,10.75,0,0,1,24.26,56L37,47.24A10.75,10.75,0,0,1,49.12,65L36.41,73.68a10.6,10.6,0,0,1-6.06,1.89Z"/><path class="cls-2" d="M43,47.16a8.95,8.95,0,0,1,5.07,16.33L35.4,72.2A8.95,8.95,0,0,1,25.28,57.44L38,48.73a8.9,8.9,0,0,1,5-1.57m0-3.6A12.48,12.48,0,0,0,36,45.76L23.24,54.47a12.55,12.55,0,1,0,14.19,20.7l12.71-8.71A12.55,12.55,0,0,0,43,43.56Z"/></svg>