<svg id="图层_1" data-name="图层 1" xmlns="http://www.w3.org/2000/svg" xmlns:xlink="http://www.w3.org/1999/xlink" viewBox="0 0 96 96"><defs><style>.cls-1{fill:#ffcb55;}.cls-2{fill:#1c1c1c;}.cls-3{fill:#ff9855;}.cls-4{fill:#cb9029;}.cls-5{fill:#b1781b;}.cls-6{fill:#ffbe4d;}.cls-7{fill:#ffb433;}.cls-8{fill:url(#未命名的渐变_3);}.cls-9{fill:url(#未命名的渐变_3-2);}.cls-10{fill:#ff4d4d;}.cls-11{fill:#ed2d2c;}</style><radialGradient id="未命名的渐变_3" cx="21.57" cy="55.32" r="7.03" gradientUnits="userSpaceOnUse"><stop offset="0" stop-color="#ff433b"/><stop offset="0.38" stop-color="#ff7c46"/><stop offset="0.8" stop-color="#ffb651"/><stop offset="1" stop-color="#fc5"/></radialGradient><radialGradient id="未命名的渐变_3-2" cx="74.24" cy="55.32" r="7.03" xlink:href="#未命名的渐变_3"/></defs><title>小黄鸡</title><path class="cls-1" d="M57.24,86.91a67.58,67.58,0,0,1-9.25.64,64.78,64.78,0,0,1-33.53-9.08L14,78.2l-.24-.46a58.47,58.47,0,0,1-1.71-48.63l.22-.51.46-.3A64.26,64.26,0,0,1,48,18.14,64.28,64.28,0,0,1,83.25,28.3l.46.3.22.51a58.47,58.47,0,0,1-1.71,48.63L82,78.2l-.45.27a60.9,60.9,0,0,1-10.33,5L64.3,94Z"/><path class="cls-2" d="M48,19.94a62.77,62.77,0,0,1,34.28,9.87,56.65,56.65,0,0,1-1.66,47.12A59.49,59.49,0,0,1,70,82l-6,9.2L57.88,85a65.48,65.48,0,0,1-9.89.75,63.12,63.12,0,0,1-32.6-8.82,56.65,56.65,0,0,1-1.66-47.12A62.7,62.7,0,0,1,48,19.94m0-3.6A66,66,0,0,0,11.77,26.79l-.93.6-.43,1a60.25,60.25,0,0,0,1.77,50.14l.46.92.89.54A66.56,66.56,0,0,0,48,89.35a68.4,68.4,0,0,0,8.61-.54l4.86,4.89,3.14,3.14L67,93.13l5.37-8.21A62.4,62.4,0,0,0,82.48,80l.88-.53.46-.92a60.25,60.25,0,0,0,1.77-50.14l-.43-1-.93-.6A66.06,66.06,0,0,0,48,16.34Z"/><path class="cls-3" d="M86.61,51.55a56.19,56.19,0,0,1-6,25.38A59.49,59.49,0,0,1,70,82l-6,9.19L57.88,85a65.48,65.48,0,0,1-9.89.75,63.12,63.12,0,0,1-32.6-8.82c11.7,3.13,36.55,8.35,54.37-.83a24.48,24.48,0,0,0,5.32-3.58C88.65,60.36,83.68,36,82.27,29.8A56.17,56.17,0,0,1,86.61,51.55Z"/><path class="cls-4" d="M47.91,71.05a.93.93,0,0,1-.64-.26L34.11,57.63a.9.9,0,0,1,0-1.27L47.27,43.2a.89.89,0,0,1,.64-.26.85.85,0,0,1,.63.26L61.7,56.36a.9.9,0,0,1,0,1.27L48.54,70.79A.89.89,0,0,1,47.91,71.05Z"/><path class="cls-2" d="M47.91,43.83,61.06,57,47.91,70.15,34.75,57,47.91,43.83m0-1.8a1.84,1.84,0,0,0-1.28.53L33.48,55.72a1.79,1.79,0,0,0,0,2.54L46.63,71.42a1.84,1.84,0,0,0,1.28.53,1.8,1.8,0,0,0,1.27-.53L62.34,58.26a1.81,1.81,0,0,0,0-2.54L49.18,42.56A1.8,1.8,0,0,0,47.91,42Z"/><path class="cls-5" d="M47.91,70.15V61.37L61.06,57Z"/><path class="cls-6" d="M47.91,61.37,34.75,57,47.91,43.83,61.06,57Z"/><path class="cls-7" d="M47.91,61.37V43.83L61.06,57Z"/><circle class="cls-2" cx="30.16" cy="39.37" r="1.15"/><circle class="cls-2" cx="65.65" cy="39.37" r="1.15"/><circle class="cls-8" cx="21.57" cy="55.32" r="7.03"/><circle class="cls-9" cx="74.24" cy="55.32" r="7.03"/><path class="cls-10" d="M48.67,22.37a1.25,1.25,0,0,1-.84-.33,1.21,1.21,0,0,1-.36-.92A11.67,11.67,0,0,1,48,18c.91-2.78,3.72-7.2,7.42-7.2l.37,0a4.66,4.66,0,0,1,4.08,3c.58,2-.71,4.15-2.3,5.12a4.39,4.39,0,0,1-2.44.63l-.94,0a3.1,3.1,0,0,0-1.44.29A4.12,4.12,0,0,0,51,21.67a1.23,1.23,0,0,1-1,.6l-1.24.1Z"/><path class="cls-2" d="M55.44,12l.27,0a3.47,3.47,0,0,1,3,2.15A3.65,3.65,0,0,1,57,17.94a3.25,3.25,0,0,1-1.82.45l-.94,0a4.34,4.34,0,0,0-2,.4,5.51,5.51,0,0,0-2.36,2.3l-1.23.1a10.07,10.07,0,0,1,.49-2.79c.92-2.81,3.45-6.37,6.28-6.37m0-2.4c-4.37,0-7.51,4.81-8.56,8a12.81,12.81,0,0,0-.61,3.44,2.39,2.39,0,0,0,2.4,2.49h.18l.68,0,.56,0A2.45,2.45,0,0,0,52,22.26,3,3,0,0,1,53.27,21a2,2,0,0,1,.94-.18h.94A5.59,5.59,0,0,0,58.22,20c1.94-1.18,3.59-3.86,2.83-6.47A5.85,5.85,0,0,0,55.9,9.63l-.46,0Z"/><path class="cls-11" d="M57,17.94c-1.56.95-2.82-.05-4.7.84a5.32,5.32,0,0,0-2.35,2.3l-1.24.09c0-.27,0-.58.07-.94l.61-.05a5.51,5.51,0,0,1,2.36-2.3c1.88-.88,3.13.13,4.71-.84a3.64,3.64,0,0,0,1.77-3.75.56.56,0,0,0,0-.12,2.41,2.41,0,0,1,.59,1A3.64,3.64,0,0,1,57,17.94Z"/><path class="cls-10" d="M44.62,22.38a1.07,1.07,0,0,1-.25,0c-.75-.16-7.34-1.75-8.45-6.72-.14-.63-.75-3.9,1.39-5.51a4.15,4.15,0,0,1,2.48-.77,4.63,4.63,0,0,1,2.11.51c1.6.86,2,2.4,2.4,3.9a10.22,10.22,0,0,0,1.51,3.61,8.6,8.6,0,0,0,3.37,2.72,1.2,1.2,0,0,1-.51,2.28Z"/><path class="cls-2" d="M39.78,10.55a3.31,3.31,0,0,1,1.55.37c2.14,1.14,1.33,4.12,3.5,7.15a9.83,9.83,0,0,0,3.84,3.1H44.62c-.38-.09-6.57-1.53-7.53-5.81-.06-.29-.65-3.09.94-4.29a3,3,0,0,1,1.75-.53m0-2.4a5.39,5.39,0,0,0-3.19,1c-2.11,1.59-2.34,4.52-1.84,6.74,1.27,5.69,8.53,7.44,9.36,7.62a2.22,2.22,0,0,0,.51.06h4.05a2.4,2.4,0,0,0,1-4.57,7.48,7.48,0,0,1-2.92-2.33,9.12,9.12,0,0,1-1.32-3.22c-.41-1.58-.93-3.55-3-4.65a5.83,5.83,0,0,0-2.68-.65Z"/><path class="cls-11" d="M48.67,21.17H44.62C44.3,21.11,40,20.11,38,17.33a14.34,14.34,0,0,0,5.43,2.57h3.17A10.38,10.38,0,0,0,48.67,21.17Z"/><path class="cls-10" d="M48.67,22.37a1.26,1.26,0,0,1-.51-.11c-.69-.32-6.77-3.34-7.5-9.7-.31-2.76.25-8.44,4.63-10.18a7,7,0,0,1,2.59-.48,7.65,7.65,0,0,1,5.71,2.53c2.27,2.62,2,6.39.84,8.79a8,8,0,0,1-1.89,2.38,7.29,7.29,0,0,0-1.82,2.34,9.24,9.24,0,0,0-.86,3.31,1.17,1.17,0,0,1-.58.95A1.22,1.22,0,0,1,48.67,22.37Z"/><path class="cls-2" d="M47.88,3.1a6.39,6.39,0,0,1,4.8,2.12c2,2.26,1.63,5.54.68,7.46s-2.49,2.2-3.72,4.73a10.05,10.05,0,0,0-1,3.76c-.47-.22-6.16-3-6.82-8.74-.3-2.67.3-7.51,3.89-8.93a5.73,5.73,0,0,1,2.14-.4m0-2.4h0a8.12,8.12,0,0,0-3,.57C40.46,3,39,8.41,39.47,12.7c.8,7,7.43,10.3,8.18,10.65a2.44,2.44,0,0,0,2.24-.11,2.39,2.39,0,0,0,1.17-1.9,7.75,7.75,0,0,1,.74-2.88,6,6,0,0,1,1.56-2,9.38,9.38,0,0,0,2.15-2.73c1.36-2.74,1.62-7.07-1-10.1A8.85,8.85,0,0,0,47.88.7Z"/><path class="cls-11" d="M53.35,12.68c-1,2-2.47,2.2-3.71,4.73a10.2,10.2,0,0,0-1,3.76,12.59,12.59,0,0,1-1.7-1A11.43,11.43,0,0,1,48.06,16c1.38-2.83,3-3.05,4.15-5.28a8.67,8.67,0,0,0,.73-5.18A7.11,7.11,0,0,1,53.35,12.68Z"/></svg>