<svg id="图层_1" data-name="图层 1" xmlns="http://www.w3.org/2000/svg" viewBox="0 0 96 96"><defs><style>.cls-1{fill:#ffcb55;}.cls-2{fill:#1c1c1c;}.cls-3{fill:#ff9855;}.cls-4,.cls-5{fill:#fff;}.cls-5{opacity:0.18;}</style></defs><title>左挖孔屏</title><path class="cls-1" d="M57.64,82.44a70.15,70.15,0,0,1-9.65.67,67.24,67.24,0,0,1-34.85-9.44l-.44-.27-.24-.46a60.74,60.74,0,0,1-1.77-50.53l.21-.52.46-.3A66.91,66.91,0,0,1,48,11,67,67,0,0,1,84.64,21.59l.46.3.21.52a60.74,60.74,0,0,1-1.77,50.53l-.23.46-.45.27A63.35,63.35,0,0,1,72.1,78.85L65,89.78Z"/><path class="cls-2" d="M48,12.83A65.28,65.28,0,0,1,83.65,23.1a58.94,58.94,0,0,1-1.72,49,62,62,0,0,1-11,5.24l-6.26,9.56-6.38-6.4A68.07,68.07,0,0,1,48,81.31a65.62,65.62,0,0,1-33.92-9.18,58.94,58.94,0,0,1-1.72-49A65.21,65.21,0,0,1,48,12.83m0-3.6A68.69,68.69,0,0,0,10.38,20.08l-.93.61-.42,1a62.51,62.51,0,0,0,1.83,52l.46.93.89.53A69.05,69.05,0,0,0,48,84.91a70.88,70.88,0,0,0,9-.57l5.11,5.14,3.13,3.14,2.43-3.71,5.62-8.58A65.65,65.65,0,0,0,83.8,75.21l.88-.54.46-.92a62.51,62.51,0,0,0,1.83-52l-.42-1-.93-.61A68.74,68.74,0,0,0,48,9.23Z"/><path class="cls-3" d="M88.17,45.72a58.52,58.52,0,0,1-6.24,26.41,61.23,61.23,0,0,1-11,5.23l-6.26,9.57-6.38-6.4A68.07,68.07,0,0,1,48,81.31a65.62,65.62,0,0,1-33.92-9.18c12.17,3.26,38,8.69,56.57-.86a25.17,25.17,0,0,0,5.54-3.73c14.11-12.65,8.95-38,7.47-44.44A58.32,58.32,0,0,1,88.17,45.72Z"/><path class="cls-4" d="M31,54.91A16.88,16.88,0,1,1,47.83,38,16.89,16.89,0,0,1,31,54.91Z"/><path d="M31,23A15.08,15.08,0,1,1,15.88,38,15.09,15.09,0,0,1,31,23m0-3.6A18.68,18.68,0,1,0,49.63,38,18.67,18.67,0,0,0,31,19.36Z"/><path d="M31,48.68A10.65,10.65,0,1,1,41.6,38,10.66,10.66,0,0,1,31,48.68Z"/><path d="M31,28.58A9.45,9.45,0,1,1,21.5,38,9.46,9.46,0,0,1,31,28.58m0-2.4A11.85,11.85,0,1,0,42.8,38,11.86,11.86,0,0,0,31,26.18Z"/><path class="cls-4" d="M22.52,38h3.33A5.1,5.1,0,0,1,31,32.93V29.6A8.44,8.44,0,0,0,22.52,38Z"/><path class="cls-5" d="M39.39,38H36.06A5.11,5.11,0,0,1,31,43.14v3.33A8.44,8.44,0,0,0,39.39,38Z"/><path d="M80,56.71a15.07,15.07,0,0,1-2.7,10.17,17.71,17.71,0,0,1-3.83,4,19.76,19.76,0,0,1-4.86,2.57,56.61,56.61,0,0,1-10.23,3,61.86,61.86,0,0,1-10.61,1.07,64.11,64.11,0,0,1-10.63-.83,56.57,56.57,0,0,1-10.3-2.77A17.42,17.42,0,0,1,18.29,67,15.92,15.92,0,0,1,16,56.71,17.27,17.27,0,0,0,19.72,66a15.25,15.25,0,0,0,3.64,3.21,16.58,16.58,0,0,0,4.36,2,66.41,66.41,0,0,0,9.9,2.06,65.35,65.35,0,0,0,10.08.6A62.94,62.94,0,0,0,57.77,73a68.79,68.79,0,0,0,9.87-2.27l1.21-.4L70,70l1.09-.51,1.06-.57A16.28,16.28,0,0,0,80,56.71Z"/></svg>