<svg id="图层_1" data-name="图层 1" xmlns="http://www.w3.org/2000/svg" viewBox="0 0 96 96"><defs><style>.cls-1{fill:#ffcb55;}.cls-2{fill:#1c1c1c;}.cls-3{fill:#ff9855;}.cls-4{fill:#fff;}</style></defs><title>强颜欢笑</title><path class="cls-1" d="M57.64,82.71a68.61,68.61,0,0,1-9.65.67,67.27,67.27,0,0,1-34.85-9.44l-.44-.26-.24-.47a60.74,60.74,0,0,1-1.77-50.53l.21-.51.46-.31A66.9,66.9,0,0,1,48,11.31,66.94,66.94,0,0,1,84.64,21.86l.46.31.21.51a60.74,60.74,0,0,1-1.77,50.53l-.23.46-.44.27A63.43,63.43,0,0,1,72.1,79.12L65,90.05Z"/><path class="cls-2" d="M48,13.11A65.36,65.36,0,0,1,83.65,23.37a58.94,58.94,0,0,1-1.72,49,61.27,61.27,0,0,1-11,5.24l-6.26,9.57L58.28,80.8A68.07,68.07,0,0,1,48,81.58,65.62,65.62,0,0,1,14.07,72.4a58.94,58.94,0,0,1-1.72-49A65.29,65.29,0,0,1,48,13.11m0-3.6A68.61,68.61,0,0,0,10.38,20.36l-.93.6L9,22a62.51,62.51,0,0,0,1.83,52l.46.93.89.53A69.05,69.05,0,0,0,48,85.18a72.77,72.77,0,0,0,9-.56l5.11,5.13,3.13,3.14,2.43-3.71,5.62-8.58A65.65,65.65,0,0,0,83.8,75.48l.88-.54.46-.92A62.51,62.51,0,0,0,87,22l-.42-1-.93-.6A68.65,68.65,0,0,0,48,9.51Z"/><path class="cls-3" d="M88.17,46a58.51,58.51,0,0,1-6.24,26.4,62,62,0,0,1-11,5.24L64.66,87.2l-6.38-6.4A68.07,68.07,0,0,1,48,81.58,65.62,65.62,0,0,1,14.07,72.4c12.17,3.27,38,8.69,56.57-.86a25.17,25.17,0,0,0,5.54-3.73c14.11-12.65,8.95-38,7.47-44.44A58.33,58.33,0,0,1,88.17,46Z"/><path d="M44.76,22.48a9.33,9.33,0,0,1-2.61,6.74,8.43,8.43,0,0,1-6,2.57,7.47,7.47,0,0,0,4.58-3.66A6.57,6.57,0,0,0,41.19,23a1.83,1.83,0,0,1,3.47-1.17,2,2,0,0,1,.1.53Z"/><path class="cls-4" d="M20.64,43a5,5,0,1,1,0-10H36.11a5,5,0,0,1,0,10Z"/><path d="M36.11,34.19a3.83,3.83,0,0,1,0,7.65H20.64a3.83,3.83,0,1,1,0-7.65H36.11m0-2.4H20.64A6.23,6.23,0,0,0,14.41,38h0a6.23,6.23,0,0,0,6.23,6.23H36.11A6.22,6.22,0,0,0,42.33,38h0a6.22,6.22,0,0,0-6.22-6.22Z"/><ellipse cx="27.71" cy="38.01" rx="4.35" ry="6.22"/><path d="M54.81,23a6.57,6.57,0,0,0,.48,5.15,7.47,7.47,0,0,0,4.58,3.66,8.43,8.43,0,0,1-6-2.57,9.33,9.33,0,0,1-2.61-6.74v-.13a1.83,1.83,0,0,1,3.66.09A2,2,0,0,1,54.81,23Z"/><path class="cls-4" d="M59.89,43a5,5,0,0,1,0-10H75.36a5,5,0,1,1,0,10Z"/><path d="M75.36,34.19a3.83,3.83,0,1,1,0,7.65H59.89a3.83,3.83,0,0,1,0-7.65H75.36m0-2.4H59.89A6.22,6.22,0,0,0,53.67,38h0a6.22,6.22,0,0,0,6.22,6.23H75.36A6.23,6.23,0,0,0,81.59,38h0a6.23,6.23,0,0,0-6.23-6.22Z"/><ellipse cx="68.29" cy="38.01" rx="4.35" ry="6.23"/><path class="cls-4" d="M48,71.34c-15,0-28-7.3-31.23-17.2H79.22C76,64,63,71.34,48,71.34Z"/><path d="M77.48,55.34C73.64,64,61.66,70.14,48,70.14S22.36,64,18.52,55.34h59m3.31-2.4H15.21C17.63,64,31.4,72.54,48,72.54S78.37,64,80.79,52.94Z"/></svg>