<svg id="图层_1" data-name="图层 1" xmlns="http://www.w3.org/2000/svg" viewBox="0 0 96 96"><defs><style>.cls-1{fill:#ffcb55;}.cls-2{fill:#1c1c1c;}.cls-3{fill:#ff9855;}.cls-4{fill:#fff;}.cls-5{fill:none;stroke:#000;stroke-linecap:round;stroke-linejoin:round;stroke-width:2.4px;}.cls-6{fill:#ee2d2c;}</style></defs><title>感兴趣</title><path class="cls-1" d="M57.64,83.93a70.14,70.14,0,0,1-9.65.66,67.36,67.36,0,0,1-34.85-9.43l-.44-.27-.24-.46a60.76,60.76,0,0,1-1.77-50.54l.21-.51.46-.3A66.83,66.83,0,0,1,48,12.52,66.87,66.87,0,0,1,84.64,23.08l.46.3.21.51a60.76,60.76,0,0,1-1.77,50.54l-.23.46-.45.26A62.63,62.63,0,0,1,72.1,80.34L65,91.26Z"/><path class="cls-2" d="M48,14.32A65.28,65.28,0,0,1,83.65,24.59a58.94,58.94,0,0,1-1.72,49,61.23,61.23,0,0,1-11,5.23l-6.26,9.57L58.28,82A66.8,66.8,0,0,1,48,82.79a65.62,65.62,0,0,1-33.92-9.17,58.94,58.94,0,0,1-1.72-49A65.21,65.21,0,0,1,48,14.32m0-3.6A68.61,68.61,0,0,0,10.38,21.57l-.93.6L9,23.2a62.51,62.51,0,0,0,1.83,52l.46.92.89.54A69.14,69.14,0,0,0,48,86.39a70.88,70.88,0,0,0,9-.56L62.11,91l3.13,3.14,2.43-3.71,5.62-8.58A64,64,0,0,0,83.8,76.69l.88-.53.46-.92A62.51,62.51,0,0,0,87,23.2l-.42-1-.93-.6A68.65,68.65,0,0,0,48,10.72Z"/><path class="cls-3" d="M88.17,47.21a58.45,58.45,0,0,1-6.24,26.4,61.27,61.27,0,0,1-11,5.24l-6.26,9.57L58.28,82A66.8,66.8,0,0,1,48,82.79a65.62,65.62,0,0,1-33.92-9.18c12.17,3.27,38,8.7,56.57-.85A25.52,25.52,0,0,0,76.18,69c14.11-12.65,8.95-38,7.47-44.45A58.33,58.33,0,0,1,88.17,47.21Z"/><path class="cls-2" d="M23.28,8.79a12.16,12.16,0,0,1,6.8-2.31A15.11,15.11,0,0,1,43,12.79a12.26,12.26,0,0,1,2.34,6.8,32.5,32.5,0,0,0-4.46-4.92,23.68,23.68,0,0,0-5.12-3.44A23.52,23.52,0,0,0,29.9,9.29,31.8,31.8,0,0,0,23.28,8.79Z"/><path class="cls-2" d="M73.21,8.79a31.89,31.89,0,0,0-6.63.5,22.7,22.7,0,0,0-11,5.38,32.54,32.54,0,0,0-4.47,4.92,12.27,12.27,0,0,1,2.35-6.8A15.07,15.07,0,0,1,66.4,6.48,12.19,12.19,0,0,1,73.21,8.79Z"/><path class="cls-4" d="M29.64,48.8a13.35,13.35,0,1,1,9.44-3.91A13.26,13.26,0,0,1,29.64,48.8Z"/><path class="cls-2" d="M29.64,23.3a12.15,12.15,0,1,1-8.59,3.56,12.07,12.07,0,0,1,8.59-3.56m0-2.4a14.55,14.55,0,1,0,10.29,4.26A14.5,14.5,0,0,0,29.64,20.9Z"/><circle cx="29.64" cy="35.45" r="2.59"/><path class="cls-4" d="M66.85,48.8a13.35,13.35,0,1,1,9.44-3.91A13.26,13.26,0,0,1,66.85,48.8Z"/><path class="cls-2" d="M66.85,23.3a12.15,12.15,0,1,1-8.59,3.56,12.07,12.07,0,0,1,8.59-3.56m0-2.4a14.55,14.55,0,1,0,10.29,4.26A14.5,14.5,0,0,0,66.85,20.9Z"/><circle cx="66.85" cy="35.45" r="2.59"/><path d="M49.44,54.9a4.53,4.53,0,0,0,1.07,3.3,4.77,4.77,0,0,0,3.3,1.66,5.09,5.09,0,0,0,3.72-1.24,5.43,5.43,0,0,0,1.84-3.72A5.76,5.76,0,0,1,58,59.05a6,6,0,0,1-4.14,2,6.29,6.29,0,0,1-4.57-1.59A6.63,6.63,0,0,1,47,54.9v0a1.21,1.21,0,0,1,2.41-.13A1,1,0,0,1,49.44,54.9Z"/><path d="M49.44,54.9a6.62,6.62,0,0,1-2.19,4.57,6.31,6.31,0,0,1-4.57,1.59,6,6,0,0,1-4.15-2,5.71,5.71,0,0,1-1.41-4.15A5.39,5.39,0,0,0,39,58.62a5.08,5.08,0,0,0,3.72,1.24A4.77,4.77,0,0,0,46,58.2,4.48,4.48,0,0,0,47,54.9a1.21,1.21,0,1,1,2.4-.22,1,1,0,0,1,0,.17Z"/><path class="cls-5" d="M48.24,58.35a29.58,29.58,0,0,1-9.82,6.15c-7.85,2.94-19.26,3.21-21.75-1.65a6.9,6.9,0,0,1,2.1-8.1c1.39-1,3.93-1.63,5.85-.22a5.19,5.19,0,0,1,1.87,4.12"/><path class="cls-5" d="M48.24,58.35a29.54,29.54,0,0,0,9.83,6.15c7.85,2.94,19.26,3.21,21.75-1.65a6.92,6.92,0,0,0-2.1-8.1c-1.4-1-3.94-1.63-5.85-.22A5.24,5.24,0,0,0,70,58.65"/><path class="cls-6" d="M48.24,78c-3.67,0-6.78-6.51-6.78-14.21v-.41a30.39,30.39,0,0,0,6.78-4.6A30.62,30.62,0,0,0,55,63.36v.41C55,71.47,51.92,78,48.24,78Z"/><path d="M48.24,60a31.42,31.42,0,0,0,5.88,4c0,7.77-3.11,13.17-5.88,13.17s-5.84-5.62-5.88-13.17a31.42,31.42,0,0,0,5.88-4m0-2.41a29.67,29.67,0,0,1-7.65,5.25c0,.32,0,.66,0,1,0,8.34,3.45,15.11,7.68,15.11s7.68-6.77,7.68-15.11c0-.32,0-.66,0-1a29.75,29.75,0,0,1-7.66-5.25Z"/></svg>