<svg id="图层_1" data-name="图层 1" xmlns="http://www.w3.org/2000/svg" viewBox="0 0 96 96"><defs><style>.cls-1{fill:#ffcb55;}.cls-2{fill:#1c1c1c;}.cls-3,.cls-5{fill:#ff9855;}.cls-4{fill:#fff;}.cls-4,.cls-5,.cls-6{stroke:#1c1c1c;stroke-linecap:round;stroke-linejoin:round;stroke-width:2.4px;}.cls-6{fill:none;}</style></defs><title>我挺好的</title><path class="cls-1" d="M59.07,84.08a70.14,70.14,0,0,1-9.65.66,67.33,67.33,0,0,1-34.85-9.43L14.12,75l-.23-.47A60.79,60.79,0,0,1,12.11,24l.22-.51.46-.3A66.8,66.8,0,0,1,49.42,12.67,66.81,66.81,0,0,1,86.06,23.23l.47.3.21.51A60.69,60.69,0,0,1,85,74.57l-.23.46-.44.27a62.23,62.23,0,0,1-10.76,5.18L66.38,91.41Z"/><path class="cls-2" d="M49.42,14.47A65.36,65.36,0,0,1,85.08,24.73a58.94,58.94,0,0,1-1.72,49,61.59,61.59,0,0,1-11,5.24l-6.26,9.57L59.7,82.16a66.58,66.58,0,0,1-10.28.78A65.62,65.62,0,0,1,15.5,73.76a59,59,0,0,1-1.73-49A65.35,65.35,0,0,1,49.42,14.47m0-3.6A68.59,68.59,0,0,0,11.81,21.72l-.93.6-.43,1a62.61,62.61,0,0,0,1.83,52l.47.93.89.54a69.14,69.14,0,0,0,35.78,9.69,72.61,72.61,0,0,0,9-.56l5.12,5.13,3.13,3.14,2.43-3.71L74.72,82a64,64,0,0,0,10.51-5.12l.88-.54.46-.92a62.51,62.51,0,0,0,1.83-52l-.43-1-.92-.6A68.65,68.65,0,0,0,49.42,10.87Z"/><path class="cls-3" d="M89.6,47.36a58.48,58.48,0,0,1-6.24,26.4,61.59,61.59,0,0,1-11,5.24l-6.26,9.57L59.7,82.16a67.84,67.84,0,0,1-10.28.78A65.62,65.62,0,0,1,15.5,73.76c12.17,3.27,38,8.69,56.57-.86a25.53,25.53,0,0,0,5.54-3.72c14.11-12.66,9-38,7.47-44.45A58.33,58.33,0,0,1,89.6,47.36Z"/><path class="cls-4" d="M45.85,38.3a5.36,5.36,0,0,1-5.35,5.35H22a5.35,5.35,0,0,1-5.34-5.35Z"/><path class="cls-4" d="M53,38.3H82.2a5.36,5.36,0,0,1-5.35,5.35H58.36A5.38,5.38,0,0,1,53,38.3Z"/><circle cx="36.77" cy="38.3" r="2.68"/><circle cx="62.08" cy="38.3" r="2.68"/><path class="cls-5" d="M45.85,38.3H16.66a5.36,5.36,0,0,1,1.57-3.78A5.3,5.3,0,0,1,22,33H40.5A5.37,5.37,0,0,1,45.85,38.3Z"/><path class="cls-5" d="M53,38.3A5.38,5.38,0,0,1,58.36,33H76.85A5.36,5.36,0,0,1,82.2,38.3Z"/><path class="cls-6" d="M82.2,51.52A78.19,78.19,0,0,1,49.43,58.3a78.15,78.15,0,0,1-32.77-6.78"/><path class="cls-2" d="M76.57,19.07a9.46,9.46,0,0,1,.84-6.14,7.13,7.13,0,0,1,5-3.84,7.58,7.58,0,0,1,5.83,1.48,5.91,5.91,0,0,1,2,2.42,4,4,0,0,1-.1,3.27,3.82,3.82,0,0,1-2.4,2.1,4.27,4.27,0,0,1-3-.23,3.67,3.67,0,0,1-2-2.27A4.17,4.17,0,0,1,82.79,13,3.76,3.76,0,0,1,85,11.15a8,8,0,0,1,2.64-.43,14.71,14.71,0,0,1,5.1.93,14.62,14.62,0,0,0-5.08-.48,7.19,7.19,0,0,0-2.4.61,2.74,2.74,0,0,0-.06,5.11,2.76,2.76,0,0,0,2,0,2.17,2.17,0,0,0,1.26-1.31,2.13,2.13,0,0,0-.1-1.74,3.85,3.85,0,0,0-1.4-1.41,5.26,5.26,0,0,0-4-.69,4.28,4.28,0,0,0-2.68,2.58,6,6,0,0,0-.17,3.95,1.8,1.8,0,0,1-3.46,1,1.24,1.24,0,0,1,0-.16Z"/><path class="cls-2" d="M87.52,24.73a6.14,6.14,0,0,1,1.1-2.35,5.48,5.48,0,0,1,1.9-1.6A5.29,5.29,0,0,1,95,20.62a4.74,4.74,0,0,0-3.79,1.15,4.12,4.12,0,0,0-1,1.52A3.93,3.93,0,0,0,89.91,25a1.22,1.22,0,0,1-2.44.2,1.14,1.14,0,0,1,0-.37Z"/><path class="cls-2" d="M26.89,15.89A14,14,0,0,0,20.82,7.2a14.88,14.88,0,0,1,4.87,3.06,15.18,15.18,0,0,1,3.47,4.86v0a1.21,1.21,0,0,1-2.2,1A2.41,2.41,0,0,1,26.89,15.89Z"/><path class="cls-2" d="M30.78,15.33a8.67,8.67,0,0,1,1.7-4.81A8.45,8.45,0,0,1,36.32,7.7a7.87,7.87,0,0,0-2.8,3.42,6.87,6.87,0,0,0-.35,4.06,1.21,1.21,0,0,1-2.37.52,1.71,1.71,0,0,1,0-.31Z"/><path class="cls-2" d="M8.8,26.7a10.24,10.24,0,0,1-2.9-2.52,6.56,6.56,0,0,1-1-1.78,3.87,3.87,0,0,1-.16-2.23A3.48,3.48,0,0,1,6,18.3a3.19,3.19,0,0,1,2.12-.68,3.41,3.41,0,0,1,2,.78,2.62,2.62,0,0,1,1,2,2.86,2.86,0,0,1-.76,1.95,2.62,2.62,0,0,1-1.85.89,3.75,3.75,0,0,1-1.86-.42,5,5,0,0,1-1.48-1.1,4.7,4.7,0,0,1-1.09-3.36A7.63,7.63,0,0,1,5,15a7.55,7.55,0,0,0-.65,3.32,4.21,4.21,0,0,0,1.22,2.94,3.82,3.82,0,0,0,2.83,1,1.79,1.79,0,0,0,1.49-1.89,1.68,1.68,0,0,0-1.81-1.3,1.53,1.53,0,0,0-1,.46,1.68,1.68,0,0,0-.56,1,3.1,3.1,0,0,0,1,2.28A8.46,8.46,0,0,0,10,24.6a1.2,1.2,0,1,1-1.06,2.16Z"/><path class="cls-2" d="M8.08,34.89a6.57,6.57,0,0,0-2.84-2.7A7.29,7.29,0,0,0,1,31.55a7.79,7.79,0,0,1,4.58-.5A8.34,8.34,0,0,1,10,33.42l0,0a1.22,1.22,0,0,1-1.74,1.7A1.65,1.65,0,0,1,8.08,34.89Z"/><path class="cls-2" d="M8.14,32.85a7.42,7.42,0,0,0-1.37-3.23,7.79,7.79,0,0,0-2.95-2.37A8.45,8.45,0,0,1,7.6,28.76a9.14,9.14,0,0,1,2.81,3.3l0,0a1.22,1.22,0,1,1-2.17,1.11A1.18,1.18,0,0,1,8.14,32.85Z"/></svg>