<svg id="图层_1" data-name="图层 1" xmlns="http://www.w3.org/2000/svg" viewBox="0 0 96 96"><defs><style>.cls-1{fill:#ffcb55;}.cls-2{fill:#1c1c1c;}.cls-3{fill:#ff9855;}.cls-4,.cls-6{fill:#fff;}.cls-5{fill:#b1b1b1;}.cls-6{stroke:#1c1c1c;stroke-linecap:round;stroke-linejoin:round;stroke-width:2.4px;}</style></defs><title>戴口罩</title><path class="cls-1" d="M57.64,82.71a68.61,68.61,0,0,1-9.65.67,67.24,67.24,0,0,1-34.85-9.44l-.44-.26-.24-.47a60.74,60.74,0,0,1-1.77-50.53l.21-.51.46-.31A66.9,66.9,0,0,1,48,11.31,66.94,66.94,0,0,1,84.64,21.86l.46.31.21.51a60.74,60.74,0,0,1-1.77,50.53l-.23.46-.44.27A63.43,63.43,0,0,1,72.1,79.12L65,90.05Z"/><path class="cls-2" d="M48,13.11A65.36,65.36,0,0,1,83.65,23.37a58.94,58.94,0,0,1-1.72,49,61.27,61.27,0,0,1-11,5.24l-6.26,9.57L58.28,80.8A68.07,68.07,0,0,1,48,81.58,65.62,65.62,0,0,1,14.07,72.4a58.94,58.94,0,0,1-1.72-49A65.29,65.29,0,0,1,48,13.11m0-3.6A68.61,68.61,0,0,0,10.38,20.36l-.93.6L9,22a62.51,62.51,0,0,0,1.83,52l.46.93.89.53A69.05,69.05,0,0,0,48,85.18a72.77,72.77,0,0,0,9-.56l5.11,5.13,3.13,3.14,2.43-3.71,5.62-8.58A65.65,65.65,0,0,0,83.8,75.48l.88-.54.46-.92A62.51,62.51,0,0,0,87,22l-.42-1-.93-.6A68.65,68.65,0,0,0,48,9.51Z"/><path class="cls-3" d="M88.17,46a58.51,58.51,0,0,1-6.24,26.4,62,62,0,0,1-11,5.24L64.66,87.2l-6.38-6.4A68.07,68.07,0,0,1,48,81.58,65.62,65.62,0,0,1,14.07,72.4c12.17,3.27,38,8.69,56.57-.86a25.17,25.17,0,0,0,5.54-3.73c14.11-12.65,8.95-38,7.47-44.44A58.33,58.33,0,0,1,88.17,46Z"/><path class="cls-4" d="M48,73.78a52.94,52.94,0,0,1-27.13-7.24A47,47,0,0,1,16.23,40.7,107.67,107.67,0,0,1,48,36a108.2,108.2,0,0,1,31.76,4.64,47.13,47.13,0,0,1-4.65,25.89A53.14,53.14,0,0,1,48,73.78Z"/><path d="M48,37.24a107.6,107.6,0,0,1,30.65,4.35c.11,1.32.17,2.65.17,3.95A45.59,45.59,0,0,1,74.2,65.72,52,52,0,0,1,48,72.58,51.82,51.82,0,0,1,21.8,65.69a45.34,45.34,0,0,1-4.63-20.15c0-1.3.06-2.61.17-3.93A107.09,107.09,0,0,1,48,37.24m0-2.4a107.68,107.68,0,0,0-32.89,5,47.31,47.31,0,0,0-.35,5.74A48,48,0,0,0,20,67.4,54.26,54.26,0,0,0,48,75a54.39,54.39,0,0,0,28-7.56,48.45,48.45,0,0,0,4.85-27.65A108.59,108.59,0,0,0,48,34.84Z"/><path class="cls-5" d="M81.22,45.54A48.26,48.26,0,0,1,76,67.42,54.39,54.39,0,0,1,48,75,54.29,54.29,0,0,1,20,67.4c-.5-1-1-2-1.41-3A54.8,54.8,0,0,0,43,70a54.39,54.39,0,0,0,28-7.56,48.3,48.3,0,0,0,5.19-21.88c0-.72,0-1.43,0-2.14,1.6.42,3.16.88,4.7,1.37A50.21,50.21,0,0,1,81.22,45.54Z"/><circle cx="29.02" cy="29.48" r="2.96" transform="translate(-5 5.95) rotate(-10.78)"/><circle cx="66.97" cy="29.48" r="2.96"/><line class="cls-6" x1="15.62" y1="45.54" x2="6.28" y2="49.99"/><line class="cls-6" x1="18.15" y1="61.03" x2="8.53" y2="61.99"/><line class="cls-6" x1="80.38" y1="45.54" x2="89.72" y2="49.99"/><line class="cls-6" x1="77.85" y1="61.03" x2="87.47" y2="61.99"/><path d="M48,37.24a107.6,107.6,0,0,1,30.65,4.35c.11,1.32.17,2.65.17,3.95A45.59,45.59,0,0,1,74.2,65.72,52,52,0,0,1,48,72.58,51.82,51.82,0,0,1,21.8,65.69a45.34,45.34,0,0,1-4.63-20.15c0-1.3.06-2.61.17-3.93A107.09,107.09,0,0,1,48,37.24m0-2.4a107.68,107.68,0,0,0-32.89,5,47.31,47.31,0,0,0-.35,5.74A48,48,0,0,0,20,67.4,54.26,54.26,0,0,0,48,75a54.39,54.39,0,0,0,28-7.56,48.45,48.45,0,0,0,4.85-27.65A108.59,108.59,0,0,0,48,34.84Z"/></svg>