<svg id="图层_1" data-name="图层 1" xmlns="http://www.w3.org/2000/svg" viewBox="0 0 96 96"><defs><style>.cls-1,.cls-3{fill:#fc5;stroke-miterlimit:10;}.cls-1,.cls-3,.cls-5{stroke:#1c1c1c;}.cls-1{stroke-width:2.4px;}.cls-2{fill:#f95;}.cls-3{stroke-width:3.52px;}.cls-4{fill:#1c1c1c;}.cls-5{fill:none;stroke-linecap:round;stroke-linejoin:round;stroke-width:3.6px;}</style></defs><title>抱拳</title><rect class="cls-1" x="63.52" y="19.95" width="10.77" height="59.05" rx="5.38" ry="5.38" transform="translate(-14.94 36.63) rotate(-26.97)"/><path class="cls-1" d="M89.53,71.45a7.09,7.09,0,0,1-.47,4.12,8.62,8.62,0,0,1-2,3,8.49,8.49,0,0,1-6,2.49H76.33a5.33,5.33,0,0,1-3.77-1.55,4.78,4.78,0,0,1-1-1.38L43.31,22.74A5.39,5.39,0,0,1,48.1,14.9a5.57,5.57,0,0,1,5.49,5.5l28,44.67C85.72,65.7,88.87,68.26,89.53,71.45Z"/><path class="cls-2" d="M87.83,72.82a8.1,8.1,0,0,1-.64,3.11,7.8,7.8,0,0,1-1.64,2.41A7.72,7.72,0,0,1,80,80.63H75.68a4.85,4.85,0,0,1-3.46-1.42,4.59,4.59,0,0,1-1-1.26L68.55,72.6a4.5,4.5,0,0,0,1,1.27A4.86,4.86,0,0,0,73,75.3h4.35a8.41,8.41,0,0,0,5.63-1.79,6.64,6.64,0,0,0,2.17-2.83,5.94,5.94,0,0,0,.29-3,3.91,3.91,0,0,1,.94.69,4.05,4.05,0,0,1,1.08,1.84A8.28,8.28,0,0,1,87.83,72.82Z"/><path class="cls-3" d="M8.17,74.2a9.73,9.73,0,0,1-.28-11,62.51,62.51,0,0,1,41-27.56A161.49,161.49,0,0,1,59.21,54c2,4.19,3.75,8.24,5.22,12.07a2.09,2.09,0,0,1-.51,2.24,44,44,0,0,1-12.11,8.45l-1,.46a7.91,7.91,0,0,1-10-2.89,7.81,7.81,0,0,1-.41-.76L39.2,71a38.74,38.74,0,0,1-8.56,6.16,38.09,38.09,0,0,1-5,2.21A15,15,0,0,1,8.94,75.2c-.25-.29-.49-.6-.72-.92Z"/><path class="cls-2" d="M64,68.29a43.73,43.73,0,0,1-12.13,8.49l-.92.42a8,8,0,0,1-9.74-2.38,5.68,5.68,0,0,1-.72-1.23L39.2,71a38.65,38.65,0,0,1-8.56,6.17,39,39,0,0,1-5,2.22A15.05,15.05,0,0,1,8.94,75.2c-.25-.29-.49-.6-.72-.92a.24.24,0,0,0-.06-.08,9.8,9.8,0,0,1-1.43-8.14,9.55,9.55,0,0,0,1.43,3.07s0,.06.06.07a5.76,5.76,0,0,0,.72.93c2.68,2.85,7.42,2.39,9.63,2.18,5.6-.53,18.21-5,34-12.74a15.51,15.51,0,0,0-3.43,5.77c-.48,1.5-.9,2.89-.24,4.22a4.73,4.73,0,0,0,2.92,2.16c3.22.92,7.8-2.42,11.66-8,.34.81.65,1.6,1,2.4A2.05,2.05,0,0,1,64,68.29Z"/><path class="cls-4" d="M52.57,59.57a42.46,42.46,0,0,1-4.69,5.37c-1.68,1.65-3.44,3.19-5.27,4.66a68.86,68.86,0,0,1-5.7,4.12,41.43,41.43,0,0,1-6.27,3.4,41.84,41.84,0,0,1,4.7-5.37q2.52-2.46,5.27-4.65c1.83-1.46,3.73-2.84,5.7-4.12A42.36,42.36,0,0,1,52.57,59.57Z"/><path class="cls-5" d="M89.6,72.58a8.52,8.52,0,0,1-8.51,8.52H76.34a5.26,5.26,0,0,1-3.78-1.55,5.06,5.06,0,0,1-1-1.37L59.22,54c2,4.19,3.73,8.24,5.21,12.06a2,2,0,0,1-.51,2.24,43.53,43.53,0,0,1-12.09,8.46l-.93.42a8,8,0,0,1-9.75-2.38,6.41,6.41,0,0,1-.72-1.24L39.2,71a38.74,38.74,0,0,1-8.56,6.16,36.27,36.27,0,0,1-5,2.22C19.75,81.49,13,80.05,9,75.2a7.42,7.42,0,0,1-.72-.93s0,0-.07-.06a10.08,10.08,0,0,1-.05-11.3A63.37,63.37,0,0,1,28,43.66a62.11,62.11,0,0,1,12.36-5.74,66.22,66.22,0,0,1,9.31-2.48c1,2.3,2.16,4.7,3.45,7.2q1.55,2.88,3.06,5.46L43.31,22.74a5.4,5.4,0,0,1,2.36-7.25,5.25,5.25,0,0,1,2.43-.59,5.35,5.35,0,0,1,4.81,3l1.31,2.57a4.08,4.08,0,0,0,3.71,2.15h0a5.37,5.37,0,0,1,4.8,2.94l18.1,35.55A9.14,9.14,0,0,0,85,65a8.74,8.74,0,0,1,2.11,1.56A8.45,8.45,0,0,1,89.6,72.58Z"/></svg>