<svg id="图层_1" data-name="图层 1" xmlns="http://www.w3.org/2000/svg" viewBox="0 0 96 96"><defs><style>.cls-1{fill:#fc5;}.cls-2{fill:#1c1c1c;}.cls-3{fill:#f95;}</style></defs><title>拳头</title><path class="cls-1" d="M49.21,79.39A28.93,28.93,0,0,1,26.67,68.58a11.14,11.14,0,0,1-6-17.73,27.33,27.33,0,0,1,2.28-10.47L21.4,36.66a9.64,9.64,0,0,1,5.2-12.58,9.79,9.79,0,0,1,3.69-.73,9.56,9.56,0,0,1,2.32.28,10.23,10.23,0,0,1,7.76-6.8l.11,0a9.87,9.87,0,0,1,1.9-.18,10.21,10.21,0,0,1,7.72,3.56,9.36,9.36,0,0,1,6.31-2.47,10.29,10.29,0,0,1,1.76.16,9.4,9.4,0,0,1,6.72,5.3,8.87,8.87,0,0,1,2.71-.42,9,9,0,0,1,3.41.68,8.9,8.9,0,0,1,4.8,11.62l-1.35,3.25a27.65,27.65,0,0,1,3.29,13C77.75,66.82,65,79.39,49.21,79.39Z"/><path class="cls-2" d="M42.38,18.43a8.36,8.36,0,0,1,7.55,4.79,7.52,7.52,0,0,1,6.48-3.7,7.66,7.66,0,0,1,1.42.13,7.51,7.51,0,0,1,6,6,7.08,7.08,0,0,1,10.34,8.7l-1.68,4.06A25.67,25.67,0,0,1,76,51.36,26.49,26.49,0,0,1,49.21,77.59,26.91,26.91,0,0,1,27.69,67a9.34,9.34,0,0,1-5.23-15.44v-.16a25.63,25.63,0,0,1,2.44-11L23.06,36a7.83,7.83,0,0,1,7.23-10.82,7.72,7.72,0,0,1,3.64.9,8.4,8.4,0,0,1,6.78-7.46h.08a8.64,8.64,0,0,1,1.59-.15m0-3.6a12,12,0,0,0-2.23.21H40a12.06,12.06,0,0,0-8.54,6.55,11.76,11.76,0,0,0-1.2-.06A11.43,11.43,0,0,0,19.73,37.34l1.26,3a29.1,29.1,0,0,0-2.11,9.85,12.93,12.93,0,0,0,6.76,19.93,30.74,30.74,0,0,0,23.57,11c16.73,0,30.34-13.38,30.34-29.83a29.29,29.29,0,0,0-3.11-13.13l1-2.48a10.69,10.69,0,0,0-5.76-14A10.55,10.55,0,0,0,67.6,21a10.72,10.72,0,0,0-1.79.15,11.1,11.1,0,0,0-15.56-3.32,12,12,0,0,0-7.87-3Z"/><path class="cls-3" d="M76,51.37c0,14.48-12,26.22-26.74,26.22A26.88,26.88,0,0,1,27.68,66.93a27,27,0,0,0,16.26,5.4c14.77,0,26.75-11.75,26.75-26.24a25.75,25.75,0,0,0-5.22-15.54A26,26,0,0,1,76,51.37Z"/><path class="cls-1" d="M35.43,54.66A9.16,9.16,0,0,1,27,49L21.74,36.45a9.17,9.17,0,0,1,5-12l.11,0a9.15,9.15,0,0,1,12,4.95L44,41.91a9.17,9.17,0,0,1-4.95,12L39,54A9.11,9.11,0,0,1,35.43,54.66Z"/><path class="cls-2" d="M30.32,25.12a7.76,7.76,0,0,1,7.17,4.79L42.7,42.46A7.76,7.76,0,0,1,38.52,52.6l-.12,0a7.77,7.77,0,0,1-10.14-4.19L23,35.91a7.76,7.76,0,0,1,4.19-10.14l.11-.05a7.89,7.89,0,0,1,3-.6m0-2.82h0a10.51,10.51,0,0,0-4.06.81l-.11.05A10.6,10.6,0,0,0,20.43,37l5.22,12.54a10.56,10.56,0,0,0,9.78,6.53,10.73,10.73,0,0,0,4.06-.81l.11,0a10.59,10.59,0,0,0,5.71-13.84L40.09,28.82a10.54,10.54,0,0,0-9.77-6.52Z"/><path class="cls-1" d="M44.93,50.94a9.68,9.68,0,0,1-9.49-7.86L32.65,28.55a9.68,9.68,0,0,1,7.68-11.32l.3-.06A9.37,9.37,0,0,1,42.46,17,9.67,9.67,0,0,1,52,24.85l2.79,14.53a9.69,9.69,0,0,1-7.68,11.33l-.3,0A9.38,9.38,0,0,1,44.93,50.94Z"/><path class="cls-2" d="M42.46,18.41a8.26,8.26,0,0,1,8.11,6.71l2.78,14.52a8.26,8.26,0,0,1-6.56,9.68l-.29.06a8.43,8.43,0,0,1-1.57.15,8.28,8.28,0,0,1-8.11-6.71L34,28.29a8.26,8.26,0,0,1,6.56-9.68l.29-.05a8.43,8.43,0,0,1,1.57-.15m0-2.83h0a11.4,11.4,0,0,0-2.1.2l-.29.06a11.11,11.11,0,0,0-8.81,13l2.79,14.53a11.1,11.1,0,0,0,10.88,9,11.4,11.4,0,0,0,2.1-.2l.3-.06a11.1,11.1,0,0,0,8.8-13L53.34,24.58a11.1,11.1,0,0,0-10.88-9Z"/><path class="cls-1" d="M53.77,49.85a8.51,8.51,0,0,1-1.67-.16,8.77,8.77,0,0,1-7-10.29l2.69-14.06a8.78,8.78,0,0,1,8.61-7.12,8.51,8.51,0,0,1,1.67.16,8.76,8.76,0,0,1,7,10.28L62.38,42.72a8.79,8.79,0,0,1-8.61,7.13Z"/><path class="cls-2" d="M56.37,19.51a7.58,7.58,0,0,1,1.42.13l.08,0a7.48,7.48,0,0,1,5.94,8.76l-2.7,14.06a7.49,7.49,0,0,1-7.34,6.08,7.59,7.59,0,0,1-1.42-.14h-.07a7.49,7.49,0,0,1-6-8.76L49,25.58a7.49,7.49,0,0,1,7.34-6.07m0-2.59a10.09,10.09,0,0,0-9.88,8.18L43.8,39.16a10.07,10.07,0,0,0,8,11.78l.07,0a10.21,10.21,0,0,0,1.91.18A10.09,10.09,0,0,0,63.65,43l2.69-14.06a10.08,10.08,0,0,0-8-11.79h-.07a10.22,10.22,0,0,0-1.91-.19Z"/><path class="cls-1" d="M62.62,51.24a7.33,7.33,0,0,1-6.77-10.1l5-12a7.31,7.31,0,0,1,13.5,5.62l-5,12a7.25,7.25,0,0,1-6.72,4.49Z"/><path class="cls-2" d="M67.56,25.92a6,6,0,0,1,2.3.46l.06,0a6,6,0,0,1,3.24,7.84l-5,12A6,6,0,0,1,62.62,50a6.09,6.09,0,0,1-2.3-.46l-.06,0A6,6,0,0,1,57,41.63l5-12a6,6,0,0,1,5.54-3.7m0-2.56a8.53,8.53,0,0,0-7.9,5.27l-5,12a8.56,8.56,0,0,0,4.61,11.18l.06,0a8.61,8.61,0,0,0,3.28.66,8.52,8.52,0,0,0,7.9-5.28l5-12A8.57,8.57,0,0,0,70.91,24l-.07,0a8.39,8.39,0,0,0-3.28-.66Z"/><path class="cls-1" d="M28.7,68a9.74,9.74,0,0,1-8-4.24l-.25-.36a9.75,9.75,0,0,1,2.53-13.55l13.45-9.21a9.74,9.74,0,0,1,13.55,2.53l.25.36a9.75,9.75,0,0,1-2.53,13.55L34.2,66.27A9.67,9.67,0,0,1,28.7,68Z"/><path class="cls-2" d="M41.88,40.43A8.2,8.2,0,0,1,48.67,44l.25.36A8.22,8.22,0,0,1,46.79,55.8L33.34,65A8.23,8.23,0,0,1,21.9,62.88l-.24-.36a8.22,8.22,0,0,1,2.13-11.43l13.45-9.22a8.21,8.21,0,0,1,4.64-1.44m0-3a11.19,11.19,0,0,0-6.36,2L22.07,48.58a11.25,11.25,0,0,0-2.92,15.66l.24.36a11.28,11.28,0,0,0,15.67,2.93l13.45-9.22a11.28,11.28,0,0,0,2.92-15.67l-.24-.35a11.28,11.28,0,0,0-9.31-4.9Z"/></svg>