<svg id="图层_1" data-name="图层 1" xmlns="http://www.w3.org/2000/svg" xmlns:xlink="http://www.w3.org/1999/xlink" viewBox="0 0 96 96"><defs><style>.cls-1{fill:#ffcb55;}.cls-2{fill:#1c1c1c;}.cls-3{fill:#ff9855;}.cls-4{fill:#fff;}.cls-5{fill:#ee2d2c;}.cls-6{fill:#f45d5d;}.cls-7{stroke:#000;stroke-width:1.72px;fill:url(#未命名的渐变_63);}.cls-7,.cls-8{stroke-linecap:round;stroke-linejoin:round;}.cls-8{fill:none;stroke:#1c1c1c;stroke-width:2.15px;}</style><linearGradient id="未命名的渐变_63" x1="-187.71" y1="60.71" x2="-154.44" y2="60.71" gradientTransform="translate(199.73 23.3) rotate(11.54)" gradientUnits="userSpaceOnUse"><stop offset="0" stop-color="#5dadf5"/><stop offset="1" stop-color="#4580d2"/></linearGradient></defs><title>捂脸笑哭</title><path class="cls-1" d="M54.27,83.83a67.81,67.81,0,0,1-13.5-1.37A64.43,64.43,0,0,1,10,67l-.36-.33-.13-.48A56.86,56.86,0,0,1,8.6,39.43a57.67,57.67,0,0,1,8.82-21l.3-.45.5-.19A62.24,62.24,0,0,1,41,13.61,67.74,67.74,0,0,1,54.54,15a64,64,0,0,1,32.3,16.86l.39.38.1.52a58.4,58.4,0,0,1-.13,22.74A57.09,57.09,0,0,1,75.92,79.77l-.31.39-.47.16A62.51,62.51,0,0,1,54.27,83.83Z"/><path class="cls-2" d="M41,15.33A65.54,65.54,0,0,1,54.2,16.67a62.67,62.67,0,0,1,31.44,16.4,56.71,56.71,0,0,1-.13,22.06A55.59,55.59,0,0,1,74.57,78.7a61.2,61.2,0,0,1-20.3,3.41,65.61,65.61,0,0,1-13.16-1.34,62.77,62.77,0,0,1-30-15,56.17,56.17,0,0,1,7.73-46.29A60.92,60.92,0,0,1,41,15.33m0-3.44h0a63.91,63.91,0,0,0-23.45,4.34l-1,.39-.6.88A59.51,59.51,0,0,0,6.91,39.09,58.66,58.66,0,0,0,7.8,66.63l.26,1,.73.67A66.08,66.08,0,0,0,40.42,84.14a69.18,69.18,0,0,0,13.85,1.41,64.19,64.19,0,0,0,21.45-3.61l.93-.33.62-.77a58.76,58.76,0,0,0,11.61-25A60,60,0,0,0,89,32.42l-.21-1.06-.76-.75A65.8,65.8,0,0,0,54.89,13.3,69,69,0,0,0,41,11.89Z"/><path class="cls-3" d="M85.46,55.17A55.77,55.77,0,0,1,74.57,78.7,64.37,64.37,0,0,1,11,65.73c10.77,5.38,33.95,15.4,53.13,10a24.29,24.29,0,0,0,5.91-2.43C85.7,64.16,85.71,39.42,85.56,33.12A55.7,55.7,0,0,1,85.46,55.17Z"/><path class="cls-4" d="M75.32,64.62a114.93,114.93,0,0,0-28.89-9.93A117.16,117.16,0,0,0,23,52.28c-2.37,0-4.75.08-7.09.23a69.52,69.52,0,0,1,.16-7.19C19,45.07,22,45,25,45a115.28,115.28,0,0,1,23,2.35A111.91,111.91,0,0,1,78,58,69.18,69.18,0,0,1,75.32,64.62Z"/><path d="M25,43.8v2.29a113.84,113.84,0,0,1,22.73,2.34A110.7,110.7,0,0,1,76.58,58.51c-.56,1.56-1.16,3.08-1.82,4.55a116.72,116.72,0,0,0-28.1-9.5A118.64,118.64,0,0,0,23,51.13c-2,0-4,.06-6,.16,0-1.61,0-3.25.12-4.91,2.57-.19,5.18-.29,7.8-.29V43.8m0,0c-3.38,0-6.7.16-9.94.46a68.69,68.69,0,0,0-.2,9.48q4-.32,8.19-.31A116.2,116.2,0,0,1,46.2,55.81,114,114,0,0,1,75.85,66.18a69.92,69.92,0,0,0,3.53-8.78A113.24,113.24,0,0,0,48.16,46.18,116.15,116.15,0,0,0,25,43.8Z"/><path class="cls-5" d="M75.85,66.18A60.16,60.16,0,0,1,69.6,76.32c-1.7.25-3.44.44-5.2.57a40.68,40.68,0,0,0-43.21-8.83q-2.37-1.22-4.57-2.57a59.89,59.89,0,0,1-1.78-11.75A113.42,113.42,0,0,1,46.2,55.81,114,114,0,0,1,75.85,66.18Z"/><path class="cls-6" d="M64.4,76.89A81.12,81.12,0,0,1,42.19,75.4a80.72,80.72,0,0,1-21-7.34A40.69,40.69,0,0,1,64.4,76.89Z"/><path d="M25,43.8v2.29a113.84,113.84,0,0,1,22.73,2.34A110.7,110.7,0,0,1,76.58,58.51a60.77,60.77,0,0,1-8.24,15.67,72.27,72.27,0,0,1-9.61.63,80.88,80.88,0,0,1-16.07-1.65,78,78,0,0,1-24-9.14,60.43,60.43,0,0,1-1.44-17.64c2.57-.19,5.18-.29,7.8-.29V43.8m0,0c-3.38,0-6.7.16-9.94.46a62.6,62.6,0,0,0,1.58,21.23A79,79,0,0,0,42.2,75.4a82.78,82.78,0,0,0,16.53,1.7,75.26,75.26,0,0,0,10.87-.78A62.55,62.55,0,0,0,79.38,57.4,112.92,112.92,0,0,0,48.16,46.18,116.15,116.15,0,0,0,25,43.8Z"/><path d="M41.47,21.31a12,12,0,0,1-8.6,3.45A11.12,11.12,0,0,1,25,21.33a10.28,10.28,0,0,0,7.76,1.72,9.46,9.46,0,0,0,6.12-4A1.73,1.73,0,0,1,41.74,21a1.44,1.44,0,0,1-.22.27Z"/><path class="cls-7" d="M40.78,29.81l-7.2-1a139.26,139.26,0,0,0-15.18,6C11.13,38.18,8,40.42,5.55,43.66a13.08,13.08,0,0,0-2.8,6.19A12.42,12.42,0,0,0,4,57.27C.22,60.91.62,66,2.9,67.73c1.75,1.32,5,1,7.68-1.07a72,72,0,0,1,21.15-30.5A66.83,66.83,0,0,1,40.78,29.81Z"/><path class="cls-1" d="M53.26,15.45c3.82-3.79,13.12.32,16.51,1.82a39.62,39.62,0,0,1,9.78,6.19c-.2-.27-1.3-1.78-.75-3.07a3.05,3.05,0,0,1,2.13-1.48c3.59-.79,12.2,8.59,13.63,19.93C94.91,41.61,96,54,88.37,58.31c-4.63,2.59-10,.78-11.42.2-7.73-3-9.7-11.18-9.87-12a25.54,25.54,0,0,0-5.92-2.3A26.66,26.66,0,0,1,56.49,43a8.11,8.11,0,0,1-3.89-2.58,6.53,6.53,0,0,1-1.19-3.38,4.43,4.43,0,0,1-4.18-2.77,4.64,4.64,0,0,1,.68-4.24A5.78,5.78,0,0,1,46,25.1a5.59,5.59,0,0,1,5.63-4.33C51.54,17.62,52.56,16.15,53.26,15.45Z"/><path class="cls-3" d="M88.37,58.31c-4.63,2.58-9.94.77-11.42.2-7.73-3-9.7-11.18-9.88-12a25.8,25.8,0,0,0-5.91-2.3A26,26,0,0,1,56.49,43a8.11,8.11,0,0,1-3.89-2.58,6.15,6.15,0,0,1-1-2.21c.41.6,1,.86,5.26,1.58,3.26.56,3.78.57,5,.83A19.38,19.38,0,0,1,67.81,43c.18.78,2.15,8.94,9.88,11.95,1.48.58,6.79,2.4,11.42-.19a12.11,12.11,0,0,0,5.48-7.55C94.05,51.4,92.48,56,88.37,58.31Z"/><path d="M51.64,19.7a38,38,0,0,1,21.77,8.35,36.84,36.84,0,0,0-21.79-6.2,1.09,1.09,0,0,1-1.12-1,1.07,1.07,0,0,1,1-1.11h.1Z"/><path d="M47.6,29a26.46,26.46,0,0,1,11.4-.4A26.09,26.09,0,0,1,69.31,33a25.7,25.7,0,0,0-10.46-3.28,24.77,24.77,0,0,0-10.62,1.39,1.07,1.07,0,1,1-.74-2Z"/><path d="M51.12,36A21.31,21.31,0,0,1,66,38.31a20.26,20.26,0,0,0-14.32-.22,1.08,1.08,0,0,1-.75-2l.15,0Z"/><path class="cls-8" d="M53.26,15.45c3.82-3.79,13.12.32,16.51,1.82a39.62,39.62,0,0,1,9.78,6.19c-.2-.27-1.3-1.78-.75-3.07a3.05,3.05,0,0,1,2.13-1.48c3.59-.79,12.2,8.59,13.63,19.93C94.91,41.61,96,54,88.37,58.31c-4.63,2.59-10,.78-11.42.2-7.73-3-9.7-11.18-9.87-12a25.54,25.54,0,0,0-5.92-2.3A26.66,26.66,0,0,1,56.49,43a8.11,8.11,0,0,1-3.89-2.58,6.53,6.53,0,0,1-1.19-3.38,4.43,4.43,0,0,1-4.18-2.77,4.64,4.64,0,0,1,.68-4.24A5.78,5.78,0,0,1,46,25.1a5.59,5.59,0,0,1,5.63-4.33C51.54,17.62,52.56,16.15,53.26,15.45Z"/></svg>