<svg id="图层_1" data-name="图层 1" xmlns="http://www.w3.org/2000/svg" viewBox="0 0 96 96"><defs><style>.cls-1,.cls-6{fill:#fc5;}.cls-2{fill:#1c1c1c;}.cls-3{fill:#f95;}.cls-4,.cls-7{fill:#fff;}.cls-4{opacity:0.25;}.cls-5{fill:none;stroke:#ee2d2c;}.cls-5,.cls-7{stroke-linecap:round;stroke-linejoin:round;}.cls-5,.cls-6{stroke-width:2.4px;}.cls-6{stroke:#1c1c1c;stroke-miterlimit:10;}.cls-7{stroke:#000;stroke-width:1.8px;}</style></defs><title>擦鼻血</title><path class="cls-1" d="M48,82.8a67.34,67.34,0,0,1-34.83-9.42l-.44-.26-.23-.46A59.63,59.63,0,0,1,6,45.42a60.57,60.57,0,0,1,4.65-23.34l.22-.52.47-.3A67,67,0,0,1,48,10.74,67,67,0,0,1,84.66,21.26l.47.3.22.52A61,61,0,0,1,90,45.42a59.72,59.72,0,0,1-6.48,27.27l-.23.46-.45.27A67.62,67.62,0,0,1,48,82.8Z"/><path class="cls-2" d="M48,12.54A65.66,65.66,0,0,1,83.68,22.77a59.23,59.23,0,0,1,4.49,22.65,58.2,58.2,0,0,1-6.28,26.45A65.81,65.81,0,0,1,48,81a65.64,65.64,0,0,1-33.9-9.16,58.85,58.85,0,0,1-1.76-49.07A65.65,65.65,0,0,1,48,12.54m0-3.6A68.83,68.83,0,0,0,10.39,19.75l-.94.61-.43,1a62.19,62.19,0,0,0-4.79,24A61.35,61.35,0,0,0,10.9,73.47l.47.92.88.53A69.16,69.16,0,0,0,48,84.6,69.41,69.41,0,0,0,83.74,75l.89-.53.47-.93a61.42,61.42,0,0,0,6.67-28.08A62.71,62.71,0,0,0,87,21.4l-.43-1-.94-.61A68.84,68.84,0,0,0,48,8.94Z"/><path class="cls-3" d="M88.13,45.47a58.48,58.48,0,0,1-6.24,26.4,67.29,67.29,0,0,1-67.86,0c12.17,3.27,38,8.69,56.57-.86a25.53,25.53,0,0,0,5.54-3.72c14.11-12.66,9-38,7.47-44.45A58.33,58.33,0,0,1,88.13,45.47Z"/><path d="M25.64,41.44c0,4.13-1.3,7.48-2.9,7.48s-2.9-3.35-2.9-7.48v0c0-3.21.8-5.93,1.9-7a1.45,1.45,0,0,1,1-.46C24.34,34,25.64,37.32,25.64,41.44Z"/><path class="cls-4" d="M23.84,37.8a3.55,3.55,0,0,1-3.44,3.64,3.43,3.43,0,0,1-.56,0c0-3.21.8-5.93,1.9-7A3.67,3.67,0,0,1,23.84,37.8Z"/><path d="M49.8,41.44c0,4.13-1.3,7.48-2.9,7.48S44,45.57,44,41.44v0c0-3.21.8-5.93,1.9-7a1.45,1.45,0,0,1,1-.46C48.5,34,49.8,37.32,49.8,41.44Z"/><path class="cls-4" d="M48,37.8a3.55,3.55,0,0,1-3.44,3.64,3.36,3.36,0,0,1-.56,0c0-3.21.8-5.93,1.9-7A3.67,3.67,0,0,1,48,37.8Z"/><path class="cls-2" d="M15.44,26.2,26.9,30.29a1.19,1.19,0,0,1,.73,1.54,1.21,1.21,0,0,1-1.54.73l-.21-.1Z"/><path class="cls-2" d="M59.47,22.84,41.94,32.46A1.21,1.21,0,0,1,40.31,32a1.2,1.2,0,0,1,.47-1.63.38.38,0,0,1,.13-.06Z"/><circle cx="30.04" cy="54.52" r="2.2"/><path d="M47.47,57.52a3.34,3.34,0,0,1-1.33,3.11A8.11,8.11,0,0,1,43,62.17a23.71,23.71,0,0,1-13.22.12,7.59,7.59,0,0,1-3.15-1.59,4,4,0,0,1-1.05-1.47,2.89,2.89,0,0,1-.13-1.71,3.26,3.26,0,0,0,1.86,2.22,8,8,0,0,0,2.84.71,52,52,0,0,0,6.23.32,50,50,0,0,0,6.22-.42,9.36,9.36,0,0,0,2.88-.69A3.33,3.33,0,0,0,47.47,57.52Z"/><circle cx="39.5" cy="54.52" r="2.2"/><path class="cls-5" d="M30.37,55.22c-.24,3.64-.43,6.3-.6,8.48a27.77,27.77,0,0,0,.07,6.67c.12.85.27,1.55.38,2"/><path class="cls-5" d="M39.52,55c-.1,2.93-.06,5.4,0,7.27.14,4.69.46,5.59.22,8.4-.29,3.43-.92,3.94-1.2,7a25.31,25.31,0,0,0,.68,8.4"/><path class="cls-6" d="M60.74,76.64a10.24,10.24,0,0,0,1.95,8.25,8,8,0,0,0,.53.61,9.51,9.51,0,0,0,12,1.1,12.12,12.12,0,0,0,5.13-6.36,11.76,11.76,0,0,0,.3-6.07c-.4.26-4.31,2.74-8.62,1a9.25,9.25,0,0,1-4.5-3.9Z"/><path class="cls-7" d="M56.39,43.6a12.49,12.49,0,0,1-2.1,5.4c-1.38,1.94-2.79,2.64-4.95,4.42a43.29,43.29,0,0,0-5.55,5.85A52.83,52.83,0,0,1,31.64,69a26.73,26.73,0,0,1,6.7,4.85c3.72,3.75,5,7.41,9.5,9.4h0a4,4,0,0,0,4.24-.65L74.44,63a1.82,1.82,0,0,0,.29-2.43A61.57,61.57,0,0,0,66.29,51,61,61,0,0,0,56.39,43.6Z"/><path class="cls-1" d="M60.64,82.24A10.4,10.4,0,1,1,71,71.84,10.41,10.41,0,0,1,60.64,82.24Z"/><path class="cls-2" d="M60.64,62.64a9.2,9.2,0,1,1-9.2,9.2,9.2,9.2,0,0,1,9.2-9.2m0-2.4a11.6,11.6,0,1,0,11.6,11.6,11.61,11.61,0,0,0-11.6-11.6Z"/></svg>