<svg id="图层_1" data-name="图层 1" xmlns="http://www.w3.org/2000/svg" viewBox="0 0 96 96"><defs><style>.cls-1{fill:#939393;}.cls-2{fill:#989898;}</style></defs><title>暗中观察</title><path class="cls-1" d="M57.64,82.71a71.82,71.82,0,0,1-9.65.67,67.4,67.4,0,0,1-34.85-9.44l-.44-.27-.24-.46A60,60,0,0,1,6.19,50.27C6.09,48.93,6,47.48,6,46A60.75,60.75,0,0,1,7.25,33.89a57.86,57.86,0,0,1,3.44-11.22l.22-.51.46-.3A66.77,66.77,0,0,1,48,11.31,66.87,66.87,0,0,1,84.64,21.86l.46.3.22.51A58.6,58.6,0,0,1,88.76,33.9,60.56,60.56,0,0,1,90,46c0,1.38,0,2.82-.14,4.27a60.13,60.13,0,0,1-6.29,22.94l-.24.46-.44.27a64,64,0,0,1-10.75,5.17L65,90.05Z"/><path d="M48,13.11A65.34,65.34,0,0,1,83.66,23.37,56,56,0,0,1,87,34.25,58.24,58.24,0,0,1,88.17,46c0,1.39,0,2.78-.14,4.15a58.36,58.36,0,0,1-6.1,22.25,62.16,62.16,0,0,1-11,5.23l-6.27,9.58L58.28,80.8A69.4,69.4,0,0,1,48,81.58,65.75,65.75,0,0,1,14.07,72.4,58.16,58.16,0,0,1,8,50.15c-.11-1.37-.16-2.76-.16-4.15A59,59,0,0,1,9,34.25a56.72,56.72,0,0,1,3.34-10.88A65.23,65.23,0,0,1,48,13.11m0-3.6A68.61,68.61,0,0,0,10.38,20.35L9.46,21,9,22A60.58,60.58,0,0,0,5.48,33.54,62.69,62.69,0,0,0,4.23,46c0,1.53.06,3,.17,4.44A61.59,61.59,0,0,0,10.85,74l.47.93.89.53A69.18,69.18,0,0,0,48,85.18a72.27,72.27,0,0,0,9-.57l5.12,5.14,3.13,3.15,2.43-3.72,5.63-8.59a66.36,66.36,0,0,0,10.5-5.11l.88-.54.46-.92A61.59,61.59,0,0,0,91.62,50.4c.1-1.51.15-3,.15-4.4a62.23,62.23,0,0,0-1.25-12.48A60.25,60.25,0,0,0,87,22l-.43-1-.92-.61A68.71,68.71,0,0,0,48,9.51Z"/><path d="M87,34.25H9a56.72,56.72,0,0,1,3.34-10.88A65.23,65.23,0,0,1,48,13.11,65.34,65.34,0,0,1,83.66,23.37,56,56,0,0,1,87,34.25Z"/><path d="M88,50.15a58.36,58.36,0,0,1-6.1,22.25,62.16,62.16,0,0,1-11,5.23l-6.27,9.58L58.28,80.8A69.4,69.4,0,0,1,48,81.58,65.75,65.75,0,0,1,14.07,72.4,58.16,58.16,0,0,1,8,50.15Z"/><path class="cls-1" d="M88.17,46c0,1.39,0,2.78-.14,4.15H8c-.11-1.37-.16-2.76-.16-4.15A59,59,0,0,1,9,34.25H87A58.24,58.24,0,0,1,88.17,46Z"/><path d="M52.64,36.35,54.78,39l-1.12-.24,9.09-3.25h0a.32.32,0,0,1,.27,0l5.23,3-5.56-2.31h.31L54.44,40.6a.89.89,0,0,1-1-.15l-.09-.09L50.86,38a1.2,1.2,0,0,1,1.68-1.72Z"/><path d="M48.87,37.58l-3.24,3.11-.07.06a.93.93,0,0,1-1,.21L31.19,36.21l.27,0L23.7,39.5l7.44-4a.33.33,0,0,1,.24,0h0L45.19,39l-1,.27,3-3.39a1.2,1.2,0,0,1,1.7-.11,1.19,1.19,0,0,1,.11,1.69Z"/><path class="cls-2" d="M35.54,46a19.82,19.82,0,0,1-9.28-2.32,16.33,16.33,0,0,1,9.21-2.92h.14l1,0a16.11,16.11,0,0,1,8.14,2.93A19.73,19.73,0,0,1,36,46Z"/><path d="M35.47,41.32h.14l.91,0a15.42,15.42,0,0,1,7,2.25A19,19,0,0,1,36,45.35h-.47a19.15,19.15,0,0,1-8.07-1.79,15.64,15.64,0,0,1,8-2.25m0-1.2a17.1,17.1,0,0,0-10.32,3.59,20.56,20.56,0,0,0,10.39,2.85H36a20.34,20.34,0,0,0,9.79-2.8,16.75,16.75,0,0,0-9.19-3.6l-1,0Z"/><path d="M36.44,43.32a6.58,6.58,0,0,1-.85,3.24,20.58,20.58,0,0,1-10.44-2.85,17.08,17.08,0,0,1,10.46-3.59A6.57,6.57,0,0,1,36.44,43.32Z"/><path class="cls-2" d="M61.07,45.72a18.29,18.29,0,0,1-8.51-2.11A15.08,15.08,0,0,1,61,41h.13L62,41a14.79,14.79,0,0,1,7.45,2.66,18.12,18.12,0,0,1-8,2.06Z"/><path d="M61,40.36v1.2h.12c.27,0,.56,0,.84,0a14.09,14.09,0,0,1,6.27,2,17.45,17.45,0,0,1-6.74,1.54h-.43a17.52,17.52,0,0,1-7.28-1.58,14.43,14.43,0,0,1,7.21-2v-1.2m0,0a15.89,15.89,0,0,0-9.56,3.32,19.09,19.09,0,0,0,9.63,2.64h.43a18.72,18.72,0,0,0,9.06-2.59,15.45,15.45,0,0,0-8.51-3.33l-.92,0Z"/><path d="M61.9,43.32a6.1,6.1,0,0,1-.79,3,19.14,19.14,0,0,1-9.67-2.64,15.89,15.89,0,0,1,9.69-3.32A6.07,6.07,0,0,1,61.9,43.32Z"/></svg>