<svg id="图层_1" data-name="图层 1" xmlns="http://www.w3.org/2000/svg" viewBox="0 0 96 96"><defs><style>.cls-1{fill:#fc5;}.cls-2{fill:#1c1c1c;}.cls-3{fill:#f95;}</style></defs><title>比心</title><path class="cls-1" d="M47.36,45a7.8,7.8,0,0,1-5.57-2.3,7.88,7.88,0,0,1,0-11.12L53.66,19.67A7.87,7.87,0,0,1,64.79,30.79L52.92,42.66A7.8,7.8,0,0,1,47.36,45Z"/><path class="cls-2" d="M59.23,19.16a6,6,0,0,1,4.28,1.78,6.07,6.07,0,0,1,0,8.58L51.65,41.39a6.07,6.07,0,0,1-8.58-8.58L54.94,20.94a6,6,0,0,1,4.29-1.78m0-3.6a9.63,9.63,0,0,0-6.84,2.83L40.52,30.26A9.67,9.67,0,0,0,54.19,43.93L66.06,32.06a9.67,9.67,0,0,0-6.83-16.5Z"/><path class="cls-1" d="M42,83.12a6.79,6.79,0,0,1-4.4-1.68L25,70.49l-.16-.28a6.59,6.59,0,0,1,1.43-8.48,5.41,5.41,0,0,1,1.4-.76A6.91,6.91,0,0,1,32.42,50.8a7.71,7.71,0,0,1-.58-2.94,7.67,7.67,0,0,1,5.92-7.45l-10-10a7.64,7.64,0,1,1,10.8-10.8l31.3,31.29a7.64,7.64,0,0,1-5.4,13h0a7.66,7.66,0,0,1-7.54,9,7.73,7.73,0,0,1-1.08-.08,7,7,0,0,1-2,4.81,6.88,6.88,0,0,1-4.9,2,6.72,6.72,0,0,1-1.79-.24,4.6,4.6,0,0,1-.82,1.71A5.35,5.35,0,0,1,42,83.12Z"/><path class="cls-2" d="M33.15,19.16a5.83,5.83,0,0,1,4.12,1.71l31.3,31.29a5.84,5.84,0,0,1-8.12,8.39l.6.6a5.85,5.85,0,1,1-8.27,8.27l-.15-.15a5.12,5.12,0,0,1-7.36,7.13L45,76.13a3.87,3.87,0,0,1-.15,4A3.54,3.54,0,0,1,42,81.32a4.94,4.94,0,0,1-3.22-1.24L26.42,69.34a4.82,4.82,0,0,1,.93-6.17,4,4,0,0,1,2.48-.78,5.46,5.46,0,0,1,1.7.27l-1.44-1.43A5.13,5.13,0,0,1,37.33,54l-2-2a5.82,5.82,0,0,1,0-8.26A5.75,5.75,0,0,1,39.48,42a5.82,5.82,0,0,1,4.1,1.67l0,0,0,0L29,29.12a5.84,5.84,0,0,1,4.12-10m0-3.6a9.44,9.44,0,0,0-6.67,16.11l8.1,8.11A9.59,9.59,0,0,0,30,47.86a10.17,10.17,0,0,0,.16,1.75,8.74,8.74,0,0,0-5.2,8,8.76,8.76,0,0,0,.37,2.56l-.18.13a8.41,8.41,0,0,0-1.92,10.8l.31.55.48.42L36.44,82.8A8.55,8.55,0,0,0,42,84.92a7.16,7.16,0,0,0,5.69-2.65,6.09,6.09,0,0,0,.52-.8q.33,0,.66,0a8.78,8.78,0,0,0,8.52-6.77,9.45,9.45,0,0,0,9-9.19,9.44,9.44,0,0,0,4.77-15.91L39.82,18.33a9.4,9.4,0,0,0-6.67-2.77Z"/><path class="cls-3" d="M68.57,60.43a5.85,5.85,0,0,1-8.12.12l.6.6a5.85,5.85,0,0,1-8.27,8.27l-.15-.15a5.12,5.12,0,0,1-7.36,7.13L45,76.13a3.87,3.87,0,0,1-.15,3.94c-1.16,1.51-4,1.81-6.06,0L26.42,69.34a5.34,5.34,0,0,1-.4-.92c1,.5,10.07,5.1,11.32,3.33,1.1-1.54-4.36-7.2-5.45-8.31,7,4,12.92,5.48,14.13,3.83s-1.86-6.6-7.26-11.8c8.39,4.4,15.41,6.56,16.74,4.71s-3.1-8.09-10.57-15q17,8.76,18.81,6.29,1.27-1.73-4.83-8.92l9.66,9.65A5.85,5.85,0,0,1,68.57,60.43Z"/><polygon class="cls-2" points="63.86 64.93 44.93 45.14 65.52 63.2 63.86 64.93"/><polygon class="cls-2" points="55.65 73.98 39.07 55.86 57.33 72.27 55.65 73.98"/><polygon class="cls-2" points="47.36 80.46 32.51 63.99 49.06 78.76 47.36 80.46"/></svg>