<svg id="图层_1" data-name="图层 1" xmlns="http://www.w3.org/2000/svg" xmlns:xlink="http://www.w3.org/1999/xlink" viewBox="0 0 96 96"><defs><style>.cls-1{fill:#ffcb55;}.cls-2{fill:#1c1c1c;}.cls-3{fill:#ff9855;}.cls-4{fill:#fff;}.cls-5{fill:#cb9029;}.cls-6{fill:#b1781b;}.cls-7{fill:#ffbe4d;}.cls-8{fill:#ffb433;}.cls-9{fill:url(#未命名的渐变_16);}.cls-10{fill:url(#未命名的渐变_16-2);}.cls-11{fill:#ff4d4d;}.cls-12{fill:#ed2d2c;}</style><radialGradient id="未命名的渐变_16" cx="-26.9" cy="-440.39" r="7.03" gradientTransform="translate(48.52 292.34) scale(1.09 0.55)" gradientUnits="userSpaceOnUse"><stop offset="0" stop-color="#ff433b"/><stop offset="1" stop-color="#ff433b" stop-opacity="0"/></radialGradient><radialGradient id="未命名的渐变_16-2" cx="25.77" cy="-440.39" r="7.03" xlink:href="#未命名的渐变_16"/></defs><title>滑稽鸡</title><path class="cls-1" d="M57.24,86.29a67.58,67.58,0,0,1-9.25.63,64.78,64.78,0,0,1-33.53-9.08L14,77.58l-.24-.47a58.45,58.45,0,0,1-1.71-48.62l.22-.52.46-.3A64.34,64.34,0,0,1,48,17.51,64.36,64.36,0,0,1,83.25,27.67l.46.3.22.52a58.45,58.45,0,0,1-1.71,48.62l-.23.46-.45.27a60.92,60.92,0,0,1-10.33,5L64.3,93.37Z"/><path class="cls-2" d="M48,19.31a62.77,62.77,0,0,1,34.28,9.87A56.65,56.65,0,0,1,80.61,76.3a59.52,59.52,0,0,1-10.58,5l-6,9.19-6.13-6.16a64.21,64.21,0,0,1-9.89.75,63,63,0,0,1-32.6-8.82,56.65,56.65,0,0,1-1.66-47.12A62.7,62.7,0,0,1,48,19.31m0-3.6A66.13,66.13,0,0,0,11.77,26.16l-.93.61-.43,1a60.22,60.22,0,0,0,1.77,50.13l.46.93.89.54A66.65,66.65,0,0,0,48,88.72a70.33,70.33,0,0,0,8.61-.53l4.86,4.88,3.14,3.14L67,92.5l5.37-8.2a63.24,63.24,0,0,0,10.08-4.92l.88-.54.46-.92a60.22,60.22,0,0,0,1.77-50.13l-.43-1-.93-.61A66.15,66.15,0,0,0,48,15.71Z"/><path class="cls-3" d="M86.61,50.92a56.16,56.16,0,0,1-6,25.38,59.49,59.49,0,0,1-10.58,5l-6,9.2-6.13-6.16a65.48,65.48,0,0,1-9.89.75,63,63,0,0,1-32.6-8.82c11.7,3.14,36.55,8.35,54.37-.82a24.12,24.12,0,0,0,5.32-3.59c13.57-12.16,8.6-36.54,7.19-42.71A56.16,56.16,0,0,1,86.61,50.92Z"/><path class="cls-4" d="M40,42.75a3.33,3.33,0,0,1-1.82-.53,18.25,18.25,0,0,0-19.74,0,3.38,3.38,0,0,1-1.82.53h0a3.47,3.47,0,0,1-3.45-3.86,3.34,3.34,0,0,1,1.49-2.45,25.18,25.18,0,0,1,27.31,0,3.31,3.31,0,0,1,1.48,2.45A3.47,3.47,0,0,1,40,42.75Z"/><path d="M28.31,33.62a23.8,23.8,0,0,1,13,3.84A2.09,2.09,0,0,1,42.26,39a2.31,2.31,0,0,1-.65,1.86h0a2.22,2.22,0,0,1-1.59.66,2.14,2.14,0,0,1-1.18-.34,19.45,19.45,0,0,0-21,0,2.21,2.21,0,0,1-1.17.34,2.25,2.25,0,0,1-1.6-.66A2.3,2.3,0,0,1,14.36,39a2.12,2.12,0,0,1,1-1.57,23.92,23.92,0,0,1,13-3.83m0-2.4A26.18,26.18,0,0,0,14,35.44a4.62,4.62,0,0,0-.68,7.14h0A4.63,4.63,0,0,0,16.62,44a4.56,4.56,0,0,0,2.47-.73,17.09,17.09,0,0,1,18.44,0A4.48,4.48,0,0,0,40,44a4.64,4.64,0,0,0,3.29-1.36h0a4.64,4.64,0,0,0-.68-7.15,26.24,26.24,0,0,0-14.31-4.22Z"/><circle class="cls-2" cx="40.04" cy="39.29" r="4.65"/><path class="cls-4" d="M77.3,42.75a3.39,3.39,0,0,1-1.83-.53,18.25,18.25,0,0,0-19.74,0,3.33,3.33,0,0,1-1.82.53h0a3.47,3.47,0,0,1-3.44-3.86A3.31,3.31,0,0,1,52,36.44a25.16,25.16,0,0,1,27.3,0,3.32,3.32,0,0,1,1.49,2.45,3.48,3.48,0,0,1-1,2.84A3.43,3.43,0,0,1,77.3,42.75Z"/><path d="M65.61,33.62a23.82,23.82,0,0,1,13,3.84A2.07,2.07,0,0,1,79.55,39a2.28,2.28,0,0,1-.65,1.87h0a2.21,2.21,0,0,1-1.59.66,2.14,2.14,0,0,1-1.18-.34,19.45,19.45,0,0,0-21,0,2.22,2.22,0,0,1-2.76-.32A2.3,2.3,0,0,1,51.66,39a2.12,2.12,0,0,1,1-1.57,23.9,23.9,0,0,1,13-3.83m0-2.4A26.21,26.21,0,0,0,51.3,35.44,4.66,4.66,0,0,0,53.91,44a4.53,4.53,0,0,0,2.47-.73,17.09,17.09,0,0,1,18.44,0A4.48,4.48,0,0,0,77.3,44a4.64,4.64,0,0,0,3.29-1.36h0a4.64,4.64,0,0,0-.68-7.15,26.18,26.18,0,0,0-14.3-4.22Z"/><circle class="cls-2" cx="77.33" cy="39.29" r="4.65"/><path class="cls-5" d="M47.91,72a.9.9,0,0,1-.64-.27L34.11,58.6a.9.9,0,0,1,0-1.27L47.27,44.17a.93.93,0,0,1,.64-.26.89.89,0,0,1,.63.26L61.7,57.33a.9.9,0,0,1,0,1.27L48.54,71.76A.86.86,0,0,1,47.91,72Z"/><path class="cls-2" d="M47.91,44.81,61.06,58,47.91,71.12,34.75,58,47.91,44.81m0-1.8a1.81,1.81,0,0,0-1.28.53L33.48,56.69a1.79,1.79,0,0,0,0,2.55L46.63,72.4a1.82,1.82,0,0,0,2.55,0L62.34,59.24a1.81,1.81,0,0,0,0-2.55L49.18,43.54A1.8,1.8,0,0,0,47.91,43Z"/><path class="cls-6" d="M47.91,71.12V62.35L61.06,58Z"/><path class="cls-7" d="M47.91,62.35,34.75,58,47.91,44.81,61.06,58Z"/><path class="cls-8" d="M47.91,62.35V44.81L61.06,58Z"/><ellipse class="cls-9" cx="19.29" cy="49.02" rx="7.64" ry="3.88"/><ellipse class="cls-10" cx="76.53" cy="49.02" rx="7.64" ry="3.88"/><path class="cls-11" d="M48.67,21.75a1.21,1.21,0,0,1-.84-.34,1.2,1.2,0,0,1-.36-.91A11.6,11.6,0,0,1,48,17.39c.91-2.78,3.72-7.2,7.42-7.2l.37,0a4.66,4.66,0,0,1,4.08,3c.58,2-.71,4.15-2.3,5.12a4.48,4.48,0,0,1-2.44.63l-.94,0a3.22,3.22,0,0,0-1.44.28A4.22,4.22,0,0,0,51,21a1.24,1.24,0,0,1-1,.61l-1.24.09Z"/><path class="cls-2" d="M55.44,11.39h.27a3.47,3.47,0,0,1,3,2.16A3.64,3.64,0,0,1,57,17.31a3.27,3.27,0,0,1-1.82.46l-.94,0a4.34,4.34,0,0,0-2,.4,5.46,5.46,0,0,0-2.36,2.3l-1.23.1a10,10,0,0,1,.49-2.79c.92-2.82,3.45-6.37,6.28-6.37m0-2.4c-4.37,0-7.51,4.8-8.56,8a12.73,12.73,0,0,0-.61,3.43,2.39,2.39,0,0,0,2.4,2.5h.19l.61-.05.62-.05a2.41,2.41,0,0,0,1.9-1.2,3.08,3.08,0,0,1,1.28-1.32,2.1,2.1,0,0,1,.94-.17h.94a5.68,5.68,0,0,0,3.07-.81c1.94-1.19,3.59-3.86,2.83-6.48A5.85,5.85,0,0,0,55.9,9l-.46,0Z"/><path class="cls-12" d="M57,17.31c-1.56,1-2.82,0-4.7.84a5.37,5.37,0,0,0-2.35,2.3l-1.24.09c0-.26,0-.57.07-.93l.61-.05a5.46,5.46,0,0,1,2.36-2.3c1.88-.88,3.13.12,4.71-.84a3.64,3.64,0,0,0,1.77-3.75.93.93,0,0,0,0-.13,2.44,2.44,0,0,1,.59,1A3.62,3.62,0,0,1,57,17.31Z"/><path class="cls-11" d="M44.62,21.75l-.25,0C43.62,21.56,37,20,35.92,15c-.14-.64-.75-3.91,1.39-5.51a4.16,4.16,0,0,1,2.48-.78,4.51,4.51,0,0,1,2.11.52c1.6.85,2,2.4,2.4,3.89a10.07,10.07,0,0,0,1.51,3.61,8.51,8.51,0,0,0,3.37,2.72,1.2,1.2,0,0,1-.51,2.29Z"/><path class="cls-2" d="M39.78,9.92a3.32,3.32,0,0,1,1.55.38c2.14,1.13,1.33,4.12,3.5,7.14a9.87,9.87,0,0,0,3.84,3.11H44.62c-.38-.08-6.57-1.52-7.53-5.8-.06-.29-.65-3.1.94-4.29a2.93,2.93,0,0,1,1.75-.54m0-2.4a5.33,5.33,0,0,0-3.19,1c-2.11,1.58-2.34,4.52-1.84,6.73C36,21,43.28,22.72,44.11,22.9a2.21,2.21,0,0,0,.51.05h4.05a2.4,2.4,0,0,0,1-4.57A7.41,7.41,0,0,1,46.78,16a9.07,9.07,0,0,1-1.32-3.21c-.41-1.58-.93-3.55-3-4.65a5.71,5.71,0,0,0-2.68-.66Z"/><path class="cls-12" d="M48.67,20.54H44.62C44.3,20.49,40,19.48,38,16.7a14.17,14.17,0,0,0,5.43,2.57h3.17A10.38,10.38,0,0,0,48.67,20.54Z"/><path class="cls-11" d="M48.67,21.75a1.13,1.13,0,0,1-.51-.12c-.69-.32-6.77-3.32-7.5-9.69-.31-2.76.25-8.44,4.63-10.18a7,7,0,0,1,2.59-.48,7.61,7.61,0,0,1,5.71,2.53c2.27,2.62,2,6.39.84,8.78A8.1,8.1,0,0,1,52.54,15a7.24,7.24,0,0,0-1.82,2.33,9.3,9.3,0,0,0-.86,3.32,1.18,1.18,0,0,1-.58.95A1.22,1.22,0,0,1,48.67,21.75Z"/><path class="cls-2" d="M47.88,2.48a6.39,6.39,0,0,1,4.8,2.12c2,2.26,1.63,5.53.68,7.46s-2.49,2.19-3.72,4.73a10,10,0,0,0-1,3.76c-.47-.22-6.16-3-6.82-8.75-.3-2.66.3-7.51,3.89-8.93a5.93,5.93,0,0,1,2.14-.39m0-2.4h0a8.32,8.32,0,0,0-3,.56C40.46,2.38,39,7.79,39.47,12.08c.8,7,7.43,10.29,8.18,10.64a2.37,2.37,0,0,0,2.24-.11,2.38,2.38,0,0,0,1.17-1.9,7.7,7.7,0,0,1,.74-2.87,6.09,6.09,0,0,1,1.56-2,9.18,9.18,0,0,0,2.15-2.72c1.36-2.74,1.62-7.07-1-10.11A8.88,8.88,0,0,0,47.88.08Z"/><path class="cls-12" d="M53.35,12.06c-1,2-2.47,2.19-3.71,4.73a10.2,10.2,0,0,0-1,3.75,12,12,0,0,1-1.7-1,11.47,11.47,0,0,1,1.09-4.19c1.38-2.83,3-3,4.15-5.28a8.67,8.67,0,0,0,.73-5.18A7.13,7.13,0,0,1,53.35,12.06Z"/></svg>