<svg id="图层_1" data-name="图层 1" xmlns="http://www.w3.org/2000/svg" viewBox="0 0 96 96"><defs><style>.cls-1{fill:#ee2d2c;}.cls-2{fill:#1c1c1c;}.cls-3{fill:#ffcb55;}.cls-4{fill:#ff9855;}.cls-5{opacity:0.75;}.cls-6{fill:#4580d2;}</style></defs><title>潜水</title><path class="cls-1" d="M82.64,36.36a2.89,2.89,0,0,1-2.88-2.89V5.56a2.88,2.88,0,1,1,5.76,0V33.47A2.89,2.89,0,0,1,82.64,36.36Z"/><path class="cls-2" d="M82.64,3.87a1.69,1.69,0,0,1,1.69,1.69V33.47a1.69,1.69,0,0,1-3.38,0V5.56a1.69,1.69,0,0,1,1.69-1.69m0-2.38a4.09,4.09,0,0,0-4.08,4.07V33.47a4.08,4.08,0,1,0,8.15,0V5.56a4.08,4.08,0,0,0-4.07-4.07Z"/><path class="cls-3" d="M57.58,85.09a69.28,69.28,0,0,1-9.59.66,67,67,0,0,1-34.64-9.38l-.45-.27-.23-.46A60.42,60.42,0,0,1,10.91,25.4l.21-.5.46-.31A66.47,66.47,0,0,1,48,14.1,66.52,66.52,0,0,1,84.42,24.59l.46.31.21.5a60.42,60.42,0,0,1-1.76,50.24l-.23.46-.44.26A62.29,62.29,0,0,1,72,81.52L64.85,92.38Z"/><path class="cls-2" d="M48,15.89a64.91,64.91,0,0,1,35.45,10.2,58.65,58.65,0,0,1-1.71,48.75A61.48,61.48,0,0,1,70.79,80l-6.23,9.51-6.34-6.37A67.28,67.28,0,0,1,48,84a65.3,65.3,0,0,1-33.72-9.12,58.65,58.65,0,0,1-1.71-48.75A64.84,64.84,0,0,1,48,15.89m0-3.58A68.26,68.26,0,0,0,10.6,23.09l-.92.61-.43,1a62.28,62.28,0,0,0,1.82,51.74l.47.92.88.53A68.66,68.66,0,0,0,48,87.54,71.81,71.81,0,0,0,56.94,87L62,92.08l3.11,3.12,2.42-3.69L73.14,83a63.27,63.27,0,0,0,10.45-5.09l.87-.53.47-.91a62.28,62.28,0,0,0,1.82-51.74l-.43-1-.92-.61A68.3,68.3,0,0,0,48,12.31Z"/><path class="cls-4" d="M87.93,48.58a58.11,58.11,0,0,1-6.2,26.25A61.51,61.51,0,0,1,70.79,80l-6.23,9.51-6.34-6.37A67.28,67.28,0,0,1,48,84a65.21,65.21,0,0,1-33.72-9.13c12.1,3.25,37.81,8.64,56.23-.85A24.66,24.66,0,0,0,76,70.27c14-12.57,8.9-37.79,7.43-44.18A58,58,0,0,1,87.93,48.58Z"/><path class="cls-2" d="M81.74,59.82A12.91,12.91,0,0,1,78,69.54a17.77,17.77,0,0,1-4.31,3.3,27.86,27.86,0,0,1-5,2,71.39,71.39,0,0,1-20.93,3.29,71.9,71.9,0,0,1-21-2.87,19,19,0,0,1-9.21-5.54,13.37,13.37,0,0,1-2.69-4.66,14,14,0,0,1-.61-5.25,15.23,15.23,0,0,0,1.23,5,13,13,0,0,0,2.92,4.1,16.07,16.07,0,0,0,4.11,2.87,20.37,20.37,0,0,0,4.74,1.67,83,83,0,0,0,20.47,2.29,82.35,82.35,0,0,0,20.42-2.7A27.55,27.55,0,0,0,73,71.45a17.07,17.07,0,0,0,4.2-2.74A13.21,13.21,0,0,0,81.74,59.82Z"/><circle class="cls-2" cx="29.04" cy="43.34" r="4.77"/><circle class="cls-2" cx="66.96" cy="43.34" r="4.77"/><g class="cls-5"><path class="cls-6" d="M96,47.57c0,3.6-.11,7.16-.31,10.64A178.28,178.28,0,0,1,48,64.4,178.18,178.18,0,0,1,.29,58.21c-.2-3.48-.31-7-.31-10.64s.1-6.91.3-10.29A178.66,178.66,0,0,1,48,31.09,177.87,177.87,0,0,1,95.72,37.3C95.92,40.66,96,44.1,96,47.57Z"/></g><path class="cls-2" d="M48,34.67a177.49,177.49,0,0,1,44.29,5.4c.1,2.43.16,4.94.16,7.5s-.06,5.24-.18,7.86A177.51,177.51,0,0,1,48,60.82,177.41,177.41,0,0,1,3.74,55.43c-.12-2.62-.18-5.26-.18-7.86s.06-5.07.16-7.51A177.57,177.57,0,0,1,48,34.67m0-3.58A178.66,178.66,0,0,0,.28,37.28c-.2,3.38-.3,6.8-.3,10.29s.11,7.16.31,10.64A178.18,178.18,0,0,0,48,64.4a178.28,178.28,0,0,0,47.72-6.19c.2-3.48.31-7,.31-10.64s-.1-6.91-.3-10.27A177.87,177.87,0,0,0,48,31.09Z"/></svg>