<svg id="图层_1" data-name="图层 1" xmlns="http://www.w3.org/2000/svg" xmlns:xlink="http://www.w3.org/1999/xlink" viewBox="0 0 96 96"><defs><style>.cls-1{fill:#333;}.cls-2{fill:#666;}.cls-3{fill:#989898;}.cls-4{fill:url(#未命名的渐变_38);}</style><radialGradient id="未命名的渐变_38" cx="72.41" cy="18.07" r="14.4" gradientUnits="userSpaceOnUse"><stop offset="0" stop-color="#fc5"/><stop offset="0.05" stop-color="#ffc253"/><stop offset="0.37" stop-color="#ff8c49"/><stop offset="0.65" stop-color="#ff6441"/><stop offset="0.87" stop-color="#ff4c3d"/><stop offset="1" stop-color="#ff433b"/></radialGradient></defs><title>炸弹</title><path d="M46.23,22.2a13.65,13.65,0,0,1,4.37-9.48,13.24,13.24,0,0,1,9.49-3.48,12.74,12.74,0,0,1,8.84,4.12,12.25,12.25,0,0,1,3.21,8.84A11.85,11.85,0,0,0,68.29,14a11.41,11.41,0,0,0-8.2-3,11,11,0,0,0-7.58,3.59,10.48,10.48,0,0,0-2.68,7.57Z"/><path class="cls-1" d="M48,89.93A33.4,33.4,0,0,1,17.91,70.81,33.25,33.25,0,0,1,62.17,26.57,33.26,33.26,0,0,1,48,89.93Z"/><path d="M48,24.6a31.58,31.58,0,0,1,13.63,3.06A32.06,32.06,0,1,1,19,70.3a31.77,31.77,0,0,1-3-13.63A32.11,32.11,0,0,1,48,24.6m0-2.4a34.49,34.49,0,1,0,14.65,3.28A34.47,34.47,0,0,0,48,22.2Z"/><path class="cls-2" d="M73.65,49.8A32.48,32.48,0,0,1,16.83,71.32,34.45,34.45,0,0,1,62.68,25.48,32.32,32.32,0,0,1,73.65,49.8Z"/><path d="M48,25.8a30.45,30.45,0,0,1,13.12,2.94A30.86,30.86,0,1,1,20.09,69.79,30.86,30.86,0,0,1,48,25.8m0-3.6a34.49,34.49,0,1,0,14.65,3.28A34.47,34.47,0,0,0,48,22.2Z"/><circle class="cls-3" cx="39.01" cy="46.3" r="12.77"/><path class="cls-4" d="M72.41,32.47a1.22,1.22,0,0,1-.92-.43A22.51,22.51,0,0,1,67,23.5,22.69,22.69,0,0,1,58.44,19a1.18,1.18,0,0,1-.43-.91,1.15,1.15,0,0,1,.42-.92A22.48,22.48,0,0,1,67,12.65a22.5,22.5,0,0,1,4.5-8.56,1.22,1.22,0,0,1,1.84,0,22.56,22.56,0,0,1,4.51,8.56,22.35,22.35,0,0,1,8.55,4.51,1.19,1.19,0,0,1,0,1.83,22.84,22.84,0,0,1-8.55,4.51A22.82,22.82,0,0,1,73.33,32a1.22,1.22,0,0,1-.92.43Z"/><path d="M72.41,4.87a21.13,21.13,0,0,1,4.44,8.77,21.54,21.54,0,0,1,8.77,4.43,21.52,21.52,0,0,1-8.77,4.44,21.41,21.41,0,0,1-4.44,8.76A21.66,21.66,0,0,1,68,22.51a21.39,21.39,0,0,1-8.76-4.44A21.41,21.41,0,0,1,68,13.64a21.26,21.26,0,0,1,4.44-8.77m0-2.4a2.38,2.38,0,0,0-1.83.85A23.7,23.7,0,0,0,66,11.68a23.62,23.62,0,0,0-8.35,4.56,2.41,2.41,0,0,0,0,3.68A24.11,24.11,0,0,0,66,24.47a23.8,23.8,0,0,0,4.56,8.35,2.39,2.39,0,0,0,1.83.85h0a2.41,2.41,0,0,0,1.84-.85,24,24,0,0,0,4.56-8.35,24.29,24.29,0,0,0,8.35-4.55A2.46,2.46,0,0,0,88,18.08a2.41,2.41,0,0,0-.85-1.84,23.77,23.77,0,0,0-8.36-4.56,23.86,23.86,0,0,0-4.56-8.36,2.41,2.41,0,0,0-1.84-.85Z"/></svg>