<svg id="图层_1" data-name="图层 1" xmlns="http://www.w3.org/2000/svg" viewBox="0 0 96 96"><defs><style>.cls-1,.cls-4{fill:#fc5;}.cls-1,.cls-3,.cls-4{stroke:#1c1c1c;stroke-miterlimit:10;}.cls-1{stroke-width:2.4px;}.cls-2{fill:#f95;}.cls-3{fill:none;}.cls-3,.cls-4{stroke-width:3.6px;}</style></defs><title>爱你</title><path class="cls-1" d="M76.53,26.66v37C76.53,75.8,67.1,86.18,55,86.6a22.33,22.33,0,0,1-18.76-9A107,107,0,0,0,25.07,64.38l-4.62-4.5a6.82,6.82,0,0,1-.61-9.27,6.68,6.68,0,0,1,9.73-.45l3.64,3.54V15.53A6,6,0,0,1,39.37,9.4a5.84,5.84,0,0,1,5.52,5.82V43.94a22.3,22.3,0,0,1,22.46,2.27V26.89a4.75,4.75,0,0,1,4.24-4.81,4.6,4.6,0,0,1,4.94,4.58Z"/><path class="cls-2" d="M77.73,26.66v37c0,12.44-10.18,23.13-22.61,23a22.39,22.39,0,0,1-17.73-9.07,22.31,22.31,0,0,0,15.33,4.33c11.62-1,20.35-11.12,20.35-22.78v-37h.06a4.59,4.59,0,0,1,4.6,4.59Z"/><path class="cls-3" d="M76.53,26.66v37C76.53,75.8,67.1,86.18,55,86.6a22.33,22.33,0,0,1-18.76-9A107,107,0,0,0,25.07,64.38l-4.62-4.5a6.82,6.82,0,0,1-.61-9.27,6.68,6.68,0,0,1,9.73-.45l3.64,3.54V15.53A6,6,0,0,1,39.37,9.4a5.84,5.84,0,0,1,5.52,5.82V43.94a22.3,22.3,0,0,1,22.46,2.27V26.89a4.75,4.75,0,0,1,4.24-4.81,4.6,4.6,0,0,1,4.94,4.58Z"/><rect class="cls-4" x="44.89" y="36.01" width="11.23" height="27.14" rx="5.52" ry="5.52"/><rect class="cls-4" x="56.12" y="36.01" width="11.23" height="27.14" rx="5.52" ry="5.52"/></svg>