<svg id="图层_1" data-name="图层 1" xmlns="http://www.w3.org/2000/svg" viewBox="0 0 96 96"><defs><style>.cls-1{fill:#f66;}.cls-2{fill:#1c1c1c;}.cls-3{fill:#ed2d2c;}</style></defs><title>爱心</title><path class="cls-1" d="M47.05,85.47a34.74,34.74,0,0,1-10.5-1.59A45.28,45.28,0,0,1,24.75,78a61.78,61.78,0,0,1-6.83-5.8C2.42,56.52-1.23,33.24,9.79,20.25a24.93,24.93,0,0,1,19.42-8.59,33.19,33.19,0,0,1,6.73.71A39.61,39.61,0,0,1,48,17.09a39.85,39.85,0,0,1,12.05-4.72,33.36,33.36,0,0,1,6.74-.71,24.92,24.92,0,0,1,19.41,8.59c11,13,7.37,36.27-8.13,51.9A49,49,0,0,1,71.23,78C70.11,78.73,59.87,85.47,47.05,85.47Z"/><path class="cls-2" d="M66.8,13.46a23,23,0,0,1,18,8c10.43,12.31,6.85,34.46-8,49.47a46.5,46.5,0,0,1-6.59,5.59c-1,.72-10.84,7.2-23.16,7.2a32.9,32.9,0,0,1-10-1.51,43.23,43.23,0,0,1-11.3-5.69,59.22,59.22,0,0,1-6.59-5.59c-14.89-15-18.47-37.16-8-49.47a23.07,23.07,0,0,1,18.05-7.95,31,31,0,0,1,6.36.67A38.47,38.47,0,0,1,48,19.19a38.64,38.64,0,0,1,12.42-5.06,31.14,31.14,0,0,1,6.37-.67m0-3.6h0a34.79,34.79,0,0,0-7.11.75A41.36,41.36,0,0,0,48,15a41,41,0,0,0-11.71-4.4,34.53,34.53,0,0,0-7.09-.75A26.69,26.69,0,0,0,8.42,19.08c-5.74,6.77-8,16.23-6.29,26.63a51.65,51.65,0,0,0,14.52,27.7,55.52,55.52,0,0,0,4.72,4.21c1.12.9,1.85,1.49,2.43,1.86A47.38,47.38,0,0,0,36,85.6a36.73,36.73,0,0,0,11,1.67c13.36,0,24-7,25.2-7.82a51.19,51.19,0,0,0,7.1-6,51.65,51.65,0,0,0,14.52-27.7c1.68-10.4-.55-19.86-6.28-26.63A26.72,26.72,0,0,0,66.8,9.86Z"/><path class="cls-3" d="M76.8,70.88a47.08,47.08,0,0,1-6.59,5.59c-1.31.89-16.49,10.94-33.12,5.69a42.88,42.88,0,0,1-11.3-5.69,59.47,59.47,0,0,1-6.59-5.59,52.76,52.76,0,0,1-6.82-8.55c2.36,2.1,4.49,3.62,4.49,3.62a43.23,43.23,0,0,0,11.3,5.69C44.81,76.89,60,66.84,61.3,66a49.55,49.55,0,0,0,6.58-5.59C80.56,47.58,85,29.61,79.65,17a21.7,21.7,0,0,1,5.19,4.45C95.27,33.72,91.69,55.87,76.8,70.88Z"/></svg>