<svg id="图层_1" data-name="图层 1" xmlns="http://www.w3.org/2000/svg" viewBox="0 0 96 96"><defs><style>.cls-1{fill:#f1a774;stroke-linecap:round;stroke-linejoin:round;}.cls-1,.cls-4,.cls-5{stroke:#1c1c1c;stroke-width:2.4px;}.cls-2,.cls-5{fill:#d57330;}.cls-3{fill:#b15d24;}.cls-4{fill:none;}.cls-4,.cls-5{stroke-miterlimit:10;}.cls-6{fill:#ffa56a;}.cls-7{fill:#1c1c1c;}.cls-8{fill:#cb7c46;}.cls-9{fill:#fff;}</style></defs><title>牛</title><path class="cls-1" d="M28.6,17.85a9.91,9.91,0,0,1-7.09-3.56,9.82,9.82,0,0,1-2.1-6.7c-.24.24-4.6,4.65-3.2,10.5a11.15,11.15,0,0,0,5,6.73Z"/><path class="cls-1" d="M67.4,17.85a9.91,9.91,0,0,0,7.09-3.56,9.82,9.82,0,0,0,2.1-6.7c.24.24,4.6,4.65,3.2,10.5a11.15,11.15,0,0,1-5,6.73Z"/><path class="cls-2" d="M24,22.18c-1.3-.32-9.61-2.23-15.89,2.91-5.8,4.74-8.06,14-5.3,16.6,1.35,1.29,3.88,1,4.3.9,2.27-.3,3.17-1.65,6.3-3.5a28.72,28.72,0,0,1,4.9-2.3Z"/><path class="cls-2" d="M72,22.18c1.3-.32,9.61-2.23,15.89,2.91,5.8,4.74,8.06,14,5.3,16.6-1.35,1.29-3.88,1-4.3.9-2.27-.3-3.17-1.65-6.3-3.5a28.72,28.72,0,0,0-4.9-2.3Z"/><path class="cls-3" d="M24,22.19q-2.84,7.29-5.7,14.6a28.56,28.56,0,0,0-4.89,2.3c-3.12,1.85-4,3.2-6.3,3.5-.42.06-2.95.39-4.3-.9-1.19-1.13-1.45-3.48-.9-6.18A3.77,3.77,0,0,0,2.81,37c1.35,1.29,3.88,1,4.3.9,2.28-.3,3.18-1.65,6.3-3.5a28.48,28.48,0,0,1,4.89-2.31q2-5.13,4-10.28A15.18,15.18,0,0,1,24,22.19Z"/><path class="cls-3" d="M93.2,41.69c-1.36,1.29-3.89,1-4.31.9-2.27-.3-3.17-1.65-6.3-3.5a28.72,28.72,0,0,0-4.9-2.3q-2.84-7.3-5.69-14.6a16.52,16.52,0,0,1,1.68-.34q2,5.15,4,10.28a28.64,28.64,0,0,1,4.9,2.31c3.13,1.85,4,3.2,6.3,3.5.42.05,3,.39,4.31-.9a3.55,3.55,0,0,0,.88-1.52C94.64,38.21,94.38,40.56,93.2,41.69Z"/><path class="cls-4" d="M24,22.18c-1.3-.32-9.61-2.23-15.89,2.91-5.8,4.74-8.06,14-5.3,16.6,1.35,1.29,3.88,1,4.3.9,2.27-.3,3.17-1.65,6.3-3.5a28.72,28.72,0,0,1,4.9-2.3Z"/><path class="cls-4" d="M72,22.18c1.3-.32,9.61-2.23,15.89,2.91,5.8,4.74,8.06,14,5.3,16.6-1.35,1.29-3.88,1-4.3.9-2.27-.3-3.17-1.65-6.3-3.5a28.72,28.72,0,0,0-4.9-2.3Z"/><path class="cls-5" d="M17.21,41.69a47.54,47.54,0,0,1,1.08-10.12,20.85,20.85,0,0,1,14-15.37,51.63,51.63,0,0,1,30.46-.3A21.93,21.93,0,0,1,77.92,32.62a47.52,47.52,0,0,1,.87,9.07v5.78c-10,.28-20.31.42-30.83.42s-20.77-.14-30.75-.42Z"/><path class="cls-6" d="M48,88.53a68.32,68.32,0,0,1-20-3A27.22,27.22,0,0,1,9.22,64.85,58.94,58.94,0,0,1,8.1,53.34a6.42,6.42,0,0,1,6.3-6.51c11.06-.24,22.38-.36,33.66-.36s22.55.12,33.54.36a6.4,6.4,0,0,1,6.3,6.43,59.44,59.44,0,0,1-1.3,12.5A26.42,26.42,0,0,1,68.88,85.32,68.3,68.3,0,0,1,48,88.53Z"/><path class="cls-7" d="M48.06,47.67c11.25,0,22.53.12,33.51.36a5.2,5.2,0,0,1,5.13,5.23v.08a58.2,58.2,0,0,1-1.28,12.17,25.2,25.2,0,0,1-16.9,18.66,68.15,68.15,0,0,1-40.18.26A26,26,0,0,1,10.4,64.62,58.21,58.21,0,0,1,9.3,53.34v-.08A5.2,5.2,0,0,1,14.43,48c11-.24,22.34-.36,33.63-.36m0-2.4c-11.44,0-22.69.12-33.69.36A7.63,7.63,0,0,0,6.9,53.26v.08A60.8,60.8,0,0,0,8,65.09a28.41,28.41,0,0,0,19.6,21.64,70.64,70.64,0,0,0,41.61-.27A27.59,27.59,0,0,0,87.77,66,60.19,60.19,0,0,0,89.1,53.34v-.08a7.63,7.63,0,0,0-7.47-7.63c-11-.24-22.17-.36-33.57-.36Z"/><path class="cls-8" d="M89.1,53.25v.09A60.19,60.19,0,0,1,87.77,66,27.6,27.6,0,0,1,69.26,86.46,69.76,69.76,0,0,1,48,89.73a69.22,69.22,0,0,1-20.38-3A28.35,28.35,0,0,1,11,73.23a28.41,28.41,0,0,0,12.24,7.5,69.14,69.14,0,0,0,20.36,3,69.71,69.71,0,0,0,21.24-3.28A27.59,27.59,0,0,0,83.37,60a60.86,60.86,0,0,0,1.34-12.67v-.08a5.9,5.9,0,0,0-.07-1A7.61,7.61,0,0,1,89.1,53.25Z"/><path class="cls-2" d="M37.28,59.3a10.12,10.12,0,0,1-3-1.27c-.55-.29-1.12-.58-1.68-.85A25.32,25.32,0,0,0,24.86,55a29.77,29.77,0,0,1,5.63-.62c2.94,0,4.92.66,5.89,2a4.32,4.32,0,0,1,.91,3Z"/><path class="cls-7" d="M30.49,55.24c1.81,0,4.18.28,5.17,1.62A4.7,4.7,0,0,1,36.25,58c-.51-.24-1.1-.54-1.55-.78s-1.13-.6-1.72-.87a23.73,23.73,0,0,0-2.8-1.13h.31m0-1.8a43.58,43.58,0,0,0-12,2.25c.82,0,1.61-.08,2.36-.08A25.83,25.83,0,0,1,32.21,58c1.94.92,3.93,2.21,5.07,2.21a.88.88,0,0,0,.63-.21c.76-.68.11-3-.8-4.2-1.3-1.77-3.83-2.35-6.62-2.35Z"/><path class="cls-2" d="M58.72,59.3h-.07a4.8,4.8,0,0,1,1-3c1-1.32,3-2,5.89-2a29.77,29.77,0,0,1,5.63.62,25.18,25.18,0,0,0-7.73,2.22c-.57.27-1.13.56-1.68.85A10.15,10.15,0,0,1,58.72,59.3Z"/><path class="cls-7" d="M65.51,55.24h.31A23.73,23.73,0,0,0,63,56.37c-.59.27-1.16.57-1.71.87s-1.05.54-1.55.78a4.35,4.35,0,0,1,.58-1.16c1-1.34,3.36-1.62,5.17-1.62m0-1.8c-2.79,0-5.32.58-6.62,2.35C58,57,57.33,59.31,58.09,60a.89.89,0,0,0,.63.21c1.14,0,3.13-1.29,5.07-2.21a25.83,25.83,0,0,1,11.34-2.38c.75,0,1.54,0,2.36.08a43.58,43.58,0,0,0-12-2.25Z"/><circle class="cls-9" cx="33.76" cy="33.12" r="13.42"/><path class="cls-7" d="M33.76,20.89A12.23,12.23,0,1,1,21.53,33.12,12.23,12.23,0,0,1,33.76,20.89m0-2.4A14.63,14.63,0,1,0,48.38,33.12,14.63,14.63,0,0,0,33.76,18.49Z"/><circle class="cls-7" cx="33.76" cy="32.75" r="4.44"/><circle class="cls-9" cx="62.3" cy="33.12" r="13.42"/><path class="cls-7" d="M62.3,20.89A12.23,12.23,0,1,1,50.07,33.12,12.23,12.23,0,0,1,62.3,20.89m0-2.4A14.63,14.63,0,1,0,76.92,33.12,14.63,14.63,0,0,0,62.3,18.49Z"/><circle class="cls-7" cx="62.3" cy="32.75" r="4.44"/><path class="cls-7" d="M48.06,47.67c11.25,0,22.53.12,33.51.36a5.2,5.2,0,0,1,5.13,5.23v.08a58.2,58.2,0,0,1-1.28,12.17,25.2,25.2,0,0,1-16.9,18.66,68.15,68.15,0,0,1-40.18.26A26,26,0,0,1,10.4,64.62,58.21,58.21,0,0,1,9.3,53.34v-.08A5.2,5.2,0,0,1,14.43,48c11-.24,22.34-.36,33.63-.36m0-2.4c-11.44,0-22.69.12-33.69.36A7.63,7.63,0,0,0,6.9,53.26v.08A60.8,60.8,0,0,0,8,65.09a28.41,28.41,0,0,0,19.6,21.64,70.64,70.64,0,0,0,41.61-.27A27.59,27.59,0,0,0,87.77,66,60.19,60.19,0,0,0,89.1,53.34v-.08a7.63,7.63,0,0,0-7.47-7.63c-11-.24-22.17-.36-33.57-.36Z"/></svg>