<svg id="图层_1" data-name="图层 1" xmlns="http://www.w3.org/2000/svg" viewBox="0 0 96 96"><defs><style>.cls-1,.cls-3{fill:#ffcb55;}.cls-1{stroke:#1c1c1c;stroke-linecap:round;stroke-miterlimit:10;stroke-width:2.4px;}.cls-2{fill:#ff9855;}.cls-4{fill:#1c1c1c;}.cls-5{fill:#f59f50;}.cls-6{fill:#fff;}.cls-7{opacity:0.75;}.cls-8{opacity:0.25;}.cls-9{opacity:0.1;}.cls-10{fill:#333;}</style></defs><title>狗头不敢相信</title><path class="cls-1" d="M9.81,24.43a20.1,20.1,0,0,1-.5-16.8,21.17,21.17,0,0,1,7.75,2.5,21.28,21.28,0,0,1,7,6.2Z"/><path class="cls-2" d="M11.83,23.25a18.08,18.08,0,0,1-1.28-7.4A17.65,17.65,0,0,1,11.14,12a18,18,0,0,1,3.95,1.51,18.1,18.1,0,0,1,5.64,4.63Z"/><path class="cls-1" d="M85.48,24.43a20.55,20.55,0,0,0,2-10.35A20.08,20.08,0,0,0,86,7.63a21.12,21.12,0,0,0-14.7,8.7Z"/><path class="cls-2" d="M83.46,23.25a17.75,17.75,0,0,0,1.28-7.4A17.05,17.05,0,0,0,84.15,12a18,18,0,0,0-9.59,6.14Z"/><path class="cls-3" d="M57.76,83.78a70.36,70.36,0,0,1-9.65.66A67.33,67.33,0,0,1,13.26,75l-.45-.27-.23-.46A60.72,60.72,0,0,1,10.8,23.74l.22-.51.46-.3A66.8,66.8,0,0,1,48.11,12.37,66.81,66.81,0,0,1,84.75,22.93l.47.3.21.51a60.72,60.72,0,0,1-1.78,50.54l-.23.46L83,75a63,63,0,0,1-10.76,5.19L65.07,91.11Z"/><path class="cls-4" d="M48.1,14.17A65.34,65.34,0,0,1,83.77,24.44a58.89,58.89,0,0,1-1.73,49A61.14,61.14,0,0,1,71,78.7l-6.26,9.57-6.39-6.41a66.61,66.61,0,0,1-10.29.78,65.58,65.58,0,0,1-33.91-9.17,58.89,58.89,0,0,1-1.73-49A65.26,65.26,0,0,1,48.1,14.17m0-3.6A68.58,68.58,0,0,0,10.5,21.42l-.93.6-.43,1a62.51,62.51,0,0,0,1.83,52l.47.92.89.54A69.11,69.11,0,0,0,48.1,86.24a72.77,72.77,0,0,0,9-.56l5.12,5.13L65.36,94l2.43-3.71,5.61-8.58a64.5,64.5,0,0,0,10.52-5.12L84.8,76l.46-.92a62.51,62.51,0,0,0,1.83-52l-.43-1-.93-.6A68.6,68.6,0,0,0,48.1,10.57Z"/><path class="cls-2" d="M88.29,47.06A58.32,58.32,0,0,1,82,73.46,61.17,61.17,0,0,1,71,78.7l-6.26,9.57-6.39-6.41a67.84,67.84,0,0,1-10.28.78,65.6,65.6,0,0,1-33.92-9.18c12.17,3.27,38,8.69,56.56-.86a25,25,0,0,0,5.55-3.72c14.11-12.65,8.94-38,7.47-44.45A58.51,58.51,0,0,1,88.29,47.06Z"/><path class="cls-2" d="M37.6,60.47c.06.74.11,1.47.16,2.21a8.41,8.41,0,0,1-3.4,2.55,9.28,9.28,0,0,1-7.45-.45,2.46,2.46,0,0,0,1.6,2.8c3.52.49,7.2.92,11.05,1.25,5.29.46,10.32.69,15,.75a6.33,6.33,0,0,0,6.1-3.45,6.27,6.27,0,0,0,0-5A8.38,8.38,0,0,1,58,65.58c-3.88,3.19-11.26,2.28-17.9-2.85-.15-.8-.29-1.61-.44-2.42a3.3,3.3,0,0,1-1.08.23A3.61,3.61,0,0,1,37.6,60.47Z"/><path class="cls-5" d="M26.39,63a19.45,19.45,0,0,1,4.55-10.41,13.82,13.82,0,0,1,4.72-3.45,14.69,14.69,0,0,1,5.72-1.26,19.22,19.22,0,0,1,11,3.37A22.12,22.12,0,0,1,56.72,55l.91,1.11.83,1.17a24.25,24.25,0,0,1,1.45,2.45,28.47,28.47,0,0,0-3.62-4.33A22.35,22.35,0,0,0,51.89,52a19.85,19.85,0,0,0-10.48-3,14,14,0,0,0-9.8,4.14,17.61,17.61,0,0,0-3.21,4.51A23.79,23.79,0,0,0,26.39,63Z"/><path class="cls-5" d="M32.56,24.78A5.35,5.35,0,0,1,36.62,28a5,5,0,0,1,.26,2.8,6,6,0,0,1-1.2,2.6l-.89-.8a5.08,5.08,0,0,0,1.22-2,4.31,4.31,0,0,0,.05-2.39A5.09,5.09,0,0,0,32.56,24.78Z"/><path class="cls-5" d="M50,24a4.9,4.9,0,0,0-3.52,3.48,4.15,4.15,0,0,0,.14,2.42,5,5,0,0,0,1.34,2l-.83.86a6,6,0,0,1-1.37-2.57,4.93,4.93,0,0,1,.15-2.85A5.2,5.2,0,0,1,50,24Z"/><path class="cls-2" d="M42.06,71.36a32.45,32.45,0,0,1,15.15,3.17,34,34,0,0,1-26.6-.6A32.14,32.14,0,0,1,42.06,71.36Z"/><path class="cls-6" d="M29.87,45.63a21.6,21.6,0,0,1-12.55-4.37,3,3,0,0,1-1.19-2.4,3.05,3.05,0,0,1,1.23-2.46,21.54,21.54,0,0,1,13-4.34,6.8,6.8,0,0,1,6.75,7.46,7,7,0,0,1-7.1,6.11Z"/><path d="M30.4,33a5.91,5.91,0,0,1,4.36,1.93,5.81,5.81,0,0,1,1.49,4.54,6.12,6.12,0,0,1-6.2,5.3H29.9a20.8,20.8,0,0,1-12-4.19A2.08,2.08,0,0,1,17,38.86a2.17,2.17,0,0,1,.87-1.74A20.66,20.66,0,0,1,30.4,33m0-1.8a22.52,22.52,0,0,0-13.58,4.52,4,4,0,0,0,0,6.3,22.59,22.59,0,0,0,13.07,4.55h.2a7.91,7.91,0,0,0,8-6.93,7.69,7.69,0,0,0-7.65-8.44Z"/><path d="M38.08,38.84a7.69,7.69,0,1,1-7.68-7.68A7.68,7.68,0,0,1,38.08,38.84Z"/><g class="cls-7"><path class="cls-6" d="M28.91,37.05a3.4,3.4,0,1,1-3.39-3.4A3.4,3.4,0,0,1,28.91,37.05Z"/></g><g class="cls-8"><path class="cls-6" d="M36,41.89a3.31,3.31,0,1,1-3.31-3.31A3.31,3.31,0,0,1,36,41.89Z"/></g><g class="cls-9"><path class="cls-6" d="M35.7,34.32a2.24,2.24,0,1,1-2.23-2.23A2.23,2.23,0,0,1,35.7,34.32Z"/></g><path class="cls-6" d="M63.36,46.11a28.21,28.21,0,0,1-16.43-5.72,4.09,4.09,0,0,1-1.65-3.32,4.22,4.22,0,0,1,1.7-3.4A28.19,28.19,0,0,1,64.05,28a9.09,9.09,0,0,1,6.71,3,9,9,0,0,1,2.31,7,9.4,9.4,0,0,1-9.47,8.16Z"/><path d="M64.05,28.88a8.18,8.18,0,0,1,6,2.68,8.08,8.08,0,0,1,2.08,6.3,8.48,8.48,0,0,1-8.57,7.35h-.22a27.33,27.33,0,0,1-15.91-5.54,3.21,3.21,0,0,1-1.29-2.6,3.32,3.32,0,0,1,1.34-2.68,27.32,27.32,0,0,1,16.53-5.51m0-1.8A29.23,29.23,0,0,0,46.44,33a5.12,5.12,0,0,0-.06,8.16,29.31,29.31,0,0,0,17,5.9h.26A10.24,10.24,0,0,0,74,38a10,10,0,0,0-9.91-11Z"/><path d="M74,37a10,10,0,1,1-10-10A10,10,0,0,1,74,37Z"/><g class="cls-7"><path class="cls-6" d="M62.7,34a4.41,4.41,0,1,1-4.4-4.4A4.4,4.4,0,0,1,62.7,34Z"/></g><g class="cls-8"><path class="cls-6" d="M71.28,41A4.29,4.29,0,1,1,67,36.71,4.29,4.29,0,0,1,71.28,41Z"/></g><g class="cls-9"><path class="cls-6" d="M70.92,31.18A2.9,2.9,0,1,1,68,28.29,2.9,2.9,0,0,1,70.92,31.18Z"/></g><path class="cls-10" d="M38.38,58.75c-1.63,0-4-2.08-5.27-5.61a6.14,6.14,0,0,1,5-3h.23A6.12,6.12,0,0,1,43.5,53a8.67,8.67,0,0,1-1.93,3.65c-.53.59-1.78,2-3,2.11Z"/><path d="M38.36,52a4.34,4.34,0,0,1,3.14,1.35,6.85,6.85,0,0,1-1.27,2.1c-1.18,1.31-1.68,1.5-1.85,1.52-.53,0-2.09-1.07-3.22-3.55a4.36,4.36,0,0,1,3-1.42h.16m0-3.6h-.3a8,8,0,0,0-6.9,4.6c1.44,4.62,4.51,7.57,7.22,7.57l.38,0c1.91-.2,3.46-1.92,4.15-2.7a10.55,10.55,0,0,0,2.5-5.15,8,8,0,0,0-7-4.3Z"/></svg>