<svg id="图层_1" data-name="图层 1" xmlns="http://www.w3.org/2000/svg" viewBox="0 0 96 96"><defs><style>.cls-1{fill:#c1814c;}.cls-2{fill:#e09f73;}.cls-3{fill:#ffed98;}.cls-4{fill:#ffcf66;}.cls-5{fill:#fff;}.cls-6{fill:#1c1c1c;}</style></defs><title>猫</title><path class="cls-1" d="M30.72,24.92,12.24,39A30.09,30.09,0,0,1,13,12.48,24,24,0,0,1,30.72,24.92Z"/><path class="cls-2" d="M28.1,26.92,14.67,37.17a21.84,21.84,0,0,1,.55-19.29A17.45,17.45,0,0,1,28.1,26.92Z"/><path class="cls-1" d="M65.28,24.92,83.75,39A30,30,0,0,0,83,12.48,24,24,0,0,0,65.28,24.92Z"/><path class="cls-2" d="M67.9,26.92,81.33,37.17a21.8,21.8,0,0,0-.56-19.29A17.45,17.45,0,0,0,67.9,26.92Z"/><path class="cls-3" d="M86.11,47.71a55.56,55.56,0,0,1-5.92,25.05,63.84,63.84,0,0,1-64.38,0,56,56,0,0,1-3.27-42.08,12,12,0,0,1,5.83-6.91A62.56,62.56,0,0,1,48,16.51a62.67,62.67,0,0,1,29.64,7.26,12,12,0,0,1,5.83,6.91A55.73,55.73,0,0,1,86.11,47.71Z"/><path class="cls-1" d="M84.51,34.46a21.08,21.08,0,0,0-22.48-4C60.72,24,58.22,19.64,55.37,19.64c-3.53,0-6.49,6.61-7.37,15.6-.88-9-3.85-15.6-7.38-15.6-2.85,0-5.35,4.36-6.66,10.81a21.08,21.08,0,0,0-22.49,4c.3-1.22.64-2.43,1-3.61a12.25,12.25,0,0,1,5.89-7.09A62.56,62.56,0,0,1,48,16.51a62.77,62.77,0,0,1,29.63,7.25,12.24,12.24,0,0,1,5.9,7.13Q84.08,32.65,84.51,34.46Z"/><circle class="cls-1" cx="33.96" cy="30.45" r="1.88"/><circle class="cls-1" cx="62.03" cy="30.45" r="1.88"/><path class="cls-4" d="M80.19,72.76a64.77,64.77,0,0,1-27.26,8.52c-.68,0-2.61.19-4.94.19a62.3,62.3,0,0,1-32.18-8.71,97.45,97.45,0,0,1,64.38,0Z"/><path d="M46.07,54.53a1.17,1.17,0,0,1,0-1.74,4.83,4.83,0,0,1,2.53-1.11,4.78,4.78,0,0,1,3.44,1,1.16,1.16,0,0,1,.06,1.79l-2.33,2.08a1.18,1.18,0,0,1-1.58,0Z"/><path class="cls-5" d="M29.52,47.26a11.17,11.17,0,0,1-10.7-8.06,1.49,1.49,0,0,1,.25-1.32,1.51,1.51,0,0,1,1.2-.6h16.3a2.12,2.12,0,0,1,1.53.63l.88.87a2.14,2.14,0,0,1,.42,2.47A11.08,11.08,0,0,1,29.52,47.26Z"/><path class="cls-6" d="M36.57,38.41a1,1,0,0,1,.73.31l.87.87a1,1,0,0,1,.22,1.14,10,10,0,0,1-18.47-1.84.38.38,0,0,1,.06-.33.34.34,0,0,1,.29-.15h16.3m0-2.27H20.27a2.65,2.65,0,0,0-2.54,3.38,12.27,12.27,0,0,0,22.68,2.26,3.27,3.27,0,0,0-.63-3.8l-.87-.87a3.31,3.31,0,0,0-2.34-1Z"/><path d="M36.66,36.14a7.89,7.89,0,1,1-15.78,0Z"/><path class="cls-5" d="M66.43,47.26a11.09,11.09,0,0,1-9.89-6A2.15,2.15,0,0,1,57,38.78l.87-.87a2.14,2.14,0,0,1,1.53-.63h16.3a1.5,1.5,0,0,1,1.45,1.92A11.15,11.15,0,0,1,66.43,47.26Z"/><path class="cls-6" d="M75.67,38.41a.37.37,0,0,1,.3.15.38.38,0,0,1,.06.33,10,10,0,0,1-18.48,1.84,1,1,0,0,1,.22-1.14l.88-.87a1,1,0,0,1,.72-.31h16.3m0-2.27H59.37a3.28,3.28,0,0,0-2.33,1l-.88.87a3.27,3.27,0,0,0-.63,3.8,12.27,12.27,0,0,0,22.69-2.26,2.66,2.66,0,0,0-2.55-3.38Z"/><path d="M59.41,36.14a7.83,7.83,0,0,0,15.66,0Z"/><path class="cls-5" d="M62,38.28a1.8,1.8,0,0,0,3.6,0Z"/><path class="cls-5" d="M23.25,38.28a1.8,1.8,0,1,0,3.6,0Z"/><path d="M50.25,56.6a7.13,7.13,0,0,1-1.7,3,6.11,6.11,0,0,1-2.9,1.73,5,5,0,0,1-3.22-.24A6,6,0,0,1,40,59.22a5.75,5.75,0,0,0,2.58,1.35,4.15,4.15,0,0,0,2.68-.3,4.63,4.63,0,0,0,1.94-1.72,5.23,5.23,0,0,0,.8-2.38,1.14,1.14,0,1,1,2.28.2,1.55,1.55,0,0,1,0,.21Z"/><path d="M50.25,56.17a5.35,5.35,0,0,0,.8,2.38A4.69,4.69,0,0,0,53,60.27a4.15,4.15,0,0,0,2.68.3,5.75,5.75,0,0,0,2.58-1.35,6,6,0,0,1-2.41,1.89,5,5,0,0,1-3.22.24,6,6,0,0,1-2.89-1.73,7.14,7.14,0,0,1-1.71-3v0a1.14,1.14,0,0,1,2.2-.63A.85.85,0,0,1,50.25,56.17Z"/><path d="M39.18,53.16a27,27,0,0,0-16.7,1.32,27.45,27.45,0,0,1,16.93-2.43.57.57,0,0,1-.19,1.12Z"/><path d="M38.52,55.52a24.51,24.51,0,0,0-9.33.67,26.05,26.05,0,0,0-8.53,4.13A26.25,26.25,0,0,1,29,55.65a25.53,25.53,0,0,1,9.6-1.27.57.57,0,0,1,.53.6.56.56,0,0,1-.6.54Z"/><path d="M37.31,58a17.74,17.74,0,0,0-7,1.62A18.71,18.71,0,0,0,24.4,64,19.22,19.22,0,0,1,30,59.13a18.52,18.52,0,0,1,7.21-2.24A.57.57,0,1,1,37.36,58Z"/><path d="M59.29,52.05a27.45,27.45,0,0,1,16.93,2.43,27,27,0,0,0-16.7-1.32.57.57,0,1,1-.27-1.1Z"/><path d="M60.08,54.38a25.53,25.53,0,0,1,9.6,1.27A26.25,26.25,0,0,1,78,60.32a26.05,26.05,0,0,0-8.53-4.13,24.51,24.51,0,0,0-9.33-.67.57.57,0,0,1-.63-.5.56.56,0,0,1,.5-.63Z"/><path d="M61.46,56.89a18.52,18.52,0,0,1,7.21,2.24A19.22,19.22,0,0,1,74.3,64a18.71,18.71,0,0,0-5.89-4.35,17.74,17.74,0,0,0-7-1.62.57.57,0,1,1,0-1.13Z"/><path class="cls-6" d="M83,12.48A30,30,0,0,1,84.9,36.15a55.09,55.09,0,0,1,1.21,11.56,55.59,55.59,0,0,1-5.92,25.05A66,66,0,0,1,48,81.46h-.11a64.76,64.76,0,0,1-23-4.24,57.82,57.82,0,0,1-9.07-4.45A55.52,55.52,0,0,1,9.89,47.71,55.09,55.09,0,0,1,11.1,36.15,30.09,30.09,0,0,1,13,12.48a23.88,23.88,0,0,1,14.16,7.46,65.19,65.19,0,0,1,40.19-.5l1.49.49A23.87,23.87,0,0,1,83,12.48M11.13,8.75,10,10.85a33.54,33.54,0,0,0-2.42,25.5A59.2,59.2,0,0,0,12.76,74.3l.44.88.84.51a61.18,61.18,0,0,0,9.61,4.71,68.54,68.54,0,0,0,24.22,4.48H48a69.5,69.5,0,0,0,33.88-9.15l.91-.51.46-.93a59.49,59.49,0,0,0,5.19-37.94A33.47,33.47,0,0,0,86,10.84L84.85,8.75,82.5,9.1A27.48,27.48,0,0,0,67.91,16a68.55,68.55,0,0,0-39.82,0,27.41,27.41,0,0,0-14.6-7l-2.36-.35Z"/></svg>