<svg id="图层_1" data-name="图层 1" xmlns="http://www.w3.org/2000/svg" viewBox="0 0 96 96"><defs><style>.cls-1{fill:#fff;}.cls-2{fill:#1c1c1c;}.cls-3{fill:#989898;}.cls-4{fill:#fc5;}.cls-4,.cls-5{stroke:#1c1c1c;stroke-linecap:square;stroke-linejoin:round;stroke-width:2.4px;}.cls-5{fill:#f59f50;}.cls-6{fill:#ee2d2c;}</style></defs><title>白鸡</title><path class="cls-1" d="M53.52,87.09a68.72,68.72,0,0,1-9.65.67A67.24,67.24,0,0,1,9,78.32l-.45-.26-.23-.47A60.79,60.79,0,0,1,6.56,27.06l.22-.51.46-.3A66.8,66.8,0,0,1,43.87,15.69,66.81,66.81,0,0,1,80.51,26.25l.47.3.21.51a60.69,60.69,0,0,1-1.78,50.53l-.23.46-.44.27A63,63,0,0,1,68,83.5L60.83,94.43Z"/><path class="cls-2" d="M43.87,17.49A65.41,65.41,0,0,1,79.53,27.75a58.94,58.94,0,0,1-1.72,49A61.59,61.59,0,0,1,66.8,82l-6.26,9.57-6.39-6.41A67.84,67.84,0,0,1,43.87,86,65.62,65.62,0,0,1,10,76.78a59,59,0,0,1-1.73-49A65.35,65.35,0,0,1,43.87,17.49m0-3.6A68.59,68.59,0,0,0,6.26,24.74l-.93.6-.43,1a62.61,62.61,0,0,0,1.83,52l.47.93.89.54a69.12,69.12,0,0,0,35.78,9.69,72.73,72.73,0,0,0,9-.56L58,94.13l3.13,3.14,2.43-3.71L69.17,85a65.65,65.65,0,0,0,10.51-5.12l.88-.54L81,78.4a61.64,61.64,0,0,0,6.63-28,61.9,61.9,0,0,0-4.8-24l-.43-1-.92-.6A68.65,68.65,0,0,0,43.87,13.89Z"/><path class="cls-3" d="M84.05,50.38a58.51,58.51,0,0,1-6.24,26.4A62.29,62.29,0,0,1,66.8,82l-6.26,9.56-6.39-6.4A67.84,67.84,0,0,1,43.87,86,65.62,65.62,0,0,1,10,76.78c12.17,3.27,38,8.69,56.56-.86a25.38,25.38,0,0,0,5.55-3.72c14.11-12.66,8.94-38,7.47-44.45A58.33,58.33,0,0,1,84.05,50.38Z"/><path class="cls-1" d="M61.53,52.28a.65.65,0,0,1-.64-.57A29.64,29.64,0,0,1,60.66,48c0-8.78,3.93-16.2,8.58-16.2s8.59,7.42,8.59,16.2c0,.53,0,1,0,1.54s-.09,1.3-.19,2.12a.64.64,0,0,1-.64.57l-.15,0h0c-.24-.07-.49-.12-.73-.18l-.11,0-.88-.2c-.63-.12-1.25-.21-1.88-.29l-.23,0-1.18-.12c-.41,0-.82-.06-1.22-.07l-1.25,0c-.64,0-1.29,0-1.92.06a30,30,0,0,0-5.67.89Z"/><path class="cls-2" d="M69.24,32.74c3.71,0,7.69,6.15,7.69,15.3,0,.51,0,1,0,1.5s-.08,1.1-.15,1.76l-.51-.12h-.07c-.31-.08-.62-.15-1-.22-.68-.12-1.29-.22-1.87-.29a2.16,2.16,0,0,0-.3,0c-.37-.05-.78-.1-1.21-.12h0c-.4,0-.8-.06-1.19-.07h0l-1.24,0c-.6,0-1.25,0-2,.06a30.66,30.66,0,0,0-5.57.85A27.5,27.5,0,0,1,61.56,48c0-9,4-15.3,7.68-15.3m0-1.8c-5.23,0-9.48,7.66-9.48,17.1A28.94,28.94,0,0,0,60,51.82a1.54,1.54,0,0,0,1.53,1.36,1.37,1.37,0,0,0,.4,0,29.29,29.29,0,0,1,5.5-.86q.91-.06,1.86-.06l1.21,0h0c.39,0,.77,0,1.15.07h0c.4,0,.78.07,1.16.12a.82.82,0,0,1,.21,0q.92.11,1.8.27l.86.19c.27.06.54.12.81.2h0a1.9,1.9,0,0,0,.4.05,1.54,1.54,0,0,0,1.53-1.36c.09-.71.16-1.44.2-2.18q0-.78,0-1.59c0-9.44-4.25-17.1-9.49-17.1Z"/><path class="cls-2" d="M78.7,49.63c0,.74-.11,1.47-.2,2.18a1.54,1.54,0,0,1-1.93,1.31h0c-.27-.08-.53-.14-.81-.2l-.86-.19q-.89-.16-1.8-.27a.82.82,0,0,0-.21,0c-.38-.05-.76-.08-1.16-.12h0c-.37,0-.75-.06-1.15-.07h0l-1.21,0q-.95,0-1.86.06c0-.35,0-.7,0-1.05,0-7.39,2.55-13.38,5.67-13.38C76,37.84,78.36,43,78.7,49.63Z"/><path class="cls-4" d="M74.29,60.83l9.77-8.66L92.29,61Z"/><path class="cls-5" d="M80.68,70.06l-6.39-9.23,18,.15Z"/><path class="cls-6" d="M66.08,15.52a20.19,20.19,0,0,0-9.79-9.84,2.43,2.43,0,0,1-.95-2.24c.26-1,1.71-1.45,2.56-1.51h.22C60,1.92,62.06,3.65,64,6.8A15.42,15.42,0,0,1,66.08,15.52Z"/><path class="cls-2" d="M58.12,2.82c.72,0,2.64.43,5.1,4.45a13.31,13.31,0,0,1,1.7,4.46c-.33-.46-.68-.91-1-1.34a21.21,21.21,0,0,0-7.07-5.46,1.59,1.59,0,0,1-.6-1.27c.11-.41,1-.78,1.76-.84h.15m0-1.8h-.28c-1.08.08-3,.66-3.37,2.18A3.32,3.32,0,0,0,55.8,6.44a19.35,19.35,0,0,1,10.69,13c.51-2.34,1.38-8-1.73-13.07C64.14,5.31,61.5,1,58.12,1Z"/><path class="cls-6" d="M65.07,16.6A26.39,26.39,0,0,0,46.86,9.35c-.54,0-1,0-1.48,0a2.61,2.61,0,0,1-1.21-2.6,2.69,2.69,0,0,1,2.68-2,3.64,3.64,0,0,1,.56,0l.1,0c1.27.09,12.57,1.16,16.68,9.46A13.72,13.72,0,0,1,65.07,16.6Z"/><path class="cls-2" d="M46.85,5.68a1.72,1.72,0,0,1,.39,0l.1,0h.1c1.15.09,10.9,1,15.24,7.74a27.32,27.32,0,0,0-15.82-5l-1.2,0A1.66,1.66,0,0,1,45.06,7a1.79,1.79,0,0,1,1.79-1.28h0m0-1.8a3.59,3.59,0,0,0-3.56,2.73,3.58,3.58,0,0,0,1.86,3.7c.5,0,1.07-.06,1.71-.06a25.48,25.48,0,0,1,9,1.62A25.9,25.9,0,0,1,66.49,19.4,15.11,15.11,0,0,0,65,13.91C60.63,5.1,48.83,4,47.57,4a3.51,3.51,0,0,0-.72-.07Z"/><path class="cls-6" d="M63.24,17.37a46.68,46.68,0,0,0-5.66-1.28,47.4,47.4,0,0,0-7.53-.6,48.65,48.65,0,0,0-9.22.89h-.1a2.19,2.19,0,0,1-.5-4.33,24.91,24.91,0,0,1,6.65-.9,24.66,24.66,0,0,1,16.36,6.22Z"/><path class="cls-2" d="M46.88,12.05A23.73,23.73,0,0,1,59.1,15.44l-1.38-.24a47.9,47.9,0,0,0-7.67-.61,49.7,49.7,0,0,0-9.32.89h0a1.29,1.29,0,0,1-.29-2.55h.06a23.94,23.94,0,0,1,6.38-.86m0-1.8a26.26,26.26,0,0,0-6.86.92,3.09,3.09,0,0,0,.71,6.11h.21a48,48,0,0,1,9.11-.88,45.51,45.51,0,0,1,7.38.59,47.11,47.11,0,0,1,9.06,2.42,25.55,25.55,0,0,0-19.61-9.15Z"/></svg>