<svg id="图层_1" data-name="图层 1" xmlns="http://www.w3.org/2000/svg" viewBox="0 0 96 96"><defs><style>.cls-1{fill:#ffcb55;}.cls-2{fill:#1c1c1c;}.cls-3{fill:#ff9855;}.cls-4,.cls-5{fill:#fff;}.cls-5{opacity:0.18;}</style></defs><title>相机</title><path class="cls-1" d="M48,84.15a67.37,67.37,0,0,1-34.83-9.42l-.44-.27L12.51,74A59.59,59.59,0,0,1,6,46.77a60.47,60.47,0,0,1,4.65-23.35l.22-.51.47-.3A67,67,0,0,1,48,12.08,67,67,0,0,1,84.66,22.61l.47.3.22.52A61,61,0,0,1,90,46.77,59.65,59.65,0,0,1,83.49,74l-.23.47-.45.26A67.54,67.54,0,0,1,48,84.15Z"/><path class="cls-2" d="M48,13.88A65.58,65.58,0,0,1,83.68,24.12a59.23,59.23,0,0,1,4.49,22.65,58.23,58.23,0,0,1-6.28,26.45A65.9,65.9,0,0,1,48,82.35a65.73,65.73,0,0,1-33.9-9.16,58.85,58.85,0,0,1-1.76-49.07A65.58,65.58,0,0,1,48,13.88m0-3.6A68.83,68.83,0,0,0,10.39,21.1l-.94.6-.43,1a62.24,62.24,0,0,0-4.79,24,61.38,61.38,0,0,0,6.67,28l.47.92.88.53A69.16,69.16,0,0,0,48,86a69.41,69.41,0,0,0,35.73-9.64l.89-.54.47-.92a61.45,61.45,0,0,0,6.67-28.08,62.76,62.76,0,0,0-4.76-24l-.43-1-.94-.61A68.84,68.84,0,0,0,48,10.28Z"/><path class="cls-3" d="M88.13,46.81a58.52,58.52,0,0,1-6.24,26.41,67.29,67.29,0,0,1-67.86,0c12.17,3.26,38,8.69,56.57-.86a25.17,25.17,0,0,0,5.54-3.73c14.11-12.65,9-38,7.47-44.44A58.32,58.32,0,0,1,88.13,46.81Z"/><path class="cls-4" d="M48,71A22.81,22.81,0,1,1,70.81,48.14,22.83,22.83,0,0,1,48,71Z"/><path d="M48,27.13a21,21,0,1,1-21,21,21,21,0,0,1,21-21m0-3.6A24.61,24.61,0,1,0,72.61,48.14,24.61,24.61,0,0,0,48,23.53Z"/><path d="M48,62.56A14.42,14.42,0,1,1,62.42,48.14,14.44,14.44,0,0,1,48,62.56Z"/><path d="M48,34.92A13.22,13.22,0,1,1,34.78,48.14,13.23,13.23,0,0,1,48,34.92m0-2.4A15.62,15.62,0,1,0,63.62,48.14,15.62,15.62,0,0,0,48,32.52Z"/><path class="cls-4" d="M36.89,48.14h4.38A6.73,6.73,0,0,1,48,41.41V37A11.11,11.11,0,0,0,36.89,48.14Z"/><path class="cls-5" d="M59.11,48.14H54.73A6.73,6.73,0,0,1,48,54.87v4.38A11.11,11.11,0,0,0,59.11,48.14Z"/></svg>