<svg id="图层_1" data-name="图层 1" xmlns="http://www.w3.org/2000/svg" xmlns:xlink="http://www.w3.org/1999/xlink" viewBox="0 0 96 96"><defs><style>.cls-1{fill:#846820;}.cls-2{fill:#ffcb55;}.cls-3,.cls-4{fill:#fff;}.cls-3{stroke:#000;stroke-linecap:round;stroke-linejoin:round;stroke-width:2.4px;}.cls-5{fill:#1c1c1c;}.cls-6,.cls-7{opacity:0.75;}.cls-6{fill:url(#未命名的渐变_32);}.cls-7{fill:url(#未命名的渐变_32-2);}</style><linearGradient id="未命名的渐变_32" x1="44.85" y1="47.64" x2="42.6" y2="37.59" gradientUnits="userSpaceOnUse"><stop offset="0" stop-color="#1c1c1c" stop-opacity="0"/><stop offset="0.42" stop-color="#1c1c1c" stop-opacity="0.31"/><stop offset="1" stop-color="#1c1c1c"/></linearGradient><linearGradient id="未命名的渐变_32-2" x1="77.12" y1="40.42" x2="74.87" y2="30.37" xlink:href="#未命名的渐变_32"/></defs><title>真服了</title><path class="cls-1" d="M57.64,82.71a68.61,68.61,0,0,1-9.65.67,67.27,67.27,0,0,1-34.85-9.44l-.44-.26-.24-.47a60.74,60.74,0,0,1-1.77-50.53l.21-.51.46-.31A66.9,66.9,0,0,1,48,11.31,66.92,66.92,0,0,1,84.64,21.86l.46.31.21.51a60.74,60.74,0,0,1-1.77,50.53l-.23.46-.45.27A63,63,0,0,1,72.1,79.12L65,90.05Z"/><path d="M48,13.11A65.36,65.36,0,0,1,83.65,23.37a58.94,58.94,0,0,1-1.72,49,61.27,61.27,0,0,1-11,5.24l-6.26,9.57L58.28,80.8A68.07,68.07,0,0,1,48,81.58,65.62,65.62,0,0,1,14.07,72.4a58.94,58.94,0,0,1-1.72-49A65.29,65.29,0,0,1,48,13.11m0-3.6A68.61,68.61,0,0,0,10.38,20.36l-.93.6L9,22a62.51,62.51,0,0,0,1.83,52l.46.93.89.53A69.05,69.05,0,0,0,48,85.18a72.77,72.77,0,0,0,9-.56l5.11,5.13,3.13,3.14,2.43-3.71,5.62-8.58A65.65,65.65,0,0,0,83.8,75.48l.88-.54.46-.92A62.51,62.51,0,0,0,87,22l-.42-1-.93-.6A68.65,68.65,0,0,0,48,9.51Z"/><path class="cls-2" d="M7.93,49.43a59.17,59.17,0,0,1,4.42-26.06,67.07,67.07,0,0,1,71.3,0,114.42,114.42,0,0,0-29-4.53c-18.46-.47-27.22,3.86-29.84,5.26a30.06,30.06,0,0,0-5.54,3.73C5.79,39.69,13,68.25,14.07,72.4A59.09,59.09,0,0,1,7.93,49.43Z"/><path class="cls-3" d="M59.86,28.37a2.94,2.94,0,0,1-2.1,5.13,52.58,52.58,0,0,0-30.11,8,2.93,2.93,0,0,1-4.36-3.37,22.52,22.52,0,0,1,16.1-14.9c.28-.06.55-.13.84-.18A22.55,22.55,0,0,1,59.86,28.37Z"/><path class="cls-4" d="M53.68,60.9a.67.67,0,0,1-.51-.27.51.51,0,0,1-.07-.51,12.68,12.68,0,0,1,9.07-8.4l.42-.09a13.25,13.25,0,0,1,2.62-.27,12.72,12.72,0,0,1,8.49,3.25.58.58,0,0,1,.17.68.61.61,0,0,1-.58.39l-1.43,0A33.71,33.71,0,0,0,54,60.8.57.57,0,0,1,53.68,60.9Z"/><path d="M65.22,52.56h0a11.48,11.48,0,0,1,6.31,1.89,34.88,34.88,0,0,0-16.62,4.41,11.79,11.79,0,0,1,2.24-3,11.5,11.5,0,0,1,5.29-2.93h.05c.1,0,.19-.05.29-.06l.1,0a11.54,11.54,0,0,1,2.34-.24m0-2.4a13.48,13.48,0,0,0-2.81.29,4.82,4.82,0,0,0-.52.11A13.85,13.85,0,0,0,52,59.74a1.8,1.8,0,0,0,1.72,2.36,1.83,1.83,0,0,0,1-.28,32.09,32.09,0,0,1,9.52-4,32.42,32.42,0,0,1,7.7-.93q.67,0,1.35,0h.08a1.81,1.81,0,0,0,1.21-3.16,13.94,13.94,0,0,0-9.29-3.56Z"/><path d="M35.3,32.62a5.34,5.34,0,0,1-4.92-3.29,21.52,21.52,0,0,1,9.3-4.92h.06A5,5,0,0,1,40.45,26a5.34,5.34,0,0,1-3.89,6.43A5.42,5.42,0,0,1,35.3,32.62Z"/><path class="cls-5" d="M39.12,25.8a4.51,4.51,0,0,1,.17.52,4.11,4.11,0,0,1-7.4,3.29,20.35,20.35,0,0,1,7.23-3.81m1.11-2.74c-.29.05-.56.12-.84.18A22.69,22.69,0,0,0,29,29a6.53,6.53,0,0,0,6.3,4.84,6.24,6.24,0,0,0,1.54-.19,6.52,6.52,0,0,0,4.78-7.87,6.44,6.44,0,0,0-1.39-2.7Z"/><path class="cls-3" d="M84.14,27.59a1.57,1.57,0,0,1-1.32,2.6,25,25,0,0,0-7.38,0,25.53,25.53,0,0,0-8,2.65,1.49,1.49,0,0,1-2-2,12.31,12.31,0,0,1,3.34-4.54,11.16,11.16,0,0,1,5.48-2.49l.43,0A10.81,10.81,0,0,1,84.14,27.59Z"/><path d="M72,27.68a2,2,0,0,1-1.81-1.09A10.28,10.28,0,0,1,74,25.07a2.61,2.61,0,0,1,.06.27,2.07,2.07,0,0,1-1.76,2.32Z"/><path class="cls-5" d="M74.67,23.77a3,3,0,0,0-.42,0,11.28,11.28,0,0,0-5.47,2.32,3.25,3.25,0,0,0,6.44-.95,3.07,3.07,0,0,0-.55-1.41Z"/><path class="cls-6" d="M26.21,42c8.13,6.51,18.55,7.39,25.47,2.62C56.85,41,58.5,35.41,59,33.3A56,56,0,0,0,26.21,42Z"/><path class="cls-7" d="M67.17,33c3.12,4.48,8.5,5.8,12,3.79,3.3-1.88,3.84-6,3.9-6.54a25.45,25.45,0,0,0-7.88,0A25.9,25.9,0,0,0,67.17,33Z"/></svg>