<svg id="图层_1" data-name="图层 1" xmlns="http://www.w3.org/2000/svg" xmlns:xlink="http://www.w3.org/1999/xlink" viewBox="0 0 96 96"><defs><style>.cls-1{fill:#fc5;}.cls-2{fill:#1c1c1c;}.cls-3{fill:#f95;}.cls-4,.cls-5{fill:none;stroke:#1c1c1c;stroke-linecap:round;stroke-linejoin:round;}.cls-4{stroke-width:2.32px;}.cls-5{stroke-width:2.3px;}.cls-6{fill:url(#未命名的渐变_28);}</style><linearGradient id="未命名的渐变_28" x1="48" y1="39.12" x2="48" y2="15.39" gradientUnits="userSpaceOnUse"><stop offset="0" stop-color="#fc5"/><stop offset="1" stop-color="#fff3bf"/></linearGradient></defs><title>秃头</title><path class="cls-1" d="M57.25,81.11a67.62,67.62,0,0,1-9.26.64,64.55,64.55,0,0,1-33.42-9l-.43-.26L13.92,72a58.31,58.31,0,0,1-1.71-48.47l.21-.49.44-.29A64.14,64.14,0,0,1,48,12.63,64.15,64.15,0,0,1,83.14,22.75l.44.29.21.49A58.31,58.31,0,0,1,82.08,72l-.22.44-.42.26a61.16,61.16,0,0,1-10.32,5L64.26,88.14Z"/><path class="cls-2" d="M48,14.35a62.59,62.59,0,0,1,34.2,9.85,56.47,56.47,0,0,1-1.65,47,59.17,59.17,0,0,1-10.55,5l-6,9.18-6.12-6.15A63.85,63.85,0,0,1,48,80a63,63,0,0,1-32.53-8.8,56.47,56.47,0,0,1-1.65-47A62.52,62.52,0,0,1,48,14.35m0-3.45A65.86,65.86,0,0,0,11.92,21.3l-.89.58-.41,1a60,60,0,0,0,1.76,49.91l.44.89.85.52A66.37,66.37,0,0,0,48,83.48a68.88,68.88,0,0,0,8.64-.55l4.9,4.93,3,3,2.33-3.56,5.38-8.23a62.08,62.08,0,0,0,10.09-4.91l.84-.51.44-.89a60,60,0,0,0,1.76-49.91l-.41-1-.89-.58A65.9,65.9,0,0,0,48,10.9Z"/><path class="cls-3" d="M86.53,45.89a56.07,56.07,0,0,1-6,25.33,59.17,59.17,0,0,1-10.55,5l-6,9.18-6.12-6.15A65.12,65.12,0,0,1,48,80a63,63,0,0,1-32.53-8.8c11.67,3.13,36.47,8.33,54.25-.83A24.13,24.13,0,0,0,75,66.82c13.53-12.13,8.58-36.46,7.16-42.63A56,56,0,0,1,86.53,45.89Z"/><path d="M55.57,58.83a5.23,5.23,0,0,1-1.78,3.59,4.88,4.88,0,0,1-3.59,1.2A4.65,4.65,0,0,1,47,62a4.39,4.39,0,0,1-1-3.19,4.06,4.06,0,0,0,1.44,2.78,3.78,3.78,0,0,0,2.78.86,3.47,3.47,0,0,0,2.37-1.27,3.19,3.19,0,0,0,.7-2.37,1.16,1.16,0,1,1,2.3-.28.74.74,0,0,1,0,.21Z"/><path d="M55.57,58.83a3.22,3.22,0,0,0,.69,2.37,3.51,3.51,0,0,0,2.38,1.27,3.81,3.81,0,0,0,2.78-.86,4.06,4.06,0,0,0,1.44-2.78,4.39,4.39,0,0,1-1,3.19,4.67,4.67,0,0,1-3.19,1.6,4.9,4.9,0,0,1-3.6-1.2,5.22,5.22,0,0,1-1.77-3.59v-.07a1.16,1.16,0,0,1,2.31-.15A.81.81,0,0,1,55.57,58.83Z"/><path class="cls-4" d="M24.14,16.48A47.82,47.82,0,0,0,.69,33"/><path class="cls-4" d="M22.55,20.4A60.4,60.4,0,0,0,2.28,36.53"/><path class="cls-4" d="M21.23,25.78A52,52,0,0,0,1,44.52"/><path class="cls-4" d="M19.93,32A35,35,0,0,0,5.33,46.7"/><path class="cls-4" d="M16.15,38.49a19.25,19.25,0,0,0-6.68,9.59"/><path class="cls-4" d="M71.86,16.51A47.89,47.89,0,0,1,95.31,33"/><path class="cls-4" d="M73.45,20.43A60.21,60.21,0,0,1,93.72,36.55"/><path class="cls-4" d="M74.77,25.8A52.24,52.24,0,0,1,95,44.54"/><path class="cls-4" d="M76.07,32.05a34.9,34.9,0,0,1,14.6,14.67"/><path class="cls-4" d="M79.85,38.51a19.65,19.65,0,0,1,4,4.14,19.41,19.41,0,0,1,2.69,5.45"/><path class="cls-5" d="M40.91,42.15c0,3.37-3.69,6.09-8.25,6.09"/><path class="cls-5" d="M65,42.15c0,3.37,3.69,6.09,8.25,6.09"/><circle cx="38.18" cy="52.89" r="2.35"/><circle cx="66.12" cy="52.89" r="2.35"/><ellipse class="cls-6" cx="48" cy="27.26" rx="24.12" ry="11.87"/></svg>