<svg id="图层_1" data-name="图层 1" xmlns="http://www.w3.org/2000/svg" viewBox="0 0 96 96"><defs><style>.cls-1,.cls-5{fill:#ffcb55;}.cls-2{fill:#1c1c1c;}.cls-3{fill:#ff9855;}.cls-4{fill:#d9d7d5;}.cls-5{stroke:#1c1c1c;stroke-linecap:round;stroke-linejoin:round;stroke-width:3.6px;}.cls-6{fill:#fff;}</style></defs><title>给点吗</title><path class="cls-1" d="M48.81,82.55A67.34,67.34,0,0,1,14,73.13l-.44-.26-.23-.46A59.63,59.63,0,0,1,6.83,45.17a60.38,60.38,0,0,1,4.65-23.34l.22-.52.47-.3A67.08,67.08,0,0,1,48.81,10.49,67.11,67.11,0,0,1,85.46,21l.47.3.22.52a61.14,61.14,0,0,1,4.62,23.34,59.69,59.69,0,0,1-6.48,27.27l-.23.46-.45.27A67.62,67.62,0,0,1,48.81,82.55Z"/><path class="cls-2" d="M48.81,12.29A65.66,65.66,0,0,1,84.48,22.52,59.41,59.41,0,0,1,89,45.17a58.2,58.2,0,0,1-6.28,26.45,65.81,65.81,0,0,1-33.88,9.13,65.64,65.64,0,0,1-33.9-9.16,58.85,58.85,0,0,1-1.76-49.07A65.65,65.65,0,0,1,48.81,12.29m0-3.6A68.91,68.91,0,0,0,11.19,19.5l-.94.61-.43,1A62.23,62.23,0,0,0,5,45.17,61.35,61.35,0,0,0,11.7,73.22l.47.92.88.54a69.24,69.24,0,0,0,35.76,9.67,69.31,69.31,0,0,0,35.73-9.64l.89-.53.47-.93a61.54,61.54,0,0,0,6.67-28.08,62.71,62.71,0,0,0-4.76-24l-.43-1-.94-.61A68.92,68.92,0,0,0,48.81,8.69Z"/><path class="cls-3" d="M89,45.15a58.51,58.51,0,0,1-6.24,26.4,67.29,67.29,0,0,1-67.86,0c12.17,3.27,38,8.69,56.56-.86A25.38,25.38,0,0,0,77,67C91.12,54.31,86,29,84.48,22.52A58.33,58.33,0,0,1,89,45.15Z"/><path class="cls-4" d="M58,91.25c-9,0-16.36-8.84-16.36-19.7H44c0,4,6.39,7.43,14,7.43s14-3.41,14-7.43h2.4C74.36,82.41,67,91.25,58,91.25Z"/><path class="cls-2" d="M73.16,71.55c0,10.22-6.79,18.5-15.17,18.5s-15.16-8.28-15.16-18.5c0,4.76,6.79,8.63,15.16,8.63s15.17-3.87,15.17-8.63m2.4,0h-4.8c0,2.94-5.24,6.23-12.77,6.23s-12.76-3.29-12.76-6.23h-4.8c0,11.52,7.88,20.9,17.56,20.9s17.57-9.38,17.57-20.9Z"/><line class="cls-5" x1="20.89" y1="48.95" x2="28.29" y2="83.35"/><line class="cls-5" x1="28.09" y1="44.85" x2="33.29" y2="87.65"/><path class="cls-2" d="M33.94,23.05l-.5,5.42,0,.24a1.14,1.14,0,0,1-.92,1,45.77,45.77,0,0,0-12.94,4.45,47.22,47.22,0,0,1,12.23-6.94l-.94,1.25-.51-5.42a1.81,1.81,0,1,1,3.6,0Z"/><path class="cls-2" d="M52.85,21.4l-.42,5.41-1.24-1.37a49.35,49.35,0,0,1,16.74,6.19,47.81,47.81,0,0,0-17-3.45A1.26,1.26,0,0,1,49.69,27v-.23l-.43-5.41a1.82,1.82,0,0,1,1.66-1.94,1.79,1.79,0,0,1,1.94,1.66A1.31,1.31,0,0,1,52.85,21.4Z"/><path class="cls-2" d="M28.55,48.32a38.26,38.26,0,0,1,7-3.25,52.89,52.89,0,0,1,7.47-2,30.33,30.33,0,0,1,7.72-.73,20.44,20.44,0,0,1,7.56,1.85.12.12,0,0,1,.06.17.12.12,0,0,1-.1.07c-2.6.14-5.07.18-7.54.31s-5,0-7.44.23a53.16,53.16,0,0,0-7.39,1.2,43.18,43.18,0,0,0-7.18,2.31.11.11,0,0,1-.15-.06A.11.11,0,0,1,28.55,48.32Z"/><circle cx="28.25" cy="36.8" r="2.45"/><circle cx="58.23" cy="35.6" r="2.45"/><path class="cls-6" d="M58,81.38c-9.17,0-16.36-4.32-16.36-9.83S48.82,61.71,58,61.71,74.36,66,74.36,71.55,67.17,81.38,58,81.38Z"/><path class="cls-2" d="M58,62.91c8.38,0,15.17,3.86,15.17,8.64S66.37,80.18,58,80.18s-15.16-3.87-15.16-8.63S49.62,62.91,58,62.91m0-2.4c-9.85,0-17.56,4.85-17.56,11s7.71,11,17.56,11,17.57-4.85,17.57-11-7.72-11-17.57-11Z"/><path class="cls-1" d="M13.75,81.82a10.83,10.83,0,0,1-5.69-1.64,11.78,11.78,0,0,1-3.27-3c-.16-.22-.32-.45-.46-.67a10.55,10.55,0,0,1,.74-12c.26-.34.54-.69.84-1a20.82,20.82,0,0,1,3.5-3.2,25.83,25.83,0,0,0,1.14,3,25.32,25.32,0,0,0,2.34,4,1.23,1.23,0,0,0,1,.51h0a1.2,1.2,0,0,0,1-.51c1-1.33,6-8,12.88-8,.3,0,.61,0,.92,0,3.71.34,6.05,1.54,6.75,3.5s-.57,4.36-1.33,5.43A10.16,10.16,0,0,0,31,67.76a8.76,8.76,0,0,0-6.63,2.86,8.29,8.29,0,0,0-1.92,4.17,7.86,7.86,0,0,1-3.19,5.36l-.12.08A9.77,9.77,0,0,1,13.75,81.82Z"/><path class="cls-2" d="M27.73,60.47c.27,0,.54,0,.81,0,3.17.28,5.21,1.24,5.74,2.71a4.52,4.52,0,0,1-.74,3.63A11,11,0,0,0,31,66.56a10,10,0,0,0-7.53,3.27,9.39,9.39,0,0,0-2.2,4.77,6.69,6.69,0,0,1-2.68,4.55l-.06,0-.07,0a8.54,8.54,0,0,1-4.7,1.38,9.65,9.65,0,0,1-5.06-1.46,10.53,10.53,0,0,1-2.93-2.71c-.15-.2-.29-.4-.42-.61A9.35,9.35,0,0,1,6,65.23c.25-.33.52-.66.8-1a21.08,21.08,0,0,1,2-2c.2.5.41,1,.63,1.48A26.82,26.82,0,0,0,11.91,68a2.42,2.42,0,0,0,2,1h0a2.41,2.41,0,0,0,2-1c.55-.77,5.54-7.49,11.91-7.49h0m0-2.4c-7.63,0-13.16,7.52-13.86,8.5a24.74,24.74,0,0,1-2.23-3.85,24.49,24.49,0,0,1-1.53-4.36A22,22,0,0,0,5,62.68c-.32.37-.62.73-.9,1.1a11.76,11.76,0,0,0-.79,13.35,8.87,8.87,0,0,0,.51.74,12.63,12.63,0,0,0,3.6,3.32A11.92,11.92,0,0,0,13.75,83a10.88,10.88,0,0,0,6-1.78l.08,0,.08,0A9.13,9.13,0,0,0,23.63,75a7.16,7.16,0,0,1,1.63-3.58A7.56,7.56,0,0,1,31,69a9.07,9.07,0,0,1,3.49.71c.19-.22,3.3-3.8,2.05-7.27-1.33-3.71-6.53-4.17-7.77-4.28-.35,0-.7,0-1,0Z"/><path class="cls-1" d="M74.93,89.56c-5.41,0-10.19-2.15-11.37-5.12-.6-1.49-.62-3.78.38-4.86a3.78,3.78,0,0,1,2.44-.87,6.23,6.23,0,0,0,4.28-1.94,5.1,5.1,0,0,0,1.12-2.57A2.09,2.09,0,0,1,72.24,73a3.78,3.78,0,0,1,2.89-.88,16.82,16.82,0,0,1,3.86.53,1.33,1.33,0,0,0,.28,0,1.17,1.17,0,0,0,.75-.27,24.8,24.8,0,0,0,6.38-7.66,24.3,24.3,0,0,0,1.36-3,14,14,0,0,1,5,7.18c2.29,8.43-5.27,17.85-13.06,20A17.66,17.66,0,0,1,74.93,89.56Z"/><path class="cls-2" d="M88.24,63.73a12.17,12.17,0,0,1,3.39,5.49c2.11,7.79-5,16.52-12.23,18.56a16.94,16.94,0,0,1-4.47.58c-4.86,0-9.27-1.87-10.26-4.36-.44-1.11-.48-2.93.15-3.6.26-.27.72-.36,1.73-.51a7.26,7.26,0,0,0,5-2.35A6.12,6.12,0,0,0,73,74.42c.09-.5.11-.54.17-.61a3,3,0,0,1,2-.48,15.76,15.76,0,0,1,3.59.5,2.51,2.51,0,0,0,.55.06,2.37,2.37,0,0,0,1.5-.53,26.06,26.06,0,0,0,6.69-8q.42-.78.78-1.59m-1.1-3.94a22.85,22.85,0,0,1-1.8,4.4,23.86,23.86,0,0,1-6.07,7.3,18.29,18.29,0,0,0-4.14-.56c-2.08,0-3.17.6-3.79,1.28-1.07,1.21-.39,2.36-1.6,3.78-1.9,2.24-4.88.86-6.67,2.77-1.46,1.56-1.31,4.41-.63,6.13,1.48,3.71,7,5.87,12.49,5.87A19.26,19.26,0,0,0,80,90.09c8.8-2.46,16.32-12.61,13.9-21.5-1.29-4.74-5-7.59-6.8-8.8Z"/></svg>