<svg id="图层_1" data-name="图层 1" xmlns="http://www.w3.org/2000/svg" viewBox="0 0 96 96"><defs><style>.cls-1{fill:#95959c;}.cls-2{fill:#1c1c1c;}.cls-3{fill:#78777c;}.cls-4{fill:#fff;}.cls-5{fill:#333;}.cls-6{fill:none;stroke:#000;stroke-miterlimit:10;stroke-width:2.99px;}.cls-7{fill:#5c616d;}.cls-7,.cls-8{fill-rule:evenodd;}.cls-8{fill:#282c35;}.cls-9{fill:#238a55;}</style></defs><title>考拉呆住</title><path class="cls-1" d="M13,54.46a5.16,5.16,0,0,1-3.84-1.64A4.93,4.93,0,0,1,8,50.4a6.09,6.09,0,0,1-2.62-3.12A5.78,5.78,0,0,1,5,44.88,8.34,8.34,0,0,1,2.1,41.3c-2.24-5.42,2.58-11.41,5.46-15a36.63,36.63,0,0,1,10.51-8.87l.28-.16.32,0c.56,0,1.12-.07,1.67-.07a18.74,18.74,0,0,1,4.77.61,19,19,0,0,1,5.48,2.44l1.11.72-16.1,33-.57.2a5.9,5.9,0,0,1-2,.36Z"/><path class="cls-2" d="M20.34,18.66a17.26,17.26,0,0,1,9.43,2.81Q22.15,37.09,14.52,52.69A4.5,4.5,0,0,1,13,53a3.66,3.66,0,0,1-2.74-1.14,3.6,3.6,0,0,1-.87-2.37,4.79,4.79,0,0,1-2.62-2.68,4.51,4.51,0,0,1-.12-2.62,7.4,7.4,0,0,1-3.18-3.42c-1.9-4.6,2.61-10.21,5.25-13.49a34.75,34.75,0,0,1,10.08-8.51c.44,0,1-.07,1.53-.07m0-3c-.6,0-1.2,0-1.8.08l-.64.06-.57.32A37.84,37.84,0,0,0,6.4,25.37C3.51,29-1.86,35.64.72,41.87a9.5,9.5,0,0,0,2.82,3.74A7.19,7.19,0,0,0,4,47.78a7.45,7.45,0,0,0,2.71,3.55,6.34,6.34,0,0,0,1.37,2.49A6.67,6.67,0,0,0,13,56a7.55,7.55,0,0,0,2.52-.44l1.14-.41L17.21,54l8.88-18.19,6.37-13,1.16-2.37L31.41,19a20.29,20.29,0,0,0-11.07-3.3Z"/><path class="cls-1" d="M9.55,39.54a19.54,19.54,0,0,0-2.36,2.37,19.21,19.21,0,0,0-2.37,3.52"/><path class="cls-2" d="M9.55,39.54a18.79,18.79,0,0,0-3.41,6.59L3.5,44.73A20.22,20.22,0,0,1,9.55,39.54Z"/><path class="cls-1" d="M11.28,44.22a19.4,19.4,0,0,0-1.59,3,20,20,0,0,0-1.27,4"/><path class="cls-2" d="M11.28,44.22a18.5,18.5,0,0,0-1.39,7.29L7,50.93A20.25,20.25,0,0,1,11.28,44.22Z"/><path class="cls-1" d="M83,54.46a5.91,5.91,0,0,1-2-.36l-.57-.2-16.1-33,1.11-.72a19,19,0,0,1,5.48-2.44,18.74,18.74,0,0,1,4.77-.61c.55,0,1.11,0,1.67.07l.32,0,.28.16A36.63,36.63,0,0,1,88.44,26.3c2.88,3.59,7.7,9.58,5.46,15A8.34,8.34,0,0,1,91,44.88a5.78,5.78,0,0,1-.34,2.4A6.09,6.09,0,0,1,88,50.4a4.93,4.93,0,0,1-1.16,2.42A5.16,5.16,0,0,1,83,54.46Z"/><path class="cls-2" d="M75.66,18.66c.58,0,1.09,0,1.53.07a34.75,34.75,0,0,1,10.08,8.51c2.64,3.28,7.15,8.89,5.25,13.49a7.4,7.4,0,0,1-3.18,3.42,4.51,4.51,0,0,1-.12,2.62,4.79,4.79,0,0,1-2.62,2.68,3.6,3.6,0,0,1-.87,2.37A3.66,3.66,0,0,1,83,53a4.5,4.5,0,0,1-1.51-.27q-7.64-15.6-15.25-31.22a17.26,17.26,0,0,1,9.43-2.81m0-3h0A20.29,20.29,0,0,0,64.59,19l-2.21,1.44,1.16,2.37,6.37,13L78.79,54l.54,1.09,1.14.41A7.55,7.55,0,0,0,83,56a6.67,6.67,0,0,0,5-2.13,6.34,6.34,0,0,0,1.37-2.49A7.45,7.45,0,0,0,92,47.78a7.19,7.19,0,0,0,.43-2.17,9.5,9.5,0,0,0,2.82-3.74c2.58-6.23-2.79-12.91-5.68-16.5a37.84,37.84,0,0,0-10.93-9.24l-.57-.32-.64-.06c-.6-.05-1.2-.08-1.8-.08Z"/><path class="cls-1" d="M86.45,39.54a19.54,19.54,0,0,1,2.36,2.37,19.21,19.21,0,0,1,2.37,3.52"/><path class="cls-2" d="M86.45,39.54a20.22,20.22,0,0,1,6,5.19l-2.64,1.4A18.79,18.79,0,0,0,86.45,39.54Z"/><path class="cls-1" d="M84.72,44.22a19.4,19.4,0,0,1,1.59,3,20,20,0,0,1,1.27,4"/><path class="cls-2" d="M84.72,44.22a20.25,20.25,0,0,1,4.33,6.71l-2.94.58A18.5,18.5,0,0,0,84.72,44.22Z"/><path class="cls-1" d="M48,78.82A57.46,57.46,0,0,1,19.06,71l-.38-.22-.2-.4a49.74,49.74,0,0,1-5.35-22.61,50.54,50.54,0,0,1,2-14.24,13.93,13.93,0,0,1,6.88-8.42,57.74,57.74,0,0,1,51.9,0,14,14,0,0,1,6.88,8.43,50.42,50.42,0,0,1,2,14.23,49.74,49.74,0,0,1-5.35,22.61l-.2.4-.38.22A57.51,57.51,0,0,1,48,78.82Z"/><path class="cls-2" d="M48,20.44a55,55,0,0,1,25.27,6A12.37,12.37,0,0,1,79.39,34a49.09,49.09,0,0,1-3.2,35.75A56.19,56.19,0,0,1,48,77.32h0A56.18,56.18,0,0,1,19.81,69.7,49.09,49.09,0,0,1,16.61,34a12.35,12.35,0,0,1,6.12-7.52,55,55,0,0,1,25.26-6m0-3a58.23,58.23,0,0,0-26.63,6.33,15.38,15.38,0,0,0-7.62,9.32A52.09,52.09,0,0,0,17.14,71l.4.8.77.44a58.9,58.9,0,0,0,59.38,0l.77-.44.4-.8a51.29,51.29,0,0,0,5.5-23.28,51.65,51.65,0,0,0-2.1-14.66,15.38,15.38,0,0,0-7.62-9.32A58.31,58.31,0,0,0,48,17.45Z"/><path class="cls-3" d="M81.37,47.76a49,49,0,0,1-2.31,14.9,48.54,48.54,0,0,1-2.87,7,56,56,0,0,1-56.38,0c10.11,2.71,31.6,7.22,47-.72a22.56,22.56,0,0,0,4.6-3.09c10.46-9.2,8.92-25.79,8.21-31.14A49.4,49.4,0,0,1,81.37,47.76Z"/><path class="cls-4" d="M26.45,45a4.09,4.09,0,1,1,3.83-4.09A4,4,0,0,1,26.45,45Z"/><path d="M26.45,37.79a3.11,3.11,0,0,1,0,6.19,3.11,3.11,0,0,1,0-6.19m0-2a5.09,5.09,0,0,0,0,10.17,5.09,5.09,0,0,0,0-10.17Z"/><ellipse class="cls-5" cx="44.64" cy="69.03" rx="16.31" ry="6.48"/><path d="M44.64,63.53C53.11,63.53,60,66,60,69s-6.86,5.5-15.33,5.5S29.3,72.07,29.3,69s6.87-5.5,15.34-5.5m0-2c-8.33,0-17.29,2.34-17.29,7.46s9,7.45,17.29,7.45S61.93,74.15,61.93,69s-9-7.46-17.29-7.46Z"/><ellipse cx="24.6" cy="40.88" rx="3" ry="2.98" transform="translate(-16.93 64.38) rotate(-88.47)"/><path class="cls-4" d="M58.45,45.3a4.42,4.42,0,1,1,4.14-4.42A4.29,4.29,0,0,1,58.45,45.3Z"/><path d="M58.45,37.46a3.44,3.44,0,1,1-3.16,3.42,3.31,3.31,0,0,1,3.16-3.42m0-2a5.42,5.42,0,1,0,5.14,5.41,5.28,5.28,0,0,0-5.14-5.41Z"/><ellipse cx="60.52" cy="40.88" rx="3.09" ry="3.07" transform="translate(18.03 100.29) rotate(-88.47)"/><path class="cls-6" d="M48.53,46v5.76A2.61,2.61,0,0,1,46,54.4a2.47,2.47,0,0,1-1.91-.91,2.4,2.4,0,0,1-4.79,0,2.43,2.43,0,0,1-1.91.92,2.61,2.61,0,0,1-2.54-2.67V46a6.85,6.85,0,1,1,13.69,0Z"/><path class="cls-7" d="M48.53,46v5.76A2.61,2.61,0,0,1,46,54.4a2.47,2.47,0,0,1-1.91-.91,2.4,2.4,0,0,1-4.79,0,2.43,2.43,0,0,1-1.91.92,2.61,2.61,0,0,1-2.54-2.67V46a6.85,6.85,0,1,1,13.69,0Z"/><path class="cls-8" d="M48.53,46v5.76A2.61,2.61,0,0,1,46,54.4a2.47,2.47,0,0,1-1.91-.91,2.4,2.4,0,0,1-4.79,0,2.43,2.43,0,0,1-1.91.92,2.61,2.61,0,0,1-2.54-2.67v-.25a2.44,2.44,0,0,0,1.63.63,2.46,2.46,0,0,0,1.91-.92,2.4,2.4,0,0,0,4.79,0,2.5,2.5,0,0,0,1.91.91,2.61,2.61,0,0,0,2.54-2.67V43.67a6.92,6.92,0,0,0-.18-1.59A7.38,7.38,0,0,1,48.53,46Z"/><path class="cls-9" d="M34.67,78.78a14.09,14.09,0,0,1-1.45-.08.39.39,0,0,1-.31-.2,10.65,10.65,0,0,1-1.09-8.12,10.54,10.54,0,0,1,4.8-6.2l.1,0a31.48,31.48,0,0,1,6.17-1c.58,0,1.14,0,1.68,0,.82,0,1.65,0,2.47.1a.41.41,0,0,1,.38.37C48,69,45.79,74.06,41.68,76.75a12.78,12.78,0,0,1-7,2Z"/><path d="M44.56,63.53c.87,0,1.69,0,2.45.1a13.46,13.46,0,0,1-5.55,12.78,12.39,12.39,0,0,1-6.79,2c-.59,0-1.07,0-1.41-.07a10.31,10.31,0,0,1-1-7.8,10.18,10.18,0,0,1,4.61-5.95,30.41,30.41,0,0,1,6.09-1c.56,0,1.11,0,1.64,0m0-.83c-.56,0-1.13,0-1.69,0a30.72,30.72,0,0,0-6.25,1,1,1,0,0,0-.21.08,11,11,0,0,0-5,6.45,11.09,11.09,0,0,0,1.13,8.44.8.8,0,0,0,.63.4,14.72,14.72,0,0,0,1.49.08,13.18,13.18,0,0,0,7.24-2.09c4.24-2.78,6.51-8,5.92-13.56a.83.83,0,0,0-.76-.74c-.83-.07-1.67-.1-2.51-.1Z"/><path class="cls-9" d="M48.05,80.14a.45.45,0,0,1-.2,0c-.56-.3-5.46-3-6.18-8.72a11.64,11.64,0,0,1,2-7.92.42.42,0,0,1,.31-.18c.61-.05,1.23-.07,1.84-.07a24.11,24.11,0,0,1,3.17.21,23.77,23.77,0,0,1,4.25,1,.39.39,0,0,1,.27.3,15.68,15.68,0,0,1-1.78,11.74,13.78,13.78,0,0,1-3.43,3.64A.37.37,0,0,1,48.05,80.14Z"/><path d="M45.81,63.63a23.31,23.31,0,0,1,3.11.2,24.22,24.22,0,0,1,4.18.94A15.28,15.28,0,0,1,51.37,76.2a13.6,13.6,0,0,1-3.32,3.53c-.49-.26-5.27-2.9-6-8.41A11.2,11.2,0,0,1,44,63.69c.55,0,1.16-.06,1.81-.06m0-.83c-.62,0-1.25,0-1.87.07a.84.84,0,0,0-.62.35,12.06,12.06,0,0,0-2.06,8.21c.74,5.88,5.82,8.73,6.4,9a.76.76,0,0,0,.39.1.89.89,0,0,0,.49-.16,14.28,14.28,0,0,0,3.53-3.75,16.1,16.1,0,0,0,1.84-12.06.85.85,0,0,0-.55-.61,24.71,24.71,0,0,0-7.55-1.18Z"/><path d="M48.92,63.83a25.83,25.83,0,0,0-1.12,4.38,33.56,33.56,0,0,0-.38,4.47,15.52,15.52,0,0,0,.5,4.33,12.45,12.45,0,0,0,.76,2c.3.64.74,1.21,1.09,1.81l.09.16a1,1,0,0,1-.36,1.36A1,1,0,0,1,48.13,82a.59.59,0,0,1,0-.08c-.34-.75-.75-1.45-1-2.22a13.55,13.55,0,0,1-.61-2.33,16.24,16.24,0,0,1,0-4.72,32.67,32.67,0,0,1,.88-4.51A27.76,27.76,0,0,1,48.92,63.83Z"/><path d="M43.32,63.56A39.27,39.27,0,0,1,31.76,80.87h0a1,1,0,0,1-1.31-1.51l.08-.06A38.25,38.25,0,0,0,43.32,63.56Z"/></svg>