<svg id="图层_1" data-name="图层 1" xmlns="http://www.w3.org/2000/svg" viewBox="0 0 96 96"><defs><style>.cls-1{fill:#fc5;}.cls-2{fill:#1c1c1c;}.cls-3{fill:#f95;}</style></defs><title>胜利</title><path class="cls-1" d="M49.79,88.4A23.34,23.34,0,0,1,27.17,71L25,68.84a6.79,6.79,0,0,1,3.05-11.47,2.88,2.88,0,0,1,.13-.31A7.37,7.37,0,0,1,35.05,47a6.63,6.63,0,0,1,1.08.08l.28-.2L30.58,16.36a7.37,7.37,0,0,1,5.86-8.62,6.58,6.58,0,0,1,1.4-.14,7.39,7.39,0,0,1,7.23,6l4.72,24.64,4.72-24.64a7.39,7.39,0,0,1,7.24-6,6.88,6.88,0,0,1,1.41.14A7.37,7.37,0,0,1,69,16.36L63.17,46.85l.45.32a8.44,8.44,0,0,1,7.59,9.41,22.32,22.32,0,0,1,1.85,9A23.09,23.09,0,0,1,49.79,88.4Z"/><path class="cls-2" d="M61.75,9.4A5.58,5.58,0,0,1,67.23,16L61.17,47.7A18,18,0,0,1,63,48.94a6.61,6.61,0,0,1,6.37,7.89,20.52,20.52,0,0,1,1.92,8.71A21.52,21.52,0,0,1,28.81,70l-2.56-2.48A5,5,0,0,1,29.38,59,20.41,20.41,0,0,1,30.15,57a5.58,5.58,0,0,1,4.9-8.27,6,6,0,0,1,1.51.2,19.53,19.53,0,0,1,1.85-1.27L32.35,16A5.57,5.57,0,1,1,43.3,13.93l5.86,30.58h1.26l5.85-30.58A5.6,5.6,0,0,1,61.75,9.4m0-3.6a9.2,9.2,0,0,0-9,7.45l-3,15.41L46.84,13.25a9.19,9.19,0,0,0-9-7.45A8.92,8.92,0,0,0,36.07,6,9.19,9.19,0,0,0,28.81,16.7l5.45,28.5A9.2,9.2,0,0,0,28.45,48,9.09,9.09,0,0,0,26,56.19a8.6,8.6,0,0,0-2.3,13.93l1.82,1.78A25.15,25.15,0,0,0,49.79,90.2,24.89,24.89,0,0,0,74.86,65.54,24,24,0,0,0,73,56.31a10.12,10.12,0,0,0-1.76-6.53,10.24,10.24,0,0,0-6-4.16L70.77,16.7a9.21,9.21,0,0,0-9-10.9Z"/><path class="cls-3" d="M71.26,65.54A21.27,21.27,0,0,1,49.79,86.6a21.62,21.62,0,0,1-17.22-8.46A21.69,21.69,0,0,0,45.8,82.61,21.27,21.27,0,0,0,67.27,61.55,20.69,20.69,0,0,0,63,49,20.85,20.85,0,0,1,71.26,65.54Z"/><path class="cls-1" d="M54.23,61.14A6.11,6.11,0,0,1,53,61a6.67,6.67,0,0,1-3.16-1.52A6.71,6.71,0,0,1,46.63,61a6.11,6.11,0,0,1-1.28.13,6.79,6.79,0,0,1-6.65-5.51L31.17,16.25a6.79,6.79,0,0,1,5.38-7.93,7.12,7.12,0,0,1,1.29-.12,6.78,6.78,0,0,1,6.64,5.5l5.31,27.72L55.1,13.7a6.77,6.77,0,0,1,6.64-5.5A7,7,0,0,1,63,8.32a6.78,6.78,0,0,1,5.39,7.93L60.88,55.63A6.8,6.8,0,0,1,54.23,61.14Z"/><path class="cls-2" d="M61.74,9.4a5.51,5.51,0,0,1,1.06.1A5.58,5.58,0,0,1,67.23,16L59.7,55.41a5.58,5.58,0,0,1-5.47,4.53,6.44,6.44,0,0,1-1.06-.1,5.53,5.53,0,0,1-3.38-2.1,5.52,5.52,0,0,1-3.39,2.1,6.22,6.22,0,0,1-1,.1,5.58,5.58,0,0,1-5.47-4.53L32.35,16A5.58,5.58,0,0,1,36.78,9.5a5.44,5.44,0,0,1,1.06-.1,5.58,5.58,0,0,1,5.46,4.53L49.79,47.8l6.48-33.87A5.59,5.59,0,0,1,61.74,9.4m0-2.4a8,8,0,0,0-7.82,6.47L49.79,35,45.66,13.48A8,8,0,0,0,37.84,7a8.46,8.46,0,0,0-1.5.14A8,8,0,0,0,30,16.48l7.53,39.38a8,8,0,0,0,7.83,6.48,7.73,7.73,0,0,0,1.51-.15A7.87,7.87,0,0,0,49.79,61a7.85,7.85,0,0,0,2.94,1.2,7.56,7.56,0,0,0,1.5.15,8,8,0,0,0,7.83-6.48l7.52-39.38a7.87,7.87,0,0,0-1.23-6,8,8,0,0,0-5.1-3.36A8.66,8.66,0,0,0,61.74,7Z"/><path class="cls-1" d="M44.76,70.58A6.72,6.72,0,0,1,40,68.66L30.31,59.2a6.77,6.77,0,1,1,9.45-9.71L49.49,59a6.77,6.77,0,0,1-4.73,11.63Z"/><path class="cls-2" d="M35,48.77a5.53,5.53,0,0,1,3.89,1.58l9.73,9.46a5.57,5.57,0,0,1,.11,7.88h0a5.58,5.58,0,0,1-7.89.11l-9.73-9.46A5.57,5.57,0,0,1,35,48.77m0-2.4h0a8,8,0,0,0-5.56,13.69l9.73,9.46A8,8,0,1,0,50.32,58.09l-9.73-9.47A7.94,7.94,0,0,0,35,46.37Z"/><path class="cls-1" d="M36.45,76.69a6.2,6.2,0,0,1-4.33-1.76l-6.7-6.52a6.21,6.21,0,1,1,8.65-8.9L40.78,66a6.21,6.21,0,0,1-4.33,10.66Z"/><path class="cls-2" d="M29.74,59a5,5,0,0,1,3.49,1.42l6.71,6.52a5,5,0,1,1-7,7.18l-6.71-6.52A5,5,0,0,1,29.74,59m0-2.4h0a7.41,7.41,0,0,0-5.16,12.72l6.71,6.52A7.4,7.4,0,0,0,41.61,65.17L34.9,58.65a7.37,7.37,0,0,0-5.16-2.1Z"/><path class="cls-1" d="M61,63.11a10.17,10.17,0,0,0-3.38,4.27,10.36,10.36,0,0,0-.33,6.88"/><path class="cls-2" d="M61,63.11a9.74,9.74,0,0,0-3.07,5.17,9.4,9.4,0,0,0,.51,5.64,1.19,1.19,0,0,1-.65,1.57,1.21,1.21,0,0,1-1.58-.64,1,1,0,0,1-.06-.22v0a11.17,11.17,0,0,1,.65-6.71A10.33,10.33,0,0,1,61,63.11Z"/><path class="cls-1" d="M53.4,69.89A7.85,7.85,0,0,1,49,55.57L58.4,49.1A7.84,7.84,0,1,1,67.27,62l-9.44,6.47a7.79,7.79,0,0,1-4.43,1.38Z"/><path class="cls-2" d="M62.83,48.92a6.65,6.65,0,0,1,3.76,12.13l-9.44,6.47a6.64,6.64,0,0,1-9.24-1.72h0a6.65,6.65,0,0,1,1.73-9.24l9.44-6.47a6.56,6.56,0,0,1,3.75-1.17m0-2.4a9,9,0,0,0-5.11,1.59l-9.44,6.47A9,9,0,1,0,58.51,69.5L68,63a9.05,9.05,0,0,0-5.12-16.51Z"/></svg>