<svg id="图层_1" data-name="图层 1" xmlns="http://www.w3.org/2000/svg" viewBox="0 0 96 96"><defs><style>.cls-1{fill:#333;}.cls-2{fill:#222;}.cls-3{fill:#fff;}.cls-4{fill:#1c1c1c;}.cls-5{fill:#f45d5d;fill-rule:evenodd;}.cls-6{fill:none;stroke:#1c1c1c;stroke-linecap:round;stroke-linejoin:round;stroke-width:1.8px;}</style></defs><title>苦中作乐</title><path class="cls-1" d="M57.64,82.71a68.61,68.61,0,0,1-9.65.67,67.27,67.27,0,0,1-34.85-9.44l-.44-.26-.24-.47a60.74,60.74,0,0,1-1.77-50.53l.21-.51.46-.31A66.9,66.9,0,0,1,48,11.31,66.94,66.94,0,0,1,84.64,21.86l.46.31.21.51a60.74,60.74,0,0,1-1.77,50.53l-.23.46-.44.27A63.43,63.43,0,0,1,72.1,79.12L65,90.05Z"/><path d="M48,13.11A65.36,65.36,0,0,1,83.65,23.37a58.94,58.94,0,0,1-1.72,49,61.27,61.27,0,0,1-11,5.24l-6.26,9.57L58.28,80.8A68.07,68.07,0,0,1,48,81.58,65.62,65.62,0,0,1,14.07,72.4a58.94,58.94,0,0,1-1.72-49A65.29,65.29,0,0,1,48,13.11m0-3.6A68.61,68.61,0,0,0,10.38,20.36l-.93.6L9,22a62.51,62.51,0,0,0,1.83,52l.46.93.89.53A69.05,69.05,0,0,0,48,85.18a72.77,72.77,0,0,0,9-.56l5.11,5.13,3.13,3.14,2.43-3.71,5.62-8.58A65.65,65.65,0,0,0,83.8,75.48l.88-.54.46-.92A62.51,62.51,0,0,0,87,22l-.42-1-.93-.6A68.65,68.65,0,0,0,48,9.51Z"/><path class="cls-2" d="M88.17,46a58.51,58.51,0,0,1-6.24,26.4,62,62,0,0,1-11,5.24L64.66,87.2l-6.38-6.4A68.07,68.07,0,0,1,48,81.58,65.62,65.62,0,0,1,14.07,72.4c12.17,3.27,38,8.69,56.57-.86a25.17,25.17,0,0,0,5.54-3.73c14.11-12.65,8.95-38,7.47-44.44A58.33,58.33,0,0,1,88.17,46Z"/><path class="cls-3" d="M31.48,28.39a4.29,4.29,0,1,1,4.29-4.29A4.3,4.3,0,0,1,31.48,28.39Z"/><path class="cls-4" d="M31.48,21.31a2.79,2.79,0,1,1-2.8,2.79,2.79,2.79,0,0,1,2.8-2.79m0-3a5.79,5.79,0,1,0,5.79,5.79,5.8,5.8,0,0,0-5.79-5.79Z"/><path class="cls-3" d="M63.63,28.39a4.29,4.29,0,1,1,4.3-4.29A4.3,4.3,0,0,1,63.63,28.39Z"/><path class="cls-4" d="M63.63,21.31a2.79,2.79,0,1,1-2.79,2.79,2.8,2.8,0,0,1,2.79-2.79m0-3a5.79,5.79,0,1,0,5.8,5.79,5.79,5.79,0,0,0-5.8-5.79Z"/><path class="cls-3" d="M81.51,45.15a.71.71,0,0,1,0,.2c0,.34,0,.68-.09,1-.3,3.4-.73,6.74-1.25,10q-.45,2.81-1,5.49A8.91,8.91,0,0,1,74.34,68c-1,.48-1.93.92-2.94,1.34a61.14,61.14,0,0,1-23.84,4.71,60.63,60.63,0,0,1-26.79-6l-.18-.1a1.51,1.51,0,0,1-.22-.11h0a8.92,8.92,0,0,1-4.43-6q-.54-2.69-1-5.48c-.51-3.23-.93-6.58-1.25-10q-.06-.48-.09-1a4.81,4.81,0,0,1,3.31-5,102.33,102.33,0,0,1,30.64-4.54,102.09,102.09,0,0,1,30.62,4.54A4.79,4.79,0,0,1,81,42.73a3.44,3.44,0,0,1,.21.49A4.81,4.81,0,0,1,81.51,45.15Z"/><path class="cls-4" d="M15,56.24c2.72-.32,5.43-.51,8.15-.61s5.43-.15,8.15-.05,5.43.39,8.15.46,5.43,0,8.14-.2,5.44-.3,8.15-.35,5.44-.14,8.15-.12c5.44.08,10.87.3,16.3.87a.09.09,0,0,1,.08.1.09.09,0,0,1-.08.08c-5.43.57-10.86.8-16.3.87-2.71,0-5.43,0-8.15-.11s-5.43-.18-8.15-.36-5.43-.26-8.14-.2-5.44.33-8.15.46-5.44.05-8.15,0-5.43-.28-8.15-.61a.08.08,0,0,1-.08-.1S14.92,56.25,15,56.24Z"/><path class="cls-4" d="M27.51,40.43l0,8.21-1.75-8a.9.9,0,0,1,.69-1.08.92.92,0,0,1,1.08.7A1.23,1.23,0,0,1,27.51,40.43Z"/><path class="cls-4" d="M41.18,39.93l-.66,7.43L39.38,40a.91.91,0,1,1,1.79-.28A.81.81,0,0,1,41.18,39.93Z"/><path class="cls-4" d="M55.71,46.65,55,40.24a.91.91,0,1,1,1.8-.21,1,1,0,0,1,0,.25Z"/><path class="cls-4" d="M68.38,48.36l.05-7.59a.92.92,0,0,1,.92-.9.9.9,0,0,1,.9.91.78.78,0,0,1,0,.22Z"/><path class="cls-4" d="M68,50.83l0,5.45a.92.92,0,0,1-1.83,0,.94.94,0,0,1,0-.3Z"/><path class="cls-4" d="M55.42,51.8,56,56.09a.92.92,0,1,1-1.83.24,1,1,0,0,1,0-.38Z"/><polygon class="cls-4" points="40.66 51.68 41.66 56.31 39.85 56.35 40.66 51.68"/><path class="cls-4" d="M27.92,52.67l1.25,3.11a.94.94,0,0,1-1.74.7,1,1,0,0,1-.05-.5Z"/><path class="cls-4" d="M32.78,68.89l.36-6,1.43,5.8a.91.91,0,1,1-1.77.43A.82.82,0,0,1,32.78,68.89Z"/><path class="cls-4" d="M33.37,56.87l-.59,3.47L31.58,57a.92.92,0,0,1,.55-1.19.93.93,0,0,1,1.2.55A1.12,1.12,0,0,1,33.37,56.87Z"/><path class="cls-4" d="M50.41,57.19l-1.17,3.33-.62-3.47a.93.93,0,1,1,1.79.14Z"/><path class="cls-4" d="M64.26,56.75,63,60l-.48-3.5a.93.93,0,1,1,1.78.22Z"/><path class="cls-4" d="M49.45,63.05,50,69.6a.91.91,0,1,1-1.81.15.7.7,0,0,1,0-.25Z"/><path class="cls-4" d="M60.89,68.9l1.7-7,.08,7.17a.89.89,0,0,1-.89.92.9.9,0,0,1-.92-.89A.85.85,0,0,1,60.89,68.9Z"/><path class="cls-5" d="M81.51,45.15a.71.71,0,0,1,0,.2,6,6,0,0,1-.09,1,10.48,10.48,0,0,0-5.58-4.65,10.35,10.35,0,0,0-6.49-.1A10.56,10.56,0,0,0,63.11,39a10.7,10.7,0,0,0-7.27,2.32,12.22,12.22,0,0,0-15.56-.28,15.08,15.08,0,0,0-5.17-1.47,15.38,15.38,0,0,0-8.49,1.66,15,15,0,0,0-12.88,5.17l0-.09q-.06-.48-.09-1a4.81,4.81,0,0,1,3.31-5,102.33,102.33,0,0,1,30.64-4.54,102.09,102.09,0,0,1,30.62,4.54A4.79,4.79,0,0,1,81,42.73a3.44,3.44,0,0,1,.21.49A5.79,5.79,0,0,1,81.51,45.15Z"/><path class="cls-5" d="M71.4,69.37a61.14,61.14,0,0,1-23.84,4.71,60.63,60.63,0,0,1-26.79-6l-.18-.1a14.34,14.34,0,0,0,9.29,1.36,13.43,13.43,0,0,0,3.8-1.44,10.66,10.66,0,0,0,5.6,3.53c5.26,1.25,9.4-2.28,9.83-2.66a10.89,10.89,0,0,0,7.78,1.85,10.48,10.48,0,0,0,4.89-2.19,13.09,13.09,0,0,0,3.79,1.29A13.33,13.33,0,0,0,71.4,69.37Z"/><path class="cls-6" d="M81.51,45.15a.71.71,0,0,1,0,.2c0,.34,0,.68-.09,1-.3,3.4-.73,6.74-1.25,10q-.45,2.81-1,5.49A8.91,8.91,0,0,1,74.34,68c-1,.48-1.93.92-2.94,1.34a61.14,61.14,0,0,1-23.84,4.71,60.63,60.63,0,0,1-26.79-6l-.18-.1a1.51,1.51,0,0,1-.22-.11h0a8.92,8.92,0,0,1-4.43-6q-.54-2.69-1-5.48c-.51-3.23-.93-6.58-1.25-10q-.06-.48-.09-1a4.81,4.81,0,0,1,3.31-5,102.33,102.33,0,0,1,30.64-4.54,102.09,102.09,0,0,1,30.62,4.54A4.79,4.79,0,0,1,81,42.73a3.44,3.44,0,0,1,.21.49A4.81,4.81,0,0,1,81.51,45.15Z"/></svg>