<svg id="图层_1" data-name="图层 1" xmlns="http://www.w3.org/2000/svg" viewBox="0 0 96 96"><defs><style>.cls-1{fill:#ffcb55;}.cls-2{fill:#1c1c1c;}.cls-3{fill:#ff9855;}.cls-4,.cls-5{fill:none;stroke:#1c1c1c;stroke-linecap:round;stroke-linejoin:round;}.cls-4{stroke-width:3.6px;}.cls-5{stroke-width:2.4px;}.cls-6{fill:#fff;}</style></defs><title>苦脸</title><path class="cls-1" d="M57.64,82.71a68.61,68.61,0,0,1-9.65.67,67.24,67.24,0,0,1-34.85-9.44l-.44-.26-.24-.47a60.74,60.74,0,0,1-1.77-50.53l.21-.51.46-.31A66.9,66.9,0,0,1,48,11.31,66.94,66.94,0,0,1,84.64,21.86l.46.31.21.51a60.74,60.74,0,0,1-1.77,50.53l-.23.46-.45.27A62.61,62.61,0,0,1,72.1,79.12L65,90.05Z"/><path class="cls-2" d="M48,13.11A65.36,65.36,0,0,1,83.65,23.37a58.94,58.94,0,0,1-1.72,49,61.27,61.27,0,0,1-11,5.24l-6.26,9.57L58.28,80.8A68.07,68.07,0,0,1,48,81.58,65.62,65.62,0,0,1,14.07,72.4a58.94,58.94,0,0,1-1.72-49A65.29,65.29,0,0,1,48,13.11m0-3.6A68.61,68.61,0,0,0,10.38,20.36l-.93.6L9,22a62.51,62.51,0,0,0,1.83,52l.46.93.89.53A69.05,69.05,0,0,0,48,85.18a72.77,72.77,0,0,0,9-.56l5.11,5.13,3.13,3.14,2.43-3.71,5.62-8.58A65.65,65.65,0,0,0,83.8,75.48l.88-.54.46-.92A62.51,62.51,0,0,0,87,22l-.42-1-.93-.6A68.65,68.65,0,0,0,48,9.51Z"/><path class="cls-3" d="M88.17,46a58.51,58.51,0,0,1-6.24,26.4,62,62,0,0,1-11,5.24L64.66,87.2l-6.38-6.4A68.07,68.07,0,0,1,48,81.58,65.62,65.62,0,0,1,14.07,72.4c12.17,3.27,38,8.69,56.57-.86a25.17,25.17,0,0,0,5.54-3.73c14.11-12.65,8.95-38,7.47-44.44A58.33,58.33,0,0,1,88.17,46Z"/><path class="cls-4" d="M20.63,64.72a46.63,46.63,0,0,1,56.23,0"/><path class="cls-5" d="M23.73,70.11c-2.76.38-5.16-.17-6.76-1.77s-2.15-4-1.77-6.76"/><path class="cls-5" d="M73.53,70.11c2.75.38,5.16-.17,6.76-1.77s2.15-4,1.76-6.76"/><path class="cls-6" d="M29,48.33A12.8,12.8,0,0,1,16.3,36.74H41.76A12.81,12.81,0,0,1,29,48.33Z"/><path class="cls-2" d="M40.36,37.94a11.59,11.59,0,0,1-22.67,0H40.36M43,35.54H15a14,14,0,1,0,28,0Z"/><path class="cls-2" d="M22.49,40.74a3.2,3.2,0,0,1-3.18-2.84h6.36A3.2,3.2,0,0,1,22.49,40.74Z"/><path class="cls-2" d="M25.23,38.27a2.83,2.83,0,0,1-5.48,0h5.48m.82-.73H18.92a3.57,3.57,0,1,0,7.13,0Z"/><line class="cls-5" x1="41.83" y1="35.53" x2="41.83" y2="25.11"/><path class="cls-6" d="M67,48.33A12.81,12.81,0,0,1,54.31,36.74H79.77A12.81,12.81,0,0,1,67,48.33Z"/><path class="cls-2" d="M78.38,37.94a11.59,11.59,0,0,1-22.67,0H78.38M81,35.54h-28a14,14,0,1,0,28,0Z"/><path class="cls-2" d="M60.5,40.74a3.2,3.2,0,0,1-3.18-2.84h6.36A3.2,3.2,0,0,1,60.5,40.74Z"/><path class="cls-2" d="M63.24,38.27a2.83,2.83,0,0,1-5.48,0h5.48m.83-.73H56.94a3.57,3.57,0,1,0,7.13,0Z"/><line class="cls-5" x1="54.26" y1="35.54" x2="54.26" y2="25.12"/></svg>