<svg id="图层_1" data-name="图层 1" xmlns="http://www.w3.org/2000/svg" xmlns:xlink="http://www.w3.org/1999/xlink" viewBox="0 0 96 96"><defs><style>.cls-1{fill:#666;}.cls-1,.cls-2,.cls-3{stroke:#000;stroke-width:2.4px;}.cls-1,.cls-2,.cls-3,.cls-4{stroke-linecap:round;stroke-linejoin:round;}.cls-2{fill:url(#未命名的渐变_14);}.cls-3{fill:#333;}.cls-4{fill:none;stroke:#fff;stroke-width:1.8px;}</style><linearGradient id="未命名的渐变_14" x1="67.72" y1="69.11" x2="63.52" y2="55.11" gradientUnits="userSpaceOnUse"><stop offset="0" stop-color="#fff"/><stop offset="1" stop-color="#666"/></linearGradient></defs><title>菜刀</title><path class="cls-1" d="M91.4,51.2,86.26,51l-6.07,3.67c-2.45-.1-4.89-.21-7.34-.3-3.11,1.59-6.21,3.2-9.31,4.8l-11.62.14L38.25,67.75a48.67,48.67,0,0,0-9.06-11.38,48.59,48.59,0,0,0-13-8.6A267.81,267.81,0,0,1,43,33.82,271.33,271.33,0,0,1,80.34,20.17a43.1,43.1,0,0,1,11.06,31Z"/><path class="cls-2" d="M91.4,51.2a44.78,44.78,0,0,1-1.81,10.57L42.39,77a50.72,50.72,0,0,0-4.14-9.2h0l13.67-8.44,11.62-.14c3.1-1.6,6.2-3.21,9.31-4.8,2.45.09,4.89.2,7.34.3L86.26,51Z"/><path class="cls-3" d="M16.19,47.77l-11,6.8A11.68,11.68,0,0,0,9,67.72,26.47,26.47,0,0,1,26.55,54.09a50,50,0,0,0-6.36-4.3C18.8,49,17.46,48.34,16.19,47.77Z"/><line class="cls-4" x1="8.89" y1="55.47" x2="16.2" y2="51"/></svg>