<svg id="图层_1" data-name="图层 1" xmlns="http://www.w3.org/2000/svg" viewBox="0 0 96 96"><defs><style>.cls-1,.cls-5{fill:#49bb6e;}.cls-1{stroke:#1c1c1c;stroke-miterlimit:10;stroke-width:3.2px;}.cls-2{fill:#a4db69;}.cls-3{fill:#1c1c1c;}.cls-4{fill:#80b637;}.cls-6{fill:#269542;}</style></defs><title>菜花</title><path class="cls-1" d="M69.2,44.26A9.76,9.76,0,1,0,79,34.5a9.76,9.76,0,0,0-9.76,9.76ZM12.76,60.9A13.76,13.76,0,1,0,26.52,47.14,13.77,13.77,0,0,0,12.76,60.9Zm0,0"/><path class="cls-2" d="M35,84.12l-.14-1.44c-1.92-19-11-27.26-11.1-27.34l-1.05-.94.8-1.17,5.78-8.38,1.31.9c.28.19,6.26,4.31,12,13.09,1.76-5.49,5.24-14.9,6.53-18.37l.6-1.62,12.35,5.73L61.59,46a139.85,139.85,0,0,0-4.51,15.66A38.31,38.31,0,0,1,71.31,51.39l1.26-.47,5.12,8.75-1.38.8A31.39,31.39,0,0,0,61,82.67l-.13,1.45H35Z"/><path class="cls-3" d="M50.64,41l9.45,4.38S54.77,60.19,54.6,68.06c5.76-10.87,17.27-15.17,17.27-15.17l3.63,6.2A32.62,32.62,0,0,0,59.39,82.52H36.46c-2-19.91-11.63-28.38-11.63-28.38l4.88-7.07S37,52,43.16,62.81C43.33,60.63,50.64,41,50.64,41m-1.79-4.35-1.21,3.24C46,44.26,43.75,50.44,42.1,55.3A48.66,48.66,0,0,0,31.51,44.42l-2.62-1.78-1.81,2.61L22.2,52.32l-1.62,2.34,2.14,1.88c.07.07,8.71,8.06,10.56,26.3l.29,2.88H62.32l.26-2.92A29.21,29.21,0,0,1,77.11,61.86l2.77-1.62-1.62-2.77-3.63-6.2L73.27,49l-2.52.95A39.39,39.39,0,0,0,60,56.5c1.12-4.14,2.41-8,3.12-10l1-2.76-2.66-1.23L52,38.13l-3.13-1.45Z"/><path class="cls-4" d="M75.5,59.08A32.67,32.67,0,0,0,59.39,82.51H36.46c-.13-1.16-.26-2.29-.44-3.38H56.66A32.64,32.64,0,0,1,72.77,55.7l.76,0Z"/><path class="cls-5" d="M78,75.65A14.42,14.42,0,0,1,64.21,57.21a18,18,0,0,1-11.49-5,20.85,20.85,0,0,1-5.48.74c-.55,0-1.11,0-1.69-.07A19.07,19.07,0,0,1,30.94,59.6c-.61,0-1.21,0-1.78-.08A15.46,15.46,0,1,1,13,33.58,19.23,19.23,0,0,1,29.55,21.31a20.74,20.74,0,0,1,35.32,0h.35a18,18,0,0,1,16.12,26A14.39,14.39,0,0,1,78,75.65Z"/><path class="cls-3" d="M47.23,13A19.13,19.13,0,0,1,64,22.9c.41,0,.83,0,1.24,0A16.38,16.38,0,0,1,78.76,48.49,12.79,12.79,0,1,1,65.24,61.26a12.63,12.63,0,0,1,1.33-5.68c-.45,0-.89.06-1.33.06a16.32,16.32,0,0,1-12-5.28,19.21,19.21,0,0,1-5.95,1,20.72,20.72,0,0,1-2.39-.15A17.55,17.55,0,0,1,30.94,58a16.24,16.24,0,0,1-2.32-.16,13.86,13.86,0,1,1-14.33-23A17.59,17.59,0,0,1,30.5,22.87,19.13,19.13,0,0,1,47.23,13m0-3.2a22.37,22.37,0,0,0-18.6,10A20.85,20.85,0,0,0,11.79,32.38a17.06,17.06,0,1,0,17.9,28.78c.41,0,.82,0,1.25,0a20.62,20.62,0,0,0,15.29-6.72c.34,0,.67,0,1,0a21.94,21.94,0,0,0,5-.58,19.65,19.65,0,0,0,10,4.68A16.62,16.62,0,0,0,62,61.26a16,16,0,1,0,21.49-15A19.59,19.59,0,0,0,65.74,19.66,22.36,22.36,0,0,0,47.23,9.82Z"/><path class="cls-6" d="M44.84,51.16a17.48,17.48,0,0,1-16.23,6.68,13.86,13.86,0,0,1-23.44-10s7.63,11.93,15.92,9.1,7.46-2.41,7.46-2.41,6.92,2.74,12.28-1.21c3.12-2.29,4-2.14,4-2.14ZM71.36,68.8a21.23,21.23,0,0,0,5.28.65c3.57-.11,8.76-3.29,7.67-10.43-1.21-7.92-8.8-9.55-8.8-9.55s3.56-4.37,1.14-12.82C73.25,24.74,60.54,24.7,60.54,24.7c-.63-7.14-8.67-11.24-6.57-10.46A19.12,19.12,0,0,1,64,22.9c.41,0,.83,0,1.25,0A16.39,16.39,0,0,1,78.79,48.49,12.79,12.79,0,1,1,66.2,66.12c2.11,1.07,2.59,2,5.16,2.68Zm0,0"/><path class="cls-6" d="M48.4,35.5a1.47,1.47,0,0,1-.41-.07,1.16,1.16,0,0,1-.68-1.49A17.41,17.41,0,0,1,51,28.4,18.07,18.07,0,0,1,64.46,23a1.17,1.17,0,0,1,0,2.33h-.11a15.68,15.68,0,0,0-14.86,9.45,1.17,1.17,0,0,1-1.09.76Zm-9.12,6.57a1.06,1.06,0,0,1-1-.82,9.44,9.44,0,0,0-9.15-7.06,1,1,0,1,1,.07-2.09,11.41,11.41,0,0,1,9,4.46,11.8,11.8,0,0,1,2.08,4.23A1,1,0,0,1,39.5,42a.54.54,0,0,1-.22,0ZM23,35.52"/></svg>