<svg id="图层_1" data-name="图层 1" xmlns="http://www.w3.org/2000/svg" viewBox="0 0 96 96"><defs><style>.cls-1{fill:#60c03d;}.cls-1,.cls-2,.cls-3{stroke:#1c1c1c;stroke-miterlimit:10;stroke-width:2.4px;}.cls-2{fill:#fbd070;}.cls-3{fill:#44bfc5;}</style></defs><title>蓝花</title><path class="cls-1" d="M14.79,65.27c.21-4.08,2.61-5.64,5.47-5.49s5.09,1.94,4.89,6-5.72,10.41-5.72,10.41-4.84-6.86-4.64-10.94Zm0,0"/><line class="cls-2" x1="39.14" y1="56.67" x2="6.89" y2="88.93"/><path d="M6.89,89.8a.86.86,0,0,1-.62-.25.89.89,0,0,1,0-1.25L38.52,56a.91.91,0,0,1,1.25,0,.89.89,0,0,1,0,1.25L7.52,89.55a.9.9,0,0,1-.63.25Zm0,0"/><path class="cls-3" d="M81.34,25.93c-4,4-11.69,6.55-14.85,3.39s-.61-10.84,3.39-14.84,7.94-2.82,11.11.35,4.35,7.1.35,11.1Zm0,0"/><path class="cls-3" d="M67.34,13.43c0,5.66-3.62,12.89-8.09,12.89s-8.1-7.23-8.1-12.89,3.63-7.6,8.1-7.6,8.09,1.94,8.09,7.6Zm0,0"/><path class="cls-3" d="M48.62,14.49c4,4,6.55,11.68,3.39,14.84s-10.85.61-14.85-3.39-2.81-7.94.35-11.11,7.1-4.35,11.11-.34Zm0,0"/><path class="cls-3" d="M36.11,28.47c5.66,0,12.89,3.63,12.89,8.1s-7.23,8.1-12.89,8.1S28.5,41,28.5,36.57s1.95-8.1,7.61-8.1Zm0,0"/><path class="cls-3" d="M37.16,47.21c4-4,11.69-6.55,14.85-3.39s.61,10.84-3.39,14.84-7.94,2.81-11.11-.35-4.35-7.1-.35-11.1Zm0,0"/><path class="cls-3" d="M51.15,59.71c0-5.66,3.63-12.89,8.1-12.89s8.09,7.23,8.09,12.89-3.62,7.6-8.09,7.6-8.1-1.94-8.1-7.6Zm0,0"/><path class="cls-3" d="M69.88,58.66c-4-4-6.55-11.68-3.39-14.84s10.85-.61,14.85,3.39,2.81,7.93-.35,11.1-7.1,4.35-11.11.35Zm0,0"/><path class="cls-3" d="M82.38,44.67c-5.66,0-12.89-3.63-12.89-8.1s7.23-8.1,12.89-8.1S90,32.1,90,36.57s-1.95,8.1-7.61,8.1Zm0,0"/><path class="cls-2" d="M46.88,36.57A12.37,12.37,0,1,0,59.25,24.21,12.36,12.36,0,0,0,46.88,36.57Zm0,0"/><path class="cls-1" d="M30.12,80.14c-3.85.35-10.49-4-10.49-4s5.76-5.44,9.6-5.79,5.62,1.69,5.87,4.38-1.14,5-5,5.37Zm0,0"/></svg>