<svg id="图层_1" data-name="图层 1" xmlns="http://www.w3.org/2000/svg" viewBox="0 0 96 96"><defs><style>.cls-1{fill:#e8220f;}.cls-1,.cls-2{stroke:#1c1c1c;stroke-linecap:round;stroke-linejoin:round;stroke-width:3.6px;}.cls-2{fill:#fd3c41;}.cls-3{fill:#fc9024;}.cls-4{fill:#ffe101;}</style></defs><title>蜡烛</title><path class="cls-1" d="M48,90.45h0c-9.44,0-17.24-3.58-17.77-8.16L25.58,42.56H70.42L65.77,82.29C65.24,86.87,57.44,90.45,48,90.45Z"/><ellipse class="cls-2" cx="48" cy="42.56" rx="22.42" ry="9.76"/><path d="M47.05,41.17A23.8,23.8,0,0,1,48.6,27a22.54,22.54,0,0,0,.75,13.53,1.2,1.2,0,1,1-2.24.88.7.7,0,0,1-.06-.19Z"/><path class="cls-3" d="M53.91,6.69c-8.95,2-14.52,8.57-14.06,14.57.31,4,3.49,9.49,8.44,9.72,4.49.21,9.18-3.94,9.74-10A9.15,9.15,0,0,1,52,15.14,9.24,9.24,0,0,1,53.91,6.69Z"/><path class="cls-4" d="M51.28,17.26c-5.05,1.13-8.19,4.84-7.93,8.22.17,2.29,2,5.36,4.76,5.49,2.53.11,5.18-2.23,5.49-5.64A5.17,5.17,0,0,1,50.18,22,5.22,5.22,0,0,1,51.28,17.26Z"/></svg>