<svg id="图层_1" data-name="图层 1" xmlns="http://www.w3.org/2000/svg" viewBox="0 0 96 96"><defs><style>.cls-1{fill:#ffcb55;}.cls-2{fill:#1c1c1c;}.cls-3{fill:#ff9855;}.cls-4{fill:#fff;}</style></defs><title>行吧行吧</title><path class="cls-1" d="M58.32,82.71a68.61,68.61,0,0,1-9.65.67,67.27,67.27,0,0,1-34.85-9.44l-.44-.26-.24-.47a60.74,60.74,0,0,1-1.77-50.53l.21-.51.46-.31A66.9,66.9,0,0,1,48.67,11.31,66.94,66.94,0,0,1,85.32,21.86l.46.31.21.51a60.74,60.74,0,0,1-1.77,50.53l-.23.46-.45.27a63.22,63.22,0,0,1-10.75,5.18L65.63,90.05Z"/><path class="cls-2" d="M48.67,13.11A65.36,65.36,0,0,1,84.33,23.37a58.94,58.94,0,0,1-1.72,49,61.27,61.27,0,0,1-11,5.24l-6.26,9.57L59,80.8a68.07,68.07,0,0,1-10.29.78A65.62,65.62,0,0,1,14.75,72.4a58.94,58.94,0,0,1-1.72-49A65.29,65.29,0,0,1,48.67,13.11m0-3.6A68.61,68.61,0,0,0,11.06,20.36l-.93.6-.42,1a62.51,62.51,0,0,0,1.83,52L12,75l.89.53a69.08,69.08,0,0,0,35.78,9.7,72.77,72.77,0,0,0,9-.56l5.11,5.13,3.13,3.14,2.43-3.71L74,80.6a65.65,65.65,0,0,0,10.51-5.12l.88-.54.46-.92a62.51,62.51,0,0,0,1.83-52l-.42-1-.93-.6A68.65,68.65,0,0,0,48.67,9.51Z"/><path class="cls-3" d="M88.85,46a58.51,58.51,0,0,1-6.24,26.4,62,62,0,0,1-11,5.24L65.34,87.2,59,80.8a68.07,68.07,0,0,1-10.29.78A65.62,65.62,0,0,1,14.75,72.4c12.17,3.27,38,8.69,56.57-.86a24.93,24.93,0,0,0,5.54-3.73c14.11-12.65,9-38,7.47-44.44A58.33,58.33,0,0,1,88.85,46Z"/><path d="M78.19,50.16a13.47,13.47,0,0,1-.94,4.58,20,20,0,0,1-1,2.18c-.23.35-.42.74-.68,1.08a11.25,11.25,0,0,1-.87,1,11.29,11.29,0,0,1-4.46,2.31,29.36,29.36,0,0,1-4.71.9c-6.26.72-12.39.74-18.53.84s-12.26.18-18.51-.26a25.24,25.24,0,0,1-9.34-2.17,9.87,9.87,0,0,1-3.64-3.29,10.57,10.57,0,0,1-1.69-4.39A10.49,10.49,0,0,0,19.91,59a27.25,27.25,0,0,0,8.72,1c3-.06,6.08-.15,9.14-.29s6.15-.2,9.23-.24,6.15,0,9.21,0,6.12,0,9.12,0a37.24,37.24,0,0,0,4.41-.4,9.49,9.49,0,0,0,3.89-1.4,5.9,5.9,0,0,0,.79-.63,10.21,10.21,0,0,0,.69-.77c.44-.59.84-1.24,1.24-1.87A16.69,16.69,0,0,0,78.19,50.16Z"/><path class="cls-4" d="M28.9,51.57A11.5,11.5,0,1,1,37,48.2,11.39,11.39,0,0,1,28.9,51.57Z"/><path class="cls-2" d="M28.9,29.77a10.31,10.31,0,1,1-7.28,3,10.24,10.24,0,0,1,7.28-3m0-2.4a12.7,12.7,0,1,0,9,3.72,12.66,12.66,0,0,0-9-3.72Z"/><circle cx="35.45" cy="40.07" r="2.26"/><path class="cls-4" d="M61.38,51.57a11.51,11.51,0,1,1,8.13-3.37A11.39,11.39,0,0,1,61.38,51.57Z"/><path class="cls-2" d="M61.38,29.77a10.31,10.31,0,1,1-7.28,3,10.2,10.2,0,0,1,7.28-3m0-2.4a12.7,12.7,0,1,0,9,3.72,12.66,12.66,0,0,0-9-3.72Z"/><circle cx="67.93" cy="40.07" r="2.26"/><path class="cls-2" d="M75.19,47.15a6.78,6.78,0,0,1,2.54,0,4.24,4.24,0,0,1,3.46,3.46,6.78,6.78,0,0,1,0,2.54.08.08,0,0,1-.1.07.1.1,0,0,1,0,0l0,0c-.52-.91-.87-1.63-1.23-2.21a8.8,8.8,0,0,0-1.05-1.32,8.32,8.32,0,0,0-1.32-1c-.58-.36-1.3-.71-2.21-1.23l0,0a.08.08,0,0,1,0-.11S75.17,47.16,75.19,47.15Z"/><path class="cls-2" d="M16.5,48.63c-.9.51-1.62.86-2.2,1.22A7.41,7.41,0,0,0,13,50.91a7.88,7.88,0,0,0-1.05,1.32c-.36.58-.71,1.3-1.23,2.2l0,0a.08.08,0,0,1-.11,0,.07.07,0,0,1,0,0,6.44,6.44,0,0,1,0-2.55,4.56,4.56,0,0,1,1.18-2.28A4.64,4.64,0,0,1,14,48.45a6.58,6.58,0,0,1,2.54,0,.08.08,0,0,1,.06.09.07.07,0,0,1,0,.06Z"/></svg>