<svg id="图层_1" data-name="图层 1" xmlns="http://www.w3.org/2000/svg" viewBox="0 0 96 96"><defs><style>.cls-1{fill:#333;}.cls-2{fill:#222;}.cls-3,.cls-6{fill:#fff;}.cls-4,.cls-5{fill:none;}.cls-4,.cls-5,.cls-6{stroke:#000;stroke-linecap:round;stroke-linejoin:round;}.cls-4{stroke-width:3.56px;}.cls-5,.cls-6{stroke-width:3.59px;}</style></defs><title>衰</title><path class="cls-1" d="M60.09,89.54l2.29-5.48-4-.37A68.74,68.74,0,0,1,48,84.46,67.09,67.09,0,0,1,13.28,75l-.45-.26-.23-.47a60.54,60.54,0,0,1-1.77-50.4L11,23.4l.46-.3A66.67,66.67,0,0,1,48,12.57,66.7,66.7,0,0,1,84.59,23.1l.46.3.21.51a60.54,60.54,0,0,1-1.77,50.4l-.23.46-.44.27A62.69,62.69,0,0,1,72.38,80.1l-1.32,4.43-2.3,1.18,7,7.19Z"/><path d="M48,14.36A65.17,65.17,0,0,1,83.61,24.6a58.87,58.87,0,0,1-1.72,48.91,62.63,62.63,0,0,1-11,5.22l-1.35,4.55-3.78,1.93,4.54,4.69-7.74-1.67L65,82.5l-6.68-.62A66.27,66.27,0,0,1,48,82.66,65.53,65.53,0,0,1,14.2,73.51,58.87,58.87,0,0,1,12.48,24.6,65.12,65.12,0,0,1,48,14.36m0-3.59A68.45,68.45,0,0,0,10.52,21.59l-.92.61-.43,1A62.42,62.42,0,0,0,11,75.12l.46.93.89.53A68.92,68.92,0,0,0,48,86.25,70.88,70.88,0,0,0,58.4,85.5l1.38.13-.51,1.22-1.67,4,4.23.9,4.68,1,3,.66L81.12,95.9,72.9,87.4l-1.16-1.2.82-.42L73,84.31l.84-2.85a64.32,64.32,0,0,0,9.91-4.89l.88-.53.46-.92a62.42,62.42,0,0,0,1.83-51.91l-.43-1-.92-.61A68.48,68.48,0,0,0,48,10.77Z"/><path class="cls-2" d="M88.11,47.17A58.3,58.3,0,0,1,81.89,73.5a62,62,0,0,1-11,5.23l-1.35,4.55-3.78,1.93,4.54,4.69-7.74-1.67L65,82.5l-6.68-.62A67.53,67.53,0,0,1,48,82.66,65.44,65.44,0,0,1,14.2,73.5c12.14,3.26,37.93,8.67,56.42-.85a25.19,25.19,0,0,0,5.53-3.72C90.23,56.31,85.08,31,83.61,24.6A58.2,58.2,0,0,1,88.11,47.17Z"/><circle class="cls-3" cx="24.71" cy="40.01" r="9.16"/><circle class="cls-3" cx="63.36" cy="37.88" r="16.16"/><path class="cls-4" d="M2,63.4A216.46,216.46,0,0,1,94,66.49"/><path class="cls-5" d="M15.9,78.76c9-4.21,30.79-12.74,54.16-5.09a61.56,61.56,0,0,1,11.27,5"/><path class="cls-6" d="M11.06,62a70.75,70.75,0,0,0,3.35,6.81,72,72,0,0,0,5.37,8.27c9.46-3.92,27.47-9.57,47.53-4.12a65.32,65.32,0,0,1,9.89,3.58,17.92,17.92,0,0,0,6.1-5,18.2,18.2,0,0,0,3.33-7A222.59,222.59,0,0,0,11.06,62Z"/><path class="cls-6" d="M20.15,60.91q.27,2.66.62,5.41.63,5,1.43,9.77"/><path class="cls-6" d="M24.34,60.54c.49,1.23,1,2.51,1.44,3.83,1.17,3.33,2.09,6.53,2.83,9.55"/><path class="cls-6" d="M30.31,60.16q1.88,3,3.77,6Q35.8,69,37.45,71.7"/><path class="cls-6" d="M41.56,59.88q.19,2.74.53,5.69t.72,5.49"/><path class="cls-6" d="M51.19,60.1c-.47,3.52-.93,7.05-1.4,10.57"/><path class="cls-6" d="M58.24,60.52a45.19,45.19,0,0,1,1.13,4.67,43.4,43.4,0,0,1,.69,6.21"/><path class="cls-6" d="M68.55,61.54q-.63,5.68-1.24,11.39"/><path class="cls-6" d="M76.66,62.69,74.14,75.21"/><path d="M5.32,11.9l5-.11c-.14.82-.27,1.64-.41,2.46L20.5,19.41,14.89,23l-6.43-8.3c.13-.63.25-1.25.37-1.87Z"/><path d="M51.21,0,44.88,4l1.89,2.67L45.08,11l3.59.27c-.08-1.56-.17-3.13-.25-4.69l-2.24-2.4Z"/><path d="M78.87,19l4.86,4.42,2.84-7.23,5,.95,1.14-5.89Q91.42,13.11,90.06,15L86.29,14Z"/></svg>