<svg id="图层_1" data-name="图层 1" xmlns="http://www.w3.org/2000/svg" viewBox="0 0 96 96"><defs><style>.cls-1{fill:#fc5;}.cls-2{fill:#1c1c1c;}.cls-3{fill:#f95;}.cls-4{fill:#fff;stroke:#1c1c1c;stroke-miterlimit:10;stroke-width:2.4px;}.cls-5{fill:#ee2d2c;}</style></defs><title>这个好这个好</title><path class="cls-1" d="M57.64,82.44a70.15,70.15,0,0,1-9.65.67,67.27,67.27,0,0,1-34.85-9.44l-.44-.27-.24-.46a60.74,60.74,0,0,1-1.77-50.53l.21-.52.46-.3A66.9,66.9,0,0,1,48,11,66.94,66.94,0,0,1,84.64,21.59l.46.3.21.52a60.74,60.74,0,0,1-1.77,50.53l-.23.46-.45.27A63.35,63.35,0,0,1,72.1,78.85L65,89.78Z"/><path class="cls-2" d="M48,12.83A65.28,65.28,0,0,1,83.65,23.1a58.94,58.94,0,0,1-1.72,49,62,62,0,0,1-11,5.24l-6.26,9.56-6.38-6.4A68.07,68.07,0,0,1,48,81.31a65.62,65.62,0,0,1-33.92-9.18,58.94,58.94,0,0,1-1.72-49A65.21,65.21,0,0,1,48,12.83m0-3.6A68.69,68.69,0,0,0,10.38,20.08l-.93.61-.42,1a62.51,62.51,0,0,0,1.83,52l.46.93.89.53A69.05,69.05,0,0,0,48,84.91a70.88,70.88,0,0,0,9-.57l5.11,5.14,3.13,3.14,2.43-3.71,5.62-8.58A65.65,65.65,0,0,0,83.8,75.21l.88-.54.46-.92a62.51,62.51,0,0,0,1.83-52l-.42-1-.93-.61A68.74,68.74,0,0,0,48,9.23Z"/><path class="cls-3" d="M88.17,45.72a58.52,58.52,0,0,1-6.24,26.41,61.23,61.23,0,0,1-11,5.23l-6.26,9.57-6.38-6.4A68.07,68.07,0,0,1,48,81.31a65.62,65.62,0,0,1-33.92-9.18c12.17,3.26,38,8.69,56.57-.86a25.17,25.17,0,0,0,5.54-3.73c14.11-12.65,8.95-38,7.47-44.44A58.32,58.32,0,0,1,88.17,45.72Z"/><ellipse class="cls-4" cx="45.47" cy="32.22" rx="11.75" ry="4.96"/><ellipse class="cls-4" cx="72.8" cy="32.22" rx="10.05" ry="4.24"/><ellipse cx="45.47" cy="34.34" rx="3.58" ry="2.83"/><ellipse cx="73.3" cy="34.04" rx="3.06" ry="2.42"/><circle cx="58.25" cy="47.41" r="2.47"/><circle cx="66.88" cy="47.41" r="2.47"/><path class="cls-5" d="M62,74.52c-2.81,0-5.44-2.35-6.88-6.14a16.25,16.25,0,0,0-.68-2.29A15.93,15.93,0,0,0,52.26,62c5-.74,8.67-4.59,10.67-7.31,1.53,2.38,4.51,5.86,8.92,6.28H72a18,18,0,0,0-1.54,3.58,19.73,19.73,0,0,0-.54,2.14C68.53,71,65.82,74,62.82,74.46A5.29,5.29,0,0,1,62,74.52Z"/><path d="M62.88,56.71a13.76,13.76,0,0,0,7.29,5.19,20.42,20.42,0,0,0-.87,2.31,18.72,18.72,0,0,0-.56,2.2c-1.22,3.8-3.6,6.48-6.1,6.86a4.21,4.21,0,0,1-.62,0c-2.28,0-4.46-2-5.72-5.29a19.46,19.46,0,0,0-.71-2.35,18.49,18.49,0,0,0-1.36-2.87,18.55,18.55,0,0,0,8.65-6.1M63,52.44c-1.08,1.75-5.21,8-11.67,8.47q-.41,0-.84,0l-.91,0a13.4,13.4,0,0,1,3.75,5.6A16.69,16.69,0,0,1,54,68.72c1.6,4.28,4.62,7,8,7a6.83,6.83,0,0,0,1-.08c3.62-.55,6.62-4,8.06-8.64a16.48,16.48,0,0,1,.52-2.07,14.13,14.13,0,0,1,2.82-5.29,8.14,8.14,0,0,1-1.7.18,6,6,0,0,1-.75,0c-5.4-.51-8.44-6.32-8.95-7.34Z"/><path class="cls-2" d="M58.94,54.48a9,9,0,0,1-6,4.49,10.88,10.88,0,0,1-3.85.22A9.31,9.31,0,0,1,45.46,58c1.27-.07,2.46-.12,3.63-.24a26.94,26.94,0,0,0,3.41-.55,21.23,21.23,0,0,0,3.24-1.08A28,28,0,0,0,58.94,54.48Z"/><path class="cls-2" d="M66.86,54.37c.92.46,1.72.9,2.55,1.24a14.29,14.29,0,0,0,2.46.84,22.25,22.25,0,0,0,5.4.52,5.79,5.79,0,0,1-2.74,1.31,7.16,7.16,0,0,1-3.09-.08A6.56,6.56,0,0,1,66.86,54.37Z"/><path class="cls-2" d="M46.46,62.16a4.61,4.61,0,0,1,1.86.72,6.15,6.15,0,0,1,2.36,3,4.26,4.26,0,0,1,.23,2,10.21,10.21,0,0,1-1.44-1.26,15.36,15.36,0,0,1-1.14-1.32,15.19,15.19,0,0,1-1-1.43A8.9,8.9,0,0,1,46.46,62.16Z"/><path class="cls-2" d="M76.6,60.43a5.13,5.13,0,0,1-.39,1.65c-.21.46-.44.89-.68,1.32a9,9,0,0,1-.86,1.22,6,6,0,0,1-1.23,1.15,3.68,3.68,0,0,1,0-1.74A4.87,4.87,0,0,1,74,62.49a4.19,4.19,0,0,1,1.09-1.25A4.4,4.4,0,0,1,76.6,60.43Z"/><path class="cls-2" d="M65.68,22a18.55,18.55,0,0,1-2.1,3.41A29,29,0,0,1,61,28.34a1.2,1.2,0,0,1-1.69,0h0a27.64,27.64,0,0,1-2.68-3c-.42-.53-.8-1.1-1.18-1.67a15.56,15.56,0,0,1-1-1.85,15.56,15.56,0,0,1,1.85,1c.57.38,1.14.76,1.67,1.18a27.64,27.64,0,0,1,3,2.68H59.32a28.77,28.77,0,0,1,2.94-2.57A18.11,18.11,0,0,1,65.68,22Z"/></svg>