<svg id="图层_1" data-name="图层 1" xmlns="http://www.w3.org/2000/svg" viewBox="0 0 96 96"><defs><style>.cls-1,.cls-4{fill:#ffcb55;}.cls-2{fill:#1c1c1c;}.cls-3{fill:#ff9855;}.cls-4,.cls-5{stroke:#1c1c1c;stroke-linecap:round;stroke-linejoin:round;stroke-width:2.4px;}.cls-5{fill:none;}</style></defs><title>迷惑</title><path class="cls-1" d="M53.71,82.71a68.61,68.61,0,0,1-9.65.67A67.24,67.24,0,0,1,9.21,73.94l-.45-.26-.23-.47A60.79,60.79,0,0,1,6.75,22.68L7,22.17l.46-.31A66.88,66.88,0,0,1,44.06,11.31,66.89,66.89,0,0,1,80.7,21.86l.47.31.21.51A60.69,60.69,0,0,1,79.6,73.21l-.23.46-.44.27a63,63,0,0,1-10.76,5.18L61,90.05Z"/><path class="cls-2" d="M44.06,13.11A65.41,65.41,0,0,1,79.72,23.37,58.94,58.94,0,0,1,78,72.4a61.59,61.59,0,0,1-11,5.24l-6.26,9.57L54.34,80.8a67.84,67.84,0,0,1-10.28.78A65.62,65.62,0,0,1,10.14,72.4a59,59,0,0,1-1.73-49A65.35,65.35,0,0,1,44.06,13.11m0-3.6A68.59,68.59,0,0,0,6.45,20.36l-.93.6-.43,1A62.61,62.61,0,0,0,6.92,74l.47.93.89.53a69,69,0,0,0,35.78,9.7,72.61,72.61,0,0,0,9-.56l5.12,5.13,3.13,3.14,2.43-3.71,5.62-8.58a65.65,65.65,0,0,0,10.51-5.12l.88-.54.46-.92a61.64,61.64,0,0,0,6.63-28A61.9,61.9,0,0,0,83,22l-.43-1-.92-.6A68.65,68.65,0,0,0,44.06,9.51Z"/><path class="cls-3" d="M84.24,46A58.51,58.51,0,0,1,78,72.4a62.29,62.29,0,0,1-11,5.24L60.73,87.2l-6.39-6.4a67.84,67.84,0,0,1-10.28.78A65.62,65.62,0,0,1,10.14,72.4c12.17,3.27,38,8.69,56.56-.86a25,25,0,0,0,5.55-3.73c14.11-12.65,9-38,7.47-44.44A58.33,58.33,0,0,1,84.24,46Z"/><path d="M31.38,22.19a12.56,12.56,0,0,1-3.23,9.13A11.67,11.67,0,0,1,20,35.15a10.82,10.82,0,0,0,6.72-4.91,9.86,9.86,0,0,0,1.1-7.55,1.81,1.81,0,1,1,3.5-.94,2.25,2.25,0,0,1,.06.36Z"/><path d="M50.72,22.21a9.91,9.91,0,0,1,7.55,3.08,10.19,10.19,0,0,1,2.81,6.87,9.33,9.33,0,0,0-4-5.49,7.13,7.13,0,0,0-5.89-.89,1.82,1.82,0,1,1-1.1-3.48,1.6,1.6,0,0,1,.47-.08Z"/><circle cx="55.16" cy="42.54" r="2.82"/><circle cx="26.34" cy="42.54" r="2.82"/><path class="cls-4" d="M80.63,21.26a16.61,16.61,0,0,0-14.8-7.07,1.62,1.62,0,0,0-1.5,1.36,6.82,6.82,0,0,0,1.89,6A7.83,7.83,0,0,0,68.37,23a16.1,16.1,0,0,1,7.36,6.69,25,25,0,0,1,1.7,3.89,26,26,0,0,1,1.3,10.7c0,.32-.77,4.72,2.2,7.45a7.14,7.14,0,0,0,3.16,1.66,7.91,7.91,0,0,0,9.35-6c1.29-5.31,2.42-14.78-2.86-23.14-1.11-1.76-7.06-11.19-15.65-11a12.39,12.39,0,0,0-4.86,1.18"/><path class="cls-3" d="M93.44,47.34a7.92,7.92,0,0,1-9.35,6,7.24,7.24,0,0,1-3.16-1.66A6.92,6.92,0,0,1,79,48.58c.2.07.39.12.58.17a7.92,7.92,0,0,0,9.35-6c1.29-5.3,2.42-14.77-2.86-23.13a32.8,32.8,0,0,0-2-2.88,30.43,30.43,0,0,1,6.5,7.51C95.86,32.57,94.73,42,93.44,47.34Z"/><path d="M15.53,70A66.31,66.31,0,0,1,62.79,53.62a1.8,1.8,0,1,1-.18,3.6h-.13a63.88,63.88,0,0,0-24.55,1.73A65.37,65.37,0,0,0,15.53,70Z"/><path class="cls-5" d="M80.63,21.26a16.61,16.61,0,0,0-14.8-7.07,1.62,1.62,0,0,0-1.5,1.36,6.82,6.82,0,0,0,1.89,6A7.83,7.83,0,0,0,68.37,23a16.1,16.1,0,0,1,7.36,6.69,25,25,0,0,1,1.7,3.89,26,26,0,0,1,1.3,10.7c0,.32-.77,4.72,2.2,7.45a7.14,7.14,0,0,0,3.16,1.66,7.91,7.91,0,0,0,9.35-6c1.29-5.31,2.42-14.78-2.86-23.14-1.11-1.76-7.06-11.19-15.65-11a12.39,12.39,0,0,0-4.86,1.18"/></svg>