<svg id="图层_1" data-name="图层 1" xmlns="http://www.w3.org/2000/svg" viewBox="0 0 96 96"><defs><style>.cls-1{fill:#333;}.cls-2{fill:#444;}.cls-3{fill:#ffc44d;}.cls-4{fill:#1c1c1c;}.cls-5{fill:#5dadf5;}</style></defs><title>铺路</title><circle cx="68.83" cy="65.24" r="23.32"/><circle class="cls-1" cx="68.83" cy="65.24" r="20.49"/><circle cx="21.05" cy="75.93" r="12.63"/><circle class="cls-2" cx="21.05" cy="75.93" r="8.33"/><circle class="cls-3" cx="21.05" cy="75.93" r="4.3"/><path class="cls-4" d="M21.05,72.43a3.51,3.51,0,1,1-3.5,3.5,3.51,3.51,0,0,1,3.5-3.5m0-1.6a5.11,5.11,0,1,0,5.11,5.1,5.1,5.1,0,0,0-5.11-5.1Z"/><path class="cls-3" d="M38.46,75.7a17.45,17.45,0,0,0-34.8-.2l-2.46-8V58h4v-1.2A16.18,16.18,0,0,1,20.84,40.65l7.58,7.58h15v.24a31.58,31.58,0,0,0-3.55,8l0,.16V75.7Z"/><path d="M20.37,41.88l6.85,6.84.7.71H41.48a33.07,33.07,0,0,0-2.75,6.72l-.09.32V70.68A18.69,18.69,0,0,0,21.06,58.25,18.69,18.69,0,0,0,3.45,70.73L2.4,67.3V59.21h4v-2.4a15,15,0,0,1,14-14.93m1-2.44A17.35,17.35,0,0,0,4,56.81H0V67.66Q1.41,72.3,2.83,76.9h2a16.25,16.25,0,0,1,32.5,0H41V56.81a29.89,29.89,0,0,1,3.59-8V47H28.92l-7.59-7.59Z"/><rect x="39.33" y="60.96" width="4.75" height="9.44"/><polygon class="cls-5" points="29.41 45.83 22.59 39.03 25.35 16.08 43.43 16.08 43.43 45.83 29.41 45.83"/><path d="M42.23,17.28V44.63H29.9l-3.16-3.15-2.89-2.89,1.36-11.31,1.2-10H42.23m2.4-2.4H24.28q-1.47,12.3-3,24.58L28.91,47H44.63V14.88Z"/><path class="cls-5" d="M45.83,16.07h5A55.46,55.46,0,0,1,55.1,28.76a54.83,54.83,0,0,1,1.12,9.57,24.64,24.64,0,0,0-10.39,7Z"/><path d="M50.07,17.27A54.29,54.29,0,0,1,53.93,29,53.81,53.81,0,0,1,55,37.5a25.86,25.86,0,0,0-5,2.56,25,25,0,0,0-3,2.32V17.27h3m1.51-2.4H44.63V48.81a24,24,0,0,1,6.72-6.75,23.62,23.62,0,0,1,6.09-2.87,56.42,56.42,0,0,0-1.16-10.67,56.27,56.27,0,0,0-4.7-13.65Z"/><path d="M54.94,10.79H20.52v.67a3.41,3.41,0,0,0,3.41,3.41H51.52a3.42,3.42,0,0,0,3.42-3.41Z"/><path class="cls-3" d="M68.83,75.77a150.18,150.18,0,0,1-24.47-1.86,25.54,25.54,0,0,1-1.49-8.68A25.85,25.85,0,0,1,44,57.51,149.92,149.92,0,0,1,68.83,55.6a150,150,0,0,1,24.8,1.91,25.85,25.85,0,0,1,1.17,7.72,25.31,25.31,0,0,1-1.5,8.68A150.09,150.09,0,0,1,68.83,75.77Z"/><path d="M68.83,56.8a150.18,150.18,0,0,1,23.86,1.77,24.94,24.94,0,0,1,.91,6.66,24.19,24.19,0,0,1-1.2,7.61,149.63,149.63,0,0,1-23.57,1.73,149.63,149.63,0,0,1-23.57-1.73A24.88,24.88,0,0,1,45,58.57,150.14,150.14,0,0,1,68.83,56.8m0-2.4a148.72,148.72,0,0,0-25.71,2.06,27.07,27.07,0,0,0-1.45,8.77A26.73,26.73,0,0,0,43.48,75a150.59,150.59,0,0,0,25.35,2,150.59,150.59,0,0,0,25.35-2A26.53,26.53,0,0,0,96,65.23a26.8,26.8,0,0,0-1.46-8.77A148.55,148.55,0,0,0,68.83,54.4Z"/><path d="M73.39,71a12.92,12.92,0,0,0-.79-1.43c-6.28.54-7.22.61-7.91.89-.1-.34-.42-1.24-.64-1.73a5.39,5.39,0,0,0,1.82-.84A21.89,21.89,0,0,0,68,66.36a12.88,12.88,0,0,0-3.1.34,15.57,15.57,0,0,0-.58-1.76,2.6,2.6,0,0,0,1-.51,12,12,0,0,0,2-1.79H63.67V60.89h4.48c-.13-.35-.29-.71-.42-1l1.68-.5c.25.46.5,1,.7,1.51h4.5v1.75h-6l.87.46a16.33,16.33,0,0,1-2.06,1.79l2.48-.08a19.64,19.64,0,0,0,1.5-1.53l1.68,1.1a25.88,25.88,0,0,1-4.94,3.9l3.46-.21c-.26-.36-.51-.69-.76-1l1.54-.82A20.24,20.24,0,0,1,75,70Z"/><rect class="cls-1" y="88.56" width="96" height="7.44"/></svg>