<svg id="图层_1" data-name="图层 1" xmlns="http://www.w3.org/2000/svg" viewBox="0 0 96 96"><defs><style>.cls-1{fill:#ffcb55;}.cls-2{fill:#1c1c1c;}.cls-3{fill:#ff9855;}.cls-4{fill:#fff;}</style></defs><title>闭嘴</title><path class="cls-1" d="M57.64,83.5a68.61,68.61,0,0,1-9.65.67,67.27,67.27,0,0,1-34.85-9.44l-.44-.26L12.46,74a60.74,60.74,0,0,1-1.77-50.53L10.9,23l.46-.31A66.9,66.9,0,0,1,48,12.1,66.94,66.94,0,0,1,84.64,22.65l.46.31.21.51A60.74,60.74,0,0,1,83.54,74l-.24.46-.44.27A63,63,0,0,1,72.1,79.91L65,90.84Z"/><path class="cls-2" d="M48,13.9A65.36,65.36,0,0,1,83.65,24.16a58.94,58.94,0,0,1-1.72,49,61.27,61.27,0,0,1-11,5.24L64.66,88l-6.38-6.41A68.07,68.07,0,0,1,48,82.37a65.62,65.62,0,0,1-33.92-9.18,58.94,58.94,0,0,1-1.72-49A65.29,65.29,0,0,1,48,13.9m0-3.6A68.61,68.61,0,0,0,10.38,21.15l-.93.6-.42,1a62.51,62.51,0,0,0,1.83,52l.46.93.89.53A69.05,69.05,0,0,0,48,86a72.77,72.77,0,0,0,9-.56l5.11,5.13,3.13,3.14L67.67,90l5.62-8.58A65.65,65.65,0,0,0,83.8,76.27l.88-.54.46-.92a62.51,62.51,0,0,0,1.83-52l-.42-1-.93-.6A68.65,68.65,0,0,0,48,10.3Z"/><path class="cls-3" d="M88.17,46.79a58.51,58.51,0,0,1-6.24,26.4,62,62,0,0,1-11,5.24L64.66,88l-6.38-6.4A68.07,68.07,0,0,1,48,82.37a65.62,65.62,0,0,1-33.92-9.18c12.17,3.27,38,8.69,56.57-.86a25.53,25.53,0,0,0,5.54-3.72c14.11-12.66,8.95-38,7.47-44.45A58.33,58.33,0,0,1,88.17,46.79Z"/><path class="cls-2" d="M21.14,10.85a7.8,7.8,0,0,1,8-1.87,7.78,7.78,0,0,1,5.57,6,21.62,21.62,0,0,0-3.07-2.31,15,15,0,0,0-3.2-1.44,14.17,14.17,0,0,0-3.46-.6A20.43,20.43,0,0,0,21.14,10.85Z"/><path class="cls-2" d="M74.86,10.85A20.43,20.43,0,0,0,71,10.67a14.17,14.17,0,0,0-3.46.6,15,15,0,0,0-3.2,1.44A21.62,21.62,0,0,0,61.29,15a8.16,8.16,0,0,1,13.57-4.17Z"/><path class="cls-4" d="M29.49,39.1a9.51,9.51,0,1,1,6.72-2.78A9.45,9.45,0,0,1,29.49,39.1Z"/><path class="cls-2" d="M29.49,21.29a8.22,8.22,0,0,1,5.87,2.43,8.32,8.32,0,0,1,0,11.75,8.3,8.3,0,0,1-11.74,0,8.31,8.31,0,0,1,5.87-14.18m0-2.4A10.71,10.71,0,1,0,37.06,22a10.67,10.67,0,0,0-7.57-3.13Z"/><circle cx="26.06" cy="26.57" r="1.9"/><path class="cls-4" d="M66.51,39.1a9.51,9.51,0,1,1,6.72-2.78A9.45,9.45,0,0,1,66.51,39.1Z"/><path class="cls-2" d="M66.51,21.29a8.31,8.31,0,1,1-5.88,14.18,8.31,8.31,0,0,1,5.88-14.18m0-2.4A10.71,10.71,0,1,0,74.08,22a10.67,10.67,0,0,0-7.57-3.13Z"/><circle cx="69.94" cy="32.62" r="1.9"/><path class="cls-4" d="M72,73.24A5.9,5.9,0,0,1,70.23,73L22.16,57.78A6,6,0,0,1,24,46.05a6.21,6.21,0,0,1,1.81.28L73.84,61.52A6,6,0,0,1,72,73.24Z"/><path d="M24,47.25a4.78,4.78,0,0,1,1.45.23L73.48,62.66A4.8,4.8,0,0,1,76.3,65a4.81,4.81,0,0,1-5.71,6.79L22.52,56.63A4.8,4.8,0,0,1,24,47.25m0-2.4a7.2,7.2,0,0,0-6.86,5h0a7.19,7.19,0,0,0,4.69,9L69.87,74.11a7.42,7.42,0,0,0,2.17.33,7.19,7.19,0,0,0,6.86-5h0a7.2,7.2,0,0,0-4.69-9L26.13,45.19A7.12,7.12,0,0,0,24,44.85Z"/><path class="cls-4" d="M24,73.24a6,6,0,0,1-1.8-11.72L70.23,46.33A6.21,6.21,0,0,1,72,46.05a6,6,0,0,1,1.8,11.73L25.77,73A5.9,5.9,0,0,1,24,73.24Z"/><path d="M72,47.25h0a4.8,4.8,0,0,1,1.44,9.38L25.41,71.82a4.8,4.8,0,0,1-2.89-9.16L70.59,47.48A4.78,4.78,0,0,1,72,47.25m0-2.4a7.12,7.12,0,0,0-2.17.34L21.79,60.37a7.2,7.2,0,0,0-4.69,9h0a7.19,7.19,0,0,0,6.86,5,7.42,7.42,0,0,0,2.17-.33L74.21,58.92a7.19,7.19,0,0,0,4.69-9h0a7.2,7.2,0,0,0-6.86-5Z"/></svg>