<svg id="图层_1" data-name="图层 1" xmlns="http://www.w3.org/2000/svg" viewBox="0 0 96 96"><defs><style>.cls-1{fill:#ffcb55;}.cls-2{fill:#1c1c1c;}.cls-3{fill:#ff9855;}.cls-4,.cls-7{fill:#fff;}.cls-5{fill:#4580d2;}.cls-5,.cls-8{fill-rule:evenodd;}.cls-6{fill:#ee2d2c;stroke:#000;}.cls-6,.cls-8{stroke-miterlimit:10;}.cls-6,.cls-7{stroke-width:2.4px;}.cls-7,.cls-8{stroke:#1c1c1c;}.cls-7{stroke-linecap:round;stroke-linejoin:round;}.cls-8{fill:none;stroke-width:1.8px;}</style></defs><title>非常惊讶</title><path class="cls-1" d="M57.64,83.8a70.15,70.15,0,0,1-9.65.67A67.36,67.36,0,0,1,13.14,75l-.44-.27-.24-.46a60.76,60.76,0,0,1-1.77-50.54l.21-.51.46-.3A66.83,66.83,0,0,1,48,12.39,66.87,66.87,0,0,1,84.64,23l.46.3.21.51A60.76,60.76,0,0,1,83.54,74.3l-.23.46-.45.27a64,64,0,0,1-10.75,5.18L65,91.14Z"/><path class="cls-2" d="M48,14.19A65.28,65.28,0,0,1,83.65,24.46a58.94,58.94,0,0,1-1.72,49,62,62,0,0,1-11,5.24l-6.26,9.56-6.38-6.4A68.07,68.07,0,0,1,48,82.67a65.62,65.62,0,0,1-33.92-9.18,58.94,58.94,0,0,1-1.72-49A65.21,65.21,0,0,1,48,14.19m0-3.6A68.69,68.69,0,0,0,10.38,21.44l-.93.61-.42,1a62.51,62.51,0,0,0,1.83,52l.46.93.89.53A69.05,69.05,0,0,0,48,86.27a70.88,70.88,0,0,0,9-.57l5.11,5.14L65.24,94l2.43-3.71,5.62-8.58A65.65,65.65,0,0,0,83.8,76.57l.88-.54.46-.92a62.51,62.51,0,0,0,1.83-52l-.42-1-.93-.61A68.74,68.74,0,0,0,48,10.59Z"/><path class="cls-3" d="M88.17,47.08a58.52,58.52,0,0,1-6.24,26.41,61.23,61.23,0,0,1-11,5.23l-6.26,9.57-6.38-6.41A66.8,66.8,0,0,1,48,82.67a65.62,65.62,0,0,1-33.92-9.18c12.17,3.26,38,8.69,56.57-.86a25.28,25.28,0,0,0,5.54-3.73c14.11-12.65,8.95-38,7.47-44.44A58.28,58.28,0,0,1,88.17,47.08Z"/><path class="cls-2" d="M65.64,18.31a5.94,5.94,0,0,0-2.38-1.63,11.23,11.23,0,0,0-3.42-.75,17.79,17.79,0,0,0-3.67,1.74c-3.85,2.42-4.41,5.34-7.61,6.54a5.26,5.26,0,0,1-2.6.4,2.2,2.2,0,0,1-1.1-.5l-.78.59A2.62,2.62,0,0,0,46.24,26a5.1,5.1,0,0,0,4.06-1.25A24.22,24.22,0,0,1,63.47,18.5C64.15,18.41,64.87,18.34,65.64,18.31Z"/><path class="cls-2" d="M23.44,22.28a3.83,3.83,0,0,1,1.64-1.13,8,8,0,0,1,2.36-.52A13.37,13.37,0,0,1,30,21.83c2.65,1.68,3,3.69,5.25,4.52a3.66,3.66,0,0,0,1.8.28,1.58,1.58,0,0,0,.76-.35l.54.41a1.79,1.79,0,0,1-1.49.9A3.55,3.55,0,0,1,34,26.73a16.63,16.63,0,0,0-9.1-4.32A13.77,13.77,0,0,0,23.44,22.28Z"/><path class="cls-4" d="M54.64,34.82a5.44,5.44,0,1,1,5.44-5.44A5.45,5.45,0,0,1,54.64,34.82Z"/><path class="cls-2" d="M54.64,25.14a4.24,4.24,0,1,1-4.24,4.24,4.24,4.24,0,0,1,4.24-4.24m0-2.4a6.64,6.64,0,1,0,6.64,6.64,6.64,6.64,0,0,0-6.64-6.64Z"/><path class="cls-4" d="M32,34.82a3.71,3.71,0,1,1,3.71-3.71A3.72,3.72,0,0,1,32,34.82Z"/><path class="cls-2" d="M32,28.6a2.51,2.51,0,1,1-2.51,2.51A2.51,2.51,0,0,1,32,28.6m0-2.4a4.91,4.91,0,1,0,4.91,4.91A4.91,4.91,0,0,0,32,26.2Z"/><path class="cls-5" d="M8.57,8.81l2.91,2.07a.56.56,0,0,0,.35.11A.39.39,0,0,0,12,11a.54.54,0,0,0,.39-.33l2.51-5.46,6.91,3a.52.52,0,0,0,.24.05.49.49,0,0,0,.24-.05.59.59,0,0,0,.33-.36l1.16-3.56L29,10.54A59.63,59.63,0,0,0,9.57,17.9Z"/><path class="cls-2" d="M24,5.49l1.64,2,2.23,2.69a60.24,60.24,0,0,0-6.4,1.7,61.3,61.3,0,0,0-11.39,5.06l-.42-3.82-.34-3,1.82,1.29a1.19,1.19,0,0,0,.7.22,1.1,1.1,0,0,0,.31,0,1.19,1.19,0,0,0,.78-.66l1.37-3L15.18,6l4.67,2,1.7.74a1.15,1.15,0,0,0,.48.1,1.19,1.19,0,0,0,.49-.1A1.22,1.22,0,0,0,23.17,8l.75-2.3L24,5.49M23.53,3,22,7.64,14.58,4.39l-2.75,6-4-2.85q.63,5.69,1.25,11.35a59.49,59.49,0,0,1,21-8Q26.81,7,23.53,3Z"/><path class="cls-6" d="M74,80.54a100.6,100.6,0,0,1-23.4,2.1,99.91,99.91,0,0,1-20.52-2.72A58,58,0,0,0,32,65.22a57,57,0,0,0-.85-9.93l32.08-4.22A70.32,70.32,0,0,1,74,80.54Z"/><path class="cls-7" d="M29.34,47.82a2.49,2.49,0,0,1,2.18-3.22c4.84-.41,9.72-.84,14.61-1.27l9.18-.82a2.46,2.46,0,0,1,2.11.85A69.49,69.49,0,0,1,62,49.2c.43.61.85,1.23,1.26,1.87L31.13,55.29a55.63,55.63,0,0,0-1.37-6.07C29.63,48.75,29.49,48.28,29.34,47.82Z"/><path class="cls-7" d="M74.62,89.66v0a2.48,2.48,0,0,1-2.15,2.46,163.76,163.76,0,0,1-22.39,1.5A165.79,165.79,0,0,1,29,92.32a2.5,2.5,0,0,1-2-3.51,57.66,57.66,0,0,0,3.09-8.89,99.91,99.91,0,0,0,20.52,2.72A100.6,100.6,0,0,0,74,80.54h0A72.38,72.38,0,0,1,74.62,89.66Z"/><path class="cls-8" d="M39,44.52l1.5,8.93"/><path class="cls-8" d="M49.15,43.69l1.35,9.08"/><path class="cls-8" d="M39.24,81.7l-1.71,11"/><path class="cls-8" d="M51.4,82.66l-.15,10.53"/><path class="cls-8" d="M63,82.21q.57,5.19,1.13,10.38"/></svg>