<svg id="图层_1" data-name="图层 1" xmlns="http://www.w3.org/2000/svg" viewBox="0 0 96 96"><defs><style>.cls-1,.cls-5{fill:#fff;}.cls-2{fill:#1c1c1c;}.cls-3{fill:#989898;}.cls-4{fill:#333;}.cls-5{stroke:#1c1c1c;stroke-linecap:round;stroke-linejoin:round;stroke-width:3.6px;}</style></defs><title>骷髅</title><path class="cls-1" d="M48,88.19A48.62,48.62,0,0,1,23.6,81.6l-.47-.27-.23-.49a37.2,37.2,0,0,1-1.52-3.41A42.68,42.68,0,0,1,19,68.92,87,87,0,0,1,9.69,65L9,64.7,8.76,64a60.67,60.67,0,0,1,1.92-41.29l.21-.52.47-.3A67,67,0,0,1,48,11.32,67,67,0,0,1,84.66,21.85l.47.3.22.52A60.77,60.77,0,0,1,87.21,64l-.23.74-.7.35A87.49,87.49,0,0,1,77,68.94a43,43,0,0,1-2.39,8.52c-.49,1.22-1,2.36-1.54,3.41l-.24.48-.46.26A48.33,48.33,0,0,1,48,88.19Z"/><path class="cls-2" d="M48,13.12A65.61,65.61,0,0,1,83.68,23.36a58.93,58.93,0,0,1,1.81,40.13,85.86,85.86,0,0,1-10.09,4.1,41.17,41.17,0,0,1-2.46,9.2c-.51,1.3-1,2.39-1.46,3.27a46.7,46.7,0,0,1-47,0c-.43-.88-1-2-1.45-3.27a40.77,40.77,0,0,1-2.49-9.21,86.17,86.17,0,0,1-10.09-4.14,58.89,58.89,0,0,1,1.86-40.07A65.61,65.61,0,0,1,48,13.12m0-3.6A68.84,68.84,0,0,0,10.38,20.34L9.44,21,9,22A62.45,62.45,0,0,0,7,64.49L7.5,66l1.4.68a86.84,86.84,0,0,0,8.49,3.6,43.57,43.57,0,0,0,2.33,7.86c.55,1.44,1.13,2.64,1.56,3.52l.48,1,.94.55a50.29,50.29,0,0,0,50.59,0l.92-.54.48-.94c.56-1.1,1.09-2.3,1.6-3.56a44.45,44.45,0,0,0,2.3-7.84,89.87,89.87,0,0,0,8.47-3.56L88.47,66l.46-1.49A63.13,63.13,0,0,0,91.77,46,62.72,62.72,0,0,0,87,22l-.43-1-.94-.61A68.82,68.82,0,0,0,48,9.52Z"/><path class="cls-3" d="M88.16,46a59.61,59.61,0,0,1-2.67,17.48,86.58,86.58,0,0,1-10.09,4.1,41.17,41.17,0,0,1-2.46,9.2c-.52,1.3-1,2.39-1.47,3.27a46.7,46.7,0,0,1-47,0,42.8,42.8,0,0,1-2.76-7.12,41,41,0,0,1-1.17-5.36c-1.8-.59-3.72-1.29-5.72-2.13-1.56-.66-3-1.33-4.37-2-.19-.57-.38-1.17-.55-1.81s-.28-1.09-.4-1.61c.58.44,9.59,7.15,20,3.28A21.31,21.31,0,0,0,41.41,51.74a8.53,8.53,0,0,1,6.19-3.3,8.67,8.67,0,0,1,7,3.3c4.12,7.55,10.74,12.49,16.61,11.65,10-1.43,12.45-19,12.76-21.58a36.93,36.93,0,0,0-3.64-20.47c1.15.64,2.26,1.31,3.36,2A59.33,59.33,0,0,1,88.16,46Z"/><path class="cls-4" d="M32,52a29,29,0,0,1-14.33-3.78,25.47,25.47,0,0,1-2.53-11A25,25,0,0,1,17,27.87,28.23,28.23,0,0,1,32,23.67a28.78,28.78,0,0,1,10.67,2,31.79,31.79,0,0,1,1.61,10.1,31.14,31.14,0,0,1-3.73,15A28.83,28.83,0,0,1,32,52Z"/><path d="M32,24.87a27.89,27.89,0,0,1,9.7,1.71,30.58,30.58,0,0,1,1.38,9.19,30,30,0,0,1-3.35,14A27.31,27.31,0,0,1,32,50.84,27.76,27.76,0,0,1,18.63,47.4a24.15,24.15,0,0,1-.69-18.72A27.15,27.15,0,0,1,32,24.87m0-2.4a29.51,29.51,0,0,0-16,4.6,26.33,26.33,0,0,0-2,10.17A26.63,26.63,0,0,0,16.8,49.12,30.31,30.31,0,0,0,32,53.24a30,30,0,0,0,9.37-1.5,32.4,32.4,0,0,0,4.11-16,33,33,0,0,0-1.86-11A30.21,30.21,0,0,0,32,22.47Z"/><path class="cls-4" d="M64,52a28.83,28.83,0,0,1-8.55-1.3,31.14,31.14,0,0,1-3.73-15,31.79,31.79,0,0,1,1.61-10.1,28.78,28.78,0,0,1,10.67-2A28.23,28.23,0,0,1,79,27.87a25,25,0,0,1,1.79,9.37,25.47,25.47,0,0,1-2.53,11A29,29,0,0,1,64,52Z"/><path d="M64,24.87a27.15,27.15,0,0,1,14.1,3.81,24.15,24.15,0,0,1-.69,18.72A27.76,27.76,0,0,1,64,50.84a27.31,27.31,0,0,1-7.73-1.11,30,30,0,0,1-3.35-14,30.58,30.58,0,0,1,1.38-9.19A27.89,27.89,0,0,1,64,24.87m0-2.4a30.21,30.21,0,0,0-11.62,2.29,33,33,0,0,0-1.86,11,32.4,32.4,0,0,0,4.11,16A30,30,0,0,0,64,53.24,30.31,30.31,0,0,0,79.2,49.12,26.63,26.63,0,0,0,82,37.24a26.33,26.33,0,0,0-2-10.17,29.51,29.51,0,0,0-16-4.6Z"/><path class="cls-4" d="M48,65a15.06,15.06,0,0,1-6.7-1.57,15.15,15.15,0,0,1,6.71-10,15.22,15.22,0,0,1,6.7,10A15.13,15.13,0,0,1,48,65Z"/><path d="M48,54.89a14,14,0,0,1,5.32,7.82A14.08,14.08,0,0,1,48,63.77a13.76,13.76,0,0,1-5.32-1.06A14,14,0,0,1,48,54.89M48,52a16.24,16.24,0,0,0-8,12,16.26,16.26,0,0,0,16,0,16.24,16.24,0,0,0-8-12Z"/><line class="cls-5" x1="28.3" y1="73.3" x2="30.25" y2="83.63"/><line class="cls-5" x1="37.75" y1="75.21" x2="38.93" y2="86.1"/><line class="cls-5" x1="48.01" y1="75.94" x2="48.01" y2="87.14"/><line class="cls-5" x1="67.71" y1="73.3" x2="65.76" y2="83.63"/><line class="cls-5" x1="58.26" y1="75.21" x2="57.08" y2="86.1"/></svg>