<svg id="图层_1" data-name="图层 1" xmlns="http://www.w3.org/2000/svg" viewBox="0 0 96 96"><defs><style>.cls-1{fill:#fc5;}.cls-2{fill:#f95;}.cls-3{fill:#ffeab2;}</style></defs><title>黄花</title><path class="cls-1" d="M71.32,90.38A4.24,4.24,0,0,1,67.21,87C65.69,79.67,63.52,73.76,60.59,69c-.5-.8-1-1.56-1.5-2.25a15.28,15.28,0,0,1-3,7.05,7,7,0,0,1-5,2.57,2.7,2.7,0,0,1-.37,0A6.92,6.92,0,0,1,48,75.78a7.06,7.06,0,0,1-2.72.57l-.35,0a7.1,7.1,0,0,1-5-2.55c-2.24-2.6-3.51-7.16-3.57-12.55-3.86,2.16-7.63,3.36-10.65,3.36-4.07,0-6-2.06-6.73-3.28a6.67,6.67,0,0,1-1-2.86,6.75,6.75,0,0,1-2-2.33,7,7,0,0,1-.26-5.69c1.08-3.19,4.38-6.56,9-9.3-4.7-2.8-7.93-6.12-9-9.34A7.08,7.08,0,0,1,16,26.08a6.87,6.87,0,0,1,2-2.3,6.87,6.87,0,0,1,1-2.88c.73-1.2,2.61-3.26,6.71-3.26,3,0,6.81,1.2,10.65,3.35.06-5.36,1.33-9.9,3.55-12.48A7.06,7.06,0,0,1,45,5.9h.28A7,7,0,0,1,48,6.46a6.85,6.85,0,0,1,2.71-.56H51a7.06,7.06,0,0,1,5.13,2.6c2.23,2.59,3.48,7,3.54,12.49,3.82-2.15,7.6-3.35,10.66-3.35,4.1,0,6,2.06,6.73,3.29a6.66,6.66,0,0,1,1,2.86,7.06,7.06,0,0,1,2,2.28,7.25,7.25,0,0,1,.27,5.73c-1.12,3.23-4.36,6.54-9,9.33,4.62,2.73,7.92,6.11,9,9.33A7.1,7.1,0,0,1,80,56.12a7.25,7.25,0,0,1-2,2.36,6.72,6.72,0,0,1-1,2.94c-1,1.51-2.91,3.33-6.71,3.33a15.31,15.31,0,0,1-2.56-.23c3.41,5.52,6,12.49,7.72,20.79a4.21,4.21,0,0,1-.86,3.52A4.17,4.17,0,0,1,71.32,90.38ZM44.75,56.76c0,.29-.08.58-.12.87-.33,3.56,0,8,.95,10.12a4.8,4.8,0,0,1,.89-.54l-.66-2.56h0a8,8,0,0,1-.26-1.07c-.09-.42-.16-.83-.22-1.26s-.15-.91-.22-1.47l0-.46c0-.4-.1-.86-.13-1.35,0-.29-.06-.63-.09-1l-.09-.9ZM49.6,67.19a3.93,3.93,0,0,1,.84.49c1-2.14,1.27-6.64.9-10.12,0-.15,0-.3,0-.45,0,1.07-.16,2.17-.28,3.23l-.05.48-.07.55c-.06.39-.11.75-.18,1.09,0,.13,0,.28-.07.43s-.09.49-.14.7c-.12.67-.22,1.07-.22,1.07ZM60.55,52.27c3.35,2.42,6.9,4,9.23,4.25A4,4,0,0,1,72.2,52.3c-1.39-2-5-4.41-8.29-5.87l-.86-.38.39.25c1.18.78,2.19,1.5,3.1,2.21.38.27.8.6,1.21,1,.2.14.43.34.67.54l.21.17.69.64a1.57,1.57,0,0,1,.55.69,1.61,1.61,0,0,1-.35,1.74l-.21.21-.08.29a1.6,1.6,0,0,1-.83,1,1.64,1.64,0,0,1-.72.16,1.51,1.51,0,0,1-.59-.11,8.73,8.73,0,0,1-1-.31c-.85-.27-1.73-.62-2.49-.92-1.2-.52-2.32-1-3.44-1.58l-.08,0ZM26.23,55.55a4.05,4.05,0,0,1,0,.92c2.34-.21,5.88-1.82,9.21-4.23l.29-.2c-.31.13-.6.28-.9.42l-.79.38c-.6.28-1.22.54-1.71.72-.82.36-1.67.69-2.51,1-.62.21-.92.31-1.13.36ZM23.8,52.29a4.41,4.41,0,0,1,.89.52L26.48,51a1.18,1.18,0,0,1,.21-.18l.64-.59c.31-.28.62-.53,1-.79l1.15-.92c.27-.19.48-.34.67-.49l.82-.59c.52-.38,1.09-.76,1.66-1.13l.32-.21-.82.35C28.83,47.9,25.14,50.34,23.8,52.29Zm0-22.36c1.41,2,5.11,4.46,8.28,5.85l.27.13c-.52-.38-1-.69-1.46-1s-.8-.58-1.12-.82l-.33-.24q-.68-.51-1.23-1L28,32.65l-.66-.58a5.94,5.94,0,0,1-.91-.85l-1.78-1.75A3.7,3.7,0,0,1,23.81,29.93ZM69.53,29a1.59,1.59,0,0,1-.06,2.35l-.76.69c-.67.59-1.35,1.13-2,1.64l-.09.08c-.51.38-1,.75-1.49,1.08s-1,.67-1.47,1l.24-.11c3.22-1.41,7-3.89,8.33-5.85a4.37,4.37,0,0,1-1.9-1.62,3.79,3.79,0,0,1-.53-2.56c-2.35.21-5.9,1.82-9.25,4.22l-.7.55.38-.2c.37-.19.74-.36,1.11-.53l.65-.32.29-.13c.45-.19.88-.38,1.33-.59l1.07-.42.38-.15.79-.3.33-.11c.74-.24,1.16-.34,1.16-.34a1.31,1.31,0,0,1,.39-.05,1.6,1.6,0,0,1,1.53,1.15l.09.31ZM28.82,27.47l1.4.46.66.23.46.18,1,.4c1.29.56,2.4,1.08,3.42,1.59l.34.17c-.23-.18-.46-.36-.7-.53-3.31-2.39-6.84-4-9.19-4.21a3.8,3.8,0,0,1,0,1ZM45.61,14.6c-1,2.22-1.3,6.64-.94,10.08,0,.24,0,.49.08.74a2,2,0,0,1,0-.25l.08-.93c0-.38.06-.75.1-1.1.05-.61.1-1.22.18-1.79s.15-1,.23-1.49c0-.35.12-.77.21-1.2s.18-.8.23-1h0a.91.91,0,0,0,0,.2,1.25,1.25,0,0,1,0-.32l.64-2.49A4.16,4.16,0,0,1,45.61,14.6Zm4.67,2.94.22.92A20.3,20.3,0,0,1,51,21.23L51,22c.11,1,.22,2.06.27,3.14,0-.14,0-.28,0-.42.37-3.5.1-8-.92-10.14a4.23,4.23,0,0,1-.82.47Z"/><path class="cls-2" d="M51,7.5a5.44,5.44,0,0,1,3.92,2.05c2.35,2.72,3.47,8.13,3.07,14.35,4.38-2.94,8.94-4.66,12.34-4.66,3.12,0,4.65,1.36,5.37,2.53a5.2,5.2,0,0,1,.82,2.9,5.72,5.72,0,0,1,2.13,2.16,5.61,5.61,0,0,1,.17,4.45c-1.18,3.39-5.29,7.07-10.89,9.85,5.6,2.74,9.71,6.47,10.89,9.86a5.58,5.58,0,0,1-.17,4.43,5.77,5.77,0,0,1-2.13,2.18,5.31,5.31,0,0,1-.82,2.94,5.91,5.91,0,0,1-5.37,2.61,17.4,17.4,0,0,1-6.5-1.47c3.63,4.56,7.58,11.82,10.09,24a2.6,2.6,0,1,1-5.09,1A58.9,58.9,0,0,0,62,68.12a34.31,34.31,0,0,0-4-5.32c-.27,4.28-1.34,7.87-3.1,9.92a5.43,5.43,0,0,1-3.92,2,1.11,1.11,0,0,1-.23,0A5.58,5.58,0,0,1,48,74a5.58,5.58,0,0,1-2.72.75.83.83,0,0,1-.2,0,5.47,5.47,0,0,1-3.94-2c-2.34-2.72-3.5-8.16-3.07-14.39C33.65,61.26,29.12,63,25.73,63c-3.12,0-4.65-1.38-5.37-2.53a5.34,5.34,0,0,1-.84-2.91A5.2,5.2,0,0,1,17.24,51c1.15-3.4,5.28-7.09,10.88-9.83-5.6-2.78-9.73-6.46-10.88-9.85a5.44,5.44,0,0,1,.17-4.45,5.6,5.6,0,0,1,2.11-2.16,5.38,5.38,0,0,1,.84-2.9c.72-1.17,2.25-2.53,5.37-2.53,3.39,0,7.92,1.72,12.34,4.66-.43-6.22.73-11.63,3.07-14.35A5.47,5.47,0,0,1,45.08,7.5h.2A5.37,5.37,0,0,1,48,8.25a5.37,5.37,0,0,1,2.72-.75H51m-3,6.27a2.44,2.44,0,0,1-1.71-.72,3.62,3.62,0,0,0-.91-.65v.08H45.3c-.08,0-.23,0-.42.28-2,2.29-2.17,8.51-1.8,12.09a33.06,33.06,0,0,0,.54,3.57,35.72,35.72,0,0,1,2.66,3c-.05-2,0-4.08.08-6.13.06-.67.11-1.32.17-1.93s.1-1.17.18-1.73.14-1,.22-1.46.11-.75.19-1.13c.13-.64.24-1,.24-1L48,15.39l.7,2.57c.07.3.14.59.2.87a20.38,20.38,0,0,1,.42,2.56c.13,1.28.29,2.54.34,3.85s.14,2.77.14,4.15c0,.64,0,1.29,0,1.89a33.42,33.42,0,0,1,2.58-2.87,30.75,30.75,0,0,0,.54-3.57c.39-3.58.21-9.8-1.77-12.09-.31-.35-.44-.35-.44-.35a1.84,1.84,0,0,0-1,.65,2.61,2.61,0,0,1-1.78.72m7.6,21,1.7-1c1.21-.71,2.45-1.38,3.68-2,.57-.29,1.17-.56,1.73-.84l1.58-.7c.46-.19.93-.37,1.38-.54l1.08-.4c.61-.2,1-.29,1-.29l.2.72.5.48c-.26.22-.51.46-.77.69-.67.59-1.34,1.12-2,1.66-.46.35-.94.7-1.41,1s-1,.72-1.58,1.11c-1.17.75-2.35,1.47-3.55,2.17-.55.32-1.11.63-1.65.92a30.89,30.89,0,0,1,3.77.81,28.62,28.62,0,0,0,3.36-1.33c3.32-1.45,8.6-4.7,9.59-7.58a.83.83,0,0,0,.08-.58,2.21,2.21,0,0,0-1-.48,2.74,2.74,0,0,1-1.53-1.14,2.3,2.3,0,0,1-.23-1.83c.22-.76.13-1.14.07-1.22s-.37-.27-1.23-.27c-2.71,0-6.77,1.74-10.68,4.54-1,.74-1.9,1.49-2.8,2.29a29.81,29.81,0,0,1-1.23,3.78M34.82,38.57a30.33,30.33,0,0,1,3.76-.81c-1.78-1-3.5-2-5.2-3.09-.53-.39-1-.74-1.58-1.11s-1-.75-1.4-1-.81-.62-1.16-.91l-.88-.75a5.81,5.81,0,0,1-.76-.71l-1.92-1.89,2.73.74,1.31.43.65.23,1.38.54c1.1.48,2.22,1,3.31,1.54s2.46,1.29,3.68,2c.58.32,1.14.64,1.7,1A32.2,32.2,0,0,1,39.2,31c-.91-.8-1.84-1.55-2.83-2.29-3.87-2.8-8-4.54-10.64-4.54a2,2,0,0,0-1.26.27,2.38,2.38,0,0,0,.08,1.15,2.33,2.33,0,0,1-.24,1.89A2.55,2.55,0,0,1,22.8,28.6a2.28,2.28,0,0,0-1,.48c0,.07-.05.23.08.58,1,2.88,6.27,6.13,9.58,7.58a28.91,28.91,0,0,0,3.38,1.33M67.68,53.32c-.08,0-.43-.11-1-.32-.83-.27-1.65-.59-2.45-.91-1.13-.49-2.24-1-3.34-1.53s-2.45-1.3-3.66-2l-1.64-1a30.39,30.39,0,0,1,1.2,3.68,35.3,35.3,0,0,0,2.8,2.28c3.94,2.84,8,4.58,10.68,4.58.68,0,1.18-.16,1.23-.29s.14-.43-.08-1.18a2.6,2.6,0,0,1,.24-1.89,2.47,2.47,0,0,1,1.53-1.14c.74-.19,1-.43,1-.51s0-.21-.08-.56c-1-2.88-6.27-6.11-9.59-7.6a23.94,23.94,0,0,0-3.36-1.28,35,35,0,0,1-3.9.8c.59.32,1.15.64,1.71,1,1.22.69,2.4,1.42,3.55,2.17s2,1.38,3,2.13c.4.29.78.59,1.16.91s.6.48.88.72c.48.44.76.71.79.71l-.51.51-.2.7M25.73,58.09c2.67,0,6.77-1.76,10.64-4.56a30.34,30.34,0,0,0,2.83-2.25,30.39,30.39,0,0,1,1.19-3.68c-1.73,1.07-3.47,2-5.28,3-.59.25-1.15.56-1.75.83s-1.16.51-1.6.67c-.8.35-1.61.67-2.44.94-.61.21-1,.32-1,.32L25.73,54l1.89-1.92s.3-.27.78-.71c.28-.24.56-.48.87-.72l1.15-.91c.5-.35.94-.7,1.41-1s1.07-.75,1.61-1.11c1.16-.75,2.34-1.48,3.52-2.17l1.76-1a37.52,37.52,0,0,1-3.9-.8A28.64,28.64,0,0,0,31.44,45c-3.31,1.49-8.59,4.72-9.58,7.6-.13.35-.11.53-.08.56s.3.32,1,.51a2.44,2.44,0,0,1,1.75,3,2.35,2.35,0,0,0-.08,1.15,2,2,0,0,0,1.26.27m20.55-7.21a39.71,39.71,0,0,1-2.66,3c-.24,1.18-.43,2.37-.58,3.57-.33,3.61-.17,9.84,1.81,12.14a3.57,3.57,0,0,0,.43.46c.12,0,.47-.24,1-.75A2.59,2.59,0,0,1,48,68.46a2.4,2.4,0,0,1,1.75.75c.51.51.85.64,1,.64a1.4,1.4,0,0,0,.44-.35c2-2.3,2.16-8.5,1.77-12.11a29.79,29.79,0,0,0-.54-3.55c-.91-.92-1.78-1.89-2.58-2.88,0,.62,0,1.23,0,1.88,0,1.48-.06,2.88-.14,4.16s-.19,2.44-.32,3.65c-.08.53-.13,1-.22,1.47s-.13.82-.21,1.14c-.11.62-.21,1-.21,1L48,66.86l-.68-2.61a5.59,5.59,0,0,1-.24-1c-.08-.38-.14-.75-.19-1.14s-.16-.94-.22-1.47-.13-1-.18-1.73-.11-1.26-.17-1.92c-.1-2-.13-4.08-.08-6.12M51,4.3h-.23A8.34,8.34,0,0,0,48,4.75a8.43,8.43,0,0,0-2.72-.45h-.35a8.63,8.63,0,0,0-6.2,3.15c-2.13,2.48-3.45,6.33-3.84,11A22.48,22.48,0,0,0,25.73,16c-4.83,0-7.13,2.5-8.07,4a8.1,8.1,0,0,0-1.16,2.86,8.42,8.42,0,0,0-1.92,2.42,8.67,8.67,0,0,0-.36,7c1,3,3.69,6.09,7.57,8.79-3.87,2.67-6.54,5.74-7.58,8.81a8.62,8.62,0,0,0,.37,7,8.19,8.19,0,0,0,1.92,2.43,8.3,8.3,0,0,0,1.16,2.87c.95,1.51,3.26,4,8.07,4a22.42,22.42,0,0,0,9.16-2.4c.38,4.67,1.7,8.54,3.82,11l0,0a8.74,8.74,0,0,0,6,3.08l.49,0A8.54,8.54,0,0,0,48,77.49a8.18,8.18,0,0,0,2.72.46,3.21,3.21,0,0,0,.5,0,8.61,8.61,0,0,0,6.05-3.09,14,14,0,0,0,2.42-4.26,56,56,0,0,1,6,16.76,5.8,5.8,0,0,0,10.18,2.51A5.77,5.77,0,0,0,77,85a70,70,0,0,0-6.39-18.65,9,9,0,0,0,7.74-4.08,8.09,8.09,0,0,0,1.16-2.94,8.64,8.64,0,0,0,1.91-2.39l0-.1a8.74,8.74,0,0,0,.32-6.91c-1.07-3.07-3.75-6.14-7.59-8.8,3.85-2.69,6.53-5.75,7.59-8.79a8.73,8.73,0,0,0-.32-6.91.54.54,0,0,1,0-.11,8.53,8.53,0,0,0-1.92-2.38,8.09,8.09,0,0,0-1.15-2.87c-.94-1.52-3.24-4-8.07-4a22.41,22.41,0,0,0-9.18,2.39c-.39-4.68-1.71-8.54-3.81-11A8.75,8.75,0,0,0,51.1,4.3Z"/><path class="cls-3" d="M40.39,47.6a30.39,30.39,0,0,0-1.19,3.68,30.34,30.34,0,0,1-2.83,2.25c-3.87,2.8-8,4.56-10.64,4.56a2,2,0,0,1-1.26-.27,2.35,2.35,0,0,1,.08-1.15,2.44,2.44,0,0,0-1.75-3c-.72-.19-1-.43-1-.51s-.05-.21.08-.56c1-2.88,6.27-6.11,9.58-7.6a28.64,28.64,0,0,1,3.38-1.28,37.52,37.52,0,0,0,3.9.8l-1.76,1c-1.18.69-2.36,1.42-3.52,2.17-.54.36-1.08.72-1.61,1.11s-.91.67-1.41,1l-1.15.91c-.31.24-.59.48-.87.72-.48.44-.75.71-.78.71L25.73,54l2.59-.71s.39-.11,1-.32c.83-.27,1.64-.59,2.44-.94.44-.16,1-.4,1.6-.67s1.16-.58,1.75-.83C36.92,49.63,38.66,48.67,40.39,47.6Z"/><path class="cls-3" d="M51.16,69.5a1.4,1.4,0,0,1-.44.35c-.12,0-.46-.13-1-.64A2.4,2.4,0,0,0,48,68.46a2.59,2.59,0,0,0-1.74.83c-.51.51-.86.75-1,.75a3.57,3.57,0,0,1-.43-.46c-2-2.3-2.14-8.53-1.81-12.14.15-1.2.34-2.39.58-3.57a39.71,39.71,0,0,0,2.66-3c-.05,2,0,4.09.08,6.12.06.66.11,1.3.17,1.92s.13,1.27.18,1.73.14,1,.22,1.47.11.76.19,1.14a5.59,5.59,0,0,0,.24,1L48,66.86l.7-2.61s.1-.37.21-1c.08-.32.13-.74.21-1.14s.14-.94.22-1.47c.13-1.21.27-2.43.32-3.65s.14-2.68.14-4.16c0-.65,0-1.26,0-1.88.8,1,1.67,2,2.58,2.88a29.79,29.79,0,0,1,.54,3.55C53.32,61,53.14,67.2,51.16,69.5Z"/><path class="cls-3" d="M74.23,53.13c0,.08-.29.32-1,.51a2.47,2.47,0,0,0-1.53,1.14,2.6,2.6,0,0,0-.24,1.89c.22.75.14,1.12.08,1.18s-.55.29-1.23.29c-2.68,0-6.74-1.74-10.68-4.58a35.3,35.3,0,0,1-2.8-2.28,30.39,30.39,0,0,0-1.2-3.68l1.64,1c1.21.7,2.43,1.37,3.66,2s2.21,1,3.34,1.53c.8.32,1.62.64,2.45.91.56.21.91.29,1,.32l.2-.7.51-.51s-.31-.27-.79-.71c-.28-.24-.56-.48-.88-.72s-.76-.62-1.16-.91c-1-.75-2-1.45-3-2.13S60.23,46.16,59,45.47c-.56-.34-1.12-.66-1.71-1a35,35,0,0,0,3.9-.8A23.94,23.94,0,0,1,64.56,45c3.32,1.49,8.6,4.72,9.59,7.6C74.28,52.92,74.26,53.1,74.23,53.13Z"/><path class="cls-3" d="M74.15,29.66c-1,2.88-6.27,6.13-9.59,7.58a28.62,28.62,0,0,1-3.36,1.33,30.89,30.89,0,0,0-3.77-.81c.54-.29,1.1-.6,1.65-.92,1.2-.7,2.38-1.42,3.55-2.17.53-.39,1-.74,1.58-1.11s1-.67,1.41-1c.69-.54,1.36-1.07,2-1.66.26-.23.51-.47.77-.69l-.5-.48-.2-.72s-.39.09-1,.29l-1.08.4c-.45.17-.92.35-1.38.54l-1.58.7c-.56.28-1.16.55-1.73.84-1.23.62-2.47,1.29-3.68,2l-1.7,1A29.81,29.81,0,0,0,56.8,31c.9-.8,1.84-1.55,2.8-2.29,3.91-2.8,8-4.54,10.68-4.54.86,0,1.18.19,1.23.27s.14.43-.05,1.15a2.44,2.44,0,0,0,.21,1.89A2.69,2.69,0,0,0,73.2,28.6a2.21,2.21,0,0,1,1,.48A.83.83,0,0,1,74.15,29.66Z"/><path class="cls-3" d="M52.93,24.84a30.75,30.75,0,0,1-.54,3.57,33.42,33.42,0,0,0-2.58,2.87c0-.6,0-1.25,0-1.89,0-1.38-.06-2.77-.14-4.15s-.19-2.44-.32-3.66c-.11-.86-.24-1.73-.4-2.59-.08-.34-.16-.67-.24-1L48,15.39,47.36,18s-.11.39-.24,1c-.08.38-.14.77-.19,1.13s-.16,1-.22,1.46-.13,1.15-.18,1.73-.11,1.26-.17,1.93c-.1,2.05-.13,4.1-.08,6.13a35.72,35.72,0,0,0-2.66-3,33.06,33.06,0,0,1-.54-3.57c-.37-3.58-.2-9.8,1.8-12.09.28-.35.47-.27.47-.27V12.4a3.62,3.62,0,0,1,.91.65,2.44,2.44,0,0,0,1.71.72,2.61,2.61,0,0,0,1.78-.72,1.84,1.84,0,0,1,1-.65s.13,0,.44.35C53.14,15,53.32,21.26,52.93,24.84Z"/><path class="cls-3" d="M28.29,29l-2.61-.71,1.92,1.89a5.81,5.81,0,0,0,.76.71l.88.75c.35.29.73.59,1.16.91s.85.64,1.4,1,1.05.72,1.58,1.11c1.7,1.1,3.42,2.13,5.2,3.09a30.33,30.33,0,0,0-3.76.81,28.91,28.91,0,0,1-3.38-1.33c-3.31-1.45-8.59-4.7-9.58-7.58-.13-.35-.11-.51-.08-.58a2.28,2.28,0,0,1,1-.48,2.55,2.55,0,0,0,1.51-1.15,2.33,2.33,0,0,0,.24-1.89,2.38,2.38,0,0,1-.08-1.15,2,2,0,0,1,1.26-.27c2.67,0,6.77,1.74,10.64,4.54,1,.74,1.92,1.49,2.83,2.29a32.2,32.2,0,0,0,1.24,3.78c-.56-.35-1.12-.67-1.7-1-1.22-.71-2.45-1.38-3.68-2s-2.21-1.06-3.31-1.54l-1.38-.54-1.1-.4C29,29.18,28.63,29.07,28.29,29Z"/></svg>